<?xml version="1.0" encoding="UTF-8"?>
<!DOCTYPE svg PUBLIC "-//W3C//DTD SVG 1.1//EN" "http://www.w3.org/Graphics/SVG/1.1/DTD/svg11.dtd">
<!-- Creator: CorelDRAW X5 -->
<svg xmlns="http://www.w3.org/2000/svg" xml:space="preserve" width="1999.64mm" height="779.468mm" style="shape-rendering:geometricPrecision; text-rendering:geometricPrecision; image-rendering:optimizeQuality; fill-rule:evenodd; clip-rule:evenodd"
viewBox="0 0 49163 19164"
 xmlns:xlink="http://www.w3.org/1999/xlink">
 <defs>
  <style type="text/css">
   <![CDATA[
    .str0 {stroke:#2B2A29;stroke-width:4.91718}
    .fil4 {fill:none}
    .fil19 {fill:#967BB6}
    .fil17 {fill:#242121}
    .fil8 {fill:#5ED95B}
    .fil18 {fill:#7D9BAD}
    .fil9 {fill:#CFE3EB}
    .fil10 {fill:#E7EDF0}
    .fil20 {fill:#EBEBEB}
    .fil1 {fill:#FEB48C}
    .fil11 {fill:#FF5A46}
    .fil0 {fill:#1F1B20}
    .fil15 {fill:#80858B}
    .fil14 {fill:#A5A9AC}
    .fil6 {fill:#B4CBE1}
    .fil5 {fill:#BDDECC}
    .fil21 {fill:#C8C8C8}
    .fil7 {fill:#D3C9E4}
    .fil16 {fill:#D6E8F3}
    .fil13 {fill:#ECCBBA}
    .fil12 {fill:#A58F0A}
    .fil2 {fill:#2B2A29;fill-rule:nonzero}
    .fil29 {fill:#EA5A5B;fill-rule:nonzero}
    .fil32 {fill:#FFED00;fill-rule:nonzero}
    .fil23 {fill:#22313B;fill-rule:nonzero}
    .fil25 {fill:#2D313D;fill-rule:nonzero}
    .fil28 {fill:#4D4D4D;fill-rule:nonzero}
    .fil33 {fill:#4E756D;fill-rule:nonzero}
    .fil24 {fill:#7D9BAD;fill-rule:nonzero}
    .fil31 {fill:#9D273F;fill-rule:nonzero}
    .fil22 {fill:#D4E1E2;fill-rule:nonzero}
    .fil26 {fill:#FEB48C;fill-rule:nonzero}
    .fil30 {fill:white;fill-rule:nonzero}
    .fil27 {fill:#AAAAAB;fill-rule:nonzero}
    .fil3 {fill:#99B7C9;fill-rule:nonzero}
   ]]>
  </style>
 </defs>
 <g id="Vrstva_x0020_1">
  <metadata id="CorelCorpID_0Corel-Layer"/>
  <g id="_617339376">
   <path class="fil0" d="M28644 3975c-78,31 -23,-34 -20,-79 3,-45 -46,-72 -124,-96 -77,-24 -183,-45 -272,-109 -89,-64 -162,-171 -200,-313 -38,-142 -40,-318 -74,-473 -34,-155 -101,-287 -93,-401 8,-114 90,-209 134,-300 44,-91 51,-177 119,-231 68,-55 196,-78 320,-114 124,-36 244,-85 372,-103 129,-19 266,-7 368,24 102,31 168,82 246,128 78,45 166,85 224,157 58,72 84,177 110,289 26,113 50,234 60,373 10,139 6,297 -43,418 -48,121 -141,204 -201,273 -60,69 -86,124 -151,168 -65,44 -169,76 -327,154 -158,79 -370,204 -449,234z"/>
   <path class="fil1" d="M29219 4050c-26,-135 -50,-178 -63,-242 -12,-63 -12,-147 2,-228 14,-81 43,-159 76,-207 33,-48 69,-67 120,-102 50,-35 115,-86 147,-142 32,-56 32,-118 25,-168 -7,-50 -22,-88 -39,-110 -18,-22 -39,-28 -63,-28 -24,-1 -50,4 -76,21 -25,17 -50,46 -75,91 -25,45 -50,105 -64,116 -14,10 -16,-29 -12,-74 4,-45 16,-95 21,-145 5,-51 4,-102 -4,-156 -8,-55 -22,-113 -35,-135 -13,-23 -26,-10 -108,25 -83,35 -236,92 -398,100 -162,9 -334,-31 -426,-48 -92,-17 -104,-11 -103,28 2,39 17,111 24,175 7,64 6,120 -3,157 -9,38 -26,58 -33,113 -7,56 -5,148 23,263 28,116 81,255 145,346 64,91 140,132 183,155 43,22 54,24 34,119 -20,95 -72,282 -145,503 -73,221 -168,477 -156,609 12,132 133,142 288,166 156,24 347,63 486,-36 139,-99 224,-337 253,-570 29,-233 1,-460 -25,-596z"/>
   <path class="fil0" d="M29782 2841c-35,12 -79,-21 -182,-55 -103,-34 -263,-70 -354,-167 -90,-96 -110,-253 -104,-386 7,-133 40,-242 96,-334 56,-92 134,-166 234,-186 100,-19 220,17 316,88 96,71 167,178 176,336 9,159 -44,369 -83,503 -39,133 -65,189 -100,201z"/>
   <path class="fil1" d="M29682 8435c-98,-129 -111,-403 -63,-537 49,-134 159,-129 243,-111 84,18 142,48 191,100 49,52 88,126 115,167 27,41 42,49 153,-142 111,-191 319,-582 441,-806 122,-224 160,-281 210,-326 50,-44 114,-76 178,-83 64,-7 129,9 182,30 52,21 91,46 124,71 33,25 60,50 84,89 24,38 44,89 33,142 -11,53 -53,107 -135,205 -82,99 -204,242 -392,446 -188,205 -441,471 -602,623 -161,152 -230,190 -355,217 -126,27 -309,43 -408,-86z"/>
   <path class="fil2" d="M41276 5260l720 0 286 -744 1309 0 270 744 701 0 -1275 -3274 -699 0 -1311 3274zm1217 -1295l451 -1215 442 1215 -893 0z"/>
   <path class="fil3" d="M8783 1986l1293 0c256,0 447,11 573,32 126,21 238,65 337,133 99,68 181,157 248,270 66,112 99,239 99,378 0,151 -41,291 -122,417 -82,126 -193,221 -332,285 197,57 349,155 454,293 106,139 159,301 159,488 0,147 -34,290 -102,429 -69,139 -162,250 -280,333 -118,83 -264,134 -438,154 -108,11 -371,19 -788,22l-1101 0 0 -3234zm654 538l0 748 428 0c254,0 413,-4 474,-11 111,-13 200,-51 264,-115 64,-64 96,-148 96,-253 0,-100 -27,-181 -82,-244 -56,-63 -138,-100 -246,-113 -65,-8 -251,-11 -558,-11l-375 0zm0 1286l0 864 604 0c236,0 385,-6 448,-20 97,-17 176,-61 237,-129 61,-69 92,-160 92,-275 0,-97 -24,-179 -71,-247 -47,-68 -115,-117 -204,-148 -89,-31 -282,-46 -579,-46l-527 0z"/>
   <rect class="fil4 str0" x="35551" y="6339" width="9087" height="3207"/>
   <rect class="fil5" x="34406" y="5652" width="11073" height="686"/>
   <rect class="fil6" x="40667" y="10148" width="3971" height="6033"/>
   <rect class="fil7" x="35628" y="13636" width="3971" height="2534"/>
   <path class="fil8" d="M15116 4006l-756 -756 -378 378 756 756 378 378 1890 -1890 -378 -378c-556,556 -956,956 -1512,1512z"/>
   <rect class="fil9" x="8767" y="6339" width="9087" height="2673" rx="305" ry="305"/>
   <rect class="fil10" x="8843" y="9737" width="3971" height="2978" rx="229" ry="229"/>
   <path class="fil3" d="M41276 5260l720 0 286 -744 1309 0 270 744 701 0 -1275 -3274 -699 0 -1311 3274zm1217 -1295l451 -1215 442 1215 -893 0z"/>
   <rect class="fil11" transform="matrix(-0.439249 -0.439249 -0.439249 0.439249 38632.4 2871.77)" width="861" height="4303"/>
   <rect class="fil11" transform="matrix(0.439249 -0.439249 0.439249 0.439249 36364.5 2871.77)" width="861" height="4303"/>
   <rect class="fil12" x="35551" y="6339" width="9087" height="3207"/>
   <rect class="fil13" x="35628" y="10148" width="3971" height="2978"/>
   <rect class="fil12" x="47636" y="1528" width="1527" height="1527"/>
   <rect class="fil6" x="47636" y="3594" width="1527" height="1527"/>
   <rect class="fil13" x="47636" y="5661" width="1527" height="1527"/>
   <rect class="fil7" x="47636" y="7727" width="1527" height="1527"/>
   <rect class="fil5" x="47636" y="9794" width="1527" height="1527"/>
   <rect class="fil10" x="13845" y="9737" width="3971" height="2978" rx="229" ry="229"/>
   <path class="fil14" d="M45268 779l-10653 0c-420,0 -764,344 -764,764l0 14937c0,420 344,764 764,764l10653 0c420,0 764,-344 764,-764l0 -14937c0,-420 -344,-764 -764,-764zm210 748l-11073 0 0 14967 11073 0 0 -14967z"/>
   <rect class="fil15" x="37498" y="459" width="4887" height="1298"/>
   <path class="fil15" d="M39942 0c-253,0 -459,205 -459,459 0,253 205,459 459,459 253,0 459,-205 459,-459 0,-253 -205,-459 -459,-459zm0 131c-181,0 -328,147 -328,328 0,181 147,328 328,328 181,0 328,-147 328,-328 0,-181 -147,-328 -328,-328z"/>
   <path class="fil16" d="M38807 2094l-2769 0c-247,0 -449,202 -449,449l0 2245c0,247 202,449 449,449l2769 0c247,0 449,-202 449,-449l0 -2245c0,-247 -202,-449 -449,-449zm28 -32l-2825 0c-252,0 -458,206 -458,458l0 2291c0,252 206,458 458,458l2825 0c252,0 458,-206 458,-458l0 -2291c0,-252 -206,-458 -458,-458z"/>
   <path class="fil16" d="M14086 2094l2769 0c247,0 449,202 449,449l0 2245c0,247 -202,449 -449,449l-2769 0c-247,0 -449,-202 -449,-449l0 -2245c0,-247 202,-449 449,-449zm-28 -32l2825 0c252,0 458,206 458,458l0 2291c0,252 -206,458 -458,458l-2825 0c-252,0 -458,-206 -458,-458l0 -2291c0,-252 206,-458 458,-458z"/>
   <rect class="fil17" x="20851" y="1528" width="1527" height="1527"/>
   <rect class="fil10" x="20851" y="3594" width="1527" height="1527"/>
   <rect class="fil18" x="20851" y="5661" width="1527" height="1527"/>
   <rect class="fil9" x="20851" y="7727" width="1527" height="1527"/>
   <rect class="fil11" x="20851" y="9794" width="1527" height="1527"/>
   <path class="fil14" d="M18484 779l-10653 0c-420,0 -764,344 -764,764l0 14937c0,420 344,764 764,764l10653 0c420,0 764,-344 764,-764l0 -14937c0,-420 -344,-764 -764,-764zm210 748l-11073 0 0 14967 11073 0 0 -14967z"/>
   <rect class="fil15" x="10657" y="459" width="4887" height="1298"/>
   <path class="fil15" d="M13101 0c-253,0 -459,205 -459,459 0,253 205,459 459,459 253,0 459,-205 459,-459 0,-253 -205,-459 -459,-459zm0 131c-181,0 -328,147 -328,328 0,181 147,328 328,328 181,0 328,-147 328,-328 0,-181 -147,-328 -328,-328z"/>
   <rect class="fil10" x="8843" y="13326" width="3971" height="2978" rx="229" ry="229"/>
   <rect class="fil10" x="13845" y="13326" width="3971" height="2978" rx="229" ry="229"/>
   <rect class="fil0" x="47636" y="11860" width="1527" height="1527"/>
   <rect class="fil8" x="20851" y="11860" width="1527" height="1527"/>
   <path class="fil1" d="M30670 17314c-41,-216 -82,-258 -101,-623 -19,-365 163,-1368 137,-1910 -14,-297 -231,-2422 -365,-2482 -125,-56 -373,-128 -560,-98 -187,30 -315,164 -442,298 617,889 951,3502 839,4187 -19,118 -121,225 -103,594 83,-24 215,252 304,243 89,-9 198,-216 292,-209z"/>
   <path class="fil0" d="M30086 17257c105,-32 171,-52 272,-62 101,-10 168,-17 263,-5 -6,-87 -57,-230 -34,-290 18,83 81,190 96,329 15,139 26,334 0,467 -26,133 -90,204 -152,240 -61,35 -120,35 -186,8 -66,-27 -139,-81 -198,-186 -59,-106 -104,-263 -115,-410 -11,-147 43,-270 66,-406 7,31 -8,248 -12,315z"/>
   <path class="fil1" d="M28093 16674c0,-148 -18,-365 -27,-621 -9,-256 -9,-552 34,-873 43,-321 128,-666 194,-978 66,-312 112,-590 135,-910 23,-320 23,-681 -76,-927 -99,-246 -296,-378 -460,-411 -164,-33 -296,33 -356,205 -60,172 -49,449 -32,926 16,476 38,1151 49,1652 11,502 11,830 2,1115 -9,285 -27,526 -43,690 -16,164 -31,251 -37,327 -6,76 -3,139 -13,185 -9,46 -31,74 -70,133 -39,59 -96,149 -86,218 9,69 85,117 177,100 92,-17 201,-97 299,-196 99,-99 187,-215 240,-312 53,-97 71,-176 71,-323z"/>
   <path class="fil19" d="M30521 12742c-350,65 -1122,82 -1478,99 -355,16 -1314,-66 -1675,-99 -296,-690 276,-5354 296,-5419 176,27 673,9 887,0 213,-9 753,-3 1003,-49 1165,837 971,5419 967,5468z"/>
   <path class="fil1" d="M25989 6223c-296,49 -690,82 -1018,115 -328,33 -591,66 -739,66 -148,0 -181,-33 -213,-82 -33,-49 -66,-115 -82,-164 -16,-49 -16,-82 -32,-98 -15,-16 -46,-16 -71,-14 -26,2 -47,4 -48,37 -1,33 17,95 29,167 12,72 17,154 -32,186 -49,33 -153,17 -254,13 -101,-4 -201,4 -251,27 -50,23 -52,60 -25,83 27,23 82,31 72,46 -11,15 -88,37 -91,62 -3,26 66,56 63,88 -4,32 -82,65 -69,98 13,33 117,65 124,84 7,19 -84,25 -82,43 2,17 97,46 229,62 132,16 303,19 429,-2 126,-21 208,-65 265,-104 57,-39 90,-71 435,-88 345,-16 1002,-16 1396,-33 394,-16 525,-49 640,-148 115,-99 213,-263 213,-378 0,-115 -99,-181 -246,-181 -148,0 -345,66 -640,115z"/>
   <path class="fil20" d="M30948 6946c131,49 394,115 525,148 131,33 131,33 148,-16 16,-49 49,-148 82,-246 33,-99 66,-197 66,-279 0,-82 -33,-148 -263,-460 -230,-312 -657,-870 -903,-1182 -246,-312 -312,-378 -394,-427 -82,-49 -181,-82 -296,-99 -115,-16 -246,-16 -312,-16 -66,0 -66,0 -82,-33 -16,-33 -49,-99 -99,-131 -49,-33 -115,-33 -181,115 -66,148 -131,443 -263,608 -131,164 -328,197 -427,213 -99,16 -99,16 -99,-115 0,-131 0,-394 -131,-525 -131,-131 -394,-131 -525,-115 -131,16 -131,49 -328,328 -197,279 -591,805 -805,1067 -213,263 -246,263 -312,279 -66,16 -164,49 -213,66 -49,16 -49,16 16,131 66,115 197,345 279,460 82,115 115,115 164,115 49,0 115,0 263,-115 148,-115 378,-345 493,-460 115,-115 115,-115 115,0 0,115 0,345 33,558 33,213 99,411 158,503 60,92 113,79 427,83 314,4 888,24 1189,-19 302,-43 331,-149 371,-273 40,-124 89,-267 138,-448 49,-181 98,-399 123,-574 24,-175 24,-306 41,-372 16,-66 49,-66 213,82 164,148 460,443 608,608 148,164 148,197 131,246 -16,49 -49,115 -66,164 -16,49 -16,82 115,131z"/>
   <path class="fil21" d="M29540 4356c-24,-81 -76,-145 -134,-200 -58,-56 -123,-103 -155,-127 -32,-24 -32,-24 -48,56 -15,80 -46,240 -120,392 -74,152 -191,298 -298,402 -106,104 -202,168 -251,198 -49,31 -50,28 -56,-79 -6,-107 -16,-319 -18,-479 -2,-160 6,-267 9,-320 3,-54 2,-54 -51,0 -53,54 -157,161 -212,266 -55,105 -60,208 -31,235 29,26 92,-24 132,49 40,73 58,270 78,375 20,105 43,118 129,95 86,-23 235,-82 366,-202 130,-120 242,-302 299,-391 57,-89 61,-86 78,-15 17,71 49,209 68,276 19,67 27,62 63,8 36,-54 101,-156 136,-257 35,-101 39,-201 15,-282z"/>
   <path class="fil4" d="M29206 3998c-14,-84 -38,-127 -50,-190 -12,-63 -12,-147 2,-228 14,-81 43,-159 76,-207 33,-48 69,-67 120,-102 50,-35 115,-86 147,-142 32,-56 32,-118 25,-168 -7,-50 -22,-88 -39,-110 -18,-22 -39,-28 -63,-28 -24,-1 -50,4 -76,21 -25,17 -50,46 -75,91 -25,45 -50,105 -64,116 -14,10 -16,-29 -12,-74 4,-45 16,-95 21,-145 5,-51 4,-102 -4,-156 -8,-55 -22,-113 -35,-135 -13,-23 -26,-10 -108,25 -83,35 -236,92 -398,100 -162,9 -334,-31 -426,-48 -92,-17 -104,-11 -103,28 2,39 17,111 24,175 7,64 6,120 -3,157 -9,38 -26,58 -33,113 -7,56 -5,148 23,263 28,116 81,255 145,346 64,91 140,132 183,155 43,22 54,24 42,121 -13,96 -49,287 -64,491 -14,204 -7,421 -2,552 5,131 7,175 64,121 57,-54 167,-206 294,-357 126,-151 268,-301 338,-438 69,-137 66,-261 52,-345z"/>
   <path class="fil0" d="M28141 3429c29,105 73,308 118,425 45,117 90,148 98,157 8,9 -20,-5 -54,-38 -33,-34 -72,-88 -115,-194 -43,-105 -91,-262 -109,-348 -18,-87 -6,-104 7,-109 13,-5 26,2 54,107z"/>
   <path class="fil0 str0" d="M27128 17381c-118,75 -244,112 -327,154 -270,136 -35,178 133,184 185,6 498,-4 714,-101 216,-97 337,-281 457,-465 16,68 32,136 44,213 12,77 21,163 29,249 19,7 38,14 57,21 41,-100 82,-199 102,-327 20,-127 18,-283 -24,-410 -42,-127 -152,-216 -234,-314 -26,115 -65,307 -167,446 -102,139 -245,273 -332,324 -87,51 -170,24 -195,-21 -25,-45 39,-183 66,-249 -111,114 -205,221 -324,296z"/>
   <path class="fil22" d="M533 19164l0 0c-6,-330 -161,-576 -161,-576l0 0c0,0 153,245 161,576z"/>
   <path class="fil23" d="M2678 16939l-40 405c0,0 397,169 467,89 70,-80 119,-59 119,-59l34 -513 -579 78z"/>
   <polygon class="fil23" points="950,16815 974,17204 1491,17178 1552,16745 "/>
   <path class="fil24" d="M1088 10254c0,0 -29,1017 30,1601 59,583 169,2041 81,2475 -81,399 -328,2144 -374,2650 -5,56 41,104 100,104 228,1 592,38 654,-73 80,-143 673,-2361 761,-2794 88,-434 292,-1882 292,-1882 0,0 17,1673 5,2109l-73 2571c-2,63 54,114 119,108 208,-19 460,-22 629,-71 0,0 271,-1709 370,-2506 98,-797 252,-3699 43,-4033 -209,-334 -2637,-258 -2637,-258z"/>
   <path class="fil25" d="M890 17222c0,0 561,-114 702,-118 0,0 -4,138 64,208 68,71 475,495 403,562 -72,67 -772,116 -1186,-34l17 -619z"/>
   <path class="fil25" d="M2632 17258c-24,-2 -45,16 -46,39l-15 520c0,0 -65,61 314,72 379,11 1390,39 1454,-21 65,-61 4,-125 -309,-260 -312,-134 -653,-364 -776,-492 -440,-13 193,228 -623,142z"/>
   <path class="fil26" d="M1958 5517l92 -370 800 5 57 471c0,0 -403,586 -948,-106z"/>
   <path class="fil26" d="M3277 4116c0,0 -6,393 -20,602 -15,210 -42,690 -465,730 -424,41 -649,-182 -797,-282 0,0 -473,-473 -393,-608 80,-135 178,-549 598,-520 419,29 1079,77 1079,77z"/>
   <path class="fil27" d="M1801 5454c135,881 998,2200 1508,2819 199,-419 179,-2215 67,-2496 -117,-83 -456,-166 -456,-166l-158 133 -795 -423 -166 133z"/>
   <path class="fil2" d="M3707 9681c0,-99 50,-1790 50,-1790 0,0 182,-1227 -17,-1658 -80,-173 -339,-475 -528,-533 196,876 294,1649 97,2573l-190 1991 116 587c0,0 263,-18 552,-262 0,0 -80,-809 -80,-909z"/>
   <path class="fil28" d="M2920 5611l-158 133 -795 -423 -28 22 565 641 243 -176 280 137 148 -259c-126,-43 -254,-75 -254,-75z"/>
   <path class="fil2" d="M3309 8272l0 0c-430,-521 -1035,-2132 -1508,-2819 0,0 -547,228 -920,530l108 2172 156 946 -207 1588c0,0 1336,284 2082,110 0,0 423,-2201 348,-2375 -9,-22 -29,-75 -58,-152z"/>
   <path class="fil29" d="M2937 9998l-1370 -583c-35,-15 -52,-56 -37,-91l805 -1893c15,-35 56,-52 92,-37l1370 583c36,15 52,56 37,92l-805 1893c-15,35 -56,52 -92,37z"/>
   <path class="fil30" d="M3013 9120l-660 -281c-15,-6 -22,-25 -15,-41 7,-16 25,-24 40,-18l660 281c15,6 22,25 15,41 -7,16 -25,24 -40,17z"/>
   <path class="fil31" d="M2755 8840l-301 -128c-15,-6 -22,-25 -15,-41 7,-16 25,-24 40,-18l301 128c15,6 22,25 15,41 -7,16 -25,24 -39,18z"/>
   <path class="fil30" d="M2620 9158l-301 -128c-15,-6 -22,-25 -15,-41 7,-16 25,-24 40,-18l301 128c15,6 22,25 15,41 -7,16 -25,24 -39,18z"/>
   <path class="fil32" d="M3198 4120c-224,-38 -570,35 -597,153 -28,118 60,245 -28,262 -87,17 -120,-116 -193,-89 -74,27 -193,59 -170,175 23,115 -32,497 -64,562 -32,64 -272,9 -295,0 -23,-9 -136,-350 -220,-493 -84,-143 -354,-958 0,-1123 0,0 54,-198 257,-276 203,-78 548,-129 801,-23 253,106 539,290 670,258 0,0 112,0 66,88 -46,88 -104,140 -175,175 0,0 143,-69 226,-120 114,-69 -22,496 -277,453z"/>
   <path class="fil30" d="M3292 8446l-660 -281c-15,-6 -22,-25 -15,-41 7,-16 25,-24 40,-18l660 281c15,6 22,25 15,41 -7,16 -25,24 -39,18z"/>
   <path class="fil30" d="M3361 8288l-301 -128c-15,-6 -22,-25 -15,-41 7,-16 25,-24 39,-18l301 128c15,6 22,25 15,41 -7,16 -25,24 -40,18z"/>
   <path class="fil30" d="M3146 8783l-660 -281c-15,-6 -22,-25 -15,-41 7,-16 25,-24 40,-18l660 281c15,6 22,25 15,41 -7,16 -24,24 -39,18z"/>
   <path class="fil30" d="M2952 8534l-301 -128c-15,-6 -22,-25 -15,-41 7,-16 25,-24 40,-18l301 128c15,6 22,25 15,41 -7,16 -25,24 -39,18z"/>
   <path class="fil30" d="M2914 9398l-660 -281c-15,-6 -22,-25 -15,-41 7,-16 25,-24 40,-17l660 281c15,6 22,25 15,41 -7,16 -25,24 -40,18z"/>
   <path class="fil26" d="M2648 8540c0,0 -279,19 -457,230 -9,17 -29,25 -19,48l-22 337c375,3 538,-5 601,-27 174,-61 430,-196 220,-306 164,-102 89,-101 -5,-207 23,-25 108,-165 18,-207 -125,-52 -336,132 -336,132z"/>
   <path class="fil2" d="M1125 5836c0,0 -727,215 -1021,1855 -294,1640 94,1528 422,1587 329,59 1681,-12 1681,-12l13 -605c0,0 -1314,-59 -1400,-158 -86,-99 41,-469 237,-985 195,-516 272,-1569 68,-1682z"/>
   <path class="fil33" d="M5321 4385c1,-4 -1,-9 -5,-12 -1,-1 -3,-1 -4,-1 1,2 2,3 4,5 -2,2 -3,3 -4,5 3,1 6,2 10,4z"/>
   <path class="fil33" d="M5765 6281c4,-1 7,-4 8,-7 -3,-4 -6,-8 -9,-12 0,3 -1,6 -1,9 1,3 1,7 2,10z"/>
   <path class="fil33" d="M6189 6033c0,0 1,0 1,0 0,0 0,-1 -1,-1 0,0 0,1 0,1z"/>
   <path class="fil33" d="M6189 7234c0,0 1,0 1,0 0,0 0,-1 -1,-1 0,0 0,1 0,1z"/>
  </g>
 </g>
</svg>
