<svg width="4884" height="2947" viewBox="0 0 4884 2947" fill="none" xmlns="http://www.w3.org/2000/svg">
<rect x="1148" y="170" width="1754" height="2404" fill="white"/>
<path fill-rule="evenodd" clip-rule="evenodd" d="M4403.38 611.064C4391.39 615.83 4399.85 605.837 4400.31 598.92C4400.77 592.002 4393.24 587.851 4381.25 584.162C4369.41 580.472 4353.12 577.244 4339.43 567.406C4325.75 557.567 4314.53 541.118 4308.69 519.289C4302.85 497.46 4302.54 470.404 4297.31 446.576C4292.09 422.749 4281.79 402.457 4283.02 384.932C4284.25 367.407 4296.85 352.803 4303.62 338.814C4310.38 324.825 4311.46 311.604 4321.91 303.303C4332.36 294.848 4352.04 291.312 4371.1 285.778C4390.16 280.244 4408.61 272.711 4428.29 269.944C4448.12 267.023 4469.18 268.868 4484.86 273.634C4500.54 278.399 4510.69 286.239 4522.68 293.311C4534.67 300.228 4548.2 306.378 4557.11 317.446C4566.03 328.514 4570.02 344.656 4574.02 361.873C4578.02 379.244 4581.71 397.845 4583.25 419.213C4584.78 440.581 4584.17 464.87 4576.63 483.471C4569.26 502.072 4554.96 514.831 4545.74 525.438C4536.51 536.045 4532.52 544.5 4522.52 551.264C4512.53 558.028 4496.54 562.948 4472.25 574.938C4447.97 587.083 4415.38 606.299 4403.23 610.91L4403.38 611.064Z" fill="#1F1B20"/>
<path fill-rule="evenodd" clip-rule="evenodd" d="M4491.78 622.594C4487.78 601.84 4484.09 595.23 4482.09 585.392C4480.25 575.707 4480.25 562.794 4482.4 550.342C4484.55 537.89 4489.01 525.899 4494.08 518.521C4499.16 511.142 4504.69 508.221 4512.53 502.84C4520.22 497.46 4530.21 489.62 4535.13 481.011C4540.05 472.403 4540.05 462.871 4538.97 455.185C4537.9 447.499 4535.59 441.657 4532.98 438.275C4530.21 434.893 4526.98 433.971 4523.29 433.971C4519.6 433.817 4515.6 434.586 4511.61 437.199C4507.76 439.812 4503.92 444.271 4500.08 451.188C4496.24 458.106 4492.39 467.33 4490.24 469.021C4488.09 470.558 4487.78 464.562 4488.4 457.645C4489.01 450.727 4490.85 443.041 4491.62 435.354C4492.39 427.514 4492.24 419.674 4491.01 411.373C4489.78 402.918 4487.63 394.002 4485.63 390.62C4483.63 387.084 4481.63 389.083 4469.03 394.463C4456.27 399.843 4432.75 408.606 4407.84 409.836C4382.94 411.219 4356.5 405.07 4342.35 402.457C4328.21 399.843 4326.37 400.766 4326.52 406.761C4326.83 412.757 4329.13 423.825 4330.21 433.663C4331.29 443.502 4331.13 452.111 4329.75 457.798C4328.37 463.64 4325.75 466.715 4324.68 475.17C4323.6 483.778 4323.91 497.921 4328.21 515.6C4332.52 533.432 4340.66 554.8 4350.5 568.789C4360.34 582.778 4372.02 589.081 4378.63 592.617C4385.24 595.999 4386.94 596.306 4383.86 610.91C4380.79 625.514 4372.79 654.261 4361.57 688.235C4350.35 722.209 4335.74 761.563 4337.59 781.855C4339.43 802.147 4358.03 803.684 4381.86 807.373C4405.84 811.063 4435.21 817.058 4456.57 801.839C4477.94 786.62 4491.01 750.033 4495.47 714.215C4499.92 678.396 4495.62 643.5 4491.62 622.594H4491.78Z" fill="#FEB48C"/>
<path fill-rule="evenodd" clip-rule="evenodd" d="M4578.33 436.738C4572.95 438.583 4566.18 433.51 4550.35 428.283C4534.51 423.056 4509.92 417.522 4495.93 402.611C4482.09 387.853 4479.02 363.718 4479.94 343.272C4481.02 322.826 4486.09 306.07 4494.7 291.927C4503.31 277.784 4515.3 266.409 4530.67 263.334C4546.04 260.413 4564.49 265.947 4579.25 276.862C4594.01 287.777 4604.92 304.225 4606.3 328.514C4607.69 352.957 4599.54 385.239 4593.54 405.839C4587.55 426.285 4583.55 434.893 4578.17 436.738H4578.33Z" fill="#1F1B20"/>
<path fill-rule="evenodd" clip-rule="evenodd" d="M4562.95 1296.69C4547.89 1276.86 4545.89 1234.73 4553.27 1214.13C4560.8 1193.54 4577.71 1194.3 4590.62 1197.07C4603.54 1199.84 4612.45 1204.45 4619.99 1212.44C4627.52 1220.44 4633.51 1231.81 4637.66 1238.12C4641.82 1244.42 4644.12 1245.65 4661.18 1216.29C4678.25 1186.92 4710.22 1126.82 4728.98 1092.38C4747.73 1057.95 4753.57 1049.19 4761.26 1042.27C4768.95 1035.5 4778.79 1030.58 4788.62 1029.51C4798.46 1028.43 4808.45 1030.89 4816.6 1034.12C4824.6 1037.35 4830.59 1041.19 4835.66 1045.03C4840.74 1048.88 4844.89 1052.72 4848.58 1058.72C4852.27 1064.56 4855.34 1072.4 4853.65 1080.55C4851.96 1088.69 4845.5 1096.99 4832.9 1112.06C4820.29 1127.28 4801.54 1149.26 4772.64 1180.62C4743.74 1212.14 4704.84 1253.03 4680.09 1276.39C4655.34 1299.76 4644.74 1305.6 4625.52 1309.75C4606.15 1313.9 4578.02 1316.36 4562.8 1296.53L4562.95 1296.69Z" fill="#FEB48C"/>
<path d="M1350.22 305.302H1548.99C1588.34 305.302 1617.7 306.993 1637.07 310.221C1656.44 313.449 1673.66 320.213 1688.88 330.666C1704.1 341.12 1716.7 354.802 1727 372.173C1737.15 389.39 1742.22 408.913 1742.22 430.281C1742.22 453.494 1735.92 475.016 1723.47 494.385C1710.86 513.755 1693.8 528.359 1672.43 538.198C1702.71 546.96 1726.08 562.025 1742.22 583.24C1758.52 604.608 1766.66 629.511 1766.66 658.258C1766.66 680.856 1761.44 702.839 1750.98 724.207C1740.38 745.575 1726.08 762.639 1707.94 775.398C1689.8 788.157 1667.36 795.997 1640.61 799.072C1624 800.763 1583.57 801.993 1519.47 802.454H1350.22V305.302ZM1450.75 388.007V502.994H1516.55C1555.6 502.994 1580.04 502.379 1589.42 501.303C1606.48 499.305 1620.16 493.463 1630 483.625C1639.84 473.786 1644.76 460.873 1644.76 444.732C1644.76 429.359 1640.61 416.907 1632.15 407.222C1623.54 397.538 1610.94 391.85 1594.33 389.851C1584.34 388.621 1555.75 388.16 1508.56 388.16H1450.91L1450.75 388.007ZM1450.75 585.699V718.519H1543.61C1579.88 718.519 1602.79 717.597 1612.47 715.445C1627.39 712.831 1639.53 706.067 1648.91 695.614C1658.29 685.007 1663.05 671.018 1663.05 653.339C1663.05 638.428 1659.36 625.822 1652.14 615.368C1644.91 604.915 1634.46 597.382 1620.78 592.617C1607.09 587.851 1577.43 585.546 1531.77 585.546H1450.75V585.699Z" fill="#99B7C9"/>
<path fill-rule="evenodd" clip-rule="evenodd" d="M2323.77 615.83L2207.55 499.612L2149.44 557.721L2265.66 673.938L2323.77 732.047L2614.31 441.503L2556.2 383.395C2470.73 468.867 2409.24 530.357 2323.77 615.83Z" fill="#5ED95B"/>
<path d="M2697.79 974.474H1394.64C1368.75 974.474 1347.76 995.466 1347.76 1021.36V1338.5C1347.76 1364.39 1368.75 1385.39 1394.64 1385.39H2697.79C2723.68 1385.39 2744.67 1364.39 2744.67 1338.5V1021.36C2744.67 995.466 2723.68 974.474 2697.79 974.474Z" fill="#CFE3EB"/>
<path d="M1934.69 1496.84H1394.64C1375.2 1496.84 1359.44 1512.6 1359.44 1532.04V1919.43C1359.44 1938.88 1375.2 1954.64 1394.64 1954.64H1934.69C1954.13 1954.64 1969.89 1938.88 1969.89 1919.43V1532.04C1969.89 1512.6 1954.13 1496.84 1934.69 1496.84Z" fill="#E7EDF0"/>
<path d="M2703.63 1496.84H2163.58C2144.14 1496.84 2128.38 1512.6 2128.38 1532.04V1919.43C2128.38 1938.88 2144.14 1954.64 2163.58 1954.64H2703.63C2723.07 1954.64 2738.83 1938.88 2738.83 1919.43V1532.04C2738.83 1512.6 2723.07 1496.84 2703.63 1496.84Z" fill="#E7EDF0"/>
<path fill-rule="evenodd" clip-rule="evenodd" d="M2165.43 321.904H2591.1C2629.07 321.904 2660.12 352.957 2660.12 390.927V736.044C2660.12 774.014 2629.07 805.067 2591.1 805.067H2165.43C2127.46 805.067 2096.41 774.014 2096.41 736.044V390.927C2096.41 352.957 2127.46 321.904 2165.43 321.904ZM2161.13 316.985H2595.4C2634.14 316.985 2665.81 348.652 2665.81 387.392V739.58C2665.81 778.319 2634.14 809.987 2595.4 809.987H2161.13C2122.39 809.987 2090.72 778.319 2090.72 739.58V387.392C2090.72 348.652 2122.39 316.985 2161.13 316.985Z" fill="#D6E8F3"/>
<path d="M3440.13 234.895H3205.39V469.635H3440.13V234.895Z" fill="#242121"/>
<path d="M3440.13 552.494H3205.39V787.235H3440.13V552.494Z" fill="#E7EDF0"/>
<path d="M3440.13 870.248H3205.39V1104.99H3440.13V870.248Z" fill="#7D9BAD"/>
<path d="M3440.13 1187.85H3205.39V1422.59H3440.13V1187.85Z" fill="#CFE3EB"/>
<path d="M3440.13 1505.6H3205.39V1740.34H3440.13V1505.6Z" fill="#FF5A46"/>
<path fill-rule="evenodd" clip-rule="evenodd" d="M2841.52 119.753H1203.87C1139.3 119.753 1086.42 172.635 1086.42 237.2V2533.42C1086.42 2597.98 1139.3 2650.87 1203.87 2650.87H2841.52C2906.09 2650.87 2958.97 2597.98 2958.97 2533.42V237.2C2958.97 172.635 2906.09 119.753 2841.52 119.753ZM2873.8 234.741H1171.59V2535.57H2873.8V234.741Z" fill="#A5A9AC"/>
<path d="M2389.56 70.5605H1638.3V270.098H2389.56V70.5605Z" fill="#80858B"/>
<path fill-rule="evenodd" clip-rule="evenodd" d="M2014.01 0C1975.12 0 1943.45 31.514 1943.45 70.5606C1943.45 109.453 1974.96 141.121 2014.01 141.121C2052.9 141.121 2084.57 109.607 2084.57 70.5606C2084.57 31.6677 2053.06 0 2014.01 0ZM2014.01 20.1382C1986.18 20.1382 1963.59 42.7361 1963.59 70.5606C1963.59 98.3852 1986.18 120.983 2014.01 120.983C2041.83 120.983 2064.43 98.3852 2064.43 70.5606C2064.43 42.7361 2041.83 20.1382 2014.01 20.1382Z" fill="#80858B"/>
<path d="M1934.69 2048.56H1394.64C1375.2 2048.56 1359.44 2064.32 1359.44 2083.77V2471.16C1359.44 2490.6 1375.2 2506.36 1394.64 2506.36H1934.69C1954.13 2506.36 1969.89 2490.6 1969.89 2471.16V2083.77C1969.89 2064.32 1954.13 2048.56 1934.69 2048.56Z" fill="#E7EDF0"/>
<path d="M2703.63 2048.56H2163.58C2144.14 2048.56 2128.38 2064.32 2128.38 2083.77V2471.16C2128.38 2490.6 2144.14 2506.36 2163.58 2506.36H2703.63C2723.07 2506.36 2738.83 2490.6 2738.83 2471.16V2083.77C2738.83 2064.32 2723.07 2048.56 2703.63 2048.56Z" fill="#E7EDF0"/>
<path d="M3440.13 1823.2H3205.39V2057.94H3440.13V1823.2Z" fill="#5ED95B"/>
<path fill-rule="evenodd" clip-rule="evenodd" d="M4714.84 2661.63C4708.53 2628.42 4702.23 2621.96 4699.31 2565.85C4696.39 2509.74 4724.37 2355.56 4720.37 2272.24C4718.22 2226.58 4684.86 1899.91 4664.26 1890.69C4645.04 1882.08 4606.92 1871.01 4578.17 1875.62C4549.42 1880.23 4529.75 1900.83 4510.22 1921.43C4605.07 2058.09 4656.42 2459.78 4639.2 2565.09C4636.28 2583.23 4620.6 2599.67 4623.37 2656.4C4636.13 2652.71 4656.42 2695.14 4670.1 2693.76C4683.78 2692.37 4700.54 2660.55 4714.99 2661.63H4714.84Z" fill="#FEB48C"/>
<path fill-rule="evenodd" clip-rule="evenodd" d="M4625.06 2652.86C4641.2 2647.94 4651.35 2644.87 4666.87 2643.33C4682.4 2641.8 4692.7 2640.72 4707.3 2642.56C4706.38 2629.19 4698.54 2607.21 4702.08 2597.98C4704.84 2610.74 4714.53 2627.19 4716.83 2648.56C4719.14 2669.93 4720.83 2699.9 4716.83 2720.35C4712.84 2740.8 4703 2751.71 4693.47 2757.24C4684.09 2762.62 4675.02 2762.62 4664.87 2758.47C4654.73 2754.32 4643.51 2746.02 4634.44 2729.88C4625.37 2713.59 4618.45 2689.45 4616.76 2666.85C4615.07 2644.25 4623.37 2625.35 4626.9 2604.44C4627.98 2609.21 4625.67 2642.56 4625.06 2652.86Z" fill="#1F1B20"/>
<path fill-rule="evenodd" clip-rule="evenodd" d="M4318.68 2563.24C4318.68 2540.49 4315.91 2507.13 4314.53 2467.78C4313.15 2428.42 4313.15 2382.92 4319.76 2333.57C4326.37 2284.23 4339.43 2231.19 4349.58 2183.23C4359.73 2135.27 4366.8 2092.53 4370.33 2043.34C4373.87 1994.14 4373.87 1938.65 4358.65 1900.83C4343.43 1863.02 4313.15 1842.72 4287.94 1837.65C4262.72 1832.58 4242.43 1842.72 4233.21 1869.16C4223.99 1895.61 4225.68 1938.19 4228.29 2011.52C4230.75 2084.69 4234.13 2188.45 4235.82 2265.47C4237.51 2342.64 4237.51 2393.07 4236.13 2436.88C4234.75 2480.69 4231.98 2517.74 4229.52 2542.95C4227.06 2568.16 4224.75 2581.53 4223.83 2593.22C4222.91 2604.9 4223.37 2614.59 4221.83 2621.66C4220.45 2628.73 4217.07 2633.03 4211.07 2642.1C4205.08 2651.17 4196.31 2665.01 4197.85 2675.62C4199.24 2686.22 4210.92 2693.6 4225.06 2690.99C4239.2 2688.37 4255.96 2676.08 4271.03 2660.86C4286.24 2645.64 4299.77 2627.81 4307.92 2612.89C4316.07 2597.98 4318.83 2585.84 4318.83 2563.24H4318.68Z" fill="#FEB48C"/>
<path fill-rule="evenodd" clip-rule="evenodd" d="M4691.93 1958.79C4638.13 1968.78 4519.45 1971.39 4464.72 1974.01C4410.15 1976.47 4262.72 1963.86 4207.23 1958.79C4161.73 1852.72 4249.66 1135.73 4252.73 1125.74C4279.79 1129.89 4356.19 1127.13 4389.09 1125.74C4421.83 1124.36 4504.84 1125.28 4543.28 1118.21C4722.37 1246.88 4692.54 1951.25 4691.93 1958.79Z" fill="#967BB6"/>
<path fill-rule="evenodd" clip-rule="evenodd" d="M3995.24 956.642C3949.74 964.175 3889.17 969.248 3838.75 974.321C3788.32 979.394 3747.89 984.467 3725.14 984.467C3702.39 984.467 3697.32 979.394 3692.4 971.861C3687.33 964.328 3682.25 954.182 3679.79 946.65C3677.33 939.117 3677.33 934.044 3674.87 931.585C3672.57 929.125 3667.8 929.125 3663.96 929.432C3659.96 929.74 3656.73 930.047 3656.58 935.12C3656.43 940.193 3659.19 949.724 3661.04 960.793C3662.88 971.861 3663.65 984.467 3656.12 989.386C3648.59 994.459 3632.6 991.999 3617.07 991.384C3601.55 990.769 3586.17 991.999 3578.49 995.535C3570.8 999.071 3570.49 1004.76 3574.64 1008.29C3578.79 1011.83 3587.25 1013.06 3585.71 1015.37C3584.02 1017.67 3572.18 1021.05 3571.72 1024.9C3571.26 1028.89 3581.87 1033.51 3581.41 1038.42C3580.79 1043.34 3568.8 1048.42 3570.8 1053.49C3572.8 1058.56 3588.79 1063.48 3589.86 1066.4C3590.94 1069.32 3576.95 1070.25 3577.26 1073.01C3577.56 1075.63 3592.17 1080.08 3612.46 1082.54C3632.75 1085 3659.04 1085.47 3678.41 1082.24C3697.78 1079.01 3710.38 1072.24 3719.15 1066.25C3727.91 1060.25 3732.98 1055.33 3786.02 1052.72C3839.05 1050.26 3940.05 1050.26 4000.62 1047.65C4061.19 1045.19 4081.33 1040.12 4099.01 1024.9C4116.68 1009.68 4131.75 984.467 4131.75 966.788C4131.75 949.109 4116.53 938.963 4093.93 938.963C4071.18 938.963 4040.9 949.109 3995.55 956.642H3995.24Z" fill="#FEB48C"/>
<path fill-rule="evenodd" clip-rule="evenodd" d="M4757.57 1067.79C4777.71 1075.32 4818.14 1085.46 4838.28 1090.54C4858.42 1095.61 4858.42 1095.61 4861.03 1088.08C4863.49 1080.55 4868.56 1065.33 4873.64 1050.26C4878.71 1035.04 4883.78 1019.98 4883.78 1007.37C4883.78 994.766 4878.71 984.62 4843.35 936.657C4807.99 888.695 4742.35 802.915 4704.54 754.952C4666.72 706.99 4656.57 696.844 4643.97 689.311C4631.36 681.778 4616.14 676.705 4598.46 674.092C4580.79 671.632 4560.65 671.632 4550.5 671.632C4540.36 671.632 4540.36 671.632 4537.9 666.559C4535.44 661.486 4530.36 651.34 4522.68 646.421C4515.14 641.348 4505 641.348 4494.85 664.1C4484.71 686.851 4474.71 732.201 4454.42 757.566C4434.28 782.777 4404 787.85 4388.78 790.31C4373.56 792.769 4373.56 792.769 4373.56 772.631C4373.56 752.493 4373.56 712.063 4353.42 691.924C4333.29 671.786 4292.86 671.786 4272.72 674.246C4252.58 676.705 4252.58 681.778 4222.29 724.668C4192.01 767.558 4131.44 848.418 4098.54 888.695C4065.8 929.125 4060.73 929.125 4050.58 931.584C4040.44 934.044 4025.37 939.117 4017.84 941.73C4010.31 944.19 4010.31 944.19 4020.3 961.869C4030.44 979.547 4050.58 1014.9 4063.19 1032.58C4075.79 1050.26 4080.87 1050.26 4088.4 1050.26C4095.93 1050.26 4106.08 1050.26 4128.83 1032.58C4151.58 1014.9 4186.94 979.547 4204.62 961.869C4222.29 944.19 4222.29 944.19 4222.29 961.869C4222.29 979.547 4222.29 1014.9 4227.37 1047.65C4232.44 1080.39 4242.59 1110.83 4251.66 1124.97C4260.88 1139.12 4269.03 1137.12 4317.3 1137.73C4365.57 1138.35 4453.81 1141.42 4500.08 1134.81C4546.5 1128.2 4550.96 1111.91 4557.11 1092.84C4563.26 1073.78 4570.79 1051.8 4578.33 1023.97C4585.86 996.15 4593.39 962.637 4597.23 935.735C4600.92 908.833 4600.92 888.695 4603.54 878.549C4606 868.403 4611.07 868.403 4636.28 891.154C4661.49 913.906 4707 959.255 4729.75 984.62C4752.5 1009.83 4752.5 1014.9 4749.89 1022.44C4747.43 1029.97 4742.35 1040.12 4739.74 1047.65C4737.28 1055.18 4737.28 1060.25 4757.42 1067.79H4757.57Z" fill="#EBEBEB"/>
<path fill-rule="evenodd" clip-rule="evenodd" d="M4541.12 669.634C4537.43 657.182 4529.44 647.344 4520.52 638.889C4511.61 630.28 4501.62 623.055 4496.7 619.365C4491.78 615.676 4491.78 615.676 4489.32 627.974C4487.01 640.272 4482.25 664.868 4470.87 688.235C4459.49 711.601 4441.51 734.046 4425.06 750.033C4408.76 766.021 4394.01 775.859 4386.47 780.471C4378.94 785.237 4378.79 784.775 4377.87 768.327C4376.94 751.878 4375.41 719.288 4375.1 694.691C4374.79 670.095 4376.02 653.646 4376.48 645.499C4376.94 637.198 4376.79 637.198 4368.64 645.499C4360.49 653.8 4344.51 670.249 4336.05 686.39C4327.6 702.532 4326.83 718.365 4331.29 722.516C4335.74 726.513 4345.43 718.827 4351.58 730.049C4357.73 741.271 4360.49 771.555 4363.57 787.696C4366.64 803.837 4370.18 805.836 4383.4 802.3C4396.62 798.765 4419.53 789.695 4439.66 771.247C4459.65 752.8 4476.87 724.822 4485.63 711.14C4494.39 697.459 4495.01 697.92 4497.62 708.834C4500.23 719.749 4505.15 740.963 4508.07 751.263C4510.99 761.563 4512.22 760.794 4517.76 752.493C4523.29 744.191 4533.28 728.511 4538.66 712.985C4544.04 697.459 4544.66 682.086 4540.97 669.634H4541.12Z" fill="#C8C8C8"/>
<path fill-rule="evenodd" clip-rule="evenodd" d="M4326.06 527.129C4330.52 543.271 4337.28 574.477 4344.2 592.463C4351.12 610.449 4358.04 615.215 4359.27 616.598C4360.49 617.982 4356.19 615.83 4350.96 610.757C4345.89 605.53 4339.9 597.229 4333.29 580.934C4326.67 564.792 4319.3 540.657 4316.53 527.437C4313.76 514.063 4315.61 511.449 4317.61 510.681C4319.6 509.912 4321.6 510.988 4325.91 527.129H4326.06Z" fill="#1F1B20"/>
<path fill-rule="evenodd" clip-rule="evenodd" d="M4170.33 2671.93C4152.19 2683.46 4132.83 2689.14 4120.07 2695.6C4078.56 2716.51 4114.69 2722.96 4140.51 2723.89C4168.95 2724.81 4217.07 2723.27 4250.27 2708.36C4283.48 2693.45 4302.08 2665.16 4320.53 2636.88C4322.99 2647.33 4325.44 2657.78 4327.29 2669.62C4329.13 2681.46 4330.52 2694.68 4331.75 2707.9C4334.67 2708.97 4337.59 2710.05 4340.51 2711.13C4346.81 2695.75 4353.12 2680.53 4356.19 2660.86C4359.26 2641.33 4358.96 2617.35 4352.5 2597.83C4346.04 2578.31 4329.13 2564.62 4316.53 2549.56C4312.53 2567.24 4306.54 2596.75 4290.86 2618.12C4275.18 2639.49 4253.19 2660.09 4239.82 2667.93C4226.44 2675.77 4213.69 2671.62 4209.84 2664.7C4206 2657.78 4215.84 2636.57 4219.99 2626.42C4202.92 2643.95 4188.47 2660.4 4170.18 2671.93H4170.33Z" fill="#1F1B20" stroke="#2B2A29" stroke-width="0.755902"/>
<path d="M81.9697 2946.02C81.0474 2895.29 57.2197 2857.47 57.2197 2857.47C57.2197 2857.47 80.7399 2895.14 81.9697 2946.02Z" fill="#D4E1E2"/>
<path d="M411.715 2603.98L405.565 2666.24C405.565 2666.24 466.595 2692.22 477.356 2679.92C488.117 2667.62 495.649 2670.85 495.649 2670.85L500.876 2591.99L411.868 2603.98H411.715Z" fill="#22313B"/>
<path d="M146.074 2584.92L149.764 2644.72L229.24 2640.72L238.618 2574.16L146.074 2584.92Z" fill="#22313B"/>
<path d="M167.288 1576.31C167.288 1576.31 162.83 1732.65 171.9 1822.43C180.97 1912.05 197.88 2136.19 184.352 2202.91C171.9 2264.24 133.929 2532.5 126.858 2610.28C126.089 2618.89 133.161 2626.27 142.231 2626.27C177.28 2626.42 233.237 2632.11 242.768 2615.05C255.066 2593.06 346.226 2252.1 359.754 2185.53C373.282 2118.82 404.642 1896.22 404.642 1896.22C404.642 1896.22 407.256 2153.41 405.411 2220.43L394.189 2615.66C393.881 2625.35 402.49 2633.19 412.482 2632.26C444.458 2629.34 483.197 2628.88 509.177 2621.35C509.177 2621.35 550.837 2358.63 566.056 2236.11C581.121 2113.59 604.795 1667.47 572.666 1616.13C540.537 1564.79 167.288 1576.47 167.288 1576.47V1576.31Z" fill="#7D9BAD"/>
<path d="M136.851 2647.48C136.851 2647.48 223.091 2629.96 244.767 2629.34C244.767 2629.34 244.152 2650.56 254.605 2661.32C265.059 2672.23 327.626 2737.41 316.557 2747.71C305.489 2758.01 197.88 2765.55 134.237 2742.49L136.851 2647.33V2647.48Z" fill="#2D313D"/>
<path d="M404.642 2653.02C400.953 2652.71 397.725 2655.48 397.571 2659.01L395.265 2738.95C395.265 2738.95 385.273 2748.33 443.535 2750.02C501.798 2751.71 657.216 2756.01 667.054 2746.79C677.046 2737.41 667.669 2727.57 619.553 2706.82C571.59 2686.22 519.169 2650.87 500.26 2631.19C432.621 2629.19 529.93 2666.24 404.489 2653.02H404.642Z" fill="#2D313D"/>
<path d="M301.031 848.111L315.174 791.232L438.156 792.001L446.918 864.406C446.918 864.406 384.966 954.49 301.185 848.111H301.031Z" fill="#FEB48C"/>
<path d="M503.797 632.74C503.797 632.74 502.874 693.154 500.722 725.283C498.416 757.566 494.266 831.355 429.239 837.504C364.059 843.806 329.471 809.525 306.719 794.153C306.719 794.153 234.006 721.44 246.304 700.687C258.602 679.934 273.668 616.291 338.233 620.749C402.644 625.207 504.104 632.586 504.104 632.586L503.797 632.74Z" fill="#FEB48C"/>
<path d="M276.896 838.426C297.649 973.859 430.315 1176.63 508.716 1271.78C539.307 1207.37 536.233 931.277 519.015 888.08C501.029 875.321 448.916 862.561 448.916 862.561L424.627 883.007L302.414 817.98L276.896 838.426Z" fill="#AAAAAB"/>
<path d="M569.899 1488.23C569.899 1473.01 577.586 1213.06 577.586 1213.06C577.586 1213.06 605.564 1024.44 574.972 958.179C562.674 931.585 522.859 885.159 493.804 876.243C523.935 1010.91 539 1129.74 508.716 1271.78L479.508 1577.85L497.34 1668.09C497.34 1668.09 537.77 1665.32 582.197 1627.81C582.197 1627.81 569.899 1503.45 569.899 1488.08V1488.23Z" fill="#2B2A29"/>
<path d="M448.916 862.561L424.628 883.007L302.415 817.98L298.11 821.362L384.966 919.901L422.322 892.845L465.365 913.906L488.117 874.091C468.747 867.481 449.07 862.561 449.07 862.561H448.916Z" fill="#4D4D4D"/>
<path d="M508.716 1271.63C442.613 1191.54 349.608 943.883 276.895 838.272C276.895 838.272 192.807 873.322 135.467 919.748L152.069 1253.64L176.051 1399.07L144.229 1643.19C144.229 1643.19 349.608 1686.84 464.288 1660.1C464.288 1660.1 529.315 1321.74 517.785 1294.99C516.402 1291.61 513.327 1283.47 508.869 1271.63H508.716Z" fill="#2B2A29"/>
<path d="M451.529 1536.96L240.923 1447.34C235.543 1445.03 232.929 1438.73 235.235 1433.35L358.985 1142.34C361.291 1136.96 367.594 1134.35 373.128 1136.66L583.734 1226.28C589.268 1228.58 591.728 1234.89 589.422 1240.42L465.672 1531.43C463.366 1536.81 457.063 1539.42 451.529 1537.11V1536.96Z" fill="#EA5A5B"/>
<path d="M463.212 1401.99L361.752 1358.79C359.447 1357.87 358.371 1354.95 359.447 1352.49C360.523 1350.03 363.29 1348.8 365.596 1349.72L467.055 1392.92C469.361 1393.84 470.437 1396.76 469.361 1399.22C468.285 1401.68 465.518 1402.91 463.212 1401.83V1401.99Z" fill="white"/>
<path d="M423.551 1358.94L377.279 1339.27C374.973 1338.35 373.897 1335.42 374.973 1332.97C376.049 1330.51 378.816 1329.28 381.122 1330.2L427.394 1349.88C429.7 1350.8 430.776 1353.72 429.7 1356.18C428.624 1358.64 425.857 1359.87 423.704 1358.94H423.551Z" fill="#9D273F"/>
<path d="M402.798 1407.83L356.526 1388.15C354.22 1387.23 353.144 1384.31 354.22 1381.85C355.296 1379.39 358.063 1378.16 360.369 1379.08L406.641 1398.76C408.947 1399.68 410.023 1402.6 408.947 1405.06C407.871 1407.52 405.104 1408.75 402.951 1407.83H402.798Z" fill="white"/>
<path d="M491.652 633.354C457.217 627.513 404.028 638.735 399.877 656.875C395.573 675.014 409.101 694.538 395.573 697.151C382.198 699.764 377.125 679.319 365.903 683.469C354.528 687.62 336.234 692.539 339.77 710.372C343.305 728.05 334.85 786.774 329.931 796.766C325.012 806.605 288.118 798.15 284.582 796.766C281.046 795.383 263.675 742.962 250.762 720.979C237.849 698.996 196.343 573.708 250.762 548.344C250.762 548.344 259.063 517.906 290.27 505.915C321.476 493.924 374.512 486.084 413.405 502.379C452.298 518.674 496.264 546.96 516.402 542.041C516.402 542.041 533.619 542.041 526.548 555.569C519.476 569.097 510.56 577.09 499.646 582.471C499.646 582.471 521.629 571.864 534.388 564.024C551.913 553.416 531.006 640.272 491.806 633.662L491.652 633.354Z" fill="#FFED00"/>
<path d="M506.103 1298.38L404.643 1255.18C402.337 1254.26 401.261 1251.34 402.337 1248.88C403.413 1246.42 406.18 1245.19 408.486 1246.11L509.946 1289.31C512.252 1290.23 513.328 1293.15 512.252 1295.61C511.176 1298.07 508.409 1299.3 506.257 1298.38H506.103Z" fill="white"/>
<path d="M516.71 1274.09L470.438 1254.41C468.132 1253.49 467.056 1250.57 468.132 1248.11C469.208 1245.65 471.975 1244.42 474.127 1245.34L520.399 1265.02C522.705 1265.94 523.781 1268.86 522.705 1271.32C521.629 1273.78 518.862 1275.01 516.556 1274.09H516.71Z" fill="white"/>
<path d="M483.658 1350.18L382.199 1306.99C379.893 1306.06 378.817 1303.14 379.893 1300.68C380.969 1298.22 383.736 1296.99 386.042 1297.92L487.502 1341.11C489.808 1342.04 490.884 1344.96 489.808 1347.42C488.731 1349.88 486.118 1351.1 483.812 1350.18H483.658Z" fill="white"/>
<path d="M453.835 1311.9L407.563 1292.23C405.257 1291.31 404.181 1288.38 405.257 1285.92C406.333 1283.47 409.1 1282.24 411.406 1283.16L457.678 1302.83C459.984 1303.76 461.06 1306.68 459.984 1309.14C458.908 1311.6 456.141 1312.83 453.989 1311.9H453.835Z" fill="white"/>
<path d="M447.993 1444.72L346.534 1401.53C344.228 1400.61 343.152 1397.68 344.228 1395.22C345.304 1392.77 348.071 1391.54 350.377 1392.61L451.837 1435.81C454.143 1436.73 455.219 1439.65 454.143 1442.11C453.066 1444.57 450.299 1445.8 447.993 1444.88V1444.72Z" fill="white"/>
<path d="M407.103 1312.83C407.103 1312.83 364.213 1315.75 336.85 1348.18C335.466 1350.8 332.392 1352.03 333.929 1355.56L330.547 1407.37C388.194 1407.83 413.252 1406.6 422.937 1403.22C449.685 1393.84 489.039 1373.09 456.757 1356.18C481.968 1340.5 470.438 1340.65 455.988 1324.36C459.524 1320.51 472.59 1298.99 458.755 1292.53C439.539 1284.54 407.103 1312.83 407.103 1312.83Z" fill="#FEB48C"/>
<path d="M172.976 897.15C172.976 897.15 61.217 930.201 16.0213 1182.31C-29.1744 1434.42 30.4716 1417.21 80.894 1426.28C131.47 1435.35 339.309 1424.43 339.309 1424.43L341.307 1331.43C341.307 1331.43 139.31 1322.36 126.09 1307.14C112.869 1291.92 132.393 1235.04 162.523 1155.72C192.5 1076.4 204.337 914.521 172.976 897.15Z" fill="#2B2A29"/>
<path d="M818.014 674.092C818.168 673.477 817.861 672.709 817.246 672.247C817.092 672.094 816.785 672.094 816.631 672.094C816.785 672.401 816.938 672.555 817.246 672.862C816.938 673.17 816.785 673.323 816.631 673.631C817.092 673.785 817.553 673.938 818.168 674.246L818.014 674.092Z" fill="#4E756D"/>
<path d="M886.268 965.558C886.883 965.404 887.344 964.943 887.498 964.482C887.037 963.867 886.576 963.252 886.115 962.637C886.115 963.099 885.961 963.56 885.961 964.021C886.115 964.482 886.115 965.097 886.268 965.558Z" fill="#4E756D"/>
<path d="M951.449 927.434H951.603C951.603 927.434 951.603 927.28 951.449 927.28V927.434Z" fill="#4E756D"/>
<path d="M951.449 1112.06H951.603C951.603 1112.06 951.603 1111.91 951.449 1111.91V1112.06Z" fill="#4E756D"/>
</svg>
