<svg width="318" height="164" viewBox="0 0 318 164" fill="none" xmlns="http://www.w3.org/2000/svg">
<path d="M21.854 160.851C20.6593 161.719 19.901 162.248 19.579 162.436C17.871 163.476 16.31 163.998 14.896 164C14.1073 163.998 13.3338 163.813 12.5755 163.445C11.89 163.133 11.3015 162.634 10.8745 162.003C10.4977 161.412 10.3004 160.719 10.3075 160.013C10.3075 158.968 10.6528 157.641 11.3435 156.03L12.9255 152.248C12.889 152.099 12.8714 151.946 12.873 151.793C12.5532 151.929 12.2401 152.08 11.935 152.248C10.9865 152.873 10.0813 153.564 9.226 154.316C8.39284 155.094 7.58619 155.901 6.8075 156.735C6.61057 157.919 6.51105 159.117 6.51 160.318C6.51 161.224 6.56017 162.132 6.6605 163.041L0.693 164C0.246264 162.237 0.0135127 160.425 0 158.603C0 157.558 0.0991667 156.498 0.2975 155.422C0.495833 154.348 0.856333 153.139 1.379 151.793C1.743 150.851 2.25283 149.673 2.9085 148.261L9.765 147.102C9.338 148.178 9.0265 148.985 8.8305 149.524C8.5013 150.336 8.20472 151.161 7.9415 151.997C9.5865 150.446 11.2303 149.252 12.873 148.415C14.189 147.742 15.3732 147.406 16.4255 147.406C17.0182 147.406 17.6272 147.523 18.2525 147.756C18.8755 147.995 19.327 148.366 19.607 148.869C19.887 149.37 20.027 149.975 20.027 150.684C20.027 151.691 19.747 152.935 19.187 154.416C18.529 156.098 17.8885 157.779 17.2655 159.459C17.2655 159.695 17.3472 159.838 17.5105 159.888C17.6708 159.936 17.837 159.96 18.004 159.96C18.6643 159.96 19.6455 159.609 20.9475 158.908C20.8247 158.412 20.7635 157.902 20.7655 157.39C20.7655 156.584 20.8798 155.811 21.1085 155.071C21.3418 154.332 21.6883 153.559 22.148 152.752C22.9693 151.373 24.1197 150.196 25.599 149.22C27.0159 148.269 28.6127 147.634 30.2855 147.356C30.8782 147.286 31.339 147.252 31.668 147.252C32.753 147.252 33.7225 147.438 34.5765 147.81C35.4305 148.178 36.1375 148.782 36.6975 149.625C37.0265 150.164 37.191 150.701 37.191 151.235C37.191 152.08 36.7803 152.904 35.959 153.708C35.3663 154.28 34.5683 154.818 33.565 155.322C32.598 155.808 31.6007 156.229 30.5795 156.581C29.8562 156.82 28.8377 157.106 27.524 157.44C27.951 158.349 28.56 159.082 29.351 159.638C30.1373 160.189 30.975 160.465 31.864 160.468C33.215 160.468 34.5637 160.115 35.91 159.409C35.973 159.373 37.0032 158.708 39.0005 157.415C39.0516 156.643 39.164 155.875 39.3365 155.121L39.501 154.356L46.6235 153.923L46.095 155.801C45.9049 156.415 45.7966 157.051 45.773 157.694C45.773 158.503 45.9305 159.065 46.2455 159.38C46.5558 159.702 47.0073 159.863 47.6 159.863C48.454 159.863 49.5717 159.493 50.953 158.754L52.542 157.773C52.5537 157.504 52.5747 157.216 52.605 156.911C52.6563 156.426 52.7543 155.83 52.899 155.121L53.067 154.359L60.186 153.923C60.018 154.531 59.8418 155.157 59.6575 155.801C59.4452 156.558 59.3378 157.189 59.3355 157.694C59.3355 158.503 59.493 159.065 59.808 159.38C60.1183 159.702 60.5698 159.863 61.1625 159.863C62.0212 159.863 63.14 159.493 64.519 158.754L65.548 158.117C65.5208 157.875 65.5056 157.633 65.5025 157.39C65.5025 156.584 65.618 155.811 65.849 155.071C66.0823 154.332 66.4277 153.559 66.885 152.752C67.7063 151.373 68.8567 150.196 70.336 149.22C71.82 148.244 73.3822 147.623 75.0225 147.356C75.6175 147.286 76.0795 147.252 76.4085 147.252C77.4888 147.252 78.4583 147.438 79.317 147.81C80.171 148.178 80.8768 148.782 81.4345 149.625C81.7635 150.164 81.928 150.701 81.928 151.235C81.928 152.08 81.5173 152.904 80.696 153.708C80.108 154.28 79.3112 154.818 78.3055 155.322C77.3385 155.808 76.3412 156.229 75.32 156.581C74.5967 156.82 73.577 157.106 72.261 157.44C72.688 158.349 73.297 159.082 74.088 159.638C74.879 160.189 75.7167 160.465 76.601 160.468C77.952 160.468 79.3007 160.115 80.647 159.409C80.7123 159.375 81.83 158.652 84 157.24V159.509C83.804 159.645 83.0165 160.216 81.6375 161.223C80.846 161.822 80.0025 162.345 79.1175 162.787C77.4725 163.526 75.6642 163.896 73.6925 163.896C72.3788 163.896 71.211 163.738 70.189 163.42C69.14 163.078 68.1795 162.5 67.3785 161.728C66.8684 161.266 66.4449 160.713 66.129 160.096C64.68 161.169 63.567 161.933 62.79 162.386C61.047 163.393 59.4697 163.896 58.058 163.896C57.2635 163.896 56.623 163.846 55.888 163.492C54.635 162.955 53.7623 162.258 53.27 161.402C53.0203 160.958 52.8341 160.479 52.717 159.981C51.1933 161.112 50.0302 161.914 49.2275 162.386C47.4845 163.393 45.906 163.896 44.492 163.896C43.6975 163.896 43.057 163.846 42.322 163.492C41.0713 162.955 40.1987 162.258 39.704 161.402C39.3979 160.856 39.1882 160.258 39.0845 159.638C38.7392 159.879 38.01 160.407 36.897 161.223C36.1056 161.82 35.2634 162.344 34.3805 162.787C32.7355 163.526 30.9272 163.896 28.9555 163.896C27.6372 163.896 26.4693 163.738 25.452 163.42C24.4017 163.079 23.44 162.5 22.638 161.728C22.3493 161.462 22.0867 161.168 21.854 160.851ZM31.766 151.639C31.7979 151.439 31.8131 151.237 31.8115 151.035C31.8115 150.161 31.451 149.725 30.73 149.725C30.5469 149.744 30.3655 149.777 30.1875 149.825C29.2005 150.064 28.427 150.703 27.867 151.743C27.3227 152.745 27.035 153.871 27.0305 155.018C28.4118 154.65 29.414 154.282 30.037 153.912C31.059 153.339 31.6353 152.582 31.766 151.639ZM76.503 151.639C76.5432 151.441 76.5597 151.237 76.552 151.035C76.552 150.161 76.1903 149.725 75.467 149.725C75.2839 149.744 75.1025 149.777 74.9245 149.825C73.9398 150.064 73.1675 150.703 72.6075 151.743C72.0475 152.783 71.7675 153.875 71.7675 155.018C73.1512 154.65 74.1545 154.282 74.7775 153.912C75.7948 153.339 76.37 152.582 76.503 151.639ZM38.57 151.793L39.5605 147.81L41.5835 147.71L43.505 142.31L50.8025 141L48.734 147.356L52.038 147.202L51.1525 150.984C46.9618 151.273 42.7677 151.543 38.57 151.793ZM52.1395 151.793L53.123 147.81L55.146 147.71L57.0675 142.31L64.3685 141L62.2965 147.356L65.6005 147.202L64.715 150.984C60.5115 151.278 56.287 151.543 52.1395 151.793Z" fill="#5A5A63"/>
<path d="M269.127 98.8066H274.809L271.804 93.6179L266.289 102.999H263.779L270.487 91.7305C270.635 91.5026 270.832 91.3169 271.061 91.1895C271.291 91.0622 271.546 90.9972 271.804 91.0001C272.326 91.0001 272.812 91.2658 273.094 91.7114L279.828 102.999H277.318L276.135 100.903H270.381L269.127 98.8066ZM295.198 100.903V91.1143H293.069V101.861C293.069 102.155 293.175 102.44 293.378 102.658C293.581 102.876 293.855 102.999 294.156 102.999H303.868L305.124 100.903H295.198ZM259.962 99.1484C262.03 99.1484 263.709 97.3561 263.709 95.1364C263.709 92.9168 262.03 91.1143 259.962 91.1143H250.644V103H252.773V93.2102H259.82C260.811 93.2102 261.606 94.0738 261.606 95.1357C261.606 96.1976 260.81 97.0612 259.82 97.0612L253.816 97.0516L260.174 102.999H263.268L258.99 99.1476L259.962 99.1484ZM237.538 102.999C234.481 102.999 232 100.343 232 97.0612C232 93.7789 234.481 91.1135 237.538 91.1135H243.974C247.032 91.1135 249.511 93.7796 249.511 97.0612C249.511 100.343 247.032 102.999 243.974 102.999H237.538ZM243.831 100.903C244.301 100.903 244.767 100.805 245.202 100.612C245.637 100.419 246.032 100.136 246.365 99.7796C246.698 99.4228 246.963 98.9991 247.143 98.5326C247.323 98.0662 247.416 97.5661 247.416 97.0612C247.416 96.5556 247.324 96.0549 247.144 95.5877C246.964 95.1205 246.7 94.6959 246.367 94.3383C246.034 93.9806 245.639 93.6968 245.203 93.5032C244.768 93.3095 244.302 93.2097 243.831 93.2095H237.68C236.729 93.2103 235.817 93.6165 235.145 94.3388C234.473 95.0611 234.095 96.0403 234.096 97.0612C234.096 97.566 234.189 98.0659 234.369 98.5323C234.549 98.9986 234.813 99.4223 235.146 99.779C235.479 100.136 235.874 100.419 236.309 100.611C236.744 100.804 237.209 100.903 237.68 100.903H243.831ZM284.275 102.999C281.217 102.999 278.734 100.343 278.734 97.0612C278.734 93.7789 281.217 91.1135 284.275 91.1135H291.92L290.672 93.2095H284.416C283.465 93.2101 282.552 93.6161 281.879 94.3382C281.206 95.0604 280.828 96.0397 280.827 97.0612C280.827 99.1857 282.436 100.903 284.416 100.903H292.096L290.842 102.999H284.275ZM310.32 100.903C309.539 100.903 308.78 100.63 308.158 100.125C307.536 99.6194 307.085 98.9099 306.873 98.104H315.976L317.23 96.008H306.873C307.086 95.2032 307.538 94.4947 308.16 93.9899C308.782 93.485 309.54 93.2111 310.32 93.2095H316.567L317.832 91.1135H310.178C307.12 91.1135 304.637 93.7796 304.637 97.0612C304.637 100.343 307.12 102.999 310.178 102.999H316.745L318 100.903H310.32Z" fill="#EA1B22"/>
<path d="M146.971 147.365C147.465 147.292 147.966 147.334 148.446 147.489C148.926 147.645 149.374 147.91 149.766 148.269C150.018 148.724 150.179 149.24 150.237 149.778C150.294 150.316 150.247 150.863 150.098 151.376C149.967 152.641 149.443 153.805 148.627 154.649C147.642 155.389 146.479 155.737 145.311 155.639H143.068L144.446 147.381L146.971 147.365ZM138 164H141.684L142.557 158.758H145.708C146.869 158.794 148.028 158.619 149.143 158.24C150.058 157.884 150.895 157.297 151.594 156.521C152.799 155.251 153.612 153.552 153.907 151.687C154.138 150.759 154.178 149.779 154.025 148.829C153.872 147.879 153.53 146.984 153.026 146.217C152.418 145.513 151.686 144.972 150.881 144.633C150.076 144.294 149.217 144.164 148.364 144.253H141.295L138 164ZM156.609 139H160.267L159.381 144.242H162.634C164.129 144.06 165.63 144.503 166.871 145.494C167.282 146.039 167.563 146.701 167.686 147.413C167.808 148.125 167.768 148.863 167.57 149.551L166.041 158.741H162.341L163.796 150.004C163.896 149.671 163.932 149.315 163.901 148.964C163.869 148.612 163.771 148.273 163.613 147.971C163.083 147.526 162.427 147.335 161.78 147.436H158.86L156.978 158.751H153.313L156.609 139ZM175.707 147.365C176.201 147.292 176.703 147.334 177.182 147.489C177.662 147.645 178.111 147.91 178.503 148.269C178.755 148.724 178.916 149.24 178.973 149.778C179.031 150.316 178.983 150.863 178.834 151.376C178.703 152.641 178.18 153.805 177.364 154.649C176.377 155.391 175.211 155.738 174.041 155.639H171.8L173.175 147.372L175.707 147.365ZM166.737 164H170.421L171.294 158.758H174.447C175.61 158.795 176.771 158.62 177.888 158.24C178.803 157.884 179.639 157.297 180.338 156.521C181.541 155.25 182.351 153.551 182.644 151.687C182.874 150.759 182.915 149.779 182.762 148.829C182.609 147.879 182.267 146.984 181.763 146.217C181.154 145.514 180.422 144.975 179.618 144.636C178.813 144.298 177.954 144.169 177.103 144.259H170.022L166.737 164Z" fill="#8993BE"/>
<path d="M83.196 15.0083V18.1976H76.344V34.9764H72.9177V18.1978H65.923V15.0083H83.196ZM83.9663 33.0742C84.2076 33.0742 84.4187 33.1611 84.5975 33.335C84.7788 33.5088 84.869 33.7171 84.8716 33.9597C84.8709 34.1189 84.8267 34.2748 84.7437 34.4106C84.662 34.5444 84.5478 34.6554 84.4118 34.7332C84.2772 34.8139 84.1231 34.8558 83.9663 34.8545C83.7153 34.8545 83.5018 34.7675 83.3232 34.5937C83.1445 34.4197 83.056 34.2091 83.0583 33.9597C83.0561 33.7171 83.1444 33.5089 83.3232 33.335C83.5018 33.1611 83.7153 33.0742 83.9663 33.0742ZM16.0596 34.9764L3.42629 19.2681V34.9682H0V15H4.28257L20.2434 34.827L20.2436 18.1978L20.2422 15.0083H37.515V18.1976H23.6696V23.3283H34.8042V26.5177H23.6696V31.7871H37.5152V34.9764H16.0596ZM48.4958 26.4873L50.7412 29.2799L46.1402 35H41.6438L48.4958 26.4873ZM46.1402 15.0167L51.9372 22.2186L57.716 15.0388L62.1998 15.032L54.182 25.0076L62.2127 34.9847H57.716L41.6566 15.0167H46.1402ZM89.8138 26.4425H91.3319V32.294C91.3298 32.8317 91.2134 33.2914 90.9862 33.6784C90.7563 34.0649 90.4381 34.3602 90.0298 34.5685C89.6234 34.7743 89.1475 34.8797 88.6066 34.8797C88.1121 34.8797 87.6689 34.7905 87.2742 34.6166C86.8795 34.4426 86.5663 34.1818 86.3364 33.8384C86.104 33.4953 85.9903 33.0673 85.9903 32.5548H87.5111C87.5134 32.779 87.5644 32.9733 87.6618 33.1361C87.7576 33.2967 87.898 33.4262 88.0658 33.5088C88.2399 33.596 88.4394 33.6396 88.6645 33.6394C88.9085 33.6394 89.1173 33.5891 89.2868 33.486C89.4562 33.3852 89.5862 33.2342 89.6769 33.033C89.765 32.8338 89.8115 32.5868 89.8138 32.2938V26.4425ZM97.5786 28.7308C97.5418 28.3762 97.3791 28.0991 97.096 27.9025C96.8103 27.7033 96.4413 27.6051 95.9885 27.6051C95.6708 27.6051 95.3968 27.6531 95.1692 27.7469C94.9418 27.843 94.7654 27.9711 94.6445 28.1336C94.524 28.296 94.4636 28.4814 94.4588 28.6897C94.4588 28.8635 94.5006 29.0146 94.5818 29.1404C94.6659 29.2723 94.7795 29.3828 94.9137 29.4632C95.0595 29.5549 95.2153 29.6293 95.3782 29.685C95.5499 29.7445 95.7217 29.7948 95.8934 29.8362L96.685 30.0307C97.0032 30.104 97.3119 30.2022 97.6067 30.3281C97.9013 30.4517 98.1684 30.6097 98.4028 30.7995C98.6374 30.9894 98.8231 31.2182 98.96 31.486C99.0969 31.7538 99.1667 32.0673 99.1667 32.4288C99.1667 32.9161 99.0413 33.3442 98.7882 33.7148C98.5352 34.0833 98.1707 34.3716 97.6925 34.5799C97.2166 34.7859 96.6408 34.8911 95.9631 34.8911C95.3085 34.8911 94.7375 34.7904 94.2568 34.589C93.7741 34.3901 93.398 34.0969 93.1262 33.7125C92.8545 33.3281 92.7084 32.859 92.6875 32.3076H94.1921C94.2128 32.5959 94.3058 32.8361 94.4636 33.0307C94.6236 33.2229 94.8326 33.3647 95.088 33.4608C95.3456 33.5548 95.6335 33.6028 95.9515 33.6028C96.2835 33.6028 96.5759 33.5524 96.8289 33.454C97.0797 33.3556 97.2769 33.2184 97.4187 33.0398C97.5626 32.8634 97.6346 32.6553 97.6369 32.4174C97.6346 32.2 97.5693 32.0192 97.444 31.8772C97.3163 31.7354 97.1399 31.6164 96.9147 31.5203C96.6875 31.4242 96.4227 31.3372 96.121 31.2618L95.1599 31.0193C94.4657 30.8429 93.9157 30.5754 93.514 30.2159C93.1101 29.8567 92.9104 29.3808 92.9104 28.7835C92.9104 28.2939 93.0451 27.8635 93.3168 27.495C93.586 27.1269 93.9552 26.8407 94.4218 26.6371C94.8905 26.4311 95.42 26.3303 96.0094 26.3303C96.6085 26.3303 97.133 26.4311 97.5858 26.6371C98.0383 26.8407 98.3937 27.1244 98.6511 27.4859C98.9089 27.8476 99.0437 28.2617 99.0506 28.7308H97.5786Z" fill="black"/>
<path d="M174.845 8.23828L161.169 0.202344C160.942 0.0578125 160.631 0 160.291 0C159.951 0 159.64 0.0867188 159.413 0.202344L145.821 8.26719C145.34 8.55625 145 9.27891 145 9.82812V25.9289C145 26.2469 145.057 26.6227 145.283 26.9406L175.525 9.01875C175.355 8.67188 175.1 8.41172 174.845 8.23828Z" fill="#9B4F96"/>
<path d="M145.198 26.9117C145.34 27.143 145.538 27.3453 145.736 27.4609L159.385 35.5258C159.611 35.6703 159.923 35.7281 160.262 35.7281C160.602 35.7281 160.914 35.6414 161.14 35.5258L174.732 27.4609C175.214 27.1719 175.553 26.4492 175.553 25.9V9.79921C175.553 9.53906 175.525 9.24999 175.383 8.98984L145.198 26.9117Z" fill="#68217A"/>
<path d="M166.322 21.3617C165.133 23.5008 162.868 24.9461 160.291 24.9461C156.468 24.9461 153.353 21.7664 153.353 17.8641C153.353 13.9617 156.468 10.782 160.291 10.782C162.868 10.782 165.133 12.2273 166.322 14.3953L170.003 12.2273C168.078 8.7875 164.453 6.44609 160.291 6.44609C154.118 6.44609 149.106 11.5625 149.106 17.8641C149.106 24.1656 154.118 29.282 160.291 29.282C164.425 29.282 168.049 26.9695 169.975 23.5586L166.322 21.3617ZM169.635 18.5L169.89 17.257H168.701V15.8984H170.145L170.485 14.1062H171.872L171.532 15.8695H172.608L172.948 14.1062H174.307L173.968 15.8695H174.647V17.2281H173.713L173.458 18.4711H174.647V19.8297H173.203L172.863 21.5641H171.476L171.816 19.8297H170.74L170.4 21.5641H169.041L169.38 19.8297H168.701V18.4711H169.635V18.5ZM170.994 18.5H172.07L172.325 17.257H171.249L170.994 18.5Z" fill="white"/>
<path d="M275.093 50C274.839 50 274.601 49.9321 274.381 49.8132L272.126 48.4719C271.787 48.285 271.957 48.2171 272.059 48.1832C272.516 48.0304 272.601 47.9963 273.076 47.7248C273.127 47.6907 273.194 47.7077 273.245 47.7417L274.974 48.7774C275.042 48.8114 275.127 48.8114 275.178 48.7774L281.942 44.855C282.01 44.821 282.044 44.753 282.044 44.6682V36.8403C282.044 36.7552 282.01 36.6875 281.942 36.6534L275.178 32.748C275.11 32.7139 275.025 32.7139 274.974 32.748L268.21 36.6534C268.142 36.6873 268.108 36.7723 268.108 36.8401V44.6681C268.108 44.7361 268.142 44.8209 268.21 44.855L270.058 45.9247C271.058 46.4341 271.686 45.8398 271.686 45.2455V37.5194C271.686 37.4175 271.77 37.3156 271.889 37.3156H272.754C272.855 37.3156 272.957 37.4005 272.957 37.5194V45.2455C272.957 46.5869 272.228 47.368 270.957 47.368C270.567 47.368 270.262 47.368 269.397 46.9434L267.617 45.9247C267.176 45.6701 266.905 45.1945 266.905 44.6851V36.8572C266.905 36.3478 267.176 35.8722 267.617 35.6176L274.381 31.6951C274.805 31.4574 275.381 31.4574 275.805 31.6951L282.569 35.6176C283.01 35.8722 283.281 36.3478 283.281 36.8572V44.6851C283.281 45.1945 283.01 45.6701 282.569 45.9247L275.805 49.8472C275.585 49.9491 275.33 50 275.093 50ZM277.178 44.6172C274.212 44.6172 273.601 43.2588 273.601 42.1042C273.601 42.0022 273.686 41.9004 273.805 41.9004H274.686C274.788 41.9004 274.873 41.9683 274.873 42.0702C275.009 42.9701 275.398 43.4116 277.195 43.4116C278.619 43.4116 279.23 43.089 279.23 42.3248C279.23 41.8833 279.06 41.5609 276.839 41.34C274.991 41.1531 273.839 40.7457 273.839 39.2685C273.839 37.893 274.992 37.0779 276.924 37.0779C279.094 37.0779 280.162 37.8251 280.298 39.455C280.298 39.5061 280.281 39.5571 280.247 39.608C280.213 39.6419 280.162 39.6759 280.111 39.6759H279.23C279.145 39.6759 279.06 39.608 279.043 39.5231C278.84 38.5892 278.314 38.2835 276.924 38.2835C275.365 38.2835 275.178 38.827 275.178 39.2344C275.178 39.7268 275.398 39.8796 277.501 40.1513C279.586 40.4231 280.569 40.8136 280.569 42.2739C280.552 43.7682 279.332 44.6172 277.178 44.6172Z" fill="#539E43"/>
<path d="M254.105 19.3844C254.105 19.0788 253.936 18.7899 253.665 18.6372L246.477 14.494C246.358 14.426 246.222 14.392 246.087 14.375H246.019C245.883 14.375 245.747 14.426 245.629 14.494L238.441 18.6372C238.169 18.7899 238 19.0786 238 19.3844L238.017 30.5235C238.017 30.6763 238.102 30.8291 238.237 30.8971C238.373 30.982 238.542 30.982 238.661 30.8971L242.933 28.4519C243.205 28.2991 243.374 28.0104 243.374 27.7048V22.4918C243.374 22.1862 243.544 21.8975 243.815 21.7447L245.629 20.6918C245.765 20.6069 245.917 20.5728 246.07 20.5728C246.222 20.5728 246.375 20.6069 246.494 20.6918L248.307 21.7447C248.579 21.8975 248.748 22.186 248.748 22.4918V27.7048C248.748 28.0104 248.918 28.2991 249.189 28.4519L253.461 30.8971C253.527 30.9387 253.604 30.9608 253.682 30.9608C253.759 30.9608 253.836 30.9387 253.902 30.8971C254.038 30.8291 254.122 30.6763 254.122 30.5235L254.105 19.3844ZM288.655 4.05102C288.52 3.98299 288.35 3.98299 288.232 4.05102C288.096 4.13594 288.011 4.27169 288.011 4.42449V15.4619C288.011 15.5637 287.96 15.6655 287.859 15.7336C287.757 15.7844 287.655 15.7844 287.554 15.7336L285.757 14.6978C285.625 14.6227 285.476 14.5832 285.324 14.5832C285.173 14.5832 285.024 14.6227 284.892 14.6978L277.704 18.858C277.433 19.0108 277.263 19.2995 277.263 19.6051V27.9084C277.263 28.214 277.433 28.5029 277.704 28.6557L284.892 32.8159C285.024 32.891 285.173 32.9304 285.324 32.9304C285.476 32.9304 285.625 32.891 285.757 32.8159L292.945 28.6557C293.216 28.5029 293.385 28.2142 293.385 27.9084V7.20937C293.385 6.88673 293.216 6.59818 292.945 6.44524L288.655 4.05102ZM287.994 25.1747C287.994 25.2596 287.96 25.3275 287.893 25.3614L285.434 26.7877C285.4 26.8045 285.362 26.8133 285.324 26.8133C285.286 26.8133 285.248 26.8045 285.214 26.7877L282.756 25.3614C282.688 25.3275 282.654 25.2426 282.654 25.1747V22.3219C282.654 22.237 282.688 22.1691 282.756 22.1352L285.214 20.7087C285.248 20.6919 285.286 20.6832 285.324 20.6832C285.362 20.6832 285.4 20.6919 285.434 20.7087L287.893 22.1352C287.96 22.169 287.994 22.254 287.994 22.3219V25.1747ZM312.576 22.254C312.847 22.1012 313 21.8125 313 21.5068V19.4862C313 19.1806 312.83 18.8919 312.576 18.7391L305.439 14.596C305.307 14.5209 305.158 14.4814 305.007 14.4814C304.855 14.4814 304.706 14.5209 304.574 14.596L297.386 18.756C297.115 18.9088 296.945 19.1975 296.945 19.5031V27.8066C296.945 28.1122 297.115 28.4009 297.386 28.5537L304.523 32.629C304.795 32.7818 305.117 32.7818 305.371 32.629L309.694 30.218C309.83 30.15 309.915 29.9972 309.915 29.8444C309.915 29.6916 309.83 29.5388 309.694 29.4708L302.472 25.3106C302.336 25.2257 302.252 25.0899 302.252 24.9371V22.3391C302.252 22.1863 302.336 22.0335 302.472 21.9655L304.727 20.6749C304.793 20.6333 304.869 20.6112 304.947 20.6112C305.025 20.6112 305.102 20.6333 305.168 20.6749L307.422 21.9655C307.558 22.0504 307.643 22.1862 307.643 22.3391V24.3768C307.643 24.5295 307.727 24.6823 307.863 24.7502C307.929 24.7918 308.006 24.8139 308.084 24.8139C308.162 24.8139 308.238 24.7918 308.304 24.7502L312.576 22.254Z" fill="#333333"/>
<path d="M304.896 21.8634C304.921 21.8467 304.951 21.8379 304.981 21.8379C305.011 21.8379 305.041 21.8467 305.066 21.8634L306.439 22.6614C306.49 22.6955 306.524 22.7464 306.524 22.8142V24.4105C306.524 24.4784 306.49 24.5294 306.439 24.5633L305.066 25.3614C305.041 25.378 305.011 25.3869 304.981 25.3869C304.951 25.3869 304.921 25.378 304.896 25.3614L303.523 24.5633C303.472 24.5294 303.438 24.4784 303.438 24.4105V22.8144C303.438 22.7464 303.472 22.6954 303.523 22.6616L304.896 21.8634Z" fill="#539E43"/>
<path d="M266.125 14.6299C265.993 14.5548 265.844 14.5154 265.693 14.5154C265.541 14.5154 265.392 14.5548 265.26 14.6299L258.123 18.7559C257.852 18.9087 257.699 19.1974 257.699 19.503V27.7725C257.699 28.0781 257.869 28.3668 258.123 28.5196L265.26 32.6459C265.392 32.7209 265.541 32.7604 265.693 32.7604C265.844 32.7604 265.993 32.7209 266.125 32.6459L273.262 28.5196C273.533 28.3668 273.686 28.0781 273.686 27.7725V19.5031C273.686 19.1975 273.516 18.9088 273.262 18.756L266.125 14.6299Z" fill="url(#paint0_linear_514_111)"/>
<mask id="mask0_514_111" style="mask-type:luminance" maskUnits="userSpaceOnUse" x="257" y="14" width="17" height="19">
<path d="M266.125 14.6299C265.993 14.5548 265.844 14.5154 265.693 14.5154C265.541 14.5154 265.392 14.5548 265.26 14.6299L258.123 18.7559C257.852 18.9087 257.699 19.1974 257.699 19.503V27.7725C257.699 28.0781 257.869 28.3668 258.123 28.5196L265.26 32.6459C265.392 32.7209 265.541 32.7604 265.693 32.7604C265.844 32.7604 265.993 32.7209 266.125 32.6459L273.262 28.5196C273.533 28.3668 273.686 28.0781 273.686 27.7725V19.5031C273.686 19.1975 273.516 18.9088 273.262 18.756L266.125 14.6299Z" fill="white"/>
</mask>
<g mask="url(#mask0_514_111)">
<path d="M273.279 18.756L266.108 14.6299C266.038 14.5942 265.964 14.5658 265.888 14.545L257.852 28.3332C257.919 28.4145 257.999 28.4835 258.089 28.537L265.26 32.6632C265.464 32.7821 265.701 32.816 265.922 32.748L273.466 18.926C273.415 18.8581 273.347 18.8068 273.279 18.756Z" fill="url(#paint1_linear_514_111)"/>
</g>
<mask id="mask1_514_111" style="mask-type:luminance" maskUnits="userSpaceOnUse" x="257" y="14" width="17" height="19">
<path d="M266.125 14.6299C265.993 14.5548 265.844 14.5154 265.693 14.5154C265.541 14.5154 265.392 14.5548 265.26 14.6299L258.123 18.7559C257.852 18.9087 257.699 19.1974 257.699 19.503V27.7725C257.699 28.0781 257.869 28.3668 258.123 28.5196L265.26 32.6459C265.392 32.7209 265.541 32.7604 265.693 32.7604C265.844 32.7604 265.993 32.7209 266.125 32.6459L273.262 28.5196C273.533 28.3668 273.686 28.0781 273.686 27.7725V19.5031C273.686 19.1975 273.516 18.9088 273.262 18.756L266.125 14.6299Z" fill="white"/>
</mask>
<g mask="url(#mask1_514_111)">
<path fill-rule="evenodd" clip-rule="evenodd" d="M273.296 28.5198C273.5 28.4009 273.652 28.1971 273.72 27.9764L265.854 14.5279C265.65 14.494 265.43 14.5109 265.243 14.6297L258.123 18.7391L265.803 32.7649C265.914 32.7467 266.023 32.7124 266.125 32.6631L273.296 28.5198Z" fill="url(#paint2_linear_514_111)"/>
<path fill-rule="evenodd" clip-rule="evenodd" d="M273.296 28.5198L266.142 32.646C266.041 32.6975 265.932 32.732 265.82 32.7478L265.956 33.0026L273.89 28.4011V28.2991L273.686 27.9594C273.652 28.1971 273.5 28.4009 273.296 28.5198Z" fill="url(#paint3_linear_514_111)"/>
<path fill-rule="evenodd" clip-rule="evenodd" d="M273.296 28.5198L266.142 32.646C266.041 32.6975 265.932 32.732 265.82 32.7478L265.956 33.0026L273.89 28.4011V28.2991L273.686 27.9594C273.652 28.1971 273.5 28.4009 273.296 28.5198Z" fill="url(#paint4_linear_514_111)"/>
</g>
<path d="M148.049 93.1161L149.688 98.186C150.057 99.3371 150.21 100.141 150.149 100.599C151.046 98.3099 151.672 95.8157 152.029 93.1161H154C153.152 97.5111 152.034 100.705 150.646 102.697C149.565 104.232 148.381 105 147.091 105C146.747 105 146.323 104.901 145.82 104.704V103.645C146.065 103.679 146.354 103.698 146.685 103.698C147.287 103.698 147.772 103.539 148.141 103.221C148.583 102.835 148.804 102.401 148.804 101.919C148.804 101.59 148.632 100.916 148.288 99.8949L146.004 93.1161H148.049ZM135.501 90L138.504 98.732H138.522L141.544 90H144.012C144.553 94.3305 144.872 98.2927 144.97 101.884H142.889C142.816 98.527 142.613 95.3698 142.281 92.4127H142.263L139.094 101.884H137.509L134.359 92.4127H134.34C134.106 95.2527 133.959 98.4098 133.898 101.884H132C132.123 97.6586 132.43 93.6975 132.921 90H135.501Z" fill="#00758F"/>
<path d="M168.997 90.0001C172.266 90.0001 173.9 91.8687 173.9 95.6042C173.9 97.6341 173.408 99.1674 172.426 100.203C172.249 100.393 172.054 100.556 171.848 100.708L174.161 101.731L174.158 101.731L173.337 103L170.325 101.427C169.826 101.56 169.277 101.626 168.678 101.626C167.073 101.626 165.874 101.207 165.082 100.371C164.212 99.4462 163.777 97.9902 163.777 96.0055C163.777 93.9871 164.268 92.4596 165.25 91.4224C166.145 90.4737 167.394 90.0001 168.997 90.0001ZM158.989 90.0164C160.157 90.0164 161.219 90.2961 162.176 90.8536L161.69 91.8227C160.871 91.5113 160.064 91.3549 159.268 91.3549C158.622 91.3549 158.124 91.494 157.777 91.7739C157.429 92.0514 157.213 92.4084 157.213 92.8436C157.213 93.5124 157.745 94.0924 158.728 94.5824C159.05 94.74 159.371 94.8993 159.691 95.0605L159.764 95.0974L159.801 95.1159L159.875 95.1529L159.911 95.1714L159.985 95.2084C160.729 95.5838 161.429 95.9422 161.429 95.9422C162.412 96.5666 162.902 97.2323 162.902 98.3289C162.902 99.2865 162.51 100.073 161.728 100.688C160.946 101.3 159.895 101.607 158.579 101.607C157.348 101.607 156.155 101.254 155 100.553L155.541 99.5828C156.535 100.029 157.435 100.252 158.243 100.252C159 100.252 159.594 100.1 160.023 99.8012C160.451 99.5 160.708 99.0799 160.708 98.5472C160.708 97.8768 160.187 97.3037 159.231 96.823C158.931 96.675 158.633 96.5256 158.336 96.3748L158.262 96.3377C158.128 96.2697 157.992 96.2008 157.86 96.1334L157.788 96.0967C157.142 95.7681 156.584 95.481 156.584 95.481C155.628 94.8555 155.149 94.1843 155.149 93.0783C155.149 92.1636 155.506 91.4243 156.22 90.8619C156.935 90.2982 157.858 90.0164 158.989 90.0164ZM177.741 90.1675V100.07H181.711V101.459H175.727V90.1676L177.741 90.1675ZM183.917 100.074V100.309H183.48V101.457H183.147V100.309H182.693V100.074H183.917ZM184.723 100.074L185.142 101.017L185.527 100.074H186V101.457H185.685V100.405L185.247 101.457H185.021L184.582 100.405H184.565V101.457H184.267V100.074H184.723ZM168.792 91.3887C166.866 91.3887 165.902 92.8112 165.902 95.6543C165.902 97.2829 166.157 98.4639 166.667 99.1999C167.139 99.8811 167.879 100.221 168.885 100.221C170.811 100.221 171.775 98.7875 171.775 95.9216C171.775 94.3158 171.519 93.145 171.01 92.4086C170.538 91.7289 169.799 91.3887 168.792 91.3887" fill="#F29111"/>
<path d="M164.094 70.7462C164.723 69.2477 166.922 70.3825 167.775 70.9059C167.984 71.0369 168.224 71.3135 168.464 71.4158C168.838 71.4301 169.212 71.4584 169.586 71.4736C170.289 71.6338 170.947 71.7646 171.501 72.0705C174.075 73.5403 175.75 75.0381 177.292 77.5122C177.621 78.0362 177.786 78.6033 178.055 79.1703C178.428 80.0156 178.848 80.9029 179.282 81.7022C179.476 82.0811 179.626 82.5025 179.895 82.8225C180.001 82.9688 180.299 83.0119 180.478 83.0993C180.972 83.3473 181.571 83.5356 182.035 83.8266C182.903 84.3512 183.742 84.9764 184.504 85.6164C184.788 85.8635 184.982 86.2132 185.253 86.4745V86.6064C185.012 86.6779 184.773 86.7512 184.533 86.8099C184.01 86.9403 183.546 86.9108 183.038 87.0414C182.724 87.1297 182.334 87.2462 182.005 87.2758L182.035 87.3055C182.229 87.8423 183.277 88.2788 183.756 88.5998C184.338 89.0073 184.878 89.5014 185.312 90.0689C185.462 90.2136 185.612 90.3454 185.761 90.4898C185.865 90.6361 185.894 90.8254 186 90.9558V91C185.883 90.96 185.799 90.8837 185.719 90.8039L185.672 90.7558C185.624 90.708 185.576 90.661 185.522 90.6222C185.191 90.4034 184.863 90.1417 184.533 89.9383C183.965 89.5889 183.307 89.3861 182.724 89.0353C182.394 88.8317 182.08 88.5998 181.766 88.3668C181.481 88.1626 181.167 87.7704 180.988 87.4794C180.883 87.3187 180.868 87.1297 180.748 87.0134C180.769 86.8192 180.953 86.7615 181.138 86.714L181.18 86.7032C181.244 86.6871 181.307 86.671 181.361 86.6497C182.139 86.3294 183.067 86.2132 184.264 86.2423C184.219 85.9507 183.471 85.5873 183.232 85.4127C182.752 85.0775 182.245 84.7278 181.736 84.4228C181.467 84.263 181.002 84.1464 180.704 84.0158C180.299 83.8557 179.401 83.6956 179.178 83.3906C178.797 82.9097 178.524 82.3361 178.259 81.7567L178.187 81.5986L178.114 81.4406C177.801 80.7428 177.411 80.0154 177.097 79.301C176.933 78.9525 176.857 78.6466 176.677 78.3124C175.585 76.2612 173.969 74.5439 172.01 73.3362C171.366 72.9432 170.648 72.5796 169.855 72.3324C169.406 72.2008 168.867 72.2736 168.389 72.1726H168.074C167.805 72.0992 167.58 71.8228 167.371 71.6771C166.907 71.3721 166.444 71.1672 165.89 70.9496C165.695 70.8623 165.141 70.659 164.948 70.819C164.828 70.8482 164.767 70.8921 164.738 71.0087C164.618 71.1827 164.723 71.4448 164.797 71.6053C165.022 72.0703 165.336 72.3466 165.621 72.7396C165.875 73.0881 166.189 73.4811 166.369 73.86C166.757 74.6746 166.937 75.577 167.297 76.3915C167.43 76.6977 167.641 77.0462 167.835 77.3225C167.999 77.5418 168.298 77.7003 168.389 77.9779C168.569 78.2689 168.119 79.2292 168.015 79.5341C167.625 80.7274 167.7 82.3861 168.149 83.4204L168.173 83.4749L168.197 83.5302C168.361 83.909 168.536 84.3169 168.972 84.4229C169.002 84.394 168.972 84.4091 169.032 84.394C169.137 83.5934 169.167 82.8224 169.451 82.196C169.616 81.8043 169.944 81.5275 170.169 81.2078C170.319 81.2949 170.319 81.5575 170.408 81.7313C170.603 82.182 170.812 82.6763 171.052 83.1283C171.545 84.0594 172.099 84.962 172.728 85.7765C172.938 86.0674 173.237 86.3876 173.506 86.6496C173.626 86.7511 173.76 86.8097 173.85 86.9402H173.879V86.9842C173.431 86.8237 173.146 86.3734 172.788 86.1104C172.114 85.6162 171.307 84.874 170.842 84.1619C170.648 83.753 170.438 83.3612 170.229 82.9543V82.9249C170.139 83.0411 170.169 83.1565 170.124 83.3324C169.93 84.0594 170.08 84.8888 169.406 85.1503C168.643 85.4566 168.074 84.6561 167.835 84.2923C167.071 83.0849 166.862 81.048 167.401 79.4038C167.52 79.0398 167.537 78.6033 167.745 78.3127C167.7 78.0499 167.491 77.9781 167.371 77.8171C167.161 77.542 166.982 77.2215 166.818 76.9159C166.503 76.319 166.279 75.6058 166.04 74.9657C165.935 74.7043 165.905 74.4419 165.8 74.1944C165.621 73.8167 165.291 73.4377 165.037 73.1036C164.693 72.6233 163.69 71.6925 164.094 70.7462ZM169.002 73.5968C169.042 73.6357 169.09 73.6696 169.14 73.7031L169.2 73.7432C169.28 73.7971 169.358 73.8539 169.406 73.9313C169.481 74.0336 169.495 74.1347 169.586 74.2372C169.586 74.587 169.481 74.8195 169.27 74.9644C169.27 74.9644 169.256 74.9796 169.241 74.9939C169.122 74.7607 169.017 74.5289 168.896 74.2959C168.748 74.0926 168.538 73.9314 168.417 73.6991H168.388V73.6698C168.569 73.6266 168.748 73.5968 169.002 73.5968Z" fill="#00758F"/>
<path d="M34.9124 57.0002C34.8072 56.9859 33.1078 57.5998 32.0116 58.0458C30.5326 58.6502 29.3838 59.2256 28.6753 59.7244C28.412 59.9114 28.0815 60.2423 28.0291 60.3718C28.0096 60.424 27.9998 60.4793 28 60.535L28.6418 61.144L30.1686 61.6333L33.802 62.2855L37.9568 63L38 62.6404C37.9855 62.6404 37.976 62.6356 37.9617 62.6356L37.4161 62.5491L37.3058 62.3526C36.7409 61.3551 36.1187 60.1177 35.755 59.2832C35.4725 58.6358 35.2046 57.8876 35.056 57.3505C34.9748 57.0243 34.9651 57.0051 34.9127 57.0005L34.9124 57.0002ZM34.8358 57.2448H34.8407C34.8455 57.2497 34.8647 57.384 34.8838 57.5422C34.9651 58.2139 35.1134 58.8613 35.3482 59.5614C35.5252 60.089 35.5252 60.0601 35.3193 59.9977C34.8312 59.8636 32.6435 59.4846 31.0592 59.264C30.8053 59.2305 30.59 59.197 30.59 59.1921C30.5706 59.1729 31.734 58.5639 32.2461 58.3242C32.9019 58.022 34.7017 57.2689 34.8356 57.2448H34.8358ZM30.2212 59.3935L30.4079 59.4557C31.4229 59.8011 33.9741 60.2904 35.3816 60.4055C35.5395 60.4199 35.6735 60.4342 35.6782 60.4342C35.683 60.4391 35.5492 60.511 35.3768 60.5926C34.6971 60.9329 33.9503 61.3503 33.4332 61.6717C33.2802 61.7674 33.1412 61.8441 33.1221 61.8441C33.1029 61.8441 33.0025 61.8249 32.8973 61.8106L32.7058 61.7819L32.2271 61.3119C31.6449 60.7439 31.0593 60.1795 30.4702 59.6187L30.2212 59.3935ZM30.0297 59.5422L30.7047 60.3863C31.0733 60.8515 31.4466 61.307 31.5281 61.4078C31.6096 61.5084 31.6765 61.59 31.6719 61.5949C31.6525 61.6092 30.6952 61.4222 30.188 61.307C29.666 61.1873 29.4507 61.1297 29.1299 61.0289L28.8666 60.9426V60.8753C28.8714 60.554 29.2783 60.0744 29.9676 59.5854L30.0297 59.5422ZM35.7645 60.6932C35.7839 60.6932 35.8076 60.7364 35.8651 60.8656C36.0275 61.2254 36.5353 62.1944 36.6597 62.3815C36.698 62.4437 36.7649 62.4485 36.0899 62.3382C34.4673 62.0744 33.9455 61.9882 33.9455 61.9787C33.9455 61.9739 33.9933 61.9401 34.0556 61.9066C34.5582 61.6284 35.0657 61.2735 35.5157 60.8945C35.6258 60.8034 35.7262 60.7172 35.7453 60.7026C35.7502 60.6932 35.7596 60.6883 35.7645 60.6932Z" fill="url(#paint5_linear_514_111)"/>
<path d="M41.8284 71L34.9444 73.085L28.9556 75.5368L27.2802 75.947C26.8533 76.3235 26.406 76.7049 25.9221 77.0911C25.3913 77.5158 24.8969 77.9018 24.5174 78.1817C24.0957 78.4907 23.4713 79.0698 23.154 79.4365C22.6804 79.9866 22.3059 80.5709 22.1446 81.0197C21.8584 81.8306 21.9988 82.651 22.5505 83.4086C23.2581 84.374 24.6681 85.3585 26.3124 86.0293C27.15 86.3721 28.56 86.8114 29.6216 87.0573C31.3853 87.4724 34.7989 87.9215 36.677 87.989C37.0568 88.0036 37.5667 88.0036 37.5876 87.989C37.6292 87.9648 37.9207 87.4485 38.2588 86.8065C39.414 84.6202 40.2466 82.5689 40.6994 80.817C40.9698 79.7553 41.183 78.3411 41.3235 76.6662C41.3601 76.1981 41.3756 74.6296 41.3445 74.0986C41.2974 73.23 41.2141 72.5252 41.0841 71.8351C41.0633 71.7336 41.0581 71.6419 41.0686 71.6371C41.0894 71.6226 41.1519 71.6036 42 71.3764L41.8284 71ZM40.2571 71.8544C40.3193 71.8544 40.4859 73.3359 40.5275 74.2722C40.5381 74.4702 40.5328 74.6005 40.5223 74.6005C40.4806 74.6005 39.643 74.1421 39.0448 73.7947C38.5242 73.4906 37.5356 72.8824 37.3796 72.7665C37.3274 72.7328 37.3327 72.7279 37.7594 72.5929C38.4826 72.3658 40.1999 71.8544 40.2571 71.8544ZM36.75 72.9259C36.7969 72.9259 36.9166 72.9885 37.2028 73.1525C38.2744 73.7752 39.7316 74.5281 40.3559 74.7792C40.5483 74.8564 40.5692 74.8273 40.1267 75.1073C39.18 75.7057 37.9987 76.2946 36.5523 76.8882C36.3961 76.9544 36.2382 77.0172 36.0787 77.0764C36.0684 77.0764 36.0998 76.9559 36.1412 76.811C36.4899 75.6092 36.6875 74.3932 36.6981 73.418C36.7033 72.9354 36.7033 72.9354 36.75 72.921C36.7395 72.9259 36.7447 72.9259 36.75 72.9259ZM36.0268 73.1816C36.0579 73.2104 36.0373 74.2915 35.9954 74.5861C35.9026 75.2975 35.7424 76.0001 35.5168 76.6855C35.4596 76.864 35.4074 77.0139 35.3972 77.0234C35.3761 77.0474 34.6634 76.4007 34.4294 76.1497C34.0235 75.7155 33.7062 75.2811 33.4719 74.8564C33.3522 74.6391 33.1651 74.2145 33.1807 74.2C33.264 74.1468 36.006 73.1623 36.0268 73.1816ZM32.6238 74.422C32.6291 74.422 32.6343 74.422 32.6396 74.4269C32.6499 74.4364 32.6862 74.5137 32.7176 74.6005C32.8839 75.0205 33.2587 75.6382 33.5813 76.034C33.935 76.4685 34.3983 76.9317 34.7831 77.2356C34.908 77.3322 35.0224 77.4238 35.0379 77.4385C35.0696 77.4673 35.0798 77.4625 34.2315 77.7617C33.2484 78.1093 32.1763 78.4567 30.9484 78.8237C30.655 78.9114 30.3619 78.9999 30.0691 79.0891C30.0222 79.1036 30.0378 79.0794 30.1733 78.8813C30.7821 77.9983 31.7079 76.2655 32.2285 75.0398C32.317 74.8271 32.4053 74.6149 32.4208 74.5667C32.4419 74.499 32.4678 74.4751 32.5355 74.4411C32.5719 74.4316 32.6082 74.422 32.6238 74.422ZM31.5833 74.8225C31.5991 74.8322 31.3334 75.3486 31.0733 75.8216C30.5686 76.7337 30.017 77.6316 29.2782 78.7222C29.1533 78.9104 29.0336 79.0843 29.0181 79.1036C28.992 79.1373 28.9817 79.1278 28.8984 78.9782C28.7216 78.6547 28.5758 78.2396 28.4978 77.8585C28.4196 77.482 28.4354 76.8254 28.5237 76.4201C28.5914 76.1208 28.5861 76.1257 28.7424 76.0533C29.4082 75.7395 31.5622 74.8031 31.5833 74.8225ZM40.5589 75.1603V75.3632C40.5589 76.4394 40.434 77.9162 40.2518 78.9926C40.2205 79.1808 40.1944 79.3351 40.1894 79.34C40.1894 79.34 40.0384 79.3016 39.8615 79.2532C39.0324 79.0088 38.2307 78.6903 37.4679 78.3022C36.9632 78.0467 36.2297 77.6267 36.2503 77.6074C36.2556 77.6025 36.4743 77.4964 36.7292 77.3708C37.7491 76.8787 38.7272 76.3477 39.5756 75.8216C39.8926 75.6236 40.3715 75.3053 40.4756 75.2182L40.5589 75.1603ZM27.6547 76.589C27.6755 76.589 27.6705 76.6276 27.6389 76.8014C27.6129 76.9728 27.5939 77.145 27.582 77.3177C27.5403 78.0223 27.6653 78.5437 28.0398 79.2578C28.1439 79.4558 28.2272 79.6199 28.2219 79.6245C28.1855 79.6539 24.7411 80.5902 23.6587 80.8652C23.3361 80.9471 23.0552 81.0197 23.0341 81.0243C22.998 81.0341 22.9927 81.0292 23.0083 80.9471C23.1279 80.2376 23.7106 79.3111 24.5224 78.5293C25.0635 78.0079 25.4954 77.7037 26.2342 77.3128C26.765 77.0329 27.582 76.6132 27.6442 76.5939C27.6442 76.589 27.6495 76.589 27.6547 76.589ZM35.7719 77.9355C35.7772 77.9306 35.9019 77.9934 36.0526 78.0756C37.1661 78.674 38.7169 79.229 40.0384 79.5138L40.158 79.538L39.9915 79.6248C39.2996 79.9817 37.0257 80.8603 34.7001 81.6663C34.3617 81.7822 34.0288 81.8981 33.9661 81.922C33.9039 81.9462 33.8464 81.9607 33.8464 81.956C33.8464 81.9511 33.9402 81.7822 34.0599 81.5746C34.7103 80.4452 35.3658 79.0698 35.6989 78.1142C35.7406 78.0223 35.7664 77.9404 35.7719 77.9355ZM34.9444 78.1866C34.9497 78.1915 34.908 78.2927 34.8561 78.4085C34.4033 79.427 33.81 80.5371 33.0507 81.7822C32.8581 82.1007 32.6968 82.3567 32.6915 82.3567C32.6862 82.3567 32.5302 82.2697 32.3428 82.1636C31.2396 81.536 30.2615 80.7637 29.6216 80.0157L29.5278 79.9096L30.0014 79.7888C31.6977 79.3593 33.1388 78.896 34.5699 78.3266C34.7728 78.2494 34.9394 78.1866 34.9444 78.1866ZM40.0853 79.8514C40.0905 79.9626 39.8251 80.9569 39.6067 81.6758C39.4245 82.2792 39.2683 82.7522 38.982 83.5871C38.8574 83.954 38.748 84.2582 38.7427 84.2582C38.7375 84.2582 38.7064 84.2533 38.6753 84.2435C37.1298 83.9829 35.7459 83.6211 34.4452 83.1385C34.0807 83.0033 33.5605 82.786 33.5291 82.762C33.5188 82.7522 33.8311 82.617 34.2265 82.4579C36.594 81.4971 39.0498 80.4066 39.8929 79.9384C39.9915 79.8805 40.0695 79.8514 40.0853 79.8514ZM28.2166 80.2281C28.2272 80.2379 27.5664 81.1209 26.64 82.3227C26.3174 82.7427 25.9429 83.2348 25.8025 83.4184C25.6399 83.631 25.482 83.8465 25.3289 84.065L25.1101 84.3787L24.8761 84.1953C24.6004 83.9829 24.1218 83.5294 23.9086 83.2786C23.461 82.762 23.1593 82.2166 23.0396 81.7196C22.9822 81.4879 22.9822 81.372 23.0343 81.3576C23.1124 81.338 24.5016 81.0341 25.8025 80.7542C26.4239 80.6215 27.0448 80.4864 27.665 80.3489C27.967 80.2812 28.2116 80.2281 28.2166 80.2281ZM28.8826 80.4645L29.0492 80.6383C29.7985 81.4155 30.5633 81.9897 31.4897 82.4916C31.656 82.5787 31.7809 82.6557 31.7704 82.6606C31.734 82.685 28.555 83.7321 27.0823 84.2051C26.5788 84.3705 26.0742 84.5329 25.5684 84.6923C25.5632 84.6923 25.5162 84.6635 25.4641 84.6297L25.3705 84.5669L25.5215 84.3643C26.0104 83.7079 26.6245 82.9889 27.962 81.4925L28.8826 80.4645ZM33.0349 83.2204C33.0402 83.2155 33.269 83.2928 33.5499 83.3893C34.2265 83.626 34.7623 83.7756 35.4804 83.9443C36.3649 84.1521 37.645 84.3547 38.3996 84.4127C38.514 84.4222 38.5762 84.432 38.5556 84.4464C38.519 84.4657 37.7544 84.7021 37.1922 84.8664C36.2972 85.1267 33.5657 85.8751 31.3387 86.4686C30.9275 86.5796 30.5739 86.6715 30.553 86.6762C30.5011 86.686 30.329 86.6422 30.329 86.6231C30.329 86.6134 30.4542 86.4637 30.605 86.2997C31.3542 85.4695 32.0983 84.543 32.7176 83.6643C32.8892 83.4231 33.0349 83.2253 33.0349 83.2204ZM32.1191 83.2448C32.1243 83.2495 31.7548 83.7998 31.1097 84.7456C30.834 85.1461 30.5269 85.5998 30.4176 85.7592C30.3135 85.9134 30.1574 86.155 30.0691 86.2899L29.9181 86.5361L29.8401 86.5168C29.653 86.4686 28.3363 86.0391 27.9879 85.9088C27.5744 85.7561 27.1698 85.5837 26.7755 85.3922C26.3591 85.1847 25.8388 84.8759 25.8805 84.8661C25.891 84.8613 26.6037 84.6828 27.4621 84.4657C29.7413 83.8912 31.0056 83.5582 31.8329 83.317C31.9839 83.2734 32.1138 83.2399 32.1191 83.2448ZM38.5972 84.6539H38.6025C38.6231 84.7021 37.7802 86.874 37.4732 87.5594C37.4057 87.7137 37.3796 87.7526 37.3433 87.7477C37.2547 87.7428 36.0321 87.5834 35.2878 87.4822C33.9924 87.2988 31.8173 86.9463 31.2712 86.8307L31.1463 86.8062L31.9211 86.6424C33.5865 86.2948 34.3878 86.1066 35.1995 85.8748C36.2477 85.5773 37.2718 85.2112 38.2641 84.7794C38.4254 84.7116 38.5606 84.6586 38.5972 84.6539Z" fill="url(#paint6_linear_514_111)"/>
<path d="M27.6601 60C27.6601 60 27.5492 60.1628 27.655 60.4045C27.721 60.553 27.9127 60.7343 28.1295 60.9202C28.1295 60.9202 30.376 62.9366 30.6485 63.2247C31.8901 64.5443 32.4304 65.8453 32.4807 67.6388C32.5112 68.7911 32.2736 69.804 31.6833 70.9796C30.6334 73.089 28.4174 75.4168 25 78L25.4999 77.847C25.8228 77.6236 26.2618 77.3869 27.2917 76.8663C29.6693 75.6677 32.3445 74.5665 35.6256 73.4326C40.3504 71.7972 48.119 69.8829 52.5408 69.2604L53 69.1952L52.9294 69.093C52.5255 68.5169 52.248 68.1592 51.9146 67.7782C50.9456 66.6723 49.7695 65.7756 48.331 65.0321C46.352 64.0147 43.7926 63.22 40.5521 62.63C39.9415 62.5184 38.5987 62.3047 37.5085 62.1515C35.6887 61.8938 33.8714 61.6212 32.0568 61.3337C31.4662 61.2407 30.5828 61.1014 29.9973 60.9854C29.6943 60.9249 29.1139 60.7994 28.6596 60.6554C28.2963 60.5253 27.7713 60.3949 27.6601 60ZM28.9626 61.1619C28.9677 61.1572 29.0482 61.1849 29.1543 61.2177C29.3461 61.2779 29.5936 61.3476 29.8863 61.4219C30.1079 61.478 30.33 61.5322 30.5526 61.5846C30.8556 61.6542 31.108 61.7194 31.1128 61.7194C31.1484 61.7519 31.6582 63.2525 31.8298 63.8286C31.8952 64.0472 31.9459 64.2329 31.9407 64.2329C31.9356 64.2376 31.8801 64.1585 31.8147 64.0517C31.2241 63.0945 30.2901 62.1235 29.2098 61.3429C29.0687 61.2501 28.9626 61.1666 28.9626 61.1619ZM31.446 61.7938C31.4716 61.7938 31.5825 61.8077 31.7186 61.8354C32.5769 62.0119 34.1163 62.2817 35.1007 62.4349C35.2672 62.4582 35.3986 62.4859 35.3986 62.4953C35.3986 62.5048 35.338 62.537 35.2621 62.5742C35.0959 62.6533 34.4242 63.0202 34.2023 63.1597C33.6418 63.5033 33.1371 63.8752 32.7738 64.2098C32.6837 64.2927 32.5927 64.3747 32.5009 64.456C32.5009 64.456 32.4708 64.3769 32.4455 64.2795C32.2639 63.6335 31.8853 62.6763 31.5419 62.0028C31.4864 61.8959 31.4409 61.7983 31.4409 61.7891C31.4409 61.7985 31.4409 61.7938 31.446 61.7938ZM35.8174 62.5603C35.8478 62.5697 35.8982 62.7274 35.9989 63.0759C36.1884 63.7713 36.2701 64.4878 36.2416 65.2042C36.2313 65.3993 36.2211 65.5805 36.2111 65.6038L36.1958 65.6502L35.9335 65.5711C35.3935 65.4134 34.5152 65.1762 33.763 64.9811C33.334 64.8742 32.9857 64.7766 32.9857 64.7674C32.9857 64.7394 33.6116 64.1632 33.8791 63.9448C34.3889 63.5313 35.7719 62.5464 35.8174 62.5603ZM36.1656 62.6067C36.181 62.5928 38.2556 62.9227 39.1996 63.0901C39.9012 63.2155 40.9208 63.4106 40.9814 63.4337C41.0116 63.4431 40.9057 63.4989 40.5672 63.6384C39.2348 64.1913 38.2456 64.6881 37.2612 65.2924C37.0038 65.4501 36.7867 65.5805 36.7816 65.5805C36.7765 65.5805 36.7713 65.4456 36.7713 65.283C36.7713 64.4005 36.5796 63.5083 36.2262 62.7554C36.191 62.681 36.1605 62.6114 36.1656 62.6067ZM41.5316 63.5826C41.547 63.5965 41.481 63.9729 41.4204 64.1957C41.2389 64.8881 40.7492 65.9152 40.1487 66.8815C40.0425 67.0533 39.9467 67.1926 39.9364 67.1973C39.9262 67.202 39.7902 67.1324 39.6337 67.0486C39.0482 66.7328 38.3819 66.4353 37.6547 66.1566C37.453 66.0776 37.2763 66.0126 37.2712 66.0032C37.2359 65.9754 38.8613 64.9858 39.7194 64.5118C40.4008 64.1308 41.5114 63.5638 41.5316 63.5826ZM41.9152 63.6382C41.9607 63.6382 42.8793 63.8707 43.3587 64.0006C44.5451 64.3259 45.9079 64.786 46.7964 65.1576L47.1646 65.311L46.9074 65.3668C44.7369 65.8267 42.8793 66.3564 41.0873 67.0255C40.941 67.0813 40.8096 67.1277 40.7996 67.1277C40.7894 67.1277 40.84 67.0208 40.9057 66.8907C41.4457 65.8361 41.794 64.7349 41.8799 63.7961C41.885 63.7079 41.9001 63.6382 41.9152 63.6382ZM32.7686 65.5711C32.7837 65.5572 33.4853 65.7107 33.864 65.8081C34.4393 65.9568 35.6609 66.3329 35.6609 66.3611C35.6609 66.3659 35.5246 66.4725 35.3633 66.6026C34.7019 67.1091 34.066 67.6433 33.3035 68.3218C33.0765 68.5216 32.8847 68.6843 32.8748 68.6843C32.8648 68.6843 32.8594 68.6562 32.8645 68.6191C32.9806 67.8384 32.9555 66.8351 32.794 65.8175C32.7786 65.6874 32.7638 65.5758 32.7686 65.5711ZM47.5133 65.5852C47.5233 65.5944 47.1901 66.0776 46.9782 66.3517C46.6752 66.7514 46.2311 67.2811 45.2265 68.4426C44.7839 68.9539 44.3431 69.4666 43.9041 69.9805C43.7021 70.2128 43.5354 70.4079 43.5303 70.4079C43.5252 70.4079 43.46 70.3244 43.3892 70.222C42.8239 69.4416 42.1473 68.7586 41.3447 68.1453C41.2224 68.05 41.0979 67.957 40.9714 67.8664C40.9157 67.8292 40.8702 67.7921 40.8702 67.7873C40.8702 67.7735 41.7283 67.4343 42.3795 67.1926C43.5203 66.7652 45.0749 66.2541 46.241 65.9241C46.8521 65.7476 47.5031 65.5758 47.5133 65.5852ZM47.902 65.6779C47.9219 65.6732 48.0431 65.7292 48.1896 65.8081C49.4164 66.4539 50.6176 67.2856 51.5666 68.1404C51.8341 68.3823 52.4953 69.0142 52.4853 69.0187C52.4853 69.0187 52.2529 69.0375 51.9806 69.0559C49.8554 69.2046 47.1347 69.6181 44.5198 70.1987C44.4059 70.2238 44.2915 70.2471 44.1767 70.2686C44.1664 70.2686 44.3633 70.0874 44.6108 69.869C46.1454 68.5075 46.847 67.648 47.6747 66.1147C47.7907 65.8872 47.892 65.6921 47.902 65.6779C47.8968 65.6779 47.8968 65.6779 47.902 65.6779ZM36.6604 66.7375C36.7312 66.7514 37.3873 67.0347 37.882 67.2623C38.3364 67.4715 39.0178 67.8059 39.0531 67.8339C39.0582 67.8387 38.8158 67.9547 38.5182 68.0895C37.6284 68.4969 36.7577 68.9386 35.9084 69.4136C35.666 69.5484 35.464 69.66 35.4592 69.66C35.4387 69.66 35.4438 69.6412 35.5801 69.4136C36.0345 68.6518 36.398 67.741 36.6049 66.8535C36.6251 66.7838 36.6453 66.7375 36.6604 66.7375ZM36.0043 66.8488C36.0194 66.8629 35.8478 67.4343 35.7417 67.7455C35.5346 68.3357 35.1864 69.0745 34.8484 69.632C34.7676 69.7621 34.6464 69.9525 34.5807 70.0594L34.4546 70.2453L34.1718 69.9944C33.8438 69.7017 33.5761 69.5204 33.233 69.3578C33.0967 69.2929 32.9908 69.2371 32.9908 69.2279C32.9908 69.1907 33.854 68.4706 34.5152 67.95C34.9895 67.5737 35.9892 66.8349 36.0043 66.8488ZM40.0172 68.3682L40.2647 68.5169C40.8298 68.8561 41.4961 69.3067 42.0059 69.7017C42.2938 69.9201 42.8489 70.3802 42.9601 70.4915L43.0205 70.552L42.6119 70.6588C40.3 71.2488 38.5131 71.7739 36.4282 72.4804C36.1961 72.5592 35.9992 72.6242 35.9841 72.6242C35.9537 72.6242 35.9284 72.6475 36.4484 72.206C37.781 71.077 38.9623 69.8318 39.8406 68.6193L40.0172 68.3682ZM38.9623 68.6099C38.9725 68.6193 38.2809 69.516 37.8669 70.0222C37.3722 70.6263 36.4939 71.639 35.888 72.2989C35.6359 72.5731 35.4188 72.8007 35.4086 72.8054C35.3932 72.8101 35.3884 72.7404 35.3884 72.6336C35.3884 72.0711 35.2319 71.4719 34.9593 70.9608C34.8432 70.7471 34.823 70.696 34.8484 70.6727C34.9442 70.5939 36.4131 69.8224 37.3418 69.3625C37.9679 69.0559 38.9469 68.6005 38.9623 68.6099ZM32.5817 70.0502C32.5971 70.0502 32.7132 70.106 32.8443 70.1709C33.1516 70.325 33.4423 70.5054 33.7126 70.7099C33.7226 70.7193 33.5914 70.817 33.4199 70.933C32.8675 71.3 32.3239 71.6779 31.7894 72.0667C31.345 72.3919 31.3302 72.4013 31.3803 72.3317C31.7137 71.8624 31.8801 71.5974 32.0568 71.2585C32.2193 70.9428 32.3609 70.6185 32.481 70.2872C32.5211 70.1523 32.5718 70.0502 32.5817 70.0502ZM34.283 71.2768C34.3081 71.2721 34.3385 71.314 34.4748 71.4999C34.7625 71.8946 34.9846 72.4244 35.0401 72.852L35.0504 72.945L34.3587 73.1911C33.122 73.6324 31.9811 74.0692 31.2087 74.3945C30.9919 74.4874 30.613 74.6548 30.366 74.7663C30.1185 74.8823 29.9165 74.9706 29.9165 74.9661C29.9165 74.9616 30.073 74.8546 30.265 74.7244C31.7743 73.7162 33.0816 72.6103 34.0609 71.5044C34.167 71.3884 34.2628 71.2815 34.2731 71.2768H34.283ZM33.5007 71.4533C33.5209 71.4722 32.9453 72.0714 32.5516 72.4383C31.5774 73.3538 30.6132 74.0692 29.4169 74.7663C29.2655 74.8546 29.1293 74.9334 29.1139 74.9428C29.0786 74.9614 29.1242 74.9148 29.6491 74.3898C29.9569 74.0856 30.2483 73.7677 30.5222 73.4373C30.714 73.2097 30.7495 73.1773 31.0272 72.996C31.7692 72.5035 33.4805 71.4347 33.5007 71.4533Z" fill="url(#paint7_radial_514_111)"/>
<path d="M11.1465 91.368C11.0506 91.368 10.9551 91.3766 10.8607 91.3766C8.9324 91.4732 7.63185 92.2709 6.87138 93.8291C6.22087 95.2379 6.29207 97.0793 6.87865 98.4972C7.56065 99.8823 8.66308 100.614 10.5032 100.889C10.8922 100.95 11.1533 101.15 11.9079 101.978L12.8355 103H14.5182L13.3993 101.939C12.7808 101.358 12.2804 100.852 12.2804 100.807C12.2804 100.763 12.5168 100.665 12.8035 100.584C13.7476 100.315 14.5313 99.6291 15.0801 98.5782C15.5238 97.7345 15.5877 97.4736 15.6516 96.4236C15.8178 93.2986 14.0648 91.3448 11.146 91.3671L11.1465 91.368ZM12.6214 99.5403C11.8028 99.9128 10.6141 99.9875 9.83818 99.7197C9.03605 99.4429 8.25912 98.6597 7.90988 97.7732C7.5219 96.8033 7.57712 95.0148 8.02129 94.2093C8.73477 92.9266 9.6793 92.3369 11.0583 92.3369C13.1053 92.3369 14.2697 93.5149 14.4213 95.7292C14.5415 97.5778 13.8832 98.9648 12.6224 99.5399L12.6214 99.5403ZM41.6887 94.0376C40.983 94.0376 40.4429 94.3063 40.0787 94.8354L39.7929 95.2543V94.1647H38.5718V100.697H39.7924V98.6087C39.7924 96.6995 39.8181 96.4764 40.1019 95.9541C40.4928 95.2374 41.1661 94.8804 41.8166 95.0512L42.2525 95.1709V94.039H41.6892L41.6887 94.0376ZM34.5122 93.9775C34.2612 93.9799 34.0111 94.0073 33.7663 94.0595C32.132 94.4615 31.2107 95.9323 31.2669 97.4453C31.2669 98.7125 31.5294 99.3464 32.1795 100.011C33.512 101.038 34.7176 101.12 36.3436 100.569C36.6207 100.458 36.923 100.329 36.923 100.329V99.3017L36.3436 99.584C35.0276 100.123 34.0361 100.123 33.2417 99.4884C32.7355 99.0035 32.5122 98.422 32.41 97.7582H37.3352V96.878C37.3352 95.0822 36.1853 93.9484 34.5113 93.9775H34.5122ZM32.5205 96.8416C32.5205 96.8416 32.7026 95.7214 33.3778 95.2825C33.6881 95.0751 34.0593 94.9632 34.44 94.9624C34.8058 94.9624 35.17 95.0735 35.4713 95.2902C36.0898 95.7374 36.193 96.8338 36.193 96.8338H32.521L32.5205 96.8416ZM3.07195 95.6641C1.74767 94.9096 1.16012 94.3659 1.23229 93.7243C1.43767 91.9504 3.76945 92.1958 5.06127 92.867L5.07048 91.6735C5.07048 91.6735 4.35651 91.3826 3.33303 91.3671C1.76317 91.3452 0.747918 91.8288 0.272747 92.8137C-0.426206 94.2676 0.19234 95.3636 2.42821 96.5866C3.68323 97.2728 4.23784 97.8688 4.23784 98.5186C4.23784 99.8609 2.51637 100.33 0.740168 99.4875C0.37495 99.3163 0.0654342 99.1733 0.0484811 99.1733C-0.0154563 99.554 0.0174811 100.465 0.0174811 100.465C0.0174811 100.465 0.563371 100.68 1.38196 100.829C3.41149 101.209 5.25938 100.314 5.43376 98.8605C5.58585 97.4959 5.06079 96.7796 3.07195 95.6627V95.6641ZM52.5 93.9625C52.2459 93.9657 51.9929 93.9933 51.7448 94.0449C50.1125 94.447 49.1927 95.9177 49.2551 97.4312C49.2551 98.6966 49.5167 99.3241 50.1667 99.9875C51.4992 101.017 52.7048 101.098 54.3386 100.547C54.5319 100.469 54.7245 100.39 54.9165 100.309V99.2799L54.3382 99.5636C53.0192 100.101 52.0277 100.101 51.2362 99.4661C50.7271 98.9821 50.5063 98.4075 50.4031 97.7363H55.3205V96.8557C55.3205 95.069 54.1706 93.9338 52.4971 93.9643L52.5 93.9625ZM50.5077 96.8265C50.5077 96.8265 50.6918 95.7082 51.3656 95.2602C51.6756 95.0528 52.0463 94.9408 52.4268 94.9396C52.7911 94.9396 53.1573 95.0507 53.4585 95.2675C54.0771 95.7151 54.1807 96.8188 54.1807 96.8188H50.5092L50.5077 96.8265ZM28.118 95.6782C26.7937 94.926 26.2076 94.3805 26.2788 93.7385C26.4842 91.964 28.8165 92.2104 30.1078 92.8811L30.1175 91.6881C30.1175 91.6881 29.403 91.3967 28.38 91.383C26.8097 91.3612 25.7949 91.8452 25.3188 92.8301C24.6208 94.2835 25.2476 95.3799 27.4757 96.6025C28.7293 97.2883 29.2839 97.8765 29.2839 98.5263C29.2839 99.8686 27.5629 100.345 25.7867 99.4948C25.4229 99.3241 25.1134 99.1829 25.0955 99.1829C25.032 99.5631 25.0645 100.474 25.0645 100.474C25.0645 100.474 25.6041 100.682 26.4198 100.838C28.4517 101.22 30.2996 100.325 30.474 98.8715C30.6246 97.5136 30.101 96.7983 28.118 95.6796V95.6782ZM59.6765 94.0221C58.9707 94.0221 58.4243 94.2908 58.0664 94.8208L57.7806 95.2379V94.1505H56.5595V100.681H57.7801V98.5932C57.7801 96.6845 57.8043 96.4605 58.0892 95.9386C58.4805 95.2233 59.1538 94.8654 59.8038 95.0375L60.2407 95.1568V94.0221H59.6765ZM18.4039 95.6409V91.48H17.1726V100.696H22.3515V99.6073H18.4039V95.6409ZM46.8836 96.9376L45.8689 99.4206L44.8924 96.9235L43.9013 94.1569H42.6405C43.4676 96.3503 44.3348 98.5302 45.2416 100.696C45.6306 100.704 46.0195 100.696 46.408 100.696L47.7788 97.4599L49.1747 94.1578H47.9701C47.9701 94.1578 47.4373 95.4692 46.8827 96.9381L46.8836 96.9376ZM21.2423 88.9688C21.4404 88.9688 21.6061 88.9092 21.7422 88.7808C21.8085 88.7214 21.8611 88.6497 21.8965 88.5702C21.932 88.4907 21.9495 88.4052 21.948 88.3191C21.948 88.1324 21.8773 87.9771 21.7422 87.8574C21.6772 87.7981 21.6003 87.7516 21.5159 87.7207C21.4316 87.6898 21.3415 87.6751 21.251 87.6775C21.051 87.6775 20.8858 87.7376 20.7511 87.8642C20.6145 87.9908 20.5525 88.1465 20.5525 88.3259C20.5525 88.514 20.6165 88.6697 20.7511 88.7876C20.8785 88.9074 21.0437 88.967 21.2423 88.967V88.9688ZM20.8054 87.9084C20.9236 87.7977 21.0674 87.7458 21.251 87.7458C21.4239 87.7458 21.5678 87.7977 21.6879 87.9084C21.8061 88.0199 21.87 88.1552 21.87 88.3191C21.8712 88.3966 21.8557 88.4735 21.8244 88.5451C21.7931 88.6168 21.7467 88.6818 21.6879 88.7362C21.5678 88.8473 21.4239 88.9001 21.251 88.9001C21.0757 88.9001 20.9328 88.8491 20.8151 88.7362C20.7563 88.6818 20.7099 88.6168 20.6786 88.5451C20.6473 88.4735 20.6318 88.3966 20.633 88.3191C20.633 88.1552 20.6867 88.0199 20.8054 87.9084ZM21.0989 88.3792H21.1793C21.236 88.3792 21.2912 88.4302 21.3387 88.5276L21.4341 88.7293H21.5843L21.4661 88.5053C21.4176 88.4156 21.3707 88.3637 21.315 88.3491C21.3852 88.3336 21.4409 88.3113 21.4806 88.2672C21.4998 88.2468 21.5145 88.223 21.5238 88.1972C21.5331 88.1714 21.5369 88.1441 21.5349 88.1169C21.5368 88.0874 21.5314 88.0578 21.5192 88.0305C21.5069 88.0033 21.4881 87.9791 21.4641 87.9598C21.4094 87.917 21.3222 87.8942 21.2094 87.8942H20.957V88.7293H21.0839V88.3787L21.0989 88.3792ZM21.0989 87.9908H21.2103C21.2902 87.9908 21.3464 88.0063 21.3779 88.0286C21.4075 88.0504 21.4162 88.0796 21.4162 88.1324C21.4162 88.2294 21.3522 88.2744 21.2341 88.2744H21.098V87.9908H21.0989ZM0.756637 88.305C0.756637 88.0135 0.747434 87.7973 0.740168 87.6702H0.747434C0.778918 87.8205 0.818637 87.9325 0.850606 88.0072L2.03248 90.4901H2.23107L3.41295 87.9849C3.4454 87.9166 3.47688 87.8137 3.51612 87.6707H3.52532C3.50482 87.882 3.49416 88.0941 3.49335 88.3063V90.4974H3.89829V87.2399H3.39067L2.30373 89.5066C2.26369 89.5961 2.20815 89.73 2.1371 89.9082H2.12064C2.07848 89.7758 2.02569 89.6465 1.96273 89.5216L0.900012 87.2326H0.360903V90.4906H0.749856V88.3063L0.756637 88.305ZM4.7847 88.3104H5.13441V90.3394H4.7847V88.3104ZM4.95956 87.5664C4.99322 87.5675 5.02676 87.562 5.05804 87.5503C5.08931 87.5385 5.11764 87.5207 5.1412 87.4981C5.16621 87.4763 5.18624 87.4498 5.20006 87.4205C5.21388 87.3911 5.22121 87.3595 5.2216 87.3274C5.22305 87.2951 5.2167 87.2629 5.20302 87.2332C5.18935 87.2036 5.16871 87.1772 5.14265 87.1561C5.1183 87.1339 5.0895 87.1164 5.0579 87.1047C5.0263 87.0929 4.99255 87.0872 4.95859 87.0878C4.92492 87.0867 4.89138 87.0922 4.8601 87.104C4.82883 87.1157 4.80051 87.1335 4.77695 87.1561C4.75218 87.1783 4.73236 87.2048 4.71863 87.2342C4.70491 87.2636 4.69756 87.2953 4.69702 87.3274C4.69702 87.4016 4.72124 87.4535 4.77695 87.4981C4.82582 87.5421 4.89092 87.5666 4.95859 87.5664H4.95956ZM7.62458 90.384V90.0266C7.43326 90.1609 7.2274 90.2274 7.01476 90.2274C6.76046 90.2274 6.55363 90.1454 6.40299 89.9883C6.25284 89.8326 6.17243 89.6163 6.17243 89.3468C6.17243 89.0645 6.25284 88.8404 6.41849 88.6697C6.57769 88.5058 6.78387 88.4236 7.03704 88.4233C7.24338 88.4233 7.44149 88.4834 7.62458 88.6032V88.2225C7.45796 88.1406 7.26808 88.1028 7.05302 88.1028C6.6568 88.1028 6.34729 88.2225 6.11624 88.4534C5.88713 88.6842 5.76895 88.998 5.76895 89.3768C5.76895 89.7138 5.87163 89.997 6.08573 90.2133C6.30854 90.4355 6.59335 90.5484 6.9421 90.5484C7.21238 90.5411 7.43326 90.4883 7.62458 90.384ZM8.62385 89.3021C8.62385 89.0349 8.68779 88.8186 8.80597 88.6692C8.91673 88.5354 9.05155 88.4683 9.21043 88.468C9.34508 88.468 9.44099 88.4907 9.51074 88.5431V88.1547C9.45649 88.1324 9.37705 88.1251 9.27436 88.1251C9.13147 88.1251 9.00457 88.1706 8.89219 88.2535C8.77401 88.3414 8.67955 88.4757 8.62385 88.6465H8.61465V88.1702H8.2194V90.496H8.61562V89.3026L8.62385 89.3021ZM10.9004 90.542C11.2734 90.542 11.5737 90.4291 11.7965 90.2051C12.0183 89.9823 12.1293 89.6842 12.1293 89.3108C12.1293 88.9306 12.0276 88.6396 11.8202 88.4233C11.6144 88.2071 11.3291 88.1023 10.9561 88.1023C10.5831 88.1023 10.2828 88.2071 10.06 88.4088C9.82171 88.631 9.69625 88.9452 9.69625 89.3477C9.69625 89.6983 9.79797 89.9888 10.013 90.2051C10.2349 90.4291 10.5284 90.5411 10.9009 90.5411L10.9004 90.542ZM10.3366 88.6474C10.4877 88.4977 10.686 88.423 10.9314 88.4233C11.1862 88.4233 11.377 88.4976 11.519 88.6474C11.6618 88.804 11.7331 89.0267 11.7331 89.3258C11.7331 89.609 11.6691 89.8326 11.5345 89.982C11.4003 90.1386 11.2017 90.2215 10.9396 90.2215C10.6853 90.2215 10.4877 90.1386 10.3366 89.982C10.1864 89.8249 10.1148 89.609 10.1148 89.3254C10.0993 89.0431 10.1787 88.8127 10.3366 88.6474ZM13.8658 90.3394C14.0169 90.2128 14.0968 90.0571 14.0968 89.8622C14.0985 89.7835 14.0833 89.7053 14.052 89.6323C14.0207 89.5593 13.974 89.493 13.9147 89.4374C13.8183 89.3477 13.6696 89.2662 13.4535 89.1842C13.2627 89.1091 13.1445 89.0426 13.0806 88.9902C13.0466 88.9593 13.02 88.9219 13.0023 88.8807C12.9846 88.8394 12.9763 88.7952 12.9779 88.7507C12.9779 88.6542 13.0181 88.58 13.0966 88.5199C13.1765 88.4602 13.2782 88.4311 13.4148 88.4311C13.6279 88.4311 13.8115 88.4839 13.9781 88.5964V88.223C13.8127 88.147 13.6304 88.1091 13.4463 88.1123C13.192 88.1123 12.9769 88.1784 12.819 88.3054C12.7406 88.3624 12.6776 88.4359 12.6348 88.52C12.5921 88.604 12.5709 88.6963 12.573 88.7894C12.573 88.9602 12.6277 89.1022 12.7313 89.2065C12.8185 89.2953 12.9677 89.3864 13.1755 89.4674C13.3741 89.5494 13.5083 89.6236 13.58 89.6837C13.6133 89.7115 13.6398 89.7457 13.6575 89.7841C13.6752 89.8225 13.6838 89.8641 13.6827 89.9059C13.6827 90.1231 13.5243 90.2351 13.2152 90.2351C12.9772 90.2354 12.7628 90.1614 12.572 90.0129V90.4145C12.7449 90.5124 12.9522 90.5566 13.1818 90.5566C13.4753 90.542 13.7054 90.4746 13.8638 90.3403L13.8658 90.3394ZM15.7538 88.1028C15.3809 88.1028 15.0806 88.2071 14.8578 88.4088C14.6214 88.6314 14.4945 88.9452 14.4945 89.3477C14.4945 89.6983 14.5972 89.9888 14.8108 90.2051C15.0336 90.4291 15.3266 90.5416 15.6996 90.5416C16.0813 90.5416 16.3724 90.4286 16.5952 90.2046C16.818 89.9815 16.9294 89.6833 16.9294 89.3099C16.9294 88.9297 16.8253 88.6392 16.6194 88.4224C16.4053 88.2061 16.1195 88.1019 15.7558 88.1019L15.7538 88.1028ZM16.5235 89.3254C16.5235 89.609 16.4596 89.8326 16.3249 89.982C16.1903 90.1386 15.9922 90.2215 15.7301 90.2215C15.4753 90.2215 15.2782 90.1386 15.1271 89.982C14.9769 89.8249 14.9052 89.609 14.9052 89.3254C14.9052 89.0262 14.9842 88.7954 15.1435 88.6396C15.2937 88.4906 15.492 88.4159 15.7383 88.4156C15.9839 88.4156 16.1815 88.4907 16.3244 88.6396C16.4513 88.8035 16.5235 89.0271 16.5235 89.3254ZM17.595 90.4892H17.9907V88.4757H18.57V88.1624H17.9907V87.8036C17.9907 87.4767 18.1249 87.3128 18.4034 87.3128C18.4969 87.3128 18.5928 87.3351 18.6635 87.3724V87.0368C18.5928 87.0068 18.4969 87 18.3777 87C18.1646 87 17.9902 87.0601 17.8468 87.1867C17.6802 87.3351 17.592 87.5282 17.592 87.79V88.1711H17.1735V88.4844H17.592V90.4901L17.595 90.4892ZM19.2205 89.8545C19.2205 90.3098 19.4336 90.5411 19.8705 90.5411C20.0289 90.5411 20.1481 90.5174 20.2435 90.4637V90.145C20.1697 90.1956 20.0801 90.222 19.9887 90.2201C19.8541 90.2201 19.7596 90.19 19.7044 90.1227C19.6477 90.0557 19.6158 89.9432 19.6158 89.7875V88.4748H20.2435V88.162H19.6158V87.4762C19.4797 87.5204 19.346 87.5582 19.2191 87.5955V88.1615H18.7918V88.4748H19.2191V89.854L19.2205 89.8545ZM61.7874 94.1419C61.7224 94.0827 61.6454 94.0363 61.5611 94.0055C61.4767 93.9747 61.3867 93.9601 61.2962 93.9625C61.0962 93.9625 60.9305 94.0226 60.7958 94.1505C60.6612 94.2762 60.5972 94.4328 60.5972 94.6122C60.5972 94.7989 60.6612 94.9538 60.7949 95.074C60.9289 95.1936 61.0957 95.2534 61.2952 95.2534C61.4924 95.2534 61.6585 95.1937 61.7956 95.0667C61.9293 94.9392 62 94.7912 62 94.6054C61.9927 94.4174 61.921 94.2616 61.7864 94.1423L61.7874 94.1419ZM61.7239 95.0225C61.6668 95.0763 61.5986 95.1186 61.5234 95.1466C61.4483 95.1746 61.3678 95.1879 61.287 95.1855C61.1141 95.1855 60.9707 95.1336 60.8506 95.0225C60.7918 94.9678 60.7454 94.9025 60.7141 94.8305C60.6828 94.7585 60.6673 94.6813 60.6685 94.6036C60.6685 94.441 60.7232 94.3063 60.8428 94.1933C60.961 94.0822 61.1044 94.0308 61.287 94.0308C61.4599 94.0308 61.6038 94.0822 61.7239 94.1933C61.8416 94.3063 61.9055 94.441 61.9055 94.6031C61.9055 94.7766 61.8508 94.9096 61.7239 95.0225ZM61.3674 94.6423C61.4299 94.6302 61.4875 94.6018 61.5335 94.5603C61.5721 94.519 61.5917 94.465 61.5883 94.4101C61.5886 94.3427 61.565 94.2905 61.5176 94.2534C61.4628 94.2106 61.3747 94.1874 61.2628 94.1874H61.0095V95.0216H61.1368V94.671H61.2163C61.2705 94.671 61.3253 94.7224 61.3747 94.8199L61.4691 95.0211H61.6203L61.5021 94.7967C61.4609 94.6992 61.4134 94.6546 61.3655 94.64L61.3674 94.6423ZM61.2797 94.5672H61.1431V94.2849H61.255C61.3345 94.2849 61.3897 94.2985 61.4217 94.3213C61.4536 94.3441 61.4604 94.3727 61.4604 94.426C61.4604 94.5226 61.3974 94.5672 61.2788 94.5672H61.2797ZM39.1516 88.0664H39.262V87.2308H39.556V87.1261H38.8575V87.2308H39.1516V88.0664ZM39.8244 87.438C39.8244 87.3574 39.8244 87.2909 39.8181 87.2531C39.8253 87.2973 39.8418 87.3274 39.8491 87.3497L40.1901 88.0664H40.2443L40.5868 87.3424C40.596 87.3205 40.6032 87.2914 40.6182 87.2531C40.611 87.3274 40.611 87.387 40.611 87.4325V88.0655H40.7292V87.1261H40.5868L40.2772 87.7745C40.27 87.7973 40.2453 87.8428 40.2303 87.8942H40.2206C40.2148 87.8642 40.1983 87.8341 40.1755 87.7831L39.866 87.1266H39.7062V88.0668H39.8176V87.4394L39.8244 87.438Z" fill="#231F1F"/>
<defs>
<linearGradient id="paint0_linear_514_111" x1="1347.81" y1="333.567" x2="563.712" y2="1563.63" gradientUnits="userSpaceOnUse">
<stop stop-color="#41873F"/>
<stop offset="0.3288" stop-color="#418B3D"/>
<stop offset="0.6352" stop-color="#419637"/>
<stop offset="0.9319" stop-color="#3FA92D"/>
<stop offset="1" stop-color="#3FAE2A"/>
</linearGradient>
<linearGradient id="paint1_linear_514_111" x1="933.571" y1="1020.7" x2="2894.25" y2="-42.8199" gradientUnits="userSpaceOnUse">
<stop offset="0.1376" stop-color="#41873F"/>
<stop offset="0.4032" stop-color="#54A044"/>
<stop offset="0.7136" stop-color="#66B848"/>
<stop offset="0.9081" stop-color="#6CC04A"/>
</linearGradient>
<linearGradient id="paint2_linear_514_111" x1="189.668" y1="927.079" x2="1841.2" y2="927.079" gradientUnits="userSpaceOnUse">
<stop offset="0.09192" stop-color="#6CC04A"/>
<stop offset="0.2864" stop-color="#66B848"/>
<stop offset="0.5968" stop-color="#54A044"/>
<stop offset="0.8624" stop-color="#41873F"/>
</linearGradient>
<linearGradient id="paint3_linear_514_111" x1="-572.298" y1="281.506" x2="1079.21" y2="281.506" gradientUnits="userSpaceOnUse">
<stop offset="0.09192" stop-color="#6CC04A"/>
<stop offset="0.2864" stop-color="#66B848"/>
<stop offset="0.5968" stop-color="#54A044"/>
<stop offset="0.8624" stop-color="#41873F"/>
</linearGradient>
<linearGradient id="paint4_linear_514_111" x1="1319.82" y1="-1036.5" x2="900.115" y2="1159.16" gradientUnits="userSpaceOnUse">
<stop stop-color="#41873F"/>
<stop offset="0.3288" stop-color="#418B3D"/>
<stop offset="0.6352" stop-color="#419637"/>
<stop offset="0.9319" stop-color="#3FA92D"/>
<stop offset="1" stop-color="#3FAE2A"/>
</linearGradient>
<linearGradient id="paint5_linear_514_111" x1="28.02" y1="60.0017" x2="29.8619" y2="60.0017" gradientUnits="userSpaceOnUse">
<stop stop-color="#939FAB"/>
<stop offset="1" stop-color="#DCDEE1"/>
</linearGradient>
<linearGradient id="paint6_linear_514_111" x1="27.1822" y1="84.8469" x2="29.5702" y2="83.3257" gradientUnits="userSpaceOnUse">
<stop stop-color="#909CA9"/>
<stop offset="1" stop-color="#EDEDEE"/>
</linearGradient>
<radialGradient id="paint7_radial_514_111" cx="0" cy="0" r="1" gradientUnits="userSpaceOnUse" gradientTransform="translate(37.4188 67.9032) rotate(-172.132) scale(2.50129 4.62152)">
<stop stop-color="#EE352C"/>
<stop offset="1" stop-color="#A91D22"/>
</radialGradient>
</defs>
</svg>
