<?xml version="1.0" encoding="UTF-8"?>
<!DOCTYPE svg PUBLIC "-//W3C//DTD SVG 1.1//EN" "http://www.w3.org/Graphics/SVG/1.1/DTD/svg11.dtd">
<!-- Creator: CorelDRAW X5 -->
<svg xmlns="http://www.w3.org/2000/svg" xml:space="preserve" width="349.696mm" height="265.452mm" style="shape-rendering:geometricPrecision; text-rendering:geometricPrecision; image-rendering:optimizeQuality; fill-rule:evenodd; clip-rule:evenodd"
viewBox="0 0 3877 2943"
 xmlns:xlink="http://www.w3.org/1999/xlink">
 <defs>
  <style type="text/css">
   <![CDATA[
    .str0 {stroke:#C5C6C6;stroke-width:2.21748}
    .str3 {stroke:#5ED95B;stroke-width:22.1748}
    .str1 {stroke:#FF6F61;stroke-width:22.1748}
    .str2 {stroke:#FFED00;stroke-width:22.1748}
    .fil16 {fill:none}
    .fil11 {fill:none;fill-rule:nonzero}
    .fil20 {fill:#4E565A}
    .fil17 {fill:#CFE3EB}
    .fil21 {fill:lightgrey}
    .fil19 {fill:#FF6F61}
    .fil18 {fill:#FFED00}
    .fil14 {fill:#FEFEFE}
    .fil1 {fill:#F8BB97;fill-rule:nonzero}
    .fil0 {fill:#F8F8F7;fill-rule:nonzero}
    .fil2 {fill:#FFED00;fill-rule:nonzero}
    .fil13 {fill:#5A5A63;fill-rule:nonzero}
    .fil4 {fill:#5ED95B;fill-rule:nonzero}
    .fil15 {fill:#737373;fill-rule:nonzero}
    .fil7 {fill:#CFE3EB;fill-rule:nonzero}
    .fil5 {fill:lightgrey;fill-rule:nonzero}
    .fil6 {fill:#FF6F61;fill-rule:nonzero}
    .fil12 {fill:#FFBD9C;fill-rule:nonzero}
    .fil3 {fill:#FFED00;fill-rule:nonzero}
    .fil8 {fill:white;fill-rule:nonzero}
    .fil10 {fill:url(#id0)}
    .fil9 {fill:url(#id1)}
   ]]>
  </style>
  <radialGradient id="id0" gradientUnits="userSpaceOnUse" cx="2627.83" cy="1838.01" r="543.779" fx="2627.83" fy="1838.01">
   <stop offset="0" style="stop-color:#E7EAEE"/>
   <stop offset="1" style="stop-color:#D9E7ED"/>
   <stop offset="1" style="stop-color:#D9E7ED"/>
  </radialGradient>
  <radialGradient id="id1" gradientUnits="userSpaceOnUse" cx="3478.84" cy="2787.2" r="35.0417" fx="3478.84" fy="2787.2">
   <stop offset="0" style="stop-color:#DBDFE2"/>
   <stop offset="1" style="stop-color:#C9DAE1"/>
   <stop offset="1" style="stop-color:#C9DAE1"/>
  </radialGradient>
 </defs>
 <g id="Vrstva_x0020_1">
  <metadata id="CorelCorpID_0Corel-Layer"/>
  <path class="fil0" d="M2753 1880c0,0 -1,18 7,21 8,3 40,-8 44,-14 4,-6 -2,-24 -2,-24l-50 16z"/>
  <path class="fil1" d="M2789 1983c5,9 69,18 90,6 0,0 8,38 -4,85 0,0 163,8 212,-20 0,0 -9,-46 -5,-134 3,-60 41,-75 48,-217 5,-100 -69,-194 -208,-187 -92,4 -148,76 -148,76 0,0 -26,32 -37,72 0,0 -7,26 -5,41 -1,106 -24,114 -23,122 4,29 32,20 39,37 13,34 25,88 42,119z"/>
  <path class="fil2" d="M2705 1662c0,0 21,20 74,7 55,-13 103,7 112,35 9,27 -11,59 11,62 22,3 28,-29 46,-24 19,5 49,11 45,39 -4,28 16,118 25,132 9,15 67,-2 73,-5 6,-3 28,-85 47,-121 18,-35 72,-233 -17,-267 0,0 -17,-46 -68,-61 -51,-15 -137,-22 -198,7 -61,29 -129,78 -162,72 0,0 -28,2 -15,22 13,20 25,35 46,39 0,0 -36,-14 -58,-25 -21,-11 -9,62 40,87z"/>
  <path class="fil3" d="M363 2727c-70,-54 -126,-122 -167,-200 -53,-101 -77,-214 -69,-328l291 19c-4,61 9,121 37,174 22,42 52,77 88,106l-180 229 0 0z"/>
  <path class="fil4" d="M1068 2787c-213,112 -468,100 -665,-30l173 -235c108,72 237,69 356,7 21,-11 30,-16 48,-30l192 219c-33,26 -68,49 -106,69l0 0z"/>
  <path class="fil5" d="M1229 2669l-205 -207c76,-75 115,-168 107,-271l290 -32c15,188 -55,374 -191,509l0 0z"/>
  <path class="fil6" d="M1410 2084l-287 50c-6,-30 -15,-50 -29,-77 -25,-48 -61,-88 -106,-119l164 -240c83,57 152,135 199,224 27,51 46,106 58,162l0 0z"/>
  <path class="fil7" d="M957 1920c-106,-64 -228,-58 -341,1 -109,57 -177,149 -191,267l-294 -22c25,-214 156,-402 350,-504 102,-53 216,-80 329,-76 111,4 219,35 312,91l-165 241 0 0z"/>
  <path class="fil6" d="M3052 2869c-40,-1 -66,-2 -66,-2 0,0 -465,0 -477,0 -13,0 -128,-126 -128,-126 0,0 85,-53 132,-127 47,-74 19,-113 38,-258 22,-170 157,-286 321,-324 69,19 134,30 230,5 0,0 78,3 141,44 168,123 179,387 179,699 -10,104 -329,89 -370,87z"/>
  <path class="fil8" d="M3219 2704c-5,4 -15,-1 -15,-1 -14,-53 -1,-292 5,-375 26,142 23,315 11,376z"/>
  <path class="fil9" d="M3500 2853l0 0c26,-10 42,-23 42,-44l0 0c0,21 -16,34 -42,44l0 0z"/>
  <path class="fil10" d="M2634 2842l-2 0 0 0c1,0 2,0 2,0zm4 -669c0,0 0,0 0,0l0 0 0 0z"/>
  <path class="fil11" d="M2704 2530c44,202 120,324 120,324l0 0 -35 -2c-82,-157 -71,-270 -132,-412 3,133 13,269 19,402 0,0 8,2 21,4l-62 -4c-1,0 -2,0 -2,0 0,-1 21,-146 7,-201"/>
  <path class="fil8" d="M2523 2823c60,-65 165,-147 147,-365 34,232 81,385 -147,365z"/>
  <path class="fil12" d="M2846 2735c0,0 -152,9 -189,12 -36,3 -169,97 -170,97 0,1 188,4 214,-2 25,-7 53,5 90,13 37,8 74,0 74,0l0 -119 -18 0 0 0z"/>
  <path class="fil12" d="M2287 2794c0,5 25,50 25,50l186 0 26 -22 -141 -79c0,0 -106,29 -96,51z"/>
  <path class="fil13" d="M1645 2440l195 429 475 -1 -206 -446c-2,-4 -6,-7 -11,-7l-437 0c-13,0 -22,14 -16,25l0 0z"/>
  <path class="fil5" d="M2325 2867l-21 -37 -189 -403c0,0 -7,-17 -25,-13 -5,1 214,452 214,452l21 0z"/>
  <path class="fil5" d="M2738 2842l-434 2 11 23 401 0c12,0 21,-10 21,-21l0 -4 0 0z"/>
  <polygon class="fil14" points="2002,2677 1936,2677 1923,2648 1989,2648 "/>
  <polygon class="fil15" points="1529,2943 3877,2943 3877,2867 1529,2867 "/>
  <g id="_468351600">
   <polyline class="fil16 str0" points="780,1348 780,1347 780,1123 780,900 780,677 780,454 780,231 780,8 780,6 "/>
   <polyline class="fil16 str0" points="1216,1348 1216,1347 1216,1123 1216,900 1216,677 1216,454 1216,231 1216,8 1216,6 "/>
   <polyline class="fil16 str0" points="1651,1348 1651,1347 1651,1123 1651,900 1651,677 1651,454 1651,231 1651,8 1651,6 "/>
   <polyline class="fil16 str0" points="2086,1348 2086,1347 2086,1123 2086,900 2086,677 2086,454 2086,231 2086,8 2086,6 "/>
   <polyline class="fil16 str0" points="2522,1348 2522,1347 2522,1123 2522,900 2522,677 2522,454 2522,231 2522,8 2522,6 "/>
   <polyline class="fil16 str0" points="2957,1348 2957,1347 2957,1123 2957,900 2957,677 2957,454 2957,231 2957,8 2957,6 "/>
   <polyline class="fil16 str0" points="3393,1348 3393,1347 3393,1123 3393,900 3393,677 3393,454 3393,231 3393,8 3393,6 "/>
   <polyline class="fil16 str0" points="779,1347 780,1347 1216,1347 1651,1347 2086,1347 2522,1347 2957,1347 3393,1347 3394,1347 "/>
   <polyline class="fil16 str0" points="779,1123 780,1123 1216,1123 1651,1123 2086,1123 2522,1123 2957,1123 3393,1123 3394,1123 "/>
   <polyline class="fil16 str0" points="779,900 780,900 1216,900 1651,900 2086,900 2522,900 2957,900 3393,900 3394,900 "/>
   <polyline class="fil16 str0" points="779,677 780,677 1216,677 1651,677 2086,677 2522,677 2957,677 3393,677 3394,677 "/>
   <polyline class="fil16 str0" points="779,454 780,454 1216,454 1651,454 2086,454 2522,454 2957,454 3393,454 3394,454 "/>
   <polyline class="fil16 str0" points="779,231 780,231 1216,231 1651,231 2086,231 2522,231 2957,231 3393,231 3394,231 "/>
   <polyline class="fil16 str0" points="779,8 780,8 1216,8 1651,8 2086,8 2522,8 2957,8 3393,8 3394,8 "/>
  </g>
  <polyline class="fil16 str1" points="780,1347 1216,900 1533,1123 1717,818 2086,454 2522,753 2685,231 2957,454 3393,8 "/>
  <polyline class="fil16 str2" points="780,1235 1111,1123 1472,900 1817,494 2304,763 2658,544 2957,317 3332,20 "/>
  <rect class="fil17" y="822" width="71" height="476"/>
  <rect class="fil18" x="142" y="1003" width="71" height="295"/>
  <rect class="fil19" x="285" y="782" width="71" height="515"/>
  <rect class="fil20" x="427" y="937" width="71" height="361"/>
  <rect class="fil21" x="569" y="1027" width="71" height="271"/>
  <polyline class="fil16 str3" points="780,1235 1089,872 1445,801 1872,374 2370,374 2726,374 2897,231 3332,20 "/>
 </g>
</svg>
