<svg width="293" height="139" viewBox="0 0 293 139" fill="none" xmlns="http://www.w3.org/2000/svg">
<path fill-rule="evenodd" clip-rule="evenodd" d="M261.042 0.747856C269.507 0.7453 276.251 7.34681 276.249 15.6324C276.246 23.4544 269.323 29.9984 261.048 30C252.618 30.0016 245.839 23.4407 245.839 15.2813C245.839 7.33211 252.724 0.750412 261.042 0.747856ZM254.653 8.46826C254.791 8.91076 254.404 9.06508 253.992 9.09543C253.559 9.12802 253.125 9.15901 252.622 9.19576L257.593 23.4116C257.713 23.224 257.762 23.1713 257.784 23.1097C258.703 20.4722 259.628 17.8363 260.524 15.1912C260.606 14.95 260.565 14.6305 260.475 14.3825C260.001 13.0691 259.433 11.784 259.018 10.4546C258.733 9.54433 258.356 8.95549 257.235 9.06093C257.044 9.07882 256.812 8.68456 256.598 8.48071C256.856 8.33279 257.113 8.06025 257.374 8.05642C259.656 8.02286 261.939 8.0235 264.221 8.05834C264.483 8.06249 264.74 8.34237 264.999 8.49413C264.772 8.69286 264.577 8.99064 264.312 9.06732C263.887 9.19033 263.416 9.167 262.908 9.21045L267.885 23.4231C268.639 21.0192 269.341 18.8114 270.023 16.5986C270.631 14.6228 270.269 12.778 269.168 11.038C268.837 10.5147 268.431 10.007 268.244 9.43634C268.03 8.78712 267.853 8.04811 267.967 7.39729C268.158 6.29374 269.04 5.74579 270.234 5.641C263.701 -0.177735 253.437 1.90509 249.655 8.22767C251.111 8.16281 252.501 8.07815 253.892 8.06025C254.155 8.05706 254.591 8.27017 254.653 8.46826ZM257.255 27.7207C257.225 27.806 257.223 27.9006 257.2 28.0424C260.015 28.7913 262.775 28.7373 265.601 27.8236L261.284 16.4749C259.903 20.3294 258.578 24.0247 257.255 27.7207ZM255.08 27.2076L248.577 10.0836C245.643 15.5845 247.875 23.9774 255.08 27.2076ZM274.741 16.2043C274.947 13.6033 274.012 10.0019 273.205 9.50663C273.115 10.4632 273.177 11.5281 272.892 12.4978C272.218 14.7829 271.395 17.0286 270.602 19.2805C269.741 21.7278 268.845 24.1643 267.964 26.6056C272.103 24.25 274.378 20.7735 274.741 16.2043Z" fill="#323233"/>
<path d="M234.707 42L232.321 33.2727H233.395L235.219 40.3807H235.304L237.162 33.2727H238.355L240.213 40.3807H240.298L242.122 33.2727H243.196L240.81 42H239.719L237.793 35.0455H237.724L235.798 42H234.707Z" fill="#323233"/>
<path d="M246.426 42.1364C245.835 42.1364 245.317 41.9957 244.871 41.7145C244.428 41.4332 244.081 41.0398 243.831 40.5341C243.584 40.0284 243.46 39.4375 243.46 38.7614C243.46 38.0795 243.584 37.4844 243.831 36.9759C244.081 36.4673 244.428 36.0724 244.871 35.7912C245.317 35.5099 245.835 35.3693 246.426 35.3693C247.017 35.3693 247.534 35.5099 247.977 35.7912C248.423 36.0724 248.77 36.4673 249.017 36.9759C249.267 37.4844 249.392 38.0795 249.392 38.7614C249.392 39.4375 249.267 40.0284 249.017 40.5341C248.77 41.0398 248.423 41.4332 247.977 41.7145C247.534 41.9957 247.017 42.1364 246.426 42.1364ZM246.426 41.233C246.875 41.233 247.244 41.1179 247.534 40.8878C247.824 40.6577 248.038 40.3551 248.178 39.9801C248.317 39.6051 248.386 39.1989 248.386 38.7614C248.386 38.3239 248.317 37.9162 248.178 37.5384C248.038 37.1605 247.824 36.8551 247.534 36.6222C247.244 36.3892 246.875 36.2727 246.426 36.2727C245.977 36.2727 245.608 36.3892 245.318 36.6222C245.028 36.8551 244.814 37.1605 244.675 37.5384C244.536 37.9162 244.466 38.3239 244.466 38.7614C244.466 39.1989 244.536 39.6051 244.675 39.9801C244.814 40.3551 245.028 40.6577 245.318 40.8878C245.608 41.1179 245.977 41.233 246.426 41.233Z" fill="#323233"/>
<path d="M250.927 42V35.4545H251.899V36.4432H251.967C252.086 36.1193 252.302 35.8565 252.615 35.6548C252.927 35.4531 253.279 35.3523 253.672 35.3523C253.745 35.3523 253.838 35.3537 253.949 35.3565C254.059 35.3594 254.143 35.3636 254.2 35.3693V36.392C254.166 36.3835 254.088 36.3707 253.966 36.3537C253.846 36.3338 253.72 36.3239 253.586 36.3239C253.268 36.3239 252.984 36.3906 252.734 36.5241C252.487 36.6548 252.291 36.8366 252.146 37.0696C252.004 37.2997 251.933 37.5625 251.933 37.858V42H250.927Z" fill="#323233"/>
<path d="M257.664 42.1364C257.119 42.1364 256.637 41.9986 256.22 41.723C255.802 41.4446 255.476 41.0526 255.24 40.5469C255.004 40.0384 254.886 39.4375 254.886 38.7443C254.886 38.0568 255.004 37.4602 255.24 36.9545C255.476 36.4489 255.804 36.0582 256.224 35.7827C256.645 35.5071 257.13 35.3693 257.681 35.3693C258.108 35.3693 258.444 35.4403 258.691 35.5824C258.941 35.7216 259.132 35.8807 259.262 36.0597C259.396 36.2358 259.5 36.3807 259.574 36.4943H259.659V33.2727H260.664V42H259.693V40.9943H259.574C259.5 41.1136 259.395 41.2642 259.258 41.446C259.122 41.625 258.927 41.7855 258.674 41.9276C258.422 42.0668 258.085 42.1364 257.664 42.1364ZM257.801 41.233C258.204 41.233 258.545 41.1278 258.824 40.9176C259.102 40.7045 259.314 40.4105 259.458 40.0355C259.603 39.6577 259.676 39.2216 259.676 38.7273C259.676 38.2386 259.605 37.8111 259.463 37.4446C259.321 37.0753 259.11 36.7884 258.832 36.5838C258.554 36.3764 258.21 36.2727 257.801 36.2727C257.375 36.2727 257.02 36.3821 256.735 36.6009C256.454 36.8168 256.243 37.1108 256.101 37.483C255.961 37.8523 255.892 38.267 255.892 38.7273C255.892 39.1932 255.963 39.6165 256.105 39.9972C256.25 40.375 256.463 40.6761 256.744 40.9006C257.028 41.1222 257.38 41.233 257.801 41.233Z" fill="#323233"/>
<path d="M262.782 42V33.2727H265.731C266.416 33.2727 266.976 33.3963 267.41 33.6435C267.848 33.8878 268.172 34.2188 268.382 34.6364C268.592 35.054 268.697 35.5199 268.697 36.0341C268.697 36.5483 268.592 37.0156 268.382 37.4361C268.174 37.8565 267.853 38.1918 267.419 38.4418C266.984 38.6889 266.427 38.8125 265.748 38.8125H263.635V37.875H265.714C266.183 37.875 266.559 37.794 266.843 37.6321C267.128 37.4702 267.333 37.2514 267.461 36.9759C267.592 36.6974 267.657 36.3835 267.657 36.0341C267.657 35.6847 267.592 35.3722 267.461 35.0966C267.333 34.821 267.126 34.6051 266.839 34.4489C266.552 34.2898 266.172 34.2102 265.697 34.2102H263.839V42H262.782Z" fill="#323233"/>
<path d="M270.263 42V35.4545H271.235V36.4432H271.303C271.422 36.1193 271.638 35.8565 271.951 35.6548C272.263 35.4531 272.615 35.3523 273.007 35.3523C273.081 35.3523 273.174 35.3537 273.284 35.3565C273.395 35.3594 273.479 35.3636 273.536 35.3693V36.392C273.502 36.3835 273.424 36.3707 273.302 36.3537C273.182 36.3338 273.056 36.3239 272.922 36.3239C272.604 36.3239 272.32 36.3906 272.07 36.5241C271.823 36.6548 271.627 36.8366 271.482 37.0696C271.34 37.2997 271.269 37.5625 271.269 37.858V42H270.263Z" fill="#323233"/>
<path d="M277.273 42.1364C276.642 42.1364 276.098 41.9972 275.641 41.7188C275.186 41.4375 274.836 41.0455 274.588 40.5426C274.344 40.0369 274.222 39.4489 274.222 38.7784C274.222 38.108 274.344 37.517 274.588 37.0057C274.836 36.4915 275.179 36.0909 275.62 35.804C276.063 35.5142 276.58 35.3693 277.171 35.3693C277.512 35.3693 277.848 35.4261 278.181 35.5398C278.513 35.6534 278.816 35.8381 279.088 36.0938C279.361 36.3466 279.579 36.6818 279.74 37.0994C279.902 37.517 279.983 38.0312 279.983 38.642V39.0682H274.938V38.1989H278.961C278.961 37.8295 278.887 37.5 278.739 37.2102C278.594 36.9205 278.387 36.6918 278.117 36.5241C277.85 36.3565 277.534 36.2727 277.171 36.2727C276.77 36.2727 276.424 36.3722 276.131 36.571C275.841 36.767 275.618 37.0227 275.462 37.3381C275.306 37.6534 275.228 37.9915 275.228 38.3523V38.9318C275.228 39.4261 275.313 39.8452 275.483 40.1889C275.657 40.5298 275.897 40.7898 276.204 40.9688C276.51 41.1449 276.867 41.233 277.273 41.233C277.537 41.233 277.776 41.196 277.989 41.1222C278.205 41.0455 278.391 40.9318 278.547 40.7812C278.704 40.6278 278.824 40.4375 278.909 40.2102L279.881 40.483C279.779 40.8125 279.607 41.1023 279.365 41.3523C279.124 41.5994 278.826 41.7926 278.471 41.9318C278.115 42.0682 277.716 42.1364 277.273 42.1364Z" fill="#323233"/>
<path d="M286.15 36.9205L285.246 37.1761C285.189 37.0256 285.105 36.8793 284.995 36.7372C284.887 36.5923 284.739 36.473 284.552 36.3793C284.364 36.2855 284.124 36.2386 283.831 36.2386C283.431 36.2386 283.097 36.331 282.83 36.5156C282.566 36.6974 282.434 36.929 282.434 37.2102C282.434 37.4602 282.525 37.6577 282.706 37.8026C282.888 37.9474 283.172 38.0682 283.559 38.1648L284.53 38.4034C285.115 38.5455 285.552 38.7628 285.838 39.0554C286.125 39.3452 286.269 39.7187 286.269 40.1761C286.269 40.5511 286.161 40.8864 285.945 41.1818C285.732 41.4773 285.434 41.7102 285.05 41.8807C284.667 42.0511 284.221 42.1364 283.712 42.1364C283.044 42.1364 282.492 41.9915 282.054 41.7017C281.617 41.4119 281.34 40.9886 281.223 40.4318L282.178 40.1932C282.269 40.5455 282.441 40.8097 282.694 40.9858C282.949 41.1619 283.283 41.25 283.695 41.25C284.164 41.25 284.536 41.1506 284.811 40.9517C285.09 40.75 285.229 40.5085 285.229 40.2273C285.229 40 285.15 39.8097 284.99 39.6562C284.831 39.5 284.587 39.3835 284.257 39.3068L283.167 39.0511C282.567 38.9091 282.127 38.6889 281.846 38.3906C281.567 38.0895 281.428 37.7131 281.428 37.2614C281.428 36.892 281.532 36.5653 281.739 36.2812C281.949 35.9972 282.235 35.7741 282.596 35.6122C282.959 35.4503 283.371 35.3693 283.831 35.3693C284.479 35.3693 284.988 35.5114 285.357 35.7955C285.729 36.0795 285.993 36.4545 286.15 36.9205Z" fill="#323233"/>
<path d="M292.419 36.9205L291.516 37.1761C291.459 37.0256 291.375 36.8793 291.264 36.7372C291.156 36.5923 291.009 36.473 290.821 36.3793C290.634 36.2855 290.394 36.2386 290.101 36.2386C289.7 36.2386 289.367 36.331 289.099 36.5156C288.835 36.6974 288.703 36.929 288.703 37.2102C288.703 37.4602 288.794 37.6577 288.976 37.8026C289.158 37.9474 289.442 38.0682 289.828 38.1648L290.8 38.4034C291.385 38.5455 291.821 38.7628 292.108 39.0554C292.395 39.3452 292.538 39.7187 292.538 40.1761C292.538 40.5511 292.43 40.8864 292.215 41.1818C292.001 41.4773 291.703 41.7102 291.32 41.8807C290.936 42.0511 290.49 42.1364 289.982 42.1364C289.314 42.1364 288.761 41.9915 288.324 41.7017C287.886 41.4119 287.609 40.9886 287.493 40.4318L288.447 40.1932C288.538 40.5455 288.71 40.8097 288.963 40.9858C289.219 41.1619 289.553 41.25 289.965 41.25C290.433 41.25 290.805 41.1506 291.081 40.9517C291.359 40.75 291.499 40.5085 291.499 40.2273C291.499 40 291.419 39.8097 291.26 39.6562C291.101 39.5 290.857 39.3835 290.527 39.3068L289.436 39.0511C288.837 38.9091 288.396 38.6889 288.115 38.3906C287.837 38.0895 287.697 37.7131 287.697 37.2614C287.697 36.892 287.801 36.5653 288.009 36.2812C288.219 35.9972 288.504 35.7741 288.865 35.6122C289.229 35.4503 289.641 35.3693 290.101 35.3693C290.749 35.3693 291.257 35.5114 291.626 35.7955C291.999 36.0795 292.263 36.4545 292.419 36.9205Z" fill="#323233"/>
<path d="M148.901 36H147.844C147.781 35.696 147.672 35.429 147.516 35.1989C147.362 34.9688 147.175 34.7756 146.953 34.6193C146.734 34.4602 146.492 34.3409 146.224 34.2614C145.957 34.1818 145.679 34.142 145.389 34.142C144.861 34.142 144.382 34.2756 143.953 34.5426C143.527 34.8097 143.188 35.2031 142.935 35.723C142.685 36.2429 142.56 36.8807 142.56 37.6364C142.56 38.392 142.685 39.0298 142.935 39.5497C143.188 40.0696 143.527 40.4631 143.953 40.7301C144.382 40.9972 144.861 41.1307 145.389 41.1307C145.679 41.1307 145.957 41.0909 146.224 41.0114C146.492 40.9318 146.734 40.8139 146.953 40.6577C147.175 40.4986 147.362 40.304 147.516 40.0739C147.672 39.8409 147.781 39.5739 147.844 39.2727H148.901C148.821 39.7188 148.676 40.1179 148.466 40.4702C148.256 40.8224 147.994 41.1222 147.682 41.3693C147.369 41.6136 147.018 41.7997 146.629 41.9276C146.243 42.0554 145.83 42.1193 145.389 42.1193C144.645 42.1193 143.983 41.9375 143.403 41.5739C142.824 41.2102 142.368 40.6932 142.036 40.0227C141.703 39.3523 141.537 38.5568 141.537 37.6364C141.537 36.7159 141.703 35.9205 142.036 35.25C142.368 34.5795 142.824 34.0625 143.403 33.6989C143.983 33.3352 144.645 33.1534 145.389 33.1534C145.83 33.1534 146.243 33.2173 146.629 33.3452C147.018 33.473 147.369 33.6605 147.682 33.9077C147.994 34.152 148.256 34.4503 148.466 34.8026C148.676 35.152 148.821 35.5511 148.901 36Z" fill="#323233"/>
<path d="M150.608 33.2727H151.87L154.836 40.517H154.938L157.904 33.2727H159.165V42H158.177V35.3693H158.091L155.364 42H154.409L151.682 35.3693H151.597V42H150.608V33.2727Z" fill="#323233"/>
<path d="M166.057 35.4545C166.006 35.0227 165.798 34.6875 165.435 34.4489C165.071 34.2102 164.625 34.0909 164.097 34.0909C163.71 34.0909 163.372 34.1534 163.082 34.2784C162.795 34.4034 162.571 34.5753 162.409 34.794C162.25 35.0128 162.17 35.2614 162.17 35.5398C162.17 35.7727 162.226 35.973 162.337 36.1406C162.45 36.3054 162.595 36.4432 162.771 36.554C162.947 36.6619 163.132 36.7514 163.325 36.8224C163.518 36.8906 163.696 36.946 163.858 36.9886L164.744 37.2273C164.972 37.2869 165.224 37.3693 165.503 37.4744C165.784 37.5795 166.053 37.723 166.308 37.9048C166.567 38.0838 166.78 38.3139 166.947 38.5952C167.115 38.8764 167.199 39.2216 167.199 39.6307C167.199 40.1023 167.075 40.5284 166.828 40.9091C166.584 41.2898 166.226 41.5923 165.754 41.8168C165.286 42.0412 164.716 42.1534 164.045 42.1534C163.42 42.1534 162.879 42.0526 162.422 41.8509C161.967 41.6491 161.609 41.3679 161.348 41.0071C161.09 40.6463 160.943 40.2273 160.909 39.75H162C162.028 40.0795 162.139 40.3523 162.332 40.5682C162.528 40.7812 162.776 40.9403 163.074 41.0455C163.375 41.1477 163.699 41.1989 164.045 41.1989C164.449 41.1989 164.811 41.1335 165.132 41.0028C165.453 40.8693 165.707 40.6847 165.895 40.4489C166.082 40.2102 166.176 39.9318 166.176 39.6136C166.176 39.3239 166.095 39.0881 165.933 38.9062C165.771 38.7244 165.558 38.5767 165.294 38.4631C165.03 38.3494 164.744 38.25 164.438 38.1648L163.364 37.858C162.682 37.6619 162.142 37.3821 161.744 37.0185C161.347 36.6548 161.148 36.179 161.148 35.5909C161.148 35.1023 161.28 34.6761 161.544 34.3125C161.811 33.946 162.169 33.6619 162.618 33.4602C163.07 33.2557 163.574 33.1534 164.131 33.1534C164.693 33.1534 165.193 33.2543 165.631 33.456C166.068 33.6548 166.415 33.9276 166.67 34.2741C166.929 34.6207 167.065 35.0142 167.08 35.4545H166.057Z" fill="#323233"/>
<path d="M173.181 38.0625V42H172.175V35.4545H173.147V36.4773H173.232C173.385 36.1449 173.618 35.8778 173.931 35.6761C174.243 35.4716 174.647 35.3693 175.141 35.3693C175.584 35.3693 175.972 35.4602 176.304 35.642C176.637 35.821 176.895 36.0938 177.08 36.4602C177.265 36.8239 177.357 37.2841 177.357 37.8409V42H176.351V37.9091C176.351 37.3949 176.218 36.9943 175.951 36.7074C175.684 36.4176 175.317 36.2727 174.851 36.2727C174.53 36.2727 174.243 36.3423 173.99 36.4815C173.74 36.6207 173.543 36.8239 173.398 37.0909C173.253 37.358 173.181 37.6818 173.181 38.0625Z" fill="#323233"/>
<path d="M181.121 42.1534C180.706 42.1534 180.33 42.0753 179.992 41.919C179.653 41.7599 179.385 41.5313 179.186 41.233C178.987 40.9318 178.888 40.5682 178.888 40.142C178.888 39.767 178.962 39.4631 179.109 39.2301C179.257 38.9943 179.455 38.8097 179.702 38.6761C179.949 38.5426 180.222 38.4432 180.52 38.3778C180.821 38.3097 181.124 38.2557 181.428 38.2159C181.825 38.1648 182.148 38.1264 182.395 38.1009C182.645 38.0724 182.827 38.0256 182.94 37.9602C183.057 37.8949 183.115 37.7812 183.115 37.6193V37.5852C183.115 37.1648 183 36.8381 182.77 36.6051C182.543 36.3722 182.197 36.2557 181.734 36.2557C181.254 36.2557 180.878 36.3608 180.605 36.571C180.332 36.7812 180.141 37.0057 180.03 37.2443L179.075 36.9034C179.246 36.5057 179.473 36.196 179.757 35.9744C180.044 35.75 180.357 35.5937 180.695 35.5057C181.036 35.4148 181.371 35.3693 181.7 35.3693C181.911 35.3693 182.152 35.3949 182.425 35.446C182.7 35.4943 182.966 35.5952 183.222 35.7486C183.48 35.902 183.695 36.1335 183.865 36.4432C184.036 36.7528 184.121 37.1676 184.121 37.6875V42H183.115V41.1136H183.064C182.996 41.2557 182.882 41.4077 182.723 41.5696C182.564 41.7315 182.352 41.8693 182.088 41.983C181.824 42.0966 181.501 42.1534 181.121 42.1534ZM181.274 41.25C181.672 41.25 182.007 41.1719 182.28 41.0156C182.555 40.8594 182.763 40.6577 182.902 40.4105C183.044 40.1634 183.115 39.9034 183.115 39.6307V38.7102C183.072 38.7614 182.979 38.8082 182.834 38.8509C182.692 38.8906 182.527 38.9261 182.34 38.9574C182.155 38.9858 181.974 39.0114 181.798 39.0341C181.625 39.054 181.484 39.071 181.376 39.0852C181.115 39.1193 180.871 39.1747 180.643 39.2514C180.419 39.3253 180.237 39.4375 180.098 39.5881C179.962 39.7358 179.893 39.9375 179.893 40.1932C179.893 40.5426 180.023 40.8068 180.281 40.9858C180.543 41.1619 180.874 41.25 181.274 41.25Z" fill="#323233"/>
<path d="M189.331 42V35.4545H190.303V36.4773H190.388C190.525 36.1278 190.745 35.8565 191.049 35.6634C191.353 35.4673 191.718 35.3693 192.144 35.3693C192.576 35.3693 192.935 35.4673 193.222 35.6634C193.512 35.8565 193.738 36.1278 193.9 36.4773H193.968C194.135 36.1392 194.387 35.8707 194.722 35.6719C195.057 35.4702 195.459 35.3693 195.928 35.3693C196.513 35.3693 196.992 35.5526 197.364 35.919C197.736 36.2827 197.922 36.8494 197.922 37.6193V42H196.917V37.6193C196.917 37.1364 196.784 36.7912 196.52 36.5838C196.256 36.3764 195.945 36.2727 195.587 36.2727C195.127 36.2727 194.77 36.4119 194.517 36.6903C194.265 36.9659 194.138 37.3153 194.138 37.7386V42H193.115V37.517C193.115 37.1449 192.995 36.8452 192.753 36.6179C192.512 36.3878 192.201 36.2727 191.82 36.2727C191.559 36.2727 191.314 36.3423 191.087 36.4815C190.863 36.6207 190.681 36.8139 190.542 37.0611C190.405 37.3054 190.337 37.5881 190.337 37.9091V42H189.331Z" fill="#323233"/>
<path d="M199.761 42V35.4545H200.767V42H199.761ZM199.812 34.5682L200.852 32.5909H202.028L200.699 34.5682H199.812Z" fill="#323233"/>
<path d="M202.609 42V35.4545H203.58V36.4432H203.648C203.768 36.1193 203.984 35.8565 204.296 35.6548C204.609 35.4531 204.961 35.3523 205.353 35.3523C205.427 35.3523 205.519 35.3537 205.63 35.3565C205.741 35.3594 205.825 35.3636 205.881 35.3693V36.392C205.847 36.3835 205.769 36.3707 205.647 36.3537C205.528 36.3338 205.401 36.3239 205.268 36.3239C204.95 36.3239 204.666 36.3906 204.416 36.5241C204.168 36.6548 203.972 36.8366 203.827 37.0696C203.685 37.2997 203.614 37.5625 203.614 37.858V42H202.609Z" fill="#323233"/>
<path d="M211.199 39.3239V35.4545H212.204V42H211.199V40.892H211.13C210.977 41.2244 210.738 41.5071 210.414 41.7401C210.091 41.9702 209.681 42.0852 209.187 42.0852C208.778 42.0852 208.414 41.9957 208.096 41.8168C207.778 41.6349 207.528 41.3622 207.346 40.9986C207.164 40.6321 207.074 40.1705 207.074 39.6136V35.4545H208.079V39.5455C208.079 40.0227 208.213 40.4034 208.48 40.6875C208.75 40.9716 209.093 41.1136 209.511 41.1136C209.761 41.1136 210.015 41.0497 210.274 40.9219C210.535 40.794 210.754 40.598 210.93 40.3338C211.109 40.0696 211.199 39.733 211.199 39.3239Z" fill="#323233"/>
<path d="M61.4911 130C61.44 129.568 61.2326 129.233 60.869 128.994C60.5054 128.756 60.0593 128.636 59.5309 128.636C59.1446 128.636 58.8065 128.699 58.5167 128.824C58.2298 128.949 58.0054 129.121 57.8434 129.339C57.6843 129.558 57.6048 129.807 57.6048 130.085C57.6048 130.318 57.6602 130.518 57.771 130.686C57.8846 130.851 58.0295 130.989 58.2056 131.099C58.3818 131.207 58.5664 131.297 58.7596 131.368C58.9528 131.436 59.1304 131.491 59.2923 131.534L60.1786 131.773C60.4059 131.832 60.6588 131.915 60.9372 132.02C61.2184 132.125 61.4869 132.268 61.7426 132.45C62.0011 132.629 62.2142 132.859 62.3818 133.141C62.5494 133.422 62.6332 133.767 62.6332 134.176C62.6332 134.648 62.5096 135.074 62.2625 135.455C62.0181 135.835 61.6602 136.138 61.1886 136.362C60.7198 136.587 60.1502 136.699 59.4798 136.699C58.8548 136.699 58.3136 136.598 57.8562 136.396C57.4017 136.195 57.0437 135.913 56.7823 135.553C56.5238 135.192 56.3775 134.773 56.3434 134.295H57.4343C57.4627 134.625 57.5735 134.898 57.7667 135.114C57.9627 135.327 58.2099 135.486 58.5082 135.591C58.8093 135.693 59.1332 135.744 59.4798 135.744C59.8832 135.744 60.2454 135.679 60.5664 135.548C60.8875 135.415 61.1417 135.23 61.3292 134.994C61.5167 134.756 61.6105 134.477 61.6105 134.159C61.6105 133.869 61.5295 133.634 61.3676 133.452C61.2056 133.27 60.9926 133.122 60.7284 133.009C60.4642 132.895 60.1787 132.795 59.8718 132.71L58.798 132.403C58.1161 132.207 57.5764 131.928 57.1786 131.564C56.7809 131.2 56.5821 130.724 56.5821 130.136C56.5821 129.648 56.7142 129.222 56.9784 128.858C57.2454 128.491 57.6034 128.207 58.0522 128.006C58.5039 127.801 59.0082 127.699 59.565 127.699C60.1275 127.699 60.6275 127.8 61.065 128.001C61.5025 128.2 61.8491 128.473 62.1048 128.82C62.3633 129.166 62.4997 129.56 62.5139 130H61.4911Z" fill="#323233"/>
<path d="M65.2401 132.608V136.545H64.2344V127.818H65.2401V131.023H65.3253C65.4787 130.685 65.7088 130.416 66.0157 130.217C66.3253 130.016 66.7372 129.915 67.2514 129.915C67.6975 129.915 68.0881 130.004 68.4233 130.183C68.7586 130.359 69.0185 130.631 69.2032 130.997C69.3907 131.361 69.4844 131.824 69.4844 132.386V136.545H68.4787V132.455C68.4787 131.935 68.3438 131.533 68.0739 131.249C67.8068 130.962 67.4361 130.818 66.9617 130.818C66.6321 130.818 66.3367 130.888 66.0753 131.027C65.8168 131.166 65.6122 131.369 65.4617 131.636C65.314 131.903 65.2401 132.227 65.2401 132.608Z" fill="#323233"/>
<path d="M73.9833 136.682C73.3924 136.682 72.874 136.541 72.4279 136.26C71.9848 135.979 71.6382 135.585 71.3882 135.08C71.141 134.574 71.0174 133.983 71.0174 133.307C71.0174 132.625 71.141 132.03 71.3882 131.521C71.6382 131.013 71.9848 130.618 72.4279 130.337C72.874 130.055 73.3924 129.915 73.9833 129.915C74.5742 129.915 75.0913 130.055 75.5345 130.337C75.9805 130.618 76.3271 131.013 76.5742 131.521C76.8242 132.03 76.9492 132.625 76.9492 133.307C76.9492 133.983 76.8242 134.574 76.5742 135.08C76.3271 135.585 75.9805 135.979 75.5345 136.26C75.0913 136.541 74.5742 136.682 73.9833 136.682ZM73.9833 135.778C74.4322 135.778 74.8015 135.663 75.0913 135.433C75.3811 135.203 75.5956 134.901 75.7348 134.526C75.874 134.151 75.9436 133.744 75.9436 133.307C75.9436 132.869 75.874 132.462 75.7348 132.084C75.5956 131.706 75.3811 131.401 75.0913 131.168C74.8015 130.935 74.4322 130.818 73.9833 130.818C73.5345 130.818 73.1652 130.935 72.8754 131.168C72.5856 131.401 72.3711 131.706 72.2319 132.084C72.0927 132.462 72.0231 132.869 72.0231 133.307C72.0231 133.744 72.0927 134.151 72.2319 134.526C72.3711 134.901 72.5856 135.203 72.8754 135.433C73.1652 135.663 73.5345 135.778 73.9833 135.778Z" fill="#323233"/>
<path d="M78.4844 139V130H79.456V131.04H79.5753C79.6492 130.926 79.7515 130.781 79.8821 130.605C80.0157 130.426 80.206 130.267 80.4532 130.128C80.7032 129.986 81.0412 129.915 81.4674 129.915C82.0185 129.915 82.5043 130.053 82.9247 130.328C83.3452 130.604 83.6733 130.994 83.9091 131.5C84.1449 132.006 84.2628 132.602 84.2628 133.29C84.2628 133.983 84.1449 134.584 83.9091 135.092C83.6733 135.598 83.3466 135.99 82.929 136.268C82.5114 136.544 82.0299 136.682 81.4844 136.682C81.064 136.682 80.7273 136.612 80.4745 136.473C80.2216 136.331 80.027 136.17 79.8907 135.991C79.7543 135.81 79.6492 135.659 79.5753 135.54H79.4901V139H78.4844ZM79.473 133.273C79.473 133.767 79.5455 134.203 79.6904 134.581C79.8353 134.956 80.0469 135.25 80.3253 135.463C80.6037 135.673 80.9446 135.778 81.348 135.778C81.7685 135.778 82.1193 135.668 82.4006 135.446C82.6847 135.222 82.8978 134.92 83.0398 134.543C83.1847 134.162 83.2571 133.739 83.2571 133.273C83.2571 132.813 83.1861 132.398 83.0441 132.028C82.9049 131.656 82.6932 131.362 82.4091 131.146C82.1279 130.928 81.7742 130.818 81.348 130.818C80.9389 130.818 80.5952 130.922 80.3168 131.129C80.0384 131.334 79.8282 131.621 79.6861 131.99C79.5441 132.357 79.473 132.784 79.473 133.273Z" fill="#323233"/>
<path d="M85.7969 136.545V130H86.8026V136.545H85.7969ZM86.3083 128.909C86.1122 128.909 85.9432 128.842 85.8012 128.709C85.662 128.575 85.5924 128.415 85.5924 128.227C85.5924 128.04 85.662 127.879 85.8012 127.746C85.9432 127.612 86.1122 127.545 86.3083 127.545C86.5043 127.545 86.6719 127.612 86.8111 127.746C86.9532 127.879 87.0242 128.04 87.0242 128.227C87.0242 128.415 86.9532 128.575 86.8111 128.709C86.6719 128.842 86.5043 128.909 86.3083 128.909Z" fill="#323233"/>
<path d="M91.5593 130V130.852H88.0309V130H91.5593ZM89.0877 136.545V129.097C89.0877 128.722 89.1758 128.409 89.3519 128.159C89.5281 127.909 89.7568 127.722 90.038 127.597C90.3193 127.472 90.6161 127.409 90.9286 127.409C91.1758 127.409 91.3775 127.429 91.5338 127.469C91.69 127.509 91.8065 127.545 91.8832 127.58L91.5934 128.449C91.5423 128.432 91.4713 128.411 91.3804 128.385C91.2923 128.359 91.1758 128.347 91.0309 128.347C90.6985 128.347 90.4585 128.43 90.3108 128.598C90.1659 128.766 90.0934 129.011 90.0934 129.335V136.545H89.0877Z" fill="#323233"/>
<path d="M93.6165 139C93.4461 139 93.2941 138.986 93.1605 138.957C93.027 138.932 92.9347 138.906 92.8836 138.881L93.1392 137.994C93.3836 138.057 93.5995 138.08 93.787 138.062C93.9745 138.045 94.1407 137.962 94.2855 137.811C94.4333 137.663 94.5682 137.423 94.6904 137.091L94.8779 136.58L92.4574 130H93.5483L95.3551 135.216H95.4233L97.2301 130H98.321L95.5426 137.5C95.4176 137.838 95.2628 138.118 95.0782 138.339C94.8935 138.564 94.679 138.73 94.4347 138.838C94.1932 138.946 93.9205 139 93.6165 139Z" fill="#323233"/>
<path d="M119.434 16.4024C119.941 16.9114 120.54 17.1659 121.231 17.1659C121.943 17.1659 122.553 16.9114 123.06 16.4024C123.567 15.8934 123.821 15.2924 123.821 14.5993C123.821 13.9062 123.567 13.2996 123.06 12.7797C122.553 12.2597 121.943 11.9998 121.231 12C120.54 12 119.941 12.2599 119.434 12.7797C118.926 13.2996 118.673 13.9062 118.673 14.5993C118.673 15.2924 118.926 15.8934 119.434 16.4024ZM64.8077 23.0481C64.8077 23.1013 64.7647 23.1446 64.7115 23.1446H61.1487V29.9025C61.1487 30.4657 61.2891 30.8772 61.5698 31.1371C61.8503 31.3972 62.2605 31.5434 62.8002 31.5758C63.2678 31.6039 63.8328 31.6035 64.4953 31.5748L64.6576 31.5674L64.7064 31.5649C64.7195 31.5643 64.7325 31.5663 64.7448 31.5708C64.7571 31.5754 64.7683 31.5823 64.7778 31.5913C64.7873 31.6003 64.7949 31.6112 64.8 31.6232C64.8052 31.6352 64.8079 31.6481 64.808 31.6612V35.2745C64.8078 35.2982 64.799 35.3209 64.7832 35.3386C64.7674 35.3562 64.7456 35.3673 64.7221 35.37L64.6568 35.3773C61.8659 35.6757 59.8925 35.3994 58.7366 34.5485C57.5599 33.6821 56.9715 32.1333 56.9717 29.9023V23.1446H54.251C54.2255 23.1445 54.2011 23.1343 54.183 23.1162C54.165 23.0981 54.1548 23.0737 54.1548 23.0481V19.2121C54.1548 19.1589 54.1978 19.1158 54.251 19.1158H56.9717V16.4324C56.9718 16.3951 56.9827 16.3586 57.0031 16.3273C57.0235 16.296 57.0525 16.2713 57.0866 16.2561L61.0135 14.5221C61.0282 14.5156 61.0443 14.5128 61.0603 14.5141C61.0763 14.5154 61.0917 14.5206 61.1052 14.5293C61.1186 14.5381 61.1297 14.5501 61.1373 14.5642C61.145 14.5783 61.149 14.5941 61.149 14.6102V19.1156H64.7112C64.7644 19.1156 64.808 19.1591 64.808 19.2123L64.8077 23.0481ZM72.3821 21.9098C72.7706 20.8699 73.4128 20.0901 74.3086 19.5705C75.1286 19.0949 76.0343 18.8368 77.0259 18.7964L77.0931 18.794L77.2065 18.792C77.2193 18.7918 77.2319 18.7942 77.2437 18.7989C77.2555 18.8036 77.2663 18.8107 77.2754 18.8196C77.2844 18.8286 77.2916 18.8392 77.2965 18.851C77.3015 18.8627 77.304 18.8753 77.304 18.888V23.2967C77.304 23.3886 77.2239 23.4595 77.1323 23.4513C75.9279 23.3418 74.8464 23.6077 73.8878 24.2491C72.884 24.9206 72.3821 26.036 72.3821 27.5954V35.2641C72.3821 35.2897 72.3719 35.3143 72.3539 35.3324C72.3358 35.3505 72.3112 35.3608 72.2856 35.3608H68.3013C68.2758 35.3607 68.2513 35.3504 68.2332 35.3323C68.2152 35.3142 68.2051 35.2897 68.2051 35.2641V19.2121C68.2051 19.1589 68.2481 19.1158 68.3013 19.1158H72.2856C72.3388 19.1158 72.3821 19.1589 72.3821 19.2121V21.9098ZM86.7586 18.6605C89.0251 18.6605 90.7844 19.451 92.0365 21.0322V19.2116C92.0365 19.1584 92.0798 19.1154 92.133 19.1154H96.1173C96.1705 19.1154 96.2135 19.1584 96.2135 19.2116V35.2641C96.2135 35.3173 96.1705 35.3603 96.1173 35.3603H92.133C92.1075 35.3603 92.083 35.3501 92.0649 35.3321C92.0469 35.3141 92.0366 35.2896 92.0365 35.2641V33.4435C90.7844 35.0247 89.0251 35.8152 86.7586 35.8152C84.5998 35.8152 82.7487 34.9868 81.2053 33.3299C79.6619 31.6728 78.8902 29.6422 78.8902 27.238C78.8902 24.8338 79.6619 22.8031 81.2053 21.1461C82.7487 19.489 84.5998 18.6605 86.7586 18.6605ZM87.5354 22.6568C86.2401 22.6568 85.1715 23.0846 84.3296 23.9403C83.4877 24.7959 83.0667 25.8951 83.0667 27.238C83.0667 28.5808 83.4877 29.6854 84.3296 30.5519C85.1717 31.3967 86.2403 31.8191 87.5354 31.8191C88.8306 31.8191 89.9045 31.3914 90.7572 30.5359C91.6099 29.6805 92.0363 28.5811 92.0363 27.238C92.0363 25.8948 91.6098 24.7956 90.757 23.9403C89.9046 23.0846 88.8307 22.6568 87.5354 22.6568ZM108.77 18.6605C110.951 18.6605 112.812 19.4889 114.356 21.1458C115.899 22.8029 116.671 24.8335 116.671 27.2377C116.671 29.6419 115.899 31.6726 114.356 33.3296C112.812 34.9867 110.951 35.8152 108.77 35.8152C106.504 35.8152 104.755 35.0247 103.525 33.4435V41.762C103.525 41.7876 103.515 41.8121 103.496 41.8302C103.478 41.8483 103.454 41.8585 103.428 41.8585H99.444C99.4184 41.8585 99.3939 41.8483 99.3759 41.8302C99.3578 41.8121 99.3476 41.7876 99.3475 41.762V19.2116C99.3475 19.1584 99.3908 19.1154 99.444 19.1154H103.428C103.482 19.1154 103.525 19.1584 103.525 19.2116V21.0322C104.755 19.451 106.504 18.6605 108.77 18.6605ZM107.993 22.6568C106.698 22.6568 105.629 23.0846 104.787 23.9403C103.945 24.7959 103.524 25.8951 103.524 27.238C103.524 28.5808 103.945 29.6854 104.787 30.5519C105.629 31.3967 106.698 31.8191 107.993 31.8191C109.288 31.8191 110.362 31.3914 111.215 30.5359C112.067 29.6805 112.494 28.5811 112.494 27.238C112.494 25.8948 112.067 24.7956 111.215 23.9403C110.362 23.0846 109.288 22.6568 107.993 22.6568ZM119.255 35.3606C119.23 35.3605 119.205 35.3504 119.187 35.3323C119.169 35.3143 119.159 35.2899 119.159 35.2643V19.2121C119.159 19.1865 119.169 19.162 119.187 19.1439C119.205 19.1258 119.23 19.1157 119.255 19.1156H123.239C123.265 19.1157 123.289 19.1258 123.308 19.1439C123.326 19.162 123.336 19.1865 123.336 19.2121V35.2643C123.336 35.2899 123.326 35.3144 123.308 35.3325C123.289 35.3506 123.265 35.3608 123.239 35.3608L119.255 35.3606ZM44.6941 24.785C44.122 24.5141 43.836 24.1621 43.836 23.7289C43.836 23.3173 44.0141 22.9924 44.3703 22.7543C44.7264 22.5162 45.1743 22.397 45.7139 22.3969C46.749 22.3969 47.5308 22.8015 48.0592 23.6109C48.096 23.6675 48.1681 23.6904 48.2295 23.6631L51.7538 22.0984C51.7662 22.093 51.7772 22.0849 51.7862 22.0749C51.7953 22.0649 51.8021 22.053 51.8062 22.0402C51.8104 22.0273 51.8117 22.0137 51.8102 22.0003C51.8087 21.9869 51.8044 21.9739 51.7976 21.9623L51.7245 21.8397C51.7059 21.8092 51.6883 21.7802 51.6738 21.7574C51.0694 20.8046 50.288 20.0946 49.3083 19.5538C48.2289 18.9582 47.0308 18.6605 45.7139 18.6605C43.9654 18.6605 42.5029 19.1208 41.3265 20.0414C40.15 20.9618 39.5618 22.2235 39.5618 23.8264C39.5618 24.8877 39.8478 25.7704 40.4198 26.4745C40.992 27.1782 41.6882 27.6925 42.5083 28.0174C43.2511 28.3123 44.0095 28.5665 44.7799 28.779L44.9693 28.8297C45.7896 29.0464 46.4858 29.2901 47.0578 29.5608C47.6298 29.8315 47.9158 30.1835 47.9158 30.6167C47.9158 31.5482 47.1711 32.014 45.6817 32.014C44.2639 32.014 43.2813 31.4883 42.734 30.4368C42.712 30.3929 42.6742 30.3591 42.6281 30.3423C42.5821 30.3255 42.5314 30.3269 42.4863 30.3463L38.9722 31.9086C38.9604 31.9138 38.9498 31.9213 38.941 31.9307C38.9321 31.9401 38.9253 31.9512 38.9209 31.9633C38.9164 31.9754 38.9144 31.9883 38.9151 32.0011C38.9157 32.014 38.9189 32.0266 38.9245 32.0382L38.9647 32.1204C40.1927 34.5836 42.4318 35.8152 45.6817 35.8152C47.5381 35.8152 49.0869 35.3657 50.3282 34.4667C51.5696 33.5681 52.1903 32.2847 52.1903 30.6167C52.1903 29.5123 51.9041 28.5917 51.3318 27.8549C50.7599 27.1187 50.0638 26.5935 49.2435 26.2793C48.5004 25.9937 47.7421 25.7496 46.9719 25.548L46.7826 25.4996C45.9623 25.2939 45.2661 25.0559 44.6941 24.785Z" fill="#212067"/>
<path d="M0 22.4C0 17.4975 0 15.0462 1.5231 13.5231C3.04619 12 5.49746 12 10.4 12H19.6C24.5025 12 26.9538 12 28.4769 13.5231C30 15.0462 30 17.4975 30 22.4V31.6C30 36.5025 30 38.9538 28.4769 40.4769C26.9538 42 24.5025 42 19.6 42H10.4C5.49746 42 3.04619 42 1.5231 40.4769C0 38.9538 0 36.5025 0 31.6V22.4Z" fill="#4945FF"/>
<path d="M20.6999 21.0999H10.6V26.2501H15.7499V31.4H20.8999V21.2999C20.8999 21.2468 20.8788 21.196 20.8413 21.1585C20.8038 21.121 20.7529 21.0999 20.6999 21.0999Z" fill="white"/>
<path d="M15.5499 26.2501H15.7918V26.4919H15.5499V26.2501Z" fill="white"/>
<path d="M10.6 26.2501L15.5499 26.2501C15.6605 26.2501 15.7502 26.3395 15.7502 26.4498L15.7499 31.4L10.8 31.4002C10.747 31.4002 10.6961 31.3792 10.6586 31.3417C10.6211 31.3042 10.6 31.2533 10.6 31.2002L10.6 26.2501Z" fill="#9593FF"/>
<path d="M15.7499 31.4H20.8999L15.9204 36.3792C15.9065 36.3932 15.8887 36.4027 15.8693 36.4065C15.8499 36.4104 15.8298 36.4084 15.8116 36.4009C15.7934 36.3933 15.7778 36.3805 15.7668 36.3641C15.7558 36.3476 15.7499 36.3283 15.7499 36.3086L15.7499 31.4ZM10.6 26.2501H5.69166C5.67189 26.25 5.65257 26.2442 5.63613 26.2332C5.61969 26.2222 5.60688 26.2066 5.5993 26.1883C5.59172 26.1701 5.58972 26.15 5.59355 26.1306C5.59737 26.1112 5.60686 26.0933 5.6208 26.0793L10.6 21.0999V26.2501Z" fill="#9593FF"/>
<path d="M88.3104 89.2935C88.2828 89.0935 88.1076 88.9829 87.9628 88.9707C86.8952 88.8904 85.8275 88.8108 84.7597 88.7319C84.7597 88.7319 82.6354 86.623 82.4023 86.3896C82.169 86.1563 81.7134 86.2272 81.5365 86.2793C81.5105 86.287 81.0724 86.4222 80.3478 86.6464C79.6382 84.6045 78.3859 82.7281 76.1827 82.7281C76.1219 82.7281 76.0593 82.7305 75.9967 82.7341C75.3701 81.9055 74.5939 81.5455 73.9235 81.5455C68.7913 81.5455 66.3394 87.9612 65.5706 91.2215C63.5764 91.8394 62.1597 92.2787 61.9787 92.3356C60.8656 92.6848 60.8304 92.7198 60.6842 93.7687C60.5742 94.5629 57.6616 117.087 57.6616 117.087L80.3572 121.34L92.6545 118.679C92.6545 118.679 88.3375 89.4935 88.3104 89.2935ZM79.0934 87.0344L77.173 87.6287C77.1737 87.4934 77.1743 87.3603 77.1743 87.2146C77.1743 85.9456 76.9982 84.9238 76.7156 84.1138C77.8508 84.2563 78.6068 85.5479 79.0934 87.0344ZM75.3074 84.3655C75.623 85.1563 75.8282 86.2912 75.8282 87.8227C75.8282 87.9011 75.8275 87.9727 75.8268 88.0452C74.5779 88.432 73.2208 88.852 71.8606 89.2734C72.6243 86.326 74.0559 84.9024 75.3074 84.3655ZM73.7826 82.922C74.0041 82.922 74.2272 82.9972 74.4408 83.1442C72.796 83.9182 71.033 85.8675 70.2885 89.7603L67.1534 90.7312C68.0254 87.762 70.0963 82.922 73.7826 82.922Z" fill="#95BF46"/>
<path d="M87.9628 88.9707C86.8952 88.8904 85.8275 88.8108 84.7597 88.7319C84.7597 88.7319 82.6354 86.623 82.4023 86.3896C82.315 86.3027 82.1974 86.2582 82.0743 86.239L80.3583 121.339L92.6545 118.679C92.6545 118.679 88.3375 89.4935 88.3104 89.2935C88.2828 89.0935 88.1076 88.9829 87.9628 88.9707Z" fill="#5E8E3E"/>
<path d="M76.1827 95.7654L74.6664 100.276C74.6664 100.276 73.3379 99.5668 71.7094 99.5668C69.322 99.5668 69.2019 101.065 69.2019 101.443C69.2019 103.503 74.5718 104.292 74.5718 109.117C74.5718 112.913 72.164 115.358 68.9174 115.358C65.0215 115.358 63.0292 112.933 63.0292 112.933L64.0723 109.487C64.0723 109.487 66.1203 111.245 67.8483 111.245C68.9775 111.245 69.4368 110.356 69.4368 109.706C69.4368 107.019 65.0313 106.899 65.0313 102.484C65.0313 98.7675 67.6987 95.1712 73.0831 95.1712C75.1578 95.1712 76.1827 95.7654 76.1827 95.7654Z" fill="white"/>
<path fill-rule="evenodd" clip-rule="evenodd" d="M156.113 4H199.863C203.509 4 207.154 7.64583 207.154 11.2917V22.2292C207.154 25.875 203.509 29.5208 199.863 29.5208H156.113C152.467 29.5208 148.821 25.875 148.821 22.2292V11.2917C148.821 7.64583 152.467 4 156.113 4ZM169.785 23.1406L157.936 17.6719V14.9375L169.785 10.3802V14.026L161.581 16.7604L169.785 20.4063V24.0521V23.1406ZM177.076 24.9635L181.634 7.64583H184.368L179.811 24.9635H177.076ZM184.368 23.1406V19.4948L192.571 16.7604L184.368 14.026V10.3802L196.217 14.9375V17.6719L184.368 23.1406Z" fill="#48854C"/>
<path d="M186.871 134.796H185.721C184.271 134.796 183.121 133.74 183.121 132.408C183.121 131.031 184.321 129.929 185.821 129.929H186.871V128H185.471C182.921 128 180.821 129.929 180.821 132.27C180.821 134.888 183.121 137 185.971 137H186.871V134.796ZM238.771 134.796H237.621C236.171 134.796 235.021 133.74 235.021 132.408C235.021 131.031 236.221 129.929 237.721 129.929H238.771V128H237.321C234.771 128 232.671 129.929 232.671 132.27C232.671 134.888 234.971 137 237.821 137H238.721V134.796H238.771ZM191.871 128C189.621 128 187.821 130.02 187.821 132.5C187.821 134.98 189.621 137 191.871 137C194.121 137 195.921 134.98 195.921 132.5C195.921 130.02 194.121 128 191.871 128ZM191.871 135.301C190.871 135.301 190.121 134.061 190.121 132.546C190.121 131.031 190.921 129.791 191.871 129.791C192.871 129.791 193.621 131.031 193.621 132.546C193.621 134.061 192.821 135.301 191.871 135.301ZM195.921 137L197.471 128H200.721L201.671 132.5L202.921 128H205.921L207.371 137H204.871L204.071 130.893L202.721 137H201.021L199.171 130.985L198.321 137H195.921ZM207.921 137L209.471 128H212.721L213.621 132.5L214.871 128H217.921L219.371 137H216.871L216.021 130.893L214.671 137H213.021L211.121 130.985L210.321 137H207.921ZM219.771 137V128H224.871V129.745H222.321V131.673H224.571V133.327H222.021V135.071H224.871V137H219.771ZM239.721 137V128H244.821V129.745H242.271V131.673H244.521V133.327H241.971V135.071H244.821V137H239.721Z" fill="#323233"/>
<path d="M231.318 132.821C232.188 132.821 232.95 132.224 232.95 131.444V130.617C232.95 129.148 231.535 128 229.848 128H225.821V137H228.324V132.776L231.046 137H233.821L231.318 132.821ZM229.195 132.041H228.27V129.837H229.304C230.012 129.837 230.556 130.296 230.556 130.893C230.501 131.536 229.903 132.041 229.195 132.041Z" fill="#323233"/>
<path d="M233.033 120H193.609C190.443 120 187.821 117.543 187.821 114.472V101.528C187.821 98.5039 190.393 96 193.609 96H233.033C236.199 96 238.821 98.4567 238.821 101.528V114.472C238.821 117.543 236.199 120 233.033 120Z" fill="#7F54B3"/>
<path d="M192.905 115.315C192.905 115.315 194.049 119.978 196.337 116.853C198.625 113.728 200.814 108.817 200.814 108.817C200.814 108.817 200.963 107.577 201.609 110.305C202.256 113.033 205.042 116.654 205.042 116.654C205.042 116.654 207.578 119.779 208.623 116.505C208.225 112.14 209.767 104.204 211.309 100.384C211.955 97.0112 208.374 97.9537 208.076 98.797C207.777 99.6402 205.489 104.601 205.34 109.908C205.34 109.908 203.45 104.849 203.301 102.964C203.151 101.128 201.212 100.632 200.068 102.418C198.923 104.204 195.491 111.099 195.491 111.099L193.303 99.8386C193.303 99.8386 191.114 96.9616 189.821 100.483C189.821 100.483 192.109 114.323 192.905 115.315ZM222.202 102.964C218.77 97.3089 213.746 101.575 213.746 101.575C213.746 101.575 209.916 105.989 211.657 111.991C214.442 117.944 218.272 115.265 219.317 114.819C220.361 114.323 224.938 109.164 222.202 102.964ZM219.615 107.924C219.615 110.305 217.676 112.487 216.034 111.991C215.139 111.495 214.592 110.057 214.592 107.726C215.387 103.857 217.178 103.36 218.073 103.46C219.765 104.353 219.665 106.386 219.615 107.924ZM234.935 102.964C231.503 97.3089 226.48 101.575 226.48 101.575C226.48 101.575 222.65 105.989 224.39 111.991C227.176 117.944 231.006 115.265 232.05 114.819C233.145 114.323 237.721 109.164 234.935 102.964ZM232.349 107.924C232.349 110.305 230.409 112.487 228.768 111.991C227.872 111.495 227.325 110.057 227.325 107.726C228.121 103.857 229.912 103.36 230.807 103.46C232.498 104.353 232.448 106.386 232.349 107.924Z" fill="white"/>
<path d="M211.821 119.515L220.821 125L218.961 119.515L213.782 118L211.821 119.515Z" fill="#7F54B3"/>
</svg>
