<?xml version="1.0" encoding="UTF-8"?>
<!DOCTYPE svg PUBLIC "-//W3C//DTD SVG 1.1//EN" "http://www.w3.org/Graphics/SVG/1.1/DTD/svg11.dtd">
<!-- Creator: CorelDRAW X5 -->
<svg xmlns="http://www.w3.org/2000/svg" xml:space="preserve" width="985.644mm" height="490.099mm" style="shape-rendering:geometricPrecision; text-rendering:geometricPrecision; image-rendering:optimizeQuality; fill-rule:evenodd; clip-rule:evenodd"
viewBox="0 0 12683 6307"
 xmlns:xlink="http://www.w3.org/1999/xlink">
 <defs>
  <style type="text/css">
   <![CDATA[
    .str0 {stroke:#2B2A29;stroke-width:2.57363}
    .fil3 {fill:#F8BB97}
    .fil6 {fill:#FFED00}
    .fil5 {fill:#384761}
    .fil32 {fill:#4F4C5C}
    .fil7 {fill:#5E7A8C}
    .fil12 {fill:#5ED95B}
    .fil2 {fill:#FEB48C}
    .fil15 {fill:#FF8C81}
    .fil21 {fill:white}
    .fil1 {fill:#1F1B20}
    .fil10 {fill:#2C2855}
    .fil19 {fill:#426148}
    .fil26 {fill:#4C4741}
    .fil34 {fill:#573085}
    .fil14 {fill:#6057A0}
    .fil36 {fill:#6B672E}
    .fil24 {fill:#6B6967}
    .fil0 {fill:#73706C}
    .fil17 {fill:#7B9AA7}
    .fil20 {fill:#7D6185}
    .fil28 {fill:#87C16B}
    .fil8 {fill:#8D9F9B}
    .fil11 {fill:#913C3C}
    .fil22 {fill:#919291}
    .fil38 {fill:#94908E}
    .fil31 {fill:#A48CC1}
    .fil9 {fill:#AD6FAA}
    .fil30 {fill:#B0B1B1}
    .fil39 {fill:#B79581}
    .fil16 {fill:#BDBEBE}
    .fil23 {fill:#D2CB6D}
    .fil35 {fill:#DA905F}
    .fil33 {fill:#DD3934}
    .fil27 {fill:#EDE540}
    .fil29 {fill:#EDF1E5}
    .fil4 {fill:#EEEEEE}
    .fil25 {fill:#F1F0EE}
    .fil18 {fill:#F3F3F3}
    .fil37 {fill:#FAC064}
    .fil13 {fill:#FEFEFE}
    .fil40 {fill:#7D9BAD}
   ]]>
  </style>
 </defs>
 <g id="Vrstva_x0020_1">
  <metadata id="CorelCorpID_0Corel-Layer"/>
  <g id="_456880064">
   <path class="fil0" d="M8239 4501c77,6 184,6 236,-47 53,-53 51,-160 3,-243 -48,-83 -143,-141 -219,-94 -76,47 -134,201 -140,284 -5,83 42,95 119,100z"/>
   <path class="fil1" d="M11725 2063c-15,5 -34,-9 -79,-24 -45,-15 -115,-31 -154,-73 -39,-42 -48,-110 -45,-168 3,-58 17,-105 42,-145 24,-40 58,-72 102,-81 43,-8 96,7 137,38 42,31 73,77 77,146 4,69 -19,161 -36,219 -17,58 -28,82 -43,87z"/>
   <path class="fil1" d="M11364 2568c-32,12 -9,-14 -8,-32 1,-18 -19,-29 -12,-59 7,-30 41,-79 18,-108 -23,-28 -102,-36 -155,-72 -53,-37 -81,-103 -97,-158 -16,-56 -21,-101 -18,-147 3,-46 14,-93 21,-133 7,-41 10,-75 37,-97 27,-22 79,-31 129,-46 50,-15 98,-34 150,-42 52,-7 107,-3 148,10 41,13 68,33 99,52 31,18 67,34 90,63 23,29 34,71 44,117 10,45 20,94 24,150 4,56 2,120 -17,169 -20,49 -57,82 -103,111 -46,28 -101,52 -127,69 -26,18 -24,29 -66,60 -42,31 -127,82 -159,94z"/>
   <path class="fil2" d="M11721 2513c-70,-39 -136,-149 -140,-173 -5,-23 -5,-54 1,-84 5,-30 16,-59 28,-76 12,-18 26,-25 44,-38 19,-13 42,-32 54,-53 12,-21 12,-44 9,-62 -3,-18 -8,-33 -15,-41 -7,-8 -14,-10 -23,-11 -9,0 -19,2 -28,8 -9,6 -18,17 -28,34 -9,17 -19,39 -24,43 -5,4 -6,-11 -4,-27 2,-17 6,-35 8,-54 2,-19 1,-38 -1,-58 -3,-20 -8,-42 -13,-50 -5,-8 -9,-4 -40,9 -31,13 -87,34 -147,37 -60,3 -124,-11 -158,-18 -34,-6 -39,-4 -38,10 1,14 6,41 9,65 3,24 2,44 -1,58 -3,14 -9,21 -12,42 -3,21 -2,55 8,97 10,43 30,94 54,128 24,34 52,49 68,57 16,8 10,86 0,103 -10,17 -67,45 -138,112 -71,66 -31,380 -23,447 7,67 112,-154 170,-145 58,9 128,23 180,-13 51,-37 83,-125 94,-211 11,-86 178,-98 108,-137z"/>
   <path class="fil3" d="M11243 2537c-124,175 -248,350 -360,494 -112,144 -212,258 -283,339 -72,81 -115,129 -159,177 55,3 110,5 165,8 32,-22 63,-44 143,-112 80,-68 208,-182 286,-292 77,-110 104,-216 131,-322 26,-97 52,-194 78,-292z"/>
   <path class="fil3" d="M7514 2282c7,-20 11,28 21,-2 10,-30 48,-30 39,-100 -9,-68 -83,-126 -128,-167 -10,-9 -20,-28 -28,-51 -8,-23 -13,-51 -14,-71 -1,-20 3,-32 8,-35 5,-3 11,2 18,9 7,7 15,16 21,-1 6,-17 10,-59 12,-94 2,-35 4,-63 15,-88 12,-24 34,-45 77,-54 43,-9 108,-8 175,3 67,11 137,31 174,68 37,37 41,92 45,126 3,34 5,48 10,49 5,2 12,-9 20,-11 7,-2 14,3 18,16 4,13 4,34 2,55 -2,21 -8,41 -19,57 -11,16 -29,29 -41,43 -12,14 -59,85 -60,107 0,0 -5,81 25,122 8,10 40,-34 72,-6 32,28 -19,58 2,109 21,51 19,66 0,107 -19,41 21,37 -41,34 -62,-3 -133,52 -214,-2 -81,-54 -135,-132 -156,-182 -21,-49 -59,-21 -52,-40z"/>
   <path class="fil4 str0" d="M7578 2352c-34,-29 -51,-37 -76,-25 -25,12 -57,44 -46,141 11,96 65,256 109,444 44,188 79,403 90,612 11,210 -2,414 85,511 87,97 273,88 382,-18 109,-105 141,-307 148,-536 7,-230 -10,-488 -59,-649 -49,-161 -118,-406 -176,-448 -58,-43 -107,116 -154,106 -48,-11 -107,-11 -162,-35 -55,-24 -106,-73 -140,-102z"/>
   <path class="fil5" d="M7728 5596c28,-126 55,-253 78,-376 23,-123 41,-242 50,-302 9,-59 10,-58 8,81 -2,139 -6,415 -10,692 150,102 300,204 380,237 79,32 88,-5 95,-105 7,-100 11,-264 17,-394 6,-130 13,-226 16,-367 4,-141 4,-328 4,-444 1,-116 2,-161 3,-255 1,-94 0,-235 -55,-304 -55,-69 -164,-66 -355,-60 -191,6 -464,15 -601,19 -137,4 -137,4 -128,203 8,199 25,597 41,994 152,127 304,254 456,381z"/>
   <path class="fil3" d="M10980 5839c50,-39 39,-87 33,-138 -6,-51 -8,-105 14,-165 22,-60 69,-127 74,-171 4,-43 -33,-63 -96,-69 -62,-6 -149,2 -204,13 -55,11 -78,26 -93,70 -15,44 -23,117 -30,185 -7,68 -13,132 -8,194 5,61 21,121 37,180 112,-30 224,-60 274,-99z"/>
   <path class="fil6" d="M7959 1901c11,-15 22,-51 32,-88 10,-38 18,-77 19,-108 1,-31 -5,-54 -24,-87 -19,-34 -51,-78 -92,-109 -41,-31 -92,-48 -151,-56 -59,-8 -126,-7 -182,5 -56,12 -102,34 -132,63 -30,29 -44,65 -48,103 -4,38 1,77 8,110 7,33 16,59 26,89 10,30 21,63 32,78 11,15 22,12 31,4 9,-8 18,-19 20,-46 2,-26 -1,-67 0,-94 1,-27 6,-41 14,-52 8,-11 20,-19 43,-16 23,3 56,17 90,26 34,9 68,12 99,11 31,-1 58,-5 83,-8 25,-3 46,-5 60,6 14,11 20,34 25,65 5,31 10,70 18,92 8,22 19,28 30,12z"/>
   <polygon class="fil7" points="7872,4355 9526,4283 9508,4002 7854,4075 "/>
   <polygon class="fil8" points="9383,4008 7966,4070 7966,3836 9361,3769 "/>
   <polygon class="fil9" points="9311,3772 8045,3832 8040,3616 9305,3556 "/>
   <path class="fil10" d="M9193 3561c-361,17 -721,34 -1082,51 -39,-58 -37,-120 -5,-184l1082 -51c-18,63 -20,125 5,184z"/>
   <path class="fil11" d="M9107 3381l-1082 51 -5 -184 1082 -51c-18,63 -20,125 5,184z"/>
   <path class="fil12" d="M9245 2981c-406,20 -811,40 -1217,60 -40,-96 -54,-193 0,-289l1217 -60c-36,81 -32,180 0,289z"/>
   <path class="fil13" d="M9034 3542c-114,7 -325,20 -433,26 -108,6 -114,5 -120,-5 -6,-10 -12,-29 -15,-49 -3,-20 -2,-42 1,-56 3,-14 10,-21 12,-23 2,-3 0,-2 117,-7 117,-6 421,-22 470,-25 49,-3 69,-3 109,-6 -18,41 -2,127 0,135 -8,2 -26,3 -140,10z"/>
   <path class="fil14" d="M8408 3599c-10,-25 -20,-51 -21,-81 -1,-31 7,-67 11,-85 4,-18 4,-18 -6,-18 -11,1 -33,2 -43,2 -10,0 -9,0 -11,9 -2,9 -6,27 -7,47 -2,20 -2,41 1,61 3,20 9,38 12,49 4,11 5,15 6,19 20,-1 39,-2 59,-3z"/>
   <path class="fil15" d="M7877 2591c8,-20 28,-44 33,-70 5,-26 -5,-54 -15,-68 -10,-15 -21,-16 -41,-16 -20,0 -49,1 -71,12 -21,12 -35,34 -37,58 -2,24 8,50 17,65 9,15 19,19 24,27 5,8 7,21 16,131 9,110 25,318 39,491 14,173 27,311 46,378 20,67 47,64 78,27 31,-37 67,-108 79,-155 12,-47 0,-70 -25,-173 -25,-103 -64,-285 -91,-407 -27,-122 -41,-185 -50,-224 -9,-39 -11,-55 -3,-75z"/>
   <path class="fil16" d="M7521 2226c-22,43 -43,87 -53,110 -10,23 -9,25 36,70 45,44 133,131 177,174 44,43 44,43 57,14 13,-29 39,-87 51,-116 13,-29 13,-29 -30,-62 -43,-33 -128,-100 -175,-137 -47,-37 -55,-45 -64,-52z"/>
   <path class="fil16" d="M7921 2216c25,38 49,76 61,96 12,20 12,23 -1,73 -13,50 -39,147 -52,196 -13,49 -13,49 -28,23 -15,-26 -46,-77 -62,-103 -15,-26 -15,-26 -1,-65 15,-39 44,-117 60,-160 16,-43 19,-52 22,-61z"/>
   <path class="fil0" d="M7494 2281c-44,53 -129,93 -177,131 -48,38 -99,61 -164,89 -65,28 -142,60 -191,110 -49,50 -68,117 -69,179 -1,63 16,121 44,181 28,59 67,120 103,176 36,56 68,108 86,190 18,82 23,195 14,339 -9,145 -30,322 -49,494 -18,172 -34,338 -41,422 -8,83 -8,83 54,82 62,-1 185,-3 283,-10 98,-6 172,-17 218,-43 46,-26 66,-67 82,-155 16,-88 29,-222 40,-335 11,-114 19,-207 11,-405 -9,-199 -35,-504 -79,-737 -44,-234 -109,-398 -145,-504 -36,-106 -6,-110 -22,-204z"/>
   <path class="fil17" d="M9105 2363l-1313 64c6,-33 24,-67 19,-100 -5,-29 -33,-50 -49,-75l1336 -66c70,55 58,120 7,178z"/>
   <path class="fil18" d="M8400 2380l-597 26c5,-26 20,-48 15,-74 -4,-22 -22,-44 -35,-63l607 -32c55,42 48,99 9,143z"/>
   <polygon class="fil19" points="9187,3192 7961,3251 7951,3043 9182,2985 "/>
   <path class="fil20" d="M8072 2411l974 -51c-34,2 6,242 32,342 -334,19 -669,39 -1003,58 -80,5 -145,-57 -146,-137l-1 -59c-1,-80 64,-149 143,-153z"/>
   <path class="fil21" d="M9223 2964c-386,24 -777,47 -1162,63 -48,2 -62,-240 -1,-244l1158 -72c-34,71 -28,158 5,253z"/>
   <path class="fil13" d="M8086 2440l931 -44c0,0 3,88 13,140 13,72 29,142 29,142l-970 44c-64,3 -118,-47 -118,-111l0 -48c-1,-65 52,-120 116,-124z"/>
   <path class="fil22" d="M8066 2555l911 -43c1,0 48,-2 48,-3l0 -4c0,-1 -47,2 -48,2l-1007 48c0,0 0,1 0,2l0 1c0,1 95,-3 96,-3z"/>
   <path class="fil22" d="M8066 2492l911 -43c1,0 43,-2 43,-3l0 -5c0,-1 -41,2 -42,2l-984 47c-1,0 -2,1 -2,2l-1 2c0,1 74,-3 75,-3z"/>
   <path class="fil22" d="M8066 2680l911 -43c1,0 72,-3 72,-4l-1 -4c0,-1 -70,3 -71,3 -139,7 -985,41 -983,47 0,1 0,1 3,4 1,1 68,-3 69,-3z"/>
   <path class="fil22" d="M8019 2895c392,-24 785,-48 1177,-71 0,0 0,1 0,0 0,-1 0,-3 0,-6 -392,23 -784,46 -1177,69 0,-1 0,-3 0,-1 0,1 0,6 0,10z"/>
   <path class="fil22" d="M8022 2847c392,-25 785,-50 1177,-76 0,-1 0,-1 1,-2 0,-1 0,-3 1,-5 -392,24 -784,48 -1177,72 -1,4 -1,7 -2,11z"/>
   <path class="fil22" d="M8020 2917c392,-24 785,-47 1177,-71 0,-1 0,-1 0,-2 0,-1 0,-2 0,-4 -392,23 -785,46 -1177,69 0,0 0,0 0,1 0,1 0,4 0,7z"/>
   <path class="fil22" d="M8032 2992c393,-24 785,-48 1178,-71 0,-1 0,-2 -1,-3 0,-1 -1,-2 -1,-4 -393,23 -786,46 -1179,69 0,1 1,2 1,4 0,1 1,3 1,5z"/>
   <path class="fil14" d="M8234 3607c-10,-25 -20,-51 -21,-81 -1,-31 7,-67 11,-85 4,-18 4,-18 -6,-18 -11,1 -33,2 -43,2 -10,0 -9,0 -11,9 -2,9 -6,27 -7,47 -2,20 -2,41 1,61 3,20 9,38 12,49 4,11 5,15 6,19 20,-1 39,-2 59,-3z"/>
   <path class="fil3" d="M9195 4215c-10,-2 -18,10 -22,23 -4,13 -4,26 -1,41 3,15 8,30 14,44 6,14 12,26 22,32 11,7 26,8 33,1 8,-8 8,-24 4,-44 -4,-19 -11,-41 -21,-60 -9,-19 -20,-36 -30,-38z"/>
   <path class="fil3" d="M9273 4199c-9,-1 -16,1 -20,6 -5,5 -7,13 -7,23 0,10 2,21 6,36 4,15 10,33 16,49 6,16 10,29 18,37 8,8 18,10 28,9 10,-2 20,-8 24,-17 4,-9 3,-22 -4,-45 -7,-23 -19,-56 -30,-74 -11,-18 -21,-22 -30,-23z"/>
   <path class="fil3" d="M9333 4183c-7,6 -8,14 -7,25 1,11 3,24 6,39 3,15 8,32 14,48 6,16 12,30 20,38 7,8 16,9 23,6 8,-3 15,-9 18,-20 3,-11 1,-27 -2,-46 -4,-19 -9,-43 -16,-61 -6,-18 -14,-31 -24,-35 -11,-4 -24,0 -31,6z"/>
   <path class="fil3" d="M9401 4188c2,-14 9,-22 19,-23 10,-1 24,3 34,14 10,10 17,27 21,42 4,16 4,30 3,45 -1,15 -3,30 -7,40 -4,10 -11,15 -19,14 -8,-1 -17,-8 -25,-22 -8,-14 -14,-34 -19,-54 -5,-21 -9,-42 -7,-56z"/>
   <path class="fil23" d="M8085 4064c7,94 14,187 20,281 9,0 19,-1 28,-1 -7,-93 -15,-187 -22,-280 -9,0 -18,1 -26,1z"/>
   <path class="fil23" d="M8157 4061c7,94 14,187 20,281 9,0 19,-1 28,-1 -7,-93 -15,-187 -22,-280 -9,0 -18,1 -26,1z"/>
   <path class="fil24" d="M7332 2664c-59,-78 -121,-123 -168,-137 -47,-14 -80,2 -120,35 -40,33 -87,82 -111,138 -24,56 -26,119 -14,180 13,61 40,120 123,235 84,115 224,286 376,430 152,144 317,261 485,374 169,114 342,224 430,279 89,55 93,55 122,10 29,-45 83,-136 110,-182 27,-45 27,-45 -69,-105 -96,-59 -289,-178 -470,-348 -182,-170 -352,-390 -466,-556 -114,-165 -170,-276 -229,-353z"/>
   <path class="fil3" d="M8562 4084c-26,33 -71,101 -91,137 -20,36 -14,39 -1,64 13,24 34,70 53,100 19,30 35,45 49,53 14,7 25,7 32,5 7,-2 11,-7 11,-14 0,-7 -3,-17 -2,-19 1,-2 6,3 12,10 6,7 13,16 20,21 7,5 15,8 23,6 8,-1 16,-5 18,-13 3,-8 0,-18 1,-22 1,-4 5,-1 9,4 4,5 8,11 17,15 9,5 22,8 31,5 10,-3 16,-13 17,-25 1,-12 -3,-26 -3,-34 -1,-8 2,-9 6,-7 4,2 10,8 16,16 6,7 12,16 22,19 10,3 23,-1 30,-8 7,-6 9,-15 6,-25 -2,-10 -9,-21 -16,-33 -8,-12 -16,-25 -27,-37 -10,-13 -22,-25 -32,-37 -11,-12 -20,-23 -26,-33 -6,-10 -8,-20 -7,-27 0,-7 3,-12 9,-13 5,-1 14,3 21,9 7,6 14,13 24,21 10,8 23,17 39,22 15,5 33,5 46,1 14,-4 24,-14 30,-21 5,-7 5,-13 -1,-18 -6,-5 -17,-8 -31,-13 -14,-5 -32,-12 -48,-22 -15,-10 -28,-22 -44,-33 -16,-11 -36,-22 -59,-34 -23,-12 -50,-26 -69,-35 -19,-9 -30,-13 -40,-15 -10,-3 -18,-5 -44,28z"/>
   <path class="fil25" d="M8566 4020c12,2 32,13 43,19 10,6 11,7 -13,44 -24,37 -73,109 -101,147 -28,38 -36,42 -46,39 -10,-2 -21,-11 -27,-15 -6,-4 -6,-4 16,-40 22,-36 66,-109 90,-149 24,-40 27,-48 39,-46z"/>
   <path class="fil26" d="M8762 3798c6,79 12,157 18,236 44,-2 89,-4 133,-6 -6,-79 -13,-158 -19,-237 -44,2 -88,4 -132,6z"/>
   <path class="fil23" d="M8893 3792c6,79 13,158 19,237 13,-1 27,-1 40,-2 -6,-79 -12,-158 -19,-237 -14,1 -27,1 -41,2z"/>
   <path class="fil23" d="M8721 3800c6,79 13,158 19,237 13,-1 27,-2 40,-2 -6,-79 -12,-157 -19,-236 -14,1 -27,1 -41,2z"/>
   <path class="fil27" d="M8346 3025c6,69 11,138 17,207 13,-1 27,-1 40,-2 -6,-69 -11,-138 -17,-207 -14,1 -27,1 -41,2z"/>
   <path class="fil27" d="M8473 3019c6,69 11,138 17,207 13,-1 27,-1 40,-2 -5,-69 -11,-138 -16,-206 -14,1 -27,1 -41,2z"/>
   <path class="fil27" d="M8221 3031c6,69 11,138 17,207 13,-1 27,-1 40,-2 -6,-69 -11,-138 -17,-207 -14,1 -27,1 -41,2z"/>
   <path class="fil28" d="M8647 3402c-11,-24 -26,-52 -27,-82 -1,-29 5,-73 10,-102 -11,1 -33,2 -43,2 -10,0 -9,0 -11,9 -11,63 -14,94 6,157 4,11 5,15 6,19 20,-1 39,-2 59,-3z"/>
   <path class="fil28" d="M8543 3408c-10,-25 -20,-51 -21,-81 -1,-29 3,-81 4,-103 -11,1 -33,2 -43,2 -10,0 -9,0 -11,9 -5,59 -8,91 6,157 4,11 5,15 6,19 20,-1 39,-2 59,-3z"/>
   <path class="fil28" d="M8759 3397c-11,-24 -20,-51 -21,-81 -1,-29 -1,-74 4,-103 -11,1 -33,2 -43,2 -10,0 -9,0 -11,9 -11,63 -14,94 6,157 4,11 5,15 6,19 20,-1 39,-2 59,-3z"/>
   <path class="fil13" d="M9294 3572c-223,10 -446,20 -669,30 2,64 4,128 6,193 222,-11 445,-23 667,-34 -1,-63 -3,-126 -4,-189z"/>
   <path class="fil29" d="M8484 3595c2,72 4,144 6,216 -15,1 -30,1 -44,2 -2,-72 -3,-144 -5,-216 15,-1 29,-1 44,-2z"/>
   <path class="fil29" d="M8484 3595c2,72 4,144 6,216 -15,1 -30,1 -44,2 -2,-72 -3,-144 -5,-216 15,-1 29,-1 44,-2z"/>
   <path class="fil29" d="M8401 3599c2,72 4,144 6,216 -15,1 -30,1 -44,2 -2,-72 -3,-144 -5,-216 15,-1 29,-1 44,-2z"/>
   <path class="fil29" d="M8323 3603c2,70 4,140 6,210 -15,-11 -30,-21 -45,-32 -1,-59 -3,-117 -4,-176 15,-1 29,-1 44,-2z"/>
   <path class="fil13" d="M8958 3808c129,-6 258,-12 387,-18 7,66 14,133 20,199 -130,7 -260,13 -391,20 -5,-67 -11,-134 -16,-201z"/>
   <path class="fil30" d="M8959 3826c0,1 0,2 0,4 129,-6 258,-12 387,-18 0,-2 0,-3 0,-5 -129,6 -258,13 -387,19z"/>
   <path class="fil30" d="M8965 3899c0,1 0,2 0,4 129,-6 259,-12 388,-18 0,-2 0,-3 0,-5 -129,6 -259,13 -388,19z"/>
   <path class="fil30" d="M8968 3938c0,1 0,2 0,4 130,-6 260,-12 389,-18 0,-1 0,-3 0,-4 -130,6 -259,13 -389,19z"/>
   <path class="fil30" d="M8972 3991c0,1 0,2 0,3 130,-6 260,-12 390,-19 0,-1 0,-3 0,-4 -130,6 -260,13 -390,19z"/>
   <path class="fil1 str0" d="M10638 5625c124,-6 248,-12 366,-12 118,1 230,8 342,15 115,-80 230,-161 309,-243 79,-82 123,-167 159,-328 36,-162 65,-401 73,-535 8,-134 -6,-163 -47,-178 -41,-15 -109,-18 -272,-28 -163,-11 -420,-30 -565,-39 -145,-9 -177,-8 -207,95 -30,103 -59,309 -84,508 -24,199 -44,391 -64,584 -4,54 -7,108 -11,161z"/>
   <path class="fil31" d="M11881 4384c16,-211 -241,-724 48,-1264 34,-63 104,-159 142,-230 38,-71 49,-115 44,-148 -5,-33 -27,-55 -66,-77 -38,-22 -93,-44 -142,-66 -33,-15 -218,-116 -219,-117 -41,54 -317,320 -475,408 -53,30 -48,-8 49,-376 -305,225 -339,440 -305,632 34,188 86,812 -236,1258 317,0 635,0 848,-5 213,-5 311,9 313,-16z"/>
   <polygon class="fil32" points="11319,4604 9793,4537 9809,4278 11336,4345 "/>
   <polygon class="fil33" points="9925,4283 11232,4340 11232,4124 9945,4063 "/>
   <polygon class="fil34" points="9991,4066 11159,4121 11164,3922 9996,3866 "/>
   <path class="fil10" d="M10100 3871c333,16 665,32 998,47 36,-54 34,-111 4,-170l-998 -47c17,58 18,115 -4,170z"/>
   <polygon class="fil35" points="10179,3705 11177,3752 11182,3582 10184,3535 "/>
   <path class="fil13" d="M10247 3853c105,6 300,18 399,24 100,5 105,4 110,-5 5,-9 11,-26 14,-45 3,-19 2,-39 -1,-51 -3,-13 -9,-19 -11,-21 -2,-2 0,-1 -108,-7 -108,-5 -388,-20 -434,-23 -45,-3 -64,-3 -100,-6 17,37 2,117 0,124 8,2 24,3 129,9z"/>
   <path class="fil14" d="M10825 3906c9,-23 19,-47 20,-75 1,-28 -6,-62 -10,-78 -4,-17 -4,-17 6,-16 10,0 30,1 40,2 10,0 9,0 10,9 1,8 5,25 7,43 2,18 1,38 -1,56 -3,18 -8,35 -11,45 -3,10 -4,14 -6,17 -18,-1 -36,-2 -54,-3z"/>
   <path class="fil14" d="M10984 3913c9,-23 19,-47 20,-75 1,-28 -6,-62 -10,-78 -4,-17 -4,-17 6,-16 10,0 30,1 40,2 10,0 9,0 10,9 1,8 5,25 7,43 2,18 1,38 -1,56 -3,18 -8,35 -11,45 -3,10 -4,14 -6,17 -18,-1 -36,-2 -54,-3z"/>
   <path class="fil3" d="M10037 4495c6,-2 12,8 14,17 3,10 2,20 0,31 -2,11 -5,23 -9,33 -4,10 -7,19 -14,24 -7,5 -16,6 -21,1 -5,-6 -5,-18 -2,-33 2,-14 7,-31 13,-45 6,-14 13,-27 19,-29z"/>
   <path class="fil3" d="M9987 4483c5,-1 10,1 13,4 3,4 5,10 5,17 0,7 -1,16 -4,27 -3,11 -6,25 -10,36 -4,12 -7,22 -11,28 -5,6 -11,8 -18,6 -6,-1 -13,-6 -15,-13 -3,-7 -2,-16 3,-34 4,-17 12,-42 19,-55 7,-14 13,-17 19,-17z"/>
   <path class="fil3" d="M9950 4471c5,5 5,10 4,18 0,8 -2,18 -4,29 -2,11 -5,24 -9,36 -4,12 -8,23 -13,29 -5,6 -10,7 -15,5 -5,-2 -10,-7 -12,-15 -2,-8 -1,-20 1,-35 2,-15 6,-32 10,-45 4,-13 9,-23 15,-26 7,-3 15,0 20,5z"/>
   <path class="fil3" d="M9907 4474c-1,-11 -6,-16 -12,-17 -7,-1 -15,2 -22,10 -6,8 -11,20 -13,32 -2,12 -3,23 -2,34 1,11 2,23 5,30 3,7 7,11 12,10 5,-1 11,-6 16,-16 5,-10 9,-25 12,-40 3,-15 5,-31 4,-42z"/>
   <path class="fil23" d="M10936 4327c-6,86 -13,173 -19,259 -9,0 -17,-1 -26,-1 7,-86 14,-173 21,-259 8,0 16,1 24,1z"/>
   <path class="fil23" d="M10869 4324c-6,86 -13,173 -19,259 -9,0 -17,-1 -26,-1 7,-86 14,-173 21,-259 8,0 16,1 24,1z"/>
   <path class="fil36" d="M10498 4090c-6,73 -11,145 -17,218 -41,-2 -82,-4 -123,-5 6,-73 12,-146 18,-218 41,2 81,4 122,6z"/>
   <path class="fil23" d="M10376 4084c-6,73 -12,146 -18,218 -12,-1 -25,-1 -37,-2 6,-73 11,-146 17,-218 13,1 25,1 38,2z"/>
   <path class="fil23" d="M10536 4091c-6,73 -12,146 -18,218 -12,-1 -25,-1 -37,-2 6,-73 11,-145 17,-218 13,1 25,1 38,2z"/>
   <path class="fil37" d="M10603 3725c10,-22 24,-48 25,-76 1,-27 -5,-67 -9,-94 10,0 30,1 40,2 10,0 9,0 10,9 10,59 13,86 -6,144 -3,10 -4,14 -6,17 -18,-1 -36,-2 -54,-3z"/>
   <path class="fil37" d="M10700 3730c9,-23 19,-47 20,-75 1,-27 -2,-75 -4,-95 10,0 30,1 40,2 10,0 9,0 10,9 5,55 8,84 -6,144 -3,10 -4,14 -6,17 -18,-1 -36,-2 -54,-3z"/>
   <path class="fil37" d="M10500 3720c10,-22 19,-47 20,-75 1,-27 0,-68 -4,-95 10,0 30,1 40,2 10,0 9,0 10,9 10,59 13,86 -6,144 -3,10 -4,14 -6,17 -18,-1 -36,-2 -54,-3z"/>
   <path class="fil13" d="M10007 3881c206,9 411,19 617,28 -2,59 -4,118 -6,178 -205,-10 -410,-21 -615,-31 1,-58 3,-116 4,-174z"/>
   <path class="fil29" d="M10754 3902c-2,66 -4,133 -5,199 14,1 27,1 41,2 2,-66 3,-133 5,-199 -13,-1 -27,-1 -40,-2z"/>
   <path class="fil29" d="M10754 3902c-2,66 -4,133 -5,199 14,1 27,1 41,2 2,-66 3,-133 5,-199 -13,-1 -27,-1 -40,-2z"/>
   <path class="fil29" d="M10831 3906c-2,66 -4,133 -5,199 14,1 27,1 41,2 2,-66 3,-133 5,-199 -13,-1 -27,-1 -40,-2z"/>
   <path class="fil29" d="M10903 3909c-2,66 -3,133 -5,199 14,1 27,1 41,2 1,-66 3,-133 4,-199 -13,-1 -27,-1 -40,-2z"/>
   <path class="fil13" d="M10317 4099c-119,-5 -238,-11 -357,-16 -6,61 -12,122 -19,183 120,6 240,12 360,18 5,-62 10,-124 15,-185z"/>
   <path class="fil30" d="M10316 4116c0,1 0,2 0,3 -119,-6 -238,-11 -357,-17 0,-1 0,-3 0,-4 119,6 238,12 357,18z"/>
   <path class="fil30" d="M10310 4183c0,1 0,2 0,3 -119,-6 -239,-11 -358,-17 0,-1 0,-3 0,-4 119,6 239,12 358,18z"/>
   <path class="fil30" d="M10307 4219c0,1 0,2 0,3 -120,-6 -239,-11 -359,-17 0,-1 0,-3 0,-4 120,6 239,12 359,18z"/>
   <path class="fil30" d="M10304 4268c0,1 0,2 0,3 -120,-6 -240,-11 -360,-17 0,-1 0,-3 0,-4 120,6 240,12 360,18z"/>
   <path class="fil3" d="M11467 4248c-35,4 -67,17 -102,19 -35,2 -71,-7 -102,-6 -31,1 -56,11 -86,20 -31,9 -67,15 -89,22 -21,7 -27,14 -29,19 -1,5 2,9 11,14 10,5 26,11 42,13 16,2 31,0 46,-3 14,-3 28,-6 31,-3 3,3 -4,12 -19,25 -15,13 -37,30 -66,47 -29,18 -64,37 -81,51 -17,15 -17,25 -13,33 4,8 12,13 37,2 25,-11 67,-37 91,-49 24,-12 30,-10 28,-4 -1,5 -10,13 -33,32 -23,20 -61,51 -81,72 -20,21 -23,32 -19,38 4,7 14,10 32,1 18,-9 44,-29 63,-44 19,-16 32,-27 35,-27 3,0 -3,10 -12,20 -8,9 -18,17 -30,26 -13,9 -28,18 -38,29 -10,11 -15,23 -12,30 3,7 15,10 28,4 13,-6 29,-19 46,-33 17,-14 36,-27 47,-36 11,-9 14,-13 14,-10 0,3 -3,14 -11,23 -8,9 -22,17 -30,26 -8,9 -11,20 -6,21 5,1 19,-6 35,-17 16,-11 35,-25 57,-44 22,-19 49,-42 70,-66 22,-24 39,-49 55,-66 15,-16 29,-24 57,-37 28,-13 70,-32 96,-56 26,-24 36,-53 22,-70 -14,-17 -51,-22 -86,-18z"/>
   <path class="fil3" d="M12070 2679c86,80 84,103 109,192 25,89 46,221 52,330 5,109 38,246 16,350 -22,104 -98,175 -175,295 -77,120 -197,241 -290,328 -93,88 -207,124 -273,178 -66,-44 -26,-38 -91,-82 545,-545 783,-757 436,-1338 -96,-160 131,-334 217,-254z"/>
   <path class="fil30" d="M10771 3783c0,1 0,2 0,3 -215,-11 -431,-22 -646,-33 0,-1 0,-3 0,-4 215,11 431,23 646,34z"/>
   <path class="fil30" d="M10772 3811c0,1 0,2 0,3 -216,-11 -432,-22 -648,-33 0,-1 0,-3 0,-4 216,12 432,23 649,35z"/>
   <path class="fil22" d="M7814 2318c204,-11 409,-22 613,-34 0,-1 -1,-2 -1,-4 -205,11 -409,21 -614,32 1,2 2,4 2,6z"/>
   <path class="fil30" d="M10622 3980c0,1 0,2 0,3 -205,-10 -411,-21 -616,-31 0,-1 0,-3 0,-4 206,11 411,22 617,33z"/>
   <rect class="fil38" transform="matrix(0.431356 -3.44248 0.845715 0.114115 5525.15 2835.4)" width="110" height="1119" rx="2" ry="2"/>
   <path class="fil39" d="M5618 2334l-79 631 -5427 -680c-70,-9 -120,-73 -112,-144l47 -376c9,-70 73,-120 144,-112l5427 680z"/>
   <path class="fil40" d="M6743 4627c-814,-1539 -225,-3447 1314,-4261 1539,-814 3447,-225 4261,1314 814,1539 225,3447 -1314,4261 -1539,814 -3447,225 -4261,-1314zm171 -90c-764,-1445 -211,-3236 1234,-4000 1445,-764 3236,-211 4000,1234 764,1445 211,3236 -1234,4000 -1445,764 -3236,211 -4000,-1234z"/>
  </g>
 </g>
</svg>
