<svg width="3726" height="1853" viewBox="0 0 3726 1853" fill="none" xmlns="http://www.w3.org/2000/svg">
<g clip-path="url(#clip0_33_230)">
<path fill-rule="evenodd" clip-rule="evenodd" d="M2419.92 1321.93C2442.54 1323.69 2473.96 1323.69 2489.23 1308.12C2504.8 1292.56 2504.21 1261.13 2490.12 1236.76C2476.02 1212.38 2448.12 1195.34 2425.8 1209.15C2403.48 1222.95 2386.44 1268.18 2384.68 1292.56C2383.21 1316.93 2397.01 1320.46 2419.63 1321.93H2419.92Z" fill="#73706C"/>
<path fill-rule="evenodd" clip-rule="evenodd" d="M3443.75 605.895C3439.34 607.364 3433.76 603.252 3420.55 598.847C3407.33 594.441 3386.77 589.742 3375.32 577.407C3363.86 565.072 3361.22 545.1 3362.1 528.066C3362.98 511.032 3367.09 497.228 3374.44 485.48C3381.48 473.732 3391.47 464.334 3404.39 461.691C3417.02 459.341 3432.59 463.746 3444.63 472.851C3456.96 481.956 3466.07 495.466 3467.24 515.731C3468.42 535.996 3461.66 563.016 3456.67 580.05C3451.68 597.085 3448.45 604.133 3444.04 605.602L3443.75 605.895Z" fill="#6E3C36"/>
<path fill-rule="evenodd" clip-rule="evenodd" d="M3337.72 754.212C3328.33 757.736 3335.08 750.1 3335.37 744.814C3335.67 739.527 3329.79 736.297 3331.85 727.486C3333.91 718.675 3343.89 704.284 3337.14 695.767C3330.38 687.543 3307.18 685.193 3291.61 674.62C3276.05 663.754 3267.82 644.37 3263.12 628.216C3258.43 611.769 3256.96 598.553 3257.84 585.043C3258.72 571.533 3261.95 557.729 3264.01 545.981C3266.06 533.94 3266.94 523.954 3274.87 517.493C3282.8 511.032 3298.07 508.388 3312.76 503.983C3327.44 499.577 3341.54 493.997 3356.81 491.648C3372.09 489.592 3388.24 490.767 3400.28 494.585C3412.32 498.403 3420.25 504.277 3429.36 509.857C3438.46 515.143 3449.03 519.842 3455.79 528.36C3462.54 536.877 3465.77 549.212 3468.71 562.722C3471.65 575.938 3474.59 590.33 3475.76 606.777C3476.94 623.224 3476.35 642.02 3470.77 656.411C3464.89 670.802 3454.03 680.494 3440.52 689.012C3427.01 697.235 3410.85 704.284 3403.22 709.277C3395.58 714.563 3396.17 717.794 3383.83 726.898C3371.5 736.003 3346.53 750.981 3337.14 754.506L3337.72 754.212Z" fill="#6E3C36"/>
<path fill-rule="evenodd" clip-rule="evenodd" d="M3442.57 738.059C3422.01 726.605 3402.63 694.298 3401.46 687.249C3399.99 680.494 3399.99 671.39 3401.75 662.579C3403.22 653.768 3406.45 645.251 3409.97 640.258C3413.5 634.971 3417.61 632.916 3422.9 629.097C3428.48 625.279 3435.23 619.699 3438.76 613.532C3442.28 607.364 3442.28 600.609 3441.4 595.322C3440.52 590.036 3439.05 585.63 3436.99 583.281C3434.94 580.931 3432.88 580.344 3430.24 580.05C3427.59 580.05 3424.66 580.638 3422.01 582.4C3419.37 584.162 3416.73 587.393 3413.79 592.385C3411.15 597.378 3408.21 603.84 3406.74 605.014C3405.27 606.189 3404.98 601.784 3405.57 597.085C3406.15 592.092 3407.33 586.805 3407.92 581.225C3408.5 575.645 3408.21 570.065 3407.62 564.191C3406.74 558.317 3405.27 551.855 3403.81 549.506C3402.34 547.156 3401.16 548.331 3392.06 552.149C3382.95 555.967 3366.51 562.135 3348.88 563.016C3331.26 563.897 3312.47 559.785 3302.48 557.729C3292.49 555.967 3291.03 556.555 3291.32 560.666C3291.61 564.778 3293.08 572.708 3293.96 579.757C3294.84 586.805 3294.55 592.679 3293.67 596.791C3292.79 600.903 3291.03 602.959 3290.14 609.126C3289.26 615.294 3289.56 625.279 3292.49 637.615C3295.43 650.244 3301.31 665.222 3308.35 675.208C3315.4 685.193 3323.63 689.599 3328.33 691.948C3333.02 694.298 3331.26 717.206 3328.33 722.199C3325.39 727.192 3308.65 735.416 3287.8 755.093C3266.94 774.477 3278.69 866.698 3281.04 886.375C3283.1 906.053 3313.93 841.146 3330.97 843.79C3348 846.433 3368.56 850.545 3383.83 839.971C3398.81 829.105 3408.21 803.259 3411.44 778.002C3414.67 752.744 3463.72 749.219 3443.16 737.765L3442.57 738.059Z" fill="#FEB48C"/>
<path fill-rule="evenodd" clip-rule="evenodd" d="M3302.19 745.108C3265.77 796.504 3229.35 847.901 3196.46 890.194C3163.56 932.486 3134.19 965.967 3113.34 989.757C3092.19 1013.55 3079.57 1027.64 3066.64 1041.74C3082.8 1042.62 3098.95 1043.21 3115.1 1044.09C3124.5 1037.63 3133.61 1031.17 3157.1 1011.2C3180.6 991.225 3218.19 957.744 3241.1 925.437C3263.71 893.13 3271.64 861.999 3279.57 830.867C3287.21 802.378 3294.84 773.89 3302.48 745.108H3302.19Z" fill="#F8BB97"/>
<path fill-rule="evenodd" clip-rule="evenodd" d="M2206.99 670.215C2209.05 664.341 2210.22 678.438 2213.16 669.628C2216.1 660.817 2227.26 660.817 2224.61 640.258C2221.97 620.287 2200.24 603.252 2187.02 591.211C2184.08 588.567 2181.15 582.987 2178.8 576.232C2176.45 569.477 2174.98 561.254 2174.69 555.38C2174.39 549.506 2175.57 545.981 2177.04 545.1C2178.5 544.219 2180.27 545.688 2182.32 547.744C2184.38 549.799 2186.73 552.443 2188.49 547.45C2190.25 542.457 2191.43 530.122 2192.01 519.842C2192.6 509.563 2193.19 501.34 2196.42 493.997C2199.94 486.948 2206.41 480.781 2219.03 478.138C2231.66 475.494 2250.75 475.788 2270.43 479.019C2290.11 482.249 2310.67 488.123 2321.53 498.99C2332.4 509.857 2333.58 526.01 2334.75 535.996C2335.63 545.981 2336.22 550.093 2337.69 550.387C2339.16 550.974 2341.21 547.744 2343.56 547.156C2345.62 546.569 2347.67 548.037 2348.85 551.855C2350.02 555.673 2350.02 561.841 2349.44 568.009C2348.85 574.176 2347.09 580.05 2343.86 584.749C2340.62 589.449 2335.34 593.267 2331.81 597.378C2328.29 601.49 2314.49 622.342 2314.19 628.804C2314.19 628.804 2312.72 652.593 2321.53 664.635C2323.88 667.572 2333.28 654.649 2342.68 662.873C2352.08 671.096 2337.1 679.907 2343.27 694.885C2349.44 709.864 2348.85 714.269 2343.27 726.311C2337.69 738.353 2349.44 737.178 2331.23 736.297C2313.02 735.416 2292.16 751.569 2268.38 735.709C2244.59 719.85 2228.73 696.941 2222.56 682.257C2216.39 667.865 2205.23 676.089 2207.29 670.509L2206.99 670.215Z" fill="#F8BB97"/>
<path fill-rule="evenodd" clip-rule="evenodd" d="M2225.79 690.774C2215.8 682.257 2210.81 679.907 2203.47 683.431C2196.13 686.956 2186.73 696.354 2189.96 724.843C2193.19 753.037 2209.05 800.029 2221.97 855.244C2234.89 910.459 2245.17 973.603 2248.4 1034.99C2251.63 1096.66 2247.82 1156.58 2273.37 1185.06C2298.92 1213.55 2353.55 1210.91 2385.56 1179.78C2417.57 1148.94 2426.97 1089.61 2429.03 1022.36C2431.08 954.807 2426.09 879.033 2411.7 831.748C2397.31 784.463 2377.04 712.507 2360.01 700.172C2342.97 687.543 2328.58 734.241 2314.78 731.304C2300.68 728.073 2283.35 728.073 2267.2 721.024C2251.05 713.976 2236.07 699.585 2226.08 691.067L2225.79 690.774Z" fill="#EEEEEE" stroke="#2B2A29" stroke-width="0.755866"/>
<path fill-rule="evenodd" clip-rule="evenodd" d="M2269.84 1643.52C2278.07 1606.52 2286 1569.22 2292.75 1533.09C2299.51 1496.97 2304.79 1462.02 2307.44 1444.4C2310.08 1427.07 2310.37 1427.36 2309.79 1468.19C2309.2 1509.01 2308.03 1590.07 2306.85 1671.43C2350.9 1701.38 2394.96 1731.34 2418.45 1741.03C2441.66 1750.43 2444.3 1739.56 2446.36 1710.19C2448.41 1680.82 2449.59 1632.66 2451.35 1594.48C2453.11 1556.3 2455.17 1528.1 2456.05 1486.69C2457.22 1445.28 2457.22 1390.36 2457.22 1356.29C2457.52 1322.22 2457.81 1309 2458.1 1281.4C2458.4 1253.79 2458.1 1212.38 2441.95 1192.11C2425.8 1171.85 2393.78 1172.73 2337.69 1174.49C2281.59 1176.25 2201.41 1178.9 2161.18 1180.07C2120.94 1181.25 2120.94 1181.25 2123.58 1239.69C2125.93 1298.14 2130.93 1415.03 2135.63 1531.63C2180.27 1568.93 2224.91 1606.23 2269.55 1643.52H2269.84Z" fill="#384761"/>
<path fill-rule="evenodd" clip-rule="evenodd" d="M3224.95 1714.89C3239.63 1703.44 3236.4 1689.34 3234.64 1674.36C3232.87 1659.38 3232.29 1643.52 3238.75 1625.9C3245.21 1608.28 3259.01 1588.6 3260.48 1575.68C3261.66 1563.05 3250.79 1557.18 3232.29 1555.42C3214.08 1553.65 3188.53 1556 3172.37 1559.23C3156.22 1562.46 3149.47 1566.87 3145.06 1579.79C3140.65 1592.72 3138.3 1614.15 3136.25 1634.13C3134.19 1654.1 3132.43 1672.89 3133.9 1691.1C3135.37 1709.02 3140.07 1726.64 3144.77 1743.97C3177.66 1735.16 3210.55 1726.35 3225.24 1714.89H3224.95Z" fill="#F8BB97"/>
<path fill-rule="evenodd" clip-rule="evenodd" d="M2337.69 558.317C2340.92 553.911 2344.15 543.338 2347.09 532.472C2350.02 521.311 2352.37 509.857 2352.67 500.752C2352.96 491.648 2351.2 484.893 2345.62 475.201C2340.04 465.215 2330.64 452.292 2318.6 443.188C2306.56 434.083 2291.58 429.09 2274.25 426.741C2256.92 424.391 2237.24 424.685 2220.8 428.209C2204.35 431.734 2190.84 438.195 2182.03 446.712C2173.22 455.229 2169.11 465.802 2167.93 476.963C2166.76 488.123 2168.23 499.578 2170.28 509.269C2172.34 518.961 2174.98 526.598 2177.92 535.408C2180.85 544.219 2184.08 553.911 2187.32 558.317C2190.55 562.722 2193.78 561.841 2196.42 559.492C2199.06 557.142 2201.71 553.911 2202.29 545.982C2202.88 538.345 2202 526.304 2202.29 518.374C2202.59 510.444 2204.06 506.333 2206.41 503.102C2208.76 499.871 2212.28 497.522 2219.03 498.403C2225.79 499.284 2235.48 503.396 2245.47 506.039C2255.45 508.682 2265.44 509.563 2274.54 509.269C2283.65 508.976 2291.58 507.801 2298.92 506.92C2306.26 506.039 2312.43 505.451 2316.54 508.682C2320.65 511.913 2322.42 518.668 2323.88 527.772C2325.35 536.877 2326.82 548.331 2329.17 554.792C2331.52 561.254 2334.75 563.016 2337.98 558.317H2337.69Z" fill="#FFED00"/>
<path fill-rule="evenodd" clip-rule="evenodd" d="M2312.14 1279.05L2797.91 1257.9L2792.62 1175.37L2306.85 1196.81L2312.14 1279.05Z" fill="#5E7A8C"/>
<path fill-rule="evenodd" clip-rule="evenodd" d="M2755.91 1177.13L2339.74 1195.34V1126.62L2749.45 1106.94L2755.91 1177.13Z" fill="#8D9F9B"/>
<path fill-rule="evenodd" clip-rule="evenodd" d="M2734.77 1107.82L2362.95 1125.44L2361.48 1062.01L2733 1044.38L2734.77 1107.82Z" fill="#AD6FAA"/>
<path fill-rule="evenodd" clip-rule="evenodd" d="M2700.11 1045.85C2594.08 1050.85 2488.35 1055.84 2382.33 1060.83C2370.88 1043.8 2371.46 1025.59 2380.86 1006.79L2698.64 991.812C2693.35 1010.32 2692.77 1028.52 2700.11 1045.85Z" fill="#2C2855"/>
<path fill-rule="evenodd" clip-rule="evenodd" d="M2674.85 992.987L2357.07 1007.97L2355.6 953.926L2673.38 938.947C2668.1 957.45 2667.51 975.659 2674.85 992.987Z" fill="#913C3C"/>
<path fill-rule="evenodd" clip-rule="evenodd" d="M2715.38 875.509C2596.14 881.383 2477.19 887.257 2357.95 893.131C2346.2 864.936 2342.09 836.447 2357.95 808.252L2715.38 790.63C2704.81 814.42 2705.98 843.496 2715.38 875.509Z" fill="#5ED95B"/>
<path fill-rule="evenodd" clip-rule="evenodd" d="M2653.41 1040.27C2619.93 1042.33 2557.96 1046.15 2526.24 1047.91C2494.52 1049.67 2492.76 1049.38 2491 1046.44C2489.23 1043.5 2487.47 1037.92 2486.59 1032.05C2485.71 1026.17 2486 1019.71 2486.89 1015.6C2487.77 1011.49 2489.82 1009.43 2490.41 1008.85C2491 1007.97 2490.41 1008.26 2524.77 1006.79C2559.13 1005.03 2648.42 1000.33 2662.81 999.449C2677.2 998.567 2683.07 998.567 2694.82 997.686C2689.54 1009.73 2694.23 1034.99 2694.82 1037.34C2692.47 1037.92 2687.19 1038.22 2653.7 1040.27H2653.41Z" fill="#FEFEFE"/>
<path fill-rule="evenodd" clip-rule="evenodd" d="M2469.56 1057.01C2466.62 1049.67 2463.68 1042.03 2463.39 1033.22C2463.1 1024.12 2465.45 1013.55 2466.62 1008.26C2467.8 1002.97 2467.8 1002.97 2464.86 1002.97C2461.63 1003.27 2455.17 1003.56 2452.23 1003.56C2449.29 1003.56 2449.59 1003.56 2449 1006.2C2448.41 1008.85 2447.24 1014.13 2446.94 1020.01C2446.36 1025.88 2446.36 1032.05 2447.24 1037.92C2448.12 1043.8 2449.88 1049.08 2450.76 1052.31C2451.94 1055.54 2452.23 1056.72 2452.52 1057.89C2458.4 1057.6 2463.98 1057.31 2469.85 1057.01H2469.56Z" fill="#6057A0"/>
<path fill-rule="evenodd" clip-rule="evenodd" d="M2313.6 760.967C2315.95 755.093 2321.83 748.045 2323.3 740.408C2324.77 732.772 2321.83 724.549 2318.89 720.437C2315.95 716.032 2312.72 715.738 2306.85 715.738C2300.98 715.738 2292.46 716.032 2286 719.262C2279.83 722.787 2275.72 729.248 2275.13 736.297C2274.54 743.345 2277.48 750.981 2280.12 755.387C2282.77 759.792 2285.7 760.967 2287.17 763.317C2288.64 765.666 2289.23 769.484 2291.87 801.791C2294.51 834.098 2299.21 895.186 2303.33 945.996C2307.44 996.805 2311.26 1037.34 2316.84 1057.01C2322.71 1076.69 2330.64 1075.81 2339.74 1064.94C2348.85 1054.08 2359.42 1033.22 2362.95 1019.42C2366.47 1005.62 2362.95 998.861 2355.6 968.61C2348.26 938.36 2336.81 884.907 2328.88 849.076C2320.95 813.245 2316.84 794.742 2314.19 783.288C2311.55 771.834 2310.96 767.135 2313.31 761.261L2313.6 760.967Z" fill="#47B852"/>
<path fill-rule="evenodd" clip-rule="evenodd" d="M2209.05 653.768C2202.59 666.397 2196.42 679.32 2193.48 686.075C2190.55 692.83 2190.84 693.417 2204.06 706.633C2217.27 719.556 2243.12 745.108 2256.04 757.737C2268.96 770.365 2268.96 770.365 2272.78 761.848C2276.6 753.331 2284.24 736.297 2287.76 727.779C2291.58 719.262 2291.58 719.262 2278.95 709.57C2266.32 699.878 2241.36 680.201 2227.55 669.334C2213.75 658.467 2211.4 656.118 2208.76 654.062L2209.05 653.768Z" fill="#BDBEBE"/>
<path fill-rule="evenodd" clip-rule="evenodd" d="M2326.53 650.831C2333.87 661.992 2340.92 673.152 2344.44 679.026C2347.97 684.9 2347.97 685.781 2344.15 700.466C2340.33 715.151 2332.7 743.639 2328.88 758.03C2325.06 772.421 2325.06 772.421 2320.65 764.785C2316.25 757.149 2307.14 742.171 2302.44 734.534C2298.04 726.898 2298.04 726.898 2302.15 715.444C2306.56 703.99 2315.07 681.082 2319.77 668.453C2324.47 655.824 2325.35 653.181 2326.23 650.537L2326.53 650.831Z" fill="#BDBEBE"/>
<path fill-rule="evenodd" clip-rule="evenodd" d="M2201.12 669.921C2188.2 685.487 2163.23 697.235 2149.14 708.395C2135.04 719.556 2120.06 726.311 2100.97 734.534C2081.88 742.758 2059.26 752.156 2044.87 766.841C2030.48 781.526 2024.9 801.204 2024.61 819.413C2024.31 837.916 2029.31 854.95 2037.53 872.572C2045.75 889.9 2057.21 907.815 2067.78 924.262C2078.35 940.709 2087.75 955.981 2093.04 980.065C2098.33 1004.15 2099.79 1037.34 2097.15 1079.63C2094.51 1122.21 2088.34 1174.2 2082.76 1224.71C2077.47 1275.23 2072.77 1323.98 2070.72 1348.65C2068.37 1373.03 2068.37 1373.03 2086.58 1372.74C2104.79 1372.44 2140.91 1371.86 2169.69 1369.8C2198.48 1368.04 2220.21 1364.81 2233.72 1357.17C2247.23 1349.53 2253.1 1337.49 2257.8 1311.65C2262.5 1285.8 2266.32 1246.45 2269.55 1213.26C2272.78 1179.78 2275.13 1152.46 2272.78 1094.31C2270.14 1035.87 2262.5 946.289 2249.58 877.858C2236.66 809.133 2217.57 760.967 2206.99 729.835C2196.42 698.704 2205.23 697.529 2200.53 669.921H2201.12Z" fill="#EB7366"/>
<path fill-rule="evenodd" clip-rule="evenodd" d="M2674.26 694.004L2288.64 712.801C2290.4 703.109 2295.69 693.123 2294.22 683.431C2292.75 674.914 2284.53 668.747 2279.83 661.404L2672.21 642.02C2692.77 658.173 2689.24 677.264 2674.26 694.298V694.004Z" fill="#7B9AA7"/>
<path fill-rule="evenodd" clip-rule="evenodd" d="M2467.21 698.997L2291.87 706.633C2293.34 698.997 2297.74 692.536 2296.28 684.9C2295.1 678.438 2289.82 671.977 2286 666.397L2464.27 656.999C2480.42 669.334 2478.37 686.075 2466.91 698.997H2467.21Z" fill="#F3F3F3"/>
<path fill-rule="evenodd" clip-rule="evenodd" d="M2698.35 937.479L2338.27 954.807L2335.34 893.718L2696.88 876.683L2698.35 937.479Z" fill="#426148"/>
<path fill-rule="evenodd" clip-rule="evenodd" d="M2370.88 708.102L2656.94 693.123C2646.95 693.711 2658.7 764.198 2666.33 793.567C2568.24 799.148 2469.85 805.022 2371.76 810.602C2348.26 812.07 2329.17 793.861 2328.88 770.365L2328.58 753.037C2328.29 729.542 2347.38 709.277 2370.58 708.102H2370.88Z" fill="#7D6185"/>
<path fill-rule="evenodd" clip-rule="evenodd" d="M2708.92 870.516C2595.55 877.565 2480.72 884.32 2367.64 889.019C2353.55 889.606 2349.44 818.532 2367.35 817.357L2707.45 796.211C2697.47 817.063 2699.23 842.615 2708.92 870.516Z" fill="white"/>
<path fill-rule="evenodd" clip-rule="evenodd" d="M2374.99 716.619L2648.42 703.696C2648.42 703.696 2649.3 729.542 2652.24 744.814C2656.05 765.96 2660.75 786.519 2660.75 786.519L2375.87 799.441C2357.07 800.322 2341.21 785.638 2341.21 766.841V752.744C2340.92 733.653 2356.48 717.5 2375.28 716.325L2374.99 716.619Z" fill="#FEFEFE"/>
<path fill-rule="evenodd" clip-rule="evenodd" d="M2369.11 750.394L2636.67 737.765C2636.96 737.765 2650.77 737.178 2650.77 736.884V735.709C2650.77 735.416 2636.96 736.297 2636.67 736.297L2340.92 750.394C2340.92 750.394 2340.92 750.688 2340.92 750.981V751.275C2340.92 751.569 2368.82 750.394 2369.11 750.394Z" fill="#919291"/>
<path fill-rule="evenodd" clip-rule="evenodd" d="M2369.11 731.891L2636.67 719.262C2636.96 719.262 2649.3 718.675 2649.3 718.381V716.913C2649.3 716.619 2637.26 717.5 2636.96 717.5L2347.97 731.304C2347.67 731.304 2347.38 731.598 2347.38 731.891L2347.09 732.479C2347.09 732.772 2368.82 731.598 2369.11 731.598V731.891Z" fill="#919291"/>
<path fill-rule="evenodd" clip-rule="evenodd" d="M2369.11 787.106L2636.67 774.477C2636.97 774.477 2657.82 773.596 2657.82 773.302L2657.52 772.128C2657.52 771.834 2636.97 773.009 2636.67 773.009C2595.85 775.065 2347.38 785.05 2347.97 786.812C2347.97 787.106 2347.97 787.106 2348.85 787.987C2349.14 788.281 2368.82 787.106 2369.11 787.106Z" fill="#919291"/>
<path fill-rule="evenodd" clip-rule="evenodd" d="M2355.31 850.251C2470.44 843.202 2585.86 836.153 2700.99 829.398C2700.99 829.105 2700.99 828.517 2700.99 827.636C2585.86 834.391 2470.73 841.146 2355.31 847.901C2355.31 847.608 2355.31 847.02 2355.31 847.608C2355.31 847.901 2355.31 849.37 2355.31 850.545V850.251Z" fill="#919291"/>
<path fill-rule="evenodd" clip-rule="evenodd" d="M2356.19 836.153C2471.32 828.811 2586.74 821.469 2701.87 813.832C2701.87 813.539 2701.87 813.539 2702.16 813.245C2702.16 812.951 2702.16 812.364 2702.46 811.777C2587.33 818.825 2472.2 825.874 2356.78 832.923C2356.48 834.098 2356.48 834.979 2356.19 836.153Z" fill="#919291"/>
<path fill-rule="evenodd" clip-rule="evenodd" d="M2355.6 856.712C2470.73 849.663 2586.16 842.908 2701.28 835.86C2701.28 835.566 2701.28 835.566 2701.28 835.272C2701.28 834.979 2701.28 834.685 2701.28 834.098C2586.16 840.853 2470.73 847.608 2355.6 854.363C2355.6 854.363 2355.6 854.363 2355.6 854.656C2355.6 854.95 2355.6 855.831 2355.6 856.712Z" fill="#919291"/>
<path fill-rule="evenodd" clip-rule="evenodd" d="M2359.13 878.739C2474.55 871.691 2589.68 864.642 2705.1 857.887C2705.1 857.593 2705.1 857.3 2704.81 857.006C2704.81 856.712 2704.51 856.418 2704.51 855.831C2589.09 862.586 2473.67 869.341 2358.25 876.096C2358.25 876.39 2358.54 876.683 2358.54 877.271C2358.54 877.565 2358.83 878.152 2358.83 878.739H2359.13Z" fill="#919291"/>
<path fill-rule="evenodd" clip-rule="evenodd" d="M2418.45 1059.36C2415.52 1052.02 2412.58 1044.38 2412.29 1035.57C2411.99 1026.47 2414.34 1015.9 2415.52 1010.61C2416.69 1005.32 2416.69 1005.32 2413.76 1005.32C2410.52 1005.62 2404.06 1005.91 2401.13 1005.91C2398.19 1005.91 2398.48 1005.91 2397.9 1008.55C2397.31 1011.2 2396.13 1016.48 2395.84 1022.36C2395.25 1028.23 2395.25 1034.4 2396.13 1040.27C2397.01 1046.15 2398.78 1051.43 2399.66 1054.66C2400.83 1057.89 2401.13 1059.07 2401.42 1060.24C2407.29 1059.95 2412.87 1059.66 2418.75 1059.36H2418.45Z" fill="#6057A0"/>
<path fill-rule="evenodd" clip-rule="evenodd" d="M2700.7 1237.93C2697.76 1237.34 2695.41 1240.87 2694.24 1244.68C2693.06 1248.5 2693.06 1252.32 2693.94 1256.73C2694.82 1261.13 2696.29 1265.54 2698.05 1269.65C2699.82 1273.76 2701.58 1277.29 2704.51 1279.05C2707.75 1281.1 2712.15 1281.4 2714.21 1279.34C2716.56 1276.99 2716.56 1272.29 2715.38 1266.42C2714.21 1260.84 2712.15 1254.38 2709.21 1248.8C2706.57 1243.22 2703.34 1238.22 2700.4 1237.64L2700.7 1237.93Z" fill="#F8BB97"/>
<path fill-rule="evenodd" clip-rule="evenodd" d="M2723.6 1233.23C2720.96 1232.94 2718.91 1233.52 2717.73 1234.99C2716.26 1236.46 2715.67 1238.81 2715.67 1241.75C2715.67 1244.68 2716.26 1247.92 2717.44 1252.32C2718.61 1256.73 2720.37 1262.01 2722.14 1266.71C2723.9 1271.41 2725.07 1275.23 2727.42 1277.58C2729.77 1279.93 2732.71 1280.52 2735.65 1280.22C2738.58 1279.63 2741.52 1277.87 2742.69 1275.23C2743.87 1272.59 2743.58 1268.77 2741.52 1262.01C2739.46 1255.26 2735.94 1245.57 2732.71 1240.28C2729.48 1234.99 2726.54 1233.82 2723.9 1233.52L2723.6 1233.23Z" fill="#F8BB97"/>
<path fill-rule="evenodd" clip-rule="evenodd" d="M2741.23 1228.53C2739.17 1230.29 2738.88 1232.64 2739.17 1235.87C2739.46 1239.1 2740.05 1242.92 2740.93 1247.33C2741.81 1251.73 2743.28 1256.73 2745.04 1261.43C2746.81 1266.12 2748.57 1270.24 2750.92 1272.59C2752.97 1274.94 2755.62 1275.23 2757.67 1274.35C2760.02 1273.47 2762.08 1271.7 2762.96 1268.47C2763.84 1265.24 2763.25 1260.54 2762.37 1254.96C2761.2 1249.38 2759.73 1242.34 2757.67 1237.05C2755.91 1231.76 2753.56 1227.94 2750.62 1226.77C2747.39 1225.59 2743.58 1226.77 2741.52 1228.53H2741.23Z" fill="#F8BB97"/>
<path fill-rule="evenodd" clip-rule="evenodd" d="M2761.2 1230C2761.78 1225.89 2763.84 1223.54 2766.78 1223.25C2769.71 1222.95 2773.83 1224.13 2776.76 1227.36C2779.7 1230.29 2781.76 1235.29 2782.93 1239.69C2784.11 1244.39 2784.11 1248.5 2783.81 1252.91C2783.52 1257.31 2782.93 1261.72 2781.76 1264.66C2780.58 1267.59 2778.53 1269.06 2776.18 1268.77C2773.83 1268.47 2771.18 1266.42 2768.83 1262.31C2766.48 1258.2 2764.72 1252.32 2763.25 1246.45C2761.78 1240.28 2760.61 1234.11 2761.2 1230Z" fill="#F8BB97"/>
<path fill-rule="evenodd" clip-rule="evenodd" d="M2374.69 1193.58C2376.75 1221.19 2378.81 1248.5 2380.57 1276.11C2383.21 1276.11 2386.15 1275.82 2388.79 1275.82C2386.73 1248.5 2384.39 1220.9 2382.33 1193.58C2379.69 1193.58 2377.04 1193.88 2374.69 1193.88V1193.58Z" fill="#D2CB6D"/>
<path fill-rule="evenodd" clip-rule="evenodd" d="M2395.84 1192.7C2397.9 1220.31 2399.95 1247.62 2401.71 1275.23C2404.36 1275.23 2407.29 1274.94 2409.94 1274.94C2407.88 1247.62 2405.53 1220.01 2403.48 1192.7C2400.83 1192.7 2398.19 1192.99 2395.84 1192.99V1192.7Z" fill="#D2CB6D"/>
<path fill-rule="evenodd" clip-rule="evenodd" d="M2153.54 782.407C2136.21 759.499 2118 746.282 2104.2 742.171C2090.4 738.059 2080.7 742.758 2068.96 752.45C2057.21 762.142 2043.4 776.533 2036.36 792.98C2029.31 809.427 2028.72 827.93 2032.24 845.845C2036.06 863.761 2043.99 881.089 2068.37 914.864C2093.04 948.639 2134.16 998.861 2178.8 1041.15C2223.44 1083.45 2271.9 1117.81 2321.24 1151C2370.88 1184.48 2421.69 1216.78 2447.53 1232.94C2473.67 1249.09 2474.84 1249.09 2483.36 1235.87C2491.88 1222.66 2507.74 1195.93 2515.67 1182.42C2523.6 1169.21 2523.6 1169.21 2495.4 1151.58C2467.21 1134.26 2410.52 1099.31 2357.37 1049.38C2303.91 999.449 2253.98 934.835 2220.5 886.082C2187.02 837.622 2170.57 805.022 2153.25 782.407H2153.54Z" fill="#EB7366"/>
<path fill-rule="evenodd" clip-rule="evenodd" d="M2514.79 1199.46C2507.15 1209.15 2493.93 1229.12 2488.06 1239.69C2482.19 1250.27 2483.95 1251.15 2487.77 1258.49C2491.58 1265.54 2497.75 1279.05 2503.33 1287.86C2508.91 1296.67 2513.61 1301.07 2517.72 1303.42C2521.83 1305.48 2525.07 1305.48 2527.12 1304.89C2529.18 1304.31 2530.35 1302.84 2530.35 1300.78C2530.35 1298.73 2529.47 1295.79 2529.76 1295.2C2530.06 1294.61 2531.53 1296.08 2533.29 1298.14C2535.05 1300.19 2537.11 1302.84 2539.16 1304.31C2541.22 1305.77 2543.57 1306.65 2545.92 1306.07C2548.27 1305.77 2550.62 1304.6 2551.2 1302.25C2552.09 1299.9 2551.2 1296.96 2551.5 1295.79C2551.79 1294.61 2552.97 1295.49 2554.14 1296.96C2555.32 1298.43 2556.49 1300.19 2559.13 1301.37C2561.78 1302.84 2565.6 1303.72 2568.24 1302.84C2571.18 1301.96 2572.94 1299.02 2573.23 1295.49C2573.53 1291.97 2572.35 1287.86 2572.35 1285.51C2572.06 1283.16 2572.94 1282.87 2574.11 1283.45C2575.29 1284.04 2577.05 1285.8 2578.81 1288.15C2580.57 1290.21 2582.34 1292.85 2585.27 1293.73C2588.21 1294.61 2592.03 1293.44 2594.08 1291.38C2596.14 1289.62 2596.73 1286.98 2595.85 1284.04C2595.26 1281.1 2593.2 1277.87 2591.15 1274.35C2588.8 1270.82 2586.45 1267.01 2583.22 1263.48C2580.28 1259.66 2576.76 1256.14 2573.82 1252.61C2570.59 1249.09 2567.95 1245.86 2566.18 1242.92C2564.42 1239.99 2563.83 1237.05 2564.13 1234.99C2564.13 1232.94 2565.01 1231.47 2566.77 1231.18C2568.24 1230.88 2570.88 1232.06 2572.94 1233.82C2574.99 1235.58 2577.05 1237.64 2579.99 1239.99C2582.92 1242.34 2586.74 1244.98 2591.44 1246.45C2595.85 1247.92 2601.13 1247.92 2604.95 1246.74C2609.06 1245.57 2612 1242.63 2613.76 1240.57C2615.23 1238.52 2615.23 1236.76 2613.47 1235.29C2611.71 1233.82 2608.48 1232.94 2604.36 1231.47C2600.25 1230 2594.97 1227.94 2590.27 1225.01C2585.86 1222.07 2582.04 1218.55 2577.34 1215.32C2572.64 1212.08 2566.77 1208.85 2560.02 1205.33C2553.26 1201.81 2545.33 1197.69 2539.75 1195.05C2534.17 1192.41 2530.94 1191.23 2528 1190.64C2525.07 1189.76 2522.72 1189.18 2515.08 1198.87L2514.79 1199.46Z" fill="#F8BB97"/>
<path fill-rule="evenodd" clip-rule="evenodd" d="M2515.96 1180.66C2519.49 1181.25 2525.36 1184.48 2528.59 1186.24C2531.53 1188 2531.82 1188.3 2524.77 1199.16C2517.72 1210.03 2503.33 1231.17 2495.11 1242.34C2486.89 1253.5 2484.54 1254.67 2481.6 1253.79C2478.66 1253.2 2475.43 1250.56 2473.67 1249.38C2471.91 1248.21 2471.91 1248.21 2478.37 1237.64C2484.83 1227.06 2497.75 1205.62 2504.8 1193.88C2511.85 1182.13 2512.73 1179.78 2516.26 1180.37L2515.96 1180.66Z" fill="#F1F0EE"/>
<path fill-rule="evenodd" clip-rule="evenodd" d="M2573.53 1115.46C2575.29 1138.66 2577.05 1161.57 2578.81 1184.77C2591.74 1184.18 2604.95 1183.6 2617.87 1183.01C2616.11 1159.81 2614.06 1136.6 2612.29 1113.4C2599.37 1113.99 2586.45 1114.58 2573.53 1115.16V1115.46Z" fill="#4C4741"/>
<path fill-rule="evenodd" clip-rule="evenodd" d="M2612 1113.7C2613.76 1136.9 2615.82 1160.1 2617.58 1183.3C2621.4 1183.01 2625.51 1183.01 2629.33 1182.72C2627.57 1159.51 2625.8 1136.31 2623.75 1113.11C2619.64 1113.4 2615.82 1113.4 2611.71 1113.7H2612Z" fill="#D2CB6D"/>
<path fill-rule="evenodd" clip-rule="evenodd" d="M2561.48 1116.05C2563.25 1139.25 2565.3 1162.45 2567.06 1185.65C2570.88 1185.36 2574.99 1185.06 2578.81 1185.06C2577.05 1161.86 2575.29 1138.95 2573.23 1115.75C2569.12 1116.05 2565.3 1116.05 2561.19 1116.34L2561.48 1116.05Z" fill="#D2CB6D"/>
<path fill-rule="evenodd" clip-rule="evenodd" d="M2451.35 888.431C2453.11 908.696 2454.58 928.961 2456.34 949.226C2460.16 948.933 2464.27 948.933 2468.09 948.639C2466.33 928.374 2464.86 908.109 2463.1 887.844C2458.98 888.138 2455.17 888.138 2451.05 888.431H2451.35Z" fill="#EDE540"/>
<path fill-rule="evenodd" clip-rule="evenodd" d="M2488.65 886.669C2490.41 906.934 2491.88 927.199 2493.64 947.464C2497.46 947.171 2501.57 947.171 2505.39 946.877C2503.92 926.612 2502.16 906.347 2500.69 886.375C2496.58 886.669 2492.76 886.669 2488.65 886.963V886.669Z" fill="#EDE540"/>
<path fill-rule="evenodd" clip-rule="evenodd" d="M2414.64 890.194C2416.4 910.459 2417.87 930.724 2419.63 950.989C2423.45 950.695 2427.56 950.695 2431.38 950.401C2429.61 930.136 2428.15 909.871 2426.38 889.606C2422.27 889.9 2418.45 889.9 2414.34 890.194H2414.64Z" fill="#EDE540"/>
<path fill-rule="evenodd" clip-rule="evenodd" d="M2539.75 999.155C2536.52 992.106 2532.11 983.883 2531.82 975.072C2531.53 966.555 2533.29 953.632 2534.76 945.115C2531.53 945.408 2525.07 945.702 2522.13 945.702C2519.19 945.702 2519.49 945.702 2518.9 948.345C2515.67 966.848 2514.79 975.953 2520.66 994.456C2521.84 997.686 2522.13 998.861 2522.42 1000.04C2528.3 999.742 2533.88 999.449 2539.75 999.155Z" fill="#87C16B"/>
<path fill-rule="evenodd" clip-rule="evenodd" d="M2509.21 1000.92C2506.27 993.575 2503.33 985.939 2503.04 977.128C2502.74 968.61 2503.92 953.338 2504.21 946.877C2500.98 947.171 2494.52 947.464 2491.58 947.464C2488.65 947.464 2488.94 947.464 2488.35 950.108C2486.89 967.436 2486 976.834 2490.12 996.218C2491.29 999.449 2491.58 1000.62 2491.88 1001.8C2497.75 1001.5 2503.33 1001.21 2509.21 1000.92Z" fill="#87C16B"/>
<path fill-rule="evenodd" clip-rule="evenodd" d="M2572.65 997.686C2569.41 990.638 2566.77 982.708 2566.48 973.897C2566.18 965.38 2566.18 952.163 2567.65 943.646C2564.42 943.94 2557.96 944.234 2555.02 944.234C2552.09 944.234 2552.38 944.234 2551.79 946.877C2548.56 965.38 2547.68 974.484 2553.56 992.987C2554.73 996.218 2555.02 997.393 2555.32 998.567C2561.19 998.274 2566.77 997.98 2572.65 997.686Z" fill="#87C16B"/>
<path fill-rule="evenodd" clip-rule="evenodd" d="M2729.77 1049.08C2664.28 1052.02 2598.78 1054.96 2533.29 1057.89C2533.88 1076.69 2534.46 1095.49 2535.05 1114.58C2600.25 1111.35 2665.75 1107.82 2730.95 1104.59C2730.65 1086.09 2730.07 1067.59 2729.77 1049.08Z" fill="#FEFEFE"/>
<path fill-rule="evenodd" clip-rule="evenodd" d="M2491.88 1055.84C2492.47 1076.98 2493.05 1098.13 2493.64 1119.28C2489.24 1119.57 2484.83 1119.57 2480.72 1119.86C2480.13 1098.72 2479.84 1077.57 2479.25 1056.43C2483.66 1056.13 2487.77 1056.13 2492.17 1055.84H2491.88Z" fill="#EDF1E5"/>
<path fill-rule="evenodd" clip-rule="evenodd" d="M2491.88 1055.84C2492.47 1076.98 2493.05 1098.13 2493.64 1119.28C2489.24 1119.57 2484.83 1119.57 2480.72 1119.86C2480.13 1098.72 2479.84 1077.57 2479.25 1056.43C2483.66 1056.13 2487.77 1056.13 2492.17 1055.84H2491.88Z" fill="#EDF1E5"/>
<path fill-rule="evenodd" clip-rule="evenodd" d="M2467.5 1057.01C2468.09 1078.16 2468.68 1099.31 2469.26 1120.45C2464.86 1120.75 2460.45 1120.75 2456.34 1121.04C2455.75 1099.89 2455.46 1078.75 2454.87 1057.6C2459.28 1057.31 2463.39 1057.31 2467.8 1057.01H2467.5Z" fill="#EDF1E5"/>
<path fill-rule="evenodd" clip-rule="evenodd" d="M2444.59 1058.19C2445.18 1078.75 2445.77 1099.31 2446.36 1119.86C2441.95 1116.63 2437.55 1113.7 2433.14 1110.47C2432.85 1093.14 2432.26 1076.1 2431.96 1058.78C2436.37 1058.48 2440.48 1058.48 2444.89 1058.19H2444.59Z" fill="#EDF1E5"/>
<path fill-rule="evenodd" clip-rule="evenodd" d="M2631.09 1118.4C2668.98 1116.63 2706.86 1114.87 2744.75 1113.11C2746.81 1132.49 2748.86 1152.17 2750.63 1171.55C2712.44 1173.61 2674.26 1175.37 2635.79 1177.43C2634.32 1157.75 2632.56 1138.07 2631.09 1118.4Z" fill="#FEFEFE"/>
<path fill-rule="evenodd" clip-rule="evenodd" d="M2631.38 1123.68C2631.38 1123.98 2631.38 1124.27 2631.38 1124.86C2669.27 1123.09 2707.16 1121.33 2745.05 1119.57C2745.05 1118.98 2745.05 1118.69 2745.05 1118.1C2707.16 1119.86 2669.27 1121.92 2631.38 1123.68Z" fill="#B0B1B1"/>
<path fill-rule="evenodd" clip-rule="evenodd" d="M2633.15 1145.12C2633.15 1145.42 2633.15 1145.71 2633.15 1146.3C2671.03 1144.53 2709.21 1142.77 2747.1 1141.01C2747.1 1140.42 2747.1 1140.13 2747.1 1139.54C2709.21 1141.3 2671.03 1143.36 2633.15 1145.12Z" fill="#B0B1B1"/>
<path fill-rule="evenodd" clip-rule="evenodd" d="M2634.03 1156.58C2634.03 1156.87 2634.03 1157.16 2634.03 1157.75C2672.21 1155.99 2710.39 1154.23 2748.28 1152.46C2748.28 1152.17 2748.28 1151.58 2748.28 1151.29C2710.09 1153.05 2672.21 1155.11 2634.03 1156.87V1156.58Z" fill="#B0B1B1"/>
<path fill-rule="evenodd" clip-rule="evenodd" d="M2635.2 1172.14C2635.2 1172.44 2635.2 1172.73 2635.2 1173.02C2673.38 1171.26 2711.56 1169.5 2749.74 1167.44C2749.74 1167.15 2749.74 1166.56 2749.74 1166.27C2711.56 1168.03 2673.38 1170.09 2635.2 1171.85V1172.14Z" fill="#B0B1B1"/>
<path fill-rule="evenodd" clip-rule="evenodd" d="M3124.5 1652.04C3160.92 1650.28 3197.34 1648.52 3231.99 1648.52C3266.65 1648.81 3299.54 1650.87 3332.44 1652.92C3366.21 1629.43 3399.99 1605.64 3423.19 1581.55C3446.39 1557.47 3459.31 1532.51 3469.89 1485.22C3480.46 1437.64 3488.98 1367.45 3491.33 1328.09C3493.68 1288.74 3489.57 1280.22 3477.52 1275.82C3465.48 1271.41 3445.51 1270.53 3397.64 1267.59C3349.77 1264.36 3274.29 1258.78 3231.7 1256.14C3189.11 1253.5 3179.72 1253.79 3170.9 1284.04C3162.09 1314.29 3153.58 1374.79 3146.23 1433.24C3139.19 1491.68 3133.31 1548.07 3127.44 1604.76C3126.26 1620.62 3125.38 1636.48 3124.21 1652.04H3124.5Z" fill="#1F1B20" stroke="#2B2A29" stroke-width="0.755866"/>
<path fill-rule="evenodd" clip-rule="evenodd" d="M3489.56 1287.56C3494.26 1225.59 3418.78 1074.93 3503.66 916.332C3513.65 897.83 3534.21 869.635 3545.37 848.782C3556.53 827.93 3559.76 815.007 3558.29 805.315C3556.82 795.623 3550.36 789.162 3538.91 782.701C3527.75 776.239 3511.59 769.778 3497.2 763.317C3487.51 758.911 3433.17 729.248 3432.88 728.954C3420.84 744.814 3339.78 822.937 3293.38 848.782C3277.81 857.593 3279.28 846.433 3307.77 738.353C3218.19 804.434 3208.2 867.579 3218.19 923.969C3228.17 979.183 3243.45 1162.45 3148.88 1293.44C3241.98 1293.44 3335.37 1293.44 3397.93 1291.97C3460.49 1290.5 3489.27 1294.61 3489.86 1287.27L3489.56 1287.56Z" fill="#A48CC1"/>
<path fill-rule="evenodd" clip-rule="evenodd" d="M3324.51 1352.18L2876.33 1332.5L2881.03 1256.43L3329.5 1276.11L3324.51 1352.18Z" fill="#4F4C5C"/>
<path fill-rule="evenodd" clip-rule="evenodd" d="M2915.09 1257.9L3298.96 1274.64V1211.2L2920.97 1193.29L2915.09 1257.9Z" fill="#DD3934"/>
<path fill-rule="evenodd" clip-rule="evenodd" d="M2934.48 1194.17L3277.52 1210.32L3278.98 1151.88L2935.95 1135.43L2934.48 1194.17Z" fill="#573085"/>
<path fill-rule="evenodd" clip-rule="evenodd" d="M2966.49 1136.9C3064.29 1141.6 3161.8 1146.3 3259.6 1150.7C3270.17 1134.84 3269.59 1118.1 3260.78 1100.77L2967.67 1086.97C2972.66 1104 2972.95 1120.75 2966.49 1136.9Z" fill="#2C2855"/>
<path fill-rule="evenodd" clip-rule="evenodd" d="M2989.69 1088.14L3282.8 1101.95L3284.27 1052.02L2991.16 1038.22L2989.69 1088.14Z" fill="#DA905F"/>
<path fill-rule="evenodd" clip-rule="evenodd" d="M3009.67 1131.61C3040.5 1133.37 3097.77 1136.9 3126.85 1138.66C3156.22 1140.13 3157.69 1139.84 3159.16 1137.19C3160.63 1134.55 3162.39 1129.56 3163.27 1123.98C3164.15 1118.4 3163.86 1112.52 3162.98 1109C3162.09 1105.18 3160.33 1103.42 3159.74 1102.83C3159.16 1102.24 3159.74 1102.54 3128.03 1100.77C3096.31 1099.31 3014.07 1094.9 3000.56 1094.02C2987.34 1093.14 2981.76 1093.14 2971.19 1092.26C2976.18 1103.12 2971.78 1126.62 2971.19 1128.67C2973.54 1129.26 2978.24 1129.56 3009.08 1131.32L3009.67 1131.61Z" fill="#FEFEFE"/>
<path fill-rule="evenodd" clip-rule="evenodd" d="M3179.42 1147.18C3182.07 1140.42 3185 1133.37 3185.3 1125.15C3185.59 1116.93 3183.53 1106.94 3182.36 1102.24C3181.18 1097.25 3181.18 1097.25 3184.12 1097.54C3187.06 1097.54 3192.93 1097.84 3195.87 1098.13C3198.81 1098.13 3198.51 1098.13 3198.81 1100.77C3199.1 1103.12 3200.27 1108.12 3200.86 1113.4C3201.45 1118.69 3201.16 1124.56 3200.57 1129.85C3199.69 1135.14 3198.22 1140.13 3197.34 1143.07C3196.46 1146 3196.16 1147.18 3195.58 1148.06C3190.29 1147.77 3185 1147.47 3179.72 1147.18H3179.42Z" fill="#6057A0"/>
<path fill-rule="evenodd" clip-rule="evenodd" d="M3226.12 1149.23C3228.76 1142.48 3231.7 1135.43 3231.99 1127.21C3232.29 1118.98 3230.23 1109 3229.06 1104.3C3227.88 1099.31 3227.88 1099.31 3230.82 1099.6C3233.76 1099.6 3239.63 1099.89 3242.57 1100.19C3245.5 1100.19 3245.21 1100.19 3245.5 1102.83C3245.8 1105.18 3246.97 1110.17 3247.56 1115.46C3248.15 1120.75 3247.85 1126.62 3247.27 1131.91C3246.38 1137.19 3244.92 1142.18 3244.03 1145.12C3243.15 1148.06 3242.86 1149.23 3242.27 1150.11C3236.99 1149.82 3231.7 1149.53 3226.41 1149.23H3226.12Z" fill="#6057A0"/>
<path fill-rule="evenodd" clip-rule="evenodd" d="M2947.99 1320.16C2949.75 1319.58 2951.51 1322.51 2952.1 1325.16C2952.98 1328.09 2952.69 1331.03 2952.1 1334.26C2951.51 1337.49 2950.63 1341.02 2949.46 1343.95C2948.28 1346.89 2947.4 1349.53 2945.35 1351C2943.29 1352.47 2940.65 1352.77 2939.18 1351.3C2937.71 1349.53 2937.71 1346.01 2938.59 1341.6C2939.18 1337.49 2940.65 1332.5 2942.41 1328.39C2944.17 1324.28 2946.23 1320.46 2947.99 1319.87V1320.16Z" fill="#F8BB97"/>
<path fill-rule="evenodd" clip-rule="evenodd" d="M2933.3 1316.64C2934.77 1316.35 2936.24 1316.93 2937.12 1317.82C2938 1318.99 2938.59 1320.75 2938.59 1322.81C2938.59 1324.86 2938.3 1327.51 2937.42 1330.74C2936.53 1333.97 2935.65 1338.08 2934.48 1341.31C2933.3 1344.84 2932.42 1347.77 2931.25 1349.53C2929.78 1351.3 2928.02 1351.88 2925.96 1351.3C2924.2 1351 2922.14 1349.53 2921.56 1347.48C2920.68 1345.42 2920.97 1342.78 2922.44 1337.49C2923.61 1332.5 2925.96 1325.16 2928.02 1321.34C2930.07 1317.23 2931.84 1316.35 2933.6 1316.35L2933.3 1316.64Z" fill="#F8BB97"/>
<path fill-rule="evenodd" clip-rule="evenodd" d="M2922.44 1313.12C2923.91 1314.58 2923.91 1316.05 2923.61 1318.4C2923.61 1320.75 2923.03 1323.69 2922.44 1326.92C2921.85 1330.15 2920.97 1333.97 2919.79 1337.49C2918.62 1341.02 2917.45 1344.25 2915.98 1346.01C2914.51 1347.77 2913.04 1348.07 2911.57 1347.48C2910.1 1346.89 2908.63 1345.42 2908.05 1343.07C2907.46 1340.72 2907.75 1337.2 2908.34 1332.79C2908.93 1328.39 2910.1 1323.4 2911.28 1319.58C2912.45 1315.76 2913.92 1312.82 2915.68 1311.94C2917.74 1311.06 2920.09 1311.94 2921.56 1313.41L2922.44 1313.12Z" fill="#F8BB97"/>
<path fill-rule="evenodd" clip-rule="evenodd" d="M2909.81 1314C2909.51 1310.77 2908.05 1309.3 2906.28 1309C2904.23 1308.71 2901.88 1309.59 2899.82 1311.94C2898.06 1314.29 2896.59 1317.82 2896 1321.34C2895.42 1324.86 2895.12 1328.09 2895.42 1331.33C2895.71 1334.56 2896 1338.08 2896.89 1340.14C2897.77 1342.19 2898.94 1343.37 2900.41 1343.07C2901.88 1342.78 2903.64 1341.31 2905.11 1338.37C2906.58 1335.44 2907.75 1331.03 2908.63 1326.63C2909.51 1322.22 2910.1 1317.52 2909.81 1314.29V1314Z" fill="#F8BB97"/>
<path fill-rule="evenodd" clip-rule="evenodd" d="M3212.02 1270.82C3210.26 1296.08 3208.2 1321.63 3206.44 1346.89C3203.8 1346.89 3201.45 1346.6 3198.81 1346.6C3200.86 1321.34 3202.92 1295.79 3204.97 1270.53C3207.32 1270.53 3209.67 1270.82 3212.02 1270.82Z" fill="#D2CB6D"/>
<path fill-rule="evenodd" clip-rule="evenodd" d="M3192.34 1269.94C3190.58 1295.2 3188.53 1320.75 3186.76 1346.01C3184.12 1346.01 3181.77 1345.72 3179.13 1345.72C3181.18 1320.46 3183.24 1294.91 3185.3 1269.65C3187.65 1269.65 3189.99 1269.94 3192.34 1269.94Z" fill="#D2CB6D"/>
<path fill-rule="evenodd" clip-rule="evenodd" d="M3083.38 1201.22C3081.62 1222.66 3080.15 1243.8 3078.39 1265.24C3066.35 1264.66 3054.31 1264.07 3042.27 1263.78C3044.03 1242.34 3045.79 1220.9 3047.55 1199.75C3059.59 1200.34 3071.34 1200.92 3083.38 1201.51V1201.22Z" fill="#6B672E"/>
<path fill-rule="evenodd" clip-rule="evenodd" d="M3047.55 1199.46C3045.79 1220.9 3044.03 1242.34 3042.27 1263.48C3038.74 1263.19 3034.92 1263.19 3031.4 1262.89C3033.16 1241.45 3034.63 1220.01 3036.39 1198.87C3040.21 1199.16 3043.73 1199.16 3047.55 1199.46Z" fill="#D2CB6D"/>
<path fill-rule="evenodd" clip-rule="evenodd" d="M3094.54 1201.51C3092.78 1222.95 3091.02 1244.39 3089.26 1265.54C3085.73 1265.24 3081.91 1265.24 3078.39 1264.95C3080.15 1243.51 3081.62 1222.36 3083.38 1200.92C3087.2 1201.22 3090.72 1201.22 3094.54 1201.51Z" fill="#D2CB6D"/>
<path fill-rule="evenodd" clip-rule="evenodd" d="M3114.22 1094.02C3117.16 1087.56 3121.27 1079.92 3121.56 1071.7C3121.86 1063.77 3120.09 1052.02 3118.92 1044.09C3121.86 1044.09 3127.73 1044.38 3130.67 1044.68C3133.6 1044.68 3133.31 1044.68 3133.6 1047.32C3136.54 1064.65 3137.42 1072.58 3131.84 1089.61C3130.96 1092.55 3130.67 1093.73 3130.08 1094.61C3124.79 1094.31 3119.51 1094.02 3114.22 1093.73V1094.02Z" fill="#FAC064"/>
<path fill-rule="evenodd" clip-rule="evenodd" d="M3142.71 1095.49C3145.35 1088.73 3148.29 1081.68 3148.58 1073.46C3148.88 1065.53 3148 1051.43 3147.41 1045.56C3150.35 1045.56 3156.22 1045.85 3159.16 1046.15C3162.09 1046.15 3161.8 1046.15 3162.09 1048.79C3163.56 1064.94 3164.44 1073.46 3160.33 1091.08C3159.45 1094.02 3159.16 1095.19 3158.57 1096.07C3153.28 1095.78 3148 1095.49 3142.71 1095.19V1095.49Z" fill="#FAC064"/>
<path fill-rule="evenodd" clip-rule="evenodd" d="M3083.97 1092.55C3086.91 1086.09 3089.55 1078.75 3089.84 1070.52C3090.14 1062.59 3089.84 1050.55 3088.67 1042.62C3091.61 1042.62 3097.48 1042.92 3100.42 1043.21C3103.35 1043.21 3103.06 1043.21 3103.35 1045.85C3106.29 1063.18 3107.17 1071.11 3101.59 1088.14C3100.71 1091.08 3100.42 1092.26 3099.83 1093.14C3094.54 1092.84 3089.26 1092.55 3083.97 1092.26V1092.55Z" fill="#FAC064"/>
<path fill-rule="evenodd" clip-rule="evenodd" d="M2939.18 1139.84C2999.68 1142.48 3059.89 1145.42 3120.39 1148.06C3119.8 1165.39 3119.21 1182.72 3118.63 1200.34C3058.42 1197.4 2998.21 1194.17 2938 1191.23C2938.3 1174.2 2938.88 1157.16 2939.18 1140.13V1139.84Z" fill="#FEFEFE"/>
<path fill-rule="evenodd" clip-rule="evenodd" d="M3158.57 1146C3157.98 1165.39 3157.39 1185.06 3157.1 1204.45C3161.21 1204.74 3165.03 1204.74 3169.14 1205.04C3169.73 1185.65 3170.02 1165.97 3170.61 1146.59C3166.79 1146.3 3162.68 1146.3 3158.86 1146H3158.57Z" fill="#EDF1E5"/>
<path fill-rule="evenodd" clip-rule="evenodd" d="M3158.57 1146C3157.98 1165.39 3157.39 1185.06 3157.1 1204.45C3161.21 1204.74 3165.03 1204.74 3169.14 1205.04C3169.73 1185.65 3170.02 1165.97 3170.61 1146.59C3166.79 1146.3 3162.68 1146.3 3158.86 1146H3158.57Z" fill="#EDF1E5"/>
<path fill-rule="evenodd" clip-rule="evenodd" d="M3181.18 1147.18C3180.6 1166.56 3180.01 1186.24 3179.71 1205.62C3183.83 1205.92 3187.64 1205.92 3191.76 1206.21C3192.34 1186.83 3192.64 1167.15 3193.22 1147.77C3189.41 1147.47 3185.3 1147.47 3181.48 1147.18H3181.18Z" fill="#EDF1E5"/>
<path fill-rule="evenodd" clip-rule="evenodd" d="M3202.33 1148.06C3201.74 1167.44 3201.45 1187.12 3200.86 1206.5C3204.97 1206.8 3208.79 1206.8 3212.9 1207.09C3213.2 1187.71 3213.78 1168.03 3214.08 1148.65C3210.26 1148.35 3206.15 1148.35 3202.33 1148.06Z" fill="#EDF1E5"/>
<path fill-rule="evenodd" clip-rule="evenodd" d="M3030.22 1203.86C2995.27 1202.39 2960.32 1200.63 2925.37 1199.16C2923.61 1217.08 2921.85 1234.99 2919.79 1252.91C2955.04 1254.67 2990.28 1256.43 3025.52 1258.2C3026.99 1239.99 3028.46 1221.78 3029.93 1203.86H3030.22Z" fill="#FEFEFE"/>
<path fill-rule="evenodd" clip-rule="evenodd" d="M3029.93 1208.85C3029.93 1209.15 3029.93 1209.44 3029.93 1209.74C2994.98 1207.97 2960.03 1206.5 2925.08 1204.74C2925.08 1204.45 2925.08 1203.86 2925.08 1203.57C2960.03 1205.33 2994.98 1207.09 3029.93 1208.85Z" fill="#B0B1B1"/>
<path fill-rule="evenodd" clip-rule="evenodd" d="M3028.17 1228.53C3028.17 1228.83 3028.17 1229.12 3028.17 1229.41C2993.22 1227.65 2957.97 1226.18 2923.02 1224.42C2923.02 1224.13 2923.02 1223.54 2923.02 1223.25C2957.97 1225.01 2993.22 1226.77 3028.17 1228.53Z" fill="#B0B1B1"/>
<path fill-rule="evenodd" clip-rule="evenodd" d="M3027.29 1239.1C3027.29 1239.4 3027.29 1239.69 3027.29 1239.99C2992.04 1238.22 2957.09 1236.76 2921.85 1234.99C2921.85 1234.7 2921.85 1234.11 2921.85 1233.82C2957.09 1235.58 2992.04 1237.34 3027.29 1239.1Z" fill="#B0B1B1"/>
<path fill-rule="evenodd" clip-rule="evenodd" d="M3026.41 1253.5C3026.41 1253.79 3026.41 1254.08 3026.41 1254.38C2991.16 1252.61 2955.92 1251.15 2920.67 1249.38C2920.67 1249.09 2920.67 1248.5 2920.67 1248.21C2955.92 1249.97 2991.16 1251.73 3026.41 1253.5Z" fill="#B0B1B1"/>
<path fill-rule="evenodd" clip-rule="evenodd" d="M3367.97 1247.62C3357.7 1248.8 3348.3 1252.61 3338.02 1253.2C3327.74 1253.79 3317.17 1251.15 3308.06 1251.44C3298.96 1251.73 3291.61 1254.67 3282.8 1257.31C3273.7 1259.96 3263.13 1261.72 3256.66 1263.78C3250.5 1265.83 3248.73 1267.89 3248.15 1269.36C3247.85 1270.82 3248.73 1272 3251.38 1273.47C3254.31 1274.94 3259.01 1276.7 3263.71 1277.29C3268.41 1277.87 3272.82 1277.29 3277.22 1276.4C3281.33 1275.52 3285.45 1274.64 3286.33 1275.52C3287.21 1276.4 3285.15 1279.05 3280.75 1282.87C3276.34 1286.68 3269.88 1291.68 3261.36 1296.67C3252.85 1301.96 3242.57 1307.54 3237.57 1311.65C3232.58 1316.05 3232.58 1318.99 3233.76 1321.34C3234.93 1323.69 3237.28 1325.16 3244.62 1321.93C3251.96 1318.7 3264.3 1311.06 3271.35 1307.54C3278.4 1304.01 3280.16 1304.6 3279.57 1306.36C3279.28 1307.83 3276.64 1310.18 3269.88 1315.76C3263.13 1321.63 3251.96 1330.74 3246.09 1336.91C3240.22 1343.07 3239.34 1346.3 3240.51 1348.07C3241.69 1350.12 3244.62 1351 3249.91 1348.36C3255.2 1345.72 3262.83 1339.84 3268.41 1335.44C3273.99 1330.74 3277.81 1327.51 3278.69 1327.51C3279.57 1327.51 3277.81 1330.44 3275.17 1333.38C3272.82 1336.02 3269.88 1338.37 3266.36 1341.02C3262.54 1343.66 3258.13 1346.3 3255.2 1349.53C3252.26 1352.77 3250.79 1356.29 3251.67 1358.35C3252.55 1360.4 3256.08 1361.28 3259.89 1359.52C3263.71 1357.76 3268.41 1353.94 3273.4 1349.83C3278.4 1345.72 3283.98 1341.9 3287.21 1339.26C3290.44 1336.61 3291.32 1335.44 3291.32 1336.32C3291.32 1337.2 3290.44 1340.43 3288.09 1343.07C3285.74 1345.72 3281.63 1348.07 3279.28 1350.71C3276.93 1353.35 3276.05 1356.58 3277.52 1356.88C3278.98 1357.17 3283.1 1355.11 3287.8 1351.88C3292.49 1348.65 3298.07 1344.54 3304.54 1338.96C3311 1333.38 3318.93 1326.63 3325.09 1319.58C3331.56 1312.53 3336.55 1305.19 3341.25 1300.19C3345.65 1295.49 3349.77 1293.14 3357.99 1289.33C3366.21 1285.51 3378.55 1279.93 3386.18 1272.88C3393.82 1265.83 3396.76 1257.31 3392.65 1252.32C3388.53 1247.33 3377.67 1245.86 3367.39 1247.03L3367.97 1247.62Z" fill="#F8BB97"/>
<path fill-rule="evenodd" clip-rule="evenodd" d="M3545.07 786.812C3570.33 810.308 3569.74 817.063 3577.09 843.202C3584.43 869.341 3590.6 908.109 3592.36 940.122C3593.83 972.135 3603.52 1012.37 3597.06 1042.92C3590.6 1073.46 3568.28 1094.31 3545.66 1129.56C3523.05 1164.8 3487.8 1200.34 3460.49 1225.89C3433.18 1251.73 3399.69 1262.31 3380.31 1278.17C3360.93 1265.24 3372.67 1267.01 3353.58 1254.08C3513.65 1094.02 3583.55 1031.76 3481.64 861.118C3453.44 814.126 3520.11 763.023 3545.37 786.519L3545.07 786.812Z" fill="#F8BB97"/>
<path fill-rule="evenodd" clip-rule="evenodd" d="M3163.56 1111.05C3163.56 1111.35 3163.56 1111.64 3163.56 1111.93C3100.42 1108.7 3036.98 1105.47 2973.83 1102.24C2973.83 1101.95 2973.83 1101.36 2973.83 1101.07C3036.98 1104.3 3100.42 1107.82 3163.56 1111.05Z" fill="#B0B1B1"/>
<path fill-rule="evenodd" clip-rule="evenodd" d="M3163.86 1119.28C3163.86 1119.57 3163.86 1119.86 3163.86 1120.16C3100.42 1116.93 3036.98 1113.7 2973.54 1110.47C2973.54 1110.17 2973.54 1109.58 2973.54 1109.29C3036.98 1112.82 3100.42 1116.05 3164.15 1119.57L3163.86 1119.28Z" fill="#B0B1B1"/>
<path fill-rule="evenodd" clip-rule="evenodd" d="M2295.1 680.788C2355.02 677.557 2415.22 674.327 2475.14 670.802C2475.14 670.509 2474.84 670.215 2474.84 669.628C2414.64 672.858 2354.72 675.795 2294.51 679.026C2294.81 679.613 2295.1 680.201 2295.1 680.788Z" fill="#919291"/>
<path fill-rule="evenodd" clip-rule="evenodd" d="M3119.8 1168.91C3119.8 1169.21 3119.8 1169.5 3119.8 1169.79C3059.59 1166.86 2999.09 1163.62 2938.88 1160.69C2938.88 1160.39 2938.88 1159.81 2938.88 1159.51C2999.39 1162.74 3059.59 1165.97 3120.1 1169.21L3119.8 1168.91Z" fill="#B0B1B1"/>
<path d="M1636.56 723.554L1623.13 830.724C1622.99 831.841 1623.1 832.777 1623.37 832.814L1900.32 870.183C1900.59 870.22 1900.93 869.345 1901.07 868.228L1914.5 761.057C1914.64 759.94 1914.53 759.005 1914.25 758.968L1637.31 721.599C1637.03 721.562 1636.7 722.437 1636.56 723.554Z" fill="#94908E"/>
<path fill-rule="evenodd" clip-rule="evenodd" d="M1650.14 685.487L1626.94 870.81L33.0529 671.096C12.4942 668.453 -2.19061 649.656 0.158959 628.804L13.9627 518.374C16.606 497.815 35.4025 483.13 56.255 485.48L1650.14 685.194V685.487Z" fill="#B79581"/>
<path fill-rule="evenodd" clip-rule="evenodd" d="M1980.55 1358.93C1741.48 906.934 1914.47 346.562 2366.47 107.493C2818.47 -131.576 3378.84 41.4112 3617.91 493.41C3856.98 945.408 3683.99 1505.78 3231.99 1744.85C2780 1983.92 2219.62 1810.93 1980.55 1358.93ZM2030.78 1332.5C1806.39 908.109 1968.81 382.099 2393.2 157.715C2817.59 -66.669 3343.6 95.745 3567.98 520.136C3792.37 944.527 3629.95 1470.54 3205.56 1694.92C2781.17 1919.31 2255.16 1756.89 2030.78 1332.5Z" fill="#7D9BAD"/>
</g>
<defs>
<clipPath id="clip0_33_230">
<rect width="3725.27" height="1852.34" fill="white"/>
</clipPath>
</defs>
</svg>
