<?xml version="1.0" encoding="UTF-8"?>
<!DOCTYPE svg PUBLIC "-//W3C//DTD SVG 1.1//EN" "http://www.w3.org/Graphics/SVG/1.1/DTD/svg11.dtd">
<!-- Creator: CorelDRAW X5 -->
<svg xmlns="http://www.w3.org/2000/svg" xml:space="preserve" width="1271.55mm" height="614.018mm" style="shape-rendering:geometricPrecision; text-rendering:geometricPrecision; image-rendering:optimizeQuality; fill-rule:evenodd; clip-rule:evenodd"
viewBox="0 0 21095 10186"
 xmlns:xlink="http://www.w3.org/1999/xlink">
 <defs>
  <style type="text/css">
   <![CDATA[
    .str1 {stroke:#2B2A29;stroke-width:3.31798}
    .str0 {stroke:#99B7C9;stroke-width:41.4748}
    .fil0 {fill:none}
    .fil12 {fill:#967BB6}
    .fil7 {fill:#F8BB97}
    .fil19 {fill:#4E565A}
    .fil4 {fill:#FFED00}
    .fil14 {fill:#909EC8}
    .fil5 {fill:#99B6C8}
    .fil27 {fill:#DEDBDB}
    .fil25 {fill:#FEB48C}
    .fil9 {fill:#FF5A46}
    .fil20 {fill:#FF8C81}
    .fil17 {fill:#525252}
    .fil18 {fill:#5E5E5E}
    .fil6 {fill:#D3D3D4}
    .fil2 {fill:#F2F2F2}
    .fil8 {fill:#1F1B20}
    .fil16 {fill:#394575}
    .fil26 {fill:#525251}
    .fil21 {fill:#99B7C9}
    .fil24 {fill:#B1AEAA}
    .fil3 {fill:#C0E4F9}
    .fil22 {fill:#DDEFFB}
    .fil13 {fill:#FEFEFE}
    .fil11 {fill:#F8BB97;fill-rule:nonzero}
    .fil1 {fill:#4E565A;fill-rule:nonzero}
    .fil15 {fill:#FFED00;fill-rule:nonzero}
    .fil10 {fill:black;fill-rule:nonzero}
    .fil23 {fill:url(#id0)}
   ]]>
  </style>
  <linearGradient id="id0" gradientUnits="userSpaceOnUse" x1="13752.6" y1="2029.53" x2="13752.6" y2="2031.85">
   <stop offset="0" style="stop-color:#A2532D"/>
   <stop offset="0.611765" style="stop-color:#9D522D"/>
   <stop offset="1" style="stop-color:#97502E"/>
  </linearGradient>
 </defs>
 <g id="Vrstva_x0020_1">
  <metadata id="CorelCorpID_0Corel-Layer"/>
  <g id="_480213368">
   <path class="fil0 str0" d="M5811 5291c122,36 517,545 1189,690 671,145 1205,-531 1230,124 28,705 -221,1535 -539,1659 -318,124 -705,-456 -442,-719 263,-263 1175,-207 1714,-525 539,-318 705,-1009 276,-1161 -429,-152 -1452,235 -1438,954 14,719 1065,1770 1396,2654 332,885 -84,849 -720,863 -636,14 -1355,-305 -1354,-531 1,-226 1300,-1134 2005,-1700 705,-567 954,-1175 857,-1756 -97,-581 -539,-1134 -1092,-1244 -553,-111 -1217,221 -1272,733 -55,512 498,1203 1051,1659 553,456 1106,677 1065,1106 -41,429 -677,1065 -1396,1161 -719,97 -1521,-346 -1908,-885 -387,-539 -359,-1175 -194,-1797 166,-622 470,-1230 1051,-1645 581,-415 1438,-636 2060,-221 622,415 1009,1465 512,1839 -498,373 -1880,69 -2571,152 -691,83 -691,553 -152,1161 539,608 1618,1355 2350,1590 733,235 1120,-41 1300,-429 180,-387 -553,-664 -636,-1300 -83,-636 484,-1631 97,-2101 -387,-470 -1023,-636 -1687,-719 -664,-83 -1355,-83 -1728,346 -373,429 -429,1286 -235,2115 194,829 636,1631 1134,1783 498,152 1051,-346 954,-982 -97,-636 -843,-1410 -871,-1839 -28,-429 664,-512 1147,-41 484,470 760,1493 1562,2212 802,719 674,1269 3263,1161 1469,-61 3484,-341 2018,-2406 -374,-527 -422,-1018 -460,-1717 -23,-420 41,-805 208,-1167 167,-362 332,-843 539,-1175 207,-332 458,-514 1025,-578 568,-64 1452,-8 2116,254 664,263 1106,733 1327,1355 221,622 221,1396 14,2074 -207,677 -622,1258 -1147,1576 -525,318 -1161,373 -1687,332 -525,-41 -940,-180 -1327,-484 -792,-622 -1180,-1470 -1145,-2468 14,-401 68,-792 193,-1148 125,-356 319,-678 513,-955 194,-276 386,-508 731,-651 345,-143 843,-199 1409,-171 567,28 1203,138 1714,429 512,290 899,760 1023,1535 124,774 -14,1853 -415,2599 -401,747 -1065,1161 -1853,1161 -788,0 -1700,-415 -2212,-829 -512,-415 -622,-829 -677,-1327 -55,-498 -55,-1078 0,-1645 122,-1253 790,-1746 1890,-1952 734,-137 1787,196 2465,846 951,912 1603,3201 263,4134 -636,442 -1742,857 -2502,912 -760,55 -1175,-249 -1565,-799 -390,-550 -755,-1346 -796,-2101 -41,-755 243,-1470 526,-2185"/>
   <path class="fil1" d="M11280 8097c-138,131 141,407 -31,434 -54,8 -315,-421 -368,-528 0,0 105,-81 245,-157l154 250z"/>
   <path class="fil1" d="M13805 9124c35,187 419,102 349,261 -22,50 -524,37 -643,25 0,0 -11,-132 0,-291l294 6z"/>
   <rect class="fil2" x="18258" y="1235" width="972" height="837" rx="81" ry="81"/>
   <path class="fil3" d="M1855 3996c504,0 912,334 912,747 0,412 -409,747 -912,747 -504,0 -912,-334 -912,-747 0,-412 409,-747 912,-747z"/>
   <path class="fil4" d="M6859 661c330,0 597,242 596,540 -1,298 -268,539 -598,538 -330,0 -597,-242 -596,-540 1,-298 268,-539 598,-538z"/>
   <polygon class="fil5" points="2934,4810 2934,4936 1899,4990 640,4988 565,4930 565,4774 853,4827 1509,4762 1982,4842 2524,4781 2728,4841 "/>
   <path class="fil6" d="M2934 4888l0 48c1,21 -205,385 -249,387 -249,332 -740,418 -875,402 -358,-43 -669,-282 -985,-434 -3,-2 -254,-307 -260,-352l0 -73 226 68 403 -81 382 93 407 -40 482 30 264 -30 206 -17z"/>
   <path class="fil7" d="M3644 7805c-57,144 -157,298 -266,566 -109,268 -227,648 -295,857 -68,209 -86,245 -95,299 -9,54 -9,127 9,204 18,77 54,159 82,195 27,36 45,27 63,11 18,-16 36,-39 36,-72 0,-33 -18,-77 -25,-138 -7,-61 -2,-140 70,-302 73,-162 213,-407 365,-665 152,-258 315,-531 410,-703 95,-172 122,-245 119,-356 -3,-111 -37,-262 -107,-320 -70,-58 -175,-23 -235,62 -60,84 -75,218 -133,362z"/>
   <path class="fil7" d="M4722 7634c15,107 47,284 95,522 48,238 111,537 166,773 54,236 100,408 118,531 18,122 9,195 18,254 9,59 36,104 82,154 45,50 109,104 154,132 45,27 73,27 86,9 14,-18 14,-54 0,-95 -14,-41 -41,-86 -68,-127 -27,-41 -54,-78 -63,-195 -9,-117 0,-315 9,-479 9,-163 18,-291 23,-401 5,-109 5,-200 -17,-405 -21,-205 -64,-525 -98,-676 -34,-151 -58,-134 -143,-136 -85,-2 -230,-23 -303,-14 -73,9 -74,47 -59,154z"/>
   <path class="fil8" d="M5423 9951c-25,14 -103,-9 -160,-56 -58,-48 -96,-120 -119,-154 -23,-34 -31,-30 -47,-13 -16,18 -41,49 -54,98 -12,49 -12,116 -3,176 9,61 27,115 41,142 14,27 23,27 27,-14 5,-41 5,-122 14,-163 9,-41 27,-41 63,-2 36,39 91,116 154,156 63,41 136,45 218,39 82,-7 172,-25 209,-48 36,-23 18,-50 -32,-77 -50,-27 -131,-54 -193,-88 -62,-33 -104,-73 -112,-68 -7,6 20,57 -5,71z"/>
   <path class="fil8 str1" d="M3254 9986c36,52 81,88 108,120 88,103 -16,84 -86,59 -77,-27 -204,-82 -277,-159 -73,-77 -91,-177 -109,-277 -18,27 -36,54 -54,86 -18,32 -36,68 -54,104 -9,0 -18,0 -27,0 0,-50 0,-100 14,-159 14,-59 41,-127 80,-176 39,-49 99,-70 150,-100 -9,54 -25,145 -7,222 18,77 54,159 82,195 27,36 66,38 84,22 18,-16 10,-92 10,-125 26,68 53,135 88,187z"/>
   <path class="fil9" d="M3620 7637c295,54 590,109 889,122 299,14 603,-14 907,-41 -9,-290 -18,-580 -45,-839 -27,-258 -73,-485 -132,-719 -59,-234 -132,-474 -204,-714 -149,23 -297,45 -477,37 -180,-8 -390,-46 -601,-85 -122,261 -243,521 -313,722 -70,200 -88,340 -83,583 5,243 32,588 59,933z"/>
   <path class="fil7" d="M3991 6142c3,-36 26,-62 59,-76 33,-14 76,-16 103,1 27,17 39,53 49,102 10,49 19,112 18,159 -1,47 -13,79 -36,112 -23,33 -56,68 -93,86 -37,18 -76,19 -88,15 -12,-4 4,-12 11,-17 7,-6 5,-9 -1,-7 -6,1 -17,7 -25,9 -8,2 -13,1 -11,-3 2,-5 11,-13 15,-19 4,-6 3,-9 -5,-7 -8,2 -24,9 -30,9 -6,-1 -3,-9 9,-28 12,-19 32,-48 34,-58 2,-10 -14,-1 -25,3 -11,4 -15,1 -19,-2 -4,-4 -8,-9 3,-19 11,-10 36,-26 49,-49 13,-23 14,-53 5,-91 -8,-38 -26,-84 -23,-120z"/>
   <path class="fil7" d="M5497 2997c28,-8 62,-30 79,-60 18,-30 19,-69 10,-100 -8,-31 -27,-55 -50,-78 -23,-23 -51,-45 -86,-67 -35,-22 -77,-45 -120,-47 -42,-2 -84,16 -126,19 -41,3 -82,-9 -112,-10 -30,-1 -49,9 -47,21 3,13 28,28 52,36 23,8 45,8 62,10 17,2 29,6 38,21 9,14 15,39 9,51 -5,11 -22,9 -30,9 -8,-1 -7,0 -11,8 -4,9 -13,26 5,52 18,26 63,62 94,83 31,20 48,25 73,30 24,6 55,13 82,19 27,6 49,11 77,3z"/>
   <path class="fil10" d="M4459 3251l-71 -16c-175,-47 -277,-176 -363,-327l-25 1c-80,3 -145,-14 -204,-71 -47,-46 -74,-113 -76,-178 -1,-67 18,-125 64,-173 44,-46 103,-75 167,-75 84,0 140,47 197,103 90,-102 207,-173 344,-192 66,-9 137,-5 200,18 29,11 55,26 84,37 35,13 71,20 100,43 87,68 128,156 143,264 -39,34 -191,502 -526,421 -11,43 -35,101 -36,145z"/>
   <path class="fil11" d="M5058 2843c-39,-45 -35,-101 -37,-157 -31,-36 -52,-75 -81,-111 -28,-34 -36,-24 -69,-53 -11,132 -88,201 -191,287l-89 72 15 147c-28,-55 -52,-123 -116,-143 -21,-7 -37,-4 -57,4 -22,27 -37,53 -34,90 2,28 17,56 39,73l49 33 10 22c49,86 171,135 258,169l25 7c62,13 170,26 225,-13 57,-41 66,-142 62,-205 -2,-28 -11,-66 -5,-93 3,-16 28,-26 42,-34 16,-15 42,-25 33,-44 -9,-20 -50,-34 -76,-49zm-563 264c49,86 171,135 258,169 -4,75 -2,151 53,210l8 8 -3 38c-21,10 -44,22 -67,26 -98,16 -261,34 -341,-22 5,-77 65,-207 57,-284 1,-43 24,-102 36,-145z"/>
   <path class="fil12" d="M3982 6167c45,-5 127,-32 168,-59 41,-27 41,-54 23,-145 -18,-91 -54,-246 -76,-342 -21,-96 -28,-134 -31,-153 -3,-19 -3,-19 54,-10 57,9 171,27 289,37 118,9 241,9 345,0 105,-9 191,-28 237,-33 45,-5 49,3 45,-53 -4,-56 -16,-178 -13,-332 3,-154 22,-341 42,-460 20,-119 42,-169 48,-238 6,-70 -3,-159 -25,-238 -22,-80 -57,-150 -5,-167 53,-18 193,18 298,53 105,35 175,70 288,93 113,23 268,33 366,31 98,-2 138,-16 166,-56 28,-40 43,-106 29,-179 -13,-73 -55,-152 -119,-303 -64,-151 -150,-375 -240,-511 -90,-136 -184,-184 -237,-197 -52,-12 -63,11 -89,33 -26,22 -66,43 -41,127 25,85 116,234 193,406 77,172 140,368 54,372 -86,4 -319,-183 -459,-291 -140,-107 -185,-135 -235,-148 -50,-14 -104,-14 -145,9 -41,23 -68,68 -100,95 -32,27 -68,36 -116,32 -48,-5 -107,-23 -163,-54 -57,-32 -111,-77 -141,-100 -29,-23 -34,-23 -59,0 -25,23 -70,68 -143,86 -73,18 -173,9 -255,14 -82,5 -145,23 -203,85 -59,62 -113,169 -145,283 -32,115 -41,237 -51,391 -10,154 -21,340 -7,541 14,201 52,416 107,617 55,201 128,387 178,507 50,120 77,175 95,211 18,36 27,54 73,50z"/>
   <path class="fil13" d="M3933 4526c-16,83 -27,171 -5,302 22,131 76,304 95,315 19,11 2,-141 -6,-264 -8,-124 -7,-219 -10,-312 -2,-93 -8,-185 -22,-192 -14,-7 -36,70 -52,153z"/>
   <ellipse class="fil14" transform="matrix(0.963604 0.267334 -0.267334 0.963604 7795.48 2376.54)" rx="76" ry="69"/>
   <path class="fil14" d="M7805 2230c4,20 20,35 36,42 17,7 35,4 54,-5 19,-10 38,-26 56,-38 18,-12 35,-18 59,-24 24,-6 55,-12 87,-20 32,-8 64,-17 86,-30 22,-12 34,-27 45,-54 11,-27 22,-65 19,-101 -3,-36 -19,-70 -34,-97 -15,-26 -28,-45 -44,-61 -16,-16 -35,-28 -65,-40 -30,-12 -71,-23 -103,-29 -32,-5 -54,-4 -79,4 -24,8 -51,23 -71,42 -20,19 -34,41 -39,60 -5,19 -2,35 6,46 8,11 21,19 39,20 18,1 42,-3 59,-12 17,-9 28,-22 41,-29 13,-7 29,-9 48,-9 19,0 42,3 59,9 17,6 27,17 36,30 9,14 15,30 15,49 0,19 -5,39 -25,56 -20,17 -54,30 -88,39 -34,9 -68,14 -100,28 -31,14 -60,35 -77,58 -17,23 -24,47 -20,66z"/>
   <path class="fil11" d="M14647 3510c0,0 -31,170 -5,260 0,0 -289,42 -386,-8 0,0 13,-194 -3,-368 -11,-119 -86,-144 -112,-425 -18,-197 112,-391 379,-392 176,-1 290,136 290,136 0,0 53,61 76,138 0,0 15,51 14,81 23,167 69,576 -253,577z"/>
   <path class="fil15" d="M14962 2855c0,0 -38,41 -139,22 -105,-20 -196,25 -210,80 -14,55 26,116 -15,123 -8,4 -20,9 -27,8 -51,-2 -72,-96 -103,-85 -35,12 -52,60 -42,115 10,54 -19,234 -34,265 -16,30 -128,2 -139,-2 -11,-5 -62,-166 -100,-234 -39,-68 -160,-454 8,-530 0,0 27,-93 123,-128 96,-35 259,-57 378,-5 119,52 252,141 314,126 54,1 96,178 -14,245z"/>
   <ellipse class="fil14" transform="matrix(0.851369 -0.524567 0.524567 0.851369 2751.48 3615.73)" rx="76" ry="69"/>
   <path class="fil16" d="M12879 5418c-75,149 -149,298 -203,494 -54,196 -86,438 -109,634 -23,196 -37,345 -51,494 -196,65 -391,130 -634,270 -242,140 -531,354 -676,466 -144,112 -144,121 -126,163 19,42 56,116 83,156 27,40 44,44 250,-21 206,-65 600,-200 880,-310 280,-109 447,-193 544,-249 97,-56 125,-84 165,-149 40,-65 91,-168 159,-304 68,-136 154,-307 198,-393 44,-86 46,-88 43,86 -3,174 -12,523 -25,725 -14,203 -32,258 -42,347 -9,89 -9,210 14,438 23,228 70,564 98,734 28,170 37,176 103,178 65,3 186,3 247,-2 61,-4 61,-13 75,-125 14,-112 42,-327 84,-800 42,-473 98,-1205 130,-1659 33,-454 42,-631 51,-807 -20,0 -39,-1 -139,-20 -100,-19 -281,-56 -481,-117 -200,-61 -419,-144 -638,-228z"/>
   <path class="fil17" d="M12789 5487c222,80 444,160 667,226 224,66 449,117 562,143 113,26 113,26 113,2 0,-24 0,-71 23,-163 23,-91 70,-226 121,-362 51,-135 107,-270 191,-457 84,-187 196,-425 252,-546 56,-121 56,-125 135,-160 79,-35 238,-100 317,-136 79,-36 79,-44 77,-124 -2,-80 -7,-233 -12,-386 -9,2 -18,4 -67,2 -49,-2 -138,-7 -229,-7 -91,0 -183,6 -239,15 -56,10 -74,24 -93,56 -19,33 -37,84 -56,109 -19,26 -37,26 -61,26 -23,0 -51,0 -77,-19 -25,-19 -48,-56 -71,-102 -23,-47 -47,-102 -81,-130 -33,-28 -76,-28 -128,-23 -51,5 -111,14 -159,37 -48,23 -86,61 -132,116 -47,56 -102,130 -172,270 -70,140 -154,345 -219,522 -65,177 -112,326 -158,450 -47,123 -93,221 -158,305 -65,84 -149,154 -210,207 -61,54 -98,91 -135,128z"/>
   <path class="fil18" d="M14661 4313c-47,47 -93,93 -163,149 -70,56 -163,121 -256,186 -37,-47 -75,-93 -135,-191 -61,-98 -144,-247 -196,-366 -51,-119 -70,-207 -70,-291 0,-84 19,-163 57,-219 38,-55 96,-87 161,-100 65,-12 138,-6 187,20 49,25 74,69 107,123 33,54 73,120 116,203 43,84 90,186 122,270 33,84 51,149 70,214z"/>
   <path class="fil7" d="M14348 4642c43,62 108,174 159,251 51,77 89,119 121,142 33,23 61,28 130,61 70,33 182,93 298,154 116,61 238,121 307,161 70,40 89,58 98,96 9,37 9,93 28,126 19,33 56,42 102,47 47,5 102,5 135,-9 33,-14 42,-42 42,-72 0,-30 -9,-63 -23,-100 -14,-37 -33,-79 -75,-123 -42,-44 -107,-91 -242,-189 -135,-98 -340,-247 -471,-373 -130,-126 -186,-228 -214,-287 -28,-58 -28,-72 -47,-91 -19,-19 -56,-42 -131,-60 -75,-18 -188,-32 -245,-1 -57,31 -58,106 -48,150 10,44 31,57 74,119z"/>
   <ellipse class="fil14" transform="matrix(0.97115 0.238468 -0.238468 0.97115 6003.55 2354.06)" rx="76" ry="69"/>
   <path class="fil14" d="M6008 2208c5,20 21,35 38,41 17,6 35,3 54,-7 19,-10 38,-28 55,-40 18,-12 34,-19 58,-26 24,-7 55,-14 87,-23 32,-9 64,-19 85,-32 22,-13 33,-28 43,-55 10,-27 20,-65 16,-102 -4,-36 -21,-70 -37,-96 -16,-26 -30,-44 -46,-59 -17,-15 -36,-27 -66,-38 -30,-11 -72,-21 -104,-26 -32,-4 -55,-2 -79,6 -24,9 -50,24 -70,44 -19,19 -32,42 -37,61 -5,19 -1,35 7,46 8,11 21,18 39,19 18,1 42,-5 59,-14 17,-9 28,-23 41,-30 13,-8 28,-10 47,-10 19,0 42,2 59,8 17,6 28,16 37,29 9,13 16,30 17,48 1,19 -4,39 -23,57 -19,17 -53,31 -86,41 -34,10 -68,16 -99,31 -31,14 -58,37 -75,61 -17,23 -23,47 -18,67z"/>
   <ellipse class="fil14" transform="matrix(0.851369 -0.524567 0.524567 0.851369 2751.48 3615.73)" rx="76" ry="69"/>
   <path class="fil14" d="M2650 3510c17,10 39,10 55,2 16,-8 27,-23 33,-43 6,-20 7,-46 10,-67 4,-21 10,-38 22,-60 12,-22 29,-49 44,-78 16,-29 31,-59 37,-83 6,-24 3,-43 -9,-69 -12,-26 -33,-60 -61,-82 -29,-22 -65,-34 -94,-41 -29,-7 -52,-10 -75,-9 -22,1 -44,6 -74,20 -29,14 -66,36 -91,56 -25,20 -40,37 -51,61 -11,23 -18,53 -18,80 0,27 7,52 17,69 10,17 24,25 38,27 14,2 28,-2 41,-15 13,-12 26,-33 31,-51 5,-19 3,-36 7,-50 4,-15 13,-27 26,-41 13,-14 31,-29 47,-37 16,-8 31,-9 47,-6 16,3 32,9 46,22 14,12 25,31 24,57 -1,26 -15,59 -31,91 -16,31 -36,60 -47,92 -11,32 -15,68 -10,96 5,28 18,49 35,60z"/>
   <rect class="fil2" transform="matrix(0.269248 -0.132309 0.13016 0.264875 466.455 3292.02)" width="3650" height="2571" rx="73" ry="73"/>
   <rect class="fil19" transform="matrix(0.395777 -0.194486 0.176412 0.358997 647.971 3445.65)" width="1656" height="82"/>
   <rect class="fil19" transform="matrix(0.426222 -0.209447 0.176412 0.358997 -0.000308505 3574.49)" width="1656" height="82"/>
   <rect class="fil19" transform="matrix(0.319665 -0.157084 0.176412 0.358997 707.296 3566.37)" width="1656" height="82"/>
   <rect class="fil19" transform="matrix(0.274955 -0.135114 0.176412 0.358997 1272.71 3530.24)" width="1656" height="82"/>
   <rect class="fil19" transform="matrix(0.300636 -0.147734 0.176412 0.358997 299.064 4014.09)" width="1656" height="82"/>
   <rect class="fil19" transform="matrix(0.213107 -0.104722 0.176412 0.358997 1301.04 2993.84)" width="1656" height="82"/>
   <rect class="fil20" transform="matrix(0.290244 -0.142627 0.103025 0.209654 772.647 2611.07)" width="1410" height="415" rx="19" ry="19"/>
   <ellipse class="fil21" cx="7217" cy="1211" rx="249" ry="207"/>
   <ellipse class="fil21" cx="7447" cy="1100" rx="147" ry="178"/>
   <ellipse class="fil21" cx="7756" cy="1336" rx="207" ry="166"/>
   <ellipse class="fil21" cx="7596" cy="1201" rx="80" ry="96"/>
   <ellipse class="fil21" cx="7492" cy="1315" rx="212" ry="132"/>
   <ellipse class="fil21" cx="7357" cy="1426" rx="191" ry="76"/>
   <ellipse class="fil21" cx="7556" cy="1436" rx="103" ry="76"/>
   <ellipse class="fil21" cx="7643" cy="1223" rx="142" ry="173"/>
   <ellipse class="fil21" transform="matrix(0.861093 -0.508447 0.508447 0.861093 2199.15 1909.17)" rx="249" ry="207"/>
   <ellipse class="fil21" transform="matrix(0.861093 -0.508447 0.508447 0.861093 2340.71 1695.67)" rx="147" ry="178"/>
   <ellipse class="fil21" transform="matrix(0.861093 -0.508447 0.508447 0.861093 2726.69 1742.17)" rx="207" ry="166"/>
   <ellipse class="fil21" transform="matrix(0.861093 -0.508447 0.508447 0.861093 2520.54 1706.89)" rx="80" ry="96"/>
   <ellipse class="fil21" transform="matrix(-0.262122 -0.965035 0.965035 -0.262122 2489.55 1858.36)" rx="212" ry="132"/>
   <ellipse class="fil21" transform="matrix(0.861093 -0.508447 0.508447 0.861093 2429.34 2021.91)" rx="191" ry="76"/>
   <ellipse class="fil21" transform="matrix(0.861093 -0.508447 0.508447 0.861093 2605.85 1929.5)" rx="103" ry="76"/>
   <ellipse class="fil21" cx="7217" cy="1211" rx="249" ry="207"/>
   <ellipse class="fil21" cx="7447" cy="1100" rx="147" ry="178"/>
   <ellipse class="fil21" cx="7596" cy="1201" rx="80" ry="96"/>
   <ellipse class="fil21" cx="7492" cy="1315" rx="212" ry="132"/>
   <ellipse class="fil21" cx="7357" cy="1426" rx="191" ry="76"/>
   <ellipse class="fil21" cx="7556" cy="1436" rx="103" ry="76"/>
   <ellipse class="fil21" cx="7643" cy="1223" rx="142" ry="173"/>
   <rect class="fil2" transform="matrix(0.288744 0.0814059 -0.0800838 0.284054 4833.92 -17.1814)" width="3650" height="2571" rx="73" ry="73"/>
   <rect class="fil19" transform="matrix(0.424436 0.119662 -0.108541 0.384992 4488.17 16.8954)" width="1656" height="82"/>
   <rect class="fil19" transform="matrix(0.342812 0.0966493 -0.108541 0.384992 5596.36 306.524)" width="1656" height="82"/>
   <rect class="fil19" transform="matrix(0.322406 0.0908962 -0.108541 0.384992 4654.07 313.388)" width="1656" height="82"/>
   <rect class="fil19" transform="matrix(0.228538 0.0644321 -0.108541 0.384992 5635.03 804.456)" width="1656" height="82"/>
   <rect class="fil20" transform="matrix(0.304154 -0.109881 0.0793716 0.219702 3812.84 1129.06)" width="1410" height="415" rx="19" ry="19"/>
   <rect class="fil19" transform="matrix(0.228538 0.0644321 -0.108541 0.384992 4534.57 549.373)" width="1656" height="82"/>
   <ellipse class="fil21" cx="7756" cy="1336" rx="207" ry="166"/>
   <ellipse class="fil14" transform="matrix(0.895928 -0.4442 0.4442 0.895928 5073.06 1711.62)" rx="76" ry="69"/>
   <path class="fil14" d="M5123 1582c9,18 28,29 46,31 18,2 35,-5 50,-20 16,-14 30,-36 44,-52 14,-16 29,-27 50,-39 21,-13 50,-27 78,-43 29,-16 57,-34 75,-52 18,-18 25,-35 28,-64 4,-29 3,-68 -9,-102 -13,-34 -38,-63 -59,-84 -21,-21 -39,-36 -59,-46 -20,-11 -41,-18 -73,-21 -32,-3 -75,-3 -107,0 -32,4 -54,11 -75,25 -21,14 -43,36 -57,59 -14,23 -21,48 -21,68 0,20 7,34 18,43 11,9 25,12 43,9 18,-4 39,-14 54,-28 14,-13 21,-29 32,-39 11,-11 25,-17 43,-22 18,-5 41,-8 59,-7 18,2 31,9 43,20 12,11 23,25 28,43 5,18 5,39 -9,61 -15,21 -44,43 -74,61 -30,18 -62,32 -88,54 -26,21 -48,50 -58,77 -11,27 -11,52 -1,69z"/>
   <path class="fil13" d="M1667 4002c504,0 912,378 912,845 0,467 -409,845 -912,845 -504,0 -912,-378 -912,-845 0,-467 409,-845 912,-845zm-71 -186c802,0 1452,445 1452,994 0,549 -650,994 -1452,994 -802,0 -1452,-445 -1452,-994 0,-549 650,-994 1452,-994z"/>
   <rect class="fil2" x="17106" y="1235" width="972" height="837" rx="81" ry="81"/>
   <rect class="fil20" x="17362" y="1289" width="459" height="108" rx="22" ry="22"/>
   <rect class="fil19" x="17164" y="1463" width="684" height="27"/>
   <rect class="fil19" x="17164" y="1519" width="598" height="27"/>
   <rect class="fil19" x="17164" y="1573" width="656" height="27"/>
   <rect class="fil19" x="17164" y="1627" width="413" height="27"/>
   <rect class="fil19" x="17164" y="1681" width="641" height="27"/>
   <rect class="fil19" x="17164" y="1735" width="554" height="27"/>
   <rect class="fil19" x="18383" y="1526" width="594" height="27"/>
   <rect class="fil19" x="18383" y="1582" width="640" height="27"/>
   <rect class="fil19" x="18383" y="1636" width="480" height="27"/>
   <rect class="fil19" x="18383" y="1690" width="413" height="27"/>
   <rect class="fil19" x="18383" y="1744" width="452" height="27"/>
   <rect class="fil19" x="18383" y="1798" width="320" height="27"/>
   <rect class="fil22" x="17106" y="290" width="2120" height="837" rx="81" ry="81"/>
   <rect class="fil20" x="18551" y="1289" width="459" height="108" rx="22" ry="22"/>
   <ellipse class="fil8" cx="13758" cy="2232" rx="107" ry="66"/>
   <path class="fil15" d="M13178 1270c5,-344 271,-618 594,-613 323,5 580,287 575,631 -3,200 -98,341 -237,453 -48,39 -74,134 -75,198l-1 97 -558 -8 1 -91c1,-65 -7,-152 -55,-192 -139,-116 -247,-272 -244,-474z"/>
   <path class="fil23" d="M13830 2032l-12 0 0 0 12 0zm-136 -2l-19 0 19 0 0 0z"/>
   <rect class="fil24" x="13502" y="2132" width="511" height="106" rx="61" ry="61"/>
   <rect class="fil4" x="13730" y="180" width="83" height="332"/>
   <rect class="fil4" transform="matrix(0.875852 0.48258 -0.48258 0.875852 14360.4 357.822)" width="83" height="332"/>
   <rect class="fil4" x="13730" y="180" width="83" height="332"/>
   <rect class="fil4" transform="matrix(-0.875852 0.48258 0.48258 0.875852 13153.1 357.822)" width="83" height="332"/>
   <path class="fil25" d="M13621 1487c-6,-67 -10,-83 -20,-90 -12,-8 -32,-10 -47,-7 -15,4 -26,14 -32,25 -6,12 -6,26 -4,38 2,12 6,23 12,29 7,5 16,5 36,5 14,0 24,0 55,0zm51 36c9,110 30,336 38,448 7,112 5,135 -1,141 -6,6 -17,-4 -27,-18 -10,-14 -19,-33 -29,-144 -10,-108 -20,-302 -27,-413 0,-4 -1,-13 -1,-16 -154,3 -142,-18 -150,-30 -8,-12 -10,-22 -10,-41 0,-19 2,-46 10,-64 7,-18 19,-28 35,-34 16,-6 36,-10 60,-7 24,2 34,-2 68,21 34,22 31,107 34,123 29,0 49,0 70,0 21,0 75,1 105,1 11,-79 27,-109 36,-120 11,-13 22,-19 37,-22 15,-3 34,-3 52,-1 18,2 37,7 50,19 14,13 23,34 26,53 3,20 0,39 -5,56 -5,18 -12,34 -26,46 -15,12 -39,18 -124,19 -8,103 -22,308 -29,412 -7,104 -10,120 -17,129 -7,9 -20,12 -29,6 -9,-6 -15,-20 -17,-31 -3,-11 -3,-18 6,-123 8,-94 26,-294 40,-409m52 -35c55,0 71,0 77,-4 6,-4 12,-10 18,-23 6,-13 12,-31 9,-47 -3,-15 -14,-27 -28,-31 -13,-4 -28,-1 -40,7 -12,7 -21,19 -26,31 -4,8 -6,30 -10,66zm-225 35c58,0 116,0 174,0"/>
   <rect class="fil24" x="13438" y="2027" width="639" height="106" rx="61" ry="61"/>
   <path class="fil7" d="M15248 3894c130,-28 261,-56 452,-193 191,-137 443,-384 601,-524 158,-140 224,-172 298,-221 75,-49 158,-114 200,-156 42,-42 42,-61 33,-71 -9,-11 -27,-13 -27,-29 0,-16 18,-47 23,-69 4,-22 -5,-36 -17,-30 -12,6 -28,31 -43,40 -15,9 -28,2 -21,-20 8,-22 37,-59 42,-75 5,-16 -13,-11 -37,7 -23,19 -51,51 -70,63 -19,12 -28,2 -19,-23 9,-26 37,-68 37,-86 0,-19 -28,-14 -70,23 -42,37 -98,107 -135,137 -37,30 -56,21 -65,9 -9,-12 -9,-26 -16,-43 -6,-17 -19,-37 -33,-32 -14,5 -29,34 -41,81 -12,47 -21,112 -138,238 -116,126 -340,312 -466,413 -126,101 -153,116 -221,137 -68,22 -175,50 -283,78 0,6 0,13 3,61 2,48 7,139 9,193 2,54 2,73 2,92z"/>
   <polygon class="fil26 str1" points="18079,1087 18493,340 18719,731 18804,570 19054,1020 "/>
   <polygon class="fil27" points="18493,342 18488,460 18518,528 18598,625 18566,715 18302,800 18332,701 18395,618 18434,470 "/>
   <polygon class="fil27" points="18493,342 18488,460 18518,528 18598,625 18566,715 18302,800 18332,701 18395,618 18434,470 "/>
   <polygon class="fil26 str1" points="1194,5124 1609,4377 1835,4768 1920,4607 2170,5057 "/>
   <polygon class="fil27" points="1609,4379 1604,4497 1633,4565 1714,4662 1682,4752 1417,4837 1448,4739 1510,4655 1550,4507 "/>
   <polygon class="fil26 str1" points="18079,1087 18493,340 18719,731 18804,570 19054,1020 "/>
   <polygon class="fil27" points="18493,342 18488,460 18518,528 18598,625 18566,715 18302,800 18332,701 18395,618 18434,470 "/>
  </g>
 </g>
</svg>
