<?xml version="1.0" encoding="UTF-8"?>
<!DOCTYPE svg PUBLIC "-//W3C//DTD SVG 1.1//EN" "http://www.w3.org/Graphics/SVG/1.1/DTD/svg11.dtd">
<!-- Creator: CorelDRAW X5 -->
<svg xmlns="http://www.w3.org/2000/svg" xml:space="preserve" width="160.967mm" height="89.0871mm" style="shape-rendering:geometricPrecision; text-rendering:geometricPrecision; image-rendering:optimizeQuality; fill-rule:evenodd; clip-rule:evenodd"
viewBox="0 0 2710 1500"
 xmlns:xlink="http://www.w3.org/1999/xlink">
 <defs>
  <style type="text/css">
   <![CDATA[
    .fil5 {fill:#4E565A}
    .fil4 {fill:#FFED00}
    .fil2 {fill:#CFE3EB}
    .fil3 {fill:#FF8C81}
    .fil0 {fill:white}
    .fil1 {fill:#F2F2F2}
   ]]>
  </style>
 </defs>
 <g id="Vrstva_x0020_1">
  <metadata id="CorelCorpID_0Corel-Layer"/>
  <g id="_469258832">
   <rect class="fil0" width="2710" height="1500"/>
   <g>
    <rect class="fil1" x="146" y="731" width="1118" height="714" rx="69" ry="69"/>
    <rect class="fil1" x="1446" y="731" width="1118" height="710" rx="69" ry="69"/>
    <g>
     <rect class="fil2" x="145" y="49" width="2420" height="612" rx="48" ry="48"/>
     <rect class="fil3" x="472" y="786" width="466" height="91" rx="18" ry="18"/>
     <ellipse class="fil4" transform="matrix(0.308873 0.000414721 -0.000577013 0.293943 635.429 164.818)" rx="374" ry="325"/>
     <path class="fil0" d="M238 146c-4,-3 -6,-7 -6,-11 0,-10 14,-18 33,-18 17,0 31,7 33,16 10,-2 21,-3 31,-3 31,0 58,10 72,23 6,-4 19,-8 31,-8 6,0 12,1 19,2 12,-11 33,-19 60,-19 27,0 52,9 62,21l6 0c21,0 37,9 37,19 0,10 -17,19 -37,19 -6,0 -10,-1 -14,-2 -17,10 -35,15 -56,15l-2 0c-4,8 -17,13 -33,13 -4,0 -8,0 -12,-1 -10,10 -29,15 -52,15 -23,0 -43,-7 -54,-18 -8,2 -19,2 -27,2 -27,0 -50,-7 -64,-18 -4,1 -10,1 -17,1 -27,0 -50,-12 -50,-27 0,-11 17,-21 39,-23z"/>
     <path class="fil0" d="M1492 155c-7,-5 -10,-11 -10,-18 0,-16 24,-29 54,-29 27,0 50,11 54,25 17,-4 34,-5 50,-5 50,0 94,16 118,38 10,-7 30,-13 50,-13 10,0 20,2 30,4 20,-18 54,-31 97,-31 44,0 84,15 101,34l10 0c34,0 60,15 60,31 0,16 -27,31 -61,31 -10,0 -17,-2 -24,-4 -27,16 -57,25 -91,25l-3 0c-7,13 -27,22 -54,22 -7,0 -13,0 -20,-2 -17,16 -47,25 -84,25 -37,0 -71,-11 -87,-29 -13,4 -30,4 -44,4 -44,0 -81,-11 -104,-29 -7,2 -17,2 -27,2 -44,0 -81,-20 -81,-43 0,-18 27,-34 64,-38z"/>
     <polygon class="fil5" points="1179,433 888,660 1907,662 1692,527 1634,447 1593,393 1377,104 1314,266 1215,429 "/>
     <polygon class="fil0" points="1378,99 1405,221 1450,287 1519,404 1519,404 1294,533 1299,461 1386,357 1359,238 "/>
     <polygon class="fil0" points="1180,427 1007,562 1215,520 "/>
     <polygon class="fil0" points="1597,391 1541,457 1465,573 1563,500 1692,522 "/>
     <ellipse class="fil4" transform="matrix(0.308873 0.000414721 -0.000577013 0.293943 635.429 164.818)" rx="374" ry="325"/>
     <path class="fil0" d="M238 146c-4,-3 -6,-7 -6,-11 0,-10 14,-18 33,-18 17,0 31,7 33,16 10,-2 21,-3 31,-3 31,0 58,10 72,23 6,-4 19,-8 31,-8 6,0 12,1 19,2 12,-11 33,-19 60,-19 27,0 52,9 62,21l6 0c21,0 37,9 37,19 0,10 -17,19 -37,19 -6,0 -10,-1 -14,-2 -17,10 -35,15 -56,15l-2 0c-4,8 -17,13 -33,13 -4,0 -8,0 -12,-1 -10,10 -29,15 -52,15 -23,0 -43,-7 -54,-18 -8,2 -19,2 -27,2 -27,0 -50,-7 -64,-18 -4,1 -10,1 -17,1 -27,0 -50,-12 -50,-27 0,-11 17,-21 39,-23z"/>
     <path class="fil0" d="M1492 155c-7,-5 -10,-11 -10,-18 0,-16 24,-29 54,-29 27,0 50,11 54,25 17,-4 34,-5 50,-5 50,0 94,16 118,38 10,-7 30,-13 50,-13 10,0 20,2 30,4 20,-18 54,-31 97,-31 44,0 84,15 101,34l10 0c34,0 60,15 60,31 0,16 -27,31 -61,31 -10,0 -17,-2 -24,-4 -27,16 -57,25 -91,25l-3 0c-7,13 -27,22 -54,22 -7,0 -13,0 -20,-2 -17,16 -47,25 -84,25 -37,0 -71,-11 -87,-29 -13,4 -30,4 -44,4 -44,0 -81,-11 -104,-29 -7,2 -17,2 -27,2 -44,0 -81,-20 -81,-43 0,-18 27,-34 64,-38z"/>
     <polygon class="fil5" points="1179,433 888,660 1907,662 1692,527 1634,447 1593,393 1377,104 1314,266 1215,429 "/>
     <polygon class="fil0" points="1378,99 1405,221 1450,287 1519,404 1519,404 1294,533 1299,461 1386,357 1359,238 "/>
     <polygon class="fil0" points="1180,427 1007,562 1215,520 "/>
     <polygon class="fil0" points="1597,391 1541,457 1465,573 1563,500 1692,522 "/>
     <rect class="fil5" x="234" y="934" width="858" height="31"/>
     <rect class="fil5" x="234" y="998" width="750" height="31"/>
     <rect class="fil5" x="234" y="1060" width="823" height="31"/>
     <rect class="fil5" x="234" y="1122" width="518" height="31"/>
     <rect class="fil5" x="234" y="1184" width="804" height="31"/>
     <rect class="fil5" x="234" y="1246" width="695" height="31"/>
     <rect class="fil5" x="1543" y="934" width="746" height="31"/>
     <rect class="fil5" x="1543" y="998" width="803" height="31"/>
     <rect class="fil5" x="1543" y="1060" width="602" height="31"/>
     <rect class="fil5" x="1543" y="1122" width="518" height="31"/>
     <rect class="fil5" x="1543" y="1184" width="567" height="31"/>
     <rect class="fil5" x="1543" y="1247" width="402" height="31"/>
     <rect class="fil3" x="1791" y="786" width="466" height="91" rx="18" ry="18"/>
    </g>
   </g>
  </g>
 </g>
</svg>
