<?xml version="1.0" encoding="UTF-8"?>
<!DOCTYPE svg PUBLIC "-//W3C//DTD SVG 1.1//EN" "http://www.w3.org/Graphics/SVG/1.1/DTD/svg11.dtd">
<!-- Creator: CorelDRAW X5 -->
<svg xmlns="http://www.w3.org/2000/svg" xml:space="preserve" width="204mm" height="109.729mm" style="shape-rendering:geometricPrecision; text-rendering:geometricPrecision; image-rendering:optimizeQuality; fill-rule:evenodd; clip-rule:evenodd"
viewBox="0 0 4303 2314"
 xmlns:xlink="http://www.w3.org/1999/xlink">
 <defs>
  <style type="text/css">
   <![CDATA[
    .str0 {stroke:#2B2A29;stroke-width:4.21826}
    .fil3 {fill:none}
    .fil11 {fill:#4E565A}
    .fil6 {fill:#FFED00}
    .fil2 {fill:#5C4E46}
    .fil0 {fill:#737373}
    .fil7 {fill:#99B6C8}
    .fil10 {fill:#CFE3EB}
    .fil4 {fill:#FF8C81}
    .fil8 {fill:white}
    .fil5 {fill:#D3D3D4}
    .fil9 {fill:#F2F2F2}
    .fil1 {fill:#1F1B20}
   ]]>
  </style>
 </defs>
 <g id="Vrstva_x0020_1">
  <metadata id="CorelCorpID_0Corel-Layer"/>
  <g id="_471332144">
   <path class="fil0" d="M0 2211l4303 0 0 0c0,57 -46,103 -103,103l-4096 0c-57,0 -103,-46 -103,-103l0 0z"/>
   <path class="fil1" d="M466 2021l3374 0 0 -1867 -3374 0 0 1867zm67 -2021l3236 0c84,0 154,69 154,154l0 2068 -3543 0 0 -2068c0,-84 69,-154 154,-154z"/>
   <rect class="fil0" x="1803" y="2091" width="696" height="71"/>
   <polygon class="fil2" points="3851,148 456,148 456,2027 3851,2027 "/>
   <rect class="fil3 str0" x="1056" y="782" width="180" height="9"/>
   <polygon class="fil4" points="810,339 3192,339 3192,415 810,415 "/>
   <polygon class="fil5" points="810,477 1512,477 1512,554 810,554 "/>
   <polygon class="fil6" points="1654,477 2516,477 2517,554 1654,554 "/>
   <polygon class="fil4" points="810,623 2942,623 2942,700 810,700 "/>
   <polygon class="fil6" points="810,761 1512,761 1512,838 810,838 "/>
   <polygon class="fil5" points="1590,761 3197,761 3197,838 1590,838 "/>
   <polygon class="fil5" points="810,909 1346,909 1346,985 810,985 "/>
   <polygon class="fil7" points="810,1053 1070,1053 1070,1129 810,1129 "/>
   <polygon class="fil4" points="1431,909 3399,908 3399,985 1431,985 "/>
   <polygon class="fil6" points="1238,1053 3178,1053 3177,1129 1238,1129 "/>
   <rect class="fil3 str0" x="1056" y="1646" width="180" height="9"/>
   <polygon class="fil4" points="810,1202 2765,1202 2765,1279 810,1279 "/>
   <polygon class="fil5" points="810,1340 1512,1340 1512,1417 810,1417 "/>
   <polygon class="fil6" points="1654,1340 3366,1340 3366,1417 1654,1417 "/>
   <polygon class="fil4" points="810,1487 3048,1487 3048,1563 810,1563 "/>
   <polygon class="fil6" points="810,1625 1512,1625 1512,1702 810,1702 "/>
   <polygon class="fil5" points="1590,1625 3424,1625 3425,1702 1590,1702 "/>
   <polygon class="fil5" points="810,1772 1346,1772 1346,1849 810,1849 "/>
   <polygon class="fil4" points="1431,1772 3366,1772 3366,1849 1431,1849 "/>
  </g>
  <g id="_469258832">
   <rect class="fil8" x="456" y="148" width="3395" height="1879"/>
   <g>
    <rect class="fil9" x="638" y="1063" width="1401" height="895" rx="87" ry="87"/>
    <rect class="fil9" x="2267" y="1063" width="1401" height="889" rx="86" ry="86"/>
    <g>
     <rect class="fil10" x="638" y="209" width="3031" height="767" rx="60" ry="60"/>
     <rect class="fil4" x="1047" y="1132" width="583" height="114" rx="23" ry="23"/>
     <ellipse class="fil6" transform="matrix(0.308873 0.000414721 -0.000577013 0.293943 1251.72 354.195)" rx="469" ry="407"/>
     <path class="fil8" d="M754 330c-5,-4 -8,-8 -8,-14 0,-13 18,-22 41,-22 21,0 39,8 41,20 13,-3 26,-4 39,-4 39,0 72,13 91,29 8,-6 23,-10 39,-10 8,0 16,1 23,3 16,-14 41,-24 75,-24 34,0 65,11 78,27l8 0c26,0 47,11 47,24 0,13 -21,24 -47,24 -8,0 -13,-1 -18,-3 -21,12 -44,19 -70,19l-3 0c-5,10 -21,17 -41,17 -5,0 -10,0 -16,-1 -13,12 -36,19 -65,19 -28,0 -54,-8 -67,-22 -10,3 -23,3 -34,3 -34,0 -62,-8 -80,-22 -5,1 -13,1 -21,1 -34,0 -62,-15 -62,-33 0,-14 21,-26 49,-29z"/>
     <path class="fil8" d="M2325 342c-8,-7 -13,-14 -13,-23 0,-20 30,-36 67,-36 34,0 63,14 67,32 21,-4 42,-7 63,-7 63,0 118,21 147,48 13,-9 38,-16 63,-16 13,0 25,2 38,5 25,-23 67,-38 122,-38 55,0 105,18 126,43l13 0c42,0 76,18 76,39 0,20 -34,38 -76,38 -13,0 -21,-2 -29,-5 -34,20 -72,32 -114,31l-4 0c-8,16 -34,27 -67,27 -8,0 -17,0 -25,-2 -21,20 -59,32 -105,32 -46,0 -88,-14 -109,-36 -17,4 -38,4 -55,4 -55,0 -101,-14 -130,-36 -8,2 -21,2 -34,2 -55,0 -101,-25 -101,-54 0,-23 34,-43 80,-47z"/>
     <polygon class="fil11" points="1933,690 1568,975 2844,977 2575,808 2503,708 2451,640 2181,277 2101,481 1977,685 "/>
     <polygon class="fil8" points="2181,272 2215,424 2272,507 2358,653 2358,653 2077,815 2083,725 2192,595 2158,446 "/>
     <polygon class="fil8" points="1933,683 1717,851 1977,799 "/>
     <polygon class="fil8" points="2456,638 2386,721 2291,866 2413,773 2576,802 "/>
     <ellipse class="fil6" transform="matrix(0.308873 0.000414721 -0.000577013 0.293943 1251.72 354.195)" rx="469" ry="407"/>
     <path class="fil8" d="M754 330c-5,-4 -8,-8 -8,-14 0,-13 18,-22 41,-22 21,0 39,8 41,20 13,-3 26,-4 39,-4 39,0 72,13 91,29 8,-6 23,-10 39,-10 8,0 16,1 23,3 16,-14 41,-24 75,-24 34,0 65,11 78,27l8 0c26,0 47,11 47,24 0,13 -21,24 -47,24 -8,0 -13,-1 -18,-3 -21,12 -44,19 -70,19l-3 0c-5,10 -21,17 -41,17 -5,0 -10,0 -16,-1 -13,12 -36,19 -65,19 -28,0 -54,-8 -67,-22 -10,3 -23,3 -34,3 -34,0 -62,-8 -80,-22 -5,1 -13,1 -21,1 -34,0 -62,-15 -62,-33 0,-14 21,-26 49,-29z"/>
     <path class="fil8" d="M2325 342c-8,-7 -13,-14 -13,-23 0,-20 30,-36 67,-36 34,0 63,14 67,32 21,-4 42,-7 63,-7 63,0 118,21 147,48 13,-9 38,-16 63,-16 13,0 25,2 38,5 25,-23 67,-38 122,-38 55,0 105,18 126,43l13 0c42,0 76,18 76,39 0,20 -34,38 -76,38 -13,0 -21,-2 -29,-5 -34,20 -72,32 -114,31l-4 0c-8,16 -34,27 -67,27 -8,0 -17,0 -25,-2 -21,20 -59,32 -105,32 -46,0 -88,-14 -109,-36 -17,4 -38,4 -55,4 -55,0 -101,-14 -130,-36 -8,2 -21,2 -34,2 -55,0 -101,-25 -101,-54 0,-23 34,-43 80,-47z"/>
     <polygon class="fil11" points="1933,690 1568,975 2844,977 2575,808 2503,708 2451,640 2181,277 2101,481 1977,685 "/>
     <polygon class="fil8" points="2181,272 2215,424 2272,507 2358,653 2358,653 2077,815 2083,725 2192,595 2158,446 "/>
     <polygon class="fil8" points="1933,683 1717,851 1977,799 "/>
     <polygon class="fil8" points="2456,638 2386,721 2291,866 2413,773 2576,802 "/>
     <rect class="fil11" x="749" y="1318" width="1074" height="38"/>
     <rect class="fil11" x="749" y="1398" width="940" height="38"/>
     <rect class="fil11" x="749" y="1476" width="1031" height="38"/>
     <rect class="fil11" x="749" y="1553" width="649" height="38"/>
     <rect class="fil11" x="749" y="1631" width="1007" height="38"/>
     <rect class="fil11" x="749" y="1709" width="871" height="38"/>
     <rect class="fil11" x="2389" y="1318" width="934" height="38"/>
     <rect class="fil11" x="2389" y="1398" width="1006" height="38"/>
     <rect class="fil11" x="2389" y="1476" width="755" height="38"/>
     <rect class="fil11" x="2389" y="1554" width="649" height="38"/>
     <rect class="fil11" x="2389" y="1631" width="710" height="38"/>
     <rect class="fil11" x="2389" y="1709" width="503" height="38"/>
     <rect class="fil4" x="2699" y="1132" width="583" height="114" rx="23" ry="23"/>
    </g>
   </g>
  </g>
 </g>
</svg>
