<svg width="771" height="389" viewBox="0 0 771 389" fill="none" xmlns="http://www.w3.org/2000/svg">
<path fill-rule="evenodd" clip-rule="evenodd" d="M0.0444336 369.612H770.979C770.979 379.824 762.738 388.065 752.526 388.065H18.6773C8.46505 388.065 0.223596 379.824 0.223596 369.612H0.0444336Z" fill="#80858B"/>
<path fill-rule="evenodd" clip-rule="evenodd" d="M689.998 0H81.7422V336.646H689.998V0Z" fill="#075468"/>
<path d="M221.488 113.589H189.239V115.201H221.488V113.589Z" stroke="#2B2A29" stroke-width="0.755753"/>
<path fill-rule="evenodd" clip-rule="evenodd" d="M145.166 34.22H571.93V48.0155H145.166V34.22Z" fill="#FF8C81"/>
<path fill-rule="evenodd" clip-rule="evenodd" d="M145.166 58.9443H270.937V72.7398H145.166V58.9443Z" fill="#D3D3D4"/>
<path fill-rule="evenodd" clip-rule="evenodd" d="M296.378 58.9443H450.816L450.995 72.7398H296.378V58.9443Z" fill="#FFED00"/>
<path fill-rule="evenodd" clip-rule="evenodd" d="M145.166 85.1021H527.139V98.8975H145.166V85.1021Z" fill="#FF8C81"/>
<path fill-rule="evenodd" clip-rule="evenodd" d="M145.166 110.006H270.937V123.622H145.166V110.006Z" fill="#FFED00"/>
<path fill-rule="evenodd" clip-rule="evenodd" d="M284.912 110.006H572.826V123.622H284.912V110.006Z" fill="#D3D3D4"/>
<path fill-rule="evenodd" clip-rule="evenodd" d="M145.166 136.342H241.196V150.138H145.166V136.342Z" fill="#D3D3D4"/>
<path fill-rule="evenodd" clip-rule="evenodd" d="M145.166 162.142H191.748V175.937H145.166V162.142Z" fill="#99B6C8"/>
<path fill-rule="evenodd" clip-rule="evenodd" d="M256.425 136.342H609.016V150.138H256.425V136.342Z" fill="#FF8C81"/>
<path fill-rule="evenodd" clip-rule="evenodd" d="M221.847 162.142H569.422L569.243 175.937H221.847V162.142Z" fill="#FFED00"/>
<path d="M221.488 268.385H189.239V269.997H221.488V268.385Z" stroke="#2B2A29" stroke-width="0.755753"/>
<path fill-rule="evenodd" clip-rule="evenodd" d="M145.166 188.837H495.428V202.632H145.166V188.837Z" fill="#FF8C81"/>
<path fill-rule="evenodd" clip-rule="evenodd" d="M145.166 213.74H270.937V227.357H145.166V213.74Z" fill="#D3D3D4"/>
<path fill-rule="evenodd" clip-rule="evenodd" d="M296.378 213.74H603.104V227.357H296.378V213.74Z" fill="#FFED00"/>
<path fill-rule="evenodd" clip-rule="evenodd" d="M145.166 239.898H546.13V253.694H145.166V239.898Z" fill="#FF8C81"/>
<path fill-rule="evenodd" clip-rule="evenodd" d="M145.166 264.623H270.937V278.418H145.166V264.623Z" fill="#FFED00"/>
<path fill-rule="evenodd" clip-rule="evenodd" d="M284.912 264.623H613.496L613.675 278.418H284.912V264.623Z" fill="#D3D3D4"/>
<path fill-rule="evenodd" clip-rule="evenodd" d="M145.166 290.959H241.196V304.755H145.166V290.959Z" fill="#D3D3D4"/>
<path fill-rule="evenodd" clip-rule="evenodd" d="M256.425 290.959H603.104V304.755H256.425V290.959Z" fill="#FF8C81"/>
</svg>
