<?xml version="1.0" encoding="UTF-8"?>
<!DOCTYPE svg PUBLIC "-//W3C//DTD SVG 1.1//EN" "http://www.w3.org/Graphics/SVG/1.1/DTD/svg11.dtd">
<!-- Creator: CorelDRAW X5 -->
<svg xmlns="http://www.w3.org/2000/svg" xml:space="preserve" width="204mm" height="102.723mm" style="shape-rendering:geometricPrecision; text-rendering:geometricPrecision; image-rendering:optimizeQuality; fill-rule:evenodd; clip-rule:evenodd"
viewBox="0 0 4303 2167"
 xmlns:xlink="http://www.w3.org/1999/xlink">
 <defs>
  <style type="text/css">
   <![CDATA[
    .str0 {stroke:#2B2A29;stroke-width:4.21826}
    .fil2 {fill:none}
    .fil5 {fill:#FFED00}
    .fil1 {fill:#5C4E46}
    .fil0 {fill:#737373}
    .fil6 {fill:#99B6C8}
    .fil3 {fill:#FF8C81}
    .fil4 {fill:#D3D3D4}
   ]]>
  </style>
 </defs>
 <g id="Vrstva_x0020_1">
  <metadata id="CorelCorpID_0Corel-Layer"/>
  <path class="fil0" d="M0 2063l4303 0 0 0c0,57 -46,103 -103,103l-4096 0c-57,0 -103,-46 -103,-103l0 0z"/>
  <g id="_467958792">
   <polygon class="fil1" points="3851,0 456,0 456,1879 3851,1879 "/>
   <rect class="fil2 str0" x="1056" y="634" width="180" height="9"/>
   <polygon class="fil3" points="810,191 3192,191 3192,268 810,268 "/>
   <polygon class="fil4" points="810,329 1512,329 1512,406 810,406 "/>
   <polygon class="fil5" points="1654,329 2516,329 2517,406 1654,406 "/>
   <polygon class="fil3" points="810,475 2942,475 2942,552 810,552 "/>
   <polygon class="fil5" points="810,614 1512,614 1512,690 810,690 "/>
   <polygon class="fil4" points="1590,614 3197,614 3197,690 1590,690 "/>
   <polygon class="fil4" points="810,761 1346,761 1346,838 810,838 "/>
   <polygon class="fil6" points="810,905 1070,905 1070,982 810,982 "/>
   <polygon class="fil3" points="1431,761 3399,761 3399,838 1431,838 "/>
   <polygon class="fil5" points="1238,905 3178,905 3177,982 1238,982 "/>
   <rect class="fil2 str0" x="1056" y="1498" width="180" height="9"/>
   <polygon class="fil3" points="810,1054 2765,1054 2765,1131 810,1131 "/>
   <polygon class="fil4" points="810,1193 1512,1193 1512,1269 810,1269 "/>
   <polygon class="fil5" points="1654,1193 3366,1193 3366,1269 1654,1269 "/>
   <polygon class="fil3" points="810,1339 3048,1339 3048,1416 810,1416 "/>
   <polygon class="fil5" points="810,1477 1512,1477 1512,1554 810,1554 "/>
   <polygon class="fil4" points="1590,1477 3424,1477 3425,1554 1590,1554 "/>
   <polygon class="fil4" points="810,1624 1346,1624 1346,1701 810,1701 "/>
   <polygon class="fil3" points="1431,1624 3366,1624 3366,1701 1431,1701 "/>
  </g>
 </g>
</svg>
