<svg width="287" height="132" viewBox="0 0 287 132" fill="none" xmlns="http://www.w3.org/2000/svg">
<path d="M101 128.895V120.27H106.233V121.196H102.057V124.111H105.841V125.037H102.057V128.895H101Z" fill="#323233"/>
<path d="M107.907 128.895V122.426H108.912V128.895H107.907ZM108.418 121.348C108.222 121.348 108.053 121.282 107.911 121.15C107.772 121.018 107.702 120.859 107.702 120.674C107.702 120.489 107.772 120.33 107.911 120.198C108.053 120.066 108.222 120 108.418 120C108.614 120 108.782 120.066 108.921 120.198C109.063 120.33 109.134 120.489 109.134 120.674C109.134 120.859 109.063 121.018 108.921 121.15C108.782 121.282 108.614 121.348 108.418 121.348Z" fill="#323233"/>
<path d="M113.396 131.456C112.911 131.456 112.493 131.394 112.143 131.27C111.794 131.149 111.503 130.989 111.27 130.79C111.04 130.594 110.857 130.383 110.72 130.158L111.521 129.602C111.612 129.72 111.727 129.855 111.866 130.007C112.006 130.161 112.196 130.295 112.438 130.407C112.682 130.522 113.001 130.58 113.396 130.58C113.925 130.58 114.361 130.453 114.705 130.2C115.048 129.948 115.22 129.552 115.22 129.013V127.699H115.135C115.061 127.817 114.956 127.963 114.82 128.137C114.686 128.308 114.493 128.461 114.24 128.596C113.99 128.728 113.652 128.794 113.226 128.794C112.697 128.794 112.223 128.67 111.803 128.423C111.385 128.176 111.054 127.817 110.81 127.345C110.568 126.873 110.447 126.301 110.447 125.627C110.447 124.964 110.565 124.387 110.801 123.896C111.037 123.402 111.365 123.02 111.786 122.75C112.206 122.478 112.692 122.342 113.243 122.342C113.669 122.342 114.007 122.412 114.257 122.552C114.51 122.69 114.703 122.847 114.837 123.024C114.973 123.198 115.078 123.341 115.152 123.454H115.254V122.426H116.226V129.08C116.226 129.636 116.098 130.088 115.842 130.436C115.589 130.787 115.249 131.044 114.82 131.207C114.393 131.373 113.919 131.456 113.396 131.456ZM113.362 127.901C113.766 127.901 114.107 127.81 114.385 127.627C114.663 127.445 114.875 127.182 115.02 126.84C115.165 126.497 115.237 126.087 115.237 125.61C115.237 125.144 115.166 124.732 115.024 124.376C114.882 124.019 114.672 123.74 114.393 123.538C114.115 123.336 113.771 123.235 113.362 123.235C112.936 123.235 112.581 123.341 112.297 123.555C112.016 123.768 111.804 124.054 111.662 124.414C111.523 124.773 111.453 125.172 111.453 125.61C111.453 126.059 111.524 126.456 111.666 126.802C111.811 127.144 112.024 127.414 112.305 127.61C112.589 127.804 112.942 127.901 113.362 127.901Z" fill="#323233"/>
<path d="M118.067 128.895V122.426H119.038V123.437H119.124C119.26 123.091 119.48 122.823 119.784 122.632C120.088 122.439 120.453 122.342 120.879 122.342C121.311 122.342 121.67 122.439 121.957 122.632C122.247 122.823 122.473 123.091 122.635 123.437H122.703C122.871 123.103 123.122 122.837 123.457 122.641C123.793 122.441 124.195 122.342 124.663 122.342C125.249 122.342 125.727 122.523 126.099 122.885C126.472 123.244 126.658 123.804 126.658 124.565V128.895H125.652V124.565C125.652 124.088 125.52 123.747 125.256 123.542C124.991 123.337 124.68 123.235 124.322 123.235C123.862 123.235 123.506 123.372 123.253 123.647C123 123.92 122.874 124.265 122.874 124.683V128.895H121.851V124.464C121.851 124.096 121.73 123.8 121.489 123.576C121.247 123.348 120.936 123.235 120.555 123.235C120.294 123.235 120.05 123.303 119.822 123.441C119.598 123.578 119.416 123.769 119.277 124.014C119.141 124.255 119.072 124.534 119.072 124.852V128.895H118.067Z" fill="#323233"/>
<path d="M130.423 129.046C130.008 129.046 129.631 128.969 129.293 128.815C128.955 128.658 128.687 128.432 128.488 128.137C128.289 127.839 128.19 127.48 128.19 127.059C128.19 126.688 128.263 126.388 128.411 126.157C128.559 125.924 128.756 125.742 129.004 125.61C129.251 125.478 129.523 125.38 129.822 125.315C130.123 125.248 130.425 125.194 130.729 125.155C131.127 125.104 131.45 125.067 131.697 125.041C131.947 125.013 132.129 124.967 132.242 124.902C132.359 124.838 132.417 124.725 132.417 124.565V124.532C132.417 124.116 132.302 123.793 132.072 123.563C131.844 123.333 131.499 123.218 131.036 123.218C130.556 123.218 130.18 123.322 129.907 123.529C129.634 123.737 129.442 123.959 129.332 124.195L128.377 123.858C128.548 123.465 128.775 123.159 129.059 122.94C129.346 122.718 129.658 122.563 129.996 122.476C130.337 122.387 130.673 122.342 131.002 122.342C131.212 122.342 131.454 122.367 131.727 122.417C132.002 122.465 132.268 122.565 132.523 122.716C132.782 122.868 132.996 123.097 133.167 123.403C133.337 123.709 133.423 124.119 133.423 124.633V128.895H132.417V128.019H132.366C132.298 128.159 132.184 128.309 132.025 128.47C131.866 128.63 131.654 128.766 131.39 128.878C131.126 128.99 130.803 129.046 130.423 129.046ZM130.576 128.154C130.974 128.154 131.309 128.076 131.582 127.922C131.857 127.768 132.065 127.568 132.204 127.324C132.346 127.08 132.417 126.823 132.417 126.553V125.644C132.374 125.694 132.281 125.74 132.136 125.783C131.994 125.822 131.829 125.857 131.641 125.888C131.457 125.916 131.276 125.941 131.1 125.964C130.927 125.983 130.786 126 130.678 126.014C130.417 126.048 130.173 126.103 129.945 126.178C129.721 126.251 129.539 126.362 129.4 126.511C129.263 126.657 129.195 126.856 129.195 127.109C129.195 127.455 129.325 127.716 129.583 127.893C129.844 128.067 130.175 128.154 130.576 128.154Z" fill="#323233"/>
<path d="M152.108 129H151L154.205 120.273H155.295L158.5 129H157.392L154.784 121.653H154.716L152.108 129ZM152.517 125.591H156.983V126.528H152.517V125.591Z" fill="#323233"/>
<path d="M163.848 126.324V122.455H164.854V129H163.848V127.892H163.78C163.626 128.224 163.388 128.507 163.064 128.74C162.74 128.97 162.331 129.085 161.837 129.085C161.428 129.085 161.064 128.996 160.746 128.817C160.428 128.635 160.178 128.362 159.996 127.999C159.814 127.632 159.723 127.17 159.723 126.614V122.455H160.729V126.545C160.729 127.023 160.862 127.403 161.129 127.688C161.399 127.972 161.743 128.114 162.161 128.114C162.411 128.114 162.665 128.05 162.923 127.922C163.185 127.794 163.403 127.598 163.58 127.334C163.759 127.07 163.848 126.733 163.848 126.324Z" fill="#323233"/>
<path d="M169.542 122.455V123.307H166.15V122.455H169.542ZM167.139 120.886H168.145V127.125C168.145 127.409 168.186 127.622 168.268 127.764C168.353 127.903 168.461 127.997 168.592 128.045C168.725 128.091 168.866 128.114 169.014 128.114C169.125 128.114 169.216 128.108 169.287 128.097C169.358 128.082 169.414 128.071 169.457 128.062L169.662 128.966C169.593 128.991 169.498 129.017 169.376 129.043C169.254 129.071 169.099 129.085 168.912 129.085C168.627 129.085 168.349 129.024 168.076 128.902C167.806 128.78 167.582 128.594 167.403 128.344C167.227 128.094 167.139 127.778 167.139 127.398V120.886Z" fill="#323233"/>
<path d="M173.644 129.136C173.053 129.136 172.534 128.996 172.088 128.714C171.645 128.433 171.299 128.04 171.049 127.534C170.801 127.028 170.678 126.438 170.678 125.761C170.678 125.08 170.801 124.484 171.049 123.976C171.299 123.467 171.645 123.072 172.088 122.791C172.534 122.51 173.053 122.369 173.644 122.369C174.235 122.369 174.752 122.51 175.195 122.791C175.641 123.072 175.988 123.467 176.235 123.976C176.485 124.484 176.61 125.08 176.61 125.761C176.61 126.438 176.485 127.028 176.235 127.534C175.988 128.04 175.641 128.433 175.195 128.714C174.752 128.996 174.235 129.136 173.644 129.136ZM173.644 128.233C174.093 128.233 174.462 128.118 174.752 127.888C175.042 127.658 175.256 127.355 175.395 126.98C175.534 126.605 175.604 126.199 175.604 125.761C175.604 125.324 175.534 124.916 175.395 124.538C175.256 124.161 175.042 123.855 174.752 123.622C174.462 123.389 174.093 123.273 173.644 123.273C173.195 123.273 172.826 123.389 172.536 123.622C172.246 123.855 172.032 124.161 171.892 124.538C171.753 124.916 171.684 125.324 171.684 125.761C171.684 126.199 171.753 126.605 171.892 126.98C172.032 127.355 172.246 127.658 172.536 127.888C172.826 128.118 173.195 128.233 173.644 128.233Z" fill="#323233"/>
<path d="M180.804 129.136C180.19 129.136 179.662 128.991 179.219 128.702C178.776 128.412 178.435 128.013 178.196 127.504C177.957 126.996 177.838 126.415 177.838 125.761C177.838 125.097 177.96 124.51 178.205 124.001C178.452 123.49 178.795 123.091 179.236 122.804C179.679 122.514 180.196 122.369 180.787 122.369C181.247 122.369 181.662 122.455 182.031 122.625C182.401 122.795 182.703 123.034 182.939 123.341C183.175 123.648 183.321 124.006 183.378 124.415H182.372C182.295 124.116 182.125 123.852 181.861 123.622C181.599 123.389 181.247 123.273 180.804 123.273C180.412 123.273 180.068 123.375 179.773 123.58C179.48 123.781 179.251 124.067 179.087 124.436C178.925 124.803 178.844 125.233 178.844 125.727C178.844 126.233 178.923 126.673 179.082 127.048C179.244 127.423 179.472 127.714 179.764 127.922C180.06 128.129 180.406 128.233 180.804 128.233C181.065 128.233 181.303 128.188 181.516 128.097C181.729 128.006 181.909 127.875 182.057 127.705C182.205 127.534 182.31 127.33 182.372 127.091H183.378C183.321 127.477 183.18 127.825 182.956 128.135C182.734 128.442 182.44 128.686 182.074 128.868C181.71 129.047 181.287 129.136 180.804 129.136Z" fill="#323233"/>
<path d="M186.774 129.153C186.359 129.153 185.983 129.075 185.645 128.919C185.307 128.76 185.038 128.531 184.839 128.233C184.641 127.932 184.541 127.568 184.541 127.142C184.541 126.767 184.615 126.463 184.763 126.23C184.911 125.994 185.108 125.81 185.355 125.676C185.602 125.543 185.875 125.443 186.173 125.378C186.474 125.31 186.777 125.256 187.081 125.216C187.479 125.165 187.801 125.126 188.048 125.101C188.298 125.072 188.48 125.026 188.594 124.96C188.71 124.895 188.768 124.781 188.768 124.619V124.585C188.768 124.165 188.653 123.838 188.423 123.605C188.196 123.372 187.851 123.256 187.388 123.256C186.908 123.256 186.531 123.361 186.259 123.571C185.986 123.781 185.794 124.006 185.683 124.244L184.729 123.903C184.899 123.506 185.126 123.196 185.411 122.974C185.697 122.75 186.01 122.594 186.348 122.506C186.689 122.415 187.024 122.369 187.354 122.369C187.564 122.369 187.805 122.395 188.078 122.446C188.354 122.494 188.619 122.595 188.875 122.749C189.134 122.902 189.348 123.134 189.518 123.443C189.689 123.753 189.774 124.168 189.774 124.688V129H188.768V128.114H188.717C188.649 128.256 188.536 128.408 188.376 128.57C188.217 128.732 188.006 128.869 187.741 128.983C187.477 129.097 187.155 129.153 186.774 129.153ZM186.928 128.25C187.325 128.25 187.661 128.172 187.933 128.016C188.209 127.859 188.416 127.658 188.555 127.411C188.697 127.163 188.768 126.903 188.768 126.631V125.71C188.726 125.761 188.632 125.808 188.487 125.851C188.345 125.891 188.18 125.926 187.993 125.957C187.808 125.986 187.628 126.011 187.452 126.034C187.278 126.054 187.138 126.071 187.03 126.085C186.768 126.119 186.524 126.175 186.297 126.251C186.072 126.325 185.891 126.438 185.751 126.588C185.615 126.736 185.547 126.938 185.547 127.193C185.547 127.543 185.676 127.807 185.935 127.986C186.196 128.162 186.527 128.25 186.928 128.25Z" fill="#323233"/>
<path d="M194.081 129.136C193.536 129.136 193.054 128.999 192.637 128.723C192.219 128.445 191.892 128.053 191.657 127.547C191.421 127.038 191.303 126.438 191.303 125.744C191.303 125.057 191.421 124.46 191.657 123.955C191.892 123.449 192.221 123.058 192.641 122.783C193.061 122.507 193.547 122.369 194.098 122.369C194.525 122.369 194.861 122.44 195.108 122.582C195.358 122.722 195.549 122.881 195.679 123.06C195.813 123.236 195.917 123.381 195.99 123.494H196.076V120.273H197.081V129H196.11V127.994H195.99C195.917 128.114 195.811 128.264 195.675 128.446C195.539 128.625 195.344 128.786 195.091 128.928C194.838 129.067 194.502 129.136 194.081 129.136ZM194.218 128.233C194.621 128.233 194.962 128.128 195.24 127.918C195.519 127.705 195.73 127.411 195.875 127.036C196.02 126.658 196.093 126.222 196.093 125.727C196.093 125.239 196.022 124.811 195.88 124.445C195.738 124.075 195.527 123.788 195.249 123.584C194.971 123.376 194.627 123.273 194.218 123.273C193.792 123.273 193.436 123.382 193.152 123.601C192.871 123.817 192.659 124.111 192.517 124.483C192.378 124.852 192.309 125.267 192.309 125.727C192.309 126.193 192.38 126.616 192.522 126.997C192.667 127.375 192.88 127.676 193.161 127.901C193.445 128.122 193.797 128.233 194.218 128.233Z" fill="#323233"/>
<path d="M152.108 129H151L154.205 120.273H155.295L158.5 129H157.392L154.784 121.653H154.716L152.108 129ZM152.517 125.591H156.983V126.528H152.517V125.591Z" fill="#323233"/>
<path d="M163.848 126.324V122.455H164.854V129H163.848V127.892H163.78C163.626 128.224 163.388 128.507 163.064 128.74C162.74 128.97 162.331 129.085 161.837 129.085C161.428 129.085 161.064 128.996 160.746 128.817C160.428 128.635 160.178 128.362 159.996 127.999C159.814 127.632 159.723 127.17 159.723 126.614V122.455H160.729V126.545C160.729 127.023 160.862 127.403 161.129 127.688C161.399 127.972 161.743 128.114 162.161 128.114C162.411 128.114 162.665 128.05 162.923 127.922C163.185 127.794 163.403 127.598 163.58 127.334C163.759 127.07 163.848 126.733 163.848 126.324Z" fill="#323233"/>
<path d="M169.542 122.455V123.307H166.15V122.455H169.542ZM167.139 120.886H168.145V127.125C168.145 127.409 168.186 127.622 168.268 127.764C168.353 127.903 168.461 127.997 168.592 128.045C168.725 128.091 168.866 128.114 169.014 128.114C169.125 128.114 169.216 128.108 169.287 128.097C169.358 128.082 169.414 128.071 169.457 128.062L169.662 128.966C169.593 128.991 169.498 129.017 169.376 129.043C169.254 129.071 169.099 129.085 168.912 129.085C168.627 129.085 168.349 129.024 168.076 128.902C167.806 128.78 167.582 128.594 167.403 128.344C167.227 128.094 167.139 127.778 167.139 127.398V120.886Z" fill="#323233"/>
<path d="M173.644 129.136C173.053 129.136 172.534 128.996 172.088 128.714C171.645 128.433 171.299 128.04 171.049 127.534C170.801 127.028 170.678 126.438 170.678 125.761C170.678 125.08 170.801 124.484 171.049 123.976C171.299 123.467 171.645 123.072 172.088 122.791C172.534 122.51 173.053 122.369 173.644 122.369C174.235 122.369 174.752 122.51 175.195 122.791C175.641 123.072 175.988 123.467 176.235 123.976C176.485 124.484 176.61 125.08 176.61 125.761C176.61 126.438 176.485 127.028 176.235 127.534C175.988 128.04 175.641 128.433 175.195 128.714C174.752 128.996 174.235 129.136 173.644 129.136ZM173.644 128.233C174.093 128.233 174.462 128.118 174.752 127.888C175.042 127.658 175.256 127.355 175.395 126.98C175.534 126.605 175.604 126.199 175.604 125.761C175.604 125.324 175.534 124.916 175.395 124.538C175.256 124.161 175.042 123.855 174.752 123.622C174.462 123.389 174.093 123.273 173.644 123.273C173.195 123.273 172.826 123.389 172.536 123.622C172.246 123.855 172.032 124.161 171.892 124.538C171.753 124.916 171.684 125.324 171.684 125.761C171.684 126.199 171.753 126.605 171.892 126.98C172.032 127.355 172.246 127.658 172.536 127.888C172.826 128.118 173.195 128.233 173.644 128.233Z" fill="#323233"/>
<path d="M180.804 129.136C180.19 129.136 179.662 128.991 179.219 128.702C178.776 128.412 178.435 128.013 178.196 127.504C177.957 126.996 177.838 126.415 177.838 125.761C177.838 125.097 177.96 124.51 178.205 124.001C178.452 123.49 178.795 123.091 179.236 122.804C179.679 122.514 180.196 122.369 180.787 122.369C181.247 122.369 181.662 122.455 182.031 122.625C182.401 122.795 182.703 123.034 182.939 123.341C183.175 123.648 183.321 124.006 183.378 124.415H182.372C182.295 124.116 182.125 123.852 181.861 123.622C181.599 123.389 181.247 123.273 180.804 123.273C180.412 123.273 180.068 123.375 179.773 123.58C179.48 123.781 179.251 124.067 179.087 124.436C178.925 124.803 178.844 125.233 178.844 125.727C178.844 126.233 178.923 126.673 179.082 127.048C179.244 127.423 179.472 127.714 179.764 127.922C180.06 128.129 180.406 128.233 180.804 128.233C181.065 128.233 181.303 128.188 181.516 128.097C181.729 128.006 181.909 127.875 182.057 127.705C182.205 127.534 182.31 127.33 182.372 127.091H183.378C183.321 127.477 183.18 127.825 182.956 128.135C182.734 128.442 182.44 128.686 182.074 128.868C181.71 129.047 181.287 129.136 180.804 129.136Z" fill="#323233"/>
<path d="M186.774 129.153C186.359 129.153 185.983 129.075 185.645 128.919C185.307 128.76 185.038 128.531 184.839 128.233C184.641 127.932 184.541 127.568 184.541 127.142C184.541 126.767 184.615 126.463 184.763 126.23C184.911 125.994 185.108 125.81 185.355 125.676C185.602 125.543 185.875 125.443 186.173 125.378C186.474 125.31 186.777 125.256 187.081 125.216C187.479 125.165 187.801 125.126 188.048 125.101C188.298 125.072 188.48 125.026 188.594 124.96C188.71 124.895 188.768 124.781 188.768 124.619V124.585C188.768 124.165 188.653 123.838 188.423 123.605C188.196 123.372 187.851 123.256 187.388 123.256C186.908 123.256 186.531 123.361 186.259 123.571C185.986 123.781 185.794 124.006 185.683 124.244L184.729 123.903C184.899 123.506 185.126 123.196 185.411 122.974C185.697 122.75 186.01 122.594 186.348 122.506C186.689 122.415 187.024 122.369 187.354 122.369C187.564 122.369 187.805 122.395 188.078 122.446C188.354 122.494 188.619 122.595 188.875 122.749C189.134 122.902 189.348 123.134 189.518 123.443C189.689 123.753 189.774 124.168 189.774 124.688V129H188.768V128.114H188.717C188.649 128.256 188.536 128.408 188.376 128.57C188.217 128.732 188.006 128.869 187.741 128.983C187.477 129.097 187.155 129.153 186.774 129.153ZM186.928 128.25C187.325 128.25 187.661 128.172 187.933 128.016C188.209 127.859 188.416 127.658 188.555 127.411C188.697 127.163 188.768 126.903 188.768 126.631V125.71C188.726 125.761 188.632 125.808 188.487 125.851C188.345 125.891 188.18 125.926 187.993 125.957C187.808 125.986 187.628 126.011 187.452 126.034C187.278 126.054 187.138 126.071 187.03 126.085C186.768 126.119 186.524 126.175 186.297 126.251C186.072 126.325 185.891 126.438 185.751 126.588C185.615 126.736 185.547 126.938 185.547 127.193C185.547 127.543 185.676 127.807 185.935 127.986C186.196 128.162 186.527 128.25 186.928 128.25Z" fill="#323233"/>
<path d="M194.081 129.136C193.536 129.136 193.054 128.999 192.637 128.723C192.219 128.445 191.892 128.053 191.657 127.547C191.421 127.038 191.303 126.438 191.303 125.744C191.303 125.057 191.421 124.46 191.657 123.955C191.892 123.449 192.221 123.058 192.641 122.783C193.061 122.507 193.547 122.369 194.098 122.369C194.525 122.369 194.861 122.44 195.108 122.582C195.358 122.722 195.549 122.881 195.679 123.06C195.813 123.236 195.917 123.381 195.99 123.494H196.076V120.273H197.081V129H196.11V127.994H195.99C195.917 128.114 195.811 128.264 195.675 128.446C195.539 128.625 195.344 128.786 195.091 128.928C194.838 129.067 194.502 129.136 194.081 129.136ZM194.218 128.233C194.621 128.233 194.962 128.128 195.24 127.918C195.519 127.705 195.73 127.411 195.875 127.036C196.02 126.658 196.093 126.222 196.093 125.727C196.093 125.239 196.022 124.811 195.88 124.445C195.738 124.075 195.527 123.788 195.249 123.584C194.971 123.376 194.627 123.273 194.218 123.273C193.792 123.273 193.436 123.382 193.152 123.601C192.871 123.817 192.659 124.111 192.517 124.483C192.378 124.852 192.309 125.267 192.309 125.727C192.309 126.193 192.38 126.616 192.522 126.997C192.667 127.375 192.88 127.676 193.161 127.901C193.445 128.122 193.797 128.233 194.218 128.233Z" fill="#323233"/>
<path d="M163.992 83V83.0206L158.693 86.1954V110.742L164.033 107.546H189.163V84.7498C189.163 83.7879 188.371 83 187.409 83H163.992ZM174.277 88.4947H178.799L182.889 102.129H179.343L178.564 99.1291H174.476L173.695 102.092H170.381L174.277 88.4947ZM190.532 88.5317V108.917H164.41L161.576 110.613V111.25C161.576 112.212 162.37 113 163.33 113H191.579V88.5317H190.532ZM176.46 90.7131L175.099 96.638H177.903L176.46 90.7131Z" fill="#BF2223"/>
<path d="M220.559 123.534H219.617C219.562 123.264 219.464 123.026 219.325 122.821C219.189 122.616 219.022 122.444 218.824 122.305C218.629 122.163 218.413 122.057 218.175 121.986C217.937 121.915 217.689 121.88 217.431 121.88C216.961 121.88 216.534 121.998 216.152 122.236C215.773 122.474 215.47 122.825 215.245 123.288C215.022 123.751 214.911 124.319 214.911 124.992C214.911 125.665 215.022 126.233 215.245 126.696C215.47 127.159 215.773 127.51 216.152 127.747C216.534 127.985 216.961 128.104 217.431 128.104C217.689 128.104 217.937 128.069 218.175 127.998C218.413 127.927 218.629 127.822 218.824 127.683C219.022 127.541 219.189 127.368 219.325 127.163C219.464 126.955 219.562 126.718 219.617 126.449H220.559C220.488 126.847 220.359 127.202 220.172 127.516C219.984 127.83 219.752 128.097 219.473 128.317C219.195 128.534 218.882 128.7 218.536 128.814C218.192 128.928 217.823 128.985 217.431 128.985C216.768 128.985 216.179 128.823 215.662 128.499C215.146 128.175 214.74 127.715 214.444 127.117C214.148 126.52 214 125.812 214 124.992C214 124.172 214.148 123.464 214.444 122.866C214.74 122.269 215.146 121.809 215.662 121.485C216.179 121.161 216.768 120.999 217.431 120.999C217.823 120.999 218.192 121.056 218.536 121.17C218.882 121.284 219.195 121.451 219.473 121.671C219.752 121.888 219.984 122.154 220.172 122.468C220.359 122.779 220.488 123.135 220.559 123.534Z" fill="#323233"/>
<path d="M224.327 129C223.8 129 223.339 128.875 222.941 128.624C222.547 128.374 222.238 128.023 222.015 127.573C221.795 127.122 221.685 126.596 221.685 125.994C221.685 125.387 221.795 124.857 222.015 124.404C222.238 123.951 222.547 123.599 222.941 123.348C223.339 123.098 223.8 122.973 224.327 122.973C224.853 122.973 225.314 123.098 225.708 123.348C226.106 123.599 226.414 123.951 226.634 124.404C226.857 124.857 226.968 125.387 226.968 125.994C226.968 126.596 226.857 127.122 226.634 127.573C226.414 128.023 226.106 128.374 225.708 128.624C225.314 128.875 224.853 129 224.327 129ZM224.327 128.195C224.727 128.195 225.055 128.093 225.314 127.888C225.572 127.683 225.763 127.413 225.887 127.079C226.011 126.745 226.073 126.384 226.073 125.994C226.073 125.604 226.011 125.241 225.887 124.905C225.763 124.568 225.572 124.296 225.314 124.089C225.055 123.881 224.727 123.777 224.327 123.777C223.927 123.777 223.598 123.881 223.34 124.089C223.082 124.296 222.891 124.568 222.767 124.905C222.643 125.241 222.581 125.604 222.581 125.994C222.581 126.384 222.643 126.745 222.767 127.079C222.891 127.413 223.082 127.683 223.34 127.888C223.598 128.093 223.927 128.195 224.327 128.195Z" fill="#323233"/>
<path d="M228.336 128.879V123.049H229.201V123.929H229.262C229.368 123.641 229.56 123.407 229.839 123.227C230.117 123.047 230.431 122.957 230.78 122.957C230.846 122.957 230.928 122.959 231.027 122.961C231.126 122.964 231.2 122.968 231.251 122.973V123.884C231.22 123.876 231.151 123.865 231.042 123.849C230.936 123.832 230.823 123.823 230.704 123.823C230.421 123.823 230.168 123.882 229.945 124.001C229.725 124.118 229.55 124.28 229.421 124.487C229.295 124.692 229.232 124.926 229.232 125.189V128.879H228.336Z" fill="#323233"/>
<path d="M234.579 129C234.018 129 233.533 128.876 233.126 128.628C232.721 128.378 232.408 128.028 232.188 127.58C231.971 127.13 231.862 126.606 231.862 126.009C231.862 125.412 231.971 124.886 232.188 124.43C232.408 123.972 232.715 123.615 233.107 123.36C233.502 123.102 233.962 122.973 234.488 122.973C234.792 122.973 235.092 123.023 235.388 123.124C235.684 123.226 235.953 123.39 236.196 123.618C236.439 123.843 236.633 124.142 236.777 124.514C236.921 124.886 236.993 125.344 236.993 125.888V126.267H232.499V125.493H236.082C236.082 125.164 236.017 124.87 235.885 124.612C235.756 124.354 235.571 124.151 235.331 124.001C235.093 123.852 234.812 123.777 234.488 123.777C234.132 123.777 233.823 123.866 233.562 124.043C233.304 124.218 233.106 124.445 232.966 124.726C232.827 125.007 232.758 125.308 232.758 125.63V126.146C232.758 126.586 232.834 126.959 232.985 127.265C233.14 127.569 233.353 127.801 233.627 127.96C233.9 128.117 234.218 128.195 234.579 128.195C234.815 128.195 235.027 128.162 235.217 128.097C235.409 128.028 235.575 127.927 235.714 127.793C235.853 127.656 235.961 127.487 236.037 127.284L236.902 127.527C236.811 127.821 236.658 128.079 236.443 128.302C236.228 128.522 235.962 128.694 235.646 128.818C235.33 128.939 234.974 129 234.579 129Z" fill="#323233"/>
<path d="M239.252 121.105V128.879H238.356V121.105H239.252Z" fill="#323233"/>
<path d="M243.413 128.879H241.014V121.105H243.519C244.273 121.105 244.918 121.261 245.455 121.572C245.991 121.881 246.402 122.325 246.688 122.904C246.974 123.481 247.117 124.172 247.117 124.977C247.117 125.786 246.973 126.484 246.684 127.068C246.396 127.65 245.976 128.098 245.424 128.412C244.873 128.723 244.202 128.879 243.413 128.879ZM241.955 128.044H243.352C243.995 128.044 244.527 127.92 244.95 127.672C245.372 127.424 245.687 127.071 245.895 126.613C246.102 126.155 246.206 125.609 246.206 124.977C246.206 124.349 246.104 123.809 245.899 123.356C245.694 122.901 245.388 122.551 244.98 122.308C244.573 122.063 244.065 121.94 243.458 121.94H241.955V128.044Z" fill="#323233"/>
<path d="M248.696 128.879V121.105H251.323C251.93 121.105 252.428 121.209 252.818 121.416C253.208 121.621 253.496 121.904 253.683 122.263C253.871 122.622 253.964 123.031 253.964 123.489C253.964 123.947 253.871 124.353 253.683 124.707C253.496 125.061 253.209 125.34 252.822 125.542C252.435 125.742 251.94 125.842 251.338 125.842H249.212V124.992H251.307C251.722 124.992 252.056 124.931 252.309 124.81C252.565 124.688 252.75 124.516 252.864 124.294C252.98 124.068 253.038 123.8 253.038 123.489C253.038 123.178 252.98 122.906 252.864 122.673C252.747 122.44 252.561 122.26 252.306 122.134C252.05 122.005 251.712 121.94 251.292 121.94H249.637V128.879H248.696ZM252.355 125.387L254.268 128.879H253.175L251.292 125.387H252.355Z" fill="#323233"/>
<path d="M255.852 128.879H254.865L257.719 121.105H258.691L261.545 128.879H260.558L258.235 122.335H258.174L255.852 128.879ZM256.216 125.842H260.194V126.677H256.216V125.842Z" fill="#323233"/>
<path d="M263.562 128.879L261.437 121.105H262.393L264.018 127.436H264.094L265.748 121.105H266.811L268.466 127.436H268.542L270.166 121.105H271.123L268.997 128.879H268.026L266.31 122.684H266.249L264.534 128.879H263.562Z" fill="#323233"/>
<path d="M220.559 123.534H219.617C219.562 123.264 219.464 123.026 219.325 122.821C219.189 122.616 219.022 122.444 218.824 122.305C218.629 122.163 218.413 122.057 218.175 121.986C217.937 121.915 217.689 121.88 217.431 121.88C216.961 121.88 216.534 121.998 216.152 122.236C215.773 122.474 215.47 122.825 215.245 123.288C215.022 123.751 214.911 124.319 214.911 124.992C214.911 125.665 215.022 126.233 215.245 126.696C215.47 127.159 215.773 127.51 216.152 127.747C216.534 127.985 216.961 128.104 217.431 128.104C217.689 128.104 217.937 128.069 218.175 127.998C218.413 127.927 218.629 127.822 218.824 127.683C219.022 127.541 219.189 127.368 219.325 127.163C219.464 126.955 219.562 126.718 219.617 126.449H220.559C220.488 126.847 220.359 127.202 220.172 127.516C219.984 127.83 219.752 128.097 219.473 128.317C219.195 128.534 218.882 128.7 218.536 128.814C218.192 128.928 217.823 128.985 217.431 128.985C216.768 128.985 216.179 128.823 215.662 128.499C215.146 128.175 214.74 127.715 214.444 127.117C214.148 126.52 214 125.812 214 124.992C214 124.172 214.148 123.464 214.444 122.866C214.74 122.269 215.146 121.809 215.662 121.485C216.179 121.161 216.768 120.999 217.431 120.999C217.823 120.999 218.192 121.056 218.536 121.17C218.882 121.284 219.195 121.451 219.473 121.671C219.752 121.888 219.984 122.154 220.172 122.468C220.359 122.779 220.488 123.135 220.559 123.534Z" fill="#323233"/>
<path d="M224.327 129C223.8 129 223.339 128.875 222.941 128.624C222.547 128.374 222.238 128.023 222.015 127.573C221.795 127.122 221.685 126.596 221.685 125.994C221.685 125.387 221.795 124.857 222.015 124.404C222.238 123.951 222.547 123.599 222.941 123.348C223.339 123.098 223.8 122.973 224.327 122.973C224.853 122.973 225.314 123.098 225.708 123.348C226.106 123.599 226.414 123.951 226.634 124.404C226.857 124.857 226.968 125.387 226.968 125.994C226.968 126.596 226.857 127.122 226.634 127.573C226.414 128.023 226.106 128.374 225.708 128.624C225.314 128.875 224.853 129 224.327 129ZM224.327 128.195C224.727 128.195 225.055 128.093 225.314 127.888C225.572 127.683 225.763 127.413 225.887 127.079C226.011 126.745 226.073 126.384 226.073 125.994C226.073 125.604 226.011 125.241 225.887 124.905C225.763 124.568 225.572 124.296 225.314 124.089C225.055 123.881 224.727 123.777 224.327 123.777C223.927 123.777 223.598 123.881 223.34 124.089C223.082 124.296 222.891 124.568 222.767 124.905C222.643 125.241 222.581 125.604 222.581 125.994C222.581 126.384 222.643 126.745 222.767 127.079C222.891 127.413 223.082 127.683 223.34 127.888C223.598 128.093 223.927 128.195 224.327 128.195Z" fill="#323233"/>
<path d="M228.336 128.879V123.049H229.201V123.929H229.262C229.368 123.641 229.56 123.407 229.839 123.227C230.117 123.047 230.431 122.957 230.78 122.957C230.846 122.957 230.928 122.959 231.027 122.961C231.126 122.964 231.2 122.968 231.251 122.973V123.884C231.22 123.876 231.151 123.865 231.042 123.849C230.936 123.832 230.823 123.823 230.704 123.823C230.421 123.823 230.168 123.882 229.945 124.001C229.725 124.118 229.55 124.28 229.421 124.487C229.295 124.692 229.232 124.926 229.232 125.189V128.879H228.336Z" fill="#323233"/>
<path d="M234.579 129C234.018 129 233.533 128.876 233.126 128.628C232.721 128.378 232.408 128.028 232.188 127.58C231.971 127.13 231.862 126.606 231.862 126.009C231.862 125.412 231.971 124.886 232.188 124.43C232.408 123.972 232.715 123.615 233.107 123.36C233.502 123.102 233.962 122.973 234.488 122.973C234.792 122.973 235.092 123.023 235.388 123.124C235.684 123.226 235.953 123.39 236.196 123.618C236.439 123.843 236.633 124.142 236.777 124.514C236.921 124.886 236.993 125.344 236.993 125.888V126.267H232.499V125.493H236.082C236.082 125.164 236.017 124.87 235.885 124.612C235.756 124.354 235.571 124.151 235.331 124.001C235.093 123.852 234.812 123.777 234.488 123.777C234.132 123.777 233.823 123.866 233.562 124.043C233.304 124.218 233.106 124.445 232.966 124.726C232.827 125.007 232.758 125.308 232.758 125.63V126.146C232.758 126.586 232.834 126.959 232.985 127.265C233.14 127.569 233.353 127.801 233.627 127.96C233.9 128.117 234.218 128.195 234.579 128.195C234.815 128.195 235.027 128.162 235.217 128.097C235.409 128.028 235.575 127.927 235.714 127.793C235.853 127.656 235.961 127.487 236.037 127.284L236.902 127.527C236.811 127.821 236.658 128.079 236.443 128.302C236.228 128.522 235.962 128.694 235.646 128.818C235.33 128.939 234.974 129 234.579 129Z" fill="#323233"/>
<path d="M239.252 121.105V128.879H238.356V121.105H239.252Z" fill="#323233"/>
<path d="M243.413 128.879H241.014V121.105H243.519C244.273 121.105 244.918 121.261 245.455 121.572C245.991 121.881 246.402 122.325 246.688 122.904C246.974 123.481 247.117 124.172 247.117 124.977C247.117 125.786 246.973 126.484 246.684 127.068C246.396 127.65 245.976 128.098 245.424 128.412C244.873 128.723 244.202 128.879 243.413 128.879ZM241.955 128.044H243.352C243.995 128.044 244.527 127.92 244.95 127.672C245.372 127.424 245.687 127.071 245.895 126.613C246.102 126.155 246.206 125.609 246.206 124.977C246.206 124.349 246.104 123.809 245.899 123.356C245.694 122.901 245.388 122.551 244.98 122.308C244.573 122.063 244.065 121.94 243.458 121.94H241.955V128.044Z" fill="#323233"/>
<path d="M248.696 128.879V121.105H251.323C251.93 121.105 252.428 121.209 252.818 121.416C253.208 121.621 253.496 121.904 253.683 122.263C253.871 122.622 253.964 123.031 253.964 123.489C253.964 123.947 253.871 124.353 253.683 124.707C253.496 125.061 253.209 125.34 252.822 125.542C252.435 125.742 251.94 125.842 251.338 125.842H249.212V124.992H251.307C251.722 124.992 252.056 124.931 252.309 124.81C252.565 124.688 252.75 124.516 252.864 124.294C252.98 124.068 253.038 123.8 253.038 123.489C253.038 123.178 252.98 122.906 252.864 122.673C252.747 122.44 252.561 122.26 252.306 122.134C252.05 122.005 251.712 121.94 251.292 121.94H249.637V128.879H248.696ZM252.355 125.387L254.268 128.879H253.175L251.292 125.387H252.355Z" fill="#323233"/>
<path d="M255.852 128.879H254.865L257.719 121.105H258.691L261.545 128.879H260.558L258.235 122.335H258.174L255.852 128.879ZM256.216 125.842H260.194V126.677H256.216V125.842Z" fill="#323233"/>
<path d="M263.562 128.879L261.437 121.105H262.393L264.018 127.436H264.094L265.748 121.105H266.811L268.466 127.436H268.542L270.166 121.105H271.123L268.997 128.879H268.026L266.31 122.684H266.249L264.534 128.879H263.562Z" fill="#323233"/>
<path d="M240.286 79C239.713 79.0282 238.429 79.4038 237.217 79.9753C236.006 80.5543 231.731 83.1833 231.648 89.6779C231.755 95.831 237.358 106.291 241.144 109.652C241.144 109.652 234.997 99.3314 234.554 90.334C234.106 81.3381 240.286 79 240.286 79ZM244.263 79C244.263 79 250.437 81.3381 249.994 90.334C249.55 99.3314 243.405 109.652 243.405 109.652C247.186 106.291 252.793 95.831 252.899 89.6779C252.815 83.1833 248.541 80.5543 247.33 79.9753C246.118 79.4038 244.834 79.0282 244.263 79ZM242.214 79.0282C241.925 79.0254 241.641 79.0991 241.39 79.242C239.118 80.4696 237.7 84.9112 238.098 91.8556C238.372 96.6683 239.596 102.679 241.693 109.652H242.732C244.83 102.679 246.057 96.6742 246.332 91.8615C246.73 84.9186 245.311 80.4696 243.038 79.242C242.787 79.0991 242.503 79.0254 242.214 79.0282ZM234.891 80.5825C234.891 80.5825 228.25 83.3184 229.568 91.2099C230.88 99.1073 237.863 107.532 239.938 109.321C240.685 109.999 231.363 99.6001 230.459 90.4691C230.027 87.0206 231.038 83.1951 234.891 80.5825ZM249.686 80.5825C253.538 83.1951 254.549 87.0206 254.117 90.4691C253.214 99.6001 243.892 109.999 244.637 109.321C246.712 107.532 253.697 99.1073 255.009 91.2099C256.327 83.3184 249.686 80.5825 249.686 80.5825ZM239.569 111.43L240.28 114.628H244.138L244.862 111.43H239.569Z" fill="#0FB15C"/>
<path d="M129.839 12.5336C129.427 12.3876 129.011 12.2523 128.593 12.1279C128.663 11.831 128.728 11.5378 128.785 11.2497C129.729 6.51884 129.112 2.70758 127.005 1.45273C124.985 0.24975 121.681 1.50413 118.344 4.5033C118.015 4.7994 117.694 5.10405 117.38 5.41694C117.17 5.20889 116.956 5.00487 116.738 4.80499C113.241 1.59818 109.736 0.246625 107.632 1.50507C105.613 2.7118 105.016 6.29465 105.865 10.7782C105.95 11.2222 106.045 11.664 106.151 12.103C105.655 12.2486 105.176 12.4036 104.718 12.5686C100.618 14.045 98 16.3586 98 18.7585C98 21.2371 100.811 23.7232 105.081 25.2307C105.427 25.3524 105.776 25.4651 106.128 25.5689C106.014 26.0418 105.912 26.5178 105.824 26.9966C105.014 31.4023 105.646 34.9005 107.659 36.0995C109.738 37.3378 113.228 36.0652 116.625 32.9976C116.901 32.7481 117.17 32.4917 117.433 32.2284C117.773 32.5672 118.122 32.8962 118.48 33.2149C121.771 36.1398 125.022 37.3209 127.033 36.1186C129.11 34.8767 129.785 31.1187 128.908 26.5466C128.839 26.1884 128.762 25.832 128.676 25.4777C128.921 25.4027 129.162 25.3255 129.396 25.2452C133.836 23.7262 136.724 21.2702 136.724 18.7585C136.724 16.3499 134.021 14.0206 129.839 12.5336ZM128.876 23.6235C128.664 23.6958 128.447 23.7658 128.226 23.8336C127.736 22.2312 127.074 20.5273 126.265 18.7668C127.037 17.0482 127.673 15.3661 128.149 13.7741C128.546 13.8925 128.93 14.0173 129.301 14.149C132.884 15.4232 135.07 17.3069 135.07 18.7585C135.07 20.3045 132.709 22.3116 128.876 23.6235ZM127.286 26.8784C127.673 28.9001 127.728 30.728 127.472 32.157C127.241 33.4411 126.777 34.2971 126.204 34.64C124.984 35.3696 122.374 34.4213 119.559 31.9197C119.226 31.6234 118.902 31.3176 118.585 31.0026C119.677 29.7701 120.767 28.3373 121.832 26.746C123.704 26.5744 125.472 26.2938 127.076 25.9109C127.155 26.2402 127.225 26.5627 127.286 26.8784ZM111.202 34.5139C110.01 34.9487 109.06 34.9612 108.486 34.6194C107.264 33.8918 106.757 31.0829 107.449 27.3153C107.532 26.87 107.626 26.4273 107.732 25.9875C109.318 26.3499 111.074 26.6105 112.95 26.7677C114.022 28.3248 115.144 29.7561 116.275 31.0094C116.034 31.2495 115.788 31.4835 115.537 31.7111C114.034 33.0675 112.529 34.0299 111.202 34.5139ZM105.616 23.614C103.728 22.9473 102.169 22.081 101.1 21.1357C100.139 20.2863 99.6544 19.4428 99.6544 18.7585C99.6544 17.3021 101.757 15.4445 105.263 14.182C105.688 14.0289 106.134 13.8844 106.596 13.7488C107.08 15.3767 107.716 17.0788 108.483 18.8C107.706 20.5467 107.061 22.276 106.572 23.9232C106.251 23.8282 105.932 23.7251 105.616 23.614ZM107.489 10.4499C106.761 6.60868 107.244 3.71105 108.461 2.9838C109.756 2.2092 112.621 3.3136 115.64 6.08265C115.837 6.26361 116.031 6.44826 116.221 6.63649C115.096 7.88431 113.984 9.30492 112.922 10.8529C111.101 11.0272 109.358 11.3072 107.755 11.6823C107.656 11.2739 107.567 10.8629 107.489 10.4499ZM124.192 14.7102C123.814 14.0348 123.421 13.3679 123.015 12.71C124.25 12.8714 125.434 13.0856 126.546 13.3474C126.212 14.4523 125.796 15.6073 125.307 16.7915C124.949 16.0902 124.577 15.3962 124.192 14.7102ZM117.381 7.85775C118.144 8.71155 118.908 9.66472 119.659 10.699C118.135 10.6246 116.607 10.6243 115.083 10.698C115.835 9.67331 116.606 8.72139 117.381 7.85775ZM110.525 14.7218C110.145 15.4023 109.781 16.0919 109.432 16.79C108.95 15.6099 108.538 14.4496 108.202 13.3291C109.306 13.0738 110.485 12.8651 111.712 12.7067C111.301 13.3687 110.906 14.0406 110.525 14.7218ZM111.748 24.9316C110.479 24.7854 109.283 24.5875 108.179 24.3391C108.521 23.1986 108.942 22.0136 109.434 20.8082C109.784 21.5068 110.15 22.1968 110.532 22.8777C110.924 23.5776 111.33 24.2631 111.748 24.9316ZM117.426 29.7795C116.642 28.9059 115.86 27.9393 115.096 26.8997C115.838 26.9297 116.594 26.945 117.362 26.945C118.151 26.945 118.932 26.9267 119.7 26.8914C118.946 27.9497 118.184 28.9177 117.426 29.7795ZM125.322 20.7467C125.84 21.9653 126.276 23.144 126.622 24.265C125.5 24.5297 124.287 24.7428 123.01 24.901C123.419 24.2309 123.816 23.5524 124.199 22.866C124.589 22.1682 124.963 21.4616 125.322 20.7467ZM122.766 22.0123C122.179 23.0647 121.56 24.0972 120.908 25.108C119.728 25.1944 118.545 25.2373 117.362 25.2366C116.157 25.2366 114.985 25.1979 113.856 25.1222C113.187 24.1138 112.556 23.0795 111.963 22.0217C111.373 20.9695 110.822 19.8945 110.311 18.7991C110.821 17.7034 111.37 16.6279 111.958 15.5749L111.958 15.5751C112.546 14.5218 113.172 13.492 113.836 12.4878C114.987 12.3978 116.168 12.351 117.362 12.351C118.561 12.351 119.743 12.3983 120.895 12.4889C121.552 13.4916 122.174 14.5179 122.761 15.5659C123.351 16.6166 123.907 17.6868 124.43 18.7749C123.913 19.874 123.358 20.9539 122.766 22.0123ZM126.179 2.93271C127.475 3.70512 127.98 6.8199 127.165 10.9046C127.113 11.1654 127.055 11.4304 126.991 11.6998C125.384 11.3167 123.64 11.0319 121.813 10.8549C120.749 9.28992 119.646 7.86712 118.54 6.63539C118.83 6.34661 119.127 6.06531 119.43 5.79174C122.289 3.22221 124.961 2.20764 126.179 2.93271ZM117.362 15.187C119.272 15.187 120.82 16.7861 120.82 18.7585C120.82 20.7309 119.272 22.3299 117.362 22.3299C115.452 22.3299 113.904 20.7309 113.904 18.7585C113.904 16.7861 115.452 15.187 117.362 15.187Z" fill="#61DAFB"/>
<path d="M100 47.3518V37H103.498C104.307 37 104.97 37.1382 105.489 37.4145C106.008 37.6874 106.392 38.0631 106.642 38.5417C106.891 39.0202 107.016 39.5644 107.016 40.1743C107.016 40.7842 106.891 41.325 106.642 41.7968C106.392 42.2686 106.01 42.6392 105.494 42.9088C104.979 43.175 104.32 43.3081 103.518 43.3081H100.687V42.1759H103.478C104.03 42.1759 104.475 42.095 104.812 41.9333C105.152 41.7715 105.398 41.5424 105.55 41.2459C105.705 40.9459 105.782 40.5888 105.782 40.1743C105.782 39.7598 105.705 39.3976 105.55 39.0875C105.395 38.7775 105.147 38.5383 104.807 38.3698C104.467 38.1979 104.017 38.112 103.457 38.112H101.254V47.3518H100ZM104.873 42.7016L107.42 47.3518H105.964L103.457 42.7016H104.873Z" fill="#323233"/>
<path d="M112.115 47.5135C111.367 47.5135 110.721 47.3484 110.179 47.0182C109.64 46.6846 109.223 46.2196 108.93 45.6231C108.64 45.0233 108.496 44.3258 108.496 43.5305C108.496 42.7353 108.64 42.0344 108.93 41.4278C109.223 40.8179 109.631 40.3428 110.153 40.0024C110.679 39.6587 111.292 39.4869 111.993 39.4869C112.398 39.4869 112.797 39.5543 113.191 39.689C113.585 39.8238 113.944 40.0429 114.268 40.3461C114.591 40.646 114.849 41.0437 115.041 41.539C115.233 42.0344 115.329 42.6443 115.329 43.3688V43.8742H109.345V42.8431H114.116C114.116 42.405 114.029 42.0142 113.853 41.6704C113.682 41.3267 113.436 41.0555 113.115 40.8567C112.799 40.6578 112.425 40.5584 111.993 40.5584C111.518 40.5584 111.107 40.6764 110.76 40.9123C110.416 41.1448 110.152 41.448 109.966 41.8221C109.781 42.1961 109.688 42.5971 109.688 43.0251V43.7125C109.688 44.2988 109.789 44.7959 109.992 45.2036C110.197 45.608 110.482 45.9163 110.846 46.1286C111.21 46.3375 111.633 46.442 112.115 46.442C112.428 46.442 112.711 46.3982 112.964 46.3106C113.22 46.2196 113.441 46.0848 113.626 45.9062C113.811 45.7242 113.954 45.4985 114.056 45.2289L115.208 45.5524C115.087 45.9433 114.883 46.287 114.596 46.5835C114.31 46.8767 113.956 47.1058 113.535 47.2709C113.114 47.4327 112.64 47.5135 112.115 47.5135Z" fill="#323233"/>
<path d="M119.429 47.5338C118.937 47.5338 118.49 47.4411 118.089 47.2558C117.688 47.0671 117.37 46.7958 117.134 46.442C116.898 46.0848 116.78 45.6535 116.78 45.148C116.78 44.7032 116.868 44.3426 117.043 44.0663C117.218 43.7866 117.452 43.5676 117.745 43.4092C118.039 43.2508 118.362 43.1329 118.716 43.0554C119.073 42.9745 119.432 42.9105 119.793 42.8633C120.264 42.8027 120.647 42.7572 120.94 42.7269C121.236 42.6932 121.452 42.6376 121.587 42.56C121.725 42.4825 121.794 42.3478 121.794 42.1557V42.1152C121.794 41.6165 121.658 41.229 121.385 40.9527C121.115 40.6764 120.706 40.5382 120.156 40.5382C119.587 40.5382 119.14 40.6629 118.817 40.9123C118.493 41.1616 118.266 41.4278 118.135 41.7109L117.002 41.3065C117.205 40.8347 117.474 40.4674 117.811 40.2046C118.151 39.9384 118.522 39.7531 118.923 39.6486C119.327 39.5408 119.725 39.4869 120.116 39.4869C120.365 39.4869 120.652 39.5172 120.975 39.5778C121.302 39.6351 121.617 39.7548 121.92 39.9367C122.227 40.1187 122.482 40.3933 122.684 40.7606C122.886 41.1279 122.987 41.6199 122.987 42.2366V47.3518H121.794V46.3004H121.733C121.653 46.4689 121.518 46.6492 121.329 46.8413C121.14 47.0334 120.889 47.1968 120.576 47.3316C120.263 47.4664 119.88 47.5338 119.429 47.5338ZM119.611 46.4622C120.082 46.4622 120.48 46.3695 120.803 46.1842C121.13 45.9989 121.376 45.7596 121.541 45.4664C121.71 45.1733 121.794 44.8649 121.794 44.5414V43.4497C121.744 43.5103 121.632 43.5659 121.461 43.6165C121.292 43.6636 121.097 43.7058 120.874 43.7428C120.655 43.7765 120.441 43.8068 120.232 43.8338C120.027 43.8574 119.86 43.8776 119.732 43.8945C119.422 43.9349 119.132 44.0006 118.862 44.0916C118.596 44.1792 118.381 44.3123 118.215 44.4909C118.054 44.6661 117.973 44.9054 117.973 45.2087C117.973 45.6231 118.126 45.9365 118.433 46.1488C118.743 46.3577 119.135 46.4622 119.611 46.4622Z" fill="#323233"/>
<path d="M128.318 47.5135C127.59 47.5135 126.964 47.3417 126.438 46.998C125.912 46.6543 125.508 46.1808 125.225 45.5776C124.942 44.9745 124.8 44.2853 124.8 43.5103C124.8 42.7218 124.945 42.0259 125.235 41.4228C125.528 40.8162 125.936 40.3428 126.458 40.0024C126.984 39.6587 127.597 39.4869 128.298 39.4869C128.844 39.4869 129.336 39.588 129.774 39.7901C130.212 39.9923 130.571 40.2754 130.851 40.6393C131.13 41.0032 131.304 41.4278 131.371 41.9131H130.178C130.087 41.5592 129.885 41.2459 129.572 40.9729C129.262 40.6966 128.844 40.5584 128.318 40.5584C127.853 40.5584 127.446 40.6797 127.095 40.9224C126.748 41.1616 126.477 41.5003 126.281 41.9383C126.089 42.373 125.993 42.8835 125.993 43.4699C125.993 44.0697 126.088 44.592 126.276 45.0368C126.468 45.4816 126.738 45.827 127.085 46.073C127.435 46.319 127.847 46.442 128.318 46.442C128.628 46.442 128.91 46.3881 129.162 46.2802C129.415 46.1724 129.629 46.0174 129.804 45.8152C129.98 45.613 130.104 45.3704 130.178 45.0873H131.371C131.304 45.5456 131.137 45.9584 130.871 46.3257C130.608 46.6896 130.259 46.9794 129.825 47.1951C129.393 47.4074 128.891 47.5135 128.318 47.5135Z" fill="#323233"/>
<path d="M136.492 39.5879V40.5989H132.468V39.5879H136.492ZM133.641 37.7279H134.834V45.1278C134.834 45.4648 134.883 45.7175 134.98 45.886C135.081 46.0511 135.209 46.1623 135.364 46.2196C135.523 46.2735 135.69 46.3004 135.865 46.3004C135.996 46.3004 136.104 46.2937 136.188 46.2802C136.273 46.2634 136.34 46.2499 136.391 46.2398L136.633 47.3114C136.552 47.3417 136.439 47.372 136.294 47.4023C136.15 47.436 135.966 47.4529 135.744 47.4529C135.407 47.4529 135.076 47.3804 134.753 47.2355C134.433 47.0906 134.167 46.8699 133.954 46.5734C133.745 46.2769 133.641 45.9028 133.641 45.4513V37.7279Z" fill="#323233"/>
<path d="M52.1418 45.8152L49 10.5766H83.5227L80.3777 45.8098L66.2402 49.7289L52.1418 45.8152Z" fill="#EF8367"/>
<path d="M66.2614 46.7332L77.6848 43.566L80.3727 13.4582H66.2614V46.7332Z" fill="#FF996E"/>
<path d="M66.2613 26.5277H60.5422L60.1476 22.1016H66.2613V17.7797H55.4242L55.5273 18.9395L56.5898 30.8492H66.2613V26.5277ZM66.2613 37.7516L66.2422 37.7566L61.4293 36.4566L61.1215 33.0102H56.7828L57.3883 39.7961L66.2414 42.2539L66.2613 42.2481V37.7516Z" fill="#EBEBEB"/>
<path d="M52.2122 1H54.4083V3.17031H56.4176V1H58.6141V7.57109H56.4176V5.3707H54.4086V7.57109H52.2122V1ZM61.502 3.1793H59.5684V1H65.6329V3.1793H63.6985V7.57109H61.502V3.1793ZM66.5954 1H68.8852L70.2942 3.30898L71.7016 1H73.9926V7.57109H71.8047V4.31406L70.2942 6.65039H70.2559L68.7442 4.31406V7.57109H66.595L66.5954 1ZM75.086 1H77.2829V5.39922H80.3715V7.57148H75.086V1Z" fill="#323233"/>
<path d="M66.2465 26.5277V30.8492H71.5683L71.0668 36.4543L66.2465 37.7555V42.2516L75.1066 39.7961L75.1715 39.0656L76.1871 27.6879L76.2926 26.5277H75.1277H66.2465ZM66.2465 17.7797V22.1016H76.6859L76.7722 21.1301L76.9695 18.9395L77.073 17.7797H66.2465Z" fill="white"/>
<path d="M27.2336 2.81602H24.3492L27.3488 6.07109V7.6207H21.1707V5.80625H24.1699L21.1707 2.55117V1H27.2336V2.81602ZM19.9457 2.81602H17.0613L20.0609 6.07109V7.6207H13.8824V5.80625H16.882L13.8824 2.55117V1H19.9457V2.81602ZM12.7293 2.89023H9.6168V5.73047H12.7293V7.6207H7.4043V1H12.7293V2.89023Z" fill="#323233"/>
<path d="M3.16289 46.1168L0 10.643H34.7527L31.5871 46.1109L17.3551 50.057L3.16289 46.1168Z" fill="#499FDE"/>
<path d="M17.377 47.041L28.8766 43.8527L31.582 13.5437H17.377V47.041Z" fill="#33A9DC"/>
<path d="M17.3766 26.3957H23.1336L23.5317 21.9406H17.3766V17.5898H28.2864L28.1821 18.757L27.1129 30.7461H17.3766V26.3957Z" fill="white"/>
<path d="M17.4027 37.6949L17.3836 37.7004L12.5383 36.3918L12.2281 32.9219H7.86133L8.47109 39.7531L17.3828 42.227L17.4031 42.2211L17.4027 37.6949Z" fill="#EBEBEB"/>
<path d="M22.7641 30.5621L22.2399 36.3887L17.3876 37.6985V42.225L26.3067 39.7531L26.3723 39.018L27.1294 30.5621H22.7641Z" fill="white"/>
<path d="M17.3919 17.5898V21.9402H6.88289L6.79539 20.9625L6.59734 18.757L6.49304 17.5898H17.3919ZM17.3766 26.3961V30.7469H12.5927L12.5055 29.7691L12.3071 27.5633L12.2028 26.3961H17.3766Z" fill="#EBEBEB"/>
<path d="M232.057 47V38.2727H235.108C235.716 38.2727 236.217 38.3778 236.612 38.5881C237.007 38.7955 237.301 39.0753 237.494 39.4276C237.688 39.777 237.784 40.1648 237.784 40.5909C237.784 40.9659 237.717 41.2756 237.584 41.5199C237.453 41.7642 237.28 41.9574 237.064 42.0994C236.851 42.2415 236.619 42.3466 236.369 42.4148V42.5C236.636 42.517 236.905 42.6108 237.175 42.7812C237.445 42.9517 237.67 43.196 237.852 43.5142C238.034 43.8324 238.125 44.2216 238.125 44.6818C238.125 45.1193 238.026 45.5128 237.827 45.8622C237.628 46.2116 237.314 46.4886 236.885 46.6932C236.456 46.8977 235.898 47 235.21 47H232.057ZM233.114 46.0625H235.21C235.901 46.0625 236.391 45.929 236.68 45.6619C236.973 45.392 237.119 45.0653 237.119 44.6818C237.119 44.3864 237.044 44.1136 236.893 43.8636C236.743 43.6108 236.528 43.4091 236.25 43.2585C235.972 43.1051 235.642 43.0284 235.261 43.0284H233.114V46.0625ZM233.114 42.108H235.074C235.392 42.108 235.679 42.0455 235.935 41.9205C236.193 41.7955 236.398 41.6193 236.548 41.392C236.702 41.1648 236.778 40.8977 236.778 40.5909C236.778 40.2074 236.645 39.8821 236.378 39.6151C236.111 39.3452 235.688 39.2102 235.108 39.2102H233.114V42.108ZM242.384 47.1364C241.793 47.1364 241.275 46.9957 240.829 46.7145C240.386 46.4332 240.039 46.0398 239.789 45.5341C239.542 45.0284 239.418 44.4375 239.418 43.7614C239.418 43.0795 239.542 42.4844 239.789 41.9759C240.039 41.4673 240.386 41.0724 240.829 40.7912C241.275 40.5099 241.793 40.3693 242.384 40.3693C242.975 40.3693 243.492 40.5099 243.935 40.7912C244.381 41.0724 244.728 41.4673 244.975 41.9759C245.225 42.4844 245.35 43.0795 245.35 43.7614C245.35 44.4375 245.225 45.0284 244.975 45.5341C244.728 46.0398 244.381 46.4332 243.935 46.7145C243.492 46.9957 242.975 47.1364 242.384 47.1364ZM242.384 46.233C242.833 46.233 243.202 46.1179 243.492 45.8878C243.782 45.6577 243.996 45.3551 244.136 44.9801C244.275 44.6051 244.344 44.1989 244.344 43.7614C244.344 43.3239 244.275 42.9162 244.136 42.5384C243.996 42.1605 243.782 41.8551 243.492 41.6222C243.202 41.3892 242.833 41.2727 242.384 41.2727C241.935 41.2727 241.566 41.3892 241.276 41.6222C240.987 41.8551 240.772 42.1605 240.633 42.5384C240.494 42.9162 240.424 43.3239 240.424 43.7614C240.424 44.1989 240.494 44.6051 240.633 44.9801C240.772 45.3551 240.987 45.6577 241.276 45.8878C241.566 46.1179 241.935 46.233 242.384 46.233ZM249.544 47.1364C248.953 47.1364 248.435 46.9957 247.989 46.7145C247.546 46.4332 247.199 46.0398 246.949 45.5341C246.702 45.0284 246.578 44.4375 246.578 43.7614C246.578 43.0795 246.702 42.4844 246.949 41.9759C247.199 41.4673 247.546 41.0724 247.989 40.7912C248.435 40.5099 248.953 40.3693 249.544 40.3693C250.135 40.3693 250.652 40.5099 251.096 40.7912C251.542 41.0724 251.888 41.4673 252.135 41.9759C252.385 42.4844 252.51 43.0795 252.51 43.7614C252.51 44.4375 252.385 45.0284 252.135 45.5341C251.888 46.0398 251.542 46.4332 251.096 46.7145C250.652 46.9957 250.135 47.1364 249.544 47.1364ZM249.544 46.233C249.993 46.233 250.363 46.1179 250.652 45.8878C250.942 45.6577 251.157 45.3551 251.296 44.9801C251.435 44.6051 251.505 44.1989 251.505 43.7614C251.505 43.3239 251.435 42.9162 251.296 42.5384C251.157 42.1605 250.942 41.8551 250.652 41.6222C250.363 41.3892 249.993 41.2727 249.544 41.2727C249.096 41.2727 248.726 41.3892 248.436 41.6222C248.147 41.8551 247.932 42.1605 247.793 42.5384C247.654 42.9162 247.584 43.3239 247.584 43.7614C247.584 44.1989 247.654 44.6051 247.793 44.9801C247.932 45.3551 248.147 45.6577 248.436 45.8878C248.726 46.1179 249.096 46.233 249.544 46.233ZM256.892 40.4545V41.3068H253.5V40.4545H256.892ZM254.489 38.8864H255.494V45.125C255.494 45.4091 255.536 45.6222 255.618 45.7642C255.703 45.9034 255.811 45.9972 255.942 46.0455C256.075 46.0909 256.216 46.1136 256.364 46.1136C256.474 46.1136 256.565 46.108 256.636 46.0966C256.707 46.0824 256.764 46.071 256.807 46.0625L257.011 46.9659C256.943 46.9915 256.848 47.017 256.726 47.0426C256.604 47.071 256.449 47.0852 256.261 47.0852C255.977 47.0852 255.699 47.0241 255.426 46.902C255.156 46.7798 254.932 46.5938 254.753 46.3438C254.577 46.0938 254.489 45.7784 254.489 45.3977V38.8864ZM262.924 41.9205L262.021 42.1761C261.964 42.0256 261.88 41.8793 261.769 41.7372C261.661 41.5923 261.513 41.473 261.326 41.3793C261.138 41.2855 260.898 41.2386 260.606 41.2386C260.205 41.2386 259.871 41.331 259.604 41.5156C259.34 41.6974 259.208 41.929 259.208 42.2102C259.208 42.4602 259.299 42.6577 259.481 42.8026C259.663 42.9474 259.947 43.0682 260.333 43.1648L261.305 43.4034C261.89 43.5455 262.326 43.7628 262.613 44.0554C262.9 44.3452 263.043 44.7187 263.043 45.1761C263.043 45.5511 262.935 45.8864 262.719 46.1818C262.506 46.4773 262.208 46.7102 261.825 46.8807C261.441 47.0511 260.995 47.1364 260.487 47.1364C259.819 47.1364 259.266 46.9915 258.829 46.7017C258.391 46.4119 258.114 45.9886 257.998 45.4318L258.952 45.1932C259.043 45.5455 259.215 45.8097 259.468 45.9858C259.724 46.1619 260.058 46.25 260.469 46.25C260.938 46.25 261.31 46.1506 261.586 45.9517C261.864 45.75 262.004 45.5085 262.004 45.2273C262.004 45 261.924 44.8097 261.765 44.6562C261.606 44.5 261.362 44.3835 261.032 44.3068L259.941 44.0511C259.342 43.9091 258.901 43.6889 258.62 43.3906C258.342 43.0895 258.202 42.7131 258.202 42.2614C258.202 41.892 258.306 41.5653 258.513 41.2812C258.724 40.9972 259.009 40.7741 259.37 40.6122C259.734 40.4503 260.146 40.3693 260.606 40.3693C261.254 40.3693 261.762 40.5114 262.131 40.7955C262.504 41.0795 262.768 41.4545 262.924 41.9205ZM267.404 40.4545V41.3068H264.012V40.4545H267.404ZM265 38.8864H266.006V45.125C266.006 45.4091 266.047 45.6222 266.13 45.7642C266.215 45.9034 266.323 45.9972 266.453 46.0455C266.587 46.0909 266.728 46.1136 266.875 46.1136C266.986 46.1136 267.077 46.108 267.148 46.0966C267.219 46.0824 267.276 46.071 267.319 46.0625L267.523 46.9659C267.455 46.9915 267.36 47.017 267.238 47.0426C267.115 47.071 266.961 47.0852 266.773 47.0852C266.489 47.0852 266.211 47.0241 265.938 46.902C265.668 46.7798 265.444 46.5938 265.265 46.3438C265.088 46.0938 265 45.7784 265 45.3977V38.8864ZM268.917 47V40.4545H269.888V41.4432H269.956C270.076 41.1193 270.292 40.8565 270.604 40.6548C270.917 40.4531 271.269 40.3523 271.661 40.3523C271.735 40.3523 271.827 40.3537 271.938 40.3565C272.049 40.3594 272.132 40.3636 272.189 40.3693V41.392C272.155 41.3835 272.077 41.3707 271.955 41.3537C271.836 41.3338 271.709 41.3239 271.576 41.3239C271.257 41.3239 270.973 41.3906 270.723 41.5241C270.476 41.6548 270.28 41.8366 270.135 42.0696C269.993 42.2997 269.922 42.5625 269.922 42.858V47H268.917ZM275.308 47.1534C274.893 47.1534 274.516 47.0753 274.178 46.919C273.84 46.7599 273.572 46.5312 273.373 46.233C273.174 45.9318 273.075 45.5682 273.075 45.142C273.075 44.767 273.148 44.4631 273.296 44.2301C273.444 43.9943 273.641 43.8097 273.888 43.6761C274.136 43.5426 274.408 43.4432 274.707 43.3778C275.008 43.3097 275.31 43.2557 275.614 43.2159C276.012 43.1648 276.335 43.1264 276.582 43.1009C276.832 43.0724 277.013 43.0256 277.127 42.9602C277.244 42.8949 277.302 42.7812 277.302 42.6193V42.5852C277.302 42.1648 277.187 41.8381 276.957 41.6051C276.729 41.3722 276.384 41.2557 275.921 41.2557C275.441 41.2557 275.065 41.3608 274.792 41.571C274.519 41.7812 274.327 42.0057 274.217 42.2443L273.262 41.9034C273.433 41.5057 273.66 41.196 273.944 40.9744C274.231 40.75 274.543 40.5937 274.881 40.5057C275.222 40.4148 275.558 40.3693 275.887 40.3693C276.097 40.3693 276.339 40.3949 276.612 40.446C276.887 40.4943 277.153 40.5952 277.408 40.7486C277.667 40.902 277.881 41.1335 278.052 41.4432C278.222 41.7528 278.308 42.1676 278.308 42.6875V47H277.302V46.1136H277.251C277.183 46.2557 277.069 46.4077 276.91 46.5696C276.751 46.7315 276.539 46.8693 276.275 46.983C276.011 47.0966 275.688 47.1534 275.308 47.1534ZM275.461 46.25C275.859 46.25 276.194 46.1719 276.467 46.0156C276.742 45.8594 276.95 45.6577 277.089 45.4105C277.231 45.1634 277.302 44.9034 277.302 44.6307V43.7102C277.259 43.7614 277.165 43.8082 277.021 43.8509C276.879 43.8906 276.714 43.9261 276.526 43.9574C276.342 43.9858 276.161 44.0114 275.985 44.0341C275.812 44.054 275.671 44.071 275.563 44.0852C275.302 44.1193 275.058 44.1747 274.83 44.2514C274.606 44.3253 274.424 44.4375 274.285 44.5881C274.148 44.7358 274.08 44.9375 274.08 45.1932C274.08 45.5426 274.21 45.8068 274.468 45.9858C274.729 46.1619 275.06 46.25 275.461 46.25ZM280.143 49.4545V40.4545H281.115V41.4943H281.234C281.308 41.3807 281.41 41.2358 281.541 41.0597C281.674 40.8807 281.865 40.7216 282.112 40.5824C282.362 40.4403 282.7 40.3693 283.126 40.3693C283.677 40.3693 284.163 40.5071 284.583 40.7827C285.004 41.0582 285.332 41.4489 285.568 41.9545C285.804 42.4602 285.922 43.0568 285.922 43.7443C285.922 44.4375 285.804 45.0384 285.568 45.5469C285.332 46.0526 285.005 46.4446 284.588 46.723C284.17 46.9986 283.689 47.1364 283.143 47.1364C282.723 47.1364 282.386 47.0668 282.133 46.9276C281.88 46.7855 281.686 46.625 281.549 46.446C281.413 46.2642 281.308 46.1136 281.234 45.9943H281.149V49.4545H280.143ZM281.132 43.7273C281.132 44.2216 281.204 44.6577 281.349 45.0355C281.494 45.4105 281.706 45.7045 281.984 45.9176C282.262 46.1278 282.603 46.233 283.007 46.233C283.427 46.233 283.778 46.1222 284.059 45.9006C284.343 45.6761 284.556 45.375 284.699 44.9972C284.843 44.6165 284.916 44.1932 284.916 43.7273C284.916 43.267 284.845 42.8523 284.703 42.483C284.564 42.1108 284.352 41.8168 284.068 41.6009C283.787 41.3821 283.433 41.2727 283.007 41.2727C282.598 41.2727 282.254 41.3764 281.975 41.5838C281.697 41.7884 281.487 42.0753 281.345 42.4446C281.203 42.8111 281.132 43.2386 281.132 43.7273Z" fill="#323233"/>
<path d="M241.075 4.44344C240.988 2.13166 242.93 0 245.554 0H272.449C275.074 0 277.016 2.13166 276.929 4.44344C276.846 6.66397 276.954 9.54056 277.734 11.8859C278.517 14.2388 279.838 15.7256 282 15.9169V18.0835C279.838 18.2745 278.517 19.7616 277.734 22.1144C276.954 24.4598 276.846 27.3364 276.929 29.5569C277.016 31.8687 275.074 34 272.449 34H245.554C242.93 34 240.988 31.8683 241.075 29.5569C241.158 27.3364 241.05 24.4598 240.269 22.1144C239.486 19.7619 238.162 18.2748 236 18.0835V15.9169C238.162 15.7259 239.486 14.2388 240.269 11.8859C241.05 9.54056 241.158 6.66397 241.075 4.44344Z" fill="url(#paint0_linear_526_2)"/>
<g filter="url(#filter0_d_526_2)">
<path d="M260.751 28.2881C265.391 28.2881 268.187 26.0163 268.187 22.2692C268.187 19.4367 266.192 17.3861 263.23 17.0614V16.9432C265.406 16.5894 267.114 14.5683 267.114 12.3108C267.114 9.09495 264.575 7 260.706 7H252V28.2881H260.751ZM255.386 9.69995H259.89C262.338 9.69995 263.729 10.7914 263.729 12.7685C263.729 14.8778 262.111 16.0583 259.179 16.0583H255.386V9.69995ZM255.386 25.5886V18.5809H259.859C263.063 18.5809 264.726 19.761 264.726 22.0624C264.726 24.3638 263.109 25.5886 260.056 25.5886H255.386Z" fill="url(#paint1_linear_526_2)"/>
<path d="M260.751 28.2881C265.391 28.2881 268.187 26.0163 268.187 22.2692C268.187 19.4367 266.192 17.3861 263.23 17.0614V16.9432C265.406 16.5894 267.114 14.5683 267.114 12.3108C267.114 9.09495 264.575 7 260.706 7H252V28.2881H260.751ZM255.386 9.69995H259.89C262.338 9.69995 263.729 10.7914 263.729 12.7685C263.729 14.8778 262.111 16.0583 259.179 16.0583H255.386V9.69995ZM255.386 25.5886V18.5809H259.859C263.063 18.5809 264.726 19.761 264.726 22.0624C264.726 24.3638 263.109 25.5886 260.056 25.5886H255.386Z" fill="white"/>
</g>
<path d="M74.4099 107.743C72.084 107.755 70.0624 108.315 68.3698 109.143C67.7485 107.913 67.1275 106.818 67.0181 106.014C66.8961 105.076 66.7501 104.504 66.8961 103.383C67.0423 102.263 67.6999 100.668 67.6877 100.546C67.6754 100.424 67.5414 99.8517 66.2019 99.8397C64.8624 99.8277 63.7055 100.095 63.5715 100.448C63.4376 100.802 63.1819 101.605 63.0114 102.433C62.78 103.651 60.3324 107.999 58.932 110.276C58.4813 109.387 58.0916 108.608 58.0062 107.987C57.8845 107.049 57.7383 106.477 57.8845 105.356C58.0308 104.236 58.6884 102.641 58.6761 102.519C58.6638 102.397 58.5299 101.824 57.1904 101.812C55.8506 101.8 54.6937 102.068 54.56 102.421C54.426 102.775 54.2798 103.602 53.9998 104.406C53.7198 105.21 50.4681 112.468 49.6157 114.343C49.2712 115.102 48.9099 115.854 48.5319 116.596C48.5319 116.596 48.5196 116.633 48.4831 116.694C48.3643 116.927 48.2426 117.158 48.118 117.388V117.4C47.9352 117.729 47.7403 118.033 47.6429 118.033C47.5698 118.033 47.4358 117.157 47.6672 115.963C48.1543 113.442 49.3112 109.521 49.2992 109.387C49.2992 109.314 49.5183 108.632 48.5442 108.279C47.5941 107.926 47.2533 108.51 47.1679 108.51C47.0825 108.51 47.0216 108.717 47.0216 108.717C47.0216 108.717 48.0814 104.309 45.0003 104.309C43.0763 104.309 40.4214 106.416 39.1062 108.315C37.6111 109.129 36.1172 109.945 34.6247 110.763C33.9065 111.165 33.1635 111.567 32.4693 111.944C32.4205 111.896 32.3719 111.835 32.3231 111.786C28.5966 107.804 21.7041 104.991 21.9963 99.6449C22.106 97.6964 22.7756 92.5816 35.2337 86.3709C45.4873 81.317 53.6467 82.7173 55.0593 85.8228C57.0807 90.2557 50.6875 98.4879 40.0926 99.6812C36.0496 100.132 33.9305 98.5731 33.3949 97.9886C32.8347 97.3796 32.7493 97.343 32.5422 97.465C32.2014 97.6478 32.4205 98.1957 32.5422 98.5122C32.859 99.3401 34.1619 100.802 36.3661 101.52C38.3146 102.153 43.0518 102.507 48.7876 100.29C55.2053 97.8058 60.2227 90.901 58.7492 85.1166C57.2755 79.2468 47.5332 77.3105 38.3146 80.5863C32.8347 82.535 26.8918 85.6036 22.6174 89.5981C17.5391 94.3472 16.7353 98.4757 17.0641 100.205C18.2456 106.343 26.7092 110.337 30.0946 113.296C29.9241 113.394 29.7655 113.479 29.6318 113.552C27.939 114.392 21.4847 117.765 19.8773 121.334C18.0507 125.377 20.1698 128.275 21.5701 128.665C25.9176 129.87 30.3868 127.703 32.7859 124.122C35.1849 120.542 34.8926 115.89 33.7845 113.759C33.7722 113.735 33.7602 113.71 33.7357 113.686C34.1742 113.43 34.6247 113.162 35.0632 112.907C35.8691 112.43 36.6852 111.971 37.511 111.53C37.0968 112.663 36.7923 114.015 36.6463 115.963C36.4635 118.253 37.4011 121.224 38.6311 122.393C39.1793 122.905 39.8246 122.917 40.2388 122.917C41.6757 122.917 42.3213 121.723 43.0397 120.311C43.9164 118.582 44.708 116.572 44.708 116.572C44.708 116.572 43.7216 122.003 46.4009 122.003C47.375 122.003 48.3614 120.737 48.7999 120.092V120.104C48.7999 120.104 48.8242 120.067 48.873 119.982C48.9704 119.824 49.0312 119.726 49.0312 119.726V119.702C49.4209 119.02 50.2979 117.473 51.6008 114.904C53.2813 111.591 54.9011 107.451 54.9011 107.451C54.9011 107.451 55.0473 108.462 55.5464 110.142C55.8389 111.129 56.4474 112.212 56.9347 113.26C56.5451 113.808 56.3014 114.112 56.3014 114.112L56.3137 114.124C55.9969 114.538 55.6561 114.989 55.2784 115.427C53.951 117.01 52.3681 118.825 52.1487 119.349C51.8928 119.97 51.9539 120.42 52.4412 120.786C52.7943 121.054 53.4273 121.09 54.0729 121.054C55.2664 120.968 56.1066 120.676 56.5205 120.493C57.1661 120.262 57.9211 119.909 58.6273 119.385C59.9305 118.423 60.7218 117.047 60.6489 115.233C60.6123 114.234 60.2835 113.235 59.8816 112.297C60.0036 112.127 60.113 111.957 60.235 111.786C62.2929 108.778 63.8883 105.478 63.8883 105.478C63.8883 105.478 64.0346 106.489 64.5336 108.169C64.7773 109.022 65.2766 109.947 65.7149 110.848C63.7786 112.419 62.5851 114.246 62.1589 115.439C61.3919 117.656 61.9884 118.654 63.121 118.886C63.6324 118.995 64.3631 118.752 64.899 118.52C65.5809 118.301 66.3847 117.924 67.152 117.363C68.4552 116.402 69.7093 115.062 69.6362 113.248C69.5996 112.419 69.3805 111.603 69.076 110.812C70.72 110.13 72.839 109.752 75.5423 110.069C81.3392 110.751 82.4839 114.368 82.2645 115.89C82.0454 117.412 80.8276 118.24 80.426 118.496C80.0238 118.752 79.8901 118.837 79.9266 119.02C79.9752 119.288 80.17 119.276 80.5111 119.227C80.9861 119.142 83.5557 117.997 83.6651 115.196C83.8479 111.616 80.438 107.707 74.4099 107.743ZM29.6927 122.819C27.7685 124.914 25.0895 125.705 23.9326 125.036C22.6905 124.317 23.1775 121.224 25.54 119.008C26.9769 117.656 28.828 116.401 30.058 115.634C30.338 115.464 30.7522 115.22 31.2515 114.916C31.3367 114.867 31.3855 114.843 31.3855 114.843L31.6778 114.66C32.5422 117.826 31.7143 120.615 29.6927 122.819ZM43.6973 113.296C43.0275 114.928 41.6271 119.105 40.7747 118.874C40.044 118.679 39.5932 115.513 40.6285 112.383C41.1521 110.812 42.2602 108.936 42.9058 108.206C43.953 107.037 45.1099 106.647 45.3899 107.122C45.7433 107.743 44.1113 112.273 43.6973 113.296ZM55.2541 118.825C54.9739 118.971 54.7062 119.069 54.5843 118.995C54.4991 118.947 54.7062 118.752 54.7062 118.752C54.7062 118.752 56.1554 117.193 56.7276 116.487C57.0567 116.073 57.4461 115.586 57.8603 115.038V115.196C57.8603 117.059 56.0577 118.314 55.2539 118.825M64.168 116.791C63.9609 116.645 63.9975 116.158 64.6917 114.636C64.9596 114.039 65.5926 113.04 66.6767 112.078C66.7984 112.468 66.8838 112.846 66.8715 113.199C66.8593 115.549 65.179 116.426 64.168 116.791Z" fill="#CD6799"/>
<path d="M155.491 37.1339H156.707V44.3122C156.707 44.9529 156.59 45.4972 156.354 45.945C156.119 46.3928 155.787 46.7328 155.359 46.9649C154.931 47.197 154.426 47.313 153.844 47.313C153.295 47.313 152.806 47.2133 152.378 47.0139C151.95 46.8113 151.613 46.5236 151.368 46.151C151.123 45.7783 151 45.3354 151 44.8222H152.196C152.196 45.1066 152.267 45.355 152.407 45.5675C152.551 45.7767 152.747 45.9401 152.996 46.0578C153.244 46.1755 153.527 46.2343 153.844 46.2343C154.194 46.2343 154.491 46.1608 154.736 46.0137C154.981 45.8666 155.168 45.6508 155.295 45.3664C155.426 45.0788 155.491 44.7274 155.491 44.3122V37.1339Z" fill="#323233"/>
<path d="M161.204 47.3522C160.726 47.3522 160.293 47.2624 159.904 47.0826C159.515 46.8995 159.206 46.6364 158.978 46.2931C158.749 45.9467 158.634 45.5282 158.634 45.0379C158.634 44.6064 158.719 44.2567 158.889 43.9886C159.059 43.7173 159.286 43.5048 159.571 43.3512C159.855 43.1976 160.169 43.0832 160.512 43.008C160.859 42.9295 161.207 42.8674 161.557 42.8217C162.014 42.7628 162.385 42.7187 162.67 42.6893C162.957 42.6566 163.167 42.6026 163.297 42.5275C163.431 42.4523 163.498 42.3215 163.498 42.1352V42.096C163.498 41.6122 163.366 41.2363 163.101 40.9682C162.84 40.7002 162.443 40.5662 161.91 40.5662C161.357 40.5662 160.924 40.6871 160.61 40.929C160.297 41.1709 160.076 41.4291 159.948 41.7037L158.85 41.3115C159.046 40.8538 159.308 40.4975 159.635 40.2425C159.965 39.9843 160.324 39.8045 160.713 39.7032C161.106 39.5986 161.491 39.5463 161.87 39.5463C162.112 39.5463 162.39 39.5757 162.704 39.6345C163.021 39.6901 163.327 39.8062 163.621 39.9827C163.918 40.1592 164.165 40.4256 164.361 40.7819C164.557 41.1382 164.656 41.6155 164.656 42.2136V47.1757H163.498V46.1559H163.44C163.361 46.3193 163.23 46.4942 163.047 46.6805C162.864 46.8668 162.621 47.0254 162.317 47.1561C162.013 47.2869 161.642 47.3522 161.204 47.3522ZM161.38 46.3128C161.838 46.3128 162.224 46.2229 162.537 46.0431C162.854 45.8633 163.093 45.6312 163.253 45.3468C163.417 45.0624 163.498 44.7633 163.498 44.4495V43.3904C163.449 43.4493 163.341 43.5032 163.175 43.5522C163.011 43.598 162.822 43.6389 162.606 43.6748C162.394 43.7075 162.186 43.7369 161.983 43.7631C161.784 43.786 161.622 43.8056 161.498 43.8219C161.197 43.8611 160.916 43.9249 160.654 44.0131C160.396 44.0981 160.187 44.2272 160.027 44.4005C159.87 44.5705 159.792 44.8026 159.792 45.0968C159.792 45.4988 159.94 45.8028 160.238 46.0088C160.538 46.2114 160.919 46.3128 161.38 46.3128Z" fill="#323233"/>
<path d="M172.656 39.6444L169.871 47.1757H168.695L165.91 39.6444H167.165L169.244 45.6459H169.322L171.401 39.6444H172.656Z" fill="#323233"/>
<path d="M176.171 47.3522C175.694 47.3522 175.26 47.2624 174.871 47.0826C174.482 46.8995 174.174 46.6364 173.945 46.2931C173.716 45.9467 173.601 45.5282 173.601 45.0379C173.601 44.6064 173.686 44.2567 173.856 43.9886C174.026 43.7173 174.254 43.5048 174.538 43.3512C174.822 43.1976 175.136 43.0832 175.479 43.008C175.826 42.9295 176.174 42.8674 176.524 42.8217C176.981 42.7628 177.352 42.7187 177.637 42.6893C177.925 42.6566 178.134 42.6026 178.264 42.5275C178.399 42.4523 178.466 42.3215 178.466 42.1352V42.096C178.466 41.6122 178.333 41.2363 178.068 40.9682C177.807 40.7002 177.41 40.5662 176.877 40.5662C176.324 40.5662 175.891 40.6871 175.578 40.929C175.264 41.1709 175.043 41.4291 174.916 41.7037L173.817 41.3115C174.013 40.8538 174.275 40.4975 174.602 40.2425C174.932 39.9843 175.291 39.8045 175.68 39.7032C176.073 39.5986 176.458 39.5463 176.838 39.5463C177.08 39.5463 177.357 39.5757 177.671 39.6345C177.988 39.6901 178.294 39.8062 178.588 39.9827C178.886 40.1592 179.132 40.4256 179.328 40.7819C179.525 41.1382 179.623 41.6155 179.623 42.2136V47.1757H178.466V46.1559H178.407C178.328 46.3193 178.197 46.4942 178.014 46.6805C177.831 46.8668 177.588 47.0254 177.284 47.1561C176.98 47.2869 176.609 47.3522 176.171 47.3522ZM176.347 46.3128C176.805 46.3128 177.191 46.2229 177.504 46.0431C177.822 45.8633 178.06 45.6312 178.22 45.3468C178.384 45.0624 178.466 44.7633 178.466 44.4495V43.3904C178.416 43.4493 178.309 43.5032 178.142 43.5522C177.978 43.598 177.789 43.6389 177.573 43.6748C177.361 43.7075 177.153 43.7369 176.95 43.7631C176.751 43.786 176.589 43.8056 176.465 43.8219C176.164 43.8611 175.883 43.9249 175.622 44.0131C175.363 44.0981 175.154 44.2272 174.994 44.4005C174.837 44.5705 174.759 44.8026 174.759 45.0968C174.759 45.4988 174.907 45.8028 175.205 46.0088C175.506 46.2114 175.886 46.3128 176.347 46.3128Z" fill="#323233"/>
<path d="M187.069 41.3311L186.03 41.6253C185.965 41.452 185.868 41.2837 185.741 41.1202C185.616 40.9535 185.447 40.8162 185.231 40.7084C185.015 40.6005 184.739 40.5465 184.402 40.5465C183.941 40.5465 183.557 40.6528 183.25 40.8653C182.946 41.0745 182.794 41.3409 182.794 41.6645C182.794 41.9521 182.898 42.1793 183.108 42.346C183.317 42.5127 183.644 42.6517 184.088 42.7628L185.206 43.0374C185.88 43.2008 186.381 43.4509 186.712 43.7876C187.042 44.121 187.207 44.5509 187.207 45.0771C187.207 45.5086 187.083 45.8944 186.834 46.2343C186.589 46.5743 186.246 46.8423 185.804 47.0384C185.363 47.2346 184.85 47.3326 184.265 47.3326C183.497 47.3326 182.861 47.1659 182.357 46.8325C181.854 46.4991 181.535 46.012 181.401 45.3713L182.5 45.0968C182.604 45.5021 182.802 45.8061 183.093 46.0088C183.387 46.2114 183.771 46.3128 184.245 46.3128C184.785 46.3128 185.213 46.1984 185.53 45.9695C185.85 45.7374 186.01 45.4596 186.01 45.136C186.01 44.8745 185.919 44.6555 185.736 44.479C185.553 44.2992 185.272 44.1651 184.892 44.0769L183.637 43.7827C182.947 43.6192 182.441 43.3659 182.117 43.0227C181.797 42.6762 181.637 42.2431 181.637 41.7233C181.637 41.2984 181.756 40.9225 181.995 40.5956C182.237 40.2687 182.565 40.0121 182.98 39.8258C183.399 39.6394 183.873 39.5463 184.402 39.5463C185.147 39.5463 185.733 39.7097 186.157 40.0366C186.586 40.3635 186.89 40.795 187.069 41.3311Z" fill="#323233"/>
<path d="M192.008 47.3326C191.302 47.3326 190.694 47.1659 190.184 46.8325C189.674 46.4991 189.282 46.0398 189.007 45.4547C188.733 44.8696 188.596 44.2011 188.596 43.4493C188.596 42.6844 188.736 42.0093 189.017 41.4242C189.302 40.8358 189.697 40.3766 190.204 40.0464C190.714 39.713 191.309 39.5463 191.989 39.5463C192.518 39.5463 192.995 39.6444 193.42 39.8405C193.845 40.0366 194.193 40.3112 194.465 40.6642C194.736 41.0173 194.904 41.4291 194.97 41.8998H193.813C193.724 41.5566 193.528 41.2526 193.224 40.9878C192.924 40.7198 192.518 40.5858 192.008 40.5858C191.557 40.5858 191.162 40.7035 190.822 40.9388C190.485 41.1709 190.222 41.4994 190.032 41.9244C189.846 42.346 189.753 42.8413 189.753 43.41C189.753 43.9919 189.844 44.4986 190.027 44.93C190.214 45.3615 190.475 45.6966 190.812 45.9352C191.152 46.1738 191.551 46.2931 192.008 46.2931C192.309 46.2931 192.582 46.2408 192.827 46.1362C193.072 46.0316 193.28 45.8813 193.45 45.6851C193.62 45.489 193.741 45.2537 193.813 44.9791H194.97C194.904 45.4236 194.743 45.8241 194.484 46.1804C194.229 46.5334 193.891 46.8145 193.469 47.0237C193.051 47.2297 192.564 47.3326 192.008 47.3326Z" fill="#323233"/>
<path d="M196.661 47.1757V39.6444H197.779V40.7819H197.858C197.995 40.4093 198.244 40.1069 198.603 39.8748C198.963 39.6427 199.368 39.5267 199.819 39.5267C199.904 39.5267 200.01 39.5283 200.138 39.5316C200.265 39.5348 200.362 39.5397 200.427 39.5463V40.7231C200.388 40.7133 200.298 40.6985 200.157 40.6789C200.02 40.6561 199.875 40.6446 199.721 40.6446C199.355 40.6446 199.028 40.7214 198.74 40.8751C198.456 41.0254 198.23 41.2346 198.064 41.5027C197.9 41.7675 197.819 42.0698 197.819 42.4098V47.1757H196.661Z" fill="#323233"/>
<path d="M201.799 47.1757V39.6444H202.956V47.1757H201.799ZM202.387 38.3891C202.162 38.3891 201.967 38.3123 201.804 38.1587C201.644 38.005 201.563 37.8203 201.563 37.6046C201.563 37.3889 201.644 37.2042 201.804 37.0505C201.967 36.8969 202.162 36.8201 202.387 36.8201C202.613 36.8201 202.806 36.8969 202.966 37.0505C203.129 37.2042 203.211 37.3889 203.211 37.6046C203.211 37.8203 203.129 38.005 202.966 38.1587C202.806 38.3123 202.613 38.3891 202.387 38.3891Z" fill="#323233"/>
<path d="M205.075 50V39.6444H206.193V40.8407H206.331C206.416 40.71 206.533 40.5433 206.684 40.3406C206.837 40.1347 207.056 39.9516 207.341 39.7915C207.628 39.628 208.017 39.5463 208.508 39.5463C209.142 39.5463 209.701 39.7048 210.185 40.0219C210.668 40.339 211.046 40.7884 211.317 41.3703C211.589 41.9521 211.724 42.6386 211.724 43.4297C211.724 44.2272 211.589 44.9186 211.317 45.5037C211.046 46.0856 210.67 46.5367 210.189 46.857C209.709 47.1741 209.155 47.3326 208.527 47.3326C208.044 47.3326 207.656 47.2525 207.365 47.0924C207.074 46.9289 206.85 46.7442 206.693 46.5383C206.537 46.3291 206.416 46.1559 206.331 46.0186H206.233V50H205.075ZM206.213 43.41C206.213 43.9788 206.296 44.4806 206.463 44.9153C206.63 45.3468 206.873 45.6851 207.194 45.9303C207.514 46.1722 207.906 46.2931 208.37 46.2931C208.854 46.2931 209.258 46.1657 209.581 45.9107C209.908 45.6525 210.154 45.306 210.317 44.8712C210.484 44.4332 210.567 43.9461 210.567 43.41C210.567 42.8805 210.485 42.4032 210.322 41.9783C210.162 41.5501 209.918 41.2118 209.591 40.9633C209.268 40.7116 208.861 40.5858 208.37 40.5858C207.9 40.5858 207.504 40.7051 207.184 40.9437C206.863 41.1791 206.622 41.5092 206.458 41.9342C206.295 42.3558 206.213 42.8478 206.213 43.41Z" fill="#323233"/>
<path d="M216.765 39.6444V40.625H212.862V39.6444H216.765ZM213.999 37.84H215.156V45.0183C215.156 45.3452 215.204 45.5904 215.299 45.7538C215.397 45.914 215.521 46.0218 215.671 46.0774C215.825 46.1297 215.987 46.1559 216.157 46.1559C216.284 46.1559 216.389 46.1493 216.471 46.1362C216.552 46.1199 216.618 46.1068 216.667 46.097L216.902 47.1365C216.824 47.1659 216.714 47.1953 216.574 47.2248C216.433 47.2575 216.255 47.2738 216.039 47.2738C215.712 47.2738 215.392 47.2035 215.078 47.063C214.767 46.9224 214.509 46.7083 214.303 46.4206C214.101 46.133 213.999 45.7701 213.999 45.3321V37.84Z" fill="#323233"/>
<path fill-rule="evenodd" clip-rule="evenodd" d="M205.661 0H165.389V34.5188H205.661V0Z" fill="#FCE10C"/>
<path opacity="0.6" d="M184 28.4289L186.206 27.0431C186.631 27.8263 187.018 28.4891 187.947 28.4891C188.837 28.4891 189.398 28.1277 189.398 26.7218V17.1608H192.107V26.7615C192.107 29.6739 190.462 30.9996 188.063 30.9996C185.896 30.9996 184.638 29.8347 184 28.4286M193.578 28.1276L195.783 26.802C196.364 27.7863 197.119 28.5093 198.453 28.5093C199.576 28.5093 200.291 27.9267 200.291 27.1233C200.291 26.1592 199.556 25.8177 198.318 25.2555L197.641 24.9539C195.687 24.0905 194.391 23.0058 194.391 20.716C194.391 18.6069 195.938 17 198.357 17C200.079 17 201.317 17.6228 202.207 19.2497L200.098 20.6558C199.633 19.7921 199.131 19.4507 198.357 19.4507C197.563 19.4507 197.06 19.973 197.06 20.6558C197.06 21.4994 197.563 21.841 198.724 22.3633L199.401 22.6645C201.704 23.689 203 24.7333 203 27.0832C203 29.6142 201.085 31 198.511 31C195.996 31 194.371 29.7547 193.578 28.1277" fill="black"/>
<path d="M111.75 117C114.924 117 117.5 114.163 117.5 110.667V104.333H111.75C108.576 104.333 106 107.171 106 110.667C106 114.163 108.576 117 111.75 117Z" fill="#0ACF83"/>
<path d="M106 98C106 94.504 108.576 91.6667 111.75 91.6667H117.5V104.333H111.75C108.576 104.333 106 101.496 106 98Z" fill="#A259FF"/>
<path d="M106 85.3333C106 81.8373 108.576 79 111.75 79H117.5V91.6667H111.75C108.576 91.6667 106 88.8293 106 85.3333Z" fill="#F24E1E"/>
<path d="M117.5 79H123.25C126.424 79 129 81.8373 129 85.3333C129 88.8293 126.424 91.6667 123.25 91.6667H117.5V79Z" fill="#FF7262"/>
<path d="M129 98C129 101.496 126.424 104.333 123.25 104.333C120.076 104.333 117.5 101.496 117.5 98C117.5 94.504 120.076 91.6667 123.25 91.6667C126.424 91.6667 129 94.504 129 98Z" fill="#1ABCFE"/>
<defs>
<filter id="filter0_d_526_2" x="248.07" y="4.053" width="24.0469" height="29.1481" filterUnits="userSpaceOnUse" color-interpolation-filters="sRGB">
<feFlood flood-opacity="0" result="BackgroundImageFix"/>
<feColorMatrix in="SourceAlpha" type="matrix" values="0 0 0 0 0 0 0 0 0 0 0 0 0 0 0 0 0 0 127 0" result="hardAlpha"/>
<feOffset dy="0.983"/>
<feGaussianBlur stdDeviation="1.965"/>
<feColorMatrix type="matrix" values="0 0 0 0 0 0 0 0 0 0 0 0 0 0 0 0 0 0 0.15 0"/>
<feBlend mode="normal" in2="BackgroundImageFix" result="effect1_dropShadow_526_2"/>
<feBlend mode="normal" in="SourceGraphic" in2="effect1_dropShadow_526_2" result="shape"/>
</filter>
<linearGradient id="paint0_linear_526_2" x1="242.836" y1="0.89995" x2="280.658" y2="33.2687" gradientUnits="userSpaceOnUse">
<stop stop-color="#9013FE"/>
<stop offset="1" stop-color="#6610F2"/>
</linearGradient>
<linearGradient id="paint1_linear_526_2" x1="253.532" y1="8.40089" x2="263.342" y2="24.9927" gradientUnits="userSpaceOnUse">
<stop stop-color="white"/>
<stop offset="1" stop-color="#F1E5FC"/>
</linearGradient>
</defs>
</svg>
