<svg width="226" height="50" viewBox="0 0 226 50" fill="none" xmlns="http://www.w3.org/2000/svg">
<path d="M27.2336 1.81602H24.3492L27.3488 5.07109V6.6207H21.1707V4.80625H24.1699L21.1707 1.55117V0H27.2336V1.81602ZM19.9457 1.81602H17.0613L20.0609 5.07109V6.6207H13.8824V4.80625H16.882L13.8824 1.55117V0H19.9457V1.81602ZM12.7293 1.89023H9.6168V4.73047H12.7293V6.6207H7.4043V0H12.7293V1.89023Z" fill="#323233"/>
<path d="M3.16289 45.1168L0 9.64297H34.7527L31.5871 45.1109L17.3551 49.057L3.16289 45.1168Z" fill="#499FDE"/>
<path d="M17.377 46.041L28.8766 42.8527L31.582 12.5437H17.377V46.041Z" fill="#33A9DC"/>
<path d="M17.3766 25.3957H23.1336L23.5317 20.9406H17.3766V16.5898H28.2864L28.1821 17.757L27.1129 29.7461H17.3766V25.3957Z" fill="white"/>
<path d="M17.4027 36.6949L17.3836 36.7004L12.5383 35.3918L12.2281 31.9219H7.86133L8.47109 38.7531L17.3828 41.227L17.4031 41.2211L17.4027 36.6949Z" fill="#EBEBEB"/>
<path d="M22.7641 29.5621L22.2399 35.3887L17.3876 36.6985V41.225L26.3067 38.7531L26.3723 38.018L27.1294 29.5621H22.7641Z" fill="white"/>
<path d="M17.3919 16.5898V20.9402H6.88289L6.79539 19.9625L6.59734 17.757L6.49304 16.5898H17.3919ZM17.3766 25.3961V29.7469H12.5927L12.5055 28.7691L12.3071 26.5633L12.2028 25.3961H17.3766Z" fill="#EBEBEB"/>
<path d="M112.971 32.3645C113.465 32.2917 113.966 32.3342 114.446 32.4894C114.926 32.6446 115.374 32.9095 115.766 33.2688C116.018 33.724 116.179 34.24 116.237 34.7782C116.294 35.3164 116.247 35.8628 116.098 36.3764C115.967 37.6408 115.443 38.8051 114.627 39.6489C113.642 40.3893 112.479 40.7368 111.311 40.6392H109.068L110.446 32.3814L112.971 32.3645ZM104 49H107.684L108.557 43.7581H111.708C112.869 43.7942 114.028 43.6192 115.143 43.2396C116.058 42.8839 116.895 42.2972 117.594 41.521C118.799 40.2513 119.612 38.5522 119.907 36.6872C120.138 35.7586 120.178 34.7795 120.025 33.8291C119.872 32.8788 119.53 31.9839 119.026 31.2169C118.418 30.5128 117.686 29.9722 116.881 29.633C116.076 29.2938 115.217 29.1642 114.364 29.2531H107.295L104 49ZM122.609 24H126.267L125.381 29.2419H128.634C130.129 29.0596 131.63 29.5035 132.871 30.4943C133.282 31.0393 133.563 31.7012 133.686 32.4133C133.808 33.1255 133.768 33.8628 133.57 34.5511L132.041 43.7413H128.341L129.796 35.0042C129.896 34.6708 129.932 34.3152 129.901 33.9635C129.869 33.6118 129.771 33.2728 129.613 32.9711C129.083 32.5265 128.427 32.335 127.78 32.4357H124.86L122.978 43.7506H119.313L122.609 24ZM141.707 32.3645C142.201 32.2917 142.703 32.3342 143.182 32.4894C143.662 32.6446 144.111 32.9095 144.503 33.2688C144.755 33.724 144.916 34.24 144.973 34.7782C145.031 35.3164 144.983 35.8628 144.834 36.3764C144.703 37.6408 144.18 38.8051 143.364 39.6489C142.377 40.3909 141.211 40.7384 140.041 40.6392H137.8L139.175 32.372L141.707 32.3645ZM132.737 49H136.421L137.294 43.7581H140.447C141.61 43.7949 142.771 43.62 143.888 43.2396C144.803 42.8839 145.639 42.2972 146.338 41.521C147.541 40.25 148.351 38.551 148.644 36.6872C148.874 35.7586 148.915 34.7795 148.762 33.8291C148.609 32.8788 148.267 31.9839 147.763 31.2169C147.154 30.514 146.422 29.9747 145.618 29.6365C144.813 29.2982 143.954 29.1693 143.103 29.2587H136.022L132.737 49Z" fill="#8993BE"/>
<path d="M182.342 35.4184L184.215 41.2125C184.636 42.5281 184.812 43.4464 184.742 43.9699C185.766 41.3542 186.482 38.5037 186.89 35.4184H189.143C188.174 40.4413 186.896 44.0912 185.31 46.3681C184.074 48.1227 182.721 49 181.246 49C180.853 49 180.369 48.8868 179.794 48.6621V47.4514C180.075 47.4906 180.404 47.5116 180.783 47.5116C181.471 47.5115 182.026 47.3301 182.447 46.9674C182.952 46.5257 183.205 46.0292 183.205 45.4789C183.205 45.1032 183.008 44.3321 182.615 43.1656L180.004 35.4184H182.342ZM168.001 31.8571L171.433 41.8366H171.454L174.907 31.8571H177.728C178.346 36.8063 178.711 41.3345 178.823 45.4391H176.444C176.361 41.6023 176.129 37.9941 175.75 34.6145H175.729L172.107 45.4391H170.296L166.696 34.6145H166.674C166.407 37.8602 166.239 41.4684 166.169 45.4391H164C164.14 40.6098 164.491 36.0829 165.052 31.8571H168.001Z" fill="#00758F"/>
<path d="M206.283 31.8573C210.018 31.8573 211.886 33.9929 211.886 38.262C211.886 40.5818 211.324 42.3342 210.202 43.518C209.999 43.7343 209.776 43.9212 209.54 44.0944L212.184 45.264L212.181 45.2639L211.243 46.7143L207.8 44.9168C207.23 45.068 206.602 45.1436 205.918 45.1436C204.084 45.1436 202.714 44.6653 201.808 43.7098C200.814 42.6528 200.317 40.9888 200.317 38.7206C200.317 36.4138 200.877 34.6681 202 33.4828C203.023 32.3985 204.45 31.8573 206.283 31.8573ZM194.844 31.8759C196.179 31.8759 197.393 32.1956 198.486 32.8327L197.931 33.9402C196.995 33.5843 196.073 33.4056 195.163 33.4056C194.425 33.4056 193.856 33.5646 193.46 33.8845C193.061 34.2015 192.815 34.6096 192.815 35.107C192.815 35.8713 193.423 36.5342 194.547 37.0942C194.915 37.2742 195.282 37.4564 195.647 37.6406L195.731 37.6828L195.773 37.7039L195.857 37.7461L195.899 37.7673L195.983 37.8096C196.833 38.2386 197.633 38.6482 197.633 38.6482C198.757 39.3618 199.317 40.1227 199.317 41.3758C199.317 42.4702 198.869 43.3686 197.975 44.0716C197.081 44.7714 195.88 45.1222 194.376 45.1222C192.97 45.1222 191.606 44.7184 190.286 43.9174L190.904 42.8089C192.04 43.3187 193.068 43.5733 193.992 43.5733C194.858 43.5733 195.536 43.4002 196.026 43.0585C196.516 42.7143 196.809 42.2342 196.809 41.6254C196.809 40.8592 196.213 40.2042 195.121 39.6548C194.779 39.4857 194.438 39.315 194.098 39.1427L194.014 39.1002C193.86 39.0225 193.705 38.9438 193.554 38.8667L193.472 38.8248C192.734 38.4493 192.096 38.1212 192.096 38.1212C191.004 37.4062 190.456 36.6392 190.456 35.3752C190.456 34.3299 190.865 33.485 191.68 32.8422C192.498 32.198 193.552 31.8759 194.844 31.8759ZM216.275 32.0486V43.3653H220.813V44.9527H213.974V32.0487L216.275 32.0486ZM223.334 43.3702V43.6385H222.835V44.9513H222.453V43.6385H221.935V43.3702H223.334ZM224.255 43.3702L224.734 44.448L225.174 43.3702H225.714V44.9513H225.355V43.7481L224.854 44.9513H224.595L224.093 43.7481H224.074V44.9513H223.734V43.3702H224.255ZM206.048 33.4442C203.846 33.4442 202.745 35.0699 202.745 38.3192C202.745 40.1805 203.037 41.5301 203.62 42.3714C204.159 43.1499 205.004 43.5384 206.155 43.5384C208.356 43.5384 209.457 41.9 209.457 38.6247C209.457 36.7895 209.165 35.4514 208.583 34.6098C208.043 33.833 207.199 33.4442 206.048 33.4442" fill="#F29111"/>
<path d="M200.679 9.85276C201.398 8.14028 203.911 9.43714 204.886 10.0353C205.125 10.185 205.399 10.5012 205.673 10.6181C206.1 10.6343 206.527 10.6668 206.956 10.6841C207.759 10.8672 208.511 11.0167 209.144 11.3663C212.085 13.0461 214 14.7579 215.762 17.5853C216.138 18.1842 216.326 18.8323 216.634 19.4804C217.061 20.4464 217.541 21.4605 218.036 22.3739C218.258 22.807 218.429 23.2885 218.737 23.6543C218.858 23.8215 219.199 23.8708 219.404 23.9707C219.968 24.2541 220.652 24.4692 221.183 24.8018C222.175 25.4014 223.133 26.1159 224.005 26.8473C224.33 27.1297 224.551 27.5294 224.86 27.828V27.9787C224.586 28.0605 224.312 28.1442 224.038 28.2113C223.439 28.3604 222.909 28.3267 222.329 28.4759C221.97 28.5768 221.525 28.71 221.148 28.7438L221.183 28.7778C221.404 29.3912 222.602 29.8901 223.15 30.257C223.815 30.7226 224.431 31.2873 224.928 31.9358C225.099 32.1013 225.27 32.2519 225.441 32.4169C225.56 32.5841 225.594 32.8004 225.714 32.9495V33C225.581 32.9543 225.485 32.8671 225.394 32.7759L225.339 32.7209C225.285 32.6662 225.23 32.6125 225.168 32.5682C224.79 32.3182 224.415 32.0191 224.038 31.7866C223.389 31.3873 222.636 31.1555 221.97 30.7547C221.593 30.522 221.234 30.257 220.875 29.9907C220.549 29.7573 220.191 29.3091 219.986 28.9765C219.866 28.7928 219.849 28.5768 219.712 28.4439C219.736 28.2219 219.946 28.156 220.158 28.1018L220.206 28.0893C220.279 28.0709 220.351 28.0526 220.413 28.0283C221.302 27.6622 222.362 27.5294 223.731 27.5626C223.679 27.2294 222.824 26.8141 222.551 26.6145C222.003 26.2315 221.423 25.8318 220.841 25.4831C220.533 25.3006 220.002 25.1673 219.661 25.0181C219.199 24.8351 218.173 24.6521 217.917 24.3035C217.482 23.7539 217.17 23.0984 216.867 22.4362L216.785 22.2555L216.702 22.0749C216.344 21.2775 215.898 20.4462 215.539 19.6297C215.352 19.2314 215.265 18.8818 215.06 18.4998C213.812 16.1557 211.965 14.193 209.726 12.8128C208.99 12.3637 208.169 11.9481 207.263 11.6656C206.75 11.5152 206.134 11.5984 205.587 11.483H205.227C204.92 11.3991 204.663 11.0832 204.424 10.9167C203.894 10.5681 203.364 10.334 202.731 10.0852C202.509 9.98545 201.876 9.7531 201.654 9.93602C201.518 9.9694 201.448 10.0195 201.414 10.1528C201.278 10.3516 201.398 10.6512 201.483 10.8346C201.74 11.366 202.098 11.6819 202.424 12.131C202.714 12.5293 203.074 12.9784 203.279 13.4115C203.722 14.3424 203.929 15.3737 204.339 16.3045C204.492 16.6545 204.732 17.0528 204.954 17.3686C205.142 17.6192 205.484 17.8003 205.587 18.1176C205.793 18.4502 205.279 19.5476 205.16 19.8961C204.714 21.2599 204.8 23.1555 205.313 24.3376L205.341 24.3999L205.368 24.4631C205.555 24.896 205.756 25.3622 206.254 25.4833C206.288 25.4502 206.254 25.4676 206.322 25.4502C206.442 24.5353 206.476 23.6541 206.801 22.9383C206.989 22.4907 207.365 22.1742 207.622 21.8089C207.793 21.9084 207.793 22.2085 207.895 22.4072C208.118 22.9223 208.357 23.4872 208.631 24.0038C209.194 25.0679 209.828 26.0995 210.546 27.0303C210.786 27.3627 211.127 27.7287 211.435 28.0281C211.572 28.1441 211.726 28.2111 211.829 28.3603H211.862V28.4105C211.349 28.2271 211.024 27.7124 210.615 27.4119C209.845 26.8471 208.922 25.9989 208.391 25.185C208.169 24.7177 207.929 24.2699 207.69 23.805V23.7714C207.587 23.9042 207.622 24.036 207.571 24.237C207.348 25.0679 207.519 26.0158 206.75 26.3146C205.878 26.6647 205.227 25.7498 204.954 25.3341C204.082 23.9542 203.843 21.6263 204.458 19.7472C204.595 19.3312 204.613 18.8323 204.852 18.5002C204.8 18.1999 204.562 18.1178 204.424 17.9339C204.184 17.6194 203.979 17.2531 203.792 16.9039C203.432 16.2217 203.176 15.4066 202.903 14.6751C202.782 14.3763 202.748 14.0764 202.628 13.7936C202.424 13.3619 202.047 12.9289 201.757 12.547C201.363 11.9981 200.217 10.9343 200.679 9.85276ZM206.288 13.1106C206.333 13.155 206.389 13.1939 206.446 13.2321L206.515 13.278C206.606 13.3396 206.695 13.4045 206.75 13.4929C206.836 13.6098 206.852 13.7253 206.955 13.8425C206.955 14.2422 206.836 14.508 206.595 14.6736C206.595 14.6736 206.578 14.691 206.561 14.7073C206.425 14.4409 206.305 14.1758 206.167 13.9096C205.998 13.6773 205.758 13.493 205.62 13.2275H205.587V13.1941C205.793 13.1447 205.998 13.1106 206.288 13.1106Z" fill="#00758F"/>
<path d="M81.839 13.5336C81.427 13.3876 81.011 13.2523 80.593 13.1279C80.663 12.831 80.728 12.5378 80.785 12.2497C81.729 7.51884 81.112 3.70758 79.005 2.45273C76.985 1.24975 73.681 2.50413 70.344 5.5033C70.015 5.7994 69.694 6.10405 69.38 6.41694C69.17 6.20889 68.956 6.00487 68.738 5.80499C65.241 2.59818 61.736 1.24663 59.632 2.50507C57.613 3.7118 57.016 7.29465 57.865 11.7782C57.95 12.2222 58.045 12.664 58.151 13.103C57.655 13.2486 57.176 13.4036 56.718 13.5686C52.618 15.045 50 17.3586 50 19.7585C50 22.2371 52.811 24.7232 57.081 26.2307C57.427 26.3524 57.776 26.4651 58.128 26.5689C58.014 27.0418 57.912 27.5178 57.824 27.9966C57.014 32.4023 57.646 35.9005 59.659 37.0995C61.738 38.3378 65.228 37.0652 68.625 33.9976C68.901 33.7481 69.17 33.4917 69.433 33.2284C69.773 33.5672 70.122 33.8962 70.48 34.2149C73.771 37.1398 77.022 38.3209 79.033 37.1186C81.11 35.8767 81.785 32.1187 80.908 27.5466C80.839 27.1884 80.762 26.832 80.676 26.4777C80.921 26.4027 81.162 26.3255 81.396 26.2452C85.836 24.7262 88.724 22.2702 88.724 19.7585C88.724 17.3499 86.021 15.0206 81.839 13.5336ZM80.876 24.6235C80.664 24.6958 80.447 24.7658 80.226 24.8336C79.736 23.2312 79.074 21.5273 78.265 19.7668C79.037 18.0482 79.673 16.3661 80.149 14.7741C80.546 14.8925 80.93 15.0173 81.301 15.149C84.884 16.4232 87.07 18.3069 87.07 19.7585C87.07 21.3045 84.709 23.3116 80.876 24.6235ZM79.286 27.8784C79.673 29.9001 79.728 31.728 79.472 33.157C79.241 34.4411 78.777 35.2971 78.204 35.64C76.984 36.3696 74.374 35.4213 71.559 32.9197C71.226 32.6234 70.902 32.3176 70.585 32.0026C71.677 30.7701 72.767 29.3373 73.832 27.746C75.704 27.5744 77.472 27.2938 79.076 26.9109C79.155 27.2402 79.225 27.5627 79.286 27.8784ZM63.202 35.5139C62.01 35.9487 61.06 35.9612 60.486 35.6194C59.264 34.8918 58.757 32.0829 59.449 28.3153C59.532 27.87 59.626 27.4273 59.732 26.9875C61.318 27.3499 63.074 27.6105 64.95 27.7677C66.022 29.3248 67.144 30.7561 68.275 32.0094C68.034 32.2495 67.788 32.4835 67.537 32.7111C66.034 34.0675 64.529 35.0299 63.202 35.5139ZM57.616 24.614C55.728 23.9473 54.169 23.081 53.1 22.1357C52.139 21.2863 51.6544 20.4428 51.6544 19.7585C51.6544 18.3021 53.757 16.4445 57.263 15.182C57.688 15.0289 58.134 14.8844 58.596 14.7488C59.08 16.3767 59.716 18.0788 60.483 19.8C59.706 21.5467 59.061 23.276 58.572 24.9232C58.251 24.8282 57.932 24.7251 57.616 24.614ZM59.489 11.4499C58.761 7.60868 59.244 4.71105 60.461 3.9838C61.756 3.2092 64.621 4.3136 67.64 7.08265C67.837 7.26361 68.031 7.44826 68.221 7.63649C67.096 8.88431 65.984 10.3049 64.922 11.8529C63.101 12.0272 61.358 12.3072 59.755 12.6823C59.656 12.2739 59.567 11.8629 59.489 11.4499ZM76.192 15.7102C75.814 15.0348 75.421 14.3679 75.015 13.71C76.25 13.8714 77.434 14.0856 78.546 14.3474C78.212 15.4523 77.796 16.6073 77.307 17.7915C76.949 17.0902 76.577 16.3962 76.192 15.7102ZM69.381 8.85775C70.144 9.71155 70.908 10.6647 71.659 11.699C70.135 11.6246 68.607 11.6243 67.083 11.698C67.835 10.6733 68.606 9.72139 69.381 8.85775ZM62.525 15.7218C62.145 16.4023 61.781 17.0919 61.432 17.79C60.95 16.6099 60.538 15.4496 60.202 14.3291C61.306 14.0738 62.485 13.8651 63.712 13.7067C63.301 14.3687 62.906 15.0406 62.525 15.7218ZM63.748 25.9316C62.479 25.7854 61.283 25.5875 60.179 25.3391C60.521 24.1986 60.942 23.0136 61.434 21.8082C61.784 22.5068 62.15 23.1968 62.532 23.8777C62.924 24.5776 63.33 25.2631 63.748 25.9316ZM69.426 30.7795C68.642 29.9059 67.86 28.9393 67.096 27.8997C67.838 27.9297 68.594 27.945 69.362 27.945C70.151 27.945 70.932 27.9267 71.7 27.8914C70.946 28.9497 70.184 29.9177 69.426 30.7795ZM77.322 21.7467C77.84 22.9653 78.276 24.144 78.622 25.265C77.5 25.5297 76.287 25.7428 75.01 25.901C75.419 25.2309 75.816 24.5524 76.199 23.866C76.589 23.1682 76.963 22.4616 77.322 21.7467ZM74.766 23.0123C74.179 24.0647 73.56 25.0972 72.908 26.108C71.728 26.1944 70.545 26.2373 69.362 26.2366C68.157 26.2366 66.985 26.1979 65.856 26.1222C65.187 25.1138 64.556 24.0795 63.963 23.0217C63.373 21.9695 62.822 20.8945 62.311 19.7991C62.821 18.7034 63.37 17.6279 63.958 16.5749C64.546 15.5216 65.172 14.492 65.836 13.4878C66.987 13.3978 68.168 13.351 69.362 13.351C70.561 13.351 71.743 13.3983 72.895 13.4889C73.552 14.4916 74.174 15.5179 74.761 16.5659C75.351 17.6166 75.907 18.6868 76.43 19.7749C75.913 20.874 75.358 21.9539 74.766 23.0123ZM78.179 3.93271C79.475 4.70512 79.98 7.8199 79.165 11.9046C79.113 12.1654 79.055 12.4304 78.991 12.6998C77.384 12.3167 75.64 12.0319 73.813 11.8549C72.749 10.2899 71.646 8.86712 70.54 7.63539C70.83 7.34661 71.127 7.06531 71.43 6.79174C74.289 4.22221 76.961 3.20764 78.179 3.93271ZM69.362 16.187C71.272 16.187 72.82 17.7861 72.82 19.7585C72.82 21.7309 71.272 23.3299 69.362 23.3299C67.452 23.3299 65.904 21.7309 65.904 19.7585C65.904 17.7861 67.452 16.187 69.362 16.187Z" fill="#61DAFB"/>
<path d="M52 48.3518V38H55.498C56.307 38 56.97 38.1382 57.489 38.4145C58.008 38.6874 58.392 39.0631 58.642 39.5417C58.891 40.0202 59.016 40.5644 59.016 41.1743C59.016 41.7842 58.891 42.325 58.642 42.7968C58.392 43.2686 58.01 43.6392 57.494 43.9088C56.979 44.175 56.32 44.3081 55.518 44.3081H52.687V43.1759H55.478C56.03 43.1759 56.475 43.095 56.812 42.9333C57.152 42.7715 57.398 42.5424 57.55 42.2459C57.705 41.9459 57.782 41.5888 57.782 41.1743C57.782 40.7598 57.705 40.3976 57.55 40.0875C57.395 39.7775 57.147 39.5383 56.807 39.3698C56.467 39.1979 56.017 39.112 55.457 39.112H53.254V48.3518H52ZM56.873 43.7016L59.42 48.3518H57.964L55.457 43.7016H56.873Z" fill="#323233"/>
<path d="M64.1151 48.5135C63.3671 48.5135 62.7211 48.3484 62.1791 48.0182C61.6401 47.6846 61.2231 47.2196 60.9301 46.6231C60.6401 46.0233 60.4961 45.3258 60.4961 44.5305C60.4961 43.7353 60.6401 43.0344 60.9301 42.4278C61.2231 41.8179 61.6311 41.3428 62.1531 41.0024C62.6791 40.6587 63.2921 40.4869 63.9931 40.4869C64.3981 40.4869 64.7971 40.5543 65.1911 40.689C65.5851 40.8238 65.9441 41.0429 66.2681 41.3461C66.5911 41.646 66.8491 42.0437 67.0411 42.539C67.2331 43.0344 67.3291 43.6443 67.3291 44.3688V44.8742H61.3451V43.8431H66.1161C66.1161 43.405 66.0291 43.0142 65.8531 42.6704C65.6821 42.3267 65.4361 42.0555 65.1151 41.8567C64.7991 41.6578 64.4251 41.5584 63.9931 41.5584C63.5181 41.5584 63.1071 41.6764 62.7601 41.9123C62.4161 42.1448 62.1521 42.448 61.9661 42.8221C61.7811 43.1961 61.6881 43.5971 61.6881 44.0251V44.7125C61.6881 45.2988 61.7891 45.7959 61.9921 46.2036C62.1971 46.608 62.4821 46.9163 62.8461 47.1286C63.2101 47.3375 63.6331 47.442 64.1151 47.442C64.4281 47.442 64.7111 47.3982 64.9641 47.3106C65.2201 47.2196 65.4411 47.0848 65.6261 46.9062C65.8111 46.7242 65.9541 46.4985 66.0561 46.2289L67.2081 46.5524C67.0871 46.9433 66.8831 47.287 66.5961 47.5835C66.3101 47.8767 65.9561 48.1058 65.5351 48.2709C65.1141 48.4327 64.6401 48.5135 64.1151 48.5135Z" fill="#323233"/>
<path d="M71.429 48.5338C70.937 48.5338 70.49 48.4411 70.089 48.2558C69.688 48.0671 69.37 47.7958 69.134 47.442C68.898 47.0848 68.78 46.6535 68.78 46.148C68.78 45.7032 68.868 45.3426 69.043 45.0663C69.218 44.7866 69.452 44.5676 69.745 44.4092C70.039 44.2508 70.362 44.1329 70.716 44.0554C71.073 43.9745 71.432 43.9105 71.793 43.8633C72.264 43.8027 72.647 43.7572 72.94 43.7269C73.236 43.6932 73.452 43.6376 73.587 43.56C73.725 43.4825 73.794 43.3478 73.794 43.1557V43.1152C73.794 42.6165 73.658 42.229 73.385 41.9527C73.115 41.6764 72.706 41.5382 72.156 41.5382C71.587 41.5382 71.14 41.6629 70.817 41.9123C70.493 42.1616 70.266 42.4278 70.135 42.7109L69.002 42.3065C69.205 41.8347 69.474 41.4674 69.811 41.2046C70.151 40.9384 70.522 40.7531 70.923 40.6486C71.327 40.5408 71.725 40.4869 72.116 40.4869C72.365 40.4869 72.652 40.5172 72.975 40.5778C73.302 40.6351 73.617 40.7548 73.92 40.9367C74.227 41.1187 74.482 41.3933 74.684 41.7606C74.886 42.1279 74.987 42.6199 74.987 43.2366V48.3518H73.794V47.3004H73.733C73.653 47.4689 73.518 47.6492 73.329 47.8413C73.14 48.0334 72.889 48.1968 72.576 48.3316C72.263 48.4664 71.88 48.5338 71.429 48.5338ZM71.611 47.4622C72.082 47.4622 72.48 47.3695 72.803 47.1842C73.13 46.9989 73.376 46.7596 73.541 46.4664C73.71 46.1733 73.794 45.8649 73.794 45.5414V44.4497C73.744 44.5103 73.632 44.5659 73.461 44.6165C73.292 44.6636 73.097 44.7058 72.874 44.7428C72.655 44.7765 72.441 44.8068 72.232 44.8338C72.027 44.8574 71.86 44.8776 71.732 44.8945C71.422 44.9349 71.132 45.0006 70.862 45.0916C70.596 45.1792 70.381 45.3123 70.215 45.4909C70.054 45.6661 69.973 45.9054 69.973 46.2087C69.973 46.6231 70.126 46.9365 70.433 47.1488C70.743 47.3577 71.135 47.4622 71.611 47.4622Z" fill="#323233"/>
<path d="M80.318 48.5135C79.59 48.5135 78.964 48.3417 78.438 47.998C77.912 47.6543 77.508 47.1808 77.225 46.5776C76.942 45.9745 76.8 45.2853 76.8 44.5103C76.8 43.7218 76.945 43.0259 77.235 42.4228C77.528 41.8162 77.936 41.3428 78.458 41.0024C78.984 40.6587 79.597 40.4869 80.298 40.4869C80.844 40.4869 81.336 40.588 81.774 40.7901C82.212 40.9923 82.571 41.2754 82.851 41.6393C83.13 42.0032 83.304 42.4278 83.371 42.9131H82.178C82.087 42.5592 81.8851 42.2459 81.5721 41.9729C81.2621 41.6966 80.844 41.5584 80.318 41.5584C79.853 41.5584 79.446 41.6797 79.095 41.9224C78.748 42.1616 78.477 42.5003 78.281 42.9383C78.089 43.373 77.993 43.8835 77.993 44.4699C77.993 45.0697 78.088 45.592 78.276 46.0368C78.468 46.4816 78.738 46.827 79.085 47.073C79.435 47.319 79.847 47.442 80.318 47.442C80.628 47.442 80.91 47.3881 81.162 47.2802C81.415 47.1724 81.629 47.0174 81.804 46.8152C81.98 46.613 82.104 46.3704 82.178 46.0873H83.371C83.304 46.5456 83.137 46.9584 82.871 47.3257C82.608 47.6896 82.259 47.9794 81.825 48.1951C81.393 48.4074 80.891 48.5135 80.318 48.5135Z" fill="#323233"/>
<path d="M88.492 40.5879V41.5989H84.468V40.5879H88.492ZM85.641 38.7279H86.834V46.1278C86.834 46.4648 86.883 46.7175 86.98 46.886C87.081 47.0511 87.209 47.1623 87.364 47.2196C87.523 47.2735 87.69 47.3004 87.865 47.3004C87.996 47.3004 88.104 47.2937 88.188 47.2802C88.273 47.2634 88.34 47.2499 88.391 47.2398L88.633 48.3114C88.552 48.3417 88.439 48.372 88.294 48.4023C88.15 48.436 87.966 48.4529 87.744 48.4529C87.407 48.4529 87.076 48.3804 86.753 48.2355C86.433 48.0906 86.167 47.8699 85.954 47.5734C85.745 47.2769 85.641 46.9028 85.641 46.4513V38.7279Z" fill="#323233"/>
</svg>
