<svg width="20" height="21" viewBox="0 0 20 21" fill="none" xmlns="http://www.w3.org/2000/svg">
<path d="M18.0125 8.23327C18.0125 7.96805 17.9071 7.71369 17.7196 7.52616C17.532 7.33862 17.2777 7.23326 17.0125 7.23326C16.7472 7.23326 16.4929 7.33862 16.3054 7.52616C16.1178 7.71369 16.0125 7.96805 16.0125 8.23327H18.0125ZM4.01233 8.23327C4.01233 7.96805 3.90697 7.71369 3.71943 7.52616C3.5319 7.33862 3.27754 7.23326 3.01232 7.23326C2.7471 7.23326 2.49274 7.33862 2.30521 7.52616C2.11767 7.71369 2.01231 7.96805 2.01231 8.23327H4.01233ZM18.3055 10.9403C18.4941 11.1225 18.7467 11.2233 19.0089 11.221C19.2711 11.2187 19.5219 11.1135 19.7073 10.9281C19.8927 10.7427 19.9979 10.4919 20.0002 10.2297C20.0025 9.96749 19.9017 9.71489 19.7195 9.52628L18.3055 10.9403ZM10.0124 1.2332L10.7194 0.526188C10.5319 0.338715 10.2776 0.233398 10.0124 0.233398C9.74723 0.233398 9.49292 0.338715 9.30539 0.526188L10.0124 1.2332ZM0.305291 9.52628C0.20978 9.61853 0.133597 9.72888 0.0811877 9.85088C0.0287782 9.97289 0.00119159 10.1041 3.77571e-05 10.2369C-0.00111607 10.3697 0.0241859 10.5014 0.0744673 10.6242C0.124749 10.7471 0.199003 10.8588 0.292896 10.9527C0.38679 11.0466 0.498443 11.1208 0.621341 11.1711C0.744238 11.2214 0.875919 11.2467 1.0087 11.2456C1.14148 11.2444 1.2727 11.2168 1.39471 11.1644C1.51671 11.112 1.62706 11.0358 1.71931 10.9403L0.305291 9.52628ZM5.01234 20.2334H15.0124V18.2334H5.01234V20.2334ZM18.0125 17.2334V8.23327H16.0125V17.2334H18.0125ZM4.01233 17.2334V8.23327H2.01231V17.2334H4.01233ZM19.7195 9.52628L10.7194 0.526188L9.30539 1.9402L18.3055 10.9403L19.7195 9.52628ZM9.30539 0.526188L0.305291 9.52628L1.71931 10.9403L10.7194 1.9402L9.30539 0.526188ZM15.0124 20.2334C15.8081 20.2334 16.5712 19.9173 17.1338 19.3547C17.6964 18.7921 18.0125 18.029 18.0125 17.2334H16.0125C16.0125 17.4986 15.9071 17.7529 15.7196 17.9405C15.532 18.128 15.2777 18.2334 15.0124 18.2334V20.2334ZM5.01234 18.2334C4.74712 18.2334 4.49276 18.128 4.30523 17.9405C4.11769 17.7529 4.01233 17.4986 4.01233 17.2334H2.01231C2.01231 18.029 2.32838 18.7921 2.891 19.3547C3.45361 19.9173 4.21668 20.2334 5.01234 20.2334V18.2334Z" fill="black"/>
</svg>
