<svg width="30" height="30" viewBox="0 0 30 30" fill="none" xmlns="http://www.w3.org/2000/svg">
<g clip-path="url(#clip0_573_11)">
<path d="M21.9629 27.1176H8.06707V28.6605H21.9629V27.1176ZM24.5277 24.689V23.2753H5.52293V24.689L24.5277 24.689ZM25.4445 22.7857V21.3722H4.59744V22.7857H25.4445ZM23.6019 26.5917V25.1782H6.43998V26.5917H23.6019ZM19.9494 16.8667L17.8204 16.8679C15.9082 16.7934 15.9961 14.2543 17.8204 14.2529H23.9205L23.923 11.6607H6.12797L6.12984 14.2529H12.2299C13.9911 14.2769 14.1972 16.7707 12.2299 16.8679L10.1016 16.8667C8.21033 16.8667 8.21033 19.4812 10.1016 19.4812H19.9494C21.7839 19.4812 21.7839 16.8667 19.9494 16.8667ZM6.41496 1.40324L6.42094 10.5958H23.6307L23.6372 1.40324H6.41496ZM26.8133 9.30772H29.0705C29.5835 9.30772 30 9.72484 30 10.2395V12.7504C30 13.2651 29.5835 13.6822 29.0705 13.6822H26.8133L26.8127 27.2639C26.8127 28.6479 25.6939 29.7693 24.3138 29.7693H5.68617C4.3057 29.7693 3.18703 28.6479 3.18703 27.2639V13.6819H0.929238C0.41584 13.6819 0 13.2647 0 12.7501V10.2391C0 9.72449 0.416133 9.3073 0.929297 9.3073H3.18633L3.18516 7.65941H5.11957V0.230957H24.8801V7.65947H26.8146L26.8133 9.30772Z" fill="#7CA2B7"/>
</g>
<defs>
<clipPath id="clip0_573_11">
<rect width="30" height="30" fill="white"/>
</clipPath>
</defs>
</svg>
