<svg width="34" height="34" viewBox="0 0 34 34" fill="none" xmlns="http://www.w3.org/2000/svg">
<path d="M8.77603 1.68595C10.2244 0.587032 11.994 -0.00507528 13.8121 0.000863333C14.4399 -0.0126253 15.0609 0.132135 15.6179 0.421799C16.175 0.711462 16.6501 1.1367 16.9996 1.65832C17.349 1.1367 17.8242 0.711462 18.3812 0.421799C18.9383 0.132135 19.5593 -0.0126253 20.187 0.000863333C22.0051 -0.00507528 23.7747 0.587032 25.2231 1.68595C26.3387 2.55292 27.1993 3.75352 27.5032 5.20486C28.2002 5.25798 28.8376 5.54697 29.3731 5.98259C30.1849 6.64132 30.7756 7.62942 31.1475 8.67489C31.7297 10.3005 31.8869 12.3723 31.2835 14.136C31.4365 14.2083 31.5866 14.2933 31.7339 14.391C32.3183 14.7799 32.7624 15.3366 33.0897 15.9932C33.7335 17.2788 33.9991 19.0723 33.9991 21.2503C33.9991 23.6749 33.0748 25.3026 31.9018 26.3077C31.2524 26.8626 30.4872 27.2656 29.6621 27.487C29.4496 28.6728 28.8546 30.0455 27.9218 31.2099C26.7106 32.7293 24.8321 34 22.3119 34C20.3145 34 18.725 32.895 17.6923 31.8113C17.4444 31.5535 17.213 31.2802 16.9996 30.9932C16.7861 31.2802 16.5547 31.5535 16.3068 31.8113C15.2741 32.895 13.6868 34 11.6872 34C9.16702 34 7.29069 32.7293 6.07735 31.2099C5.20582 30.1273 4.60877 28.8501 4.33701 27.487C3.51196 27.2656 2.74678 26.8626 2.09732 26.3077C0.924352 25.3026 0 23.6728 0 21.2503C0 19.0723 0.267743 17.2767 0.909477 15.9932C1.21192 15.3482 1.67966 14.7947 2.26519 14.3889C2.41014 14.2963 2.56058 14.2125 2.71568 14.1381C2.1122 12.3702 2.26944 10.3005 2.85168 8.67489C3.22354 7.62942 3.81428 6.64132 4.62601 5.98259C5.16149 5.54697 5.79898 5.2601 6.49596 5.20486C6.80195 3.75352 7.66043 2.55292 8.77603 1.68595ZM15.9371 5.31323V5.29198L15.9328 5.18573C15.9029 4.6316 15.7926 4.08475 15.6056 3.56227C15.4751 3.16679 15.2496 2.80929 14.949 2.52105C14.6351 2.24774 14.2279 2.10615 13.8121 2.12581C12.4667 2.11964 11.1562 2.55399 10.0807 3.36253C9.09477 4.12963 8.49978 5.16873 8.49978 6.3757C8.49966 6.54396 8.45957 6.70979 8.38282 6.85953C8.30607 7.00926 8.19485 7.13863 8.05833 7.23698C7.9218 7.33533 7.76387 7.39984 7.59753 7.42522C7.43119 7.45059 7.26121 7.4361 7.10157 7.38293C6.70208 7.25118 6.34509 7.32555 5.96472 7.63154C5.54823 7.97154 5.14237 8.57502 4.85125 9.38888C4.25839 11.0506 4.32002 13.0629 5.13387 14.2869C5.2501 14.4612 5.3122 14.666 5.31237 14.8755H6.90607C8.17411 14.8755 9.39021 15.3792 10.2868 16.2758C11.1835 17.1725 11.6872 18.3886 11.6872 19.6566V20.3685C12.3961 20.6191 12.9936 21.1123 13.374 21.7608C13.7545 22.4094 13.8934 23.1715 13.7662 23.9126C13.6391 24.6537 13.2541 25.3259 12.6792 25.8106C12.1043 26.2952 11.3766 26.561 10.6247 26.561C9.87283 26.561 9.14514 26.2952 8.57027 25.8106C7.9954 25.3259 7.61036 24.6537 7.48321 23.9126C7.35607 23.1715 7.49499 22.4094 7.87544 21.7608C8.25589 21.1123 8.85336 20.6191 9.56226 20.3685V19.6566C9.56226 18.1904 8.37229 17.0004 6.90607 17.0004H3.18742C3.0604 17.0002 2.93445 16.9771 2.81555 16.9324L2.80918 16.9452C2.38844 17.7845 2.12495 19.1785 2.12495 21.2503C2.12495 23.0757 2.7943 24.1041 3.48066 24.6927C4.21802 25.326 5.03612 25.5002 5.31237 25.5002C5.59415 25.5002 5.86439 25.6122 6.06365 25.8114C6.2629 26.0107 6.37484 26.2809 6.37484 26.5627C6.37484 27.3447 6.79983 28.711 7.7348 29.884C8.64641 31.0208 9.9575 31.8751 11.6872 31.8751C12.8772 31.8751 13.9439 31.2099 14.7684 30.3451C15.1742 29.9201 15.4909 29.4802 15.697 29.119C15.7906 28.9587 15.8709 28.791 15.9371 28.6175V11.6881H13.6315C13.3809 12.397 12.8877 12.9944 12.2392 13.3749C11.5906 13.7553 10.8285 13.8943 10.0874 13.7671C9.34633 13.64 8.67407 13.2549 8.18943 12.6801C7.70479 12.1052 7.43898 11.3775 7.43898 10.6256C7.43898 9.8737 7.70479 9.146 8.18943 8.57113C8.67407 7.99626 9.34633 7.61123 10.0874 7.48408C10.8285 7.35693 11.5906 7.49586 12.2392 7.87631C12.8877 8.25675 13.3809 8.85422 13.6315 9.56312H15.9371V5.31323ZM18.062 26.5606V28.6154L18.0875 28.6855C18.1272 28.7918 18.198 28.9355 18.3 29.1169C18.5104 29.4781 18.8249 29.918 19.2286 30.343C20.0552 31.2078 21.1241 31.8729 22.3119 31.8729C24.0416 31.8729 25.3527 31.0187 26.2643 29.8819C27.1993 28.7089 27.6243 27.3425 27.6243 26.5606C27.6243 26.2788 27.7362 26.0085 27.9355 25.8093C28.1347 25.61 28.405 25.4981 28.6868 25.4981C28.963 25.4981 29.7811 25.3238 30.5185 24.6906C31.2048 24.102 31.8742 23.0735 31.8742 21.2482C31.8742 19.1764 31.6086 17.7845 31.19 16.9431C31.0519 16.6285 30.8317 16.3569 30.5525 16.1568C30.3131 16.0043 30.033 15.9279 29.7492 15.938C29.5571 15.9379 29.3685 15.8856 29.2037 15.7868C29.0388 15.6881 28.9038 15.5464 28.8131 15.377C28.7224 15.2075 28.6794 15.0167 28.6885 14.8247C28.6977 14.6328 28.7588 14.4469 28.8653 14.2869C29.6812 13.0629 29.7407 11.0506 29.1479 9.38888C28.8568 8.57502 28.4509 7.96941 28.0344 7.63154C27.654 7.32555 27.2971 7.24905 26.8976 7.38293C26.7379 7.4361 26.5679 7.45059 26.4016 7.42522C26.2353 7.39984 26.0773 7.33533 25.9408 7.23698C25.8043 7.13863 25.6931 7.00926 25.6163 6.85953C25.5396 6.70979 25.4995 6.54396 25.4994 6.3757C25.4994 5.16873 24.9044 4.12963 23.9163 3.36253C22.8414 2.55443 21.5317 2.1201 20.187 2.12581C19.7713 2.10615 19.364 2.24774 19.0501 2.52105C18.7488 2.80906 18.5226 3.16657 18.3914 3.56227C18.1899 4.11753 18.0787 4.70151 18.062 5.29198V24.4377H19.6558C21.122 24.4377 22.3119 23.2478 22.3119 21.7816V17.8823C21.603 17.6317 21.0056 17.1385 20.6251 16.4899C20.2447 15.8414 20.1057 15.0792 20.2329 14.3382C20.36 13.5971 20.7451 12.9248 21.3199 12.4402C21.8948 11.9555 22.6225 11.6897 23.3744 11.6897C24.1263 11.6897 24.854 11.9555 25.4289 12.4402C26.0037 12.9248 26.3888 13.5971 26.5159 14.3382C26.6431 15.0792 26.5041 15.8414 26.1237 16.4899C25.7432 17.1385 25.1458 17.6317 24.4369 17.8823V21.7816C24.4369 23.0496 23.9332 24.2657 23.0365 25.1623C22.1399 26.059 20.9238 26.5627 19.6558 26.5627L18.062 26.5606ZM9.56226 10.6256C9.56226 10.9074 9.6742 11.1776 9.87345 11.3769C10.0727 11.5761 10.3429 11.6881 10.6247 11.6881C10.9065 11.6881 11.1768 11.5761 11.376 11.3769C11.5753 11.1776 11.6872 10.9074 11.6872 10.6256C11.6872 10.3438 11.5753 10.0736 11.376 9.87431C11.1768 9.67506 10.9065 9.56312 10.6247 9.56312C10.3429 9.56312 10.0727 9.67506 9.87345 9.87431C9.6742 10.0736 9.56226 10.3438 9.56226 10.6256ZM23.3744 15.938C23.6562 15.938 23.9264 15.826 24.1257 15.6268C24.3249 15.4275 24.4369 15.1573 24.4369 14.8755C24.4369 14.5937 24.3249 14.3235 24.1257 14.1242C23.9264 13.925 23.6562 13.813 23.3744 13.813C23.0926 13.813 22.8224 13.925 22.6231 14.1242C22.4239 14.3235 22.3119 14.5937 22.3119 14.8755C22.3119 15.1573 22.4239 15.4275 22.6231 15.6268C22.8224 15.826 23.0926 15.938 23.3744 15.938ZM10.6247 22.3128C10.3429 22.3128 10.0727 22.4247 9.87345 22.624C9.6742 22.8232 9.56226 23.0935 9.56226 23.3753C9.56226 23.6571 9.6742 23.9273 9.87345 24.1266C10.0727 24.3258 10.3429 24.4377 10.6247 24.4377C10.9065 24.4377 11.1768 24.3258 11.376 24.1266C11.5753 23.9273 11.6872 23.6571 11.6872 23.3753C11.6872 23.0935 11.5753 22.8232 11.376 22.624C11.1768 22.4247 10.9065 22.3128 10.6247 22.3128Z" fill="#5A5A63"/>
</svg>
