<svg width="34" height="35" viewBox="0 0 34 35" fill="none" xmlns="http://www.w3.org/2000/svg">
<path fill-rule="evenodd" clip-rule="evenodd" d="M16.6667 34.2334C8.81 34.2334 4.88167 34.2334 2.44 31.7429C0 29.2558 0 25.2472 0 17.2334C0 9.2196 0 5.2127 2.44 2.7222C4.88333 0.233398 8.81 0.233398 16.6667 0.233398C24.5233 0.233398 28.4517 0.233398 30.8917 2.7222C33.3333 5.2144 33.3333 9.2196 33.3333 17.2334C33.3333 25.2472 33.3333 29.2541 30.8917 31.7429C28.4533 34.2334 24.5233 34.2334 16.6667 34.2334ZM11.25 7.8834C11.25 7.54525 11.1183 7.22095 10.8839 6.98184C10.6495 6.74273 10.3315 6.6084 10 6.6084C9.66848 6.6084 9.35054 6.74273 9.11612 6.98184C8.8817 7.22095 8.75 7.54525 8.75 7.8834V10.0084H6.66667C6.33515 10.0084 6.0172 10.1427 5.78278 10.3818C5.54836 10.6209 5.41667 10.9452 5.41667 11.2834C5.41667 11.6215 5.54836 11.9458 5.78278 12.185C6.0172 12.4241 6.33515 12.5584 6.66667 12.5584H8.75V14.6834C8.75 15.0215 8.8817 15.3458 9.11612 15.585C9.35054 15.8241 9.66848 15.9584 10 15.9584C10.3315 15.9584 10.6495 15.8241 10.8839 15.585C11.1183 15.3458 11.25 15.0215 11.25 14.6834V12.5584H13.3333C13.6649 12.5584 13.9828 12.4241 14.2172 12.185C14.4516 11.9458 14.5833 11.6215 14.5833 11.2834C14.5833 10.9452 14.4516 10.6209 14.2172 10.3818C13.9828 10.1427 13.6649 10.0084 13.3333 10.0084H11.25V7.8834ZM20 10.0084C19.6685 10.0084 19.3505 10.1427 19.1161 10.3818C18.8817 10.6209 18.75 10.9452 18.75 11.2834C18.75 11.6215 18.8817 11.9458 19.1161 12.185C19.3505 12.4241 19.6685 12.5584 20 12.5584H26.6667C26.9982 12.5584 27.3161 12.4241 27.5506 12.185C27.785 11.9458 27.9167 11.6215 27.9167 11.2834C27.9167 10.9452 27.785 10.6209 27.5506 10.3818C27.3161 10.1427 26.9982 10.0084 26.6667 10.0084H20ZM20 20.2084C19.6685 20.2084 19.3505 20.3427 19.1161 20.5818C18.8817 20.8209 18.75 21.1452 18.75 21.4834C18.75 21.8215 18.8817 22.1458 19.1161 22.385C19.3505 22.6241 19.6685 22.7584 20 22.7584H26.6667C26.9982 22.7584 27.3161 22.6241 27.5506 22.385C27.785 22.1458 27.9167 21.8215 27.9167 21.4834C27.9167 21.1452 27.785 20.8209 27.5506 20.5818C27.3161 20.3427 26.9982 20.2084 26.6667 20.2084H20ZM8.38333 20.5824C8.14637 20.3572 7.83296 20.2346 7.50913 20.2404C7.18529 20.2462 6.87632 20.38 6.6473 20.6136C6.41827 20.8472 6.28709 21.1624 6.28137 21.4927C6.27566 21.823 6.39587 22.1427 6.61667 22.3844L8.23333 24.0334L6.61667 25.6824C6.49385 25.7991 6.39535 25.9399 6.32703 26.0963C6.25871 26.2527 6.22198 26.4215 6.21901 26.5927C6.21605 26.7639 6.24693 26.934 6.3098 27.0927C6.37266 27.2515 6.46624 27.3957 6.58494 27.5168C6.70363 27.6378 6.84502 27.7333 7.00067 27.7974C7.15632 27.8615 7.32303 27.893 7.49087 27.89C7.65871 27.887 7.82423 27.8495 7.97756 27.7798C8.1309 27.7101 8.2689 27.6097 8.38333 27.4844L10 25.8354L11.6167 27.4844C11.7311 27.6097 11.8691 27.7101 12.0224 27.7798C12.1758 27.8495 12.3413 27.887 12.5091 27.89C12.677 27.893 12.8437 27.8615 12.9993 27.7974C13.155 27.7333 13.2964 27.6378 13.4151 27.5168C13.5338 27.3957 13.6273 27.2515 13.6902 27.0927C13.7531 26.934 13.7839 26.7639 13.781 26.5927C13.778 26.4215 13.7413 26.2527 13.673 26.0963C13.6046 25.9399 13.5061 25.7991 13.3833 25.6824L11.7667 24.0334L13.3833 22.3844C13.5061 22.2677 13.6046 22.1269 13.673 21.9705C13.7413 21.8141 13.778 21.6453 13.781 21.4741C13.7839 21.3029 13.7531 21.1328 13.6902 20.9741C13.6273 20.8153 13.5338 20.6711 13.4151 20.55C13.2964 20.429 13.155 20.3335 12.9993 20.2694C12.8437 20.2053 12.677 20.1738 12.5091 20.1768C12.3413 20.1798 12.1758 20.2173 12.0224 20.287C11.8691 20.3567 11.7311 20.4571 11.6167 20.5824L10 22.2314L8.38333 20.5824ZM20 25.3084C19.6685 25.3084 19.3505 25.4427 19.1161 25.6818C18.8817 25.9209 18.75 26.2452 18.75 26.5834C18.75 26.9215 18.8817 27.2458 19.1161 27.485C19.3505 27.7241 19.6685 27.8584 20 27.8584H26.6667C26.9982 27.8584 27.3161 27.7241 27.5506 27.485C27.785 27.2458 27.9167 26.9215 27.9167 26.5834C27.9167 26.2452 27.785 25.9209 27.5506 25.6818C27.3161 25.4427 26.9982 25.3084 26.6667 25.3084H20Z" fill="#3F9745"/>
</svg>
