<svg width="34" height="30" viewBox="0 0 34 30" fill="none" xmlns="http://www.w3.org/2000/svg">
<path d="M16.8055 0C7.53993 0 0 7.54001 0 16.8055C0 20.3647 1.11355 23.6684 3.009 26.3888L5.2242 24.912C3.91532 23.044 3.08087 20.8854 2.79291 18.6228H4.90779V17.2843H2.68553C2.68032 17.1251 2.67698 16.9657 2.67698 16.8054C2.67698 13.4311 3.85306 10.3383 5.81767 7.91203L7.11154 9.2059L8.05793 8.25952L6.70955 6.91121C9.12664 4.44505 12.4431 2.86437 16.1362 2.69319V4.866H17.4747V2.69334C21.1678 2.86452 24.4843 4.44527 26.9014 6.91144L25.553 8.25974L26.4993 9.20613L27.7932 7.91225C29.7578 10.3386 30.934 13.4313 30.934 16.8058C30.934 16.9659 30.9307 17.1255 30.9254 17.2844H28.7032V18.6229H30.818C30.53 20.8855 29.6956 23.044 28.3868 24.912L30.602 26.3888C32.4974 23.6685 33.6109 20.3648 33.6109 16.8056C33.6109 7.54016 26.071 0.000148923 16.8055 0.000148923V0ZM17.9826 4.9249C19.3243 5.66498 20.5113 6.70961 21.467 7.99128C22.4226 9.27295 23.1256 10.7631 23.5305 12.3656L27.246 11.0592C27.1439 10.8827 27.0373 10.7088 26.9262 10.5378L26.5444 10.921L24.2862 8.66857L23.8579 8.2413L24.4416 7.65579C22.6119 6.11721 20.361 5.16554 17.9825 4.92482L17.9826 4.9249ZM29.594 11.6057L16.5562 16.112C15.6533 16.2357 14.9465 17.0193 14.9465 17.9536C14.9465 18.9723 15.7867 19.8126 16.8055 19.8126C17.3089 19.8126 17.7684 19.6071 18.1048 19.2766L29.594 11.6057ZM28.3661 14.0092L23.8514 17.0372C23.6735 18.6253 23.2091 20.1572 22.4859 21.5413C21.7627 22.9253 20.7957 24.133 19.6426 25.0921H25.2983C26.6959 23.6674 27.7128 21.9139 28.2551 19.9931H27.4004V16.088H28.6661C28.6276 15.3876 28.5272 14.692 28.3661 14.0092ZM7.28733 27.323V30H26.3236V27.323H7.28733Z" fill="#69BB29"/>
</svg>
