<svg width="19" height="20" viewBox="0 0 19 20" fill="none" xmlns="http://www.w3.org/2000/svg">
<path d="M9.49997 4.5455C9.49997 4.77143 9.31681 4.95459 9.09088 4.95459C8.86495 4.95459 8.68179 4.77143 8.68179 4.5455C8.68179 4.31957 8.86495 4.13641 9.09088 4.13641C9.31681 4.13641 9.49997 4.31957 9.49997 4.5455Z" fill="#5A5A63" stroke="#5A5A63"/>
<path d="M7.62638 9.49203L7.27297 9.13836L6.91929 9.49176L4.92194 11.4876L4.34346 10.9091L7.27251 7.98003L9.45623 10.1661L9.80978 10.52L10.1635 10.1663L12.4535 7.87629L12.8119 7.51791L12.4487 7.16443L12.1397 6.86365H14.0454V8.76941L13.7437 8.45945L13.3901 8.09612L13.0317 8.45477L9.81087 11.6781L7.62638 9.49203ZM4.13635 15.0454H14.0454V15.8636H4.13635V15.0454Z" fill="#5A5A63" stroke="#5A5A63"/>
<path d="M12.0415 2.09731L12.1901 2.31824H12.4563L15.454 2.31824C15.4541 2.31824 15.4541 2.31824 15.4542 2.31824C16.0448 2.31889 16.611 2.55378 17.0286 2.97139C17.4463 3.38905 17.6812 3.95534 17.6818 4.546V17.2722C17.6812 17.8629 17.4463 18.4292 17.0286 18.8469C16.611 19.2645 16.0447 19.4994 15.454 19.5H2.72776C2.1371 19.4994 1.57081 19.2645 1.15315 18.8469C0.735543 18.4292 0.50065 17.863 0.5 17.2725V4.54577C0.50065 3.9552 0.735543 3.38899 1.15315 2.97139C1.57075 2.55378 2.13696 2.31889 2.72754 2.31824C2.72761 2.31824 2.72769 2.31824 2.72776 2.31824L5.72544 2.31824H6.22544V1.97508C6.28066 1.89936 6.33851 1.82558 6.39888 1.75385L6.40045 1.75197L6.40704 1.74406C6.9921 1.06454 7.81404 0.63331 8.70576 0.538148L8.72569 0.536021L8.74539 0.532304C8.9737 0.489232 9.20806 0.489232 9.43637 0.532304L9.45607 0.536021L9.476 0.538148C10.3677 0.633309 11.1896 1.06453 11.7747 1.74404L11.7813 1.75197L11.7825 1.75345C11.8749 1.8634 11.9613 1.97818 12.0415 2.09731ZM16.4509 18.2691C16.7151 18.0049 16.8636 17.6464 16.8636 17.2727V4.5455C16.8636 4.17179 16.7151 3.81338 16.4509 3.54913C16.1866 3.28487 15.8282 3.13641 15.4545 3.13641H11.695C11.525 2.67162 11.2327 2.25823 10.8456 1.94184C10.3504 1.53707 9.73047 1.31596 9.09088 1.31596C8.45129 1.31596 7.83137 1.53707 7.33616 1.94184C6.94906 2.25823 6.65677 2.67162 6.48681 3.13641H2.72726C2.35355 3.13641 1.99514 3.28487 1.73089 3.54913C1.46663 3.81338 1.31818 4.17179 1.31818 4.5455V17.2727C1.31818 17.6464 1.46663 18.0049 1.73089 18.2691C1.99514 18.5334 2.35355 18.6818 2.72726 18.6818H15.4545C15.8282 18.6818 16.1866 18.5334 16.4509 18.2691Z" fill="#5A5A63" stroke="#5A5A63"/>
</svg>
