<svg width="226" height="129" viewBox="0 0 226 129" fill="none" xmlns="http://www.w3.org/2000/svg">
<path d="M30 125.895V117.27H35.233V118.196H31.0568V121.111H34.8409V122.037H31.0568V125.895H30Z" fill="#323233"/>
<path d="M36.9066 125.895V119.426H37.9123V125.895H36.9066ZM37.418 118.348C37.2219 118.348 37.0529 118.282 36.9109 118.15C36.7717 118.018 36.7021 117.859 36.7021 117.674C36.7021 117.489 36.7717 117.33 36.9109 117.198C37.0529 117.066 37.2219 117 37.418 117C37.614 117 37.7816 117.066 37.9208 117.198C38.0629 117.33 38.1339 117.489 38.1339 117.674C38.1339 117.859 38.0629 118.018 37.9208 118.15C37.7816 118.282 37.614 118.348 37.418 118.348Z" fill="#323233"/>
<path d="M42.3963 128.456C41.9105 128.456 41.4929 128.394 41.1435 128.27C40.794 128.149 40.5028 127.989 40.2699 127.79C40.0398 127.594 39.8565 127.383 39.7202 127.158L40.5213 126.602C40.6122 126.72 40.7273 126.855 40.8665 127.007C41.0057 127.161 41.196 127.295 41.4375 127.407C41.6818 127.522 42.0014 127.58 42.3963 127.58C42.9247 127.58 43.3608 127.453 43.7045 127.2C44.0483 126.948 44.2202 126.552 44.2202 126.013V124.699H44.1349C44.0611 124.817 43.956 124.963 43.8196 125.137C43.6861 125.308 43.4929 125.461 43.2401 125.596C42.9901 125.728 42.652 125.794 42.2259 125.794C41.6974 125.794 41.223 125.67 40.8026 125.423C40.3849 125.176 40.054 124.817 39.8097 124.345C39.5682 123.873 39.4474 123.301 39.4474 122.627C39.4474 121.964 39.5653 121.387 39.8011 120.896C40.0369 120.402 40.3651 120.02 40.7855 119.75C41.206 119.478 41.6918 119.342 42.2429 119.342C42.669 119.342 43.0071 119.412 43.2571 119.552C43.5099 119.69 43.7031 119.847 43.8366 120.024C43.973 120.198 44.0781 120.341 44.152 120.454H44.2543V119.426H45.2259V126.08C45.2259 126.636 45.098 127.088 44.8423 127.436C44.5895 127.787 44.2486 128.044 43.8196 128.207C43.3935 128.373 42.919 128.456 42.3963 128.456ZM42.3622 124.901C42.7656 124.901 43.1065 124.81 43.3849 124.627C43.6634 124.445 43.875 124.182 44.0199 123.84C44.1648 123.497 44.2372 123.087 44.2372 122.61C44.2372 122.144 44.1662 121.732 44.0241 121.376C43.8821 121.019 43.6719 120.74 43.3935 120.538C43.1151 120.336 42.7713 120.235 42.3622 120.235C41.9361 120.235 41.581 120.341 41.2969 120.555C41.0156 120.768 40.804 121.054 40.6619 121.414C40.5227 121.773 40.4531 122.172 40.4531 122.61C40.4531 123.059 40.5241 123.456 40.6662 123.802C40.8111 124.144 41.0241 124.414 41.3054 124.61C41.5895 124.804 41.9418 124.901 42.3622 124.901Z" fill="#323233"/>
<path d="M47.0668 125.895V119.426H48.0384V120.437H48.1236C48.2599 120.091 48.4801 119.823 48.7841 119.632C49.0881 119.439 49.4531 119.342 49.8793 119.342C50.3111 119.342 50.6705 119.439 50.9574 119.632C51.2472 119.823 51.473 120.091 51.6349 120.437H51.7031C51.8707 120.103 52.1222 119.837 52.4574 119.641C52.7926 119.441 53.1946 119.342 53.6634 119.342C54.2486 119.342 54.7273 119.523 55.0994 119.885C55.4716 120.244 55.6577 120.804 55.6577 121.565V125.895H54.652V121.565C54.652 121.088 54.5199 120.747 54.2557 120.542C53.9915 120.337 53.6804 120.235 53.3224 120.235C52.8622 120.235 52.5057 120.372 52.2528 120.647C52 120.92 51.8736 121.265 51.8736 121.683V125.895H50.8509V121.464C50.8509 121.096 50.7301 120.8 50.4886 120.576C50.2472 120.348 49.9361 120.235 49.5554 120.235C49.294 120.235 49.0497 120.303 48.8224 120.441C48.598 120.578 48.4162 120.769 48.277 121.014C48.1406 121.255 48.0724 121.534 48.0724 121.852V125.895H47.0668Z" fill="#323233"/>
<path d="M59.4226 126.046C59.0078 126.046 58.6314 125.969 58.2933 125.815C57.9553 125.658 57.6868 125.432 57.4879 125.137C57.2891 124.839 57.1896 124.48 57.1896 124.059C57.1896 123.688 57.2635 123.388 57.4112 123.157C57.559 122.924 57.7564 122.742 58.0036 122.61C58.2507 122.478 58.5234 122.38 58.8217 122.315C59.1229 122.248 59.4254 122.194 59.7294 122.155C60.1271 122.104 60.4496 122.067 60.6967 122.041C60.9467 122.013 61.1286 121.967 61.2422 121.902C61.3587 121.838 61.4169 121.725 61.4169 121.565V121.532C61.4169 121.116 61.3018 120.793 61.0717 120.563C60.8445 120.333 60.4993 120.218 60.0362 120.218C59.5561 120.218 59.1797 120.322 58.907 120.529C58.6342 120.737 58.4425 120.959 58.3317 121.195L57.3771 120.858C57.5476 120.465 57.7749 120.159 58.0589 119.94C58.3459 119.718 58.6584 119.563 58.9964 119.476C59.3374 119.387 59.6726 119.342 60.0021 119.342C60.2124 119.342 60.4538 119.367 60.7266 119.417C61.0021 119.465 61.2678 119.565 61.5234 119.716C61.782 119.868 61.9965 120.097 62.1669 120.403C62.3374 120.709 62.4226 121.119 62.4226 121.633V125.895H61.4169V125.019H61.3658C61.2976 125.159 61.1839 125.309 61.0249 125.47C60.8658 125.63 60.6541 125.766 60.3899 125.878C60.1257 125.99 59.8033 126.046 59.4226 126.046ZM59.576 125.154C59.9737 125.154 60.3089 125.076 60.5817 124.922C60.8572 124.768 61.0646 124.568 61.2038 124.324C61.3459 124.08 61.4169 123.823 61.4169 123.553V122.644C61.3743 122.694 61.2805 122.74 61.1357 122.783C60.9936 122.822 60.8288 122.857 60.6413 122.888C60.4567 122.916 60.2763 122.941 60.1001 122.964C59.9268 122.983 59.7862 123 59.6783 123.014C59.4169 123.048 59.1726 123.103 58.9453 123.178C58.7209 123.251 58.5391 123.362 58.3999 123.511C58.2635 123.657 58.1953 123.856 58.1953 124.109C58.1953 124.455 58.3246 124.716 58.5831 124.893C58.8445 125.067 59.1754 125.154 59.576 125.154Z" fill="#323233"/>
<path d="M141.559 122.534H140.617C140.562 122.264 140.464 122.026 140.325 121.821C140.189 121.616 140.022 121.444 139.824 121.305C139.629 121.163 139.413 121.057 139.175 120.986C138.937 120.915 138.689 120.88 138.431 120.88C137.961 120.88 137.534 120.998 137.152 121.236C136.773 121.474 136.47 121.825 136.245 122.288C136.022 122.751 135.911 123.319 135.911 123.992C135.911 124.665 136.022 125.233 136.245 125.696C136.47 126.159 136.773 126.51 137.152 126.747C137.534 126.985 137.961 127.104 138.431 127.104C138.689 127.104 138.937 127.069 139.175 126.998C139.413 126.927 139.629 126.822 139.824 126.683C140.022 126.541 140.189 126.368 140.325 126.163C140.464 125.955 140.562 125.718 140.617 125.449H141.559C141.488 125.847 141.359 126.202 141.172 126.516C140.984 126.83 140.752 127.097 140.473 127.317C140.195 127.534 139.882 127.7 139.536 127.814C139.192 127.928 138.823 127.985 138.431 127.985C137.768 127.985 137.179 127.823 136.662 127.499C136.146 127.175 135.74 126.715 135.444 126.117C135.148 125.52 135 124.812 135 123.992C135 123.172 135.148 122.464 135.444 121.866C135.74 121.269 136.146 120.809 136.662 120.485C137.179 120.161 137.768 119.999 138.431 119.999C138.823 119.999 139.192 120.056 139.536 120.17C139.882 120.284 140.195 120.451 140.473 120.671C140.752 120.888 140.984 121.154 141.172 121.468C141.359 121.779 141.488 122.135 141.559 122.534Z" fill="#323233"/>
<path d="M145.327 128C144.8 128 144.339 127.875 143.941 127.624C143.547 127.374 143.238 127.023 143.015 126.573C142.795 126.122 142.685 125.596 142.685 124.994C142.685 124.387 142.795 123.857 143.015 123.404C143.238 122.951 143.547 122.599 143.941 122.348C144.339 122.098 144.8 121.973 145.327 121.973C145.853 121.973 146.314 122.098 146.708 122.348C147.106 122.599 147.414 122.951 147.634 123.404C147.857 123.857 147.968 124.387 147.968 124.994C147.968 125.596 147.857 126.122 147.634 126.573C147.414 127.023 147.106 127.374 146.708 127.624C146.314 127.875 145.853 128 145.327 128ZM145.327 127.195C145.727 127.195 146.055 127.093 146.314 126.888C146.572 126.683 146.763 126.413 146.887 126.079C147.011 125.745 147.073 125.384 147.073 124.994C147.073 124.604 147.011 124.241 146.887 123.905C146.763 123.568 146.572 123.296 146.314 123.089C146.055 122.881 145.727 122.777 145.327 122.777C144.927 122.777 144.598 122.881 144.34 123.089C144.082 123.296 143.891 123.568 143.767 123.905C143.643 124.241 143.581 124.604 143.581 124.994C143.581 125.384 143.643 125.745 143.767 126.079C143.891 126.413 144.082 126.683 144.34 126.888C144.598 127.093 144.927 127.195 145.327 127.195Z" fill="#323233"/>
<path d="M149.336 127.879V122.049H150.201V122.929H150.262C150.368 122.641 150.56 122.407 150.839 122.227C151.117 122.047 151.431 121.957 151.78 121.957C151.846 121.957 151.928 121.959 152.027 121.961C152.126 121.964 152.2 121.968 152.251 121.973V122.884C152.22 122.876 152.151 122.865 152.042 122.849C151.936 122.832 151.823 122.823 151.704 122.823C151.421 122.823 151.168 122.882 150.945 123.001C150.725 123.118 150.55 123.28 150.421 123.487C150.295 123.692 150.232 123.926 150.232 124.189V127.879H149.336Z" fill="#323233"/>
<path d="M155.579 128C155.018 128 154.533 127.876 154.126 127.628C153.721 127.378 153.408 127.028 153.188 126.58C152.971 126.13 152.862 125.606 152.862 125.009C152.862 124.412 152.971 123.886 153.188 123.43C153.408 122.972 153.715 122.615 154.107 122.36C154.502 122.102 154.962 121.973 155.488 121.973C155.792 121.973 156.092 122.023 156.388 122.124C156.684 122.226 156.953 122.39 157.196 122.618C157.439 122.843 157.633 123.142 157.777 123.514C157.921 123.886 157.993 124.344 157.993 124.888V125.267H153.499V124.493H157.082C157.082 124.164 157.017 123.87 156.885 123.612C156.756 123.354 156.571 123.151 156.331 123.001C156.093 122.852 155.812 122.777 155.488 122.777C155.132 122.777 154.823 122.866 154.562 123.043C154.304 123.218 154.106 123.445 153.966 123.726C153.827 124.007 153.758 124.308 153.758 124.63V125.146C153.758 125.586 153.834 125.959 153.985 126.265C154.14 126.569 154.353 126.801 154.627 126.96C154.9 127.117 155.218 127.195 155.579 127.195C155.815 127.195 156.027 127.162 156.217 127.097C156.409 127.028 156.575 126.927 156.714 126.793C156.853 126.656 156.961 126.487 157.037 126.284L157.902 126.527C157.811 126.821 157.658 127.079 157.443 127.302C157.228 127.522 156.962 127.694 156.646 127.818C156.33 127.939 155.974 128 155.579 128Z" fill="#323233"/>
<path d="M160.252 120.105V127.879H159.356V120.105H160.252Z" fill="#323233"/>
<path d="M164.413 127.879H162.014V120.105H164.519C165.273 120.105 165.918 120.261 166.455 120.572C166.991 120.881 167.402 121.325 167.688 121.904C167.974 122.481 168.117 123.172 168.117 123.977C168.117 124.786 167.973 125.484 167.684 126.068C167.396 126.65 166.976 127.098 166.424 127.412C165.873 127.723 165.202 127.879 164.413 127.879ZM162.955 127.044H164.352C164.995 127.044 165.527 126.92 165.95 126.672C166.372 126.424 166.687 126.071 166.895 125.613C167.102 125.155 167.206 124.609 167.206 123.977C167.206 123.349 167.104 122.809 166.899 122.356C166.694 121.901 166.388 121.551 165.98 121.308C165.573 121.063 165.065 120.94 164.458 120.94H162.955V127.044Z" fill="#323233"/>
<path d="M169.696 127.879V120.105H172.323C172.93 120.105 173.428 120.209 173.818 120.416C174.208 120.621 174.496 120.904 174.683 121.263C174.871 121.622 174.964 122.031 174.964 122.489C174.964 122.947 174.871 123.353 174.683 123.707C174.496 124.061 174.209 124.34 173.822 124.542C173.435 124.742 172.94 124.842 172.338 124.842H170.212V123.992H172.307C172.722 123.992 173.056 123.931 173.309 123.81C173.565 123.688 173.75 123.516 173.864 123.294C173.98 123.068 174.038 122.8 174.038 122.489C174.038 122.178 173.98 121.906 173.864 121.673C173.747 121.44 173.561 121.26 173.306 121.134C173.05 121.005 172.712 120.94 172.292 120.94H170.637V127.879H169.696ZM173.355 124.387L175.268 127.879H174.175L172.292 124.387H173.355Z" fill="#323233"/>
<path d="M176.852 127.879H175.865L178.719 120.105H179.691L182.545 127.879H181.558L179.235 121.335H179.174L176.852 127.879ZM177.216 124.842H181.194V125.677H177.216V124.842Z" fill="#323233"/>
<path d="M184.562 127.879L182.437 120.105H183.393L185.018 126.436H185.094L186.748 120.105H187.811L189.466 126.436H189.542L191.166 120.105H192.123L189.997 127.879H189.026L187.31 121.684H187.249L185.534 127.879H184.562Z" fill="#323233"/>
<path d="M141.559 122.534H140.617C140.562 122.264 140.464 122.026 140.325 121.821C140.189 121.616 140.022 121.444 139.824 121.305C139.629 121.163 139.413 121.057 139.175 120.986C138.937 120.915 138.689 120.88 138.431 120.88C137.961 120.88 137.534 120.998 137.152 121.236C136.773 121.474 136.47 121.825 136.245 122.288C136.022 122.751 135.911 123.319 135.911 123.992C135.911 124.665 136.022 125.233 136.245 125.696C136.47 126.159 136.773 126.51 137.152 126.747C137.534 126.985 137.961 127.104 138.431 127.104C138.689 127.104 138.937 127.069 139.175 126.998C139.413 126.927 139.629 126.822 139.824 126.683C140.022 126.541 140.189 126.368 140.325 126.163C140.464 125.955 140.562 125.718 140.617 125.449H141.559C141.488 125.847 141.359 126.202 141.172 126.516C140.984 126.83 140.752 127.097 140.473 127.317C140.195 127.534 139.882 127.7 139.536 127.814C139.192 127.928 138.823 127.985 138.431 127.985C137.768 127.985 137.179 127.823 136.662 127.499C136.146 127.175 135.74 126.715 135.444 126.117C135.148 125.52 135 124.812 135 123.992C135 123.172 135.148 122.464 135.444 121.866C135.74 121.269 136.146 120.809 136.662 120.485C137.179 120.161 137.768 119.999 138.431 119.999C138.823 119.999 139.192 120.056 139.536 120.17C139.882 120.284 140.195 120.451 140.473 120.671C140.752 120.888 140.984 121.154 141.172 121.468C141.359 121.779 141.488 122.135 141.559 122.534Z" fill="#323233"/>
<path d="M145.327 128C144.8 128 144.339 127.875 143.941 127.624C143.547 127.374 143.238 127.023 143.015 126.573C142.795 126.122 142.685 125.596 142.685 124.994C142.685 124.387 142.795 123.857 143.015 123.404C143.238 122.951 143.547 122.599 143.941 122.348C144.339 122.098 144.8 121.973 145.327 121.973C145.853 121.973 146.314 122.098 146.708 122.348C147.106 122.599 147.414 122.951 147.634 123.404C147.857 123.857 147.968 124.387 147.968 124.994C147.968 125.596 147.857 126.122 147.634 126.573C147.414 127.023 147.106 127.374 146.708 127.624C146.314 127.875 145.853 128 145.327 128ZM145.327 127.195C145.727 127.195 146.055 127.093 146.314 126.888C146.572 126.683 146.763 126.413 146.887 126.079C147.011 125.745 147.073 125.384 147.073 124.994C147.073 124.604 147.011 124.241 146.887 123.905C146.763 123.568 146.572 123.296 146.314 123.089C146.055 122.881 145.727 122.777 145.327 122.777C144.927 122.777 144.598 122.881 144.34 123.089C144.082 123.296 143.891 123.568 143.767 123.905C143.643 124.241 143.581 124.604 143.581 124.994C143.581 125.384 143.643 125.745 143.767 126.079C143.891 126.413 144.082 126.683 144.34 126.888C144.598 127.093 144.927 127.195 145.327 127.195Z" fill="#323233"/>
<path d="M149.336 127.879V122.049H150.201V122.929H150.262C150.368 122.641 150.56 122.407 150.839 122.227C151.117 122.047 151.431 121.957 151.78 121.957C151.846 121.957 151.928 121.959 152.027 121.961C152.126 121.964 152.2 121.968 152.251 121.973V122.884C152.22 122.876 152.151 122.865 152.042 122.849C151.936 122.832 151.823 122.823 151.704 122.823C151.421 122.823 151.168 122.882 150.945 123.001C150.725 123.118 150.55 123.28 150.421 123.487C150.295 123.692 150.232 123.926 150.232 124.189V127.879H149.336Z" fill="#323233"/>
<path d="M155.579 128C155.018 128 154.533 127.876 154.126 127.628C153.721 127.378 153.408 127.028 153.188 126.58C152.971 126.13 152.862 125.606 152.862 125.009C152.862 124.412 152.971 123.886 153.188 123.43C153.408 122.972 153.715 122.615 154.107 122.36C154.502 122.102 154.962 121.973 155.488 121.973C155.792 121.973 156.092 122.023 156.388 122.124C156.684 122.226 156.953 122.39 157.196 122.618C157.439 122.843 157.633 123.142 157.777 123.514C157.921 123.886 157.993 124.344 157.993 124.888V125.267H153.499V124.493H157.082C157.082 124.164 157.017 123.87 156.885 123.612C156.756 123.354 156.571 123.151 156.331 123.001C156.093 122.852 155.812 122.777 155.488 122.777C155.132 122.777 154.823 122.866 154.562 123.043C154.304 123.218 154.106 123.445 153.966 123.726C153.827 124.007 153.758 124.308 153.758 124.63V125.146C153.758 125.586 153.834 125.959 153.985 126.265C154.14 126.569 154.353 126.801 154.627 126.96C154.9 127.117 155.218 127.195 155.579 127.195C155.815 127.195 156.027 127.162 156.217 127.097C156.409 127.028 156.575 126.927 156.714 126.793C156.853 126.656 156.961 126.487 157.037 126.284L157.902 126.527C157.811 126.821 157.658 127.079 157.443 127.302C157.228 127.522 156.962 127.694 156.646 127.818C156.33 127.939 155.974 128 155.579 128Z" fill="#323233"/>
<path d="M160.252 120.105V127.879H159.356V120.105H160.252Z" fill="#323233"/>
<path d="M164.413 127.879H162.014V120.105H164.519C165.273 120.105 165.918 120.261 166.455 120.572C166.991 120.881 167.402 121.325 167.688 121.904C167.974 122.481 168.117 123.172 168.117 123.977C168.117 124.786 167.973 125.484 167.684 126.068C167.396 126.65 166.976 127.098 166.424 127.412C165.873 127.723 165.202 127.879 164.413 127.879ZM162.955 127.044H164.352C164.995 127.044 165.527 126.92 165.95 126.672C166.372 126.424 166.687 126.071 166.895 125.613C167.102 125.155 167.206 124.609 167.206 123.977C167.206 123.349 167.104 122.809 166.899 122.356C166.694 121.901 166.388 121.551 165.98 121.308C165.573 121.063 165.065 120.94 164.458 120.94H162.955V127.044Z" fill="#323233"/>
<path d="M169.696 127.879V120.105H172.323C172.93 120.105 173.428 120.209 173.818 120.416C174.208 120.621 174.496 120.904 174.683 121.263C174.871 121.622 174.964 122.031 174.964 122.489C174.964 122.947 174.871 123.353 174.683 123.707C174.496 124.061 174.209 124.34 173.822 124.542C173.435 124.742 172.94 124.842 172.338 124.842H170.212V123.992H172.307C172.722 123.992 173.056 123.931 173.309 123.81C173.565 123.688 173.75 123.516 173.864 123.294C173.98 123.068 174.038 122.8 174.038 122.489C174.038 122.178 173.98 121.906 173.864 121.673C173.747 121.44 173.561 121.26 173.306 121.134C173.05 121.005 172.712 120.94 172.292 120.94H170.637V127.879H169.696ZM173.355 124.387L175.268 127.879H174.175L172.292 124.387H173.355Z" fill="#323233"/>
<path d="M176.852 127.879H175.865L178.719 120.105H179.691L182.545 127.879H181.558L179.235 121.335H179.174L176.852 127.879ZM177.216 124.842H181.194V125.677H177.216V124.842Z" fill="#323233"/>
<path d="M184.562 127.879L182.437 120.105H183.393L185.018 126.436H185.094L186.748 120.105H187.811L189.466 126.436H189.542L191.166 120.105H192.123L189.997 127.879H189.026L187.31 121.684H187.249L185.534 127.879H184.562Z" fill="#323233"/>
<path d="M161.286 78C160.713 78.0282 159.429 78.4038 158.217 78.9753C157.006 79.5543 152.731 82.1833 152.648 88.6779C152.755 94.831 158.358 105.291 162.144 108.652C162.144 108.652 155.997 98.3314 155.554 89.334C155.106 80.3381 161.286 78 161.286 78ZM165.263 78C165.263 78 171.437 80.3381 170.994 89.334C170.55 98.3314 164.405 108.652 164.405 108.652C168.186 105.291 173.793 94.831 173.899 88.6779C173.815 82.1833 169.541 79.5543 168.33 78.9753C167.118 78.4038 165.834 78.0282 165.263 78ZM163.214 78.0282C162.925 78.0254 162.641 78.0991 162.39 78.242C160.118 79.4696 158.7 83.9112 159.098 90.8556C159.372 95.6683 160.596 101.679 162.693 108.652H163.732C165.83 101.679 167.057 95.6742 167.332 90.8615C167.73 83.9186 166.311 79.4696 164.038 78.242C163.787 78.0991 163.503 78.0254 163.214 78.0282ZM155.891 79.5825C155.891 79.5825 149.25 82.3184 150.568 90.2099C151.88 98.1073 158.863 106.532 160.938 108.321C161.685 108.999 152.363 98.6001 151.459 89.4691C151.027 86.0206 152.038 82.1951 155.891 79.5825ZM170.686 79.5825C174.538 82.1951 175.549 86.0206 175.117 89.4691C174.214 98.6001 164.892 108.999 165.637 108.321C167.712 106.532 174.697 98.1073 176.009 90.2099C177.327 82.3184 170.686 79.5825 170.686 79.5825ZM160.569 110.43L161.28 113.628H165.138L165.862 110.43H160.569Z" fill="#0FB15C"/>
<path d="M52.1418 45.8152L49 10.5766H83.5227L80.3777 45.8098L66.2402 49.7289L52.1418 45.8152Z" fill="#EF8367"/>
<path d="M66.2614 46.7332L77.6848 43.566L80.3727 13.4582H66.2614V46.7332Z" fill="#FF996E"/>
<path d="M66.2613 26.5277H60.5422L60.1476 22.1016H66.2613V17.7797H55.4242L55.5273 18.9395L56.5898 30.8492H66.2613V26.5277ZM66.2613 37.7516L66.2422 37.7566L61.4293 36.4566L61.1215 33.0102H56.7828L57.3883 39.7961L66.2414 42.2539L66.2613 42.2481V37.7516Z" fill="#EBEBEB"/>
<path d="M52.2122 1H54.4083V3.17031H56.4176V1H58.6141V7.57109H56.4176V5.3707H54.4086V7.57109H52.2122V1ZM61.502 3.1793H59.5684V1H65.6329V3.1793H63.6985V7.57109H61.502V3.1793ZM66.5954 1H68.8852L70.2942 3.30898L71.7016 1H73.9926V7.57109H71.8047V4.31406L70.2942 6.65039H70.2559L68.7442 4.31406V7.57109H66.595L66.5954 1ZM75.086 1H77.2829V5.39922H80.3715V7.57148H75.086V1Z" fill="#323233"/>
<path d="M66.2465 26.5277V30.8492H71.5683L71.0668 36.4543L66.2465 37.7555V42.2516L75.1066 39.7961L75.1715 39.0656L76.1871 27.6879L76.2926 26.5277H75.1277H66.2465ZM66.2465 17.7797V22.1016H76.6859L76.7722 21.1301L76.9695 18.9395L77.073 17.7797H66.2465Z" fill="white"/>
<path d="M27.2336 1.81602H24.3492L27.3488 5.07109V6.6207H21.1707V4.80625H24.1699L21.1707 1.55117V0H27.2336V1.81602ZM19.9457 1.81602H17.0613L20.0609 5.07109V6.6207H13.8824V4.80625H16.882L13.8824 1.55117V0H19.9457V1.81602ZM12.7293 1.89023H9.6168V4.73047H12.7293V6.6207H7.4043V0H12.7293V1.89023Z" fill="#323233"/>
<path d="M3.16289 45.1168L0 9.64297H34.7527L31.5871 45.1109L17.3551 49.057L3.16289 45.1168Z" fill="#499FDE"/>
<path d="M17.377 46.041L28.8766 42.8527L31.582 12.5437H17.377V46.041Z" fill="#33A9DC"/>
<path d="M17.3766 25.3957H23.1336L23.5317 20.9406H17.3766V16.5898H28.2864L28.1821 17.757L27.1129 29.7461H17.3766V25.3957Z" fill="white"/>
<path d="M17.4027 36.6949L17.3836 36.7004L12.5383 35.3918L12.2281 31.9219H7.86133L8.47109 38.7531L17.3828 41.227L17.4031 41.2211L17.4027 36.6949Z" fill="#EBEBEB"/>
<path d="M22.7641 29.5621L22.2399 35.3887L17.3876 36.6985V41.225L26.3067 38.7531L26.3723 38.018L27.1294 29.5621H22.7641Z" fill="white"/>
<path d="M17.3919 16.5898V20.9402H6.88289L6.79539 19.9625L6.59734 17.757L6.49304 16.5898H17.3919ZM17.3766 25.3961V29.7469H12.5927L12.5055 28.7691L12.3071 26.5633L12.2028 25.3961H17.3766Z" fill="#EBEBEB"/>
<path d="M171.057 47V38.2727H174.108C174.716 38.2727 175.217 38.3778 175.612 38.5881C176.007 38.7955 176.301 39.0753 176.494 39.4276C176.688 39.777 176.784 40.1648 176.784 40.5909C176.784 40.9659 176.717 41.2756 176.584 41.5199C176.453 41.7642 176.28 41.9574 176.064 42.0994C175.851 42.2415 175.619 42.3466 175.369 42.4148V42.5C175.636 42.517 175.905 42.6108 176.175 42.7812C176.445 42.9517 176.67 43.196 176.852 43.5142C177.034 43.8324 177.125 44.2216 177.125 44.6818C177.125 45.1193 177.026 45.5128 176.827 45.8622C176.628 46.2116 176.314 46.4886 175.885 46.6932C175.456 46.8977 174.898 47 174.21 47H171.057ZM172.114 46.0625H174.21C174.901 46.0625 175.391 45.929 175.68 45.6619C175.973 45.392 176.119 45.0653 176.119 44.6818C176.119 44.3864 176.044 44.1136 175.893 43.8636C175.743 43.6108 175.528 43.4091 175.25 43.2585C174.972 43.1051 174.642 43.0284 174.261 43.0284H172.114V46.0625ZM172.114 42.108H174.074C174.392 42.108 174.679 42.0455 174.935 41.9205C175.193 41.7955 175.398 41.6193 175.548 41.392C175.702 41.1648 175.778 40.8977 175.778 40.5909C175.778 40.2074 175.645 39.8821 175.378 39.6151C175.111 39.3452 174.688 39.2102 174.108 39.2102H172.114V42.108ZM181.384 47.1364C180.793 47.1364 180.275 46.9957 179.829 46.7145C179.386 46.4332 179.039 46.0398 178.789 45.5341C178.542 45.0284 178.418 44.4375 178.418 43.7614C178.418 43.0795 178.542 42.4844 178.789 41.9759C179.039 41.4673 179.386 41.0724 179.829 40.7912C180.275 40.5099 180.793 40.3693 181.384 40.3693C181.975 40.3693 182.492 40.5099 182.935 40.7912C183.381 41.0724 183.728 41.4673 183.975 41.9759C184.225 42.4844 184.35 43.0795 184.35 43.7614C184.35 44.4375 184.225 45.0284 183.975 45.5341C183.728 46.0398 183.381 46.4332 182.935 46.7145C182.492 46.9957 181.975 47.1364 181.384 47.1364ZM181.384 46.233C181.833 46.233 182.202 46.1179 182.492 45.8878C182.782 45.6577 182.996 45.3551 183.136 44.9801C183.275 44.6051 183.344 44.1989 183.344 43.7614C183.344 43.3239 183.275 42.9162 183.136 42.5384C182.996 42.1605 182.782 41.8551 182.492 41.6222C182.202 41.3892 181.833 41.2727 181.384 41.2727C180.935 41.2727 180.566 41.3892 180.276 41.6222C179.987 41.8551 179.772 42.1605 179.633 42.5384C179.494 42.9162 179.424 43.3239 179.424 43.7614C179.424 44.1989 179.494 44.6051 179.633 44.9801C179.772 45.3551 179.987 45.6577 180.276 45.8878C180.566 46.1179 180.935 46.233 181.384 46.233ZM188.544 47.1364C187.953 47.1364 187.435 46.9957 186.989 46.7145C186.546 46.4332 186.199 46.0398 185.949 45.5341C185.702 45.0284 185.578 44.4375 185.578 43.7614C185.578 43.0795 185.702 42.4844 185.949 41.9759C186.199 41.4673 186.546 41.0724 186.989 40.7912C187.435 40.5099 187.953 40.3693 188.544 40.3693C189.135 40.3693 189.652 40.5099 190.096 40.7912C190.542 41.0724 190.888 41.4673 191.135 41.9759C191.385 42.4844 191.51 43.0795 191.51 43.7614C191.51 44.4375 191.385 45.0284 191.135 45.5341C190.888 46.0398 190.542 46.4332 190.096 46.7145C189.652 46.9957 189.135 47.1364 188.544 47.1364ZM188.544 46.233C188.993 46.233 189.363 46.1179 189.652 45.8878C189.942 45.6577 190.157 45.3551 190.296 44.9801C190.435 44.6051 190.505 44.1989 190.505 43.7614C190.505 43.3239 190.435 42.9162 190.296 42.5384C190.157 42.1605 189.942 41.8551 189.652 41.6222C189.363 41.3892 188.993 41.2727 188.544 41.2727C188.096 41.2727 187.726 41.3892 187.436 41.6222C187.147 41.8551 186.932 42.1605 186.793 42.5384C186.654 42.9162 186.584 43.3239 186.584 43.7614C186.584 44.1989 186.654 44.6051 186.793 44.9801C186.932 45.3551 187.147 45.6577 187.436 45.8878C187.726 46.1179 188.096 46.233 188.544 46.233ZM195.892 40.4545V41.3068H192.5V40.4545H195.892ZM193.489 38.8864H194.494V45.125C194.494 45.4091 194.536 45.6222 194.618 45.7642C194.703 45.9034 194.811 45.9972 194.942 46.0455C195.075 46.0909 195.216 46.1136 195.364 46.1136C195.474 46.1136 195.565 46.108 195.636 46.0966C195.707 46.0824 195.764 46.071 195.807 46.0625L196.011 46.9659C195.943 46.9915 195.848 47.017 195.726 47.0426C195.604 47.071 195.449 47.0852 195.261 47.0852C194.977 47.0852 194.699 47.0241 194.426 46.902C194.156 46.7798 193.932 46.5938 193.753 46.3438C193.577 46.0938 193.489 45.7784 193.489 45.3977V38.8864ZM201.924 41.9205L201.021 42.1761C200.964 42.0256 200.88 41.8793 200.769 41.7372C200.661 41.5923 200.513 41.473 200.326 41.3793C200.138 41.2855 199.898 41.2386 199.606 41.2386C199.205 41.2386 198.871 41.331 198.604 41.5156C198.34 41.6974 198.208 41.929 198.208 42.2102C198.208 42.4602 198.299 42.6577 198.481 42.8026C198.663 42.9474 198.947 43.0682 199.333 43.1648L200.305 43.4034C200.89 43.5455 201.326 43.7628 201.613 44.0554C201.9 44.3452 202.043 44.7187 202.043 45.1761C202.043 45.5511 201.935 45.8864 201.719 46.1818C201.506 46.4773 201.208 46.7102 200.825 46.8807C200.441 47.0511 199.995 47.1364 199.487 47.1364C198.819 47.1364 198.266 46.9915 197.829 46.7017C197.391 46.4119 197.114 45.9886 196.998 45.4318L197.952 45.1932C198.043 45.5455 198.215 45.8097 198.468 45.9858C198.724 46.1619 199.058 46.25 199.469 46.25C199.938 46.25 200.31 46.1506 200.586 45.9517C200.864 45.75 201.004 45.5085 201.004 45.2273C201.004 45 200.924 44.8097 200.765 44.6562C200.606 44.5 200.362 44.3835 200.032 44.3068L198.941 44.0511C198.342 43.9091 197.901 43.6889 197.62 43.3906C197.342 43.0895 197.202 42.7131 197.202 42.2614C197.202 41.892 197.306 41.5653 197.513 41.2812C197.724 40.9972 198.009 40.7741 198.37 40.6122C198.734 40.4503 199.146 40.3693 199.606 40.3693C200.254 40.3693 200.762 40.5114 201.131 40.7955C201.504 41.0795 201.768 41.4545 201.924 41.9205ZM206.404 40.4545V41.3068H203.012V40.4545H206.404ZM204 38.8864H205.006V45.125C205.006 45.4091 205.047 45.6222 205.13 45.7642C205.215 45.9034 205.323 45.9972 205.453 46.0455C205.587 46.0909 205.728 46.1136 205.875 46.1136C205.986 46.1136 206.077 46.108 206.148 46.0966C206.219 46.0824 206.276 46.071 206.319 46.0625L206.523 46.9659C206.455 46.9915 206.36 47.017 206.238 47.0426C206.115 47.071 205.961 47.0852 205.773 47.0852C205.489 47.0852 205.211 47.0241 204.938 46.902C204.668 46.7798 204.444 46.5938 204.265 46.3438C204.088 46.0938 204 45.7784 204 45.3977V38.8864ZM207.917 47V40.4545H208.888V41.4432H208.956C209.076 41.1193 209.292 40.8565 209.604 40.6548C209.917 40.4531 210.269 40.3523 210.661 40.3523C210.735 40.3523 210.827 40.3537 210.938 40.3565C211.049 40.3594 211.132 40.3636 211.189 40.3693V41.392C211.155 41.3835 211.077 41.3707 210.955 41.3537C210.836 41.3338 210.709 41.3239 210.576 41.3239C210.257 41.3239 209.973 41.3906 209.723 41.5241C209.476 41.6548 209.28 41.8366 209.135 42.0696C208.993 42.2997 208.922 42.5625 208.922 42.858V47H207.917ZM214.308 47.1534C213.893 47.1534 213.516 47.0753 213.178 46.919C212.84 46.7599 212.572 46.5312 212.373 46.233C212.174 45.9318 212.075 45.5682 212.075 45.142C212.075 44.767 212.148 44.4631 212.296 44.2301C212.444 43.9943 212.641 43.8097 212.888 43.6761C213.136 43.5426 213.408 43.4432 213.707 43.3778C214.008 43.3097 214.31 43.2557 214.614 43.2159C215.012 43.1648 215.335 43.1264 215.582 43.1009C215.832 43.0724 216.013 43.0256 216.127 42.9602C216.244 42.8949 216.302 42.7812 216.302 42.6193V42.5852C216.302 42.1648 216.187 41.8381 215.957 41.6051C215.729 41.3722 215.384 41.2557 214.921 41.2557C214.441 41.2557 214.065 41.3608 213.792 41.571C213.519 41.7812 213.327 42.0057 213.217 42.2443L212.262 41.9034C212.433 41.5057 212.66 41.196 212.944 40.9744C213.231 40.75 213.543 40.5937 213.881 40.5057C214.222 40.4148 214.558 40.3693 214.887 40.3693C215.097 40.3693 215.339 40.3949 215.612 40.446C215.887 40.4943 216.153 40.5952 216.408 40.7486C216.667 40.902 216.881 41.1335 217.052 41.4432C217.222 41.7528 217.308 42.1676 217.308 42.6875V47H216.302V46.1136H216.251C216.183 46.2557 216.069 46.4077 215.91 46.5696C215.751 46.7315 215.539 46.8693 215.275 46.983C215.011 47.0966 214.688 47.1534 214.308 47.1534ZM214.461 46.25C214.859 46.25 215.194 46.1719 215.467 46.0156C215.742 45.8594 215.95 45.6577 216.089 45.4105C216.231 45.1634 216.302 44.9034 216.302 44.6307V43.7102C216.259 43.7614 216.165 43.8082 216.021 43.8509C215.879 43.8906 215.714 43.9261 215.526 43.9574C215.342 43.9858 215.161 44.0114 214.985 44.0341C214.812 44.054 214.671 44.071 214.563 44.0852C214.302 44.1193 214.058 44.1747 213.83 44.2514C213.606 44.3253 213.424 44.4375 213.285 44.5881C213.148 44.7358 213.08 44.9375 213.08 45.1932C213.08 45.5426 213.21 45.8068 213.468 45.9858C213.729 46.1619 214.06 46.25 214.461 46.25ZM219.143 49.4545V40.4545H220.115V41.4943H220.234C220.308 41.3807 220.41 41.2358 220.541 41.0597C220.674 40.8807 220.865 40.7216 221.112 40.5824C221.362 40.4403 221.7 40.3693 222.126 40.3693C222.677 40.3693 223.163 40.5071 223.583 40.7827C224.004 41.0582 224.332 41.4489 224.568 41.9545C224.804 42.4602 224.922 43.0568 224.922 43.7443C224.922 44.4375 224.804 45.0384 224.568 45.5469C224.332 46.0526 224.005 46.4446 223.588 46.723C223.17 46.9986 222.689 47.1364 222.143 47.1364C221.723 47.1364 221.386 47.0668 221.133 46.9276C220.88 46.7855 220.686 46.625 220.549 46.446C220.413 46.2642 220.308 46.1136 220.234 45.9943H220.149V49.4545H219.143ZM220.132 43.7273C220.132 44.2216 220.204 44.6577 220.349 45.0355C220.494 45.4105 220.706 45.7045 220.984 45.9176C221.262 46.1278 221.603 46.233 222.007 46.233C222.427 46.233 222.778 46.1222 223.059 45.9006C223.343 45.6761 223.556 45.375 223.699 44.9972C223.843 44.6165 223.916 44.1932 223.916 43.7273C223.916 43.267 223.845 42.8523 223.703 42.483C223.564 42.1108 223.352 41.8168 223.068 41.6009C222.787 41.3821 222.433 41.2727 222.007 41.2727C221.598 41.2727 221.254 41.3764 220.975 41.5838C220.697 41.7884 220.487 42.0753 220.345 42.4446C220.203 42.8111 220.132 43.2386 220.132 43.7273Z" fill="#323233"/>
<path d="M180.075 4.44344C179.988 2.13166 181.93 0 184.554 0H211.449C214.074 0 216.016 2.13166 215.929 4.44344C215.846 6.66397 215.954 9.54056 216.734 11.8859C217.517 14.2388 218.838 15.7256 221 15.9169V18.0835C218.838 18.2745 217.517 19.7616 216.734 22.1144C215.954 24.4598 215.846 27.3364 215.929 29.5569C216.016 31.8687 214.074 34 211.449 34H184.554C181.93 34 179.988 31.8683 180.075 29.5569C180.158 27.3364 180.05 24.4598 179.269 22.1144C178.486 19.7619 177.162 18.2748 175 18.0835V15.9169C177.162 15.7259 178.486 14.2388 179.269 11.8859C180.05 9.54056 180.158 6.66397 180.075 4.44344Z" fill="url(#paint0_linear_590_4)"/>
<g filter="url(#filter0_d_590_4)">
<path d="M199.751 28.2881C204.391 28.2881 207.187 26.0163 207.187 22.2692C207.187 19.4367 205.192 17.3861 202.23 17.0614V16.9432C204.406 16.5894 206.114 14.5683 206.114 12.3108C206.114 9.09495 203.575 7 199.706 7H191V28.2881H199.751ZM194.386 9.69995H198.89C201.338 9.69995 202.729 10.7914 202.729 12.7685C202.729 14.8778 201.111 16.0583 198.179 16.0583H194.386V9.69995ZM194.386 25.5886V18.5809H198.859C202.063 18.5809 203.726 19.761 203.726 22.0624C203.726 24.3638 202.109 25.5886 199.056 25.5886H194.386Z" fill="url(#paint1_linear_590_4)"/>
<path d="M199.751 28.2881C204.391 28.2881 207.187 26.0163 207.187 22.2692C207.187 19.4367 205.192 17.3861 202.23 17.0614V16.9432C204.406 16.5894 206.114 14.5683 206.114 12.3108C206.114 9.09495 203.575 7 199.706 7H191V28.2881H199.751ZM194.386 9.69995H198.89C201.338 9.69995 202.729 10.7914 202.729 12.7685C202.729 14.8778 201.111 16.0583 198.179 16.0583H194.386V9.69995ZM194.386 25.5886V18.5809H198.859C202.063 18.5809 203.726 19.761 203.726 22.0624C203.726 24.3638 202.109 25.5886 199.056 25.5886H194.386Z" fill="white"/>
</g>
<path d="M97.4914 37.1339H98.7074V44.3122C98.7074 44.9529 98.5897 45.4972 98.3543 45.945C98.119 46.3928 97.7872 46.7328 97.359 46.9649C96.9308 47.197 96.4257 47.313 95.8439 47.313C95.2947 47.313 94.806 47.2133 94.3778 47.0139C93.9496 46.8113 93.6129 46.5236 93.3677 46.151C93.1226 45.7783 93 45.3354 93 44.8222H94.1964C94.1964 45.1066 94.2667 45.355 94.4072 45.5675C94.5511 45.7767 94.7472 45.9401 94.9956 46.0578C95.2441 46.1755 95.5268 46.2343 95.8439 46.2343C96.1936 46.2343 96.4911 46.1608 96.7363 46.0137C96.9814 45.8666 97.1678 45.6508 97.2952 45.3664C97.426 45.0788 97.4914 44.7274 97.4914 44.3122V37.1339Z" fill="#323233"/>
<path d="M103.204 47.3522C102.726 47.3522 102.293 47.2624 101.904 47.0826C101.515 46.8995 101.206 46.6364 100.978 46.2931C100.749 45.9467 100.634 45.5282 100.634 45.0379C100.634 44.6064 100.719 44.2567 100.889 43.9886C101.059 43.7173 101.286 43.5048 101.571 43.3512C101.855 43.1976 102.169 43.0832 102.512 43.008C102.859 42.9295 103.207 42.8674 103.557 42.8217C104.014 42.7628 104.385 42.7187 104.67 42.6893C104.957 42.6566 105.167 42.6026 105.297 42.5275C105.431 42.4523 105.498 42.3215 105.498 42.1352V42.096C105.498 41.6122 105.366 41.2363 105.101 40.9682C104.84 40.7002 104.443 40.5662 103.91 40.5662C103.357 40.5662 102.924 40.6871 102.61 40.929C102.297 41.1709 102.076 41.4291 101.948 41.7037L100.85 41.3115C101.046 40.8538 101.308 40.4975 101.635 40.2425C101.965 39.9843 102.324 39.8045 102.713 39.7032C103.106 39.5986 103.491 39.5463 103.87 39.5463C104.112 39.5463 104.39 39.5757 104.704 39.6345C105.021 39.6901 105.327 39.8062 105.621 39.9827C105.918 40.1592 106.165 40.4256 106.361 40.7819C106.557 41.1382 106.656 41.6155 106.656 42.2136V47.1757H105.498V46.1559H105.44C105.361 46.3193 105.23 46.4942 105.047 46.6805C104.864 46.8668 104.621 47.0254 104.317 47.1561C104.013 47.2869 103.642 47.3522 103.204 47.3522ZM103.38 46.3128C103.838 46.3128 104.224 46.2229 104.537 46.0431C104.854 45.8633 105.093 45.6312 105.253 45.3468C105.417 45.0624 105.498 44.7633 105.498 44.4495V43.3904C105.449 43.4493 105.341 43.5032 105.175 43.5522C105.011 43.598 104.822 43.6389 104.606 43.6748C104.394 43.7075 104.186 43.7369 103.983 43.7631C103.784 43.786 103.622 43.8056 103.498 43.8219C103.197 43.8611 102.916 43.9249 102.654 44.0131C102.396 44.0981 102.187 44.2272 102.027 44.4005C101.87 44.5705 101.792 44.8026 101.792 45.0968C101.792 45.4988 101.94 45.8028 102.238 46.0088C102.538 46.2114 102.919 46.3128 103.38 46.3128Z" fill="#323233"/>
<path d="M114.656 39.6444L111.871 47.1757H110.695L107.91 39.6444H109.165L111.244 45.6459H111.322L113.401 39.6444H114.656Z" fill="#323233"/>
<path d="M118.171 47.3522C117.694 47.3522 117.26 47.2624 116.871 47.0826C116.482 46.8995 116.174 46.6364 115.945 46.2931C115.716 45.9467 115.601 45.5282 115.601 45.0379C115.601 44.6064 115.686 44.2567 115.856 43.9886C116.026 43.7173 116.254 43.5048 116.538 43.3512C116.822 43.1976 117.136 43.0832 117.479 43.008C117.826 42.9295 118.174 42.8674 118.524 42.8217C118.981 42.7628 119.352 42.7187 119.637 42.6893C119.925 42.6566 120.134 42.6026 120.264 42.5275C120.399 42.4523 120.466 42.3215 120.466 42.1352V42.096C120.466 41.6122 120.333 41.2363 120.068 40.9682C119.807 40.7002 119.41 40.5662 118.877 40.5662C118.324 40.5662 117.891 40.6871 117.578 40.929C117.264 41.1709 117.043 41.4291 116.916 41.7037L115.817 41.3115C116.013 40.8538 116.275 40.4975 116.602 40.2425C116.932 39.9843 117.291 39.8045 117.68 39.7032C118.073 39.5986 118.458 39.5463 118.838 39.5463C119.08 39.5463 119.357 39.5757 119.671 39.6345C119.988 39.6901 120.294 39.8062 120.588 39.9827C120.886 40.1592 121.132 40.4256 121.328 40.7819C121.525 41.1382 121.623 41.6155 121.623 42.2136V47.1757H120.466V46.1559H120.407C120.328 46.3193 120.197 46.4942 120.014 46.6805C119.831 46.8668 119.588 47.0254 119.284 47.1561C118.98 47.2869 118.609 47.3522 118.171 47.3522ZM118.347 46.3128C118.805 46.3128 119.191 46.2229 119.504 46.0431C119.822 45.8633 120.06 45.6312 120.22 45.3468C120.384 45.0624 120.466 44.7633 120.466 44.4495V43.3904C120.416 43.4493 120.309 43.5032 120.142 43.5522C119.978 43.598 119.789 43.6389 119.573 43.6748C119.361 43.7075 119.153 43.7369 118.95 43.7631C118.751 43.786 118.589 43.8056 118.465 43.8219C118.164 43.8611 117.883 43.9249 117.622 44.0131C117.363 44.0981 117.154 44.2272 116.994 44.4005C116.837 44.5705 116.759 44.8026 116.759 45.0968C116.759 45.4988 116.907 45.8028 117.205 46.0088C117.506 46.2114 117.886 46.3128 118.347 46.3128Z" fill="#323233"/>
<path d="M129.069 41.3311L128.03 41.6253C127.965 41.452 127.868 41.2837 127.741 41.1202C127.616 40.9535 127.447 40.8162 127.231 40.7084C127.015 40.6005 126.739 40.5465 126.402 40.5465C125.941 40.5465 125.557 40.6528 125.25 40.8653C124.946 41.0745 124.794 41.3409 124.794 41.6645C124.794 41.9521 124.898 42.1793 125.108 42.346C125.317 42.5127 125.644 42.6517 126.088 42.7628L127.206 43.0374C127.88 43.2008 128.381 43.4509 128.712 43.7876C129.042 44.121 129.207 44.5509 129.207 45.0771C129.207 45.5086 129.083 45.8944 128.834 46.2343C128.589 46.5743 128.246 46.8423 127.804 47.0384C127.363 47.2346 126.85 47.3326 126.265 47.3326C125.497 47.3326 124.861 47.1659 124.357 46.8325C123.854 46.4991 123.535 46.012 123.401 45.3713L124.5 45.0968C124.604 45.5021 124.802 45.8061 125.093 46.0088C125.387 46.2114 125.771 46.3128 126.245 46.3128C126.785 46.3128 127.213 46.1984 127.53 45.9695C127.85 45.7374 128.01 45.4596 128.01 45.136C128.01 44.8745 127.919 44.6555 127.736 44.479C127.553 44.2992 127.272 44.1651 126.892 44.0769L125.637 43.7827C124.947 43.6192 124.441 43.3659 124.117 43.0227C123.797 42.6762 123.637 42.2431 123.637 41.7233C123.637 41.2984 123.756 40.9225 123.995 40.5956C124.237 40.2687 124.565 40.0121 124.98 39.8258C125.399 39.6395 125.873 39.5463 126.402 39.5463C127.147 39.5463 127.733 39.7097 128.157 40.0366C128.586 40.3635 128.89 40.795 129.069 41.3311Z" fill="#323233"/>
<path d="M134.008 47.3326C133.302 47.3326 132.694 47.1659 132.184 46.8325C131.674 46.4991 131.282 46.0398 131.007 45.4547C130.733 44.8696 130.596 44.2011 130.596 43.4493C130.596 42.6844 130.736 42.0093 131.017 41.4242C131.302 40.8358 131.697 40.3766 132.204 40.0464C132.714 39.713 133.309 39.5463 133.989 39.5463C134.518 39.5463 134.995 39.6444 135.42 39.8405C135.845 40.0366 136.193 40.3112 136.465 40.6642C136.736 41.0173 136.904 41.4291 136.97 41.8998H135.813C135.724 41.5566 135.528 41.2526 135.224 40.9878C134.924 40.7198 134.518 40.5858 134.008 40.5858C133.557 40.5858 133.162 40.7035 132.822 40.9388C132.485 41.1709 132.222 41.4994 132.032 41.9244C131.846 42.346 131.753 42.8413 131.753 43.41C131.753 43.9919 131.844 44.4986 132.027 44.93C132.214 45.3615 132.475 45.6966 132.812 45.9352C133.152 46.1738 133.551 46.2931 134.008 46.2931C134.309 46.2931 134.582 46.2408 134.827 46.1362C135.072 46.0316 135.28 45.8813 135.45 45.6851C135.62 45.489 135.741 45.2537 135.813 44.9791H136.97C136.904 45.4236 136.743 45.8241 136.484 46.1804C136.229 46.5334 135.891 46.8145 135.469 47.0237C135.051 47.2297 134.564 47.3326 134.008 47.3326Z" fill="#323233"/>
<path d="M138.661 47.1757V39.6444H139.779V40.7819H139.858C139.995 40.4093 140.244 40.1069 140.603 39.8748C140.963 39.6427 141.368 39.5267 141.819 39.5267C141.904 39.5267 142.01 39.5283 142.138 39.5316C142.265 39.5348 142.362 39.5397 142.427 39.5463V40.7231C142.388 40.7133 142.298 40.6985 142.157 40.6789C142.02 40.6561 141.875 40.6446 141.721 40.6446C141.355 40.6446 141.028 40.7214 140.74 40.8751C140.456 41.0254 140.23 41.2346 140.064 41.5027C139.9 41.7675 139.819 42.0698 139.819 42.4098V47.1757H138.661Z" fill="#323233"/>
<path d="M143.799 47.1757V39.6444H144.956V47.1757H143.799ZM144.387 38.3891C144.162 38.3891 143.967 38.3123 143.804 38.1587C143.644 38.005 143.563 37.8203 143.563 37.6046C143.563 37.3889 143.644 37.2042 143.804 37.0505C143.967 36.8969 144.162 36.8201 144.387 36.8201C144.613 36.8201 144.806 36.8969 144.966 37.0505C145.129 37.2042 145.211 37.3889 145.211 37.6046C145.211 37.8203 145.129 38.005 144.966 38.1587C144.806 38.3123 144.613 38.3891 144.387 38.3891Z" fill="#323233"/>
<path d="M147.075 50V39.6444H148.193V40.8407H148.331C148.416 40.71 148.533 40.5433 148.684 40.3406C148.837 40.1347 149.056 39.9516 149.341 39.7915C149.628 39.628 150.017 39.5463 150.508 39.5463C151.142 39.5463 151.701 39.7048 152.185 40.0219C152.668 40.339 153.046 40.7884 153.317 41.3703C153.589 41.9521 153.724 42.6386 153.724 43.4297C153.724 44.2272 153.589 44.9186 153.317 45.5037C153.046 46.0856 152.67 46.5367 152.189 46.857C151.709 47.1741 151.155 47.3326 150.527 47.3326C150.044 47.3326 149.656 47.2525 149.365 47.0924C149.074 46.9289 148.85 46.7442 148.693 46.5383C148.537 46.3291 148.416 46.1559 148.331 46.0186H148.233V50H147.075ZM148.213 43.41C148.213 43.9788 148.296 44.4806 148.463 44.9153C148.63 45.3468 148.873 45.6851 149.194 45.9303C149.514 46.1722 149.906 46.2931 150.37 46.2931C150.854 46.2931 151.258 46.1657 151.581 45.9107C151.908 45.6525 152.154 45.306 152.317 44.8712C152.484 44.4332 152.567 43.9461 152.567 43.41C152.567 42.8805 152.485 42.4032 152.322 41.9783C152.162 41.5501 151.918 41.2118 151.591 40.9633C151.268 40.7116 150.861 40.5858 150.37 40.5858C149.9 40.5858 149.504 40.7051 149.184 40.9437C148.863 41.1791 148.622 41.5092 148.458 41.9342C148.295 42.3558 148.213 42.8478 148.213 43.41Z" fill="#323233"/>
<path d="M158.765 39.6444V40.625H154.862V39.6444H158.765ZM155.999 37.84H157.156V45.0183C157.156 45.3452 157.204 45.5904 157.299 45.7538C157.397 45.914 157.521 46.0218 157.671 46.0774C157.825 46.1297 157.987 46.1559 158.157 46.1559C158.284 46.1559 158.389 46.1493 158.471 46.1362C158.552 46.1199 158.618 46.1068 158.667 46.097L158.902 47.1365C158.824 47.1659 158.714 47.1953 158.574 47.2248C158.433 47.2575 158.255 47.2738 158.039 47.2738C157.712 47.2738 157.392 47.2035 157.078 47.063C156.767 46.9224 156.509 46.7083 156.303 46.4206C156.101 46.133 155.999 45.7701 155.999 45.3321V37.84Z" fill="#323233"/>
<path fill-rule="evenodd" clip-rule="evenodd" d="M147.661 0H107.389V34.5188H147.661V0Z" fill="#FCE10C"/>
<path opacity="0.6" d="M126 28.4289L128.206 27.0431C128.631 27.8263 129.018 28.4891 129.947 28.4891C130.837 28.4891 131.398 28.1277 131.398 26.7218V17.1608H134.107V26.7615C134.107 29.6739 132.462 30.9996 130.063 30.9996C127.896 30.9996 126.638 29.8347 126 28.4286M135.578 28.1276L137.783 26.802C138.364 27.7863 139.119 28.5093 140.453 28.5093C141.576 28.5093 142.291 27.9267 142.291 27.1233C142.291 26.1592 141.556 25.8177 140.318 25.2555L139.641 24.9539C137.687 24.0905 136.391 23.0058 136.391 20.716C136.391 18.6069 137.938 17 140.357 17C142.079 17 143.317 17.6228 144.207 19.2497L142.098 20.6558C141.633 19.7921 141.131 19.4507 140.357 19.4507C139.563 19.4507 139.06 19.973 139.06 20.6558C139.06 21.4994 139.563 21.841 140.724 22.3633L141.401 22.6645C143.704 23.689 145 24.7333 145 27.0832C145 29.6142 143.085 31 140.511 31C137.996 31 136.371 29.7547 135.578 28.1277" fill="black"/>
<path d="M41.75 110C44.924 110 47.5 107.163 47.5 103.667V97.3333H41.75C38.576 97.3333 36 100.171 36 103.667C36 107.163 38.576 110 41.75 110Z" fill="#0ACF83"/>
<path d="M36 91C36 87.504 38.576 84.6667 41.75 84.6667H47.5V97.3334H41.75C38.576 97.3334 36 94.496 36 91Z" fill="#A259FF"/>
<path d="M36 78.3333C36 74.8373 38.576 72 41.75 72H47.5V84.6667H41.75C38.576 84.6667 36 81.8293 36 78.3333Z" fill="#F24E1E"/>
<path d="M47.5 72H53.25C56.424 72 59 74.8373 59 78.3333C59 81.8293 56.424 84.6667 53.25 84.6667H47.5V72Z" fill="#FF7262"/>
<path d="M59 91C59 94.496 56.424 97.3334 53.25 97.3334C50.076 97.3334 47.5 94.496 47.5 91C47.5 87.504 50.076 84.6667 53.25 84.6667C56.424 84.6667 59 87.504 59 91Z" fill="#1ABCFE"/>
<path d="M88.9707 111.365C89.4646 111.292 89.966 111.334 90.4459 111.489C90.9257 111.645 91.3744 111.91 91.766 112.269C92.0183 112.724 92.1792 113.24 92.2366 113.778C92.2941 114.316 92.2465 114.863 92.0976 115.376C91.9666 116.641 91.4433 117.805 90.6271 118.649C89.6424 119.389 88.479 119.737 87.3111 119.639H85.0684L86.4461 111.381L88.9707 111.365ZM80 128H83.6844L84.5574 122.758H87.7084C88.8693 122.794 90.0279 122.619 91.1429 122.24C92.0579 121.884 92.8947 121.297 93.5938 120.521C94.7992 119.251 95.6124 117.552 95.9069 115.687C96.1379 114.759 96.1784 113.779 96.0254 112.829C95.8723 111.879 95.5299 110.984 95.0259 110.217C94.418 109.513 93.686 108.972 92.8808 108.633C92.0757 108.294 91.2168 108.164 90.3643 108.253H83.2951L80 128ZM98.6094 103H102.267L101.381 108.242H104.634C106.129 108.06 107.63 108.503 108.871 109.494C109.282 110.039 109.563 110.701 109.686 111.413C109.808 112.125 109.768 112.863 109.57 113.551L108.041 122.741H104.341L105.796 114.004C105.896 113.671 105.932 113.315 105.901 112.964C105.869 112.612 105.771 112.273 105.613 111.971C105.083 111.526 104.427 111.335 103.78 111.436H100.86L98.9778 122.751H95.3126L98.6094 103ZM117.707 111.365C118.201 111.292 118.703 111.334 119.182 111.489C119.662 111.645 120.111 111.91 120.503 112.269C120.755 112.724 120.916 113.24 120.973 113.778C121.031 114.316 120.983 114.863 120.834 115.376C120.703 116.641 120.18 117.805 119.364 118.649C118.377 119.391 117.211 119.738 116.041 119.639H113.8L115.175 111.372L117.707 111.365ZM108.737 128H112.421L113.294 122.758H116.447C117.61 122.795 118.771 122.62 119.888 122.24C120.803 121.884 121.639 121.297 122.338 120.521C123.541 119.25 124.351 117.551 124.644 115.687C124.874 114.759 124.915 113.779 124.762 112.829C124.609 111.879 124.267 110.984 123.763 110.217C123.154 109.514 122.422 108.975 121.618 108.636C120.813 108.298 119.954 108.169 119.103 108.259H112.022L108.737 128Z" fill="#8993BE"/>
<defs>
<filter id="filter0_d_590_4" x="187.07" y="4.053" width="24.0469" height="29.1481" filterUnits="userSpaceOnUse" color-interpolation-filters="sRGB">
<feFlood flood-opacity="0" result="BackgroundImageFix"/>
<feColorMatrix in="SourceAlpha" type="matrix" values="0 0 0 0 0 0 0 0 0 0 0 0 0 0 0 0 0 0 127 0" result="hardAlpha"/>
<feOffset dy="0.983"/>
<feGaussianBlur stdDeviation="1.965"/>
<feColorMatrix type="matrix" values="0 0 0 0 0 0 0 0 0 0 0 0 0 0 0 0 0 0 0.15 0"/>
<feBlend mode="normal" in2="BackgroundImageFix" result="effect1_dropShadow_590_4"/>
<feBlend mode="normal" in="SourceGraphic" in2="effect1_dropShadow_590_4" result="shape"/>
</filter>
<linearGradient id="paint0_linear_590_4" x1="181.836" y1="0.89995" x2="219.658" y2="33.2687" gradientUnits="userSpaceOnUse">
<stop stop-color="#9013FE"/>
<stop offset="1" stop-color="#6610F2"/>
</linearGradient>
<linearGradient id="paint1_linear_590_4" x1="192.532" y1="8.40089" x2="202.342" y2="24.9927" gradientUnits="userSpaceOnUse">
<stop stop-color="white"/>
<stop offset="1" stop-color="#F1E5FC"/>
</linearGradient>
</defs>
</svg>
