<svg width="26" height="26" viewBox="0 0 26 26" fill="none" xmlns="http://www.w3.org/2000/svg">
<g clip-path="url(#clip0_530_5)">
<path d="M21.125 1.02616e-07H4.875C4.23477 -0.000131267 3.60078 0.125875 3.00926 0.37082C2.41774 0.615765 1.88027 0.97485 1.42756 1.42756C0.97485 1.88027 0.615765 2.41774 0.37082 3.00926C0.125875 3.60078 -0.000131267 4.23477 1.02616e-07 4.875V21.125C-0.000131267 21.7652 0.125875 22.3992 0.37082 22.9907C0.615765 23.5823 0.97485 24.1197 1.42756 24.5724C1.88027 25.0252 2.41774 25.3842 3.00926 25.6292C3.60078 25.8741 4.23477 26.0001 4.875 26H21.125C21.7652 26.0001 22.3992 25.8741 22.9907 25.6292C23.5823 25.3842 24.1197 25.0252 24.5724 24.5724C25.0252 24.1197 25.3842 23.5823 25.6292 22.9907C25.8741 22.3992 26.0001 21.7652 26 21.125V4.875C26.0001 4.23477 25.8741 3.60078 25.6292 3.00926C25.3842 2.41774 25.0252 1.88027 24.5724 1.42756C24.1197 0.97485 23.5823 0.615765 22.9907 0.37082C22.3992 0.125875 21.7652 -0.000131267 21.125 1.02616e-07ZM17.66 13.857L11.431 18.806C11.282 18.8803 11.1167 18.9156 10.9503 18.9086C10.784 18.9016 10.6222 18.8526 10.48 18.766C10.3367 18.6826 10.2173 18.5637 10.1332 18.4208C10.0491 18.2779 10.0033 18.1158 10 17.95V8.051C10 7.717 10.19 7.407 10.479 7.234C10.6215 7.14759 10.7835 7.0987 10.95 7.09188C11.1165 7.08506 11.2819 7.12053 11.431 7.195L17.66 12.143C17.996 12.44 18.197 12.637 18.197 13C18.197 13.363 17.961 13.575 17.66 13.857Z" fill="#FF6F61"/>
</g>
<defs>
<clipPath id="clip0_530_5">
<rect width="26" height="26" fill="white"/>
</clipPath>
</defs>
</svg>
