<svg width="34" height="35" viewBox="0 0 34 35" fill="none" xmlns="http://www.w3.org/2000/svg">
<path d="M2.3068 3.45773C1.42931 3.45773 0.717963 2.73594 0.717963 1.84557C0.717963 0.95519 1.42931 0.233398 2.3068 0.233398C3.18428 0.233398 3.89563 0.95519 3.89563 1.84557C3.89563 2.73594 3.18428 3.45773 2.3068 3.45773Z" fill="#5A5A63"/>
<path d="M12.7054 21.3079C12.7054 21.3079 10.0499 24.9345 10.0499 26.3654C10.0499 27.7962 11.1948 28.9579 12.6049 28.9579C13.8084 28.9579 28.8562 28.9267 30.5177 28.9267C32.1791 28.9267 33.1201 29.9155 33.1201 29.9155" stroke="#5A5A63" stroke-width="1.53531" stroke-miterlimit="10" stroke-linecap="round"/>
<path d="M18.6418 20.9536C18.6418 20.9536 15.682 24.9344 15.682 26.3681C15.682 27.8018 16.9776 28.9521 18.3877 28.9521" stroke="#5A5A63" stroke-width="1.53531" stroke-miterlimit="10" stroke-linecap="round"/>
<path d="M11.9572 23.6735C12.5184 22.6988 12.9736 22.1322 13.7052 21.1178C13.7052 21.1178 13.5125 21.1603 12.9931 21.1603C12.4737 21.1603 12.0996 20.9932 12.0996 20.9932C11.3624 22.05 11.1418 22.3192 10.7481 23.0275C10.7481 23.0275 10.762 23.4893 11.125 23.733C11.488 23.9767 11.9572 23.6735 11.9572 23.6735ZM17.6004 23.7217C18.3795 22.5147 19.0022 21.5938 19.0022 21.5938L17.3268 21.6335C17.3268 21.6335 16.5757 22.6563 16.1456 23.4667C16.1456 23.4667 16.0814 23.835 16.5617 24.0277C17.042 24.2147 17.6004 23.7217 17.6004 23.7217Z" fill="#5A5A63"/>
<path d="M12.6998 21.3814L32.2294 20.0611C32.2936 20.0554 32.3411 20.0044 32.3411 19.9392V8.87506C32.3411 8.77022 32.2601 8.68239 32.1568 8.67672L7.40838 7.07872C7.16824 7.06172 6.99511 7.30539 7.08168 7.53206L12.3368 21.1491C12.3955 21.2992 12.5407 21.3927 12.6998 21.3814Z" stroke="#5A5A63" stroke-width="1.53531" stroke-miterlimit="10"/>
<path d="M28.4599 8.46692L28.9737 20.2083M24.0285 8.16092L25.6341 20.4604M19.5943 7.85492L22.2945 20.7126M15.1601 7.54892L18.9548 20.9648M10.7286 7.24292L15.6152 21.2169M32.7545 12.8359L8.86337 12.0029M32.5339 16.6978H10.3628" stroke="#5A5A63" stroke-width="0.92125" stroke-miterlimit="10"/>
<path d="M12.616 34.2334C11.4532 34.2334 10.5106 33.2769 10.5106 32.097C10.5106 30.9172 11.4532 29.9607 12.616 29.9607C13.7788 29.9607 14.7214 30.9172 14.7214 32.097C14.7214 33.2769 13.7788 34.2334 12.616 34.2334Z" fill="#5A5A63"/>
<path d="M13.9733 29.156H11.2563L11.9042 32.0148C11.9656 32.4597 12.2644 32.7827 12.6134 32.7827C12.9624 32.7827 13.264 32.4597 13.3227 32.0148L13.9733 29.156Z" fill="#5A5A63"/>
<path d="M12.1804 32.1169C12.2307 32.3039 12.3228 32.5164 12.5099 32.5646C13.1857 32.7402 13.2806 31.0544 12.94 30.7654C12.7333 30.5897 12.3033 30.5586 12.1218 30.7767C11.89 31.0544 12.0939 31.8081 12.1804 32.1169Z" fill="#5A5A63"/>
<path d="M12.5825 30.1676C13.0321 30.1676 13.3504 29.8984 13.5068 29.7313C13.5174 29.7202 13.5247 29.7062 13.5276 29.6911C13.5306 29.6759 13.5292 29.6602 13.5236 29.6459C13.518 29.6315 13.5084 29.6191 13.496 29.6101C13.4837 29.6011 13.469 29.596 13.4538 29.5953C13.1633 29.5811 12.8729 29.5839 12.5853 29.5754C12.2949 29.5839 12.0045 29.5811 11.7169 29.5953C11.6499 29.5981 11.6164 29.6831 11.6639 29.7313C11.8119 29.8984 12.133 30.1676 12.5825 30.1676Z" fill="#5A5A63"/>
<path d="M13.2778 32.8223C13.0963 33.0348 12.8059 33.1339 12.5294 33.0999C12.2558 33.0659 12.0045 32.9016 11.8397 32.6749C11.7448 32.5418 11.6778 32.3888 11.5689 32.2669C11.46 32.1451 11.2869 32.0601 11.1361 32.1224C10.9239 32.2074 10.8959 32.5078 10.9685 32.7259C11.0389 32.9439 11.1515 33.1454 11.2997 33.3186C11.4479 33.4918 11.6286 33.6332 11.8314 33.7346C12.1078 33.8734 12.4931 33.9301 12.8003 33.8989C13.3895 33.8366 14.0233 33.2954 14.23 32.7401C14.3417 32.4426 14.4394 31.8448 13.8558 31.9808C13.5849 32.0459 13.4956 32.5673 13.2778 32.8223Z" fill="#5A5A63"/>
<path d="M7.19629 7.8013L5.90903 4.60813C5.38407 3.30479 4.99594 3.01296 4.21688 2.65879L2.39349 1.90796" stroke="#5A5A63" stroke-width="1.53531" stroke-miterlimit="10" stroke-linecap="round"/>
<path d="M29.5962 34.2334C28.4335 34.2334 27.4908 33.2769 27.4908 32.097C27.4908 30.9172 28.4335 29.9607 29.5962 29.9607C30.759 29.9607 31.7017 30.9172 31.7017 32.097C31.7017 33.2769 30.759 34.2334 29.5962 34.2334Z" fill="#5A5A63"/>
<path d="M30.9562 29.156H28.2392L28.8871 32.0148C28.9485 32.4597 29.2473 32.7827 29.5963 32.7827C29.9454 32.7827 30.2469 32.4597 30.3056 32.0148L30.9562 29.156Z" fill="#5A5A63"/>
<path d="M29.1607 32.1169C29.2109 32.3039 29.3031 32.5164 29.4902 32.5646C30.1659 32.7402 30.2608 31.0544 29.9202 30.7654C29.7135 30.5897 29.2835 30.5586 29.102 30.7767C28.8703 31.0544 29.0769 31.8081 29.1607 32.1169Z" fill="#5A5A63"/>
<path d="M29.5626 30.1676C30.0122 30.1676 30.3305 29.8984 30.4869 29.7313C30.4975 29.7202 30.5048 29.7062 30.5077 29.6911C30.5107 29.6759 30.5093 29.6602 30.5037 29.6459C30.4981 29.6315 30.4885 29.6191 30.4762 29.6101C30.4638 29.6011 30.4491 29.596 30.4339 29.5953C30.1435 29.5811 29.853 29.5839 29.5654 29.5754C29.275 29.5839 28.9846 29.5811 28.697 29.5953C28.63 29.5981 28.5965 29.6831 28.644 29.7313C28.7948 29.8984 29.1159 30.1676 29.5626 30.1676Z" fill="#5A5A63"/>
<path d="M30.2608 32.8223C30.0793 33.0348 29.7889 33.1339 29.5125 33.0999C29.2388 33.0659 28.9875 32.9016 28.8228 32.6749C28.7278 32.5418 28.6608 32.3888 28.5519 32.2669C28.443 32.1451 28.2699 32.0601 28.1191 32.1224C27.9069 32.2074 27.879 32.5078 27.9516 32.7259C28.022 32.9439 28.1346 33.1454 28.2827 33.3186C28.4309 33.4918 28.6116 33.6332 28.8144 33.7346C29.0908 33.8734 29.4762 33.9301 29.7833 33.8989C30.3725 33.8366 31.0064 33.2954 31.213 32.7401C31.3247 32.4426 31.4224 31.8448 30.8388 31.9808C30.568 32.0459 30.4786 32.5673 30.2608 32.8223Z" fill="#5A5A63"/>
</svg>
