<svg width="26" height="26" viewBox="0 0 26 26" fill="none" xmlns="http://www.w3.org/2000/svg">
<g clip-path="url(#clip0_530_5)">
<path d="M4.875 26L21.125 26C21.7652 26.0001 22.3992 25.8741 22.9907 25.6292C23.5823 25.3842 24.1197 25.0252 24.5724 24.5724C25.0252 24.1197 25.3842 23.5823 25.6292 22.9907C25.8741 22.3992 26.0001 21.7652 26 21.125L26 4.875C26.0001 4.23477 25.8741 3.60078 25.6292 3.00926C25.3842 2.41774 25.0252 1.88027 24.5724 1.42756C24.1197 0.974849 23.5823 0.615764 22.9907 0.370819C22.3992 0.125874 21.7652 -0.00013137 21.125 0L4.875 0C4.23477 -0.00013137 3.60078 0.125874 3.00926 0.370819C2.41774 0.615764 1.88027 0.974849 1.42756 1.42756C0.974849 1.88027 0.615764 2.41774 0.370819 3.00926C0.125874 3.60078 -0.00013137 4.23477 0 4.875L0 21.125C-0.00013137 21.7652 0.125874 22.3992 0.370819 22.9907C0.615764 23.5823 0.974849 24.1197 1.42756 24.5724C1.88027 25.0252 2.41774 25.3842 3.00926 25.6292C3.60078 25.8741 4.23477 26.0001 4.875 26ZM8.34 12.143L14.569 7.194C14.718 7.11968 14.8833 7.08436 15.0497 7.09136C15.216 7.09836 15.3778 7.14743 15.52 7.234C15.6633 7.31738 15.7827 7.43626 15.8668 7.57917C15.9509 7.72208 15.9967 7.88423 16 8.05V17.949C16 18.283 15.81 18.593 15.521 18.766C15.3785 18.8524 15.2165 18.9013 15.05 18.9081C14.8835 18.9149 14.7181 18.8795 14.569 18.805L8.34 13.857C8.004 13.56 7.803 13.363 7.803 13C7.803 12.637 8.039 12.425 8.34 12.143Z" fill="#FF6F61"/>
</g>
<defs>
<clipPath id="clip0_530_5">
<rect width="26" height="26" fill="white" transform="matrix(-1 0 0 -1 26 26)"/>
</clipPath>
</defs>
</svg>
