<svg width="585" height="318" viewBox="0 0 585 318" fill="none" xmlns="http://www.w3.org/2000/svg">
<path fill-rule="evenodd" clip-rule="evenodd" d="M263.6 255.76L350.98 66.8194L397.124 161.343L413.963 126.803L349.345 0L228.415 270.147L309.057 269.807C313.83 268.168 343.23 187.332 351.759 174.519L387.199 241.912L465.842 84.74C478.72 117.905 525.44 216.785 546.88 264.464C531.083 259.771 507.075 216.407 500.16 228.945C496.354 235.846 487.343 256.776 481.234 261.061C469.74 238.871 444.142 187.669 433.068 164.586L417.86 195.139L474.181 294.409C482.643 289.479 500.098 266.047 508.835 257.744C518.586 262.76 536.338 281.556 546.404 289.994C553.886 296.265 580.009 324.379 583.528 316.218C585.844 305.906 582.2 301.318 579.047 294.239L464.864 32.2235L383.33 210.63L350.639 148.1L304.716 255.173L263.6 255.76Z" fill="#22C55E"/>
<path fill-rule="evenodd" clip-rule="evenodd" d="M85.6535 141.838C98.3048 155.841 203.874 265.566 206.08 270.162L220.064 242.695L86.6392 106.549L22.7214 173.706C22.6299 158.405 21.8192 50.8931 22.7168 44.424L147.789 44.5896C173.044 49.9164 192.91 77.9212 182.957 103.902C175.73 122.768 156.876 134.944 136.365 138.446L150.146 151.453C226.479 135.989 229.999 40.6294 149.227 21L0 21.0798L0.3719 232.776L85.6535 141.838Z" fill="#F43F5E"/>
</svg>
