<svg width="22" height="20" viewBox="0 0 22 20" fill="none" xmlns="http://www.w3.org/2000/svg">
<path d="M2.26 20C1.97 20 1.72917 19.9042 1.5375 19.7125C1.34583 19.5208 1.25 19.28 1.25 18.99V17.715C1.25 17.445 1.30417 17.1829 1.4125 16.9287C1.52083 16.6746 1.66625 16.4571 1.84875 16.2762L17.7675 0.365C17.905 0.2275 18.05 0.1325 18.2025 0.0800002C18.355 0.0275002 18.5067 0.000833333 18.6575 0C18.815 0 18.9725 0.0266668 19.13 0.0800002C19.2883 0.1325 19.4258 0.2275 19.5425 0.365L20.8838 1.7075C21.0213 1.82417 21.1167 1.96167 21.17 2.12C21.2225 2.2775 21.2488 2.43458 21.2488 2.59125C21.2488 2.74375 21.2225 2.89625 21.17 3.04875C21.1175 3.20125 21.0217 3.34625 20.8825 3.48375L4.975 19.4C4.79333 19.5817 4.57583 19.7267 4.3225 19.835C4.06917 19.9433 3.80708 19.9983 3.53625 20H2.26ZM18.2162 4.3825L20 2.59875L18.6512 1.25L16.8675 3.03375L18.2162 4.3825ZM12.8363 20C14.2179 20 15.5008 19.6708 16.685 19.0125C17.8692 18.3542 18.4612 17.4333 18.4612 16.25C18.4612 15.615 18.2625 15.0367 17.865 14.515C17.4675 13.9933 16.8938 13.5483 16.1438 13.18C15.9963 13.1 15.84 13.0842 15.675 13.1325C15.51 13.1808 15.385 13.2738 15.3 13.4113C15.215 13.5488 15.1967 13.7037 15.245 13.8762C15.2933 14.0487 15.3912 14.175 15.5387 14.255C16.0704 14.5158 16.4821 14.8162 16.7738 15.1562C17.0654 15.4963 17.2112 15.8608 17.2112 16.25C17.2112 16.9533 16.7792 17.5458 15.915 18.0275C15.05 18.5092 14.0238 18.75 12.8363 18.75C12.6588 18.75 12.51 18.8096 12.39 18.9287C12.27 19.0479 12.2104 19.1967 12.2113 19.375C12.2121 19.5533 12.2717 19.7021 12.39 19.8213C12.5083 19.9404 12.6571 20 12.8363 20ZM7.5 3.125C7.5 3.56083 7.26958 3.95458 6.80875 4.30625C6.34792 4.65792 5.4375 5.13583 4.0775 5.74C2.5225 6.42083 1.45417 7.02208 0.8725 7.54375C0.290833 8.06542 0 8.67583 0 9.375C0 9.86833 0.14125 10.2954 0.42375 10.6562C0.70625 11.0171 1.045 11.3213 1.44 11.5688C1.5825 11.6704 1.7325 11.7017 1.89 11.6625C2.0475 11.6233 2.17667 11.5325 2.2775 11.39C2.37833 11.2475 2.41 11.0933 2.3725 10.9275C2.335 10.7617 2.24542 10.6288 2.10375 10.5288C1.81292 10.3446 1.59792 10.1562 1.45875 9.96375C1.31958 9.77125 1.25 9.575 1.25 9.375C1.25 8.99667 1.48167 8.62625 1.945 8.26375C2.4075 7.90208 3.28333 7.44458 4.5725 6.89125C6.21333 6.19625 7.32 5.56958 7.8925 5.01125C8.46417 4.45458 8.75 3.82583 8.75 3.125C8.75 2.22 8.34375 1.47292 7.53125 0.88375C6.71875 0.294583 5.66667 0 4.375 0C3.5975 0 2.85917 0.1425 2.16 0.4275C1.46 0.713333 0.952083 1.06333 0.63625 1.4775C0.519583 1.62083 0.47 1.775 0.4875 1.94C0.505 2.105 0.585417 2.24375 0.72875 2.35625C0.870417 2.45625 1.02042 2.49792 1.17875 2.48125C1.33542 2.46375 1.47208 2.39625 1.58875 2.27875C1.92875 1.93875 2.33167 1.6825 2.7975 1.51C3.26417 1.33667 3.79 1.25 4.375 1.25C5.3575 1.25 6.12417 1.435 6.675 1.805C7.225 2.17667 7.5 2.61667 7.5 3.125Z" fill="#FF8C81"/>
</svg>
