<svg width="22" height="22" viewBox="0 0 22 22" fill="none" xmlns="http://www.w3.org/2000/svg">
<path d="M11.7957 19.8551C11.4588 19.7052 11.1271 19.5441 10.8011 19.3719C9.17738 18.4539 7.68622 17.3191 6.36863 15.9989C4.65851 14.3891 3.25389 12.4831 2.22269 10.373C1.67042 9.23924 1.29768 8.02657 1.11783 6.77837C0.87266 5.51786 1.01202 4.21275 1.51783 3.03243C1.83026 2.52432 2.20648 2.05946 2.63675 1.64973C2.81138 1.45393 3.02379 1.29544 3.26121 1.18379C3.49864 1.07214 3.75618 1.00962 4.01837 1C4.56431 1.08216 5.05836 1.36757 5.39998 1.80216C6.14593 2.63135 6.94593 3.37729 7.73404 4.1654C8.04431 4.43135 8.23782 4.80864 8.27241 5.21621C8.25944 5.55891 8.12755 5.88648 7.89944 6.1427C7.63782 6.47459 7.31998 6.77837 7.0162 7.09621C6.83271 7.27303 6.69241 7.48973 6.60617 7.72952C6.51993 7.9693 6.49007 8.22573 6.5189 8.47891C6.70851 9.07136 7.03477 9.61092 7.47133 10.054C7.99674 10.773 8.52106 11.4378 9.11458 12.1416C10.1817 13.3749 11.447 14.4217 12.8584 15.2389C13.0534 15.3863 13.2841 15.4793 13.5268 15.5084C13.7695 15.5375 14.0157 15.5015 14.24 15.4043C14.709 15.1417 15.1257 14.7951 15.4692 14.3816C15.7665 14.0194 16.1924 13.787 16.6573 13.7319C17.0713 13.7535 17.4616 13.9308 17.7492 14.2292C18.1211 14.547 18.4389 14.9211 18.7848 15.2659C19.1297 15.6119 19.4065 15.8605 19.6962 16.1784C20.0432 16.4843 20.3708 16.8119 20.6767 17.16C20.9146 17.467 21.027 17.8519 20.9946 18.2378C20.8713 18.6998 20.6053 19.111 20.2346 19.4129C19.7133 19.9554 19.0798 20.3775 18.3785 20.6498C17.6771 20.922 16.9248 21.0379 16.174 20.9892C14.654 20.9037 13.166 20.5183 11.7957 19.8551Z" stroke="#5A5A63" stroke-width="1.5" stroke-miterlimit="10" stroke-linecap="round"/>
</svg>
