<svg width="19" height="27" viewBox="0 0 19 27" fill="none" xmlns="http://www.w3.org/2000/svg">
<path d="M15.8333 10.5333V6.96667C15.8691 5.15991 15.1878 3.41253 13.9384 2.10691C12.689 0.80128 10.9733 0.0437215 9.16667 0C7.36008 0.0437215 5.64437 0.80128 4.39497 2.10691C3.14556 3.41253 2.46421 5.15991 2.5 6.96667V10.5333H0V24.7C0 25.142 0.175595 25.566 0.488155 25.8785C0.800716 26.1911 1.22464 26.3667 1.66667 26.3667H16.6667C17.1087 26.3667 17.5326 26.1911 17.8452 25.8785C18.1577 25.566 18.3333 25.142 18.3333 24.7V10.5333H15.8333ZM10 19.0583V21.3667H8.33333V18.9833C7.92762 18.7746 7.60548 18.4334 7.42037 18.0163C7.23526 17.5993 7.19831 17.1315 7.31565 16.6906C7.43298 16.2497 7.69756 15.8621 8.06546 15.5923C8.43337 15.3224 8.88249 15.1864 9.33829 15.207C9.7941 15.2275 10.2292 15.4032 10.5714 15.705C10.9135 16.0069 11.1422 16.4166 11.2195 16.8663C11.2968 17.316 11.2179 17.7785 10.9961 18.1773C10.7743 18.576 10.4228 18.8869 10 19.0583ZM14.1667 10.5333H4.16667V6.96667C4.13074 5.60187 4.63646 4.27832 5.57334 3.28523C6.51022 2.29214 7.80209 1.71024 9.16667 1.66667C10.5312 1.71024 11.8231 2.29214 12.76 3.28523C13.6969 4.27832 14.2026 5.60187 14.1667 6.96667V10.5333Z" fill="#3448B4"/>
</svg>
