<svg width="40" height="37" viewBox="0 0 40 37" fill="none" xmlns="http://www.w3.org/2000/svg">
<path d="M4.97449 26.7334C6.4668 29.3182 8.61331 31.4645 11.1982 32.9566C13.7831 34.4487 16.7153 35.2339 19.6999 35.2334C22.6845 35.2339 25.6167 34.4487 28.2016 32.9566C30.7865 31.4645 32.933 29.3182 34.4253 26.7334M4.97449 9.7334C6.4668 7.14864 8.61331 5.00231 11.1982 3.51022C13.7831 2.01814 16.7153 1.23288 19.6999 1.2334C22.6845 1.23288 25.6167 2.01814 28.2016 3.51022C30.7865 5.00231 32.933 7.14864 34.4253 9.7334" stroke="#77B4E3" stroke-width="2" stroke-linecap="round" stroke-linejoin="round"/>
<path d="M21.4 35.1484C21.4 35.1484 23.7936 31.9983 25.3015 26.7334M21.4 1.31836C21.4 1.31836 23.7936 4.46676 25.3015 9.73336M18 35.1484C18 35.1484 15.6064 32 14.0985 26.7334M18 1.31836C18 1.31836 15.6064 4.46676 14.0985 9.73336M14.6 14.8334L17.15 23.3334L19.7 14.8334L22.25 23.3334L24.8 14.8334M1 14.8334L3.55 23.3334L6.1 14.8334L8.65 23.3334L11.2 14.8334M28.2 14.8334L30.75 23.3334L33.3 14.8334L35.85 23.3334L38.4 14.8334" stroke="#77B4E3" stroke-width="2" stroke-linecap="round" stroke-linejoin="round"/>
</svg>
