<svg width="27" height="40" viewBox="0 0 27 40" fill="none" xmlns="http://www.w3.org/2000/svg">
<path d="M0 8.12105L2.38499 36.9011L13.0872 40L23.8193 36.9597L26.2069 8.12105H0ZM21.2461 14.6731L21.0966 16.5404L21.0308 17.403H8.4765L8.77643 21.2438H20.7324L20.6524 21.9578L19.8812 31.2107L19.8246 31.7516L13.1034 33.7149V33.7133L13.0955 33.7171L6.37817 31.8236L5.92222 26.3648H9.21586L9.44913 29.0726L13.1017 30.0773L13.1034 30.0024V30.0062L16.764 29.1584L17.1462 24.7645H5.77565L4.96935 14.8949L4.8906 13.8822H21.3245L21.2461 14.6731ZM2.47347 0H4.13149V1.77829H5.64854V0H7.30686V5.38416H5.64854V3.58122H4.13178V5.38416H2.47347V0ZM9.48718 1.78565H8.02734V0H12.6059V1.78565H11.1455V5.38416H9.48718V1.78565ZM13.3326 0H15.0614L16.1252 1.89191L17.1877 0H18.9174V5.38416H17.2656V2.71544L16.1252 4.62976H16.0963L14.9549 2.71544V5.38416H13.3323L13.3326 0ZM19.7429 0H21.4015V3.60459H23.7334V5.38448H19.7429V0Z" fill="#5A5A63"/>
</svg>
