<svg width="41" height="35" viewBox="0 0 41 35" fill="none" xmlns="http://www.w3.org/2000/svg">
<path fill-rule="evenodd" clip-rule="evenodd" d="M40.272 0H0V34.5188H40.272V0Z" fill="#FCE10C"/>
<path d="M18.6111 28.4289L20.8171 27.0431C21.2421 27.8263 21.6291 28.4891 22.5581 28.4891C23.4481 28.4891 24.0091 28.1277 24.0091 26.7218V17.1608H26.7181V26.7615C26.7181 29.6739 25.0731 30.9996 22.6741 30.9996C20.5071 30.9996 19.2491 29.835 18.6111 28.4289ZM28.1891 28.1276L30.3941 26.802C30.9751 27.7863 31.7301 28.5093 33.0641 28.5093C34.1871 28.5093 34.9021 27.9267 34.9021 27.1233C34.9021 26.1592 34.1671 25.8177 32.9291 25.2555L32.2521 24.9539C30.2981 24.0905 29.0021 23.0058 29.0021 20.716C29.0021 18.6069 30.5491 17 32.9681 17C34.6901 17 35.9281 17.6228 36.8181 19.2497L34.7091 20.6558C34.2441 19.7921 33.7421 19.4507 32.9681 19.4507C32.1741 19.4507 31.6711 19.973 31.6711 20.6558C31.6711 21.4994 32.1741 21.841 33.3351 22.3633L34.0121 22.6645C36.3151 23.689 37.6111 24.7333 37.6111 27.0832C37.6111 29.6142 35.6961 31 33.1221 31C30.6071 31 28.9821 29.7546 28.1891 28.1276Z" fill="black"/>
</svg>
