<?xml version="1.0" encoding="UTF-8"?>
<!DOCTYPE svg PUBLIC "-//W3C//DTD SVG 1.1//EN" "http://www.w3.org/Graphics/SVG/1.1/DTD/svg11.dtd">
<!-- Creator: CorelDRAW X5 -->
<svg xmlns="http://www.w3.org/2000/svg" xml:space="preserve" width="225.47mm" height="107.084mm" style="shape-rendering:geometricPrecision; text-rendering:geometricPrecision; image-rendering:optimizeQuality; fill-rule:evenodd; clip-rule:evenodd"
viewBox="0 0 1716 815"
 xmlns:xlink="http://www.w3.org/1999/xlink">
 <defs>
  <style type="text/css">
   <![CDATA[
    .fil9 {fill:#F8BB97}
    .fil24 {fill:#4E565A}
    .fil23 {fill:#FFED00}
    .fil11 {fill:#399E4D}
    .fil5 {fill:#5ED95B}
    .fil26 {fill:#6F7375}
    .fil1 {fill:#969696}
    .fil7 {fill:#9C9C9C}
    .fil4 {fill:#A6E6A9}
    .fil22 {fill:#AEC7D1}
    .fil27 {fill:#BDD2FF}
    .fil3 {fill:#C9C9C9}
    .fil32 {fill:#CCB6DB}
    .fil2 {fill:#CFE3EB}
    .fil31 {fill:#D6D2D2}
    .fil25 {fill:#E0DDDD}
    .fil30 {fill:#E3E3E3}
    .fil10 {fill:#EB7267}
    .fil37 {fill:#EFF2F0}
    .fil28 {fill:#F2C6C6}
    .fil20 {fill:#F7F7F7}
    .fil29 {fill:#FAEDA5}
    .fil0 {fill:#FAFEFF}
    .fil21 {fill:#FB4F1D}
    .fil8 {fill:#FCF6F4}
    .fil19 {fill:#FCFCFC}
    .fil36 {fill:#FEB48C}
    .fil14 {fill:white}
    .fil33 {fill:#1F1B20}
    .fil39 {fill:#77B4E3}
    .fil35 {fill:#B1AEAA}
    .fil38 {fill:#B1D4F1}
    .fil15 {fill:#BDBEBE}
    .fil18 {fill:#FEFEFE}
    .fil6 {fill:#C1946F}
    .fil12 {fill:#F8BB97;fill-rule:nonzero}
    .fil13 {fill:#FFED00;fill-rule:nonzero}
    .fil16 {fill:#5A5A63;fill-rule:nonzero}
    .fil17 {fill:lightgrey;fill-rule:nonzero}
    .fil34 {fill:url(#id0)}
   ]]>
  </style>
  <linearGradient id="id0" gradientUnits="userSpaceOnUse" x1="1095.75" y1="226.752" x2="1095.75" y2="226.924">
   <stop offset="0" style="stop-color:#A2532D"/>
   <stop offset="0.611765" style="stop-color:#9D522D"/>
   <stop offset="1" style="stop-color:#97502E"/>
  </linearGradient>
 </defs>
 <g id="Vrstva_x0020_1">
  <metadata id="CorelCorpID_0Corel-Layer"/>
  <g id="_511491256">
   <path class="fil0" d="M475 811c225,5 615,5 837,-2 223,-7 279,-21 324,-72 45,-51 80,-139 80,-203 0,-64 -36,-105 -75,-157 -39,-52 -82,-115 -125,-159 -43,-45 -87,-71 -169,-75 -82,-4 -203,15 -295,-7 -92,-22 -155,-84 -237,-114 -82,-30 -183,-27 -286,-6 -103,21 -208,60 -298,138 -90,78 -164,194 -202,276 -37,82 -37,131 -19,166 18,36 54,59 77,89 22,29 31,65 66,88 35,23 95,34 320,39z"/>
   <rect class="fil1" x="1255" y="200" width="210" height="16"/>
   <rect class="fil2" x="1289" y="236" width="141" height="157"/>
   <rect class="fil1" x="1255" y="413" width="210" height="16"/>
   <path class="fil3" d="M1289 236l141 0 0 157 -141 0 0 -157zm-18 -20l177 0 0 197 -177 0 0 -197z"/>
   <path class="fil4" d="M1438 373c-3,-1 -6,-4 -9,-7 -2,-3 -3,-6 -5,-10 -2,-3 -5,-6 -8,-8 -3,-2 -5,-2 -7,-3 -2,-1 -3,-4 -3,-8 0,-4 0,-10 1,-13 2,-3 6,-2 9,-1 3,1 5,3 7,6 2,3 4,6 7,8 3,3 6,5 8,7 2,2 4,5 6,8 1,3 2,6 2,9 0,3 -1,7 -2,9 -1,2 -3,3 -6,2z"/>
   <path class="fil4" d="M1454 371c-1,-3 -1,-8 0,-11 1,-3 3,-5 5,-5 2,-1 5,0 6,-1 2,-1 3,-2 4,-4 1,-2 2,-3 3,-4 1,-1 3,-2 5,-2 2,-1 4,-1 5,-2 1,-1 2,-1 3,-3 1,-1 2,-3 3,-3 1,-1 3,-1 6,0 3,0 6,1 8,2 2,1 3,3 2,4 -1,2 -4,3 -6,5 -3,2 -6,5 -7,8 -2,2 -2,4 -2,6 -1,2 -2,3 -3,5 -1,2 -3,3 -6,4 -3,1 -6,1 -9,2 -3,1 -4,1 -6,2 -1,1 -2,1 -4,2 -2,0 -5,0 -7,-3z"/>
   <path class="fil4" d="M1447 350c-1,-3 -1,-7 -2,-10 -1,-4 -2,-6 -2,-9 0,-3 1,-6 3,-9 2,-3 4,-5 5,-8 2,-3 3,-7 7,-12 4,-5 9,-10 12,-9 3,0 3,6 2,11 -1,5 -2,8 -3,10 -1,2 -2,4 -3,6 -1,2 -2,3 -2,5 0,2 0,3 1,6 0,2 0,5 -1,7 -1,2 -2,3 -4,4 -1,1 -2,1 -3,3 -1,2 -3,5 -4,6 -1,2 -1,3 -1,3 -1,1 -1,2 -2,1 -1,0 -2,-1 -2,-4z"/>
   <path class="fil4" d="M1441 387c1,-3 2,-6 2,-10 0,-3 -1,-7 -2,-10 -1,-3 -3,-7 -5,-10 -2,-3 -5,-5 -7,-8 -3,-3 -5,-5 -8,-8 -3,-3 -5,-6 -7,-8 -2,-2 -3,-3 -3,-4 1,1 2,2 4,4 2,2 4,5 7,8 3,3 5,5 8,8 3,3 5,5 7,8 2,3 4,6 5,10 1,3 2,7 2,10 0,3 -1,6 -2,9 0,0 -1,0 -1,0z"/>
   <path class="fil5" d="M1433 355c0,-1 1,-2 0,-3 0,-1 0,-3 -1,-5 0,1 1,3 1,4 0,1 0,2 0,3 0,1 0,1 0,1 0,0 0,0 -1,-1z"/>
   <path class="fil5" d="M1424 345c-1,0 -2,0 -3,0 -1,0 -3,-1 -5,-2 1,1 2,2 4,2 1,1 2,1 3,1 1,0 1,0 1,0 0,0 0,-1 0,-1z"/>
   <path class="fil5" d="M1417 337c0,-1 1,-1 1,-3 0,-1 0,-3 0,-5 0,2 1,3 1,4 0,1 0,2 0,3 0,1 0,1 0,1 0,0 0,0 -1,-1z"/>
   <path class="fil5" d="M1448 387c0,-1 2,-33 2,-40 0,-4 1,-8 2,-12 1,-4 3,-7 4,-10 2,-3 3,-7 5,-10 1,-4 3,-8 4,-11 1,-3 1,-4 2,-5 -1,1 -2,2 -3,5 -1,3 -2,7 -4,11 -1,4 -3,7 -5,10 -2,3 -3,7 -4,10 -1,4 -2,8 -2,12 0,7 -3,39 -2,40 0,0 1,0 1,0z"/>
   <path class="fil5" d="M1453 332c-1,-1 -1,-1 -1,-3 0,-1 -1,-4 -1,-6 0,2 0,3 0,5 0,1 1,2 1,3 0,1 0,1 1,1 0,0 0,0 1,-1z"/>
   <path class="fil5" d="M1458 319c1,0 2,0 3,-1 1,-1 2,-2 4,-4 -1,1 -2,3 -3,3 -1,1 -2,1 -2,2 -1,0 -1,1 -1,1 0,0 0,-1 0,-1z"/>
   <path class="fil5" d="M1463 309c-1,-1 -1,-1 -2,-3 -1,-1 -1,-4 -2,-6 0,2 1,3 1,5 0,1 1,2 1,3 0,1 1,1 1,1 0,0 0,-1 0,-1z"/>
   <path class="fil5" d="M1450 390c0,-3 0,-7 1,-10 1,-3 3,-6 5,-9 2,-3 5,-6 7,-8 3,-2 6,-4 9,-6 3,-2 6,-4 9,-6 3,-2 7,-5 9,-6 2,-2 3,-2 4,-3 -1,0 -3,1 -5,3 -2,2 -6,4 -9,6 -3,2 -6,4 -9,6 -3,2 -6,4 -9,6 -3,2 -5,5 -7,8 -2,3 -4,6 -5,9 -1,3 -1,6 -1,10 0,0 1,0 1,0z"/>
   <path class="fil5" d="M1466 361c0,-1 0,-2 0,-3 0,-1 1,-3 2,-5 -1,1 -2,3 -2,4 -1,1 -1,2 -1,3 0,1 0,1 0,1 0,0 1,0 1,0z"/>
   <path class="fil5" d="M1477 354c1,0 2,0 3,0 1,0 3,-1 5,-1 -1,1 -3,1 -4,1 -1,0 -2,0 -3,0 -1,0 -1,0 -1,0 0,0 0,0 1,-1z"/>
   <path class="fil5" d="M1486 349c0,-1 0,-2 0,-3 0,-1 1,-3 2,-5 -1,1 -1,3 -2,4 0,1 0,2 -1,3 0,1 0,1 0,1 0,0 1,0 1,0z"/>
   <polygon class="fil6" points="1440,413 1443,413 1456,413 1465,392 1465,385 1431,385 1431,392 "/>
   <rect class="fil7" x="794" y="581" width="295" height="203"/>
   <rect class="fil8" x="809" y="591" width="265" height="193"/>
   <path class="fil9" d="M1002 750c0,3 0,6 0,9 5,0 10,0 15,0 0,-3 0,-5 0,-8 -5,0 -10,0 -15,-1z"/>
   <path class="fil9" d="M1095 751c0,3 0,6 0,9 5,0 10,0 15,-1 0,-3 0,-5 0,-8 -5,0 -10,0 -15,0z"/>
   <rect class="fil7" x="821" y="601" width="243" height="54"/>
   <path class="fil10" d="M1001 757c6,0 13,0 19,0 0,2 0,4 0,6 0,2 1,5 1,7 0,2 0,3 1,5 0,1 0,3 0,4 0,2 -1,3 -1,5 -1,0 -2,1 -3,1 -9,0 -18,0 -26,0 0,-1 -1,-3 -1,-4 0,-2 0,-3 1,-5 1,-1 2,-3 3,-5 1,-2 3,-5 4,-7 1,-3 2,-5 2,-7z"/>
   <path class="fil10" d="M1111 757c-5,0 -11,0 -16,0 -1,2 -1,4 -2,6 -1,2 -1,5 -2,6 -1,2 -2,3 -2,5 -1,1 -1,3 -1,5 0,2 0,4 0,6 11,0 21,1 32,1 0,-1 1,-3 1,-4 0,-2 0,-3 -1,-5 -1,-1 -2,-3 -3,-5 -1,-2 -3,-5 -4,-7 -1,-3 -1,-5 -2,-7z"/>
   <path class="fil11" d="M1021 751c6,-28 11,-57 19,-88 8,-31 17,-64 27,-97 5,29 11,58 14,75 3,16 3,19 5,36 2,16 4,46 7,75 7,0 14,0 21,-1 1,-33 2,-66 4,-100 1,-34 3,-70 5,-106 -6,-1 -11,-3 -21,-5 -9,-2 -23,-5 -33,-8 -11,-3 -18,-5 -26,-6 -8,-1 -16,-1 -24,-1 -3,38 -5,77 -8,114 -3,38 -7,75 -11,112 7,0 15,0 22,0z"/>
   <path class="fil12" d="M1067 369c0,0 -4,16 -8,22 -1,15 22,28 31,6 0,0 -2,-16 2,-27 3,-7 8,-7 15,-25 5,-12 -1,-27 -19,-32 -12,-4 -22,3 -22,3 0,0 -5,3 -8,7 0,0 -2,3 -2,5 0,2 -2,9 -3,10 -2,3 -4,4 -5,5 -1,1 1,4 4,4 -4,10 0,24 15,22z"/>
   <path class="fil13" d="M1051 322c0,0 2,4 10,4 8,1 14,6 14,10 0,3 -2,7 -2,9 1,0 2,1 2,1 2,1 4,-4 6,-3 2,2 6,4 4,7 -2,3 -3,16 -2,19 1,2 9,3 10,3 1,0 7,-10 12,-14 4,-4 20,-27 9,-36 0,0 0,-7 -7,-11 -6,-4 -18,-9 -27,-8 -10,1 -22,5 -26,3 0,0 -5,-5 -4,-1 1,3 3,8 6,10 0,0 -4,-4 -7,-6 -2,-2 -4,8 2,13z"/>
   <rect class="fil2" x="1003" y="764" width="13" height="1"/>
   <rect class="fil2" x="1001" y="768" width="15" height="1"/>
   <rect class="fil2" x="1096" y="764" width="13" height="1"/>
   <rect class="fil2" x="1095" y="769" width="15" height="1"/>
   <path class="fil14" d="M1014 523c37,10 73,20 90,20 17,0 15,-9 13,-17 -3,-7 -6,-13 -10,-21 -4,-8 -9,-18 -13,-29 -3,-12 -5,-25 -4,-38 0,-13 2,-26 4,-36 2,-10 4,-16 3,-19 -1,-2 -3,0 -6,1 -3,2 -6,3 -9,4 -4,1 -9,1 -12,0 -3,-1 -5,-3 -8,-2 -2,1 -5,6 -9,16 -3,10 -8,26 -11,41 -4,15 -7,28 -11,38 -4,10 -10,16 -15,23 0,6 -1,12 -1,18z"/>
   <path class="fil10" d="M1063 381c-1,18 -3,36 -5,52 -2,15 -5,28 -8,40 -3,12 -8,23 -12,32 -5,9 -10,17 -14,24 -4,7 -7,14 -11,19 -3,6 -7,10 -8,12 -2,2 -2,2 -4,0 -2,-2 -5,-6 -6,-10 -1,-4 -1,-9 1,-17 2,-7 4,-18 8,-27 4,-9 8,-18 12,-25 4,-7 6,-13 8,-19 2,-5 2,-10 3,-14 -2,3 -4,7 -6,10 -5,-4 -9,-8 -14,-11 -5,-2 -9,-3 -13,-3 5,-10 10,-21 14,-28 4,-8 7,-13 10,-17 3,-4 6,-6 14,-9 8,-3 19,-7 31,-11z"/>
   <path class="fil10" d="M1115 581c3,-6 7,-13 9,-18 2,-6 4,-11 4,-16 0,-6 -1,-12 -3,-18 -2,-6 -4,-13 -7,-18 -3,-6 -5,-10 -7,-14 -2,-4 -2,-7 -3,-12 0,-4 -1,-9 0,-15 0,-6 1,-14 1,-22 3,7 6,15 9,22 2,0 5,0 7,-1 3,-1 6,-4 9,-7 2,-2 4,-4 7,-6 3,-1 6,-2 10,-3 -7,-15 -14,-30 -19,-39 -4,-8 -6,-10 -13,-14 -7,-4 -18,-11 -30,-18 -5,28 -9,55 -11,73 -2,17 -2,24 5,44 6,19 19,51 32,83z"/>
   <path class="fil15" d="M1051 377c2,-4 -3,-4 8,-6 4,-1 4,-6 4,-8 1,-2 2,-3 3,-6 0,-4 -1,-3 -2,-5 0,-1 1,-1 0,-2 -1,-1 -2,0 -3,0 -1,0 -1,-1 -1,-2 -1,0 -2,1 -2,0 -2,-1 -3,-1 -6,4 -3,5 -2,4 -3,6 -1,2 -1,4 -2,6 0,2 0,5 -1,7 0,2 -4,3 -3,7 1,6 4,12 8,-2z"/>
   <path class="fil9" d="M999 444c-2,3 -3,5 -3,8 0,3 0,6 2,9 1,2 3,4 5,5 2,1 5,1 7,1 2,0 4,-1 6,-2 2,-1 3,-2 4,-4 1,-1 1,-3 2,-6 1,-3 4,-9 6,-13 2,-4 4,-7 6,-13 3,-6 7,-16 10,-24 3,-8 6,-14 7,-17 1,-4 2,-5 3,-6 1,-1 2,-3 4,-4 2,-1 4,-3 5,-4 1,-1 2,-3 2,-3 0,-1 -2,-1 -3,-1 -1,0 -2,1 -3,1 -1,0 -1,-1 -1,-2 0,-1 2,-3 3,-5 1,-2 2,-3 3,-6 0,-4 -1,-3 -2,-5 0,-1 1,-1 0,-2 -1,-1 -2,0 -3,0 -1,0 -1,-1 -1,-2 -1,0 -2,1 -2,0 -2,-1 -3,-1 -6,4 -3,5 -2,4 -3,6 -1,2 -1,4 -2,6 0,2 0,5 -1,7 0,2 -1,4 -3,7 -2,3 -5,9 -9,15 -4,6 -8,13 -12,20 -4,7 -8,13 -11,18 -3,5 -7,10 -9,13z"/>
   <path class="fil9" d="M1114 450c5,9 10,18 13,23 3,6 3,8 3,10 0,2 -1,4 -5,11 -5,8 -13,22 -19,30 -5,9 -8,12 -10,14 -2,2 -4,3 -7,4 -3,1 -6,3 -8,4 -2,2 -2,4 -1,6 1,2 3,3 7,4 3,1 7,1 11,0 4,-1 7,-4 12,-11 6,-7 14,-18 21,-26 7,-9 12,-16 16,-21 4,-5 7,-8 8,-11 2,-3 2,-5 2,-8 0,-3 -2,-7 -4,-12 -2,-5 -5,-11 -7,-17 -2,-5 -4,-10 -6,-13 -2,-4 -4,-7 -7,-9 -3,-2 -5,-3 -8,-3 -3,0 -5,1 -6,5 -2,4 -4,11 -5,18z"/>
   <path class="fil10" d="M1093 527c7,-6 15,-12 19,-15 4,-3 5,-2 4,-5 -1,-2 -3,-7 -5,-11 -2,-4 -2,-7 -3,-12 0,-4 -1,-9 0,-15 0,-6 1,-14 1,-22 3,7 6,15 9,22 2,0 5,0 7,-1 3,-1 6,-4 9,-7 2,-2 4,-4 7,-6 3,-1 6,-2 10,-3 -7,-15 -14,-30 -19,-39 -4,-8 -6,-10 -13,-14 -7,-4 -18,-11 -30,-18 -5,28 -9,55 -11,73 -2,17 -2,24 1,34 3,10 8,24 14,37z"/>
   <path class="fil9" d="M1102 539c-1,-2 -5,-1 -8,1 -3,1 -10,1 -10,1 0,0 6,2 8,2 9,1 10,-2 9,-4z"/>
   <rect class="fil7" x="821" y="668" width="243" height="54"/>
   <path class="fil11" d="M1021 751c6,-28 9,-46 18,-83 8,-37 0,-118 -2,-120 -2,-1 -4,14 -12,14 -3,38 -12,39 -15,77 -3,38 -7,75 -11,112 7,0 15,0 22,0z"/>
   <circle class="fil14" cx="942" cy="628" r="8"/>
   <circle class="fil14" cx="942" cy="695" r="8"/>
   <path class="fil16" d="M796 514l30 67 74 0 -32 -69c0,-1 -1,-1 -2,-1l-68 0c-2,0 -3,2 -3,4l0 0z"/>
   <path class="fil17" d="M901 577l-31 -65c0,0 -1,-3 -4,-2 -1,0 33,67 33,67l2 0z"/>
   <path class="fil16" d="M966 577l-68 0 2 4 62 0c2,0 3,-1 3,-3l0 -1 0 0z"/>
   <polygon class="fil18" points="852,551 842,551 840,547 850,547 "/>
   <path class="fil11" d="M609 97l258 0c15,0 27,5 27,11l0 152c0,6 -12,11 -27,11l-258 0c-15,0 -27,-5 -27,-11l0 -152c0,-6 12,-11 27,-11z"/>
   <rect class="fil19" x="582" y="126" width="312" height="100"/>
   <path class="fil20" d="M609 140l258 0c15,0 27,4 27,8l0 118c0,4 -12,8 -27,8l-258 0c-15,0 -27,-4 -27,-8l0 -118c0,-4 12,-8 27,-8z"/>
   <rect class="fil14" x="867" y="105" width="16" height="13"/>
   <rect class="fil14" x="848" y="105" width="16" height="13"/>
   <rect class="fil14" x="829" y="105" width="16" height="13"/>
   <path class="fil11" d="M626 421l235 0c14,0 25,5 25,10l0 151c0,6 -11,10 -25,10l-235 0c-14,0 -25,-5 -25,-10l0 -151c0,-6 11,-10 25,-10z"/>
   <rect class="fil19" x="601" y="454" width="284" height="170"/>
   <path class="fil20" d="M626 454l235 0c14,0 25,5 25,11l0 159c0,6 -11,11 -25,11l-235 0c-14,0 -25,-5 -25,-11l0 -159c0,-6 11,-11 25,-11z"/>
   <rect class="fil14" x="849" y="432" width="16" height="13"/>
   <rect class="fil14" x="829" y="432" width="16" height="13"/>
   <rect class="fil14" x="810" y="432" width="16" height="13"/>
   <circle class="fil21" cx="675" cy="536" r="41"/>
   <polygon class="fil2" points="703,536 659,508 659,565 "/>
   <rect class="fil2" x="742" y="499" width="122" height="15"/>
   <rect class="fil2" x="742" y="528" width="42" height="15"/>
   <rect class="fil22" x="742" y="558" width="108" height="15"/>
   <rect class="fil2" x="589" y="133" width="244" height="84" rx="7" ry="7"/>
   <ellipse class="fil23" transform="matrix(0.0688316 0.000126231 -0.000128586 0.0894688 636.784 148.629)" rx="169" ry="147"/>
   <path class="fil14" d="M597 146c0,0 -1,-1 -1,-2 0,-1 1,-2 3,-2 2,0 3,1 3,2 1,0 2,0 3,0 3,0 6,1 7,3 1,-1 2,-1 3,-1 1,0 1,0 2,0 1,-2 3,-3 6,-3 3,0 5,1 6,3l1 0c2,0 4,1 4,3 0,1 -2,3 -4,3 -1,0 -1,0 -1,0 -2,1 -4,2 -6,2l0 0c0,1 -2,2 -3,2 0,0 -1,0 -1,0 -1,1 -3,2 -5,2 -2,0 -4,-1 -5,-2 -1,0 -2,0 -3,0 -3,0 -5,-1 -6,-2 0,0 -1,0 -2,0 -3,0 -5,-2 -5,-4 0,-2 2,-3 4,-3z"/>
   <path class="fil14" d="M723 147c-1,-1 -1,-1 -1,-2 0,-2 2,-4 5,-4 3,0 5,1 5,3 2,0 3,-1 5,-1 5,0 9,2 12,5 1,-1 3,-2 5,-2 1,0 2,0 3,1 2,-2 5,-4 10,-4 4,0 8,2 10,5l1 0c3,0 6,2 6,4 0,2 -3,4 -6,4 -1,0 -2,0 -2,-1 -3,2 -6,3 -9,3l0 0c-1,2 -3,3 -5,3 -1,0 -1,0 -2,0 -2,2 -5,3 -8,3 -4,0 -7,-2 -9,-4 -1,0 -3,0 -4,0 -4,0 -8,-2 -10,-4 -1,0 -2,0 -3,0 -4,0 -8,-3 -8,-6 0,-2 3,-5 6,-5z"/>
   <polygon class="fil24" points="692,186 662,217 765,217 743,198 737,188 733,180 712,140 705,163 695,185 "/>
   <polygon class="fil14" points="712,140 714,156 719,165 726,181 726,181 703,199 704,189 712,175 710,159 "/>
   <polygon class="fil14" points="692,185 674,203 695,198 "/>
   <polygon class="fil14" points="734,180 728,189 720,205 730,195 743,198 "/>
   <ellipse class="fil23" transform="matrix(0.0688316 0.000126231 -0.000128586 0.0894688 636.784 148.629)" rx="169" ry="147"/>
   <path class="fil14" d="M597 146c0,0 -1,-1 -1,-2 0,-1 1,-2 3,-2 2,0 3,1 3,2 1,0 2,0 3,0 3,0 6,1 7,3 1,-1 2,-1 3,-1 1,0 1,0 2,0 1,-2 3,-3 6,-3 3,0 5,1 6,3l1 0c2,0 4,1 4,3 0,1 -2,3 -4,3 -1,0 -1,0 -1,0 -2,1 -4,2 -6,2l0 0c0,1 -2,2 -3,2 0,0 -1,0 -1,0 -1,1 -3,2 -5,2 -2,0 -4,-1 -5,-2 -1,0 -2,0 -3,0 -3,0 -5,-1 -6,-2 0,0 -1,0 -2,0 -3,0 -5,-2 -5,-4 0,-2 2,-3 4,-3z"/>
   <path class="fil14" d="M723 147c-1,-1 -1,-1 -1,-2 0,-2 2,-4 5,-4 3,0 5,1 5,3 2,0 3,-1 5,-1 5,0 9,2 12,5 1,-1 3,-2 5,-2 1,0 2,0 3,1 2,-2 5,-4 10,-4 4,0 8,2 10,5l1 0c3,0 6,2 6,4 0,2 -3,4 -6,4 -1,0 -2,0 -2,-1 -3,2 -6,3 -9,3l0 0c-1,2 -3,3 -5,3 -1,0 -1,0 -2,0 -2,2 -5,3 -8,3 -4,0 -7,-2 -9,-4 -1,0 -3,0 -4,0 -4,0 -8,-2 -10,-4 -1,0 -2,0 -3,0 -4,0 -8,-3 -8,-6 0,-2 3,-5 6,-5z"/>
   <polygon class="fil24" points="692,186 662,217 765,217 743,198 737,188 733,180 712,140 705,163 695,185 "/>
   <polygon class="fil14" points="712,140 714,156 719,165 726,181 726,181 703,199 704,189 712,175 710,159 "/>
   <polygon class="fil14" points="692,185 674,203 695,198 "/>
   <polygon class="fil14" points="734,180 728,189 720,205 730,195 743,198 "/>
   <rect class="fil22" x="589" y="224" width="108" height="15"/>
   <rect class="fil2" x="589" y="247" width="166" height="15"/>
   <circle class="fil25" cx="1591" cy="305" r="41"/>
   <rect class="fil26" transform="matrix(-0.514008 0.956174 -0.956174 -0.514008 1591.78 303.719)" width="1" height="34"/>
   <rect class="fil26" transform="matrix(1.05751 -0.24525 0.14563 0.627952 1590.67 304.564)" width="1" height="34"/>
   <circle class="fil26" cx="1591" cy="305" r="4"/>
   <path class="fil11" d="M361 212l279 0c16,0 29,6 29,13l0 195c0,7 -13,13 -29,13l-279 0c-16,0 -29,-6 -29,-13l0 -195c0,-7 13,-13 29,-13z"/>
   <rect class="fil20" x="332" y="242" width="337" height="110"/>
   <path class="fil20" d="M361 267l279 0c16,0 29,5 29,10l0 151c0,6 -13,10 -29,10l-279 0c-16,0 -29,-5 -29,-10l0 -151c0,-6 13,-10 29,-10z"/>
   <rect class="fil14" x="641" y="221" width="16" height="13"/>
   <rect class="fil14" x="621" y="221" width="16" height="13"/>
   <rect class="fil14" x="602" y="221" width="16" height="13"/>
   <circle class="fil27" cx="385" cy="278" r="26"/>
   <circle class="fil28" cx="385" cy="343" r="26"/>
   <circle class="fil29" cx="385" cy="406" r="26"/>
   <rect class="fil30" x="427" y="255" width="204" height="11"/>
   <rect class="fil30" x="427" y="273" width="136" height="11"/>
   <rect class="fil30" x="427" y="291" width="107" height="11"/>
   <rect class="fil31" x="427" y="319" width="144" height="11"/>
   <rect class="fil31" x="427" y="337" width="117" height="11"/>
   <rect class="fil32" x="427" y="382" width="222" height="11"/>
   <rect class="fil32" x="427" y="400" width="189" height="11"/>
   <rect class="fil32" x="427" y="418" width="120" height="11"/>
   <ellipse class="fil33" cx="1096" cy="242" rx="8" ry="5"/>
   <path class="fil13" d="M1053 170c0,-26 20,-46 44,-46 24,0 43,21 43,47 0,15 -7,25 -18,34 -4,3 -5,10 -6,15l0 7 -41 -1 0 -7c0,-5 -1,-11 -4,-14 -10,-9 -18,-20 -18,-35z"/>
   <path class="fil34" d="M1102 227l-1 0 0 0 1 0zm-10 0l-1 0 1 0 0 0z"/>
   <rect class="fil35" x="1077" y="234" width="38" height="8" rx="5" ry="5"/>
   <rect class="fil23" x="1094" y="89" width="6" height="25"/>
   <rect class="fil23" transform="matrix(0.141694 0.0780712 -0.0780712 0.141694 1140.86 102.651)" width="38" height="152"/>
   <rect class="fil23" x="1094" y="89" width="6" height="25"/>
   <rect class="fil23" transform="matrix(-0.141694 0.0780712 0.0780712 0.141694 1051.24 102.651)" width="38" height="152"/>
   <path class="fil36" d="M1086 186c0,-5 -1,-6 -2,-7 -1,-1 -2,-1 -4,-1 -1,0 -2,1 -2,2 0,1 0,2 0,3 0,1 0,2 1,2 0,0 1,0 3,0 1,0 2,0 4,0zm4 3c1,8 2,25 3,33 1,8 0,10 0,10 0,0 -1,0 -2,-1 -1,-1 -1,-2 -2,-11 -1,-8 -1,-22 -2,-31 0,0 0,-1 0,-1 -11,0 -11,-1 -11,-2 -1,-1 -1,-2 -1,-3 0,-1 0,-3 1,-5 1,-1 1,-2 3,-3 1,0 3,-1 4,-1 2,0 3,0 5,2 3,2 2,8 3,9 2,0 4,0 5,0 2,0 6,0 8,0 1,-6 2,-8 3,-9 1,-1 2,-1 3,-2 1,0 2,0 4,0 1,0 3,0 4,1 1,1 2,2 2,4 0,1 0,3 0,4 0,1 -1,3 -2,3 -1,1 -3,1 -9,1 -1,8 -2,23 -2,31 -1,8 -1,9 -1,10 -1,1 -1,1 -2,0 -1,0 -1,-1 -1,-2 0,-1 0,-1 0,-9 1,-7 2,-22 3,-30m4 -3c4,0 5,0 6,0 0,0 1,-1 1,-2 0,-1 1,-2 1,-3 0,-1 -1,-2 -2,-2 -1,0 -2,0 -3,0 -1,1 -2,1 -2,2 0,1 0,2 -1,5zm-17 3c4,0 9,0 13,0"/>
   <rect class="fil35" x="1072" y="227" width="47" height="8" rx="5" ry="5"/>
   <path class="fil11" d="M234 549l184 0c11,0 19,5 19,10l0 151c0,6 -9,10 -19,10l-184 0c-11,0 -19,-5 -19,-10l0 -151c0,-6 9,-10 19,-10z"/>
   <rect class="fil19" x="214" y="583" width="223" height="170"/>
   <path class="fil37" d="M234 583l184 0c11,0 19,5 19,11l0 159c0,6 -9,11 -19,11l-184 0c-11,0 -19,-5 -19,-11l0 -159c0,-6 9,-11 19,-11z"/>
   <rect class="fil14" x="408" y="560" width="16" height="13"/>
   <rect class="fil14" x="389" y="560" width="16" height="13"/>
   <rect class="fil14" x="370" y="560" width="16" height="13"/>
   <rect class="fil38" x="232" y="601" width="140" height="68"/>
   <polygon class="fil39" points="372,601 302,635 232,601 "/>
   <rect class="fil32" x="234" y="681" width="120" height="11"/>
   <rect class="fil32" x="234" y="700" width="132" height="11"/>
   <rect class="fil32" x="234" y="721" width="164" height="11"/>
  </g>
 </g>
</svg>
