<svg width="321" height="48" viewBox="0 0 321 48" fill="none" xmlns="http://www.w3.org/2000/svg">
<path d="M10.0556 20.7733C14.0556 28.32 20.5 34.48 28.3611 38.3467L34.4722 32.48C35.2222 31.76 36.3333 31.52 37.3056 31.84C40.4167 32.8267 43.7778 33.36 47.2222 33.36C48.75 33.36 50 34.56 50 36.0267V45.3333C50 46.8 48.75 48 47.2222 48C21.1389 48 0 27.7067 0 2.66667C0 1.2 1.25 0 2.77778 0H12.5C14.0278 0 15.2778 1.2 15.2778 2.66667C15.2778 6 15.8333 9.2 16.8611 12.1867C17.1667 13.12 16.9444 14.16 16.1667 14.9067L10.0556 20.7733Z" fill="#5A5A63"/>
<path d="M71.6933 26.2822V12.2197H74.0797V26.2822H71.6933ZM65.8552 20.4442V18.0578H79.9177V20.4442H65.8552Z" fill="#5A5A63"/>
<path d="M84.5227 25.643V23.4697L94.1107 8.29929H95.6874V11.6658H94.6221L87.3778 23.1288V23.2993H100.29V25.643H84.5227ZM94.7925 30.1175V8.29929H97.3068V30.1175H94.7925Z" fill="#5A5A63"/>
<path d="M104.282 30.1175V28.1999L111.484 20.3163C112.329 19.393 113.025 18.5905 113.572 17.9087C114.119 17.2197 114.524 16.5734 114.786 15.9697C115.056 15.359 115.191 14.7197 115.191 14.0521C115.191 13.2851 115.007 12.621 114.637 12.0599C114.275 11.4989 113.778 11.0656 113.146 10.7602C112.514 10.4548 111.803 10.3021 111.015 10.3021C110.177 10.3021 109.445 10.4761 108.82 10.8242C108.203 11.1651 107.723 11.6445 107.382 12.2624C107.048 12.8803 106.882 13.6047 106.882 14.4357H104.367C104.367 13.1572 104.662 12.0351 105.252 11.0692C105.841 10.1033 106.644 9.35043 107.659 8.81066C108.682 8.27088 109.829 8.001 111.1 8.001C112.379 8.001 113.511 8.27088 114.499 8.81066C115.486 9.35043 116.26 10.0784 116.821 10.9946C117.382 11.9108 117.663 12.93 117.663 14.0521C117.663 14.8547 117.517 15.6395 117.226 16.4065C116.942 17.1665 116.445 18.0152 115.734 18.9527C115.031 19.8831 114.055 21.0195 112.805 22.3618L107.904 27.6033V27.7737H118.046V30.1175H104.282Z" fill="#5A5A63"/>
<path d="M129.563 30.4158C127.957 30.4158 126.59 29.979 125.461 29.1054C124.332 28.2247 123.469 26.9499 122.872 25.2808C122.276 23.6047 121.977 21.5805 121.977 19.2084C121.977 16.8504 122.276 14.8369 122.872 13.1679C123.476 11.4918 124.342 10.2134 125.472 9.33267C126.608 8.44489 127.972 8.001 129.563 8.001C131.154 8.001 132.514 8.44489 133.643 9.33267C134.779 10.2134 135.646 11.4918 136.242 13.1679C136.846 14.8369 137.148 16.8504 137.148 19.2084C137.148 21.5805 136.85 23.6047 136.253 25.2808C135.656 26.9499 134.793 28.2247 133.664 29.1054C132.535 29.979 131.168 30.4158 129.563 30.4158ZM129.563 28.072C131.154 28.072 132.389 27.305 133.27 25.7709C134.151 24.2368 134.591 22.0493 134.591 19.2084C134.591 17.3192 134.389 15.7105 133.984 14.3824C133.586 13.0543 133.011 12.0422 132.258 11.3462C131.512 10.6501 130.614 10.3021 129.563 10.3021C127.986 10.3021 126.754 11.0798 125.866 12.6352C124.978 14.1835 124.534 16.3746 124.534 19.2084C124.534 21.0976 124.733 22.7027 125.131 24.0237C125.529 25.3447 126.1 26.3497 126.846 27.0386C127.599 27.7276 128.504 28.072 129.563 28.072Z" fill="#5A5A63"/>
<path d="M150.315 30.1175L160.074 10.8135V10.643H148.824V8.29929H162.801V10.7709L153.085 30.1175H150.315Z" fill="#5A5A63"/>
<path d="M166.772 30.1175V28.1999L173.974 20.3163C174.819 19.393 175.515 18.5905 176.062 17.9087C176.609 17.2197 177.014 16.5734 177.277 15.9697C177.546 15.359 177.681 14.7197 177.681 14.0521C177.681 13.2851 177.497 12.621 177.127 12.0599C176.765 11.4989 176.268 11.0656 175.636 10.7602C175.004 10.4548 174.294 10.3021 173.505 10.3021C172.667 10.3021 171.936 10.4761 171.311 10.8242C170.693 11.1651 170.213 11.6445 169.872 12.2624C169.539 12.8803 169.372 13.6047 169.372 14.4357H166.858C166.858 13.1572 167.152 12.0351 167.742 11.0692C168.331 10.1033 169.134 9.35043 170.149 8.81066C171.172 8.27088 172.319 8.001 173.59 8.001C174.869 8.001 176.002 8.27088 176.989 8.81066C177.976 9.35043 178.75 10.0784 179.311 10.9946C179.872 11.9108 180.153 12.93 180.153 14.0521C180.153 14.8547 180.007 15.6395 179.716 16.4065C179.432 17.1665 178.935 18.0152 178.225 18.9527C177.522 19.8831 176.545 21.0195 175.295 22.3618L170.394 27.6033V27.7737H180.537V30.1175H166.772Z" fill="#5A5A63"/>
<path d="M191.755 30.4158C190.505 30.4158 189.379 30.1672 188.377 29.67C187.376 29.1729 186.573 28.4911 185.97 27.6246C185.366 26.7581 185.036 25.7709 184.979 24.6629H187.536C187.635 25.6501 188.083 26.4669 188.878 27.1132C189.681 27.7524 190.639 28.072 191.755 28.072C192.649 28.072 193.445 27.8625 194.141 27.4435C194.844 27.0244 195.394 26.4492 195.792 25.7176C196.197 24.979 196.399 24.1445 196.399 23.2141C196.399 22.2624 196.19 21.4136 195.771 20.6679C195.359 19.9151 194.791 19.322 194.066 18.8888C193.342 18.4555 192.514 18.2354 191.584 18.2283C190.916 18.2212 190.231 18.3242 189.528 18.5372C188.825 18.7432 188.246 19.0095 187.791 19.3362L185.32 19.0379L186.641 8.29929H197.976V10.643H188.857L188.09 17.0777H188.218C188.665 16.7226 189.226 16.4278 189.901 16.1935C190.576 15.9591 191.279 15.8419 192.01 15.8419C193.345 15.8419 194.535 16.1615 195.579 16.8007C196.63 17.4328 197.454 18.2993 198.051 19.4001C198.654 20.501 198.956 21.7581 198.956 23.1715C198.956 24.5635 198.644 25.8064 198.019 26.9001C197.401 27.9868 196.549 28.8462 195.462 29.4783C194.375 30.1033 193.139 30.4158 191.755 30.4158Z" fill="#5A5A63"/>
<path d="M218.572 8.001C219.467 8.0081 220.362 8.17856 221.257 8.51236C222.151 8.84617 222.968 9.40015 223.707 10.1743C224.445 10.9413 225.038 11.9889 225.486 13.317C225.933 14.6452 226.157 16.3107 226.157 18.3135C226.157 20.2524 225.972 21.9747 225.603 23.4804C225.241 24.979 224.715 26.2432 224.026 27.273C223.345 28.3028 222.514 29.0841 221.533 29.6168C220.56 30.1494 219.46 30.4158 218.231 30.4158C217.009 30.4158 215.919 30.1743 214.96 29.6913C214.009 29.2013 213.227 28.523 212.617 27.6565C212.013 26.783 211.626 25.7709 211.455 24.6203H214.055C214.289 25.6217 214.754 26.4492 215.45 27.1026C216.154 27.7489 217.08 28.072 218.231 28.072C219.914 28.072 221.242 27.3369 222.215 25.8668C223.195 24.3966 223.685 22.3192 223.685 19.6345H223.515C223.117 20.2311 222.645 20.746 222.098 21.1793C221.551 21.6125 220.944 21.9463 220.276 22.1807C219.609 22.4151 218.899 22.5322 218.146 22.5322C216.896 22.5322 215.749 22.2233 214.705 21.6054C213.668 20.9804 212.837 20.1246 212.212 19.0379C211.594 17.9442 211.285 16.6942 211.285 15.2879C211.285 13.9527 211.583 12.7311 212.18 11.6232C212.783 10.5081 213.629 9.62032 214.715 8.95981C215.809 8.29929 217.095 7.97969 218.572 8.001ZM218.572 10.3447C217.677 10.3447 216.871 10.5685 216.154 11.0159C215.443 11.4563 214.879 12.0528 214.46 12.8057C214.048 13.5514 213.842 14.3788 213.842 15.2879C213.842 16.197 214.041 17.0244 214.438 17.7702C214.843 18.5088 215.394 19.0983 216.09 19.5386C216.793 19.9719 217.592 20.1885 218.487 20.1885C219.161 20.1885 219.79 20.0571 220.372 19.7943C220.955 19.5244 221.462 19.1587 221.896 18.697C222.336 18.2283 222.681 17.6992 222.929 17.1097C223.178 16.5131 223.302 15.8916 223.302 15.2453C223.302 14.393 223.096 13.594 222.684 12.8483C222.279 12.1026 221.718 11.4989 221.001 11.0372C220.291 10.5756 219.481 10.3447 218.572 10.3447Z" fill="#5A5A63"/>
<path d="M238.017 8.29929V30.1175H235.375V11.0692H235.247L229.92 14.6061V11.9215L235.375 8.29929H238.017Z" fill="#5A5A63"/>
<path d="M244.292 30.1175V28.1999L251.494 20.3163C252.339 19.393 253.035 18.5905 253.582 17.9087C254.128 17.2197 254.533 16.5734 254.796 15.9697C255.066 15.359 255.201 14.7197 255.201 14.0521C255.201 13.2851 255.016 12.621 254.647 12.0599C254.285 11.4989 253.788 11.0656 253.155 10.7602C252.523 10.4548 251.813 10.3021 251.025 10.3021C250.187 10.3021 249.455 10.4761 248.83 10.8242C248.212 11.1651 247.733 11.6445 247.392 12.2624C247.058 12.8803 246.891 13.6047 246.891 14.4357H244.377C244.377 13.1572 244.672 12.0351 245.261 11.0692C245.851 10.1033 246.653 9.35043 247.669 8.81066C248.692 8.27088 249.839 8.001 251.11 8.001C252.388 8.001 253.521 8.27088 254.508 8.81066C255.496 9.35043 256.27 10.0784 256.831 10.9946C257.392 11.9108 257.673 12.93 257.673 14.0521C257.673 14.8547 257.527 15.6395 257.236 16.4065C256.952 17.1665 256.454 18.0152 255.744 18.9527C255.041 19.8831 254.065 21.0195 252.815 22.3618L247.914 27.6033V27.7737H258.056V30.1175H244.292Z" fill="#5A5A63"/>
<path d="M277.882 30.4158C276.419 30.4158 275.126 30.1565 274.004 29.6381C272.889 29.1125 272.019 28.3916 271.394 27.4754C270.769 26.5521 270.46 25.501 270.467 24.322C270.46 23.3987 270.641 22.5465 271.011 21.7652C271.38 20.9769 271.884 20.3199 272.523 19.7943C273.17 19.2617 273.891 18.9243 274.686 18.7822V18.6544C273.642 18.3845 272.811 17.7986 272.193 16.8966C271.575 15.9875 271.27 14.9541 271.277 13.7965C271.27 12.6885 271.55 11.6977 272.119 10.8242C272.687 9.95057 273.468 9.26165 274.462 8.75739C275.464 8.25313 276.604 8.001 277.882 8.001C279.146 8.001 280.276 8.25313 281.27 8.75739C282.264 9.26165 283.045 9.95057 283.614 10.8242C284.189 11.6977 284.48 12.6885 284.487 13.7965C284.48 14.9541 284.164 15.9875 283.539 16.8966C282.921 17.7986 282.101 18.3845 281.078 18.6544V18.7822C281.866 18.9243 282.577 19.2617 283.209 19.7943C283.841 20.3199 284.345 20.9769 284.722 21.7652C285.098 22.5465 285.29 23.3987 285.297 24.322C285.29 25.501 284.97 26.5521 284.338 27.4754C283.713 28.3916 282.843 29.1125 281.728 29.6381C280.62 30.1565 279.338 30.4158 277.882 30.4158ZM277.882 28.072C278.869 28.072 279.722 27.9122 280.439 27.5926C281.156 27.273 281.71 26.822 282.101 26.2396C282.491 25.6572 282.69 24.9754 282.697 24.1942C282.69 23.3703 282.477 22.6423 282.058 22.0102C281.639 21.3781 281.067 20.881 280.343 20.5188C279.626 20.1565 278.805 19.9754 277.882 19.9754C276.952 19.9754 276.121 20.1565 275.389 20.5188C274.665 20.881 274.093 21.3781 273.674 22.0102C273.262 22.6423 273.06 23.3703 273.067 24.1942C273.06 24.9754 273.248 25.6572 273.631 26.2396C274.022 26.822 274.579 27.273 275.304 27.5926C276.028 27.9122 276.888 28.072 277.882 28.072ZM277.882 17.7169C278.663 17.7169 279.356 17.5607 279.959 17.2482C280.57 16.9357 281.05 16.4989 281.398 15.9378C281.746 15.3767 281.923 14.7197 281.93 13.9669C281.923 13.2283 281.749 12.5855 281.408 12.0386C281.067 11.4847 280.595 11.0585 279.991 10.7602C279.388 10.4548 278.685 10.3021 277.882 10.3021C277.065 10.3021 276.352 10.4548 275.741 10.7602C275.13 11.0585 274.658 11.4847 274.324 12.0386C273.99 12.5855 273.827 13.2283 273.834 13.9669C273.827 14.7197 273.994 15.3767 274.334 15.9378C274.682 16.4989 275.162 16.9357 275.773 17.2482C276.383 17.5607 277.087 17.7169 277.882 17.7169Z" fill="#5A5A63"/>
<path d="M296.198 30.4158C294.948 30.4158 293.822 30.1672 292.821 29.67C291.819 29.1729 291.017 28.4911 290.413 27.6246C289.809 26.7581 289.479 25.7709 289.422 24.6629H291.979C292.079 25.6501 292.526 26.4669 293.321 27.1132C294.124 27.7524 295.083 28.072 296.198 28.072C297.093 28.072 297.888 27.8625 298.584 27.4435C299.287 27.0244 299.838 26.4492 300.236 25.7176C300.64 24.979 300.843 24.1445 300.843 23.2141C300.843 22.2624 300.633 21.4136 300.214 20.6679C299.802 19.9151 299.234 19.322 298.51 18.8888C297.785 18.4555 296.958 18.2354 296.027 18.2283C295.36 18.2212 294.674 18.3242 293.971 18.5372C293.268 18.7432 292.689 19.0095 292.235 19.3362L289.763 19.0379L291.084 8.29929H302.419V10.643H293.3L292.533 17.0777H292.661C293.108 16.7226 293.67 16.4278 294.344 16.1935C295.019 15.9591 295.722 15.8419 296.454 15.8419C297.789 15.8419 298.978 16.1615 300.022 16.8007C301.074 17.4328 301.897 18.2993 302.494 19.4001C303.098 20.501 303.4 21.7581 303.4 23.1715C303.4 24.5635 303.087 25.8064 302.462 26.9001C301.844 27.9868 300.992 28.8462 299.905 29.4783C298.819 30.1033 297.583 30.4158 296.198 30.4158Z" fill="#5A5A63"/>
<path d="M308.313 30.1175L318.072 10.8135V10.643H306.822V8.29929H320.799V10.7709L311.083 30.1175H308.313Z" fill="#5A5A63"/>
</svg>
