<svg width="2198" height="1704" viewBox="0 0 2198 1704" fill="none" xmlns="http://www.w3.org/2000/svg">
<path d="M280.304 1001.26L135.644 980.223C91.9652 968.602 106.191 931.936 106.191 931.936C153.676 891.664 225.606 929.532 281.106 946.362C281.106 946.362 312.562 962.792 306.552 979.021C306.552 979.021 298.938 1005.47 280.304 1001.06V1001.26Z" fill="#DF5B4D"/>
<path d="M45.2811 1260.53L40.4725 1244.5L34.8624 1224.66H21.8389L20.4364 1246.7L20.8371 1258.12C19.0339 1264.94 14.8263 1271.75 15.4274 1278.76C15.6278 1282.57 21.0375 1277.16 22.44 1277.16C23.2415 1277.16 18.8335 1288.98 27.0483 1280.36C27.6494 1279.76 26.4472 1287.98 28.8516 1288.58C31.857 1289.58 30.8552 1284.57 33.4599 1283.97C33.4599 1283.97 33.0591 1288.18 35.0627 1290.78C42.4761 1300 44.2793 1271.15 45.8822 1263.53L44.8804 1260.33L45.2811 1260.53Z" fill="#F8BB97"/>
<path d="M17.0307 1243.1L0 1098.44C40.4729 1072.59 51.2924 1104.85 51.2924 1104.85L45.8826 1237.89C45.8826 1237.89 38.2689 1245.1 17.0307 1243.1Z" fill="#EB8075"/>
<path d="M0.200562 1093.63L10.6193 949.969C18.4334 914.906 54.298 926.527 54.298 926.527C83.3503 935.142 80.946 967.801 80.946 967.801L51.4929 1104.85C51.4929 1104.85 45.4821 1125.69 18.4334 1124.88C18.4334 1124.88 -1.40232 1121.68 0.200562 1093.63Z" fill="#EB8075"/>
<path d="M90.1623 1651.63L100.581 1677.28L145.662 1683.69C145.662 1683.69 161.09 1687.7 161.691 1702.32H53.2959L62.1118 1651.83H89.9619L90.1623 1651.63Z" fill="#4E565A"/>
<path d="M54.6984 1238.69C53.2958 1264.94 63.7146 1286.78 89.1604 1288.18C114.606 1289.58 136.245 1269.34 137.648 1243.1C139.05 1216.85 119.615 1194.41 94.1694 1193.01C68.7236 1191.6 56.1009 1212.24 54.6984 1238.49V1238.69Z" fill="#2B2E33"/>
<path d="M182.729 1699.92L185.734 1654.64L206.371 1651.83C206.371 1651.83 214.586 1670.47 221.799 1674.87C228.812 1679.08 276.297 1686.29 276.297 1686.29C276.297 1686.29 290.924 1684.49 290.924 1702.92C290.924 1702.92 258.866 1705.93 182.528 1700.32L182.729 1699.92Z" fill="#4E565A"/>
<path d="M109.798 1239.09C111.601 1265.34 133.44 1285.17 158.886 1283.57C184.332 1281.97 203.567 1259.33 201.763 1233.08C199.96 1206.83 178.121 1187 152.675 1188.6C127.229 1190.2 107.995 1212.84 109.798 1239.09Z" fill="#2B2E33"/>
<path d="M184.332 1674.67L168.503 1553.05C155.68 1468.9 158.085 1422.42 158.085 1422.42C172.511 1368.92 218.594 1412 218.594 1412L221.599 1674.67C221.599 1674.67 206.772 1682.29 184.132 1674.67H184.332ZM57.5035 1677.48L48.4873 1525.61C48.4873 1473.11 64.9169 1420.22 64.9169 1420.22C99.1786 1384.75 120.216 1416.01 120.216 1416.01L100.381 1677.08C100.381 1677.08 73.9331 1680.08 57.5035 1677.48ZM139.05 1269.14L119.415 1419.01C119.415 1419.01 75.1353 1469.5 64.7165 1438.65C64.7165 1438.65 48.0866 1308.61 54.4981 1238.69C54.4981 1238.69 126.428 1205.03 138.85 1269.14H139.05ZM201.964 1238.89L218.594 1412C218.594 1412 200.762 1459.69 160.289 1430.43L104.989 1263.53C104.989 1263.53 129.032 1189 201.964 1238.89Z" fill="#423DBE"/>
<path d="M140.653 857.603L141.855 909.696L86.7559 911.099C86.7559 911.099 99.7793 890.061 92.1656 858.805L140.453 857.603H140.653Z" fill="#F8BB97"/>
<path d="M150.672 870.425C166.099 871.027 168.303 856.601 168.303 856.601C176.919 827.348 174.514 809.115 174.514 809.115C173.112 804.707 171.91 800.099 172.711 795.29C175.516 771.648 162.092 760.227 162.092 760.227C146.464 740.391 114.406 743.597 114.406 743.597C113.605 743.797 112.603 743.998 111.802 743.998C72.5308 747.003 66.9207 771.046 66.9207 771.046C62.9135 781.666 62.3124 793.487 64.7168 804.306C67.5218 816.929 73.1319 827.348 79.9442 838.167C87.3575 849.989 101.583 858.003 117.011 863.012L117.412 877.839L136.646 877.438C139.251 869.424 146.063 870.025 146.063 870.025H150.872L150.672 870.425Z" fill="#F8BB97"/>
<path d="M145.863 870.626C145.863 870.626 143.459 870.225 141.054 871.828L141.655 897.274L127.23 897.675C130.035 888.057 129.433 876.437 126.829 867.821C117.211 859.206 102.385 854.197 89.3613 841.373C92.9678 841.373 106.392 840.973 110.199 841.173C117.011 841.373 123.823 840.772 130.636 841.373C136.646 841.975 136.446 846.984 137.648 851.993C138.049 853.996 138.65 856 139.251 857.603C139.452 858.204 139.652 858.604 140.053 859.206C140.453 859.807 140.654 860.207 141.054 860.808C142.457 862.812 144.26 864.215 147.266 864.816C154.879 866.218 161.291 866.018 166.901 861.41C164.897 865.617 160.489 870.826 150.872 870.626H146.063H145.863Z" fill="#F8BB97"/>
<path d="M101.983 726.567C101.983 726.567 48.2866 733.779 59.3064 773.05C59.3064 773.05 47.6855 786.474 50.4906 799.899C51.6927 824.944 86.7559 857.402 86.7559 857.402C89.9616 864.014 94.7703 864.415 94.7703 864.415L112.202 864.014C119.815 863.613 122.22 858.604 122.22 858.604C135.444 842.375 142.657 836.164 142.657 836.164C149.068 828.75 140.252 814.725 140.252 814.725C133.64 798.095 150.671 799.097 150.671 799.097C157.684 802.303 155.88 816.128 155.88 816.128C158.685 815.727 161.691 812.521 161.691 812.521L160.489 792.285C161.29 786.875 160.088 785.673 164.696 782.267C197.555 773.651 182.528 731.375 182.528 731.375C182.528 731.375 176.918 738.588 166.7 739.59C166.7 739.59 176.117 724.964 158.886 707.532C158.886 707.532 151.272 723.561 102.184 726.567H101.983Z" fill="#FFED00"/>
<path d="M79.7436 1285.17C59.9078 1281.77 41.8754 1274.95 29.2526 1262.93L26.4476 1105.65L16.4296 957.983C11.0198 933.339 34.6624 926.527 34.6624 926.527L87.3573 900.079C87.3573 900.079 114.406 912.501 152.475 899.678C165.698 906.891 191.745 916.308 209.577 922.92C216.59 925.525 221.198 931.936 222 938.348C229.012 998.857 211.581 1038.33 212.783 1092.02L214.586 1272.95C214.586 1272.95 171.308 1287.98 115.608 1288.18L101.984 1266.94L79.7436 1285.57V1285.17Z" fill="#DF5B4D"/>
<path d="M141.254 883.65C141.254 883.65 110.599 881.446 94.3699 884.852L73.332 904.086C73.332 904.086 114.406 909.296 158.686 903.085L141.254 883.85V883.65Z" fill="#D6D2D2"/>
<path d="M383.491 900.881C383.491 900.881 395.713 898.276 401.323 890.462C409.337 879.843 417.552 841.974 416.951 840.171C415.949 835.763 413.545 837.967 413.545 837.967C413.545 837.967 416.951 831.556 415.348 828.951C413.745 826.547 409.938 829.953 409.938 829.953C409.938 829.953 411.541 825.545 410.139 823.541C408.736 821.538 403.928 826.346 403.928 826.346C403.928 826.346 405.531 821.738 403.527 819.734C401.523 817.931 394.11 823.742 391.505 827.548C384.092 838.568 380.886 847.384 378.482 856.801C378.482 856.801 376.478 843.377 373.272 845.381C368.464 848.186 368.664 876.637 368.664 886.254C368.464 895.871 383.29 901.281 383.29 901.281L383.491 900.881Z" fill="#F8BB97"/>
<path d="M294.33 997.054L395.111 898.677C387.698 882.247 369.866 872.83 369.866 872.83L249.85 963.393C249.85 963.393 263.675 1011.68 294.33 997.054Z" fill="#DF5B4D"/>
<path d="M1721.3 559.065L1711.68 562.471L1653.38 417.41L1662.99 413.803L1721.3 559.065Z" fill="#192F47"/>
<path d="M1711.48 570.886L1710.08 556.26L1875.58 539.83L1877.18 554.456L1711.48 570.886Z" fill="#192F47"/>
<path d="M2051.69 709.736H750.952V1458.89H2051.69V709.736Z" fill="#CFE3EB"/>
<path fill-rule="evenodd" clip-rule="evenodd" d="M2197.76 1539.43H538.971C538.971 1560.07 555.801 1576.7 576.238 1576.7H2160.49C2181.13 1576.7 2197.76 1559.87 2197.76 1539.43Z" fill="#080808"/>
<path fill-rule="evenodd" clip-rule="evenodd" d="M1079.54 915.907C1082.75 913.102 1084.15 910.498 1084.15 906.691C1084.15 898.476 1073.13 892.064 1059.11 892.064C1046.48 892.064 1035.66 897.675 1034.26 904.888C1026.45 903.084 1018.63 902.283 1010.82 902.283C987.378 902.283 967.141 910.498 956.121 921.517C951.513 917.911 942.096 915.106 932.679 915.106C928.071 915.106 923.262 916.108 918.654 916.909C909.237 907.693 893.609 901.281 873.372 901.281C853.136 901.281 834.302 908.694 826.488 918.712H821.88C806.251 918.712 793.829 926.126 793.829 934.341C793.829 942.555 806.452 949.969 821.88 949.969C826.488 949.969 829.694 948.967 832.899 948.165C845.522 956.38 859.347 960.989 875.176 960.989H876.778C879.984 967.4 889.401 972.008 901.824 972.008C905.029 972.008 908.035 972.008 911.241 971.007C919.055 979.221 933.08 983.83 950.311 983.83C967.542 983.83 983.17 978.22 990.984 969.203C997.195 971.007 1005.01 971.007 1011.22 971.007C1031.46 971.007 1048.69 965.397 1059.71 956.18C1062.91 956.981 1067.52 956.981 1072.33 956.981C1092.57 956.981 1109.8 946.763 1109.8 934.942C1109.8 925.725 1097.18 917.51 1080.14 915.707V915.507L1079.54 915.907Z" fill="white"/>
<path fill-rule="evenodd" clip-rule="evenodd" d="M1979.36 948.967C1981.37 947.164 1982.17 945.561 1982.17 943.357C1982.17 938.348 1975.36 934.341 1966.74 934.341C1959.13 934.341 1952.32 937.747 1951.31 942.155C1946.5 941.153 1941.7 940.552 1936.89 940.552C1922.46 940.552 1910.04 945.761 1903.23 952.373C1900.42 950.169 1894.61 948.366 1888.8 948.366C1886 948.366 1882.99 948.967 1880.19 949.368C1874.37 943.758 1864.76 939.751 1852.34 939.751C1839.71 939.751 1828.29 944.359 1823.48 950.57H1820.68C1811.06 950.57 1803.45 955.178 1803.45 960.187C1803.45 965.196 1811.06 969.805 1820.68 969.805C1823.48 969.805 1825.49 969.204 1827.49 968.803C1835.1 973.812 1843.72 976.617 1853.54 976.617H1854.54C1856.54 980.624 1862.15 983.429 1869.97 983.429C1871.97 983.429 1873.77 983.429 1875.78 982.828C1880.59 987.837 1889.2 990.642 1899.82 990.642C1910.44 990.642 1920.06 987.236 1924.67 981.626C1928.47 982.628 1933.28 982.628 1937.29 982.628C1949.91 982.628 1960.33 979.222 1967.14 973.612C1969.15 974.213 1971.95 974.213 1974.76 974.213C1987.38 974.213 1997.8 968.001 1997.8 960.588C1997.8 954.978 1990.18 949.969 1979.56 948.767V948.967H1979.36Z" fill="white"/>
<path fill-rule="evenodd" clip-rule="evenodd" d="M1794.43 1054.36C1797.84 1051.35 1799.44 1048.35 1799.44 1044.54C1799.44 1035.72 1787.62 1028.91 1772.59 1028.91C1759.17 1028.91 1747.55 1034.92 1745.74 1042.74C1737.33 1040.73 1728.91 1039.73 1720.5 1039.93C1695.25 1039.93 1673.61 1048.95 1661.79 1060.77C1656.78 1056.76 1646.77 1053.96 1636.55 1053.96C1631.54 1053.96 1626.53 1054.96 1621.52 1055.96C1611.5 1046.14 1594.67 1039.33 1572.83 1039.33C1550.99 1039.33 1530.96 1047.14 1522.54 1058.16H1517.53C1500.7 1058.16 1487.28 1065.98 1487.48 1074.99C1487.48 1083.81 1500.9 1091.62 1517.73 1091.62C1522.74 1091.62 1526.15 1090.62 1529.55 1089.62C1542.98 1098.44 1558.21 1103.45 1574.84 1103.24H1576.44C1579.85 1110.06 1589.86 1115.07 1603.29 1115.07C1606.69 1115.07 1610.1 1115.07 1613.31 1114.06C1621.72 1122.88 1636.75 1127.89 1655.18 1127.69C1673.61 1127.69 1690.44 1121.68 1698.86 1111.86C1705.67 1113.86 1713.89 1113.86 1720.7 1113.86C1742.54 1113.86 1760.97 1107.85 1772.59 1098.04C1776 1099.04 1781.01 1099.04 1786.02 1099.04C1807.86 1099.04 1826.29 1088.22 1826.29 1075.39C1826.29 1065.58 1812.86 1056.76 1794.43 1054.76V1054.36Z" fill="white"/>
<path d="M1334.6 1486.94H971.75V1515.59H1334.6V1486.94Z" fill="#737373"/>
<path fill-rule="evenodd" clip-rule="evenodd" d="M2197.76 1539.43H538.971C538.971 1543.84 539.772 1548.25 541.175 1551.45C542.577 1555.46 543.98 1557.66 544.38 1558.06H2192.55C2192.75 1557.86 2197.96 1550.85 2197.96 1539.43H2197.76Z" fill="#9C9C9C"/>
<path fill-rule="evenodd" clip-rule="evenodd" d="M1231.62 1092.23C1191.55 1092.23 1151.47 1092.23 1111.4 1092.23C1058.71 1197.21 1006.01 1302.4 953.316 1407.39C1101.98 1410 1250.65 1412.8 1399.32 1415.61C1343.42 1307.81 1287.52 1200.02 1231.62 1092.23Z" fill="#99B6C8"/>
<path fill-rule="evenodd" clip-rule="evenodd" d="M1222 1119.27C1188.34 1119.27 1154.68 1119.27 1121.22 1119.27C1076.94 1207.43 1032.86 1295.59 988.58 1383.75C1113.4 1386.15 1238.03 1388.36 1362.85 1390.56C1315.97 1300 1269.09 1209.64 1222.2 1119.07L1222 1119.27Z" fill="#99B6C8"/>
<path fill-rule="evenodd" clip-rule="evenodd" d="M1633.14 1285.77C1586.06 1285.77 1547.99 1311.62 1547.99 1343.48C1547.99 1375.33 1586.06 1401.18 1633.14 1401.18C1680.23 1401.18 1718.29 1375.33 1718.29 1343.48C1718.29 1311.62 1680.23 1285.77 1633.14 1285.77Z" fill="#99B6C8"/>
<path fill-rule="evenodd" clip-rule="evenodd" d="M1502.51 1279.36C1469.04 1279.36 1442 1302.2 1442 1330.25C1442 1358.3 1469.04 1381.15 1502.51 1381.15C1535.97 1381.15 1563.01 1358.3 1563.01 1330.25C1563.01 1302.2 1535.97 1279.36 1502.51 1279.36Z" fill="#99B6C8"/>
<path fill-rule="evenodd" clip-rule="evenodd" d="M1405.53 1263.13C1362.65 1263.13 1327.79 1286.78 1327.79 1315.83C1327.79 1344.88 1362.65 1368.52 1405.53 1368.52C1448.41 1368.52 1483.27 1344.88 1483.27 1315.83C1483.27 1286.78 1448.41 1263.13 1405.53 1263.13Z" fill="#99B6C8"/>
<path fill-rule="evenodd" clip-rule="evenodd" d="M1308.36 1205.63C1252.86 1205.63 1207.78 1240.29 1207.78 1282.97C1207.78 1325.85 1252.86 1360.31 1308.36 1360.31C1363.86 1360.31 1408.94 1325.65 1408.94 1282.97C1408.94 1240.09 1363.86 1205.63 1308.36 1205.63Z" fill="#99B6C8"/>
<path fill-rule="evenodd" clip-rule="evenodd" d="M1707.67 1299.8C1660.59 1299.8 1622.52 1325.65 1622.52 1357.5C1622.52 1389.36 1660.59 1415.21 1707.67 1415.21C1754.76 1415.21 1792.83 1389.36 1792.83 1357.5C1792.83 1325.65 1754.76 1299.8 1707.67 1299.8Z" fill="#99B6C8"/>
<path fill-rule="evenodd" clip-rule="evenodd" d="M1811.26 1334.86C1785.82 1334.86 1764.98 1348.89 1764.98 1366.12C1764.98 1383.35 1785.62 1397.37 1811.26 1397.37C1836.71 1397.37 1857.55 1383.35 1857.55 1366.12C1857.55 1348.89 1836.91 1334.86 1811.26 1334.86Z" fill="#99B6C8"/>
<path fill-rule="evenodd" clip-rule="evenodd" d="M1633.14 1285.77C1586.06 1285.77 1547.99 1311.62 1547.99 1343.48C1547.99 1375.33 1586.06 1401.18 1633.14 1401.18C1680.23 1401.18 1718.29 1375.33 1718.29 1343.48C1718.29 1311.62 1680.23 1285.77 1633.14 1285.77Z" fill="#99B6C8"/>
<path fill-rule="evenodd" clip-rule="evenodd" d="M1917.05 1345.68C1891.61 1345.68 1870.77 1359.71 1870.77 1376.94C1870.77 1394.17 1891.41 1408.19 1917.05 1408.19C1942.5 1408.19 1963.34 1394.17 1963.34 1376.94C1963.34 1359.71 1942.7 1345.68 1917.05 1345.68Z" fill="#99B6C8"/>
<path fill-rule="evenodd" clip-rule="evenodd" d="M1811.26 1334.86C1785.82 1334.86 1764.98 1348.89 1764.98 1366.12C1764.98 1383.35 1785.62 1397.37 1811.26 1397.37C1836.71 1397.37 1857.55 1383.35 1857.55 1366.12C1857.55 1348.89 1836.91 1334.86 1811.26 1334.86Z" fill="#99B6C8"/>
<path fill-rule="evenodd" clip-rule="evenodd" d="M2042.48 1322.84C2017.03 1322.84 1996.19 1336.87 1996.19 1354.1C1996.19 1371.33 2016.83 1385.35 2042.48 1385.35C2067.92 1385.35 2059.91 1370.33 2059.91 1353.09C2059.91 1335.86 2067.92 1322.84 2042.48 1322.84Z" fill="#99B6C8"/>
<path fill-rule="evenodd" clip-rule="evenodd" d="M1979.76 1328.65C1954.32 1328.65 1933.48 1342.68 1933.48 1359.91C1933.48 1377.14 1954.12 1391.16 1979.76 1391.16C2005.21 1391.16 2026.05 1377.14 2026.05 1359.91C2026.05 1342.68 2005.41 1328.65 1979.76 1328.65Z" fill="#99B6C8"/>
<path fill-rule="evenodd" clip-rule="evenodd" d="M1878.38 1337.07C1852.94 1337.07 1832.1 1351.09 1832.1 1368.32C1832.1 1385.55 1852.74 1399.58 1878.38 1399.58C1903.83 1399.58 1924.67 1385.55 1924.67 1368.32C1924.67 1351.09 1904.03 1337.07 1878.38 1337.07Z" fill="#99B6C8"/>
<path fill-rule="evenodd" clip-rule="evenodd" d="M811.461 1285.77C838.91 1285.77 861.15 1311.62 861.15 1343.48C861.15 1375.33 838.91 1401.18 811.461 1401.18C784.012 1401.18 761.771 1375.33 761.771 1343.48C761.771 1311.62 784.012 1285.77 811.461 1285.77Z" fill="#99B6C8"/>
<path fill-rule="evenodd" clip-rule="evenodd" d="M909.838 1279.36C943.298 1279.36 970.347 1302.2 970.347 1330.25C970.347 1358.3 943.298 1381.15 909.838 1381.15C876.378 1381.15 849.329 1358.3 849.329 1330.25C849.329 1302.2 876.378 1279.36 909.838 1279.36Z" fill="#99B6C8"/>
<path fill-rule="evenodd" clip-rule="evenodd" d="M994.191 1246.1C1044.08 1246.1 1084.35 1273.55 1084.35 1307.21C1084.35 1340.87 1044.08 1368.32 994.191 1368.32C944.301 1368.32 904.028 1340.87 904.028 1307.21C904.028 1273.55 944.301 1246.1 994.191 1246.1Z" fill="#99B6C8"/>
<path fill-rule="evenodd" clip-rule="evenodd" d="M1220.8 1157.94C1188.94 1157.94 1156.88 1157.94 1125.03 1157.94C1083.15 1241.69 1041.07 1325.24 998.999 1409C1117.41 1411.2 1235.83 1413.2 1354.24 1415.41C1309.76 1329.45 1265.08 1243.7 1220.6 1157.74L1220.8 1157.94Z" fill="#FEFEFE"/>
<path fill-rule="evenodd" clip-rule="evenodd" d="M1611.3 1316.23C1566.62 1316.23 1530.56 1340.67 1530.56 1370.93C1530.56 1401.18 1566.82 1425.63 1611.3 1425.63C1655.98 1425.63 1692.05 1401.18 1692.05 1370.93C1692.05 1340.67 1655.78 1316.23 1611.3 1316.23Z" fill="#FEFEFE"/>
<path fill-rule="evenodd" clip-rule="evenodd" d="M1487.28 1310.02C1455.62 1310.02 1429.77 1331.66 1429.77 1358.3C1429.77 1384.95 1455.42 1406.59 1487.28 1406.59C1518.93 1406.59 1544.78 1384.95 1544.78 1358.3C1544.78 1331.66 1519.14 1310.02 1487.28 1310.02Z" fill="#FEFEFE"/>
<path fill-rule="evenodd" clip-rule="evenodd" d="M1395.11 1294.59C1354.44 1294.59 1321.38 1317.03 1321.38 1344.68C1321.38 1372.33 1354.44 1394.77 1395.11 1394.77C1435.78 1394.77 1468.84 1372.33 1468.84 1344.68C1468.84 1317.03 1435.78 1294.59 1395.11 1294.59Z" fill="#FEFEFE"/>
<path fill-rule="evenodd" clip-rule="evenodd" d="M1305.75 1235.28C1251.25 1235.28 1207.17 1269.14 1207.17 1311.02C1207.17 1352.89 1251.25 1386.76 1305.75 1386.76C1360.25 1386.76 1404.33 1352.89 1404.33 1311.02C1404.33 1269.14 1360.25 1235.28 1305.75 1235.28Z" fill="#FEFEFE"/>
<path d="M2045.48 1375.74H769.386V1459.09H2045.48V1375.74Z" fill="#FEFEFE"/>
<path fill-rule="evenodd" clip-rule="evenodd" d="M1681.83 1329.45C1637.15 1329.45 1601.08 1353.9 1601.08 1384.15C1601.08 1414.41 1637.35 1438.85 1681.83 1438.85C1726.51 1438.85 1762.57 1414.41 1762.57 1384.15C1762.57 1353.9 1726.31 1329.45 1681.83 1329.45Z" fill="#FEFEFE"/>
<path fill-rule="evenodd" clip-rule="evenodd" d="M1780.41 1362.71C1756.16 1362.71 1736.53 1375.94 1736.53 1392.37C1736.53 1408.79 1756.16 1422.02 1780.41 1422.02C1804.65 1422.02 1824.29 1408.79 1824.29 1392.37C1824.29 1375.94 1804.65 1362.71 1780.41 1362.71Z" fill="#FEFEFE"/>
<path fill-rule="evenodd" clip-rule="evenodd" d="M1611.3 1316.23C1566.62 1316.23 1530.56 1340.67 1530.56 1370.93C1530.56 1401.18 1566.82 1425.63 1611.3 1425.63C1655.98 1425.63 1692.05 1401.18 1692.05 1370.93C1692.05 1340.67 1655.78 1316.23 1611.3 1316.23Z" fill="#FEFEFE"/>
<path fill-rule="evenodd" clip-rule="evenodd" d="M1880.79 1372.93C1856.54 1372.93 1836.91 1386.15 1836.91 1402.58C1836.91 1419.01 1856.54 1432.24 1880.79 1432.24C1905.03 1432.24 1924.67 1419.01 1924.67 1402.58C1924.67 1386.15 1905.03 1372.93 1880.79 1372.93Z" fill="#FEFEFE"/>
<path fill-rule="evenodd" clip-rule="evenodd" d="M1780.41 1362.71C1756.16 1362.71 1736.53 1375.94 1736.53 1392.37C1736.53 1408.79 1756.16 1422.02 1780.41 1422.02C1804.65 1422.02 1824.29 1408.79 1824.29 1392.37C1824.29 1375.94 1804.65 1362.71 1780.41 1362.71Z" fill="#FEFEFE"/>
<path fill-rule="evenodd" clip-rule="evenodd" d="M823.684 1316.23C855.741 1316.23 881.588 1340.67 881.588 1370.93C881.588 1401.18 855.741 1425.63 823.684 1425.63C791.626 1425.63 765.779 1401.18 765.779 1370.93C765.779 1340.67 791.626 1316.23 823.684 1316.23Z" fill="#FEFEFE"/>
<path fill-rule="evenodd" clip-rule="evenodd" d="M1999.8 1351.29C1975.56 1351.29 1955.92 1364.52 1955.92 1380.94C1955.92 1397.37 1975.56 1410.6 1999.8 1410.6C2024.04 1410.6 2043.68 1397.37 2043.68 1380.94C2043.68 1364.52 2024.04 1351.29 1999.8 1351.29Z" fill="#FEFEFE"/>
<path fill-rule="evenodd" clip-rule="evenodd" d="M2046.69 1459.09H781.808V709.937H2046.69V1459.09ZM2021.64 648.226H808.456C776.799 648.226 750.952 676.076 750.952 709.937V1539.43H2079.14V709.937C2079.14 676.076 2053.3 648.226 2021.64 648.226Z" fill="#1F1B20"/>
<path fill-rule="evenodd" clip-rule="evenodd" d="M1335.61 710.537C1362.05 728.169 1397.12 757.422 1420.56 795.49C1444 833.559 1455.62 880.443 1458.63 903.886C1461.63 927.328 1455.62 927.328 1446.81 918.512C1437.99 909.696 1426.17 892.064 1408.74 871.628C1391.11 850.99 1367.66 827.749 1344.22 812.922C1320.78 798.295 1297.34 792.285 1285.52 771.848C1273.69 751.211 1273.69 716.148 1282.51 701.521C1291.33 686.895 1308.96 692.705 1335.2 710.337L1335.61 710.537Z" fill="#FF8C81"/>
<path fill-rule="evenodd" clip-rule="evenodd" d="M1335.61 710.537C1362.05 728.169 1397.12 757.422 1420.56 795.49C1444 833.559 1455.62 880.443 1458.63 903.886C1461.63 927.328 1455.62 927.328 1446.81 918.512C1437.99 909.696 1426.17 892.064 1408.74 871.628C1391.11 850.99 1367.66 827.749 1344.22 812.922C1320.78 798.295 1297.34 792.285 1285.52 771.848C1273.69 751.211 1273.69 716.148 1282.51 701.521C1291.33 686.895 1308.96 692.705 1335.2 710.337L1335.61 710.537Z" fill="#E84848"/>
<path fill-rule="evenodd" clip-rule="evenodd" d="M993.388 710.537C966.941 728.169 931.878 757.422 908.435 795.49C884.993 833.559 873.372 880.443 870.367 903.886C867.361 927.328 873.372 927.328 882.188 918.512C891.004 909.696 902.825 892.064 920.257 871.628C937.888 850.99 961.331 827.749 984.773 812.922C1008.22 798.295 1031.66 792.285 1043.48 771.848C1055.3 751.211 1055.3 716.148 1046.48 701.521C1037.67 686.895 1020.04 692.705 993.789 710.337L993.388 710.537Z" fill="#E84848"/>
<path fill-rule="evenodd" clip-rule="evenodd" d="M1011.22 925.325H1025.85L1042.08 986.034H1164.9H1287.72L1303.95 925.325H1318.57C1337.61 754.417 1356.64 583.509 1331 447.464C1305.35 311.419 1235.02 210.237 1164.7 109.055C1094.37 210.237 1024.04 311.419 998.397 447.464C972.751 583.509 991.785 754.417 1010.82 925.325H1011.22Z" fill="#F5F5F5"/>
<path fill-rule="evenodd" clip-rule="evenodd" d="M1165.1 370.125C1126.23 370.125 1094.77 401.582 1094.77 440.452C1094.77 479.322 1126.23 510.778 1165.1 510.778C1203.97 510.778 1235.42 479.322 1235.42 440.452C1235.42 401.582 1203.97 370.125 1165.1 370.125ZM1165.1 352.493C1116.61 352.493 1077.14 391.964 1077.14 440.452C1077.14 488.939 1116.61 528.41 1165.1 528.41C1213.59 528.41 1253.06 488.939 1253.06 440.452C1253.06 391.964 1213.59 352.493 1165.1 352.493Z" fill="#3B84CC"/>
<path fill-rule="evenodd" clip-rule="evenodd" d="M1165.1 109.255C1129.83 160.147 1093.77 212.04 1064.12 267.34H1266.08C1236.43 212.24 1200.36 159.946 1165.1 109.255Z" fill="#E84848"/>
<path fill-rule="evenodd" clip-rule="evenodd" d="M1165.1 370.125C1126.23 370.125 1094.77 401.581 1094.77 440.451C1094.77 479.321 1126.23 510.778 1165.1 510.778C1203.97 510.778 1235.42 479.321 1235.42 440.451C1235.42 401.581 1203.97 370.125 1165.1 370.125Z" fill="url(#paint0_linear_33_74)"/>
<path fill-rule="evenodd" clip-rule="evenodd" d="M1011.22 925.324H1026.05L1042.28 986.034H1165.1H1287.92L1304.35 925.324H1318.97H1011.22Z" fill="#1F1B20"/>
<path fill-rule="evenodd" clip-rule="evenodd" d="M1181.13 886.855C1177.92 921.117 1153.08 920.516 1149.67 886.054C1122.02 601.942 1208.38 602.543 1181.13 886.855Z" fill="#E84848"/>
<path fill-rule="evenodd" clip-rule="evenodd" d="M1165.1 1244.3C1212.58 1174.77 1260.07 1105.45 1260.07 1062.37C1260.07 1019.29 1215.39 986.234 1165.1 986.234C1114.81 986.234 1070.13 1019.49 1070.13 1062.37C1070.13 1105.45 1117.61 1174.77 1165.1 1244.3Z" fill="#FF8C81"/>
<path fill-rule="evenodd" clip-rule="evenodd" d="M1165.1 1211.64C1202.77 1150.93 1240.43 1090.22 1240.43 1052.75C1240.43 1015.09 1205.17 986.234 1165.1 986.234C1125.23 986.234 1089.96 1015.29 1089.96 1052.75C1089.96 1090.42 1127.63 1150.93 1165.1 1211.64Z" fill="#FFED00"/>
<path fill-rule="evenodd" clip-rule="evenodd" d="M1165.1 1154.94C1184.53 1109.46 1204.17 1064.17 1204.17 1035.92C1204.17 1007.87 1185.73 986.034 1165.1 986.034C1144.46 986.034 1126.03 1007.67 1126.03 1035.92C1126.03 1063.97 1145.46 1109.46 1165.1 1154.94Z" fill="#FEFEFE"/>
<path fill-rule="evenodd" clip-rule="evenodd" d="M1201.76 1134.9C1220 1088.62 1238.23 1042.34 1232.82 1017.69C1227.21 992.846 1197.16 979.622 1168.1 986.234C1139.05 992.846 1117.81 1017.69 1123.22 1042.54C1128.83 1067.38 1165.3 1101.24 1201.76 1135.1V1134.9Z" fill="#FF8C81"/>
<path fill-rule="evenodd" clip-rule="evenodd" d="M1197.56 1116.07C1211.38 1076.2 1225.01 1036.32 1220.2 1014.69C1215.39 993.047 1191.14 981.025 1168.1 986.034C1145.06 991.243 1128.43 1012.48 1133.44 1034.32C1138.25 1055.96 1167.9 1086.01 1197.56 1116.07Z" fill="#FFED00"/>
<path fill-rule="evenodd" clip-rule="evenodd" d="M1190.14 1083.41C1195.55 1054.76 1200.76 1025.91 1197.16 1009.68C1193.55 993.447 1180.13 983.229 1168.1 986.034C1156.08 988.638 1148.47 1003.67 1152.07 1019.89C1155.68 1036.12 1172.91 1059.77 1190.14 1083.41Z" fill="#FEFEFE"/>
<path fill-rule="evenodd" clip-rule="evenodd" d="M1201.76 1134.9C1220 1088.62 1238.23 1042.34 1232.82 1017.69C1227.21 992.846 1197.16 979.622 1168.1 986.234C1139.05 992.846 1117.81 1017.69 1123.22 1042.54C1128.83 1067.38 1165.3 1101.24 1201.76 1135.1V1134.9Z" fill="#FF8C81"/>
<path fill-rule="evenodd" clip-rule="evenodd" d="M1197.56 1116.07C1211.38 1076.2 1225.01 1036.32 1220.2 1014.69C1215.39 993.047 1191.14 981.025 1168.1 986.034C1145.06 991.243 1128.43 1012.48 1133.44 1034.32C1138.25 1055.96 1167.9 1086.01 1197.56 1116.07Z" fill="#FFED00"/>
<path fill-rule="evenodd" clip-rule="evenodd" d="M1190.14 1083.41C1195.55 1054.76 1200.76 1025.91 1197.16 1009.68C1193.55 993.447 1180.13 983.229 1168.1 986.034C1156.08 988.638 1148.47 1003.67 1152.07 1019.89C1155.68 1036.12 1172.91 1059.77 1190.14 1083.41Z" fill="#FEFEFE"/>
<path fill-rule="evenodd" clip-rule="evenodd" d="M1125.83 1102.44C1157.68 1078.4 1189.74 1054.36 1196.35 1034.92C1202.97 1015.49 1187.74 993.848 1165.1 986.234C1142.46 978.62 1117.21 986.835 1110.8 1006.07C1104.19 1025.5 1115.01 1063.97 1126.03 1102.44H1125.83Z" fill="#FF8C81"/>
<path fill-rule="evenodd" clip-rule="evenodd" d="M1130.84 1087.82C1157.08 1066.18 1183.13 1044.54 1188.94 1027.51C1194.75 1010.48 1183.13 992.044 1165.1 986.034C1147.27 980.023 1126.83 987.636 1121.02 1004.67C1115.21 1021.7 1123.02 1054.76 1130.84 1087.82Z" fill="#FFED00"/>
<path fill-rule="evenodd" clip-rule="evenodd" d="M1139.45 1062.37C1155.08 1044.74 1170.91 1027.31 1175.12 1014.69C1179.32 1002.06 1174.31 989.44 1165.1 986.234C1155.68 983.028 1144.26 990.041 1140.05 1002.66C1135.85 1015.29 1137.65 1038.73 1139.45 1062.17V1062.37Z" fill="#FEFEFE"/>
<path fill-rule="evenodd" clip-rule="evenodd" d="M1940.29 1356.7C1916.05 1356.7 1896.42 1369.92 1896.42 1386.35C1896.42 1402.78 1916.05 1416.01 1940.29 1416.01C1964.54 1416.01 1984.17 1402.78 1984.17 1386.35C1984.17 1369.92 1964.54 1356.7 1940.29 1356.7Z" fill="#FEFEFE"/>
<path fill-rule="evenodd" clip-rule="evenodd" d="M1844.12 1364.72C1819.88 1364.72 1800.24 1377.94 1800.24 1394.37C1800.24 1410.8 1819.88 1424.02 1844.12 1424.02C1868.36 1424.02 1888 1410.8 1888 1394.37C1888 1377.94 1868.36 1364.72 1844.12 1364.72Z" fill="#FEFEFE"/>
<path fill-rule="evenodd" clip-rule="evenodd" d="M924.665 1310.02C956.322 1310.02 982.168 1331.66 982.168 1358.3C982.168 1384.95 956.522 1406.59 924.665 1406.59C893.008 1406.59 867.161 1384.95 867.161 1358.3C867.161 1331.66 892.807 1310.02 924.665 1310.02Z" fill="#FEFEFE"/>
<path fill-rule="evenodd" clip-rule="evenodd" d="M1005.01 1278.76C1052.09 1278.76 1090.36 1304.61 1090.36 1336.67C1090.36 1368.52 1052.09 1394.57 1005.01 1394.57C957.925 1394.57 919.656 1368.72 919.656 1336.67C919.656 1304.81 957.925 1278.76 1005.01 1278.76Z" fill="#FEFEFE"/>
<path d="M1952.72 147.925L1961.53 141.513C1982.77 124.683 1989.38 100.84 1992.19 75.1936L1995.59 73.9914C2006.81 69.5835 2014.83 63.3723 2019.44 52.1521C2023.24 43.1359 2023.04 32.3164 2019.24 23.3002C2015.43 14.0836 2009.42 7.07094 2000.2 3.26408C1991.39 -0.542775 1981.77 -0.943496 1972.75 2.86336C1961.13 7.87238 1956.12 17.4897 1951.71 28.7099C1933.28 19.894 1913.04 17.089 1893.01 22.6991C1883.39 25.3038 1873.77 30.1124 1866.56 36.9247C1863.36 40.1305 1860.55 43.737 1857.14 46.9427C1853.14 50.7496 1848.53 53.755 1845.92 58.764C1837.91 73.19 1837.51 87.8163 1841.92 103.444C1884.59 135.502 1902.83 140.912 1939.09 130.293C1943.1 135.502 1949.91 142.114 1952.52 148.125V147.925H1952.72Z" fill="#6E3C36"/>
<path d="M1846.32 127.287C1848.93 118.872 1845.32 111.259 1842.32 103.444C1844.52 96.6322 1845.12 90.0203 1846.93 83.4084C1848.73 76.9968 1850.53 77.9986 1853.34 71.9878C1862.75 89.6195 1877.38 94.4282 1896.62 100.239L1913.04 104.847L1919.66 125.885C1920.26 116.668 1919.46 105.849 1927.27 99.4372C1929.88 97.2333 1932.08 96.8325 1935.28 96.6322C1939.89 99.2369 1943.5 101.641 1945.3 107.051C1946.51 111.058 1946.3 115.666 1944.3 119.473L1939.49 126.887V130.493C1937.89 145.119 1923.86 159.145 1913.85 168.962L1910.84 171.567C1903.03 176.977 1889 185.192 1879.18 182.988C1868.97 180.784 1861.75 167.36 1858.55 158.343C1857.14 154.336 1856.14 148.726 1853.74 145.32C1852.34 143.316 1848.33 143.517 1845.92 143.116C1842.92 142.114 1838.71 142.114 1838.71 138.908C1838.91 135.703 1843.52 131.295 1846.32 127.688V127.287ZM1939.49 130.293C1937.89 144.919 1923.86 158.944 1913.85 168.762C1918.86 178.78 1923.06 189.399 1919.06 200.82L1918.45 202.423L1921.06 207.432C1924.67 207.632 1928.47 207.832 1931.88 207.031C1946.3 203.625 1969.75 196.412 1977.56 183.789C1972.35 173.37 1956.32 159.145 1952.92 148.125C1950.31 142.114 1943.5 135.502 1939.49 130.293Z" fill="#F8BB97"/>
<path d="M1674.21 816.929L1702.87 827.548C1702.87 827.548 1786.02 727.568 1791.23 687.095C1795.23 636.003 1918.25 655.438 1974.96 648.225C2031.26 641.213 2054.9 611.76 2050.29 567.079C2058.31 518.592 1760.97 607.752 1760.97 607.752L1674.42 816.929H1674.21Z" fill="#E65B4E"/>
<path d="M2042.08 559.866C2042.08 559.866 2069.73 656.24 1947.71 648.025C1851.53 641.413 1818.47 638.808 1792.43 639.41C1799.44 686.695 1816.67 828.55 1808.46 851.191L1769.39 859.005C1769.39 859.005 1675.02 595.531 1739.13 571.487C1803.25 547.444 1953.12 554.657 1953.12 554.657L2042.08 560.267V560.067V559.866Z" fill="#FF5A46"/>
<path d="M2035.67 328.249C2029.45 364.515 2021.64 402.984 2025.85 439.45C2029.25 468.302 2048.49 540.632 2048.49 559.466C2053.9 574.092 1897.82 591.323 1876.78 552.052C1879.78 526.406 1883.99 498.356 1883.99 472.91C1887.4 444.659 1894.41 415.607 1884.99 388.758C1879.38 373.13 1861.55 341.073 1856.94 324.843C1860.75 279.361 1886.6 243.296 1902.02 218.852C1917.45 194.408 1913.04 200.82 1920.66 194.408L1922.06 201.02C1925.47 201.822 1929.07 203.024 1932.48 202.623C1947.11 201.221 1964.34 190.401 1974.35 176.977C2020.24 186.795 2020.04 191.603 2036.07 207.632C2066.72 238.287 2084.35 343.277 2093.77 386.955C2078.74 394.569 2060.71 394.569 2042.68 402.383C2040.27 384.35 2060.51 360.307 2035.67 328.249Z" fill="#967BB6"/>
<path d="M2107.19 446.061C2078.94 349.087 2091.37 334.06 2049.09 342.275C2032.86 345.48 2062.11 481.125 2084.35 473.912C2084.35 473.912 2113.81 464.695 2107.19 446.061Z" fill="#F8BB97"/>
<path d="M2083.15 474.112L1913.65 537.025C1898.82 519.393 1910.44 508.774 1910.44 508.774L2081.35 419.213C2081.35 419.213 2116.81 446.262 2083.15 473.911V474.112Z" fill="#F8BB97"/>
<path d="M1922.86 526.206C1922.86 526.206 1918.65 536.825 1909.64 540.431C1897.42 545.641 1856.94 545.841 1854.94 545.039C1850.53 543.437 1853.14 541.633 1853.14 541.633C1853.14 541.633 1845.92 543.437 1843.52 541.633C1841.11 539.83 1845.12 536.825 1845.12 536.825C1845.12 536.825 1840.31 537.426 1838.31 535.823C1836.51 534.22 1841.92 530.814 1841.92 530.814C1841.92 530.814 1836.71 531.415 1835.1 529.211C1833.3 527.007 1840.51 521.597 1844.92 519.794C1857.34 515.186 1867.16 513.783 1877.18 513.583C1877.18 513.583 1863.56 509.375 1865.76 506.771C1869.37 502.763 1899.02 508.574 1909.04 510.177C1919.06 511.98 1922.86 526.005 1922.86 526.005V526.206Z" fill="#F8BB97"/>
<path d="M2017.03 328.85C2023.84 289.179 2002.2 229.271 2037.47 210.036C2039.27 209.034 2066.12 288.177 2079.54 326.646L2093.97 387.155C2077.74 391.964 2061.71 400.579 2042.68 405.388C2039.67 387.957 2036.47 364.715 2017.23 329.051L2017.03 328.85Z" fill="#967BB6"/>
<path d="M1594.87 834.962L1594.47 837.566L1682.83 880.844L1684.23 878.24C1688.44 870.225 1691.04 860.408 1694.05 851.792L1664 839.169C1649.77 835.963 1635.54 833.96 1621.12 832.357C1616.51 831.956 1611.1 830.754 1606.49 831.355C1602.69 831.756 1598.68 833.559 1595.07 835.162L1594.87 834.962Z" fill="black"/>
<path d="M1717.09 912.902L1718.09 915.507L1815.67 902.884L1815.27 899.879C1814.27 890.863 1811.06 881.245 1808.86 872.229L1777 878.24C1763.38 883.449 1750.35 889.46 1737.53 896.272C1733.32 898.476 1728.11 900.48 1724.71 903.485C1721.7 906.09 1719.3 909.696 1717.09 912.902Z" fill="black"/>
<path fill-rule="evenodd" clip-rule="evenodd" d="M1807.45 872.429L1805.05 851.592L1772.59 858.204L1776.8 878.24L1807.45 872.429Z" fill="#F8BB97"/>
<path fill-rule="evenodd" clip-rule="evenodd" d="M1691.85 850.79L1701.26 826.947L1677.42 818.332L1666.4 839.971L1691.85 850.79Z" fill="#F8BB97"/>
<defs>
<linearGradient id="paint0_linear_33_74" x1="1239.73" y1="474.819" x2="1090.48" y2="406.22" gradientUnits="userSpaceOnUse">
<stop stop-color="#CFE3EB"/>
<stop offset="0.74902" stop-color="#9BD3DE"/>
<stop offset="1" stop-color="#66C3D0"/>
</linearGradient>
</defs>
</svg>
