<svg xmlns="http://www.w3.org/2000/svg" xmlns:xlink="http://www.w3.org/1999/xlink" fill="none" viewBox="0 0 2630 1704">
  <defs>
    <path id="c" fill="#FF8C81" fill-rule="evenodd" d="M1202 1135c18-46 36-93 31-117-6-25-36-38-65-32-29 7-50 32-45 57 6 24 42 58 79 92Z" clip-rule="evenodd"/>
    <path id="d" fill="#FFED00" fill-rule="evenodd" d="M1198 1116c13-40 27-80 22-101-5-22-29-34-52-29s-40 26-35 48 35 52 65 82Z" clip-rule="evenodd"/>
    <path id="e" fill="#FEFEFE" fill-rule="evenodd" d="M1190 1083c6-28 11-57 7-73-3-17-17-27-29-24s-20 18-16 34 21 40 38 63Z" clip-rule="evenodd"/>
  </defs>
  <g clip-path="url(#a)">
    <path fill="#E84848" d="m425 1008-144-21c-44-12-30-49-30-49 48-40 120-2 175 15 0 0 32 16 26 32 0 0-8 27-27 23Z"/>
    <path fill="#F8BB97" d="m190 1267-5-16-5-20h-13l-2 22 1 12c-2 6-6 13-6 20 1 4 6-1 7-1s-3 11 5 3c1-1-1 7 2 8s2-4 4-5c0 0 0 5 2 7 7 9 9-19 11-27l-1-3Z"/>
    <path fill="#EB8075" d="m162 1250-17-145c40-26 51 6 51 6l-5 133s-8 8-29 6Z"/>
    <path fill="#EB8075" d="m145 1100 11-144c7-35 43-23 43-23 29 9 27 41 27 41l-30 137s-6 21-33 20c0 0-19-3-18-31Z"/>
    <path fill="#4E565A" d="m235 1658 11 26 45 6s15 4 16 19H198l9-51h28Z"/>
    <path fill="#2B2E33" d="M200 1245c-2 26 9 48 34 50 26 1 47-19 49-45 1-27-18-49-44-51-25-1-38 20-39 46Z"/>
    <path fill="#4E565A" d="m328 1706 3-45 20-3s9 19 16 23c7 5 54 12 54 12s15-2 15 16c0 0-32 3-108-2v-1Z"/>
    <path fill="#2B2E33" d="M255 1246c2 26 23 46 49 44 25-2 45-24 43-50-2-27-24-47-49-45-26 2-45 24-43 51Z"/>
    <path fill="#423DBE" d="m329 1681-15-121c-13-85-11-131-11-131 15-54 61-11 61-11l3 263s-15 8-38 0Zm-126 3-10-152c0-52 17-105 17-105 34-36 55-5 55-5l-20 262s-26 3-42 0Zm81-408-20 149s-44 51-54 20c0 0-17-130-11-200 0 0 72-33 85 31Zm63-31 17 173s-18 48-59 19l-55-167s24-75 97-25Z"/>
    <path fill="#F8BB97" d="m286 864 1 52-55 2s13-21 5-53l48-1h1Z"/>
    <path fill="#F8BB97" d="M296 877c15 0 17-14 17-14 9-29 7-47 7-47-2-5-3-9-2-14 3-24-11-35-11-35-16-20-48-17-48-17h-2c-39 3-45 28-45 28-4 10-5 22-2 33 3 12 8 23 15 34s22 19 37 24v15h20c2-8 9-8 9-8h5v1Z"/>
    <path fill="#F8BB97" d="m291 877-5 1 1 26h-15c3-9 2-21 0-30-10-8-25-13-38-26h42c6 0 5 5 7 10a37 37 0 0 0 2 8l1 1c1 2 3 4 6 4 8 2 14 1 20-3-2 4-7 9-16 9h-5Z"/>
    <path fill="#FFED00" d="M247 733s-54 7-43 47c0 0-11 13-9 26 2 25 37 58 37 58 3 6 8 7 8 7l17-1c8 0 10-5 10-5 13-16 21-22 21-22 6-8-3-22-3-22-6-16 11-15 11-15 7 3 5 17 5 17l6-4-2-20c1-6 0-7 5-10 33-9 18-51 18-51s-6 7-16 8c0 0 9-15-8-32 0 0-8 16-57 19Z"/>
    <path fill="#E84848" d="M225 1292c-20-4-38-11-51-23l-3-157-10-148c-5-24 19-31 19-31l52-26s27 12 65-1c14 7 40 17 58 23 7 3 11 9 12 16 7 60-10 100-9 153l2 181s-44 15-99 16l-14-22-22 19Z"/>
    <path fill="#D6D2D2" d="M286 890s-30-2-47 1l-21 20s41 5 86-1l-18-20Z"/>
    <path fill="#F8BB97" d="M528 907s13-2 18-10c8-11 17-49 16-50-1-5-3-3-3-3s3-6 1-9c-1-2-5 1-5 1s2-4 0-6c-1-2-6 3-6 3s2-5 0-7-10 4-12 8c-8 11-11 20-14 29 0 0-2-13-5-11-5 3-4 31-4 41-1 9 14 15 14 15v-1Z"/>
    <path fill="#E84848" d="m439 1004 101-99c-7-16-25-26-25-26l-120 91s14 48 44 34Z"/>
    <path fill="#CFE3EB" d="M2052 710H751v749h1301V710Z"/>
    <path fill="#080808" fill-rule="evenodd" d="M2198 1539H539c0 21 17 38 37 38h1584c21 0 38-17 38-38Z" clip-rule="evenodd"/>
    <path fill="#fff" fill-rule="evenodd" d="M1080 916c3-3 4-6 4-9 0-9-11-15-25-15-13 0-23 6-25 13-8-2-15-3-23-3-24 0-44 8-55 20-4-4-14-7-23-7l-14 2c-10-9-25-16-46-16-20 0-39 8-47 18h-4c-16 0-28 7-28 15 0 9 12 16 28 16l11-2c13 8 26 13 42 13h2c3 6 12 11 25 11l9-1c8 8 22 13 39 13 18 0 33-6 41-15 6 2 14 2 20 2 20 0 38-6 49-15l12 1c21 0 38-10 38-22 0-9-13-17-30-19Zm899 33c2-2 3-3 3-6 0-5-7-9-15-9s-15 4-16 8l-14-1c-15 0-27 5-34 11-3-2-8-4-14-4l-9 1c-6-5-15-9-28-9-12 0-24 4-29 11h-2c-10 0-18 4-18 9s8 10 18 10l6-1c8 5 17 8 27 8h1c2 4 7 6 15 6h6c5 5 13 8 24 8 10 0 20-4 25-9l12 1c13 0 23-4 30-9h8c12 0 23-6 23-13 0-6-8-11-18-12h-1Zm-185 105c4-3 5-6 5-9 0-9-11-16-26-16-14 0-25 6-27 14l-25-3c-26 0-47 9-59 21-5-4-15-7-25-7l-15 2a69 69 0 0 0-49-17c-22 0-42 8-50 19h-5c-17 0-31 8-31 17s14 17 31 17l12-2c13 8 28 13 45 13h1c4 7 14 12 27 12l10-1c9 9 24 14 42 14 19 0 35-6 44-16 7 2 15 2 22 2 22 0 40-6 52-16l13 1c22 0 40-11 40-24 0-9-13-18-32-20v-1Z" clip-rule="evenodd"/>
    <path fill="#737373" d="M1335 1487H972v29h363v-29Z"/>
    <path fill="#9C9C9C" fill-rule="evenodd" d="M2198 1539H539l2 12 3 7h1649s5-7 5-19Z" clip-rule="evenodd"/>
    <path fill="#99B6C8" fill-rule="evenodd" d="M1232 1092h-121l-158 315 446 9-167-324Z" clip-rule="evenodd"/>
    <path fill="#99B6C8" fill-rule="evenodd" d="M1222 1119h-101l-132 265 374 7-141-272Zm411 167c-47 0-85 26-85 57 0 32 38 58 85 58s85-26 85-58c0-31-38-57-85-57Z" clip-rule="evenodd"/>
    <path fill="#99B6C8" fill-rule="evenodd" d="M1503 1279c-34 0-61 23-61 51s27 51 61 51c33 0 60-23 60-51s-27-51-60-51Z" clip-rule="evenodd"/>
    <path fill="#99B6C8" fill-rule="evenodd" d="M1406 1263c-43 0-78 24-78 53s35 53 78 53c42 0 77-24 77-53s-35-53-77-53Z" clip-rule="evenodd"/>
    <path fill="#99B6C8" fill-rule="evenodd" d="M1308 1206c-55 0-100 34-100 77s45 77 100 77c56 0 101-34 101-77s-45-77-101-77Zm400 94c-47 0-85 26-85 58 0 31 38 57 85 57s85-26 85-57c0-32-38-58-85-58Z" clip-rule="evenodd"/>
    <path fill="#99B6C8" fill-rule="evenodd" d="M1811 1335c-25 0-46 14-46 31s21 31 46 31c26 0 47-14 47-31s-21-31-47-31Zm-178-49c-47 0-85 26-85 57 0 32 38 58 85 58s85-26 85-58c0-31-38-57-85-57Zm284 60c-25 0-46 14-46 31s20 31 46 31 46-14 46-31-20-31-46-31Z" clip-rule="evenodd"/>
    <path fill="#99B6C8" fill-rule="evenodd" d="M1811 1335c-25 0-46 14-46 31s21 31 46 31c26 0 47-14 47-31s-21-31-47-31Zm231-12c-25 0-46 14-46 31s21 31 46 31c26 0 18-15 18-32s8-30-18-30Z" clip-rule="evenodd"/>
    <path fill="#99B6C8" fill-rule="evenodd" d="M1980 1329c-26 0-47 14-47 31s21 31 47 31c25 0 46-14 46-31s-21-31-46-31Zm-102 8c-25 0-46 14-46 31 0 18 21 32 46 32 26 0 47-14 47-32 0-17-21-31-47-31Zm-1067-51c28 0 50 26 50 57 0 32-22 58-50 58-27 0-49-26-49-58 0-31 22-57 49-57Z" clip-rule="evenodd"/>
    <path fill="#99B6C8" fill-rule="evenodd" d="M910 1279c33 0 60 23 60 51s-27 51-60 51c-34 0-61-23-61-51s27-51 61-51Z" clip-rule="evenodd"/>
    <path fill="#99B6C8" fill-rule="evenodd" d="M994 1246c50 0 90 28 90 61 0 34-40 61-90 61s-90-27-90-61c0-33 40-61 90-61Z" clip-rule="evenodd"/>
    <path fill="#FEFEFE" fill-rule="evenodd" d="M1221 1158h-96l-126 251 355 6-133-257Zm390 158c-44 0-80 25-80 55s36 55 80 55c45 0 81-25 81-55s-36-55-81-55Z" clip-rule="evenodd"/>
    <path fill="#FEFEFE" fill-rule="evenodd" d="M1487 1310c-31 0-57 22-57 48 0 27 25 49 57 49s58-22 58-49c0-26-26-48-58-48Z" clip-rule="evenodd"/>
    <path fill="#FEFEFE" fill-rule="evenodd" d="M1395 1295c-41 0-74 22-74 50 0 27 33 50 74 50s74-23 74-50c0-28-33-50-74-50Z" clip-rule="evenodd"/>
    <path fill="#FEFEFE" fill-rule="evenodd" d="M1306 1235c-55 0-99 34-99 76s44 76 99 76c54 0 98-34 98-76s-44-76-98-76Z" clip-rule="evenodd"/>
    <path fill="#FEFEFE" d="M2045 1376H769v83h1276v-83Z"/>
    <path fill="#FEFEFE" fill-rule="evenodd" d="M1682 1329c-45 0-81 25-81 55s36 55 81 55 81-25 81-55-37-55-81-55Z" clip-rule="evenodd"/>
    <path fill="#FEFEFE" fill-rule="evenodd" d="M1780 1363c-24 0-43 13-43 29 0 17 19 30 43 30 25 0 44-13 44-30 0-16-19-29-44-29Zm-169-47c-44 0-80 25-80 55s36 55 80 55c45 0 81-25 81-55s-36-55-81-55Zm270 57c-24 0-44 13-44 30 0 16 20 29 44 29s44-13 44-29c0-17-20-30-44-30Z" clip-rule="evenodd"/>
    <path fill="#FEFEFE" fill-rule="evenodd" d="M1780 1363c-24 0-43 13-43 29 0 17 19 30 43 30 25 0 44-13 44-30 0-16-19-29-44-29Zm-956-47c32 0 58 25 58 55s-26 55-58 55-58-25-58-55 26-55 58-55Zm1176 35c-24 0-44 14-44 30s20 30 44 30 44-14 44-30-20-30-44-30Z" clip-rule="evenodd"/>
    <path fill="#70727E" fill-rule="evenodd" d="M2047 1459H782V710h1265v749Zm-25-811H808c-31 0-57 28-57 62v829h1328V710c0-34-26-62-57-62Z" clip-rule="evenodd"/>
    <path fill="#FF8C81" fill-rule="evenodd" d="M1336 711c26 17 61 46 85 84 23 39 35 85 38 109 3 23-3 23-12 15-9-9-21-27-38-47-18-21-41-44-65-59-23-15-47-21-58-41-12-21-12-56-3-70 8-15 26-9 52 8l1 1Z" clip-rule="evenodd"/>
    <path fill="#E84848" fill-rule="evenodd" d="M1336 711c26 17 61 46 85 84 23 39 35 85 38 109 3 23-3 23-12 15-9-9-21-27-38-47-18-21-41-44-65-59-23-15-47-21-58-41-12-21-12-56-3-70 8-15 26-9 52 8l1 1Zm-343 0c-26 17-61 46-85 84-23 39-35 85-38 109-3 23 3 23 12 15 9-9 21-27 38-47 18-21 41-44 65-59 23-15 47-21 58-41 12-21 12-56 3-70-8-15-26-9-52 8l-1 1Z" clip-rule="evenodd"/>
    <path fill="#F5F5F5" fill-rule="evenodd" d="M1011 925h15l16 61h246l16-61h15c19-171 38-341 12-478-26-136-96-237-166-338a864 864 0 0 0-167 338c-25 137-6 307 13 478Z" clip-rule="evenodd"/>
    <path fill="#3B84CC" fill-rule="evenodd" d="M1165 370a70 70 0 1 0 0 141 70 70 0 0 0 0-141Zm0-18a88 88 0 1 0 0 177 88 88 0 0 0 0-177Z" clip-rule="evenodd"/>
    <path fill="#E84848" fill-rule="evenodd" d="M1165 109c-35 51-71 103-101 158h202c-30-55-66-107-101-158Z" clip-rule="evenodd"/>
    <path fill="url(#b)" fill-rule="evenodd" d="M1165 370a70 70 0 1 0 0 141 70 70 0 0 0 0-141Z" clip-rule="evenodd"/>
    <path fill="#1F1B20" fill-rule="evenodd" d="M1011 925h15l16 61h246l16-61h15-308Z" clip-rule="evenodd"/>
    <path fill="#E84848" fill-rule="evenodd" d="M1181 887c-3 34-28 34-31-1-28-284 58-283 31 1Z" clip-rule="evenodd"/>
    <path fill="#FF8C81" fill-rule="evenodd" d="M1165 1244c48-69 95-139 95-182s-45-76-95-76-95 33-95 76 48 113 95 182Z" clip-rule="evenodd"/>
    <path fill="#FFED00" fill-rule="evenodd" d="M1165 1212c38-61 75-122 75-159 0-38-35-67-75-67s-75 29-75 67c0 37 38 98 75 159Z" clip-rule="evenodd"/>
    <path fill="#FEFEFE" fill-rule="evenodd" d="M1165 1155c20-46 39-91 39-119s-18-50-39-50-39 22-39 50 19 73 39 119Z" clip-rule="evenodd"/>
    <use xlink:href="#c" fill-rule="evenodd" clip-rule="evenodd"/>
    <use xlink:href="#d" fill-rule="evenodd" clip-rule="evenodd"/>
    <use xlink:href="#e" fill-rule="evenodd" clip-rule="evenodd"/>
    <use xlink:href="#c" fill-rule="evenodd" clip-rule="evenodd"/>
    <use xlink:href="#d" fill-rule="evenodd" clip-rule="evenodd"/>
    <use xlink:href="#e" fill-rule="evenodd" clip-rule="evenodd"/>
    <path fill="#FF8C81" fill-rule="evenodd" d="M1126 1102c32-24 64-48 70-67 7-20-8-41-31-49-23-7-48 1-54 20-7 20 4 58 15 96Z" clip-rule="evenodd"/>
    <path fill="#FFED00" fill-rule="evenodd" d="M1131 1088c26-22 52-43 58-60 6-18-6-36-24-42s-38 2-44 19 2 50 10 83Z" clip-rule="evenodd"/>
    <path fill="#FEFEFE" fill-rule="evenodd" d="M1139 1062c16-17 32-35 36-47 4-13-1-26-10-29s-21 4-25 17c-4 12-2 36-1 59Zm801 295c-24 0-44 13-44 29 0 17 20 30 44 30 25 0 44-13 44-30 0-16-19-29-44-29Zm-96 8c-24 0-44 13-44 29 0 17 20 30 44 30s44-13 44-30c0-16-20-29-44-29Zm-919-55c31 0 57 22 57 48 0 27-25 49-57 49s-58-22-58-49c0-26 26-48 58-48Z" clip-rule="evenodd"/>
    <path fill="#FEFEFE" fill-rule="evenodd" d="M1005 1279c47 0 85 26 85 58s-38 58-85 58-85-26-85-58 38-58 85-58Z" clip-rule="evenodd"/>
  </g>
  <path fill="#FEB48C" fill-rule="evenodd" d="M2252 1105c-15 1-20 3-22 4-3 1-3 2 1 19l14 68c4 17 4 17 0 21-4 3-11 10-16 24-6 15-10 37-12 52-1 16 1 24-1 33-1 9-5 17-8 25-2 7-3 13-2 24 2 11 6 27 12 37 6 9 14 11 21 10 6 0 10-2 11-9 0-7-3-19-6-28s-4-16-2-27c3-11 9-27 21-50l39-75c10-22 14-33 16-53s1-48-12-62-39-14-54-13Z" clip-rule="evenodd"/>
  <path fill="#FEB48C" d="m2332 671 7 36c3 7-38 16-51 6l6-47 38 5Z"/>
  <path fill="#FEB48C" d="M2351 646c-4 14-14 23-17 25l-14 8c-4 2-10 2-15 0-7-4-12-7-14-10 0 0-14-16-14-46v-1c0-10 0-15 2-21 3-6 7-13 13-18a40 40 0 0 1 26-11l8 1c11 3 21 11 26 20 3 7 3 13 2 24v2c0 6 0 17-3 27Z"/>
  <path fill="#6E3C36" d="M2280 680c6-52-11-61 36-86 24 16 35 29 34 58 0 8-6 24-10 37 113-140-156-171-60-9Z"/>
  <path fill="#FEB48C" d="M2283 643c-2-8-4-9-4-9-10-4-9 5-8 12l2 6 2 5c2 3 5 5 8 3l1-3c1-5 0-9-1-14Zm65 0c3-8 5-8 6-9l6 1c4 5-1 14-3 18l-3 5c-3 3-7 4-9 2l-1-3c0-5 2-9 4-13v-1Z"/>
  <path fill="#967BB6" d="M2262 674c-22-16-23-17-39-43 0-4-27 2-34 32 18 30 29 19 51 66 10-30 11-26 22-55Z"/>
  <path fill="#967BB6" d="M2348 691c-5 5-2 9-22 22-6 3-12 5-16 5-2 0-6-1-9-4-9-6-11-17-11-19l-13-8c-7-5-12-9-15-13-23 43-35 77-26 104 15 43 6 91 8 122a265 265 0 0 0 131-2c-10-114 24-116 8-167-6-20-30-14-35-40Z"/>
  <path fill="#967BB6" d="M2348 691c17-26 17-30 39-58 12 3 25 21 30 37-14 23-26 38-32 66-9-28-38 0-37-45Z"/>
  <path fill="#F2A480" d="M2498 550c-2 0-8 0-14-5-5-4-6-10-7-11 4-6 15-45 23-44 6 2-4 12-1 16 4 5 42-11 47-5l-3 6c2 0 6 1 6 3s-3 5-7 4c0 0 2 4 1 6s-5 2-7 2c0 0 2 3 1 4-3 8-28 1-40 24h1Z"/>
  <path fill="#FEB48C" fill-rule="evenodd" d="M2387 1550v-56c1-32 17-120 18-168s-9-70-12-101c-2-30 1-69 3-91 2-21 2-24-8-30-11-6-31-14-48-12-16 2-27 13-39 24 7 35 15 71 26 114s26 93 29 139c4 46-3 89-9 123l-7 59c7-2 13 16 21 16 8-1 18-18 26-17Z" clip-rule="evenodd"/>
  <path fill="#FEB48C" d="M2498 550c-2 0-8 0-14-5-5-4-6-10-7-11 4-6 15-45 23-44 6 2-4 12-1 16 4 5 42-11 47-5l-3 6c2 0 6 1 6 3s-3 5-7 4c0 0 2 4 1 6s-5 2-7 2c0 0 2 3 1 4-3 8-28 1-40 24h1Zm-90 114-22-25c2-7 8-16 23-34 14-17 41-44 68-71 4 1 8 3 11 6 4 2 7 6 9 10-24 29-48 58-62 77s-23 28-28 37h1Zm-210 0 22-27c-2-7-5-14-19-32l-69-72-11 6-9 11c24 29 48 58 62 77 15 19 19 28 24 37Zm-86-114c2 0 8 0 14-5 5-4 6-10 7-11-4-6-16-45-24-44-6 2 5 12 2 16-4 5-42-11-47-5-1 3 1 7 3 6-2 0-6 1-6 3s4 6 8 6c0 0-4 2-2 4 1 2 6 3 8 3 0 0-3 2-2 3 3 8 27 1 39 24Z"/>
  <path fill="#4FD771" d="M2399 976c-2-13-4-33-13-59-5-13-8-22-12-29-38-1-93 2-130 0a445 445 0 0 0-22 155c0 23 0 34 4 73 19 6 49 20 88 20 36 0 69-6 88-13 0-5 5-87-3-147Z"/>
  <path fill="#F43F5E" fill-rule="evenodd" d="M2340 1550c9-2 17-4 24-4 8 0 15 1 22 3v-13l1-10 2 24c0 11 0 27-3 37-2 10-8 15-12 18-5 2-10 2-14-1-5-2-10-6-14-15s-7-21-7-33c0-11 3-22 5-32l-2 13-1 13h-1Zm-96-150v-16l5 17c2 7 6 18 4 25 0 6-5 17-14 17-11 0-27-15-37-59l-3 9c-2-5-2-28 7-31-2 8 5 36 6 38 4 4 18-3 32 0Z" clip-rule="evenodd"/>
  <g fill-rule="evenodd" clip-path="url(#f)" clip-rule="evenodd">
    <path fill="#FFC700" d="M1755 273c-9-1-14-3-23-7-2 4-3 8-2 12 5 4 13 6 23 9-2-6-1-10 2-14Z"/>
    <path fill="#61BA47" d="M1758 465c-10 1-15 0-24-2-1 4-2 8 0 12 6 3 13 4 24 4-3-6-3-9 0-14Z"/>
    <path fill="#F74F9E" d="M2529 417c-9-2-14-3-23-7-2 4-3 8-2 12 5 3 12 6 23 9-2-7-2-11 2-14Z"/>
    <path fill="#007AFF" d="M1923 84c0 10-1 15-4 24 5 2 8 2 13 1 2-6 4-13 5-24-6 3-10 3-14-1Z"/>
    <path fill="#61BA47" d="M1325 239c-5 8-9 12-16 17 2 4 5 7 9 8 6-3 12-9 18-17-6-1-9-3-11-8Z"/>
    <path fill="#A550A7" d="M2027 345c7-2 10-6 14-12l-4-18c-8 0-13-2-20-8 1 16 4 24 10 38Z"/>
    <path fill="#61BA47" d="M2093 116c-1-6-4-10-9-15l-19 2c-1 8-3 13-11 19 16 1 25-1 39-6Z"/>
    <path fill="#007AFF" d="M2159 324c8-3 14-4 23-3 1-5 0-9-2-12-7-1-14-1-25 1 4 5 6 9 4 14Z"/>
    <path fill="#FFC700" d="M2409 420c-9 3-15 4-24 4l3 12c6 1 14 0 24-2-4-6-5-9-3-14Z"/>
    <path fill="#F74F9E" d="M2644 183c6-3 8-8 11-15-4-6-5-11-9-16-7 1-12 1-21-4 5 15 10 23 19 35Z"/>
    <path fill="#FF5257" d="M2588 533c-7 0-11 2-17 6l-3 19c7 2 11 6 16 14 4-15 5-24 4-39Z"/>
    <path fill="#007AFF" d="M2499 159c-9-2-14-4-22-9-3 4-4 7-4 12 5 4 12 7 22 10-1-6 0-10 4-13Z"/>
    <path fill="#F74F9E" d="M1869 74c-5-4-10-5-18-4l-12 14c5 6 6 11 6 21 11-11 17-18 24-31Z"/>
    <path fill="#007AFF" d="M2153 297c4 5 9 6 17 7 5-4 10-7 14-12-4-6-4-12-2-21-13 8-20 15-29 26Zm-206-148c-6-7-9-11-13-20-4 2-7 4-10 8 2 6 6 13 12 21 4-6 6-8 11-9Z"/>
    <path fill="#61BA47" d="M1864 200c4 5 9 6 16 8l15-11c-3-7-3-12 0-22-14 8-21 14-31 25Zm242 117c-9 0-15-1-24-4-1 4-2 8 0 12 5 3 13 5 24 6-3-7-3-10 0-14Z"/>
    <path fill="#F74F9E" d="M2019 25c5 5 9 6 17 8l14-11c-3-7-3-13 0-22-14 8-21 14-31 25Z"/>
    <path fill="#61BA47" d="M1628 82c-6-3-11-3-18-2l-10 16c5 6 8 10 8 20 10-12 14-20 20-34Z"/>
    <path fill="#F74F9E" d="M1749 320c3 6 7 9 13 13l18-7c-1-7 0-13 6-21-16 3-24 7-37 15Z"/>
    <path fill="#A550A7" d="M1849 0c-5 3-7 8-9 15l11 16c7-3 12-3 21 0-6-14-12-21-23-31Z"/>
    <path fill="#FF5257" d="M2568 208c-7 7-11 10-20 13 2 5 4 8 8 10 6-2 12-6 21-12-6-3-9-5-9-11Z"/>
    <path fill="#FFC700" d="M2005 417c-1-7-4-11-9-16l-19 1c-1 7-4 12-11 18 15 2 24 0 39-3Z"/>
    <path fill="#FF5257" d="M2267 150c2 6 7 9 13 12l17-7c-1-8 0-13 6-21-16 4-24 8-36 16Z"/>
    <path fill="#A550A7" d="M2298 52c-6-3-11-3-18-1-3 6-7 10-9 16 5 5 8 10 9 20 10-13 13-21 18-35Z"/>
    <path fill="#FFC700" d="M1668 188c-8-3-13-6-20-12-3 4-5 7-6 12 5 4 11 8 21 13 0-7 1-10 5-13Z"/>
    <path fill="#FF5257" d="M2555 222c-3 9-5 14-11 21 3 3 7 5 11 5 5-4 9-11 13-21-7 1-10 0-13-5Z"/>
    <path fill="#007AFF" d="M1382 383c6 7 9 12 12 21 4-2 8-4 10-7-1-6-5-13-11-22-3 6-6 8-11 8Z"/>
    <path fill="#FFC700" d="M1537 306c-7 1-10 4-15 10l2 18c8 1 13 3 19 10 1-16-2-24-6-38Zm-130-38c-7 6-12 9-20 13 2 4 4 8 8 10 6-2 12-6 21-13-6-2-9-5-9-10Z"/>
    <path fill="#F74F9E" d="M1362 380c-7-6-11-10-16-18-4 3-7 5-9 9 3 6 8 12 16 20 2-7 4-10 9-11Z"/>
    <path fill="#61BA47" d="M2002 190c10 2 15 4 23 8l3-12c-5-4-13-6-23-9 2 6 1 10-3 13Z"/>
    <path fill="#007AFF" d="M2575 27c5-5 6-9 7-17l-12-14c-7 4-13 4-22 2 8 13 15 20 27 29Z"/>
    <path fill="#A550A7" d="M2241 167c9 3 14 6 21 12 3-4 5-7 5-12-4-4-11-8-20-13 0 6-1 10-6 13Z"/>
    <path fill="#FF5257" d="M2132 93c-5-4-10-4-17-4l-12 15c5 6 7 11 7 21 11-11 16-19 22-32Z"/>
    <path fill="#A550A7" d="M1841 333c9-2 15-2 24-1 1-4 1-8-1-12-6-2-14-2-25-1 4 6 5 9 2 14Z"/>
    <path fill="#FF5257" d="M1977 249c3-9 5-14 10-22-4-3-7-4-12-4-4 5-7 12-11 21 6 0 10 1 13 5Z"/>
    <path fill="#007AFF" d="M1801 85c7-1 11-4 16-9 0-7 1-13-1-19-7-1-12-4-17-12-2 16-1 25 2 40Z"/>
    <path fill="#FF5257" d="M2429 292c-8-3-13-6-20-13-3 3-5 7-6 11 4 5 11 10 20 15 0-7 1-10 6-13Z"/>
    <path fill="#A550A7" d="M1865 383c3 9 4 14 3 24 5 0 9-1 12-3 1-6 1-14-1-25-6 5-9 6-14 4Z"/>
    <path fill="#007AFF" d="M1524 571c6-3 8-7 12-13l-7-18c-8 1-13 0-21-5 3 15 7 23 16 36Z"/>
    <path fill="#F74F9E" d="M1487 543c3-6 2-11 1-18l-17-8c-5 5-9 8-19 9 13 10 21 13 35 17Z"/>
    <path fill="#FF5257" d="M1750 230c-4-9-5-14-5-24l-12 3 3 25c5-4 9-6 14-4Z"/>
    <path fill="#A550A7" d="M2341 10c3 9 3 15 3 24 4 0 8 0 12-2 1-7 1-14-1-25-6 4-9 5-14 3Zm20 393c-8 5-13 6-22 7 0 5 1 9 4 12 7 0 14-2 24-6-5-4-7-7-6-13Z"/>
    <path fill="#F74F9E" d="M2355 66c6-7 11-10 19-15-2-4-5-7-9-9-6 3-12 7-20 14 6 3 9 5 10 10Z"/>
    <path fill="#007AFF" d="M2363 441c-9 2-15 3-24 1-1 5 0 9 2 13h24c-4-6-5-9-2-14Z"/>
    <path fill="#61BA47" d="M2042 119c2-9 4-14 9-22-4-2-8-4-12-3-4 5-7 12-11 22 7-1 11-1 14 3Z"/>
    <path fill="#F74F9E" d="M1358 188v24c4 1 8 1 12-1 2-6 2-14 2-25-6 4-9 4-14 2Zm857 377c-3-6-8-8-15-10-6 3-11 5-16 9 2 7 2 13-2 21 14-5 22-10 33-20Z"/>
    <path fill="#61BA47" d="M2258 397c-5-5-10-5-17-6l-13 13c4 7 5 12 3 22 13-10 18-16 27-29Z"/>
    <path fill="#FF5257" d="M1548 66c7-2 10-5 14-11-1-7-1-13-3-18-8-1-13-3-20-10 1 16 3 25 9 39Z"/>
    <path fill="#A550A7" d="M1679 145c6-4 8-8 10-15-3-6-5-11-9-16-7 2-13 2-22-2 6 14 11 22 21 33Z"/>
    <path fill="#007AFF" d="M2563-1c-6-4-11-3-18-3l-11 16c5 5 7 10 7 20 11-11 16-19 22-33Zm-523 380c2-9 5-14 10-22-4-3-7-4-12-4-4 5-8 11-12 21 7 0 11 0 14 5Z"/>
    <path fill="#FF5257" d="M1646 299c1 6 5 10 10 14 7-1 13-1 19-3 0-7 2-12 9-19-15 0-24 2-38 8Z"/>
    <path fill="#61BA47" d="M2234 150c-6 4-7 9-9 16l11 15c7-3 13-3 22 0-7-14-13-21-24-31Z"/>
    <path fill="#A550A7" d="M1924 85c4-5 4-10 4-17l-14-12c-6 4-11 6-21 5 10 12 18 17 31 24Z"/>
    <path fill="#F74F9E" d="M1938 266c-5 5-6 9-6 17 4 5 7 10 12 13 7-3 12-4 21-2-8-13-15-19-27-28Zm-199 77c5-8 8-12 16-17-3-4-6-7-10-8-5 3-11 9-18 17 7 1 10 3 12 8Z"/>
    <path fill="#007AFF" d="M2226 445c-6 7-10 11-18 16 2 4 5 7 9 9 6-3 12-8 19-16-6-2-9-4-10-9Z"/>
  </g>
  <defs>
    <clipPath id="a">
      <path fill="#fff" d="M0 0h2198v1703H0z"/>
    </clipPath>
    <clipPath id="f">
      <path fill="#fff" d="M1230 25h1400v1080H1230z"/>
    </clipPath>
    <linearGradient id="b" x1="1239.7" x2="1090.5" y1="474.8" y2="406.2" gradientUnits="userSpaceOnUse">
      <stop stop-color="#CFE3EB"/>
      <stop offset=".7" stop-color="#9BD3DE"/>
      <stop offset="1" stop-color="#66C3D0"/>
    </linearGradient>
  </defs>
</svg>
