<?xml version="1.0" encoding="UTF-8"?>
<!DOCTYPE svg PUBLIC "-//W3C//DTD SVG 1.1//EN" "http://www.w3.org/Graphics/SVG/1.1/DTD/svg11.dtd">
<!-- Creator: CorelDRAW X5 -->
<svg xmlns="http://www.w3.org/2000/svg" xml:space="preserve" width="581.543mm" height="450.687mm" style="shape-rendering:geometricPrecision; text-rendering:geometricPrecision; image-rendering:optimizeQuality; fill-rule:evenodd; clip-rule:evenodd"
viewBox="0 0 10970 8501"
 xmlns:xlink="http://www.w3.org/1999/xlink">
 <defs>
  <style type="text/css">
   <![CDATA[
    .fil10 {fill:#080808}
    .fil16 {fill:#1F1B20}
    .fil20 {fill:#3B84CC}
    .fil12 {fill:#737373}
    .fil14 {fill:#99B6C8}
    .fil13 {fill:#9C9C9C}
    .fil9 {fill:#CFE3EB}
    .fil18 {fill:#E84848}
    .fil19 {fill:whitesmoke}
    .fil27 {fill:#F8BB97}
    .fil15 {fill:#FEFEFE}
    .fil17 {fill:#FF8C81}
    .fil22 {fill:#FFED00}
    .fil11 {fill:white}
    .fil23 {fill:black;fill-rule:nonzero}
    .fil8 {fill:#192F47;fill-rule:nonzero}
    .fil2 {fill:#2B2A29;fill-rule:nonzero}
    .fil4 {fill:#2B2E33;fill-rule:nonzero}
    .fil0 {fill:#363636;fill-rule:nonzero}
    .fil3 {fill:#4E565A;fill-rule:nonzero}
    .fil5 {fill:#7D9BAD;fill-rule:nonzero}
    .fil26 {fill:#967BB6;fill-rule:nonzero}
    .fil7 {fill:#D6D2D2;fill-rule:nonzero}
    .fil24 {fill:#E65B4E;fill-rule:nonzero}
    .fil1 {fill:#F8BB97;fill-rule:nonzero}
    .fil25 {fill:#FF5A46;fill-rule:nonzero}
    .fil6 {fill:#FFED00;fill-rule:nonzero}
    .fil21 {fill:url(#id0)}
   ]]>
  </style>
  <linearGradient id="id0" gradientUnits="userSpaceOnUse" x1="6187.49" y1="2369.53" x2="5442.6" y2="2027.15">
   <stop offset="0" style="stop-color:#CFE3EB"/>
   <stop offset="0.74902" style="stop-color:#9BD3DE"/>
   <stop offset="1" style="stop-color:#66C3D0"/>
  </linearGradient>
 </defs>
 <g id="Vrstva_x0020_1">
  <metadata id="CorelCorpID_0Corel-Layer"/>
  <path class="fil0" d="M1399 4997l-722 -105c-218,-58 -147,-241 -147,-241 237,-201 596,-12 873,72 0,0 157,82 127,163 0,0 -38,132 -131,110l0 0z"/>
  <path class="fil1" d="M226 6291l-24 -80 -28 -99 -65 0 -7 110 2 57c-9,34 -30,68 -27,103 1,19 28,-8 35,-8 4,0 -18,59 23,16 3,-3 -3,38 9,41 15,5 10,-20 23,-23 0,0 -2,21 8,34 37,46 46,-98 54,-136l-5 -16 0 0 0 0z"/>
  <path class="fil2" d="M85 6204l-85 -722c202,-129 256,32 256,32l-27 664c0,0 -38,36 -144,26l0 0 0 0z"/>
  <path class="fil2" d="M1 5458l52 -717c39,-175 218,-117 218,-117 145,43 133,206 133,206l-147 684c0,0 -30,104 -165,100 0,0 -99,-16 -91,-156l0 0 0 0z"/>
  <path class="fil3" d="M450 8243l52 128 225 32c0,0 77,20 80,93l-541 0 44 -252 139 0 0 0 0 0z"/>
  <path class="fil4" d="M273 6182c-7,131 45,240 172,247 127,7 235,-94 242,-225 7,-131 -90,-243 -217,-250 -127,-7 -190,96 -197,227l0 0 0 0z"/>
  <path class="fil3" d="M912 8484l15 -226 103 -14c0,0 41,93 77,115 35,21 272,57 272,57 0,0 73,-9 73,83 0,0 -160,15 -541,-13l0 0 0 0z"/>
  <path class="fil4" d="M548 6184c9,131 118,230 245,222 127,-8 223,-121 214,-252 -9,-131 -118,-230 -245,-222 -127,8 -223,121 -214,252z"/>
  <path class="fil5" d="M920 8358l-79 -607c-64,-420 -52,-652 -52,-652 72,-267 302,-52 302,-52l15 1311c0,0 -74,38 -187,0l0 0 0 0zm-633 14l-45 -758c0,-262 82,-526 82,-526 171,-177 276,-21 276,-21l-99 1303c0,0 -132,15 -214,2l0 0 0 0zm407 -2038l-98 748c0,0 -221,252 -273,98 0,0 -83,-649 -51,-998 0,0 359,-168 421,152l0 0 0 0zm314 -151l83 864c0,0 -89,238 -291,92l-276 -833c0,0 120,-372 484,-123l0 0 0 0z"/>
  <path class="fil1" d="M702 4280l6 260 -275 7c0,0 65,-105 27,-261l241 -6 0 0z"/>
  <path class="fil1" d="M752 4344c77,3 88,-69 88,-69 43,-146 31,-237 31,-237 -7,-22 -13,-45 -9,-69 14,-118 -53,-175 -53,-175 -78,-99 -238,-83 -238,-83 -4,1 -9,2 -13,2 -196,15 -224,135 -224,135 -20,53 -23,112 -11,166 14,63 42,115 76,169 37,59 108,99 185,124l2 74 96 -2c13,-40 47,-37 47,-37l24 0 0 0 0 0z"/>
  <path class="fil1" d="M728 4345c0,0 -12,-2 -24,6l3 127 -72 2c14,-48 11,-106 -2,-149 -48,-43 -122,-68 -187,-132 18,0 85,-2 104,-1 34,1 68,-2 102,1 30,3 29,28 35,53 2,10 5,20 8,28 1,3 2,5 4,8l0 0c2,3 3,5 5,8 7,10 16,17 31,20 38,7 70,6 98,-17 -10,21 -32,47 -80,46l-24 0 0 0 0 0z"/>
  <path class="fil6" d="M509 3626c0,0 -268,36 -213,232 0,0 -58,67 -44,134 6,125 181,287 181,287 16,33 40,35 40,35l87 -2c38,-2 50,-27 50,-27 66,-81 102,-112 102,-112 32,-37 -12,-107 -12,-107 -33,-83 52,-78 52,-78 35,16 26,85 26,85 14,-2 29,-18 29,-18l-6 -101c4,-27 -2,-33 21,-50 164,-43 89,-254 89,-254 0,0 -28,36 -79,41 0,0 47,-73 -39,-160 0,0 -38,80 -283,95l-1 0 0 0z"/>
  <path class="fil0" d="M398 6414c-99,-17 -189,-51 -252,-111l-14 -785 -50 -737c-27,-123 91,-157 91,-157l263 -132c0,0 135,62 325,-2 66,36 196,83 285,116 35,13 58,45 62,77 35,302 -52,499 -46,767l9 903c0,0 -216,75 -494,76l-68 -106 -111 93 0 0 0 0z"/>
  <path class="fil7" d="M705 4410c0,0 -153,-11 -234,6l-105 96c0,0 205,26 426,-5l-87 -96 0 0 0 0z"/>
  <path class="fil1" d="M1914 4496c0,0 61,-13 89,-52 40,-53 81,-242 78,-251 -5,-22 -17,-11 -17,-11 0,0 17,-32 9,-45 -8,-12 -27,5 -27,5 0,0 8,-22 1,-32 -7,-10 -31,14 -31,14 0,0 8,-23 -2,-33 -10,-9 -47,20 -60,39 -37,55 -53,99 -65,146 0,0 -10,-67 -26,-57 -24,14 -23,156 -23,204 -1,48 73,75 73,75l0 0 0 0z"/>
  <path class="fil0" d="M1469 4976l503 -491c-37,-82 -126,-129 -126,-129l-599 452c0,0 69,241 222,168l0 0 0 0z"/>
  <polygon class="fil8" points="8591,2790 8543,2807 8252,2083 8300,2065 "/>
  <polygon class="fil8" points="8542,2849 8535,2776 9361,2694 9369,2767 "/>
  <rect class="fil9" x="3748" y="3542" width="6492" height="3739"/>
  <path class="fil10" d="M10969 7683l-8279 0 0 0c0,103 84,186 186,186l7907 0c103,0 186,-84 186,-186l0 0 0 0 0 0z"/>
  <path class="fil11" d="M5388 4571c16,-14 23,-27 23,-46 0,-41 -55,-73 -125,-73 -63,0 -117,28 -124,64 -39,-9 -78,-13 -117,-13 -117,0 -218,41 -273,96 -23,-18 -70,-32 -117,-32 -23,0 -47,5 -70,9 -47,-46 -125,-78 -226,-78 -101,0 -195,37 -234,87l-23 0c-78,0 -140,37 -140,78 0,41 63,78 140,78 23,0 39,-5 55,-9 63,41 132,64 211,64l8 0c16,32 63,55 125,55 16,0 31,0 47,-5 39,41 109,64 195,64 86,0 164,-28 203,-73 31,9 70,9 101,9 101,0 187,-28 242,-74 16,4 39,4 63,4 101,0 187,-51 187,-110 0,-46 -63,-87 -148,-96l0 0 0 -1z"/>
  <path class="fil11" d="M9879 4736c10,-9 14,-17 14,-28 0,-25 -34,-45 -77,-45 -38,0 -72,17 -77,39 -24,-5 -48,-8 -72,-8 -72,0 -134,26 -168,59 -14,-11 -43,-20 -72,-20 -14,0 -29,3 -43,5 -29,-28 -77,-48 -139,-48 -63,0 -120,23 -144,54l-14 0c-48,0 -86,23 -86,48 0,25 38,48 86,48 14,0 24,-3 34,-5 38,25 81,39 130,39l5 0c10,20 38,34 77,34 10,0 19,0 29,-3 24,25 67,39 120,39 53,0 101,-17 124,-45 19,5 43,5 63,5 63,0 115,-17 149,-45 10,3 24,3 38,3 63,0 115,-31 115,-68 0,-28 -38,-53 -91,-59l0 0 0 1z"/>
  <path class="fil11" d="M8956 5262c17,-15 25,-30 25,-49 0,-44 -59,-78 -134,-78 -67,0 -125,30 -134,69 -42,-10 -84,-15 -126,-14 -126,0 -234,45 -293,104 -25,-20 -75,-34 -126,-34 -25,0 -50,5 -75,10 -50,-49 -134,-83 -243,-83 -109,0 -209,39 -251,94l-25 0c-84,0 -151,39 -150,84 0,44 67,83 151,83 25,0 42,-5 59,-10 67,44 143,69 226,68l8 0c17,34 67,59 134,59 17,0 34,0 50,-5 42,44 117,69 209,68 92,0 176,-30 218,-79 34,10 75,10 109,10 109,0 201,-30 259,-79 17,5 42,5 67,5 109,0 201,-54 201,-118 0,-49 -67,-93 -159,-103l0 0 0 0z"/>
  <rect class="fil12" x="4850" y="7421" width="1811" height="143"/>
  <path class="fil13" d="M10969 7683l-8279 0 0 0c0,22 4,44 11,60 7,20 14,31 16,33l8226 0c1,-1 27,-36 27,-93l0 0 0 0 0 0z"/>
  <path class="fil14" d="M6147 5451c-200,0 -400,0 -600,0 -263,524 -526,1049 -789,1573 742,13 1484,27 2226,41 -279,-538 -558,-1076 -837,-1614l0 0 0 0z"/>
  <path class="fil14" d="M6099 5586c-168,0 -336,0 -503,0 -221,440 -441,880 -662,1320 623,12 1245,23 1868,34 -234,-452 -468,-903 -702,-1355l0 0z"/>
  <path class="fil14" d="M8151 6417c-235,0 -425,129 -425,288 0,159 190,288 425,288 235,0 425,-129 425,-288 0,-159 -190,-288 -425,-288z"/>
  <path class="fil14" d="M7499 6385c-167,0 -302,114 -302,254 0,140 135,254 302,254 167,0 302,-114 302,-254 0,-140 -135,-254 -302,-254z"/>
  <path class="fil14" d="M7015 6304c-214,0 -388,118 -388,263 0,145 174,263 388,263 214,0 388,-118 388,-263 0,-145 -174,-263 -388,-263z"/>
  <path class="fil14" d="M6530 6017c-277,0 -502,173 -502,386 0,214 225,386 502,386 277,0 502,-173 502,-386 0,-214 -225,-386 -502,-386z"/>
  <path class="fil14" d="M8523 6487c-235,0 -425,129 -425,288 0,159 190,288 425,288 235,0 425,-129 425,-288 0,-159 -190,-288 -425,-288z"/>
  <path class="fil14" d="M9040 6662c-127,0 -231,70 -231,156 0,86 103,156 231,156 127,0 231,-70 231,-156 0,-86 -103,-156 -231,-156z"/>
  <path class="fil14" d="M8151 6417c-235,0 -425,129 -425,288 0,159 190,288 425,288 235,0 425,-129 425,-288 0,-159 -190,-288 -425,-288z"/>
  <path class="fil14" d="M9568 6716c-127,0 -231,70 -231,156 0,86 103,156 231,156 127,0 231,-70 231,-156 0,-86 -103,-156 -231,-156z"/>
  <path class="fil14" d="M9040 6662c-127,0 -231,70 -231,156 0,86 103,156 231,156 127,0 231,-70 231,-156 0,-86 -103,-156 -231,-156z"/>
  <path class="fil14" d="M10194 6602c-127,0 -231,70 -231,156 0,86 103,156 231,156 127,0 87,-75 87,-161 0,-86 40,-151 -87,-151l0 0 0 0z"/>
  <path class="fil14" d="M9881 6631c-127,0 -231,70 -231,156 0,86 103,156 231,156 127,0 231,-70 231,-156 0,-86 -103,-156 -231,-156z"/>
  <path class="fil14" d="M9375 6673c-127,0 -231,70 -231,156 0,86 103,156 231,156 127,0 231,-70 231,-156 0,-86 -103,-156 -231,-156z"/>
  <path class="fil14" d="M4050 6417c137,0 248,129 248,288 0,159 -111,288 -248,288 -137,0 -248,-129 -248,-288 0,-159 111,-288 248,-288z"/>
  <path class="fil14" d="M4541 6385c167,0 302,114 302,254 0,140 -135,254 -302,254 -167,0 -302,-114 -302,-254 0,-140 135,-254 302,-254z"/>
  <path class="fil14" d="M4962 6219c249,0 450,137 450,305 0,168 -201,305 -450,305 -249,0 -450,-137 -450,-305 0,-168 201,-305 450,-305z"/>
  <path class="fil15" d="M6093 5779c-159,0 -319,0 -478,0 -209,418 -419,835 -629,1253 591,11 1182,21 1773,32 -222,-429 -445,-857 -667,-1286l0 0 0 0z"/>
  <path class="fil15" d="M8042 6569c-223,0 -403,122 -403,273 0,151 181,273 403,273 223,0 403,-122 403,-273 0,-151 -181,-273 -403,-273z"/>
  <path class="fil15" d="M7423 6538c-158,0 -287,108 -287,241 0,133 128,241 287,241 158,0 287,-108 287,-241 0,-133 -128,-241 -287,-241z"/>
  <path class="fil15" d="M6963 6461c-203,0 -368,112 -368,250 0,138 165,250 368,250 203,0 368,-112 368,-250 0,-138 -165,-250 -368,-250z"/>
  <path class="fil15" d="M6517 6165c-272,0 -492,169 -492,378 0,209 220,378 492,378 272,0 492,-169 492,-378 0,-209 -220,-378 -492,-378z"/>
  <rect class="fil15" x="3840" y="6866" width="6369" height="416"/>
  <path class="fil15" d="M8394 6635c-223,0 -403,122 -403,273 0,151 181,273 403,273 223,0 403,-122 403,-273 0,-151 -181,-273 -403,-273z"/>
  <path class="fil15" d="M8886 6801c-121,0 -219,66 -219,148 0,82 98,148 219,148 121,0 219,-66 219,-148 0,-82 -98,-148 -219,-148z"/>
  <path class="fil15" d="M8042 6569c-223,0 -403,122 -403,273 0,151 181,273 403,273 223,0 403,-122 403,-273 0,-151 -181,-273 -403,-273z"/>
  <path class="fil15" d="M9387 6852c-121,0 -219,66 -219,148 0,82 98,148 219,148 121,0 219,-66 219,-148 0,-82 -98,-148 -219,-148z"/>
  <path class="fil15" d="M8886 6801c-121,0 -219,66 -219,148 0,82 98,148 219,148 121,0 219,-66 219,-148 0,-82 -98,-148 -219,-148z"/>
  <path class="fil15" d="M4111 6569c160,0 289,122 289,273 0,151 -129,273 -289,273 -160,0 -289,-122 -289,-273 0,-151 129,-273 289,-273z"/>
  <path class="fil15" d="M9981 6744c-121,0 -219,66 -219,148 0,82 98,148 219,148 121,0 219,-66 219,-148 0,-82 -98,-148 -219,-148z"/>
  <path class="fil16" d="M10215 7282l-6313 0 0 -3739 6313 0 0 3739zm-125 -4047l-6055 0c-158,0 -287,139 -287,308l0 4140 6629 0 0 -4140c0,-169 -129,-308 -287,-308l0 0 0 0z"/>
  <path class="fil17" d="M6666 3546c132,88 307,234 424,424 117,190 175,424 190,541 15,117 -15,117 -59,73 -44,-44 -103,-132 -190,-234 -88,-103 -205,-219 -322,-293 -117,-73 -234,-103 -293,-205 -59,-103 -59,-278 -15,-351 44,-73 132,-44 263,44l0 0 0 0z"/>
  <path class="fil18" d="M6666 3546c132,88 307,234 424,424 117,190 175,424 190,541 15,117 -15,117 -59,73 -44,-44 -103,-132 -190,-234 -88,-103 -205,-219 -322,-293 -117,-73 -234,-103 -293,-205 -59,-103 -59,-278 -15,-351 44,-73 132,-44 263,44l0 0 0 0z"/>
  <path class="fil18" d="M4958 3546c-132,88 -307,234 -424,424 -117,190 -175,424 -190,541 -15,117 15,117 59,73 44,-44 103,-132 190,-234 88,-103 205,-219 322,-293 117,-73 234,-103 293,-205 59,-103 59,-278 15,-351 -44,-73 -132,-44 -263,44l0 0 0 0z"/>
  <path class="fil19" d="M5047 4618l73 0 81 303 613 0 613 0 81 -303 73 0c95,-853 190,-1706 62,-2385 -128,-679 -479,-1184 -830,-1689 -351,505 -702,1010 -830,1689 -128,679 -33,1532 62,2385l0 0z"/>
  <path class="fil20" d="M5815 1847c-194,0 -351,157 -351,351 0,194 157,351 351,351 194,0 351,-157 351,-351 0,-194 -157,-351 -351,-351zm0 -88c-242,0 -439,197 -439,439 0,242 197,439 439,439 242,0 439,-197 439,-439 0,-242 -197,-439 -439,-439z"/>
  <path class="fil18" d="M5815 545c-176,254 -356,513 -504,789l1008 0c-148,-275 -328,-536 -504,-789l0 0 0 0z"/>
  <path class="fil21" d="M5815 1847c-194,0 -351,157 -351,351 0,194 157,351 351,351 194,0 351,-157 351,-351 0,-194 -157,-351 -351,-351z"/>
  <polygon class="fil16" points="5047,4618 5121,4618 5202,4921 5815,4921 6428,4921 6510,4618 6583,4618 "/>
  <path class="fil18" d="M5895 4426c-16,171 -140,168 -157,-4 -138,-1418 293,-1415 157,4z"/>
  <path class="fil17" d="M5815 6210c237,-347 474,-693 474,-908 0,-215 -223,-380 -474,-380 -251,0 -474,166 -474,380 0,215 237,561 474,908z"/>
  <path class="fil22" d="M5815 6047c188,-303 376,-606 376,-793 0,-188 -176,-332 -376,-332 -199,0 -375,145 -375,332 0,188 188,490 375,793z"/>
  <path class="fil15" d="M5815 5764c97,-227 195,-453 195,-594 0,-140 -92,-249 -195,-249 -103,0 -195,108 -195,249 0,140 97,367 195,594z"/>
  <path class="fil17" d="M5998 5664c91,-231 182,-462 155,-585 -28,-124 -178,-190 -323,-157 -145,33 -251,157 -224,281 28,124 210,293 392,462l0 0z"/>
  <path class="fil22" d="M5977 5570c69,-199 137,-398 113,-506 -24,-108 -145,-168 -260,-143 -115,26 -198,132 -173,241 24,108 172,258 320,408l0 0z"/>
  <path class="fil15" d="M5940 5407c27,-143 53,-287 35,-368 -18,-81 -85,-132 -145,-118 -60,13 -98,88 -80,169 18,81 104,199 190,317l0 0 0 0z"/>
  <path class="fil17" d="M5998 5664c91,-231 182,-462 155,-585 -28,-124 -178,-190 -323,-157 -145,33 -251,157 -224,281 28,124 210,293 392,462l0 0z"/>
  <path class="fil22" d="M5977 5570c69,-199 137,-398 113,-506 -24,-108 -145,-168 -260,-143 -115,26 -198,132 -173,241 24,108 172,258 320,408l0 0z"/>
  <path class="fil15" d="M5940 5407c27,-143 53,-287 35,-368 -18,-81 -85,-132 -145,-118 -60,13 -98,88 -80,169 18,81 104,199 190,317l0 0 0 0z"/>
  <path class="fil17" d="M5619 5502c159,-120 319,-240 352,-337 33,-97 -43,-205 -156,-243 -113,-38 -239,3 -271,99 -33,97 21,289 76,481l0 0z"/>
  <path class="fil22" d="M5644 5429c131,-108 261,-216 290,-301 29,-85 -29,-177 -119,-207 -89,-30 -191,8 -220,93 -29,85 10,250 49,415l0 0 0 0z"/>
  <path class="fil15" d="M5687 5302c78,-88 157,-175 178,-238 21,-63 -4,-126 -50,-142 -47,-16 -104,19 -125,82 -21,63 -12,180 -3,297l0 0 0 0z"/>
  <path class="fil15" d="M9684 6771c-121,0 -219,66 -219,148 0,82 98,148 219,148 121,0 219,-66 219,-148 0,-82 -98,-148 -219,-148z"/>
  <path class="fil15" d="M9204 6811c-121,0 -219,66 -219,148 0,82 98,148 219,148 121,0 219,-66 219,-148 0,-82 -98,-148 -219,-148z"/>
  <path class="fil15" d="M4615 6538c158,0 287,108 287,241 0,133 -128,241 -287,241 -158,0 -287,-108 -287,-241 0,-133 128,-241 287,-241z"/>
  <path class="fil15" d="M5016 6382c235,0 426,129 426,289 0,159 -191,289 -426,289 -235,0 -426,-129 -426,-289 0,-159 191,-289 426,-289z"/>
  <path class="fil23" d="M9746 738l44 -32c106,-84 139,-203 153,-331l17 -6c56,-22 96,-53 119,-109 19,-45 18,-99 -1,-144 -19,-46 -49,-81 -95,-100 -44,-19 -92,-21 -137,-2 -58,25 -83,73 -105,129 -92,-44 -193,-58 -293,-30 -48,13 -96,37 -132,71 -16,16 -30,34 -47,50 -20,19 -43,34 -56,59 -40,72 -42,145 -20,223 213,160 304,187 485,134 20,26 54,59 67,89l0 0 0 -1z"/>
  <path class="fil1" d="M9215 635c13,-42 -5,-80 -20,-119 11,-34 14,-67 23,-100 9,-32 18,-27 32,-57 47,88 120,112 216,141l82 23 33 105c3,-46 -1,-100 38,-132 13,-11 24,-13 40,-14 23,13 41,25 50,52 6,20 5,43 -5,62l-24 37 0 18c-8,73 -78,143 -128,192l-15 13c-39,27 -109,68 -158,57 -51,-11 -87,-78 -103,-123 -7,-20 -12,-48 -24,-65 -7,-10 -27,-9 -39,-11 -15,-5 -36,-5 -36,-21 1,-16 24,-38 38,-56l0 0 0 0zm465 15c-8,73 -78,143 -128,192 25,50 46,103 26,160l-3 8 13 25c18,1 37,2 54,-2 72,-17 189,-53 228,-116 -26,-52 -106,-123 -123,-178 -13,-30 -47,-63 -67,-89l0 1 0 0z"/>
  <path class="fil24" d="M8356 4077l143 53c0,0 415,-499 441,-701 20,-255 634,-158 917,-194 281,-35 399,-182 376,-405 40,-242 -1444,203 -1444,203l-432 1044 0 0 0 0z"/>
  <path class="fil25" d="M10192 2794c0,0 138,481 -471,440 -480,-33 -645,-46 -775,-43 35,236 121,944 80,1057l-195 39c0,0 -471,-1315 -151,-1435 320,-120 1068,-84 1068,-84l444 28 0 -1 0 0z"/>
  <path class="fil26" d="M10160 1638c-31,181 -70,373 -49,555 17,144 113,505 113,599 27,73 -752,159 -857,-37 15,-128 36,-268 36,-395 17,-141 52,-286 5,-420 -28,-78 -117,-238 -140,-319 19,-227 148,-407 225,-529 77,-122 55,-90 93,-122l7 33c17,4 35,10 52,8 73,-7 159,-61 209,-128 229,49 228,73 308,153 153,153 241,677 288,895 -75,38 -165,38 -255,77 -12,-90 89,-210 -35,-370l0 0 -1 0z"/>
  <path class="fil1" d="M10517 2226c-141,-484 -79,-559 -290,-518 -81,16 65,693 176,657 0,0 147,-46 114,-139l0 0z"/>
  <path class="fil1" d="M10397 2366l-846 314c-74,-88 -16,-141 -16,-141l853 -447c0,0 177,135 9,273l0 0 0 0z"/>
  <path class="fil1" d="M9597 2626c0,0 -21,53 -66,71 -61,26 -263,27 -273,23 -22,-8 -9,-17 -9,-17 0,0 -36,9 -48,0 -12,-9 8,-24 8,-24 0,0 -24,3 -34,-5 -9,-8 18,-25 18,-25 0,0 -26,3 -34,-8 -9,-11 27,-38 49,-47 62,-23 111,-30 161,-31 0,0 -68,-21 -57,-34 18,-20 166,9 216,17 50,9 69,79 69,79l0 0 0 0z"/>
  <path class="fil26" d="M10067 1641c34,-198 -74,-497 102,-593 9,-5 143,390 210,582l72 302c-81,24 -161,67 -256,91 -15,-87 -31,-203 -127,-381l0 0 0 0z"/>
  <path class="fil23" d="M7960 4167l-2 13 441 216 7 -13c21,-40 34,-89 49,-132l-150 -63c-71,-16 -142,-26 -214,-34 -23,-2 -50,-8 -73,-5 -19,2 -39,11 -57,19l0 0 0 0z"/>
  <path class="fil23" d="M8570 4556l5 13 487 -63 -2 -15c-5,-45 -21,-93 -32,-138l-159 30c-68,26 -133,56 -197,90 -21,11 -47,21 -64,36 -15,13 -27,31 -38,47l0 0 0 0z"/>
  <polygon class="fil27" points="9021,4354 9009,4250 8847,4283 8868,4383 "/>
  <polygon class="fil27" points="8444,4246 8491,4127 8372,4084 8317,4192 "/>
 </g>
</svg>
