<?xml version="1.0" encoding="UTF-8"?>
<!DOCTYPE svg PUBLIC "-//W3C//DTD SVG 1.1//EN" "http://www.w3.org/Graphics/SVG/1.1/DTD/svg11.dtd">
<!-- Creator: CorelDRAW X5 -->
<svg xmlns="http://www.w3.org/2000/svg" xml:space="preserve" width="495.208mm" height="398.311mm" style="shape-rendering:geometricPrecision; text-rendering:geometricPrecision; image-rendering:optimizeQuality; fill-rule:evenodd; clip-rule:evenodd"
viewBox="0 0 6614 5320"
 xmlns:xlink="http://www.w3.org/1999/xlink">
 <defs>
  <style type="text/css">
   <![CDATA[
    .str0 {stroke:#2B2A29;stroke-width:2.67135}
    .fil20 {fill:#FFED00}
    .fil22 {fill:#FBBA13}
    .fil1 {fill:#FEB48C}
    .fil0 {fill:#1F1B20}
    .fil21 {fill:#252525}
    .fil19 {fill:#B1AEAA}
    .fil6 {fill:#2B2A29;fill-rule:nonzero}
    .fil16 {fill:#967BB6;fill-rule:nonzero}
    .fil12 {fill:#EA5A5B;fill-rule:nonzero}
    .fil2 {fill:#FFED00;fill-rule:nonzero}
    .fil15 {fill:black;fill-rule:nonzero}
    .fil25 {fill:#1B2124;fill-rule:nonzero}
    .fil7 {fill:#22313B;fill-rule:nonzero}
    .fil23 {fill:#262625;fill-rule:nonzero}
    .fil18 {fill:#282A33;fill-rule:nonzero}
    .fil9 {fill:#2D313D;fill-rule:nonzero}
    .fil28 {fill:#3E4A4F;fill-rule:nonzero}
    .fil11 {fill:#4D4D4D;fill-rule:nonzero}
    .fil31 {fill:#4E756D;fill-rule:nonzero}
    .fil30 {fill:#7D7573;fill-rule:nonzero}
    .fil8 {fill:#7D9BAD;fill-rule:nonzero}
    .fil14 {fill:#9D273F;fill-rule:nonzero}
    .fil32 {fill:#C4B3B2;fill-rule:nonzero}
    .fil26 {fill:#CCCCCC;fill-rule:nonzero}
    .fil4 {fill:#D4E1E2;fill-rule:nonzero}
    .fil29 {fill:#E0E0E0;fill-rule:nonzero}
    .fil17 {fill:#F2A480;fill-rule:nonzero}
    .fil27 {fill:#F2E1DD;fill-rule:nonzero}
    .fil24 {fill:#FBBA13;fill-rule:nonzero}
    .fil5 {fill:#FEB48C;fill-rule:nonzero}
    .fil13 {fill:white;fill-rule:nonzero}
    .fil10 {fill:#AAAAAB;fill-rule:nonzero}
    .fil3 {fill:url(#id0)}
   ]]>
  </style>
  <linearGradient id="id0" gradientUnits="userSpaceOnUse" x1="541.191" y1="1804.71" x2="541.191" y2="1806.57">
   <stop offset="0" style="stop-color:#A2532D"/>
   <stop offset="0.611765" style="stop-color:#9D522D"/>
   <stop offset="1" style="stop-color:#97502E"/>
  </linearGradient>
 </defs>
 <g id="Vrstva_x0020_1">
  <metadata id="CorelCorpID_0Corel-Layer"/>
  <ellipse class="fil0" cx="545" cy="1968" rx="86" ry="53"/>
  <path class="fil1" d="M2005 3137c-55,4 -72,11 -81,15 -9,4 -9,6 4,70 13,64 38,191 51,255 13,63 13,63 0,76 -13,13 -38,38 -59,92 -21,54 -36,138 -41,195 -5,58 1,90 -4,123 -5,32 -21,65 -30,92 -9,28 -12,50 -6,92 6,42 20,102 42,136 22,34 52,41 75,40 23,-1 38,-9 40,-35 1,-26 -11,-70 -21,-104 -9,-35 -15,-60 -6,-102 9,-42 33,-99 76,-186 42,-87 102,-202 140,-282 38,-80 53,-123 60,-198 6,-74 4,-178 -44,-231 -48,-52 -140,-52 -195,-49z"/>
  <path class="fil2" d="M79 1193c4,-277 218,-498 478,-494 260,4 467,231 463,508 -2,161 -79,275 -191,365 -39,31 -59,108 -60,160l-1 78 -449 -7 1 -73c1,-52 -6,-122 -44,-154 -112,-93 -199,-219 -197,-382z"/>
  <path class="fil3" d="M604 1807l-9 0 0 0 9 0zm-109 -2l-16 0 16 0 0 0z"/>
  <path class="fil4" d="M6479 5320l0 0c2,-84 41,-146 41,-146l0 0c0,0 -39,62 -41,146z"/>
  <path class="fil5" d="M5402 1821c0,0 -17,-46 -3,-67 12,-19 8,-12 13,-20 2,-3 6,-8 6,-8 0,0 34,-51 24,-67 -9,-16 -26,-12 -39,18 -13,30 -61,18 -53,-34 8,-52 1,-113 -18,-104 -19,10 -18,54 -18,54 0,0 -2,0 -2,-11 1,-11 13,-38 5,-37 -8,1 -59,7 -78,76 -18,68 10,107 20,125 9,17 28,85 22,108 0,0 114,7 121,-32z"/>
  <path class="fil6" d="M5784 1926c-105,-1 -317,218 -317,218 -21,-25 -47,-242 -58,-351 0,0 -114,8 -143,35 0,0 -32,532 34,596 66,64 252,-85 252,-85l288 -201c27,-35 -14,-212 -56,-212z"/>
  <path class="fil7" d="M5937 4757l10 103c0,0 -100,43 -118,22 -18,-20 -30,-15 -30,-15l-9 -130 147 20z"/>
  <polygon class="fil7" points="6374,4726 6368,4824 6237,4818 6222,4708 "/>
  <path class="fil8" d="M6339 3066c0,0 7,257 -8,405 -15,148 -43,516 -21,626 21,101 83,542 95,670 1,14 -10,26 -25,26 -58,0 -150,10 -165,-18 -20,-36 -170,-597 -192,-707 -22,-110 -74,-476 -74,-476 0,0 -4,423 -1,534l19 650c0,16 -14,29 -30,27 -52,-5 -116,-6 -159,-18 0,0 -69,-432 -94,-634 -25,-202 -64,-936 -11,-1020 53,-85 667,-65 667,-65z"/>
  <path class="fil9" d="M6389 4829c0,0 -142,-29 -178,-30 0,0 1,35 -16,53 -17,18 -120,125 -102,142 18,17 195,29 300,-9l-4 -157z"/>
  <path class="fil9" d="M5948 4838c6,-1 11,4 12,10l4 132c0,0 16,15 -79,18 -96,3 -352,10 -368,-5 -16,-15 -1,-32 78,-66 79,-34 165,-92 196,-125 111,-3 -49,58 158,36z"/>
  <path class="fil5" d="M6119 1868l-23 -94 -202 1 -14 119c0,0 102,148 240,-27z"/>
  <path class="fil5" d="M5785 1513c0,0 2,99 5,152 4,53 11,174 118,185 107,10 164,-46 202,-71 0,0 120,-120 100,-154 -20,-34 -45,-139 -151,-132 -106,7 -273,20 -273,20z"/>
  <path class="fil10" d="M6159 1852c-34,223 -252,557 -382,713 -50,-106 -45,-560 -17,-631 29,-21 115,-42 115,-42l40 34 201 -107 42 34z"/>
  <path class="fil6" d="M5677 2921c0,-25 -13,-453 -13,-453 0,0 -46,-310 4,-419 20,-44 86,-120 134,-135 -50,222 -74,417 -25,651l48 504 -29 149c0,0 -67,-4 -140,-66 0,0 20,-205 20,-230z"/>
  <path class="fil11" d="M5876 1891l40 34 201 -107 7 6 -143 162 -61 -45 -71 35 -38 -66c32,-11 64,-19 64,-19z"/>
  <path class="fil6" d="M5777 2565l0 0c109,-132 262,-539 382,-713 0,0 138,58 233,134l-27 549 -39 239 52 402c0,0 -338,72 -527,28 0,0 -107,-557 -88,-601 2,-5 7,-19 15,-39z"/>
  <path class="fil12" d="M5871 3001l347 -147c9,-4 13,-14 9,-23l-204 -479c-4,-9 -14,-13 -23,-9l-347 147c-9,4 -13,14 -9,23l204 479c4,9 14,13 23,9z"/>
  <path class="fil13" d="M5852 2779l167 -71c4,-2 5,-6 4,-10 -2,-4 -6,-6 -10,-4l-167 71c-4,2 -5,6 -4,10 2,4 6,6 10,4z"/>
  <path class="fil14" d="M5917 2708l76 -32c4,-2 6,-6 4,-10 -2,-4 -6,-6 -10,-4l-76 32c-4,2 -5,6 -4,10 2,4 6,6 10,4z"/>
  <path class="fil13" d="M5952 2789l76 -32c4,-2 5,-6 4,-10 -2,-4 -6,-6 -10,-4l-76 32c-4,2 -5,6 -4,10 2,4 6,6 10,4z"/>
  <path class="fil2" d="M5805 1514c57,-10 144,9 151,39 7,30 -15,62 7,66 22,4 30,-29 49,-22 19,7 49,15 43,44 -6,29 8,126 16,142 8,16 69,2 75,0 6,-2 34,-89 56,-125 21,-36 89,-242 0,-284 0,0 -14,-50 -65,-70 -51,-20 -139,-33 -203,-6 -64,27 -136,73 -170,65 0,0 -28,0 -17,22 12,22 26,35 44,44 0,0 -36,-17 -57,-30 -29,-18 6,126 70,115z"/>
  <path class="fil13" d="M5782 2609l167 -71c4,-2 6,-6 4,-10 -2,-4 -6,-6 -10,-4l-167 71c-4,2 -5,6 -4,10 2,4 6,6 10,4z"/>
  <path class="fil13" d="M5764 2569l76 -32c4,-2 6,-6 4,-10 -2,-4 -6,-6 -10,-4l-76 32c-4,2 -6,6 -4,10 2,4 6,6 10,4z"/>
  <path class="fil13" d="M5818 2694l167 -71c4,-2 5,-6 4,-10 -2,-4 -6,-6 -10,-4l-167 71c-4,2 -5,6 -4,10 2,4 6,6 10,4z"/>
  <path class="fil13" d="M5868 2631l76 -32c4,-2 6,-6 4,-10 -2,-4 -6,-6 -10,-4l-76 32c-4,2 -6,6 -4,10 2,4 6,6 10,4z"/>
  <path class="fil13" d="M5877 2850l167 -71c4,-2 5,-6 4,-10 -2,-4 -6,-6 -10,-4l-167 71c-4,2 -5,6 -4,10 2,4 6,6 10,4z"/>
  <path class="fil5" d="M5944 2632c0,0 71,5 116,58 2,4 7,6 5,12l6 85c-95,1 -136,-1 -152,-7 -44,-15 -109,-49 -56,-77 -41,-26 -22,-26 1,-52 -6,-6 -27,-42 -4,-52 32,-13 85,33 85,33z"/>
  <path class="fil6" d="M6330 1948c0,0 184,54 258,469 74,415 -24,387 -107,402 -83,15 -425,-3 -425,-3l-3 -153c0,0 332,-15 354,-40 22,-25 -10,-119 -60,-249 -49,-131 -69,-397 -17,-425z"/>
  <path class="fil5" d="M2295 1511l26 136c9,25 -139,60 -187,21l24 -175 138 17z"/>
  <path class="fil5" d="M2365 1418c-17,53 -53,85 -64,95 -17,15 -33,21 -48,28 -17,8 -38,8 -55,-1 -26,-14 -43,-26 -52,-37 0,0 -51,-59 -50,-172 0,-1 0,-3 0,-3 0,-36 -1,-55 8,-79 9,-23 25,-48 46,-68 20,-18 44,-32 73,-37 7,-1 15,-2 22,-2 9,0 18,1 27,3 42,10 79,39 95,76 11,24 11,46 10,88 0,2 0,5 0,7 -1,24 -2,64 -14,101z"/>
  <path class="fil15" d="M2106 1546c22,-194 -38,-231 130,-323 88,59 127,109 126,219 0,28 -23,87 -39,136 412,-523 -564,-639 -217,-32z"/>
  <path class="fil5" d="M2117 1408c-8,-32 -14,-36 -16,-37 -33,-12 -32,21 -29,46 2,8 5,9 9,22 4,13 3,15 6,20 7,11 21,17 29,12 3,-2 4,-6 5,-11 3,-18 0,-35 -4,-52z"/>
  <path class="fil5" d="M2353 1408c13,-30 19,-33 22,-34 8,-3 17,-1 21,2 14,18 -3,53 -11,69 -6,12 -5,14 -10,19 -9,9 -24,13 -31,7 -3,-3 -3,-7 -4,-12 0,-19 5,-34 12,-50z"/>
  <path class="fil16" d="M2041 1521c-81,-58 -82,-62 -142,-160 2,-14 -97,9 -122,121 64,112 104,69 183,245 38,-111 42,-95 81,-206z"/>
  <path class="fil16" d="M2353 1586c-19,19 -7,32 -81,81 -21,14 -42,19 -55,21 -9,-2 -22,-6 -35,-16 -32,-24 -38,-62 -39,-71 -15,-7 -31,-15 -49,-29 -23,-18 -41,-36 -53,-51 -85,163 -126,288 -93,392 52,160 22,340 28,454 56,14 129,26 215,27 107,1 196,-16 261,-34 -36,-424 85,-432 29,-625 -21,-73 -109,-51 -129,-149z"/>
  <path class="fil16" d="M2353 1586c63,-97 61,-111 142,-216 43,11 90,78 110,138 -52,85 -94,140 -119,245 -30,-104 -137,3 -133,-167z"/>
  <path class="fil17" d="M2897 1060c-6,0 -29,-2 -50,-20 -18,-16 -23,-36 -25,-43 13,-20 55,-168 84,-163 22,6 -15,45 -5,59 14,18 152,-42 170,-18 3,9 -4,9 -11,21 9,2 22,7 22,14 1,8 -11,16 -24,15 0,0 8,12 3,22 -4,7 -18,7 -26,5 1,3 7,12 5,17 -10,29 -100,3 -144,90z"/>
  <path class="fil1" d="M2496 4801c-1,-65 -2,-87 -1,-209 2,-121 62,-449 65,-630 3,-180 -32,-263 -42,-377 -10,-114 4,-260 11,-340 7,-79 7,-92 -31,-113 -38,-21 -113,-51 -172,-45 -59,6 -101,47 -144,89 27,133 54,267 94,427 40,160 94,347 108,520 13,173 -13,333 -33,460 -19,127 -15,128 -27,222 26,-6 48,59 76,58 28,-1 66,-67 95,-63z"/>
  <path class="fil5" d="M2897 1060c-6,0 -29,-2 -50,-20 -18,-16 -23,-36 -25,-43 13,-20 55,-168 84,-163 22,6 -15,45 -5,59 14,18 152,-42 170,-18 3,9 -4,9 -11,21 9,2 22,7 22,14 1,8 -11,16 -24,15 0,0 8,12 3,22 -4,7 -18,7 -26,5 1,3 7,12 5,17 -10,29 -100,3 -144,90zm-327 425c-27,-33 -53,-59 -80,-92 9,-27 31,-62 84,-127 53,-65 151,-167 248,-269 14,6 29,12 41,23 12,10 23,25 33,40 -87,108 -174,216 -227,287 -52,71 -83,105 -100,138zm-761 0c27,-33 54,-67 81,-100 -9,-27 -18,-55 -72,-120 -53,-65 -151,-167 -248,-269 -14,6 -29,12 -41,23 -12,10 -23,25 -33,40 87,108 174,216 227,287 52,71 69,105 86,138zm-313 -425c6,0 29,-2 50,-20 18,-16 23,-36 25,-43 -13,-20 -55,-168 -84,-163 -22,6 15,45 5,59 -14,18 -152,-42 -170,-18 -3,10 5,25 11,21 -9,2 -22,7 -22,14 -1,8 16,22 29,20 0,0 -13,7 -7,16 4,7 20,12 28,10 -1,3 -9,7 -7,12 10,29 100,3 144,90z"/>
  <path class="fil18" d="M2539 2652c-6,-48 -16,-124 -49,-220 -16,-47 -33,-85 -47,-112 -139,-3 -326,9 -459,-2 -32,77 -56,167 -75,304 -13,92 -13,162 -12,278 0,88 -2,132 12,275 69,25 179,78 320,77 133,-1 252,-24 320,-48 1,-20 19,-326 -10,-551z"/>
  <path class="fil0" d="M2326 4801c30,-7 59,-15 87,-15 28,-1 54,4 80,10 0,-16 0,-32 0,-46 0,-14 0,-26 1,-37 3,25 7,49 8,90 1,41 1,98 -9,136 -10,38 -29,58 -46,67 -18,9 -34,8 -51,-1 -18,-9 -37,-26 -51,-58 -14,-32 -24,-79 -24,-122 0,-43 9,-82 18,-122 -2,17 -4,34 -6,51 -2,16 -4,32 -6,48z"/>
  <path class="fil0" d="M1977 4241c2,-14 2,-43 -2,-60 7,16 9,34 17,62 8,28 22,67 18,95 -3,23 -19,61 -52,62 -39,1 -99,-54 -135,-219 -3,-2 -9,38 -11,32 -8,-20 -6,-105 25,-115 -7,28 18,134 23,140 15,16 65,-11 116,2z"/>
  <rect class="fil19" x="340" y="1887" width="411" height="85" rx="49" ry="49"/>
  <rect class="fil20" x="523" y="315" width="67" height="267"/>
  <rect class="fil20" transform="matrix(0.875852 0.48258 -0.48258 0.875852 1030.49 458.794)" width="67" height="267"/>
  <rect class="fil20" x="523" y="315" width="67" height="267"/>
  <rect class="fil20" transform="matrix(-0.875852 0.48258 0.48258 0.875852 58.4922 458.794)" width="67" height="267"/>
  <rect class="fil21 str0" transform="matrix(0.557066 0.0214228 0.654223 0.425587 1960.42 1.51965)" width="1402" height="1002"/>
  <ellipse class="fil22" transform="matrix(0.806211 0.256111 -0.256111 0.806211 3191.84 657.333)" rx="77" ry="78"/>
  <path class="fil23" d="M2321 381c80,46 172,96 315,133 135,35 254,33 343,33l49 -187c-53,-46 -154,-133 -314,-174 -158,-41 -296,-16 -364,-2l-29 198z"/>
  <path class="fil24" d="M3012 169c283,-28 338,194 238,388 -156,317 346,-362 -145,-397 -32,-2 -63,-1 -94,3 -2,0 -3,2 -2,3 0,2 2,3 4,2l0 0z"/>
  <path class="fil25" d="M4107 4297l323 -505 0 -884 53 0 0 884 323 505c8,12 4,28 -8,36 -12,8 -29,4 -36,-8l-278 -435 0 426c0,15 -12,26 -26,26 -14,0 -26,-12 -26,-26l0 -426 -278 435c-8,12 -24,16 -36,8 -12,-8 -16,-24 -8,-36z"/>
  <polygon class="fil26" points="3845,3080 4983,3080 4983,1498 3845,1498 "/>
  <polygon class="fil13" points="3886,3118 5023,3118 5023,1401 3886,1401 "/>
  <path class="fil27" d="M4165 1695l-179 0c-7,0 -13,5 -13,11 0,6 6,11 13,11l179 0c7,0 13,-5 13,-11 0,-6 -6,-11 -13,-11z"/>
  <path class="fil27" d="M4592 1695l-340 0c-7,0 -12,5 -12,11 0,6 5,11 12,11l340 0c7,0 12,-5 12,-11 0,-6 -5,-11 -12,-11z"/>
  <path class="fil27" d="M4676 1706l0 0c0,6 4,11 10,11l246 0c6,0 10,-5 10,-11 0,-6 -4,-11 -10,-11l-246 0c-6,0 -10,5 -10,11z"/>
  <path class="fil27" d="M4569 1755l-586 0c-5,0 -9,5 -9,11 0,6 4,11 9,11l586 0c5,0 9,-5 9,-11 0,-6 -4,-11 -9,-11z"/>
  <path class="fil27" d="M4820 1765l0 0c0,6 5,11 11,11l103 0c6,0 11,-5 11,-11 0,-6 -5,-11 -11,-11l-103 0c-6,0 -11,5 -11,11z"/>
  <path class="fil27" d="M4377 1814l-389 0c-8,0 -14,5 -14,11 0,6 6,11 14,11l389 0c8,0 14,-5 14,-11 0,-6 -6,-11 -14,-11z"/>
  <path class="fil27" d="M4506 1824l0 0c0,6 4,11 9,11l421 0c5,0 9,-5 9,-11 0,-6 -4,-11 -9,-11l-421 0c-5,0 -9,5 -9,11z"/>
  <path class="fil27" d="M4651 1884l0 0c0,6 4,11 9,11l274 0c5,0 9,-5 9,-11 0,-6 -4,-11 -9,-11l-274 0c-5,0 -9,5 -9,11z"/>
  <path class="fil27" d="M3971 1884l0 0c0,6 8,11 18,11l496 0c10,0 18,-5 18,-11 0,-6 -8,-11 -18,-11l-496 0c-10,0 -18,5 -18,11z"/>
  <path class="fil27" d="M4227 1932l-242 0c-6,0 -12,5 -12,11 0,6 5,11 12,11l242 0c7,0 12,-5 12,-11 0,-6 -5,-11 -12,-11z"/>
  <path class="fil27" d="M4729 1932l-419 0c-6,0 -12,5 -12,11 0,6 5,11 12,11l419 0c6,0 12,-5 12,-11 0,-6 -5,-11 -12,-11z"/>
  <path class="fil27" d="M4778 1943l0 0c0,6 8,11 17,11l132 0c9,0 17,-5 17,-11 0,-6 -8,-11 -17,-11l-132 0c-9,0 -17,5 -17,11z"/>
  <path class="fil28" d="M3893 3161l1132 0c16,0 29,-13 29,-29 0,-16 -13,-29 -29,-29l-1132 0c-16,0 -29,13 -29,29 0,16 13,29 29,29z"/>
  <path class="fil26" d="M5059 1290c36,0 66,42 66,95 0,52 -29,95 -66,95l-1191 0 0 -189 1191 0z"/>
  <path class="fil29" d="M3803 1384c0,52 29,95 66,95 36,0 65,-42 65,-95 0,-52 -29,-95 -65,-95 -36,0 -66,42 -66,95z"/>
  <path class="fil30" d="M3814 1387c0,44 24,79 55,79 30,0 55,-35 55,-79 0,-44 -25,-79 -55,-79 -30,0 -55,35 -55,79z"/>
  <path class="fil31" d="M5268 1581c0,-1 0,-2 1,-3 0,0 1,0 1,0 0,0 -1,1 -1,1 0,0 1,1 1,1 -1,0 -2,1 -2,1z"/>
  <path class="fil31" d="M5156 2061c-1,0 -2,-1 -2,-2 1,-1 1,-2 2,-3 0,1 0,2 0,2 0,1 0,2 0,3z"/>
  <path class="fil32" d="M4875 2066c0,0 -1,0 -1,-1 0,0 0,0 0,0 0,0 0,0 0,0 0,0 1,1 1,1z"/>
  <path class="fil31" d="M5049 1998c0,0 0,0 0,0 0,0 0,0 0,0 0,0 0,0 0,0z"/>
  <path class="fil27" d="M4165 1999l-179 0c-7,0 -13,5 -13,11 0,6 6,11 13,11l179 0c7,0 13,-5 13,-11 0,-6 -6,-11 -13,-11z"/>
  <path class="fil27" d="M4592 1999l-340 0c-7,0 -12,5 -12,11 0,6 5,11 12,11l340 0c7,0 12,-5 12,-11 0,-6 -5,-11 -12,-11z"/>
  <path class="fil27" d="M4676 2009l0 0c0,6 4,11 10,11l246 0c6,0 10,-5 10,-11 0,-6 -4,-11 -10,-11l-246 0c-6,0 -10,5 -10,11z"/>
  <path class="fil27" d="M4569 2058l-586 0c-5,0 -9,5 -9,11 0,6 4,11 9,11l586 0c5,0 9,-5 9,-11 0,-6 -4,-11 -9,-11z"/>
  <path class="fil27" d="M4820 2069l0 0c0,6 5,11 11,11l103 0c6,0 11,-5 11,-11 0,-6 -5,-11 -11,-11l-103 0c-6,0 -11,5 -11,11z"/>
  <path class="fil27" d="M4377 2118l-389 0c-8,0 -14,5 -14,11 0,6 6,11 14,11l389 0c8,0 14,-5 14,-11 0,-6 -6,-11 -14,-11z"/>
  <path class="fil27" d="M4506 2128l0 0c0,6 4,11 9,11l421 0c5,0 9,-5 9,-11 0,-6 -4,-11 -9,-11l-421 0c-5,0 -9,5 -9,11z"/>
  <path class="fil27" d="M4651 2187l0 0c0,6 4,11 9,11l274 0c5,0 9,-5 9,-11 0,-6 -4,-11 -9,-11l-274 0c-5,0 -9,5 -9,11z"/>
  <path class="fil27" d="M3971 2187l0 0c0,6 8,11 18,11l496 0c10,0 18,-5 18,-11 0,-6 -8,-11 -18,-11l-496 0c-10,0 -18,5 -18,11z"/>
  <path class="fil27" d="M4227 2236l-242 0c-6,0 -12,5 -12,11 0,6 5,11 12,11l242 0c7,0 12,-5 12,-11 0,-6 -5,-11 -12,-11z"/>
  <path class="fil27" d="M4729 2236l-419 0c-6,0 -12,5 -12,11 0,6 5,11 12,11l419 0c6,0 12,-5 12,-11 0,-6 -5,-11 -12,-11z"/>
  <path class="fil27" d="M4778 2247l0 0c0,6 8,11 17,11l132 0c9,0 17,-5 17,-11 0,-6 -8,-11 -17,-11l-132 0c-9,0 -17,5 -17,11z"/>
  <path class="fil32" d="M4875 2370c0,0 -1,0 -1,-1 0,0 0,0 0,0 0,0 0,0 0,0 0,0 1,1 1,1z"/>
  <path class="fil31" d="M5049 2302c0,0 0,0 0,0 0,0 0,0 0,0 0,0 0,0 0,0z"/>
  <path class="fil27" d="M4165 2303l-179 0c-7,0 -13,5 -13,11 0,6 6,11 13,11l179 0c7,0 13,-5 13,-11 0,-6 -6,-11 -13,-11z"/>
  <path class="fil27" d="M4592 2303l-340 0c-7,0 -12,5 -12,11 0,6 5,11 12,11l340 0c7,0 12,-5 12,-11 0,-6 -5,-11 -12,-11z"/>
  <path class="fil27" d="M4676 2314l0 0c0,6 4,11 10,11l246 0c6,0 10,-5 10,-11 0,-6 -4,-11 -10,-11l-246 0c-6,0 -10,5 -10,11z"/>
  <path class="fil27" d="M4569 2363l-586 0c-5,0 -9,5 -9,11 0,6 4,11 9,11l586 0c5,0 9,-5 9,-11 0,-6 -4,-11 -9,-11z"/>
  <path class="fil27" d="M4820 2373l0 0c0,6 5,11 11,11l103 0c6,0 11,-5 11,-11 0,-6 -5,-11 -11,-11l-103 0c-6,0 -11,5 -11,11z"/>
  <path class="fil27" d="M4377 2422l-389 0c-8,0 -14,5 -14,11 0,6 6,11 14,11l389 0c8,0 14,-5 14,-11 0,-6 -6,-11 -14,-11z"/>
  <path class="fil27" d="M4506 2432l0 0c0,6 4,11 9,11l421 0c5,0 9,-5 9,-11 0,-6 -4,-11 -9,-11l-421 0c-5,0 -9,5 -9,11z"/>
  <path class="fil27" d="M4651 2492l0 0c0,6 4,11 9,11l274 0c5,0 9,-5 9,-11 0,-6 -4,-11 -9,-11l-274 0c-5,0 -9,5 -9,11z"/>
  <path class="fil27" d="M3971 2492l0 0c0,6 8,11 18,11l496 0c10,0 18,-5 18,-11 0,-6 -8,-11 -18,-11l-496 0c-10,0 -18,5 -18,11z"/>
  <path class="fil27" d="M4227 2540l-242 0c-6,0 -12,5 -12,11 0,6 5,11 12,11l242 0c7,0 12,-5 12,-11 0,-6 -5,-11 -12,-11z"/>
  <path class="fil27" d="M4729 2540l-419 0c-6,0 -12,5 -12,11 0,6 5,11 12,11l419 0c6,0 12,-5 12,-11 0,-6 -5,-11 -12,-11z"/>
  <path class="fil27" d="M4778 2551l0 0c0,6 8,11 17,11l132 0c9,0 17,-5 17,-11 0,-6 -8,-11 -17,-11l-132 0c-9,0 -17,5 -17,11z"/>
  <path class="fil32" d="M4875 2674c0,0 -1,0 -1,-1 0,0 0,0 0,0 0,0 0,0 0,0 0,0 1,1 1,1z"/>
  <path class="fil27" d="M4165 2607l-179 0c-7,0 -13,5 -13,11 0,6 6,11 13,11l179 0c7,0 13,-5 13,-11 0,-6 -6,-11 -13,-11z"/>
  <path class="fil27" d="M4592 2607l-340 0c-7,0 -12,5 -12,11 0,6 5,11 12,11l340 0c7,0 12,-5 12,-11 0,-6 -5,-11 -12,-11z"/>
  <path class="fil27" d="M4676 2617l0 0c0,6 4,11 10,11l246 0c6,0 10,-5 10,-11 0,-6 -4,-11 -10,-11l-246 0c-6,0 -10,5 -10,11z"/>
  <path class="fil27" d="M4569 2666l-586 0c-5,0 -9,5 -9,11 0,6 4,11 9,11l586 0c5,0 9,-5 9,-11 0,-6 -4,-11 -9,-11z"/>
  <path class="fil27" d="M4820 2677l0 0c0,6 5,11 11,11l103 0c6,0 11,-5 11,-11 0,-6 -5,-11 -11,-11l-103 0c-6,0 -11,5 -11,11z"/>
  <path class="fil27" d="M4377 2726l-389 0c-8,0 -14,5 -14,11 0,6 6,11 14,11l389 0c8,0 14,-5 14,-11 0,-6 -6,-11 -14,-11z"/>
  <path class="fil27" d="M4506 2736l0 0c0,6 4,11 9,11l421 0c5,0 9,-5 9,-11 0,-6 -4,-11 -9,-11l-421 0c-5,0 -9,5 -9,11z"/>
  <path class="fil27" d="M4651 2795l0 0c0,6 4,11 9,11l274 0c5,0 9,-5 9,-11 0,-6 -4,-11 -9,-11l-274 0c-5,0 -9,5 -9,11z"/>
  <path class="fil27" d="M3971 2795l0 0c0,6 8,11 18,11l496 0c10,0 18,-5 18,-11 0,-6 -8,-11 -18,-11l-496 0c-10,0 -18,5 -18,11z"/>
  <path class="fil27" d="M4227 2844l-242 0c-6,0 -12,5 -12,11 0,6 5,11 12,11l242 0c7,0 12,-5 12,-11 0,-6 -5,-11 -12,-11z"/>
  <path class="fil27" d="M4729 2844l-419 0c-6,0 -12,5 -12,11 0,6 5,11 12,11l419 0c6,0 12,-5 12,-11 0,-6 -5,-11 -12,-11z"/>
  <path class="fil27" d="M4778 2855l0 0c0,6 8,11 17,11l132 0c9,0 17,-5 17,-11 0,-6 -8,-11 -17,-11l-132 0c-9,0 -17,5 -17,11z"/>
  <path class="fil1" d="M435 1368c-5,-54 -8,-67 -16,-72 -10,-6 -26,-8 -38,-6 -12,3 -21,11 -26,20 -4,10 -4,21 -3,31 2,10 5,19 10,23 5,4 13,4 29,4 11,0 19,0 44,0zm41 29c7,88 24,270 30,361 6,91 4,108 -1,113 -5,5 -14,-3 -22,-15 -8,-12 -16,-27 -24,-116 -8,-87 -16,-243 -22,-332 0,-3 -1,-10 -1,-13 -124,3 -114,-15 -121,-24 -7,-10 -8,-18 -8,-33 0,-15 2,-37 8,-51 6,-15 16,-22 28,-27 13,-5 29,-8 48,-6 19,2 27,-1 55,17 28,18 25,86 28,99 23,0 40,0 57,0 17,0 60,0 84,1 9,-64 22,-88 29,-97 9,-10 18,-15 30,-18 12,-2 27,-2 42,-1 15,2 30,5 41,16 11,10 19,27 21,43 2,16 0,31 -4,45 -4,14 -9,28 -21,37 -12,9 -31,15 -100,15 -6,83 -17,248 -23,332 -6,84 -8,96 -14,104 -6,7 -16,10 -24,5 -7,-5 -12,-16 -14,-25 -2,-9 -2,-14 5,-99 7,-76 21,-237 32,-329m42 -28c44,0 57,0 62,-3 5,-3 10,-8 14,-18 5,-10 10,-25 8,-38 -2,-12 -12,-22 -22,-25 -11,-3 -23,-1 -32,5 -10,6 -17,15 -21,25 -3,7 -5,25 -8,53zm-181 28c47,0 93,0 140,0"/>
  <rect class="fil19" x="288" y="1802" width="514" height="85" rx="49" ry="49"/>
 </g>
</svg>
