<svg width="78" height="194" viewBox="0 0 78 194" fill="none" xmlns="http://www.w3.org/2000/svg">
<ellipse cx="37.5" cy="190.5" rx="37.5" ry="3.5" fill="#807A7A"/>
<g clip-path="url(#clip0_6_63)">
<path fill-rule="evenodd" clip-rule="evenodd" d="M15.5994 177.166C15.5994 178.277 15.5994 179.439 15.6499 180.55C17.6707 180.55 19.6914 180.5 21.7121 180.5C21.7121 179.49 21.7121 178.429 21.6616 177.418C19.6408 177.317 17.6201 177.267 15.5994 177.166Z" fill="#F8BB97"/>
<path fill-rule="evenodd" clip-rule="evenodd" d="M52.4268 177.469C52.4774 178.58 52.4774 179.742 52.5279 180.854C54.5486 180.803 56.5693 180.702 58.59 180.651C58.5395 179.641 58.5395 178.631 58.489 177.57C56.4683 177.519 54.4476 177.519 52.4268 177.469Z" fill="#F8BB97"/>
<path fill-rule="evenodd" clip-rule="evenodd" d="M15.1448 179.793C17.6201 179.843 19.6913 179.843 22.1667 179.894C22.1667 180.601 22.5709 181.308 22.6719 182.167C23.0255 185.703 23.6317 186.663 22.8234 190.502C22.4698 190.705 22.0657 190.856 21.7121 191.058C18.2263 191.058 14.7406 191.058 11.2549 191.008C11.1033 190.452 11.0023 189.947 10.9518 189.341C10.9013 188.734 11.0023 188.027 11.2549 187.421C11.5075 186.815 11.9621 186.36 12.5178 185.602C13.124 184.844 13.8313 183.733 14.2859 182.723C14.7406 181.712 14.9427 180.753 15.1448 179.843V179.793Z" fill="#4E4C4F"/>
<path fill-rule="evenodd" clip-rule="evenodd" d="M58.6405 179.944C56.4683 179.944 54.4476 179.944 52.2753 179.944C52.0227 180.651 51.5681 181.359 51.366 182.218C51.1639 183.076 51.0124 184.036 50.7598 184.794C50.5072 185.552 50.1536 186.107 49.8504 186.663C49.5473 187.269 49.3453 187.876 49.2948 188.583C49.2442 189.29 49.2948 190.048 49.3958 190.806C53.5888 190.907 57.8323 191.008 62.0757 191.109C62.2273 190.553 62.3283 190.048 62.3788 189.442C62.4294 188.835 62.3283 188.128 62.1263 187.522C61.8737 186.916 61.4695 186.461 60.9138 185.703C60.3581 184.945 59.7014 183.834 59.2973 182.874C58.8931 181.864 58.8426 180.955 58.7416 180.045L58.6405 179.944Z" fill="#4E4C4F"/>
<path d="M41.0604 26.0672C41.0604 26.0672 39.3427 32.5334 38.0293 34.6047C37.5746 40.3637 46.8194 45.8196 50.4061 36.878C50.4061 36.878 49.4968 30.4622 51.1134 26.2187C52.1743 23.3392 54.397 23.2887 56.9734 16.4183C58.7921 11.6191 56.5693 5.7085 49.3958 3.63728C44.6471 2.2733 40.7067 4.79918 40.7067 4.79918C40.7067 4.79918 38.8881 5.91058 37.7262 7.6787C37.7262 7.6787 36.9684 8.84061 36.8169 9.59837C36.6653 10.4067 35.9075 13.2356 35.5539 13.7408C34.6446 15.0543 33.8868 15.3069 33.6342 15.8626C33.4322 16.3678 34.1899 17.2771 35.0487 17.4791C33.5837 21.369 35.0993 27.1785 41.0604 26.1177V26.0672Z" fill="#F8BB97"/>
<path d="M34.9477 7.52714C34.9477 7.52714 35.756 8.94164 38.787 9.29526C41.9697 9.64889 44.243 11.6191 44.243 13.1851C44.243 14.347 43.3842 16.0141 43.3842 16.8729C43.5862 17.0245 43.9904 17.2265 44.344 17.3781C45.0007 17.7822 45.9606 15.6605 46.6678 16.2162C47.5771 16.8224 49.0927 17.6812 48.4359 19.0957C47.7792 20.4597 47.274 25.562 47.5266 26.4713C47.7792 27.4311 51.2144 27.5827 51.568 27.5827C51.9217 27.5322 54.5486 23.6423 56.1146 22.1268C57.7312 20.6112 63.9954 11.2655 59.7014 7.83025C59.7014 7.83025 59.6004 5.10229 57.0745 3.33417C54.5486 1.56605 50.002 -0.353627 46.2131 0.0505146C42.4243 0.454657 37.6251 2.12174 35.958 1.21242C35.958 1.21242 34.1899 -0.656734 34.5435 0.656728C34.8972 1.91967 35.857 3.9909 36.9179 4.59711C36.9179 4.59711 35.2003 3.18262 34.2404 2.22278C33.2806 1.26294 32.7249 5.30436 34.9477 7.52714Z" fill="#FFED00"/>
<path fill-rule="evenodd" clip-rule="evenodd" d="M15.6499 183.026H20.7017V182.47H15.6499V183.026Z" fill="#CFE3EB"/>
<path fill-rule="evenodd" clip-rule="evenodd" d="M14.9932 184.895H20.9038V184.289H14.9932V184.895Z" fill="#CFE3EB"/>
<path fill-rule="evenodd" clip-rule="evenodd" d="M52.7805 183.329H57.8323V182.773H52.7805V183.329Z" fill="#CFE3EB"/>
<path fill-rule="evenodd" clip-rule="evenodd" d="M52.3258 185.047H58.2364V184.491H52.3258V185.047Z" fill="#CFE3EB"/>
<path fill-rule="evenodd" clip-rule="evenodd" d="M20.1965 87.2947C34.6446 91.2351 49.1432 95.1754 55.9631 95.2765C62.783 95.3775 61.9747 91.6897 60.9138 88.7597C59.9034 85.7791 58.6405 83.6069 56.9734 80.5253C55.3063 77.4437 53.2351 73.5033 51.9216 68.9062C50.6082 64.3091 50.002 59.0047 50.1535 53.8014C50.2546 48.5981 51.1134 43.4453 51.8206 39.5554C52.5784 35.6655 53.2351 33.0891 53.033 32.1798C52.831 31.2705 51.7196 32.1293 50.6082 32.7355C49.4968 33.3922 48.3854 33.8469 46.8699 34.15C45.3543 34.4531 43.4347 34.5541 42.0707 34.15C40.7067 33.7459 39.9489 32.8871 39.0396 33.3922C38.0798 33.8974 37.0189 35.7666 35.6044 39.8585C34.2404 43.8999 32.6239 50.1641 31.1083 55.9737C29.6433 61.7832 28.3299 67.0876 26.6122 71.028C24.8946 74.9683 22.7224 77.4942 20.5501 80.0706C20.3986 82.4955 20.247 84.8698 20.0955 87.2947H20.1965Z" fill="white"/>
<path fill-rule="evenodd" clip-rule="evenodd" d="M34.5941 28.6941C35.2003 27.027 32.7249 27.1785 37.1705 26.1682C38.585 25.8651 39.2417 23.5918 39.4943 22.8845C39.7469 22.1773 40.4541 21.5711 40.5552 20.6618C40.7572 19.0452 40.151 19.2978 39.8984 18.5905C39.7974 18.3379 40.2015 18.1359 39.8479 17.7822C39.5953 17.5297 38.9891 17.6812 38.8376 17.6307C38.585 17.5297 38.5345 17.0245 38.2819 16.974C37.7767 16.8729 37.5746 17.2771 37.322 17.176C36.4127 16.8224 36.1601 16.974 34.8972 18.8431C33.6342 20.7123 33.9373 20.4092 33.6342 21.2175C33.3816 22.0257 33.1291 22.834 32.9775 23.7433C32.8765 24.6527 32.8765 25.6125 32.6744 26.4208C32.4723 27.2796 31.1589 27.7848 31.3104 29.3508C31.6135 31.8262 32.6744 33.9479 34.6446 28.6436L34.5941 28.6941Z" fill="#BEBEBE"/>
<path fill-rule="evenodd" clip-rule="evenodd" d="M23.076 177.469C25.2988 166.203 26.8143 159.181 30.098 144.582C33.3816 130.033 30.199 97.8529 29.2392 97.2972C28.3299 96.7415 27.5721 102.854 24.4905 102.854C23.4802 118.009 19.6408 118.313 18.4284 133.215C17.1654 148.118 15.7004 162.819 14.2354 177.469C17.216 177.469 20.146 177.469 23.1265 177.469H23.076Z" fill="#4A62FF"/>
<path fill-rule="evenodd" clip-rule="evenodd" d="M60.2066 110.583C61.5201 108.108 62.783 105.582 63.7428 103.41C64.6522 101.187 65.2079 99.2674 65.2584 96.9941C65.3089 94.7713 64.9553 92.2454 64.1975 89.669C63.4902 87.1431 62.4294 84.5667 61.419 82.3439C60.4087 80.1212 59.3983 78.252 58.7416 76.6354C58.0849 75.0189 57.7817 73.7054 57.6302 72.0383C57.4281 70.4217 57.3776 68.4516 57.4281 65.9257C57.4786 63.3998 57.7312 60.3687 57.9333 57.2871C59.1457 60.2677 60.3076 63.1977 61.5201 66.1783C62.4294 66.2288 63.3387 66.2288 64.4501 65.7236C65.5615 65.1679 66.976 64.0565 67.9358 63.0967C68.8956 62.1368 69.5019 61.3286 70.5122 60.7729C71.5731 60.2172 73.0886 59.9141 74.6042 59.5604C71.7752 53.5993 68.9967 47.5877 67.2286 44.3041C65.4604 41.0204 64.7532 40.4647 62.0758 38.7471C59.4488 37.0295 54.8517 34.251 50.2546 31.422C48.436 42.3844 46.6678 53.3467 45.809 60.2172C44.9502 67.0876 45.0513 69.8155 47.6277 77.4942C50.2041 85.1729 55.2053 97.8529 60.2066 110.533V110.583Z" fill="#EB7366"/>
<path fill-rule="evenodd" clip-rule="evenodd" d="M51.6186 88.5576C54.5486 86.2338 57.4786 83.91 59.0952 82.7986C60.2066 81.4851 60.5602 81.6367 60.7623 80.98C60.4087 80.1212 59.3983 78.252 58.7921 76.6354C58.1354 75.0189 57.8323 73.7054 57.6807 72.0383C57.4786 70.4217 57.4281 68.4516 57.4786 65.9257C57.5292 63.3998 57.7817 60.3687 57.9838 57.2871C59.1962 60.2677 60.3581 63.1977 61.5706 66.1783C62.4799 66.2288 63.3892 66.2288 64.5006 65.7236C65.612 65.1679 67.0265 64.0565 67.9863 63.0967C68.9462 62.1368 69.5524 61.3286 70.5627 60.7729C71.6236 60.2172 73.1391 59.8635 74.6547 59.5604C71.8257 53.5993 69.0472 47.5877 67.2791 44.3041C65.511 41.0204 64.8037 40.4647 62.1263 38.7471C59.4993 37.0295 54.9022 34.251 50.3051 31.422C48.4865 42.3844 46.7184 53.3467 45.8596 60.2172C45.0008 67.0876 45.1018 69.8155 46.2637 73.857C47.3751 77.8984 49.5473 83.2027 51.6691 88.5576H51.6186Z" fill="#EB7366"/>
<path fill-rule="evenodd" clip-rule="evenodd" d="M59.954 58.247C61.9747 61.7327 63.9954 65.2184 65.0563 67.4412C66.1172 69.664 66.2687 70.6238 66.2182 71.4321C66.1677 72.2404 65.9656 72.8971 64.147 75.9282C62.3283 78.9592 58.8426 84.4657 56.6703 87.9009C55.3064 90.3257 42.2223 101.44 58.7416 95.327C59.1962 95.2765 64.0459 89.7195 66.7234 86.2338C69.4513 82.7481 71.6236 80.0201 73.1897 77.9994C74.8062 75.9787 75.8166 74.6652 76.4228 73.5538C77.029 72.4425 77.2311 71.5331 77.029 70.2702C76.8774 69.0578 76.3723 67.4917 75.6145 65.471C74.8567 63.4503 73.7959 60.9749 72.8865 58.8532C71.9772 56.7819 71.1689 55.0643 70.3607 53.5993C69.5524 52.1343 68.6936 50.8209 67.6832 50.0631C66.6729 49.2548 65.511 49.0022 64.5511 49.0527C63.5408 49.1032 62.7325 49.5074 61.9747 51.124C61.2169 52.7405 60.5602 55.519 59.9035 58.2975L59.954 58.247Z" fill="#F8BB97"/>
<path fill-rule="evenodd" clip-rule="evenodd" d="M58.7416 76.6354C58.0849 75.0189 57.7817 73.7054 57.6302 72.0383C57.4281 70.4217 57.3776 68.4516 57.4281 65.9257C57.4786 63.3998 57.7312 60.3687 57.9333 57.2871C59.1457 60.2677 60.3076 63.1977 61.5201 66.1783C62.4294 66.2288 63.3387 66.2288 64.4501 65.7236C65.5615 65.1679 66.976 64.0565 67.9358 63.0967C68.8956 62.1368 69.5019 61.3286 70.5122 60.7729C71.5731 60.2172 73.0886 59.9141 74.6042 59.5604C71.7752 53.5993 68.9967 47.5877 67.2286 44.3041C65.4604 41.0204 64.7532 40.4647 62.0758 38.7471C59.4488 37.0295 54.8517 34.251 50.2546 31.422C48.436 42.3844 46.6678 53.3467 45.809 60.2172C44.9502 67.0876 45.0513 69.8155 47.6277 77.4942C49.9515 81.9398 53.9424 83.2533 58.7416 76.5849V76.6354Z" fill="#EB7366"/>
<path fill-rule="evenodd" clip-rule="evenodd" d="M23.0761 177.469C25.2988 166.203 27.5721 154.988 30.5527 142.763C33.5332 130.538 37.2715 117.403 41.0604 104.218C43.2326 115.787 45.4049 127.355 46.5163 133.771C47.6782 140.187 47.8298 141.45 48.3855 147.916C48.9917 154.382 50.002 166.001 51.0629 177.671C53.8414 177.62 56.6198 177.519 59.3983 177.469C59.853 164.486 60.3582 151.503 60.9139 137.913C61.4696 124.324 62.0758 111.846 62.7325 97.6003C60.4592 97.0446 58.4385 95.428 54.7002 94.5187C51.8712 93.5084 45.607 91.7402 41.414 90.6794C37.221 89.6185 34.1394 88.8102 31.0073 88.4061C27.8752 88.0019 24.7937 88.0019 21.6616 88.0019C20.6512 103.157 19.6409 118.313 18.3779 133.215C17.115 148.118 15.65 162.819 14.1849 177.469C17.1655 177.469 20.0955 177.469 23.0761 177.469Z" fill="#4A62FF"/>
<path fill-rule="evenodd" clip-rule="evenodd" d="M60.2066 110.583C68.643 103.41 66.6728 98.4591 64.147 89.5175C63.3892 90.8814 62.1262 91.7908 60.9643 93.5589C60.0045 95.0744 58.1353 95.6301 57.8828 95.5291C59.3983 98.8632 60.1561 107.805 60.1561 110.533L60.2066 110.583Z" fill="#EB7366"/>
<path fill-rule="evenodd" clip-rule="evenodd" d="M55.862 91.5382C55.4579 90.8814 56.2157 90.1742 52.8815 91.7402C51.8206 92.1949 48.8401 92.0939 48.7896 92.1444C47.0214 92.1949 46.9204 93.0537 47.9813 93.3568C50.2546 94.0135 56.7714 93.9125 55.862 91.4876V91.5382Z" fill="#F8BB97"/>
<path fill-rule="evenodd" clip-rule="evenodd" d="M39.6458 30.9169C39.1407 38.6461 38.6355 46.4258 37.8777 52.9931C37.12 59.6109 36.0591 65.0163 34.6951 70.1186C33.3311 75.1704 31.664 79.8686 29.7949 83.8595C27.9257 87.8504 25.7535 91.2351 24.0864 94.2661C22.3688 97.3477 21.1058 100.126 19.8429 102.501C18.5799 104.875 17.2665 106.744 16.5592 107.704C15.852 108.664 15.7509 108.714 15.1447 107.855C14.488 107.047 13.3261 105.38 12.8714 103.511C12.4168 101.642 12.6694 99.621 13.3261 96.4384C13.9828 93.2558 15.0437 88.9112 16.4582 84.8698C17.9232 80.8284 19.7418 77.1406 21.2069 74.0085C22.6719 70.8764 23.7327 68.3 24.3895 66.0772C24.9957 63.8544 25.2483 60.7223 25.4504 58.8532C24.6421 60.3182 23.6317 61.5811 22.8234 63.0462C21.0048 61.278 19.4387 61.0254 17.6201 60.0656C15.852 59.0553 14.0839 58.8532 12.3157 58.6006C14.2859 54.2055 16.2056 49.8105 17.7717 46.4763C19.3377 43.1422 20.5501 40.8689 21.7626 39.3028C22.975 37.6862 24.2379 36.7769 27.269 35.4635C30.2495 34.15 34.9982 32.4829 39.6964 30.8158L39.6458 30.9169Z" fill="#EB7366"/>
<path fill-rule="evenodd" clip-rule="evenodd" d="M14.488 55.1149C13.6797 56.3778 13.4271 57.1861 13.3766 58.2975C13.3261 59.4089 13.5282 60.7223 14.0333 61.6822C14.488 62.642 15.2458 63.2482 16.1046 63.6019C16.9634 64.006 18.0242 64.1575 18.883 64.0565C19.7924 63.9555 20.5501 63.5513 21.2069 63.1472C21.8636 62.6925 22.4193 62.2379 22.7224 61.6317C23.0255 61.076 23.1771 60.4697 23.6822 59.1058C24.1874 57.7418 25.1472 55.6706 25.905 54.1045C26.6628 52.4879 27.3195 51.326 28.4309 48.8507C29.5928 46.3753 31.2599 42.5865 32.5228 39.5049C33.7858 36.4233 34.6951 34.0995 35.2508 32.685C35.8065 31.2705 36.0086 30.8158 36.3117 30.3107C36.6653 29.8055 37.1705 29.2498 37.8272 28.6941C38.4839 28.1384 39.2922 27.5322 39.8479 27.027C40.3531 26.4713 40.6057 25.9661 40.4541 25.663C40.3026 25.3599 39.6964 25.2084 39.2417 25.3094C38.787 25.4104 38.4334 25.7641 38.1303 25.7641C37.8272 25.7641 37.5746 25.3599 37.7262 24.8042C37.8272 24.2485 38.3324 23.5413 38.787 22.834C39.2417 22.1773 39.7469 21.5206 39.8479 20.6112C40.05 18.9947 39.4438 19.2473 39.1912 18.54C39.0901 18.2874 39.4943 18.0854 39.1407 17.7317C38.8881 17.4791 38.2819 17.6307 38.1303 17.5802C37.8777 17.4791 37.8272 16.974 37.5746 16.9234C37.0694 16.8224 36.8674 17.2266 36.6148 17.1255C35.7055 16.7719 35.4529 16.9234 34.1899 18.7926C32.927 20.6618 33.2301 20.3587 32.927 21.1669C32.6744 21.9752 32.4218 22.7835 32.2702 23.6928C32.1187 24.6021 32.1187 25.562 31.9671 26.3703C31.7651 27.2291 31.4114 27.9363 30.6032 29.3003C29.7949 30.6643 28.5319 32.685 27.0669 35.0593C25.6019 37.4337 23.8843 40.1616 22.2677 42.7885C20.7017 45.4155 19.2872 47.9413 17.9232 50.0126C16.5592 52.1343 15.2458 53.8014 14.488 55.0643V55.1149Z" fill="#E7A886"/>
</g>
<defs>
<clipPath id="clip0_6_63">
<rect width="66.1323" height="191.058" fill="white" transform="translate(11)"/>
</clipPath>
</defs>
</svg>
