<?xml version="1.0" encoding="UTF-8"?>
<!DOCTYPE svg PUBLIC "-//W3C//DTD SVG 1.1//EN" "http://www.w3.org/Graphics/SVG/1.1/DTD/svg11.dtd">
<!-- Creator: CorelDRAW X5 -->
<svg xmlns="http://www.w3.org/2000/svg" xml:space="preserve" width="69.6891mm" height="61.3537mm" style="shape-rendering:geometricPrecision; text-rendering:geometricPrecision; image-rendering:optimizeQuality; fill-rule:evenodd; clip-rule:evenodd"
viewBox="0 0 6937 6107"
 xmlns:xlink="http://www.w3.org/1999/xlink">
 <defs>
  <style type="text/css">
   <![CDATA[
    .fil19 {fill:#BC82B7}
    .fil11 {fill:#BEBEBE}
    .fil6 {fill:#F8BB97}
    .fil18 {fill:#389E4D}
    .fil12 {fill:#4A62FF}
    .fil7 {fill:#4E4C4F}
    .fil16 {fill:#87878A}
    .fil2 {fill:#CFCFCF}
    .fil10 {fill:#CFE3EB}
    .fil15 {fill:#E1DEDE}
    .fil13 {fill:#EB7366}
    .fil0 {fill:#F2FAFF}
    .fil3 {fill:#FDF5F5}
    .fil17 {fill:#FF7061}
    .fil1 {fill:white}
    .fil14 {fill:#E7A886}
    .fil20 {fill:#FEFEFE}
    .fil8 {fill:#F8BB97;fill-rule:nonzero}
    .fil9 {fill:#FFED00;fill-rule:nonzero}
    .fil4 {fill:#595963;fill-rule:nonzero}
    .fil5 {fill:#D4D4D4;fill-rule:nonzero}
   ]]>
  </style>
 </defs>
 <g id="Vrstva_x0020_1">
  <metadata id="CorelCorpID_0Corel-Layer"/>
  <g id="_251273608">
   <path class="fil0" d="M196 6107c-119,-3 -325,-643 -85,-1015 84,-130 1966,-2157 4217,-2492 626,-93 1608,394 1859,540 834,486 689,2146 395,2386 -78,64 -687,565 -1335,565 -648,0 -1389,0 -2351,10 -962,10 -2206,-3 -2701,6z"/>
   <path class="fil1" d="M5765 0c192,0 348,156 348,348 0,192 -156,348 -348,348 -192,0 -348,-156 -348,-348 0,-192 156,-348 348,-348z"/>
   <polygon class="fil1" points="5763,353 5769,341 5496,195 5490,206 "/>
   <polygon class="fil1" points="5772,345 5759,348 5801,527 5813,524 "/>
   <path class="fil1" d="M5765 314c19,0 35,16 35,35 0,19 -16,35 -35,35 -19,0 -35,-16 -35,-35 0,-19 16,-35 35,-35z"/>
   <polygon class="fil2" points="301,6107 3001,6107 3001,4251 301,4251 "/>
   <polygon class="fil3" points="439,6107 2864,6107 2864,4344 439,4344 "/>
   <polygon class="fil2" points="546,4926 2768,4926 2768,4436 546,4436 "/>
   <polygon class="fil2" points="546,5542 2768,5542 2768,5052 546,5052 "/>
   <path class="fil1" d="M1657 4595c48,0 86,39 86,86 0,48 -39,86 -86,86 -48,0 -86,-39 -86,-86 0,-48 39,-86 86,-86z"/>
   <path class="fil1" d="M1657 5210c48,0 86,39 86,86 0,48 -39,86 -86,86 -48,0 -86,-39 -86,-86 0,-48 39,-86 86,-86z"/>
   <path class="fil4" d="M324 3643l279 611 676 -2 -294 -635c-3,-6 -9,-10 -15,-10l-623 0c-19,0 -31,19 -23,36l0 0z"/>
   <path class="fil5" d="M1279 4219l-286 -594c0,0 -10,-24 -36,-18 -8,2 302,612 302,612l20 0z"/>
   <path class="fil4" d="M1881 4216l-618 3 16 33 572 0c17,0 30,-14 30,-30l0 -6 0 0z"/>
   <path class="fil6" d="M2442 5735c0,30 0,59 1,89 53,-1 106,-1 160,-2 0,-27 0,-54 -1,-81 -53,-2 -106,-4 -160,-6z"/>
   <path class="fil6" d="M3412 5742c1,30 2,59 3,89 53,-2 106,-4 159,-6 -1,-27 -2,-54 -3,-81 -53,-1 -106,-2 -160,-3z"/>
   <path class="fil7" d="M2430 5804c65,1 120,1 186,2 0,19 11,38 13,60 10,93 26,118 4,219 -10,5 -19,10 -29,15 -92,0 -183,0 -275,-1 -4,-14 -7,-28 -8,-44 -1,-16 1,-35 7,-51 7,-16 18,-28 34,-48 15,-20 34,-49 46,-75 12,-27 17,-51 22,-76z"/>
   <path class="fil7" d="M3575 5808c-57,0 -111,0 -168,0 -7,19 -18,38 -23,60 -5,22 -9,48 -16,67 -7,20 -17,34 -24,50 -8,15 -13,32 -15,50 -2,18 0,38 3,58 111,3 222,5 333,8 3,-14 7,-28 8,-44 1,-16 -1,-35 -7,-51 -6,-16 -17,-28 -32,-48 -14,-20 -32,-49 -43,-75 -10,-26 -12,-50 -15,-74z"/>
   <path class="fil8" d="M3113 1756c0,0 -45,170 -79,225 -12,152 232,295 326,60 0,0 -23,-169 18,-281 29,-76 86,-77 154,-258 48,-127 -11,-282 -200,-337 -124,-37 -229,30 -229,30 0,0 -48,29 -79,76 0,0 -20,30 -24,51 -4,21 -24,96 -33,109 -24,35 -44,41 -50,56 -6,13 15,37 37,43 -39,102 1,255 158,227z"/>
   <path class="fil9" d="M2951 1267c0,0 21,37 102,46 84,9 144,61 144,103 0,30 -23,75 -22,97 6,5 17,10 25,14 18,10 42,-46 62,-31 24,16 64,39 47,75 -18,36 -30,170 -24,195 6,25 97,30 106,29 9,-1 78,-104 120,-143 42,-40 207,-286 94,-376 0,0 -3,-72 -69,-118 -66,-46 -186,-97 -286,-87 -100,10 -226,54 -270,31 0,0 -47,-49 -38,-15 9,34 35,88 62,103 0,0 -45,-37 -71,-62 -26,-25 -40,81 18,140z"/>
   <polygon class="fil10" points="2443,5889 2576,5889 2576,5874 2443,5874 "/>
   <polygon class="fil10" points="2425,5938 2581,5938 2581,5923 2425,5923 "/>
   <polygon class="fil10" points="3420,5897 3553,5897 3553,5882 3420,5882 "/>
   <polygon class="fil10" points="3409,5943 3565,5943 3565,5928 3409,5928 "/>
   <path class="fil1" d="M2562 3368c381,104 762,208 942,211 180,3 158,-94 131,-172 -27,-78 -60,-136 -104,-217 -44,-81 -98,-185 -133,-306 -35,-122 -50,-261 -47,-398 3,-137 25,-273 44,-375 20,-102 37,-170 32,-194 -6,-23 -35,-2 -64,15 -29,17 -58,30 -98,37 -40,8 -91,10 -126,0 -35,-10 -56,-33 -80,-20 -25,13 -54,63 -90,170 -36,107 -79,272 -118,424 -39,153 -73,293 -118,397 -46,104 -103,171 -160,238 -4,63 -8,127 -11,190z"/>
   <path class="fil11" d="M2942 1825c16,-44 -50,-40 67,-66 37,-8 54,-68 61,-86 6,-18 25,-34 28,-59 5,-43 -10,-36 -18,-54 -3,-7 9,-12 -1,-22 -7,-7 -23,-3 -27,-4 -6,-3 -8,-15 -15,-17 -14,-3 -18,7 -25,5 -23,-9 -31,-6 -64,44 -33,49 -25,41 -33,62 -7,21 -14,43 -17,67 -3,24 -3,49 -8,71 -5,22 -40,36 -35,77 8,66 37,121 88,-19z"/>
   <path class="fil12" d="M2639 5743c59,-296 98,-482 185,-866 87,-384 2,-1231 -22,-1246 -24,-15 -44,146 -126,146 -27,399 -127,407 -160,800 -33,393 -72,779 -111,1166 78,0 156,0 234,0z"/>
   <path class="fil13" d="M3616 3981c34,-66 68,-131 93,-189 24,-58 38,-110 40,-169 2,-59 -9,-125 -28,-192 -19,-67 -47,-134 -74,-193 -27,-58 -54,-108 -71,-150 -17,-42 -25,-77 -29,-121 -5,-43 -7,-94 -5,-160 2,-66 8,-147 13,-227 31,78 63,156 94,234 24,1 47,2 77,-12 30,-14 66,-44 92,-69 26,-25 41,-46 68,-61 28,-15 67,-23 107,-32 -74,-158 -148,-315 -195,-402 -47,-86 -66,-102 -135,-146 -70,-45 -190,-119 -311,-193 -47,289 -95,577 -117,758 -22,180 -19,253 48,455 67,203 199,536 331,869z"/>
   <path class="fil13" d="M3390 3402c77,-61 154,-122 197,-151 30,-34 38,-31 43,-48 -9,-23 -35,-72 -52,-114 -17,-42 -25,-77 -29,-121 -5,-43 -7,-94 -5,-160 2,-66 8,-147 13,-227 31,78 63,156 94,234 24,1 47,2 77,-12 30,-14 66,-44 92,-69 26,-25 41,-46 68,-61 28,-15 67,-23 107,-32 -74,-158 -148,-315 -195,-402 -47,-86 -66,-102 -135,-146 -70,-45 -190,-119 -311,-193 -47,289 -95,577 -117,758 -22,180 -19,253 10,359 30,106 86,246 143,387z"/>
   <path class="fil6" d="M3610 2603c53,92 106,183 135,242 28,58 32,84 31,105 -1,21 -6,38 -55,119 -48,80 -140,224 -197,315 -35,64 -380,356 54,195 11,-1 139,-148 211,-239 71,-92 129,-164 171,-217 42,-53 69,-87 85,-117 16,-29 21,-53 16,-86 -4,-33 -18,-73 -38,-127 -20,-53 -47,-119 -71,-174 -24,-55 -45,-100 -66,-139 -22,-39 -44,-73 -70,-94 -26,-21 -57,-28 -83,-27 -26,2 -48,13 -68,55 -20,42 -37,115 -55,188z"/>
   <path class="fil13" d="M3577 3088c-17,-42 -25,-77 -29,-121 -5,-43 -7,-94 -5,-160 2,-66 8,-147 13,-227 31,78 63,156 94,234 24,1 47,2 77,-12 30,-14 66,-44 92,-69 26,-25 41,-46 68,-61 28,-15 67,-23 107,-32 -74,-158 -148,-315 -195,-402 -47,-86 -66,-102 -135,-146 -70,-45 -190,-119 -311,-193 -47,289 -95,577 -117,758 -22,180 -19,253 48,455 61,116 166,152 292,-24z"/>
   <path class="fil12" d="M2639 5743c59,-296 118,-593 197,-914 79,-321 178,-668 276,-1015 57,305 114,610 144,779 30,169 34,202 50,372 16,170 43,477 71,783 73,-2 146,-4 219,-6 12,-342 25,-684 40,-1042 15,-358 31,-687 48,-1061 -59,-14 -113,-58 -212,-82 -74,-26 -240,-73 -350,-101 -110,-28 -192,-49 -274,-60 -82,-11 -164,-11 -246,-11 -27,399 -53,798 -86,1190 -33,393 -72,779 -111,1166 78,0 156,0 234,0z"/>
   <path class="fil13" d="M3616 3981c222,-188 171,-320 104,-554 -20,36 -53,59 -83,107 -25,39 -74,55 -81,52 40,88 60,324 60,395z"/>
   <path class="fil6" d="M3501 3479c-10,-17 9,-36 -79,6 -29,12 -107,9 -107,11 -46,1 -49,25 -21,33 60,17 232,15 207,-49z"/>
   <path class="fil13" d="M3074 1884c-13,204 -27,408 -47,582 -20,174 -48,317 -84,450 -36,133 -79,256 -129,362 -50,106 -106,194 -151,275 -45,81 -78,155 -112,217 -34,62 -68,112 -86,138 -18,25 -21,26 -37,4 -17,-22 -47,-65 -59,-114 -12,-49 -5,-102 12,-186 17,-84 45,-198 83,-304 38,-106 86,-203 125,-286 38,-83 67,-150 84,-209 17,-58 23,-141 27,-190 -21,39 -48,71 -69,110 -47,-46 -90,-53 -137,-79 -47,-26 -94,-32 -140,-38 51,-116 103,-232 144,-319 41,-88 73,-147 105,-189 32,-42 66,-67 144,-101 79,-34 203,-78 328,-122z"/>
   <path class="fil14" d="M2413 2521c-21,33 -28,55 -29,84 -1,29 4,64 17,90 12,25 32,41 55,51 23,10 50,15 74,12 24,-3 44,-13 62,-24 17,-12 32,-25 40,-39 9,-15 11,-31 25,-67 14,-35 38,-90 58,-132 20,-42 37,-73 67,-138 30,-65 74,-165 108,-246 34,-81 58,-143 72,-180 14,-37 19,-49 28,-62 9,-13 22,-28 39,-43 17,-15 39,-30 53,-44 14,-14 20,-28 16,-36 -5,-8 -20,-12 -32,-9 -12,3 -22,12 -29,12 -8,0 -14,-11 -11,-25 3,-15 16,-34 28,-51 13,-18 25,-34 28,-59 5,-43 -10,-36 -18,-54 -3,-7 9,-12 -1,-22 -7,-7 -23,-3 -27,-4 -6,-3 -8,-15 -15,-17 -14,-3 -18,7 -25,5 -23,-9 -31,-6 -64,44 -33,49 -25,41 -33,62 -7,21 -14,43 -17,67 -3,24 -3,49 -8,71 -5,22 -14,41 -35,77 -21,36 -54,89 -93,152 -39,63 -84,134 -126,203 -41,69 -79,135 -115,190 -36,55 -70,100 -91,133z"/>
   <polygon class="fil15" points="3935,1284 6185,1284 6185,1589 3935,1589 "/>
   <path class="fil16" d="M4336 1441l355 1369c16,61 -24,124 -89,141l-130 34c-65,17 -131,-19 -146,-80l-355 -1369c-16,-61 24,-124 89,-141l130 -34c65,-17 131,19 146,80z"/>
   <path class="fil1" d="M4385 2752l42 -11 69 95 14 -116 42 -11 -26 168 -36 9 -105 -134zm-16 -189l39 -10 40 154 -39 10 -40 -154zm67 -17l39 -10 40 154 -39 10 -40 -154zm-5 -284l12 45 -103 67 123 8 11 44 -168 -16 -30 -3c-10,-1 -18,-3 -24,-5 -6,-2 -11,-5 -15,-8 -4,-4 -8,-8 -11,-14 -3,-6 -6,-13 -8,-21 -2,-8 -3,-16 -4,-25l32 -12c0,7 1,13 3,18 3,10 7,16 14,20 7,3 15,5 25,5l144 -102zm-175 -18l-11 -42 159 -41 10 39 -23 6c12,4 21,8 26,13 5,5 8,10 10,17 2,10 2,20 -1,30l-40 -4c3,-8 3,-15 2,-22 -2,-6 -4,-10 -9,-14 -4,-3 -11,-5 -20,-5 -9,0 -27,3 -54,10l-49 13zm141 -111l-34 9 -7 -29 -64 17c-13,3 -21,6 -23,7 -2,1 -3,3 -4,5 -1,2 -1,5 0,8 1,4 4,9 8,16l-32 12c-7,-9 -12,-19 -15,-32 -2,-8 -2,-15 -2,-22 1,-7 3,-12 6,-16 3,-4 8,-7 15,-10 5,-2 14,-5 29,-9l69 -18 -5 -19 34 -9 5 19 32 -8 36 36 -56 15 7 29zm-189 -75l-11 -42 81 -21c17,-4 28,-8 33,-11 5,-3 8,-7 10,-12 2,-5 2,-10 0,-16 -2,-7 -6,-13 -11,-18 -6,-5 -12,-7 -19,-8 -7,0 -20,2 -37,6l-72 19 -11 -42 159 -41 10 39 -23 6c22,9 35,24 41,46 2,9 3,18 2,27 -1,9 -4,15 -8,21 -4,5 -9,10 -16,13 -6,3 -15,7 -28,10l-99 26zm36 -245c12,-3 21,-9 25,-17 5,-8 6,-16 4,-24 -2,-9 -8,-16 -16,-20 -8,-4 -18,-5 -30,-2l16 63zm-43 9l4 44c-17,-1 -31,-7 -42,-17 -11,-10 -19,-23 -23,-41 -7,-28 -3,-51 11,-69 12,-14 29,-24 51,-30 26,-7 49,-5 67,5 19,10 31,25 36,47 6,24 3,44 -9,62 -12,18 -34,31 -67,38l-27 -106c-12,4 -21,9 -27,18 -5,8 -7,17 -4,27 2,7 5,12 10,15 5,4 11,5 20,6zm-148 -95l-8 -29c19,-21 40,-39 63,-54 23,-14 46,-25 69,-31 29,-7 58,-10 86,-6 25,3 48,8 70,17l7 29c-34,-6 -62,-9 -85,-8 -23,0 -46,4 -70,10 -16,4 -33,10 -49,18 -16,7 -32,16 -46,25 -9,6 -22,16 -39,30z"/>
   <path class="fil17" d="M6011 1433l914 2003c29,64 3,139 -57,167l-123 56c-61,28 -134,-2 -164,-66l-914 -2003c-29,-64 -3,-139 57,-167l123 -56c61,-28 134,2 164,66z"/>
   <path class="fil1" d="M6754 3512c11,-6 19,-12 22,-21 3,-8 3,-17 0,-25 -4,-9 -10,-14 -19,-17 -9,-3 -19,-2 -29,3l27 59zm-41 16l11 43c-17,2 -32,-1 -44,-9 -13,-7 -23,-19 -30,-36 -12,-26 -12,-49 -1,-69 9,-16 24,-29 45,-38 25,-11 47,-14 67,-7 20,7 34,20 44,40 10,22 11,43 2,63 -9,20 -29,36 -59,49l-45 -99c-12,6 -19,13 -23,22 -4,9 -4,18 1,27 3,6 7,11 12,13 5,3 12,3 21,2zm-123 -143l22 -10c-10,-2 -20,-6 -29,-13 -9,-7 -15,-15 -20,-25 -5,-10 -6,-20 -6,-30 1,-10 4,-19 11,-26 6,-7 17,-14 31,-20l95 -43 18 40 -69 31c-21,10 -34,16 -38,20 -4,4 -7,8 -8,13 -1,5 0,11 3,17 3,7 8,12 14,16 6,4 12,5 19,5 6,-1 20,-6 42,-15l63 -29 18 40 -150 68 -17 -37zm-79 -173l-18 -40 150 -68 17 37 -21 10c13,2 22,4 28,8 5,4 10,9 13,15 4,9 6,19 4,30l-40 3c1,-9 1,-16 -2,-22 -3,-6 -6,-10 -11,-12 -5,-3 -12,-3 -21,-2 -9,1 -26,8 -52,20l-46 21zm120 -134l-32 14 -12 -27 -60 28c-12,6 -19,9 -21,11 -2,1 -3,3 -3,6 0,2 0,5 1,8 2,4 5,8 11,14l-29 17c-8,-7 -15,-17 -20,-29 -3,-7 -5,-14 -5,-21 0,-7 1,-12 4,-17 3,-4 7,-9 13,-13 4,-3 13,-8 27,-14l65 -30 -8 -18 32 -14 8 18 30 -14 41 29 -53 24 12 27zm-246 -282l37 -17 66 145 -37 17 -66 -145zm63 -29l36 -17 66 145 -36 17 -66 -145zm-80 -267l19 42 -90 84 122 -14 19 41 -168 13 -30 2c-10,0 -19,0 -25,-1 -6,-1 -11,-3 -16,-6 -5,-3 -9,-7 -14,-12 -4,-5 -8,-12 -12,-19 -3,-8 -6,-15 -8,-24l29 -18c2,7 4,13 6,18 4,9 10,15 17,17 7,2 16,2 25,1l124 -126zm-86 -25c11,-6 19,-12 22,-21 3,-8 3,-17 0,-25 -4,-9 -10,-14 -19,-17 -9,-3 -19,-2 -29,3l27 59zm-41 16l11 43c-17,2 -31,-1 -44,-9 -13,-7 -23,-19 -30,-36 -12,-26 -12,-49 -1,-69 9,-16 24,-29 45,-38 25,-11 47,-14 67,-7 20,7 34,20 44,40 10,22 11,43 2,63 -9,20 -29,36 -59,49l-45 -99c-12,6 -19,13 -23,22 -4,9 -4,18 1,27 3,6 7,11 12,13 5,3 12,3 21,2zm-106 -105l-18 -40 76 -35c16,-7 26,-13 30,-17 4,-4 6,-8 7,-13 1,-5 0,-10 -2,-16 -3,-7 -8,-12 -14,-16 -6,-4 -13,-5 -20,-4 -7,1 -19,5 -36,13l-68 31 -18 -40 150 -68 17 37 -22 10c23,5 39,18 48,38 4,9 6,17 6,26 0,9 -1,16 -5,22 -3,6 -8,11 -13,15 -6,4 -14,9 -26,14l-93 42zm-53 -315c-15,7 -25,15 -29,26 -5,11 -5,21 0,31 5,10 13,17 24,21 11,3 24,2 39,-5 15,-7 24,-15 29,-26 5,-11 5,-21 0,-31 -5,-10 -13,-17 -24,-21 -11,-3 -24,-2 -39,5zm-16 -42c13,-6 27,-9 43,-8 15,1 29,6 41,15 12,9 21,21 28,35 10,23 11,45 3,66 -8,21 -23,37 -46,47 -23,10 -45,12 -66,4 -22,-8 -37,-23 -48,-45 -6,-14 -9,-28 -9,-44 1,-15 5,-29 14,-41 9,-12 22,-22 39,-30zm-42 -284l17 37 -20 9c22,6 37,18 45,36 4,10 6,19 5,28 -1,9 -4,17 -10,26 11,3 20,7 28,13 7,6 13,13 17,22 5,11 7,21 6,31 -1,10 -5,18 -12,26 -5,6 -15,12 -29,18l-96 44 -18 -40 86 -39c15,-7 24,-13 27,-17 4,-6 4,-13 1,-21 -3,-6 -7,-10 -12,-13 -6,-3 -12,-5 -20,-4 -8,1 -18,4 -32,11l-72 33 -18 -40 82 -37c15,-7 24,-12 27,-15 4,-3 6,-7 6,-11 1,-4 0,-8 -2,-14 -3,-6 -7,-11 -12,-14 -6,-3 -12,-5 -19,-4 -7,1 -18,4 -32,11l-73 33 -18 -40 150 -68zm-162 -34c5,6 10,11 18,13 7,2 14,1 21,-2 6,-3 11,-7 14,-13 3,-6 4,-14 2,-23l-55 25zm141 -89c-4,-5 -10,-8 -16,-9 -6,-1 -12,-1 -17,2 -5,2 -9,6 -12,11 -3,5 -4,11 -4,18l49 -22zm-148 68l59 -27c-3,-21 -1,-38 5,-52 7,-13 18,-24 33,-31 15,-7 31,-8 46,-3 15,5 27,15 36,31l14 -6 9 20 -14 6c5,16 5,30 1,43 -4,13 -13,23 -26,32l-21 -34c10,-7 15,-16 15,-27l-55 25c4,25 3,44 -3,57 -6,13 -17,22 -32,29 -17,8 -34,9 -50,4 -16,-5 -30,-16 -41,-33l-26 12 -9 -20 26 -12c-5,-17 -5,-33 0,-48 5,-15 17,-28 34,-39l21 35c-7,5 -12,11 -16,17 -4,7 -5,13 -6,19z"/>
   <circle class="fil15" cx="4221" cy="1436" r="39"/>
   <circle class="fil15" cx="5909" cy="1436" r="39"/>
   <path class="fil1" d="M5453 1441l399 1214c23,69 -11,143 -74,164l-128 42c-63,21 -134,-19 -157,-88l-399 -1214c-23,-69 11,-143 74,-164l128 -42c63,-21 134,19 157,88z"/>
   <path class="fil18" d="M5458 1451l405 1342c23,76 -11,158 -75,181l-130 46c-64,23 -136,-21 -159,-97l-405 -1342c-23,-76 11,-158 75,-181l130 -46c64,-23 136,21 159,97z"/>
   <circle class="fil15" cx="5347" cy="1436" r="39"/>
   <path class="fil19" d="M4912 1456l466 1734c21,77 -15,154 -80,172l-130 35c-65,17 -134,-32 -155,-109l-466 -1734c-21,-77 15,-154 80,-172l130 -35c65,-17 134,32 155,109z"/>
   <path class="fil20" d="M5042 3234c20,3 35,5 46,6 10,1 22,1 35,0 13,-1 25,-2 37,-3 11,-2 23,-4 35,-8 24,-7 45,-15 65,-26 20,-11 43,-28 69,-50l8 29c-17,21 -37,39 -58,54 -22,15 -45,26 -69,33 -21,6 -44,9 -70,9 -29,0 -59,-5 -89,-15l-8 -29zm-6 -21l-8 -29c19,-22 39,-40 62,-55 23,-15 45,-26 69,-32 29,-8 57,-11 86,-8 25,2 48,7 71,15l8 29c-34,-5 -62,-7 -85,-7 -23,1 -46,5 -69,11 -16,5 -33,11 -49,19 -16,8 -31,17 -45,26 -9,6 -22,17 -39,31zm9 -215l-12 -42 81 -23c17,-5 28,-9 32,-12 4,-3 8,-7 9,-12 2,-5 2,-10 0,-16 -2,-7 -6,-13 -11,-18 -6,-5 -12,-7 -19,-7 -7,0 -20,2 -37,7l-72 20 -12 -42 159 -45 11 39 -23 7c22,9 36,24 42,45 3,9 3,18 2,27 -1,9 -4,16 -8,21 -4,5 -9,10 -15,13 -6,3 -15,7 -28,10l-99 28zm-4 -320c-16,4 -27,12 -33,21 -6,10 -8,20 -5,31 3,11 10,19 20,24 10,5 24,5 40,1 15,-4 26,-11 33,-21 6,-10 8,-20 5,-31 -3,-11 -10,-19 -20,-24 -10,-5 -24,-5 -39,-1zm-10 -44c14,-4 28,-4 43,-1 15,3 28,10 38,21 10,11 18,24 22,39 7,24 4,46 -7,66 -11,20 -29,33 -53,40 -24,7 -46,5 -66,-6 -20,-11 -33,-28 -40,-52 -4,-15 -5,-29 -2,-44 3,-15 10,-28 20,-38 11,-10 25,-18 43,-23zm-103 -52l158 -45 12 42 -159 45 -12 -42zm180 -51l39 -11 12 42 -39 11 -12 -42zm-30 -23l-33 9 -8 -29 -64 18c-13,4 -20,6 -22,7 -2,1 -3,3 -4,5 -1,2 -1,5 0,8 1,4 4,9 9,16l-31 13c-7,-9 -12,-19 -16,-31 -2,-8 -3,-15 -2,-21 1,-7 3,-12 6,-16 3,-4 8,-7 15,-11 5,-2 14,-5 29,-10l69 -19 -5 -19 33 -9 5 19 32 -9 36 35 -56 16 8 29zm-76 -91l-19 -39c8,-4 13,-9 16,-15 3,-6 3,-13 1,-21 -3,-10 -9,-18 -18,-22 -9,-4 -22,-4 -39,1 -19,5 -31,12 -37,21 -6,8 -7,18 -4,29 2,8 6,14 12,18 6,4 15,5 26,4l5 43c-20,1 -37,-3 -50,-13 -13,-9 -22,-24 -28,-45 -7,-23 -4,-44 6,-62 11,-18 29,-31 55,-38 26,-7 48,-6 67,4 19,10 31,26 38,50 5,19 6,36 0,50 -5,14 -16,25 -31,35zm-163 -149l-12 -42 81 -23c17,-5 28,-9 32,-12 4,-3 8,-7 9,-12 2,-5 2,-10 0,-16 -2,-7 -6,-13 -11,-18 -6,-5 -12,-7 -19,-7 -7,0 -20,2 -37,7l-72 20 -12 -42 159 -45 11 39 -23 7c22,9 36,24 42,45 3,9 3,18 2,27 -1,9 -4,16 -8,21 -4,5 -9,10 -15,13 -6,3 -15,7 -28,10l-99 28zm-64 -227l24 -7c-10,-3 -19,-9 -26,-17 -7,-8 -13,-17 -16,-28 -3,-11 -3,-21 -1,-31 2,-10 7,-18 15,-24 7,-6 19,-11 34,-16l100 -28 12 42 -73 20c-22,6 -36,11 -40,14 -5,3 -8,7 -10,12 -2,5 -2,11 0,17 2,7 6,13 11,18 6,5 11,7 18,8 6,0 21,-3 44,-9l67 -19 12 42 -158 45 -11 -39zm95 -269l7 23 12 -3c13,-4 24,-5 31,-4 7,1 14,5 20,11 6,6 11,16 14,27 3,12 5,24 5,37l-31 3c0,-7 -1,-14 -3,-20 -2,-6 -4,-10 -8,-12 -4,-2 -9,-2 -17,1l-11 3 9 31 -33 9 -9 -31 -126 35 -12 -42 126 -35 -7 -23 33 -9z"/>
   <path class="fil1" d="M5571 2764l-14 -41 156 -51 13 38 -22 7c13,3 22,7 27,11 5,4 9,10 11,16 3,9 3,19 1,30l-40 -1c2,-8 2,-16 0,-22 -2,-6 -5,-10 -10,-13 -4,-3 -11,-4 -20,-4 -9,0 -27,5 -54,14l-48 16zm54 -145c12,-4 20,-10 24,-18 4,-8 5,-16 2,-25 -3,-9 -9,-15 -17,-19 -8,-4 -18,-4 -30,0l20 62zm-43 11l7 44c-17,0 -31,-5 -43,-14 -12,-9 -20,-22 -26,-39 -9,-27 -7,-50 7,-69 11,-15 27,-26 49,-33 26,-9 48,-8 68,0 19,9 32,23 39,44 8,23 6,44 -5,63 -11,18 -32,33 -64,43l-34 -104c-12,4 -21,11 -25,19 -5,9 -6,18 -2,27 2,6 6,11 11,15 5,3 12,5 20,4zm-48 -252c-17,5 -28,12 -34,19 -9,10 -11,21 -7,33 3,10 10,16 20,20 10,4 23,3 40,-2 18,-6 30,-13 36,-22 6,-9 7,-19 4,-29 -3,-10 -10,-17 -20,-21 -10,-4 -23,-4 -38,2zm-45 137l-13 -38 23 -8c-11,-3 -20,-9 -27,-16 -7,-7 -12,-15 -15,-24 -6,-18 -4,-36 7,-53 10,-18 28,-31 54,-39 27,-9 49,-9 67,-1 18,8 30,21 36,41 6,17 3,35 -7,53l78 -26 14 41 -216 71zm-73 -221l-14 -41 156 -51 13 38 -22 7c13,3 22,7 27,11 5,4 9,10 11,16 3,9 3,19 1,30l-40 -1c2,-8 2,-16 0,-22 -2,-6 -5,-10 -10,-13 -4,-3 -11,-4 -20,-4 -9,0 -27,5 -54,14l-48 16zm15 -217c-16,5 -26,13 -32,23 -6,10 -7,21 -3,31 4,11 11,19 21,23 11,5 24,4 40,-1 15,-5 26,-13 32,-23 6,-10 7,-20 3,-31 -4,-11 -11,-19 -21,-23 -11,-5 -24,-4 -39,1zm-12 -43c14,-5 28,-5 43,-3 15,3 28,9 39,19 11,10 19,23 24,38 8,24 6,46 -4,66 -10,20 -27,34 -51,42 -24,8 -46,7 -66,-4 -21,-10 -35,-27 -42,-50 -5,-14 -6,-29 -4,-44 2,-15 8,-28 19,-39 10,-11 24,-19 42,-25zm-151 25l-9 -28c18,-22 38,-42 59,-58 22,-16 44,-28 67,-35 28,-9 57,-13 85,-12 25,1 49,5 71,12l9 28c-34,-4 -63,-5 -85,-3 -23,2 -45,7 -69,14 -16,5 -32,12 -48,21 -16,9 -31,18 -44,28 -9,7 -21,17 -37,32zm117 -326l8 23 12 -4c13,-4 23,-6 31,-5 7,1 14,4 21,10 7,6 12,15 15,27 4,12 6,24 6,36l-31 4c-1,-7 -2,-14 -4,-20 -2,-6 -5,-10 -8,-12 -4,-2 -9,-1 -17,1l-11 4 10 31 -33 11 -10 -31 -124 41 -14 -41 124 -41 -8 -23 33 -11zm-178 -14l156 -51 14 41 -156 51 -14 -41zm178 -58l38 -13 14 41 -38 13 -14 -41z"/>
   <circle class="fil15" cx="4784" cy="1436" r="39"/>
  </g>
 </g>
</svg>
