<?xml version="1.0" encoding="UTF-8"?>
<!DOCTYPE svg PUBLIC "-//W3C//DTD SVG 1.1//EN" "http://www.w3.org/Graphics/SVG/1.1/DTD/svg11.dtd">
<!-- Creator: CorelDRAW X5 -->
<svg xmlns="http://www.w3.org/2000/svg" xml:space="preserve" width="225.607mm" height="107.282mm" style="shape-rendering:geometricPrecision; text-rendering:geometricPrecision; image-rendering:optimizeQuality; fill-rule:evenodd; clip-rule:evenodd"
viewBox="0 0 1629 775"
 xmlns:xlink="http://www.w3.org/1999/xlink">
 <defs>
  <style type="text/css">
   <![CDATA[
    .fil0 {fill:#F2FCFF}
   ]]>
  </style>
 </defs>
 <g id="Vrstva_x0020_1">
  <metadata id="CorelCorpID_0Corel-Layer"/>
  <path class="fil0" d="M294 775c369,0 739,0 1108,0 55,-3 110,-5 153,-54 43,-48 74,-142 73,-209 -1,-66 -35,-105 -72,-154 -37,-49 -77,-109 -118,-151 -41,-42 -82,-67 -160,-71 -78,-4 -192,14 -279,-7 -87,-21 -147,-80 -225,-108 -78,-28 -173,-25 -271,-5 -98,20 -197,57 -282,131 -85,74 -156,184 -191,262 -35,78 -35,124 -18,158 17,34 51,56 73,84 21,28 30,62 63,84 33,22 90,32 148,42z"/>
 </g>
</svg>
