<?xml version="1.0" encoding="UTF-8"?>
<!DOCTYPE svg PUBLIC "-//W3C//DTD SVG 1.1//EN" "http://www.w3.org/Graphics/SVG/1.1/DTD/svg11.dtd">
<!-- Creator: CorelDRAW X5 -->
<svg xmlns="http://www.w3.org/2000/svg" xml:space="preserve" width="113.281mm" height="67.3524mm" style="shape-rendering:geometricPrecision; text-rendering:geometricPrecision; image-rendering:optimizeQuality; fill-rule:evenodd; clip-rule:evenodd"
viewBox="0 0 10229 6082"
 xmlns:xlink="http://www.w3.org/1999/xlink">
 <defs>
  <style type="text/css">
   <![CDATA[
    .fil6 {fill:#5ED95C}
    .fil5 {fill:#A6E6A8}
    .fil0 {fill:#CFCFCF}
    .fil1 {fill:#FDF5F5}
    .fil2 {fill:white}
    .fil7 {fill:#C1946F}
    .fil3 {fill:#595963;fill-rule:nonzero}
    .fil4 {fill:#D4D4D4;fill-rule:nonzero}
   ]]>
  </style>
 </defs>
 <g id="Vrstva_x0020_1">
  <metadata id="CorelCorpID_0Corel-Layer"/>
  <polygon class="fil0" points="0,6082 3498,6082 3498,3676 0,3676 "/>
  <polygon class="fil1" points="178,6082 3322,6082 3322,3796 178,3796 "/>
  <polygon class="fil0" points="318,4551 3197,4551 3197,3916 318,3916 "/>
  <polygon class="fil0" points="318,5349 3197,5349 3197,4714 318,4714 "/>
  <path class="fil2" d="M1757 4122c62,0 112,50 112,112 0,62 -50,112 -112,112 -62,0 -112,-50 -112,-112 0,-62 50,-112 112,-112z"/>
  <path class="fil2" d="M1757 4919c62,0 112,50 112,112 0,62 -50,112 -112,112 -62,0 -112,-50 -112,-112 0,-62 50,-112 112,-112z"/>
  <path class="fil3" d="M30 2889l361 791 877 -2 -381 -823c-4,-8 -11,-12 -20,-12l-807 0c-24,0 -40,25 -30,47l0 0z"/>
  <path class="fil4" d="M1268 3635l-371 -769c0,0 -14,-31 -46,-23 -10,2 391,793 391,793l26 0z"/>
  <path class="fil3" d="M2048 3631l-801 4 20 43 741 0c22,0 39,-18 39,-39l0 -7 0 0z"/>
  <polygon class="fil0" points="6730,6082 10229,6082 10229,1326 6730,1326 "/>
  <polygon class="fil1" points="6909,6082 10052,6082 10052,1517 6909,1517 "/>
  <polygon class="fil0" points="7093,6082 8384,6082 8384,1665 7093,1665 "/>
  <polygon class="fil0" points="8573,6082 9875,6082 9875,1665 8573,1665 "/>
  <path class="fil2" d="M7738 3775c54,0 98,44 98,98 0,54 -44,98 -98,98 -54,0 -98,-44 -98,-98 0,-54 44,-98 98,-98z"/>
  <path class="fil2" d="M9318 3775c54,0 98,44 98,98 0,54 -44,98 -98,98 -54,0 -98,-44 -98,-98 0,-54 44,-98 98,-98z"/>
  <path class="fil5" d="M9406 892c-30,-11 -70,-42 -95,-75 -25,-34 -35,-70 -56,-105 -21,-35 -54,-69 -84,-86 -30,-17 -58,-17 -76,-31 -18,-14 -28,-41 -32,-87 -5,-46 -5,-111 16,-141 21,-30 62,-26 94,-12 32,14 56,37 79,66 23,28 45,62 73,90 28,28 61,49 88,76 27,27 48,59 62,92 14,32 20,64 19,99 -1,34 -11,71 -24,94 -14,23 -32,32 -62,21z"/>
  <path class="fil5" d="M9586 864c-15,-29 -10,-84 3,-120 13,-36 33,-52 57,-59 24,-7 51,-4 71,-11 19,-7 30,-25 41,-42 11,-17 22,-35 37,-47 15,-12 34,-20 54,-27 19,-7 39,-14 53,-22 15,-8 25,-16 35,-29 11,-13 22,-30 36,-38 15,-8 33,-6 60,-3 27,3 64,7 86,18 22,12 29,31 18,48 -11,17 -40,33 -71,57 -30,25 -62,58 -78,84 -17,26 -19,44 -25,62 -6,18 -18,35 -33,52 -16,17 -36,33 -65,44 -29,11 -66,16 -95,22 -28,6 -48,14 -62,21 -15,8 -25,16 -48,18 -23,2 -60,-2 -75,-31z"/>
  <path class="fil5" d="M9513 635c-5,-29 -9,-75 -17,-114 -9,-38 -23,-68 -24,-101 0,-33 14,-68 32,-98 18,-30 40,-55 58,-90 19,-35 34,-79 73,-130 39,-51 103,-107 134,-103 32,4 33,69 26,120 -7,50 -21,85 -33,112 -13,26 -24,43 -36,60 -12,17 -23,34 -26,52 -2,18 4,38 6,61 2,23 -2,51 -12,71 -10,20 -26,33 -39,43 -13,10 -23,16 -37,34 -14,18 -31,49 -41,69 -9,20 -11,29 -16,38 -6,9 -16,16 -25,15 -9,-1 -17,-12 -23,-40z"/>
  <path class="fil5" d="M9443 1042c10,-34 19,-69 19,-104 0,-36 -9,-72 -23,-109 -14,-37 -32,-74 -55,-106 -23,-32 -51,-60 -78,-87 -28,-28 -55,-55 -83,-87 -28,-32 -55,-69 -74,-92 -18,-23 -28,-32 -37,-41 13,9 26,18 46,41 20,23 48,60 76,92 28,32 55,60 83,87 28,28 55,55 78,87 23,32 41,69 55,106 14,37 23,74 23,109 0,35 -8,69 -17,103 -5,0 -9,1 -14,1z"/>
  <path class="fil6" d="M9362 691c3,-8 6,-17 5,-31 -1,-15 -5,-36 -10,-57 5,16 10,32 13,46 2,14 2,25 1,33 -1,8 -1,12 -2,15 -3,-2 -5,-4 -8,-6z"/>
  <path class="fil6" d="M9263 582c-9,0 -18,0 -32,-5 -14,-5 -32,-16 -51,-27 14,10 27,20 40,27 12,7 23,10 31,12 7,2 11,3 15,3 -1,-3 -2,-6 -3,-9z"/>
  <path class="fil6" d="M9184 497c4,-8 8,-16 9,-31 1,-15 0,-36 -2,-58 3,17 6,33 6,47 0,14 -2,25 -3,33 -2,8 -3,11 -4,15 -2,-2 -5,-5 -7,-7z"/>
  <path class="fil6" d="M9516 1041c-4,-6 24,-362 25,-437 1,-42 6,-86 18,-126 12,-40 29,-76 47,-112 18,-36 36,-72 52,-113 16,-41 31,-87 41,-116 10,-29 16,-41 22,-53 -10,13 -19,26 -31,55 -12,29 -27,75 -43,116 -16,41 -34,77 -52,113 -18,36 -36,72 -47,112 -12,40 -17,84 -18,126 -1,76 -31,424 -25,432 5,-1 7,3 11,2z"/>
  <path class="fil6" d="M9570 438c-6,-8 -12,-16 -16,-32 -4,-16 -7,-39 -10,-63 0,18 1,37 3,52 3,15 7,27 10,35 3,8 5,12 7,16 2,-3 4,-5 6,-8z"/>
  <path class="fil6" d="M9630 299c9,-2 18,-4 30,-13 12,-9 26,-25 41,-42 -10,14 -20,28 -30,38 -10,10 -20,16 -27,20 -7,4 -10,6 -14,7 0,-4 0,-7 0,-11z"/>
  <path class="fil6" d="M9679 188c-7,-7 -14,-15 -20,-30 -6,-15 -12,-39 -18,-62 3,18 6,37 10,52 4,15 11,26 15,34 4,8 7,11 9,15 1,-3 3,-6 4,-9z"/>
  <path class="fil6" d="M9540 1077c0,-36 0,-71 10,-106 9,-34 28,-67 51,-99 23,-32 51,-62 82,-87 31,-25 65,-44 99,-63 34,-19 68,-38 103,-62 35,-24 72,-52 96,-69 24,-17 35,-24 47,-30 -15,5 -30,11 -55,28 -26,17 -62,45 -97,68 -35,24 -69,43 -103,62 -34,19 -68,38 -99,63 -31,25 -58,55 -82,87 -23,32 -42,65 -52,99 -10,34 -11,69 -12,104 4,2 9,3 13,5z"/>
  <path class="fil6" d="M9714 761c-1,-9 -1,-18 4,-32 5,-14 15,-33 25,-52 -9,14 -19,28 -25,41 -6,13 -8,24 -10,31 -2,8 -2,11 -3,15 3,-1 6,-2 9,-4z"/>
  <path class="fil6" d="M9838 683c9,3 17,5 32,4 15,-1 36,-7 56,-13 -16,6 -32,12 -45,15 -14,3 -25,3 -33,3 -8,0 -12,0 -16,-1 2,-3 4,-5 6,-8z"/>
  <path class="fil6" d="M9937 622c-2,-9 -4,-17 -1,-32 3,-14 10,-35 17,-55 -7,15 -15,30 -19,44 -4,13 -5,25 -6,32 0,8 -1,12 -1,16 3,-2 6,-3 8,-5z"/>
  <polygon class="fil7" points="9433,1326 9606,1326 9705,1098 9705,1017 9334,1017 9334,1098 "/>
  <path class="fil5" d="M9586 864c-15,-29 -10,-84 3,-120 13,-36 33,-52 57,-59 24,-7 51,-4 71,-11 19,-7 30,-25 41,-42 11,-17 22,-35 37,-47 15,-12 34,-20 54,-27 19,-7 39,-14 53,-22 15,-8 25,-16 35,-29 11,-13 22,-30 36,-38 15,-8 33,-6 60,-3 27,3 64,7 86,18 22,12 29,31 18,48 -11,17 -40,33 -71,57 -30,25 -62,58 -78,84 -17,26 -19,44 -25,62 -6,18 -18,35 -33,52 -16,17 -36,33 -65,44 -29,11 -66,16 -95,22 -28,6 -48,14 -62,21 -15,8 -25,16 -48,18 -23,2 -60,-2 -75,-31z"/>
  <path class="fil5" d="M9513 635c-5,-29 -9,-75 -17,-114 -9,-38 -23,-68 -24,-101 0,-33 14,-68 32,-98 18,-30 40,-55 58,-90 19,-35 34,-79 73,-130 39,-51 103,-107 134,-103 32,4 33,69 26,120 -7,50 -21,85 -33,112 -13,26 -24,43 -36,60 -12,17 -23,34 -26,52 -2,18 4,38 6,61 2,23 -2,51 -12,71 -10,20 -26,33 -39,43 -13,10 -23,16 -37,34 -14,18 -31,49 -41,69 -9,20 -11,29 -16,38 -6,9 -16,16 -25,15 -9,-1 -17,-12 -23,-40z"/>
  <path class="fil5" d="M9443 1042c10,-34 19,-69 19,-104 0,-36 -9,-72 -23,-109 -14,-37 -32,-74 -55,-106 -23,-32 -51,-60 -78,-87 -28,-28 -55,-55 -83,-87 -28,-32 -55,-69 -74,-92 -18,-23 -28,-32 -37,-41 13,9 26,18 46,41 20,23 48,60 76,92 28,32 55,60 83,87 28,28 55,55 78,87 23,32 41,69 55,106 14,37 23,74 23,109 0,35 -8,69 -17,103 -5,0 -9,1 -14,1z"/>
  <path class="fil6" d="M9362 691c3,-8 6,-17 5,-31 -1,-15 -5,-36 -10,-57 5,16 10,32 13,46 2,14 2,25 1,33 -1,8 -1,12 -2,15 -3,-2 -5,-4 -8,-6z"/>
  <path class="fil6" d="M9263 582c-9,0 -18,0 -32,-5 -14,-5 -32,-16 -51,-27 14,10 27,20 40,27 12,7 23,10 31,12 7,2 11,3 15,3 -1,-3 -2,-6 -3,-9z"/>
  <path class="fil6" d="M9184 497c4,-8 8,-16 9,-31 1,-15 0,-36 -2,-58 3,17 6,33 6,47 0,14 -2,25 -3,33 -2,8 -3,11 -4,15 -2,-2 -5,-5 -7,-7z"/>
  <path class="fil6" d="M9516 1041c-4,-6 24,-362 25,-437 1,-42 6,-86 18,-126 12,-40 29,-76 47,-112 18,-36 36,-72 52,-113 16,-41 31,-87 41,-116 10,-29 16,-41 22,-53 -10,13 -19,26 -31,55 -12,29 -27,75 -43,116 -16,41 -34,77 -52,113 -18,36 -36,72 -47,112 -12,40 -17,84 -18,126 -1,76 -31,424 -25,432 5,-1 7,3 11,2z"/>
  <path class="fil6" d="M9570 438c-6,-8 -12,-16 -16,-32 -4,-16 -7,-39 -10,-63 0,18 1,37 3,52 3,15 7,27 10,35 3,8 5,12 7,16 2,-3 4,-5 6,-8z"/>
  <path class="fil6" d="M9630 299c9,-2 18,-4 30,-13 12,-9 26,-25 41,-42 -10,14 -20,28 -30,38 -10,10 -20,16 -27,20 -7,4 -10,6 -14,7 0,-4 0,-7 0,-11z"/>
  <path class="fil6" d="M9679 188c-7,-7 -14,-15 -20,-30 -6,-15 -12,-39 -18,-62 3,18 6,37 10,52 4,15 11,26 15,34 4,8 7,11 9,15 1,-3 3,-6 4,-9z"/>
  <path class="fil6" d="M9540 1077c0,-36 0,-71 10,-106 9,-34 28,-67 51,-99 23,-32 51,-62 82,-87 31,-25 65,-44 99,-63 34,-19 68,-38 103,-62 35,-24 72,-52 96,-69 24,-17 35,-24 47,-30 -15,5 -30,11 -55,28 -26,17 -62,45 -97,68 -35,24 -69,43 -103,62 -34,19 -68,38 -99,63 -31,25 -58,55 -82,87 -23,32 -42,65 -52,99 -10,34 -11,69 -12,104 4,2 9,3 13,5z"/>
  <path class="fil6" d="M9714 761c-1,-9 -1,-18 4,-32 5,-14 15,-33 25,-52 -9,14 -19,28 -25,41 -6,13 -8,24 -10,31 -2,8 -2,11 -3,15 3,-1 6,-2 9,-4z"/>
  <path class="fil6" d="M9838 683c9,3 17,5 32,4 15,-1 36,-7 56,-13 -16,6 -32,12 -45,15 -14,3 -25,3 -33,3 -8,0 -12,0 -16,-1 2,-3 4,-5 6,-8z"/>
  <path class="fil6" d="M9937 622c-2,-9 -4,-17 -1,-32 3,-14 10,-35 17,-55 -7,15 -15,30 -19,44 -4,13 -5,25 -6,32 0,8 -1,12 -1,16 3,-2 6,-3 8,-5z"/>
  <polygon class="fil7" points="9433,1326 9606,1326 9705,1098 9705,1017 9334,1017 9334,1098 "/>
 </g>
</svg>
