<svg width="78" height="194" viewBox="0 0 78 194" fill="none" xmlns="http://www.w3.org/2000/svg">
<g clip-path="url(#clip0_631_8)">
<path d="M37.5 194C58.2107 194 75 192.433 75 190.5C75 188.567 58.2107 187 37.5 187C16.7893 187 0 188.567 0 190.5C0 192.433 16.7893 194 37.5 194Z" fill="#807A7A" fill-opacity="0.31"/>
<mask id="mask0_631_8" style="mask-type:luminance" maskUnits="userSpaceOnUse" x="11" y="0" width="67" height="192">
<path d="M77.1323 0H11V191.058H77.1323V0Z" fill="white"/>
</mask>
<g mask="url(#mask0_631_8)">
<path fill-rule="evenodd" clip-rule="evenodd" d="M15.5994 177.166C15.5994 178.277 15.5994 179.439 15.6499 180.55C17.6707 180.55 19.6914 180.5 21.7121 180.5C21.7121 179.49 21.7121 178.429 21.6616 177.418C19.6408 177.317 17.6201 177.267 15.5994 177.166Z" fill="#F8BB97"/>
<path fill-rule="evenodd" clip-rule="evenodd" d="M52.4268 177.469C52.4774 178.58 52.4774 179.742 52.5279 180.854C54.5486 180.803 56.5693 180.702 58.59 180.651C58.5395 179.641 58.5395 178.631 58.489 177.57C56.4683 177.519 54.4476 177.519 52.4268 177.469Z" fill="#F8BB97"/>
<path fill-rule="evenodd" clip-rule="evenodd" d="M15.1448 179.793C17.6201 179.843 19.6913 179.843 22.1667 179.894C22.1667 180.601 22.5709 181.308 22.6719 182.167C23.0255 185.703 23.6317 186.663 22.8234 190.502C22.4698 190.705 22.0657 190.856 21.7121 191.058C18.2263 191.058 14.7406 191.058 11.2549 191.008C11.1033 190.452 11.0023 189.947 10.9518 189.341C10.9013 188.734 11.0023 188.027 11.2549 187.421C11.5075 186.815 11.9621 186.36 12.5178 185.602C13.124 184.844 13.8313 183.733 14.2859 182.723C14.7406 181.712 14.9427 180.753 15.1448 179.843V179.793Z" fill="#4E4C4F"/>
<path fill-rule="evenodd" clip-rule="evenodd" d="M58.6405 179.944C56.4683 179.944 54.4476 179.944 52.2753 179.944C52.0227 180.651 51.568 181.359 51.366 182.218C51.1639 183.076 51.0124 184.036 50.7598 184.794C50.5072 185.552 50.1536 186.107 49.8504 186.663C49.5473 187.269 49.3453 187.876 49.2948 188.583C49.2442 189.29 49.2948 190.048 49.3958 190.806C53.5888 190.907 57.8323 191.008 62.0757 191.109C62.2273 190.553 62.3283 190.048 62.3788 189.442C62.4294 188.835 62.3283 188.128 62.1263 187.522C61.8737 186.916 61.4695 186.461 60.9138 185.703C60.3581 184.945 59.7014 183.834 59.2973 182.874C58.8931 181.864 58.8426 180.955 58.7416 180.045L58.6405 179.944Z" fill="#4E4C4F"/>
<path d="M41.0605 26.0672C41.0605 26.0672 39.3428 32.5334 38.0294 34.6047C37.5747 40.3637 46.8195 45.8196 50.4062 36.878C50.4062 36.878 49.4969 30.4622 51.1135 26.2187C52.1744 23.3392 54.3971 23.2887 56.9735 16.4183C58.7922 11.6191 56.5694 5.70852 49.3959 3.6373C44.6472 2.27332 40.7068 4.7992 40.7068 4.7992C40.7068 4.7992 38.8882 5.9106 37.7263 7.67872C37.7263 7.67872 36.9685 8.84063 36.817 9.59839C36.6654 10.4067 35.9076 13.2356 35.554 13.7408C34.6447 15.0543 33.8869 15.3069 33.6343 15.8626C33.4323 16.3678 34.19 17.2771 35.0488 17.4791C33.5838 21.369 35.0994 27.1785 41.0605 26.1177V26.0672Z" fill="#F8BB97"/>
<path d="M34.9477 7.52719C34.9477 7.52719 35.756 8.94169 38.787 9.29531C41.9697 9.64894 44.243 11.6191 44.243 13.1851C44.243 14.347 43.3842 16.0141 43.3842 16.8729C43.5862 17.0245 43.9904 17.2265 44.344 17.3781C45.0007 17.7822 45.9606 15.6605 46.6678 16.2162C47.5771 16.8224 49.0927 17.6812 48.4359 19.0957C47.7792 20.4597 47.274 25.562 47.5266 26.4713C47.7792 27.4311 51.2144 27.5827 51.568 27.5827C51.9217 27.5322 54.5486 23.6423 56.1146 22.1268C57.7312 20.6112 63.9954 11.2655 59.7014 7.8303C59.7014 7.8303 59.6004 5.10234 57.0745 3.33422C54.5486 1.5661 50.002 -0.353581 46.2131 0.0505602C42.4243 0.454703 37.6251 2.12179 35.958 1.21247C35.958 1.21247 34.1899 -0.656688 34.5435 0.656774C34.8972 1.91972 35.857 3.99095 36.9179 4.59716C36.9179 4.59716 35.2003 3.18267 34.2404 2.22283C33.2806 1.26299 32.7249 5.30441 34.9477 7.52719Z" fill="#FFED00"/>
<path fill-rule="evenodd" clip-rule="evenodd" d="M15.6499 183.026H20.7017V182.47H15.6499V183.026Z" fill="#CFE3EB"/>
<path fill-rule="evenodd" clip-rule="evenodd" d="M14.9932 184.895H20.9038V184.289H14.9932V184.895Z" fill="#CFE3EB"/>
<path fill-rule="evenodd" clip-rule="evenodd" d="M52.7805 183.329H57.8323V182.773H52.7805V183.329Z" fill="#CFE3EB"/>
<path fill-rule="evenodd" clip-rule="evenodd" d="M52.3259 185.047H58.2365V184.491H52.3259V185.047Z" fill="#CFE3EB"/>
<path fill-rule="evenodd" clip-rule="evenodd" d="M20.1965 87.2948C34.6446 91.2352 49.1432 95.1755 55.9631 95.2766C62.783 95.3776 61.9747 91.6898 60.9138 88.7598C59.9034 85.7792 58.6405 83.607 56.9734 80.5254C55.3063 77.4438 53.2351 73.5034 51.9216 68.9063C50.6082 64.3092 50.002 59.0048 50.1535 53.8015C50.2546 48.5982 51.1134 43.4454 51.8206 39.5555C52.5784 35.6656 52.2021 34.9094 52 34.0001C51.7979 33.0908 51.7196 32.1294 50.6082 32.7356C49.4968 33.3923 48.3854 33.847 46.8699 34.1501C45.3543 34.4532 43.4347 34.5542 42.0707 34.1501C40.7067 33.7459 39.9489 32.8871 39.0396 33.3923C38.0798 33.8975 37.0189 35.7667 35.6044 39.8586C34.2404 43.9 32.6239 50.1642 31.1083 55.9738C29.6433 61.7833 28.3299 67.0877 26.6122 71.0281C24.8946 74.9684 22.7224 77.4943 20.5501 80.0707C20.3986 82.4956 20.247 84.8699 20.0955 87.2948H20.1965Z" fill="white"/>
<path fill-rule="evenodd" clip-rule="evenodd" d="M34.5942 28.6942C35.2004 27.0271 32.725 27.1786 37.1706 26.1683C38.5851 25.8652 39.2418 23.5919 39.4944 22.8846C39.747 22.1774 40.4542 21.5712 40.5553 20.6619C40.7573 19.0453 40.1511 19.2979 39.8985 18.5906C39.7975 18.338 40.2016 18.136 39.848 17.7823C39.5954 17.5298 38.9892 17.6813 38.8377 17.6308C38.5851 17.5298 38.5346 17.0246 38.282 16.9741C37.7768 16.873 37.5747 17.2772 37.3221 17.1761C36.4128 16.8225 36.1602 16.9741 34.8973 18.8432C33.6343 20.7124 33.9374 20.4093 33.6343 21.2176C33.3817 22.0258 33.1292 22.8341 32.9776 23.7434C32.8766 24.6528 32.8766 25.6126 32.6745 26.4209C32.4724 27.2797 31.159 27.7849 31.3105 29.3509C31.6136 31.8263 32.6745 33.948 34.6447 28.6437L34.5942 28.6942Z" fill="#BEBEBE"/>
<path fill-rule="evenodd" clip-rule="evenodd" d="M23.076 177.469C25.2988 166.203 26.8143 159.181 30.098 144.582C33.3816 130.033 30.199 97.8529 29.2392 97.2972C28.3299 96.7415 27.5721 102.854 24.4905 102.854C23.4802 118.009 19.6408 118.313 18.4284 133.215C17.1654 148.118 15.7004 162.819 14.2354 177.469C17.216 177.469 20.146 177.469 23.1265 177.469H23.076Z" fill="#4A62FF"/>
<path fill-rule="evenodd" clip-rule="evenodd" d="M60.2066 110.583C61.5201 108.108 62.783 105.582 63.7428 103.41C64.6522 101.187 65.2079 99.2675 65.2584 96.9942C65.3089 94.7714 64.9553 92.2455 64.1975 89.6691C63.4902 87.1432 62.4294 84.5668 61.419 82.344C60.4087 80.1213 59.3983 78.2521 58.7416 76.6355C58.0849 75.019 57.7817 73.7055 57.6302 72.0384C57.4281 70.4218 57.3776 68.4517 57.4281 65.9258C57.4786 63.3999 57.7312 60.3688 57.9333 57.2872C59.1457 60.2678 60.3076 63.1978 61.5201 66.1784C62.4294 66.2289 63.3387 66.2289 64.4501 65.7237C65.5615 65.168 66.976 64.0566 67.9358 63.0968C68.8956 62.1369 69.5019 61.3287 70.5122 60.773C71.5731 60.2173 73.0886 59.9142 74.6042 59.5605C71.7752 53.5994 68.9967 47.5878 67.2286 44.3042C65.4604 41.0205 64.7532 40.4648 62.0758 38.7472C59.4488 37.0296 54.8517 34.2511 50.2546 31.4221C48.436 42.3845 46.6678 53.3468 45.809 60.2173C44.9502 67.0877 45.0513 69.8156 47.6277 77.4943C50.2041 85.173 55.2053 97.853 60.2066 110.533V110.583Z" fill="#FC5673"/>
<path fill-rule="evenodd" clip-rule="evenodd" d="M51.6186 88.5577C54.5486 86.2339 57.4786 83.9101 59.0952 82.7987C60.2066 81.4852 60.5602 81.6368 60.7623 80.9801C60.4087 80.1213 59.3983 78.2521 58.7921 76.6355C58.1354 75.019 57.8323 73.7055 57.6807 72.0384C57.4786 70.4218 57.4281 68.4517 57.4786 65.9258C57.5292 63.3999 57.7817 60.3688 57.9838 57.2872C59.1962 60.2678 60.3581 63.1978 61.5706 66.1784C62.4799 66.2289 63.3892 66.2289 64.5006 65.7237C65.612 65.168 67.0265 64.0566 67.9863 63.0968C68.9462 62.1369 69.5524 61.3287 70.5627 60.773C71.6236 60.2173 73.1391 59.8636 74.6547 59.5605C71.8257 53.5994 69.0472 47.5878 67.2791 44.3042C65.511 41.0205 64.8037 40.4648 62.1263 38.7472C59.4993 37.0296 54.9022 34.2511 50.3051 31.4221C48.4865 42.3845 46.7184 53.3468 45.8596 60.2173C45.0008 67.0877 45.1018 69.8156 46.2637 73.8571C47.3751 77.8985 49.5473 83.2028 51.6691 88.5577H51.6186Z" fill="#FC5673"/>
<path fill-rule="evenodd" clip-rule="evenodd" d="M59.954 58.2471C61.9747 61.7328 63.9954 65.2185 65.0563 67.4413C66.1172 69.6641 66.2687 70.6239 66.2182 71.4322C66.1677 72.2405 65.9656 72.8972 64.147 75.9283C62.3283 78.9593 58.8426 84.4658 56.6703 87.901C55.3064 90.3258 42.2223 101.44 58.7416 95.3271C59.1962 95.2766 64.0459 89.7196 66.7234 86.2339C69.4513 82.7482 71.6236 80.0202 73.1896 77.9995C74.8062 75.9788 75.8166 74.6653 76.4228 73.5539C77.029 72.4425 77.2311 71.5332 77.029 70.2703C76.8774 69.0579 76.3723 67.4918 75.6145 65.4711C74.8567 63.4504 73.7959 60.975 72.8865 58.8533C71.9772 56.782 71.1689 55.0644 70.3607 53.5994C69.5524 52.1344 68.6936 50.821 67.6832 50.0632C66.6729 49.2549 65.511 49.0023 64.5511 49.0528C63.5408 49.1033 62.7325 49.5075 61.9747 51.1241C61.2169 52.7406 60.5602 55.5191 59.9035 58.2976L59.954 58.2471Z" fill="#F8BB97"/>
<path fill-rule="evenodd" clip-rule="evenodd" d="M58.7416 76.6355C58.0849 75.019 57.7817 73.7055 57.6302 72.0384C57.4281 70.4218 57.3776 68.4517 57.4281 65.9258C57.4786 63.3999 57.7312 60.3688 57.9333 57.2872C59.1457 60.2678 60.3076 63.1978 61.5201 66.1784C62.4294 66.2289 63.3387 66.2289 64.4501 65.7237C65.5615 65.168 66.976 64.0566 67.9358 63.0968C68.8956 62.1369 69.5019 61.3287 70.5122 60.773C71.5731 60.2173 73.0886 59.9142 74.6042 59.5605C71.7752 53.5994 68.9967 47.5878 67.2286 44.3042C65.4604 41.0205 64.7532 40.4648 62.0758 38.7472C59.4488 37.0296 54.8517 34.2511 50.2546 31.4221C48.436 42.3845 46.6678 53.3468 45.809 60.2173C44.9502 67.0877 45.0513 69.8156 47.6277 77.4943C49.9515 81.9399 53.9424 83.2534 58.7416 76.585V76.6355Z" fill="#FC5673"/>
<path fill-rule="evenodd" clip-rule="evenodd" d="M23.076 177.469C25.2987 166.203 27.572 154.988 30.5526 142.763C33.5331 130.538 37.2714 117.403 41.0603 104.218C43.2325 115.787 45.4048 127.355 46.5162 133.771C47.6781 140.187 47.8297 141.45 48.3854 147.916C48.9916 154.382 50.0019 166.001 51.0628 177.671C53.8413 177.62 56.6198 177.519 59.3982 177.469C59.8529 164.486 60.3581 151.503 60.9138 137.913C61.4695 124.324 62.0757 111.846 62.7324 97.6004C60.4591 97.0447 58.4384 95.4281 54.7001 94.5188C51.8711 93.5085 45.6069 91.7403 41.4139 90.6795C37.2209 89.6186 34.1393 88.8103 31.0072 88.4062C27.8751 88.002 24.7936 88.002 21.6615 88.002C20.6511 103.157 19.6408 118.313 18.3778 133.215C17.1149 148.118 15.6499 162.819 14.1848 177.469C17.1654 177.469 20.0954 177.469 23.076 177.469Z" fill="#3243B2"/>
<path fill-rule="evenodd" clip-rule="evenodd" d="M60.2066 110.583C68.643 103.41 66.6728 98.4592 64.147 89.5176C63.3892 90.8815 62.1262 91.7909 60.9643 93.559C60.0045 95.0745 58.1353 95.6302 57.8828 95.5292C59.3983 98.8633 60.1561 107.805 60.1561 110.533L60.2066 110.583Z" fill="#FC5673"/>
<path fill-rule="evenodd" clip-rule="evenodd" d="M55.862 91.5383C55.4579 90.8815 56.2157 90.1743 52.8815 91.7403C51.8206 92.195 48.8401 92.094 48.7896 92.1445C47.0214 92.195 46.9204 93.0538 47.9813 93.3569C50.2546 94.0136 56.7714 93.9126 55.862 91.4877V91.5383Z" fill="#F8BB97"/>
<path fill-rule="evenodd" clip-rule="evenodd" d="M39.6458 30.917C39.1407 38.6462 38.6355 46.4259 37.8777 52.9932C37.12 59.611 36.0591 65.0164 34.6951 70.1187C33.3311 75.1705 31.664 79.8687 29.7949 83.8596C27.9257 87.8505 25.7535 91.2352 24.0864 94.2662C22.3688 97.3478 21.1058 100.126 19.8429 102.501C18.5799 104.875 17.2665 106.744 16.5592 107.704C15.852 108.664 15.7509 108.714 15.1447 107.855C14.488 107.047 13.3261 105.38 12.8714 103.511C12.4168 101.642 12.6694 99.6211 13.3261 96.4385C13.9828 93.2559 15.0437 88.9113 16.4582 84.8699C17.9232 80.8285 19.7418 77.1407 21.2069 74.0086C22.6719 70.8765 23.7327 68.3001 24.3895 66.0773C24.9957 63.8545 25.2483 60.7224 25.4504 58.8533C24.6421 60.3183 23.6317 61.5812 22.8234 63.0463C21.0048 61.2781 19.4387 61.0255 17.6201 60.0657C15.852 59.0554 14.0839 58.8533 12.3157 58.6007C14.2859 54.2056 16.2056 49.8106 17.7717 46.4764C19.3377 43.1423 20.5501 40.869 21.7626 39.3029C22.975 37.6863 24.2379 36.777 27.269 35.4636C30.2495 34.1501 34.9982 32.483 39.6964 30.8159L39.6458 30.917Z" fill="#FC5673"/>
<path fill-rule="evenodd" clip-rule="evenodd" d="M14.4881 55.1148C13.6798 56.3777 13.4272 57.186 13.3767 58.2974C13.3262 59.4088 13.5283 60.7222 14.0334 61.6821C14.4881 62.6419 15.2459 63.2481 16.1047 63.6017C16.9635 64.0059 18.0243 64.1574 18.8831 64.0564C19.7925 63.9554 20.5502 63.5512 21.207 63.1471C21.8637 62.6924 22.4194 62.2378 22.7225 61.6316C23.0256 61.0759 23.1772 60.4696 23.6823 59.1057C24.1875 57.7417 25.1473 55.6705 25.9051 54.1044C26.6629 52.4878 27.3196 51.3259 28.431 48.8506C29.5929 46.3752 31.26 42.5864 32.5229 39.5048C33.7859 36.4232 34.6952 34.0994 35.2509 32.6849C35.8066 31.2704 36.0087 30.8157 36.3118 30.3106C36.6654 29.8054 37.1706 29.2497 37.8273 28.694C38.484 28.1383 39.2923 27.5321 39.848 27.0269C40.3532 26.4712 40.6058 25.966 40.4542 25.6629C40.3027 25.3598 39.6965 25.2083 39.2418 25.3093C38.7871 25.4103 38.4335 25.764 38.1304 25.764C37.8273 25.764 37.5747 25.3598 37.7263 24.8041C37.8273 24.2484 38.3325 23.5412 38.7871 22.8339C39.2418 22.1772 39.747 21.5205 39.848 20.6111C40.0501 18.9946 39.4439 19.2472 39.1913 18.5399C39.0902 18.2873 39.4944 18.0853 39.1408 17.7316C38.8882 17.479 38.282 17.6306 38.1304 17.5801C37.8778 17.479 37.8273 16.9739 37.5747 16.9233C37.0695 16.8223 36.8675 17.2265 36.6149 17.1254C35.7056 16.7718 35.453 16.9233 34.19 18.7925C32.9271 20.6617 33.2302 20.3586 32.9271 21.1668C32.6745 21.9751 32.4219 22.7834 32.2703 23.6927C32.1188 24.602 32.1188 25.5619 31.9672 26.3702C31.7652 27.229 31.4115 27.9362 30.6033 29.3002C29.795 30.6642 28.532 32.6849 27.067 35.0592C25.602 37.4336 23.8844 40.1615 22.2678 42.7884C20.7018 45.4154 19.2873 47.9412 17.9233 50.0125C16.5593 52.1342 15.2459 53.8013 14.4881 55.0643V55.1148Z" fill="#E7A886"/>
</g>
</g>
<defs>
<clipPath id="clip0_631_8">
<rect width="78" height="194" fill="white"/>
</clipPath>
</defs>
</svg>
