<?xml version="1.0" encoding="UTF-8"?>
<!DOCTYPE svg PUBLIC "-//W3C//DTD SVG 1.1//EN" "http://www.w3.org/Graphics/SVG/1.1/DTD/svg11.dtd">
<!-- Creator: CorelDRAW X5 -->
<svg xmlns="http://www.w3.org/2000/svg" xml:space="preserve" width="21.5542mm" height="30.3705mm" style="shape-rendering:geometricPrecision; text-rendering:geometricPrecision; image-rendering:optimizeQuality; fill-rule:evenodd; clip-rule:evenodd"
viewBox="0 0 1385 1951"
 xmlns:xlink="http://www.w3.org/1999/xlink">
 <defs>
  <style type="text/css">
   <![CDATA[
    .str0 {stroke:#C9C9C9;stroke-width:12.8511}
    .fil3 {fill:none}
    .fil6 {fill:#4E565A}
    .fil5 {fill:#FFED00}
    .fil2 {fill:#707375}
    .fil0 {fill:#C9C9C9}
    .fil1 {fill:#CFE3EB}
    .fil4 {fill:white}
    .fil7 {fill:#9DC8AB}
   ]]>
  </style>
 </defs>
 <g id="Vrstva_x0020_1">
  <metadata id="CorelCorpID_0Corel-Layer"/>
  <g id="_690039440">
   <path class="fil0" d="M144 573l1097 0 0 1222 -1097 0 0 -1222zm-141 -157l1379 0 0 1535 -1379 0 0 -1535z"/>
   <polygon class="fil1" points="90,1855 1295,1855 1295,513 90,513 "/>
   <path class="fil2" d="M692 0c19,0 35,16 35,35 0,19 -16,35 -35,35 -19,0 -35,-16 -35,-35 0,-19 16,-35 35,-35z"/>
   <polyline class="fil3 str0" points="3,416 692,35 1382,416 "/>
   <path class="fil4" d="M1207 996c6,-5 9,-9 9,-16 1,-15 -18,-27 -43,-28 -22,-1 -42,8 -46,21 -14,-4 -28,-6 -42,-7 -42,-2 -79,11 -99,30 -8,-7 -25,-13 -41,-13 -8,0 -17,1 -25,2 -16,-17 -43,-30 -80,-32 -36,-2 -70,10 -85,27l-8 0c-28,-1 -51,11 -51,25 -1,15 21,29 49,30 8,0 14,-1 20,-2 22,16 46,25 74,26l3 0c5,12 21,21 44,22 6,0 11,1 17,-1 13,15 38,25 69,26 31,1 59,-7 74,-23 11,4 25,4 36,5 36,2 67,-7 88,-22 6,2 14,2 22,3 36,2 68,-15 69,-36 1,-16 -21,-32 -51,-37z"/>
   <path class="fil4" d="M1112 617c6,-5 9,-9 9,-16 1,-15 -18,-27 -43,-28 -22,-1 -42,8 -46,21 -14,-4 -28,-6 -42,-7 -42,-2 -79,11 -99,30 -8,-7 -25,-13 -41,-13 -8,0 -17,1 -25,2 -16,-17 -43,-30 -80,-32 -36,-2 -70,10 -85,27l-8 0c-28,-1 -51,11 -51,25 -1,15 21,29 49,30 8,0 14,-1 20,-2 22,16 46,25 74,26l3 0c5,12 21,21 44,22 6,0 11,1 17,-1 13,15 38,25 69,26 31,1 59,-7 74,-23 11,4 25,4 36,5 36,2 67,-7 88,-22 6,2 14,2 22,3 36,2 68,-15 69,-36 1,-16 -21,-32 -51,-37z"/>
   <ellipse class="fil5" transform="matrix(0.107045 -0.0062743 0.00721973 0.123175 345.68 789.011)" rx="1428" ry="1241"/>
   <path class="fil4" d="M621 850c5,-5 8,-9 8,-15 0,-14 -18,-24 -41,-24 -21,0 -39,9 -41,21 -13,-3 -26,-5 -39,-4 -39,0 -72,14 -90,32 -8,-6 -23,-11 -39,-11 -8,0 -16,2 -23,3 -16,-15 -41,-26 -75,-26 -34,0 -65,12 -78,29l-8 0c-26,0 -47,12 -46,26 0,14 21,26 47,26 8,0 13,-2 18,-3 21,14 44,21 70,21l3 0c5,11 21,18 41,18 5,0 10,0 16,-2 13,14 36,21 65,21 28,0 54,-9 67,-24 10,3 23,3 34,3 34,0 62,-9 80,-24 5,2 13,1 21,1 34,0 62,-17 62,-36 0,-15 -21,-29 -49,-32z"/>
   <polygon class="fil6" points="301,1597 116,1773 764,1773 627,1669 589,1607 564,1566 426,1344 386,1469 323,1594 "/>
   <polygon class="fil4" points="566,1571 531,1622 482,1711 544,1654 629,1671 "/>
   <polygon class="fil4" points="426,1347 444,1437 472,1488 516,1578 516,1578 374,1677 377,1622 432,1542 415,1451 "/>
   <polygon class="fil4" points="298,1600 189,1703 321,1671 "/>
   <path class="fil4" d="M231 1204c-4,-4 -6,-8 -6,-14 0,-12 15,-22 34,-22 17,0 32,8 34,19 11,-3 21,-4 32,-4 32,0 60,12 75,29 6,-6 19,-10 32,-10 6,0 13,1 19,3 13,-14 34,-24 62,-24 28,0 53,11 64,26l6 0c21,0 38,11 38,24 0,12 -17,24 -38,24 -6,0 -11,-1 -15,-3 -17,12 -36,19 -58,19l-2 0c-4,10 -17,17 -34,17 -4,0 -9,0 -13,-1 -11,12 -30,19 -53,19 -24,0 -45,-8 -56,-22 -9,3 -19,3 -28,3 -28,0 -51,-8 -66,-22 -4,1 -11,1 -17,1 -28,0 -51,-15 -51,-33 0,-14 17,-26 41,-29z"/>
   <polygon class="fil6" points="301,1597 116,1773 764,1773 627,1669 589,1607 564,1566 426,1344 386,1469 323,1594 "/>
   <polygon class="fil4" points="566,1571 531,1622 482,1711 544,1654 629,1671 "/>
   <polygon class="fil4" points="426,1347 444,1437 472,1488 516,1578 516,1578 374,1677 377,1622 432,1542 415,1451 "/>
   <polygon class="fil4" points="298,1600 189,1703 321,1671 "/>
   <polygon class="fil6" points="580,1671 395,1846 1043,1846 906,1743 868,1681 843,1640 784,1430 665,1543 602,1667 "/>
   <polygon class="fil4" points="845,1644 810,1695 761,1785 824,1728 908,1745 "/>
   <polygon class="fil4" points="784,1430 723,1511 752,1562 795,1652 795,1652 653,1751 656,1696 711,1616 694,1524 "/>
   <polygon class="fil4" points="577,1673 468,1777 600,1745 "/>
   <path class="fil4" d="M849 1211c-4,-4 -6,-8 -6,-14 0,-12 15,-22 34,-22 17,0 32,8 34,19 11,-3 21,-4 32,-4 32,0 60,12 75,29 6,-6 19,-10 32,-10 6,0 13,1 19,3 13,-14 34,-24 62,-24 28,0 53,11 64,26l6 0c21,0 38,11 38,24 0,12 -17,24 -38,24 -6,0 -11,-1 -15,-3 -17,12 -36,19 -58,19l-2 0c-4,10 -17,17 -34,17 -4,0 -9,0 -13,-1 -11,12 -30,19 -53,19 -24,0 -45,-8 -56,-22 -9,3 -19,3 -28,3 -28,0 -51,-8 -66,-22 -4,1 -11,1 -17,1 -28,0 -51,-15 -51,-33 0,-14 17,-26 41,-29z"/>
   <polygon class="fil6" points="580,1671 395,1846 1043,1846 906,1743 868,1681 843,1640 784,1430 665,1543 602,1667 "/>
   <polygon class="fil4" points="845,1644 810,1695 761,1785 824,1728 908,1745 "/>
   <polygon class="fil4" points="779,1434 723,1511 752,1562 795,1652 795,1652 653,1751 656,1696 711,1616 694,1524 "/>
   <polygon class="fil4" points="577,1673 468,1777 600,1745 "/>
   <polygon class="fil6" points="869,1597 684,1773 1332,1773 1195,1669 1157,1607 1132,1566 995,1344 954,1469 891,1594 "/>
   <polygon class="fil6" points="148,1710 145,1842 597,1811 474,1782 436,1720 411,1680 273,1457 233,1582 170,1707 "/>
   <path class="fil7" d="M90 1855c402,0 803,0 1205,0 0,-78 0,-156 0,-234 -71,-29 -142,-59 -232,-54 -90,5 -200,43 -265,78 -66,34 -87,65 -131,70 -43,6 -109,-13 -165,-43 -56,-30 -103,-72 -162,-78 -58,-6 -127,23 -197,52 -18,5 -37,10 -55,15 0,65 1,129 1,194z"/>
  </g>
 </g>
</svg>
