<?xml version="1.0" encoding="UTF-8"?>
<!DOCTYPE svg PUBLIC "-//W3C//DTD SVG 1.1//EN" "http://www.w3.org/Graphics/SVG/1.1/DTD/svg11.dtd">
<!-- Creator: CorelDRAW X5 -->
<svg xmlns="http://www.w3.org/2000/svg" xml:space="preserve" width="172.026mm" height="58.2243mm" style="shape-rendering:geometricPrecision; text-rendering:geometricPrecision; image-rendering:optimizeQuality; fill-rule:evenodd; clip-rule:evenodd"
viewBox="0 0 2983 1010"
 xmlns:xlink="http://www.w3.org/1999/xlink">
 <defs>
  <style type="text/css">
   <![CDATA[
    .fil0 {fill:#EB7267}
    .fil1 {fill:white}
   ]]>
  </style>
 </defs>
 <g id="Vrstva_x0020_1">
  <metadata id="CorelCorpID_0Corel-Layer"/>
  <g id="_436490504">
   <path class="fil0" d="M217 2l2550 -2c119,0 217,98 217,217l0 576c0,119 -98,217 -217,217l-2550 0c-119,0 -217,-98 -217,-217l0 -576c0,-119 144,-215 217,-215z"/>
   <path class="fil1" d="M2810 556l-409 175 0 -75 324 -134 -324 -133 0 -75 409 173 0 71zm-1110 270l0 -617 123 0 146 437c14,41 23,71 29,91 7,-22 18,-55 33,-99l148 -429 110 0 0 617 -79 0 0 -516 -179 516 -74 0 -178 -525 0 525 -79 0zm-537 -345l176 0c37,0 67,-4 87,-12 21,-8 37,-20 48,-37 11,-17 16,-35 16,-55 0,-29 -10,-53 -32,-72 -21,-19 -55,-28 -100,-28l-195 0 0 204zm-82 345l0 -617 274 0c55,0 97,6 125,17 29,11 51,31 69,59 17,28 26,59 26,93 0,44 -14,81 -43,111 -28,30 -72,49 -131,57 22,10 38,21 49,31 24,22 46,49 68,82l107 168 -103 0 -82 -128c-24,-37 -44,-65 -59,-85 -15,-20 -29,-33 -41,-41 -12,-8 -25,-13 -37,-17 -9,-2 -24,-3 -46,-3l-95 0 0 274 -82 0zm-307 10l179 -638 61 0 -178 638 -61 0zm-596 -280l0 -71 409 -173 0 75 -324 133 324 134 0 75 -409 -175z"/>
  </g>
 </g>
</svg>
