<?xml version="1.0" encoding="UTF-8"?>
<!DOCTYPE svg PUBLIC "-//W3C//DTD SVG 1.1//EN" "http://www.w3.org/Graphics/SVG/1.1/DTD/svg11.dtd">
<!-- Creator: CorelDRAW X5 -->
<svg xmlns="http://www.w3.org/2000/svg" xml:space="preserve" width="448.381mm" height="63.8528mm" style="shape-rendering:geometricPrecision; text-rendering:geometricPrecision; image-rendering:optimizeQuality; fill-rule:evenodd; clip-rule:evenodd"
viewBox="0 0 15851 2257"
 xmlns:xlink="http://www.w3.org/1999/xlink">
 <defs>
  <style type="text/css">
   <![CDATA[
    .fil0 {fill:#EB7267}
   ]]>
  </style>
 </defs>
 <g id="Vrstva_x0020_1">
  <metadata id="CorelCorpID_0Corel-Layer"/>
  <path class="fil0" d="M669 1807l0 -1218 368 0 221 831 218 -831 369 0 0 1218 -228 0 0 -959 -242 959 -237 0 -241 -959 0 959 -228 0zm1371 -601c0,-124 18,-228 56,-313 28,-62 66,-118 113,-167 48,-49 100,-86 157,-109 76,-32 163,-48 263,-48 180,0 323,56 431,167 108,111 162,266 162,464 0,197 -54,351 -161,462 -107,111 -250,166 -429,166 -181,0 -325,-55 -432,-166 -107,-111 -160,-263 -160,-457zm253 -8c0,138 32,242 96,314 64,71 145,107 243,107 98,0 178,-35 241,-106 63,-71 94,-176 94,-318 0,-140 -31,-244 -92,-313 -61,-69 -143,-103 -244,-103 -102,0 -183,35 -245,104 -62,69 -93,174 -93,315zm1119 -608l449 0c101,0 178,8 232,23 71,21 133,58 183,112 51,54 90,119 117,197 26,78 40,174 40,288 0,100 -12,187 -37,259 -30,88 -74,160 -130,215 -43,42 -100,74 -173,97 -54,17 -127,26 -218,26l-463 0 0 -1218zm246 206l0 807 183 0c69,0 118,-4 149,-12 40,-10 73,-27 99,-50 26,-24 48,-63 64,-118 16,-54 25,-129 25,-223 0,-94 -9,-166 -25,-217 -17,-50 -40,-90 -70,-118 -30,-28 -68,-47 -114,-57 -34,-8 -102,-12 -202,-12l-110 0zm984 1012l0 -1218 903 0 0 206 -657 0 0 270 611 0 0 205 -611 0 0 332 680 0 0 205 -926 0zm1135 0l0 -1218 518 0c130,0 225,11 284,33 59,22 106,61 142,117 35,56 53,120 53,192 0,91 -27,167 -81,227 -54,59 -134,97 -241,112 53,31 97,65 132,102 35,37 81,103 140,198l149 238 -294 0 -178 -265c-63,-95 -106,-154 -130,-179 -23,-25 -48,-41 -74,-51 -26,-9 -67,-14 -124,-14l-50 0 0 508 -246 0zm246 -703l182 0c118,0 192,-5 221,-15 29,-10 52,-27 69,-52 16,-24 25,-55 25,-91 0,-41 -11,-74 -33,-99 -22,-25 -53,-41 -93,-48 -20,-3 -80,-4 -180,-4l-192 0 0 309zm984 703l0 -1218 239 0 499 813 0 -813 229 0 0 1218 -247 0 -491 -794 0 794 -229 0zm1219 0l0 -1218 246 0 0 1218 -246 0zm-28 -1288l115 -248 262 0 -229 248 -148 0zm1154 1288l-291 -1218 252 0 184 837 223 -837 292 0 214 851 187 -851 248 0 -296 1218 -261 0 -242 -911 -242 911 -267 0zm1433 0l0 -1218 903 0 0 206 -657 0 0 270 611 0 0 205 -611 0 0 332 680 0 0 205 -926 0zm1135 -1218l487 0c96,0 168,4 216,12 47,8 90,25 127,50 37,26 68,59 93,102 25,42 37,90 37,142 0,57 -15,109 -46,157 -31,48 -73,83 -125,107 74,22 131,58 171,110 40,52 60,113 60,184 0,55 -13,109 -39,162 -26,52 -61,94 -105,125 -45,31 -100,50 -165,58 -41,4 -140,7 -297,8l-415 0 0 -1218zm246 203l0 282 161 0c96,0 155,-1 179,-4 42,-5 75,-19 99,-43 24,-24 36,-56 36,-95 0,-38 -10,-68 -31,-92 -21,-24 -52,-38 -93,-43 -24,-3 -94,-4 -210,-4l-141 0zm0 484l0 326 227 0c89,0 145,-2 169,-7 37,-7 66,-23 89,-48 23,-26 35,-60 35,-104 0,-37 -9,-67 -27,-93 -18,-26 -43,-44 -77,-56 -33,-12 -106,-17 -218,-17l-199 0zm985 531l0 -1218 246 0 0 541 497 -541 331 0 -459 474 484 744 -318 0 -335 -572 -200 204 0 368 -246 0zm1545 0l0 -513 -446 -705 288 0 287 482 281 -482 283 0 -448 707 0 511 -245 0zm-13991 -1807l14437 0c389,0 707,318 707,707l0 843c0,389 -318,707 -707,707l-14437 0c-389,0 -707,-318 -707,-707l0 -843c0,-389 318,-707 707,-707z"/>
 </g>
</svg>
