<?xml version="1.0" encoding="UTF-8"?>
<!DOCTYPE svg PUBLIC "-//W3C//DTD SVG 1.1//EN" "http://www.w3.org/Graphics/SVG/1.1/DTD/svg11.dtd">
<!-- Creator: CorelDRAW X5 -->
<svg xmlns="http://www.w3.org/2000/svg" xml:space="preserve" width="69.5526mm" height="75.3289mm" style="shape-rendering:geometricPrecision; text-rendering:geometricPrecision; image-rendering:optimizeQuality; fill-rule:evenodd; clip-rule:evenodd"
viewBox="0 0 7330 7939"
 xmlns:xlink="http://www.w3.org/1999/xlink">
 <defs>
  <style type="text/css">
   <![CDATA[
    .fil13 {fill:#BEBEBE}
    .fil14 {fill:#F2AD88}
    .fil6 {fill:#F8BB97}
    .fil8 {fill:#389E4D}
    .fil1 {fill:#707375}
    .fil2 {fill:#CFCFCF}
    .fil11 {fill:#CFE3EB}
    .fil0 {fill:#E1DEDE}
    .fil7 {fill:#EB7366}
    .fil3 {fill:#FDF5F5}
    .fil12 {fill:white}
    .fil9 {fill:#F8BB97;fill-rule:nonzero}
    .fil10 {fill:#FFED00;fill-rule:nonzero}
    .fil4 {fill:#595963;fill-rule:nonzero}
    .fil5 {fill:#D4D4D4;fill-rule:nonzero}
   ]]>
  </style>
 </defs>
 <g id="Vrstva_x0020_1">
  <metadata id="CorelCorpID_0Corel-Layer"/>
  <path class="fil0" d="M6803 0c291,0 527,236 527,527 0,291 -236,527 -527,527 -291,0 -527,-236 -527,-527 0,-291 236,-527 527,-527z"/>
  <polygon class="fil1" points="6799,533 6809,516 6397,295 6387,312 "/>
  <polygon class="fil1" points="6813,522 6794,527 6857,797 6876,793 "/>
  <path class="fil1" d="M6803 474c29,0 53,24 53,53 0,29 -24,53 -53,53 -29,0 -53,-24 -53,-53 0,-29 24,-53 53,-53z"/>
  <polygon class="fil2" points="0,7604 4083,7604 4083,4797 0,4797 "/>
  <polygon class="fil3" points="208,7604 3877,7604 3877,4937 208,4937 "/>
  <polygon class="fil2" points="371,5818 3731,5818 3731,5077 371,5077 "/>
  <polygon class="fil2" points="371,6749 3731,6749 3731,6008 371,6008 "/>
  <path class="fil4" d="M34 3878l421 924 1023 -3 -445 -961c-4,-9 -13,-15 -23,-15l-942 0c-28,0 -47,29 -35,55l0 0z"/>
  <path class="fil5" d="M1480 4748l-433 -898c0,0 -16,-36 -54,-27 -12,3 457,926 457,926l30 0z"/>
  <path class="fil4" d="M2390 4744l-935 4 24 50 865 0c25,0 46,-21 46,-46l0 -8 0 0z"/>
  <path class="fil6" d="M5832 2648c80,139 161,277 204,366 43,88 48,126 46,158 -1,32 -9,58 -83,180 -73,122 -212,339 -298,477 -86,137 -119,194 -150,228 -32,34 -62,46 -105,63 -43,18 -99,41 -129,70 -29,29 -32,62 -15,92 17,29 55,55 106,70 51,16 116,22 173,1 57,-21 107,-69 196,-177 89,-108 218,-276 325,-415 108,-139 195,-248 259,-328 64,-80 105,-132 129,-176 24,-44 31,-81 25,-130 -6,-49 -27,-111 -57,-191 -31,-80 -71,-180 -108,-263 -36,-83 -68,-151 -101,-210 -33,-59 -66,-110 -106,-142 -40,-31 -86,-43 -125,-40 -40,3 -73,19 -102,83 -30,64 -56,174 -83,285z"/>
  <path class="fil6" d="M4066 7385c0,45 1,90 1,135 80,-1 161,-2 241,-3 0,-41 -1,-82 -1,-122 -80,-3 -161,-6 -241,-10z"/>
  <path class="fil6" d="M5532 7396c1,45 3,90 4,135 80,-3 161,-6 241,-8 -1,-41 -3,-81 -4,-122 -80,-1 -161,-3 -241,-4z"/>
  <path class="fil7" d="M4047 7490c99,1 197,2 296,3 0,28 1,57 4,90 3,33 10,72 15,103 5,31 8,54 9,76 1,22 1,44 -2,70 -3,25 -9,54 -15,83 -15,8 -29,15 -44,23 -139,0 -277,-1 -416,-1 -5,-21 -11,-42 -12,-67 -1,-25 1,-53 11,-77 10,-24 28,-42 51,-73 23,-31 52,-74 70,-114 18,-40 26,-78 33,-115z"/>
  <path class="fil7" d="M5777 7497c-86,0 -172,0 -258,0 -10,28 -20,57 -29,90 -8,33 -14,72 -25,102 -10,30 -25,52 -37,75 -12,23 -20,48 -23,76 -3,28 1,58 4,88 168,4 336,8 504,12 5,-21 10,-42 12,-67 1,-25 -1,-53 -11,-77 -10,-24 -26,-42 -48,-73 -22,-31 -49,-74 -65,-114 -16,-40 -21,-76 -25,-112z"/>
  <path class="fil8" d="M4363 7398c89,-448 178,-896 297,-1383 119,-486 269,-1011 418,-1535 86,461 172,922 218,1178 46,256 52,306 75,563 24,257 65,721 107,1185 111,-3 221,-6 332,-9 19,-517 37,-1034 60,-1576 23,-541 49,-1107 76,-1673 -90,-22 -180,-43 -329,-79 -149,-36 -358,-86 -524,-128 -166,-42 -291,-75 -415,-91 -124,-17 -248,-16 -373,-16 -40,603 -80,1207 -130,1801 -50,594 -108,1179 -167,1763 118,0 236,0 353,0z"/>
  <path class="fil9" d="M5080 1367c0,0 -68,257 -120,340 -18,230 351,447 494,90 0,0 -35,-256 28,-425 43,-115 130,-117 233,-391 72,-192 -16,-426 -302,-510 -188,-55 -347,46 -347,46 0,0 -73,44 -119,115 0,0 -30,46 -36,77 -6,31 -36,144 -50,165 -36,53 -66,63 -76,85 -9,20 23,56 56,65 -59,154 2,386 239,343z"/>
  <path class="fil10" d="M4836 627c0,0 31,56 154,70 126,14 217,92 218,156 0,45 -35,113 -33,147 9,7 25,15 38,21 27,15 64,-69 93,-47 37,25 98,59 70,114 -27,55 -45,257 -36,294 9,37 146,45 160,44 14,-1 118,-157 182,-217 64,-60 313,-432 142,-569 0,0 -4,-108 -105,-178 -100,-70 -281,-147 -432,-131 -151,16 -341,82 -408,46 0,0 -71,-74 -57,-23 14,51 52,132 94,156 0,0 -69,-56 -107,-94 -39,-38 -60,123 27,212z"/>
  <polygon class="fil11" points="4067,7619 4268,7619 4268,7596 4067,7596 "/>
  <polygon class="fil11" points="4040,7692 4276,7692 4276,7669 4040,7669 "/>
  <polygon class="fil11" points="5545,7630 5747,7630 5747,7608 5545,7608 "/>
  <polygon class="fil11" points="5527,7700 5764,7700 5764,7677 5527,7677 "/>
  <path class="fil12" d="M4247 3806c576,157 1153,314 1425,319 272,5 239,-143 198,-260 -41,-118 -91,-206 -157,-328 -66,-123 -148,-280 -201,-464 -53,-184 -76,-395 -71,-602 5,-208 37,-413 67,-567 30,-154 56,-258 48,-293 -9,-35 -53,-3 -97,23 -44,26 -88,45 -148,57 -60,11 -137,15 -191,0 -54,-15 -84,-50 -122,-30 -37,20 -81,95 -136,257 -55,162 -120,411 -178,642 -58,231 -110,443 -179,600 -69,157 -155,259 -241,360 -6,96 -11,192 -17,287z"/>
  <path class="fil7" d="M5022 1560c-20,286 -40,572 -71,815 -31,243 -73,445 -126,631 -54,187 -120,359 -195,507 -75,148 -160,271 -228,385 -67,113 -118,217 -169,304 -51,87 -103,157 -130,193 -28,36 -32,36 -57,6 -25,-30 -72,-91 -90,-160 -18,-68 -8,-143 18,-261 26,-118 68,-278 125,-427 57,-148 131,-285 189,-400 58,-116 101,-210 126,-292 25,-82 32,-151 39,-220 -32,55 -63,109 -95,164 -72,-65 -144,-129 -215,-166 -71,-37 -141,-45 -212,-54 78,-162 155,-325 218,-447 62,-123 110,-206 159,-265 49,-59 99,-93 218,-141 119,-48 307,-110 496,-172z"/>
  <path class="fil7" d="M5841 4721c52,-99 103,-198 140,-287 37,-88 58,-166 61,-255 3,-89 -13,-190 -42,-291 -29,-101 -70,-203 -111,-292 -41,-88 -81,-163 -107,-227 -26,-64 -37,-117 -45,-182 -7,-65 -10,-143 -7,-243 3,-100 12,-222 20,-344 47,118 95,236 142,353 36,1 72,3 117,-19 45,-22 100,-66 139,-104 39,-38 62,-70 103,-92 42,-22 102,-35 162,-48 -112,-238 -224,-477 -294,-608 -70,-131 -99,-154 -205,-221 -106,-68 -288,-180 -470,-292 -72,437 -144,873 -177,1146 -34,273 -29,382 73,689 102,307 302,811 501,1315z"/>
  <path class="fil13" d="M4851 1451c24,-66 -99,-15 50,-118 108,-75 198,-200 133,-288 -13,-17 16,-23 -15,-40 -21,-12 -50,-8 -63,-13 -35,-13 -47,-8 -97,66 -50,74 -38,62 -49,94 -11,32 -21,65 -26,101 -5,36 -5,74 -12,107 -7,34 -61,54 -54,117 12,99 55,182 133,-28z"/>
  <path class="fil14" d="M4031 2499c-31,50 -42,83 -44,126 -1,43 7,97 25,135 19,39 48,62 83,77 35,15 76,23 112,18 36,-4 67,-19 93,-37 26,-17 48,-37 61,-59 13,-22 17,-47 38,-101 21,-54 57,-136 88,-200 31,-64 56,-110 102,-209 46,-98 112,-249 163,-372 51,-122 87,-216 109,-272 22,-56 29,-74 43,-94 14,-20 33,-42 59,-65 26,-22 59,-46 80,-67 21,-22 31,-42 24,-54 -7,-13 -30,-18 -49,-14 -19,4 -33,18 -44,18 -12,-1 -21,-16 -17,-38 5,-22 24,-51 43,-78 19,-27 37,-52 42,-89 8,-64 -15,-55 -27,-82 -4,-10 13,-18 -2,-33 -10,-10 -35,-4 -41,-7 -9,-4 -13,-23 -22,-25 -21,-5 -28,11 -38,8 -36,-13 -47,-8 -97,66 -50,74 -38,62 -49,94 -11,32 -21,65 -26,101 -5,36 -5,74 -12,107 -7,33 -22,62 -54,117 -32,55 -82,135 -141,230 -59,95 -128,203 -190,308 -63,104 -120,204 -174,288 -54,84 -106,151 -137,201z"/>
  <path class="fil7" d="M5498 3856c116,-93 233,-185 298,-229 65,-44 79,-38 66,-72 -13,-35 -54,-109 -79,-173 -26,-64 -37,-117 -44,-182 -7,-65 -10,-143 -7,-243 3,-100 12,-222 20,-344 47,118 95,236 142,353 36,1 72,3 117,-19 45,-22 100,-66 139,-104 39,-38 62,-70 103,-92 42,-22 102,-35 162,-48 -112,-238 -224,-477 -294,-608 -70,-131 -99,-154 -205,-221 -106,-67 -288,-180 -470,-292 -72,437 -144,873 -177,1146 -34,273 -29,382 15,543 45,161 130,373 216,585z"/>
  <path class="fil6" d="M5638 4053c-15,-26 -76,-9 -120,9 -43,18 -161,16 -162,18 0,2 100,24 133,30 136,22 163,-31 148,-57z"/>
  <path class="fil8" d="M4363 7398c89,-448 148,-729 280,-1310 131,-581 3,-1861 -33,-1884 -37,-23 -66,221 -190,221 -40,603 -193,616 -242,1210 -50,594 -108,1179 -167,1763 118,0 236,0 353,0z"/>
  <circle class="fil12" cx="2051" cy="5447" r="114"/>
  <circle class="fil12" cx="2051" cy="6394" r="114"/>
 </g>
</svg>
