<svg width="155" height="88" viewBox="0 0 155 88" fill="none" xmlns="http://www.w3.org/2000/svg">
<path fill-rule="evenodd" clip-rule="evenodd" d="M13.5212 -3.8147e-06H141.459C148.895 -3.8147e-06 154.978 2.36575 154.978 5.21967V80.6984C154.978 83.5898 148.895 85.918 141.459 85.918H13.5212C6.08598 85.918 0.00262451 83.5523 0.00262451 80.6984V5.21967C0.00262451 2.32819 6.08598 -3.8147e-06 13.5212 -3.8147e-06Z" fill="#389E4D"/>
<path fill-rule="evenodd" clip-rule="evenodd" d="M0.00262451 63.9504H154.978V14.5325H0.00262451V63.9504Z" fill="#4D95B5"/>
<path fill-rule="evenodd" clip-rule="evenodd" d="M13.5212 21.4044H141.459C148.895 21.4044 154.978 23.2444 154.978 25.46V83.8903C154.978 86.1058 148.895 87.9458 141.459 87.9458H13.5212C6.08598 87.9458 0.00262451 86.1058 0.00262451 83.8903V25.46C0.00262451 23.2444 6.08598 21.4044 13.5212 21.4044Z" fill="#4D95B5"/>
<path fill-rule="evenodd" clip-rule="evenodd" d="M141.722 10.3642H149.458V4.01802H141.722V10.3642Z" fill="white"/>
<path fill-rule="evenodd" clip-rule="evenodd" d="M132.072 10.3642H139.807V4.01802H132.072V10.3642Z" fill="white"/>
<path fill-rule="evenodd" clip-rule="evenodd" d="M122.571 10.3642H130.344V4.01802H122.571V10.3642Z" fill="white"/>
<path fill-rule="evenodd" clip-rule="evenodd" d="M6.91213 17.6117H121.407C123.209 17.6117 124.674 19.0762 124.674 20.8787V56.1772C124.674 57.9797 123.209 59.4442 121.407 59.4442H6.91213C5.10965 59.4442 3.64514 57.9797 3.64514 56.1772V20.8787C3.64514 19.0762 5.10965 17.6117 6.91213 17.6117Z" fill="#CFE3EB"/>
<path fill-rule="evenodd" clip-rule="evenodd" d="M27.3402 19.0011C30.5321 19.0011 33.1231 21.9301 33.1231 25.5351C33.1231 29.14 30.5321 32.0691 27.3402 32.0691C24.1483 32.0691 21.5573 29.14 21.5573 25.5351C21.5573 21.9301 24.1483 19.0011 27.3402 19.0011Z" fill="#FFED00"/>
<path fill-rule="evenodd" clip-rule="evenodd" d="M7.43784 24.2208C7.21253 23.9955 7.13742 23.7702 7.13742 23.4697C7.13742 22.7938 7.8509 22.2681 8.78969 22.2681C9.61583 22.2681 10.3293 22.7187 10.442 23.3195C10.9677 23.1693 11.4934 23.0942 11.9816 23.0942C13.5212 23.0942 14.8731 23.7702 15.5865 24.7089C15.8869 24.4085 16.5253 24.1832 17.1261 24.1832C17.4266 24.1832 17.7645 24.2583 18.0649 24.3334C18.7033 23.5824 19.7172 23.0567 21.0691 23.0567C22.4209 23.0567 23.6601 23.6575 24.1858 24.5212H24.4863C25.5377 24.5212 26.3638 25.122 26.3638 25.7979C26.3638 26.4739 25.5377 27.0747 24.4863 27.0747C24.1858 27.0747 23.9605 26.9996 23.7728 26.9245C22.9466 27.6004 22.0079 27.9759 20.994 27.9759H20.8813C20.656 28.5017 20.0552 28.8772 19.229 28.8772C19.0037 28.8772 18.816 28.8772 18.5907 28.8021C18.0649 29.478 17.1261 29.8535 15.9996 29.8535C14.8731 29.8535 13.8216 29.4029 13.2959 28.6519C12.8828 28.8021 12.3571 28.8021 11.944 28.8021C10.5922 28.8021 9.46562 28.3514 8.75214 27.6004C8.52683 27.6755 8.22642 27.6755 7.92601 27.6755C6.57415 27.6755 5.4476 26.8494 5.4476 25.8355C5.4476 25.0845 6.27374 24.4085 7.40028 24.2583L7.43784 24.2208Z" fill="white"/>
<path fill-rule="evenodd" clip-rule="evenodd" d="M70.1866 24.8967C69.8486 24.5212 69.6984 24.1457 69.6984 23.6575C69.6984 22.531 70.8625 21.7048 72.4021 21.7048C73.754 21.7048 74.9181 22.4559 75.1058 23.4322C75.932 23.1693 76.7956 23.0567 77.6218 23.0567C80.1377 23.0567 82.3157 24.1832 83.5174 25.6477C84.0055 25.1596 85.0194 24.784 86.0333 24.784C86.5215 24.784 87.0472 24.8967 87.5354 25.0469C88.5493 23.8077 90.2391 22.944 92.4171 22.944C94.5951 22.944 96.6229 23.9204 97.449 25.3098H97.9372C99.627 25.3098 100.979 26.2861 100.979 27.4127C100.979 28.5392 99.627 29.5156 97.9372 29.5156C97.449 29.5156 97.1111 29.4029 96.7731 29.2527C95.4212 30.3792 93.9192 30.9801 92.2293 30.9801H92.0791C91.7412 31.8437 90.7273 32.4446 89.3754 32.4446C89.0375 32.4446 88.6995 32.4446 88.3615 32.3319C87.5354 33.4585 85.9958 34.0593 84.1558 34.0593C82.3157 34.0593 80.6259 33.3083 79.7998 32.0691C79.1238 32.3319 78.2977 32.2944 77.6218 32.2944C75.4438 32.2944 73.6038 31.5433 72.4021 30.3041C72.0641 30.4168 71.576 30.4168 71.0502 30.4168C68.8723 30.4168 67.0322 29.0649 67.0322 27.4502C67.0322 26.211 68.3841 25.122 70.2241 24.8592L70.1866 24.8967Z" fill="white"/>
<path fill-rule="evenodd" clip-rule="evenodd" d="M54.5275 43.8227L39.9575 59.4066L90.915 59.4817L80.1753 50.2816L77.2838 44.8366L75.1809 41.1565L64.4412 21.3293L61.2493 32.4446L56.2925 43.5598L54.5275 43.8227Z" fill="#4E565A"/>
<path fill-rule="evenodd" clip-rule="evenodd" d="M64.4411 21.0289L65.793 29.3653L68.0461 33.8715L71.5008 41.8325L60.2729 50.6571L60.5358 45.7754L64.8918 38.6781L63.5399 30.5294L64.4411 21.0289Z" fill="white"/>
<path fill-rule="evenodd" clip-rule="evenodd" d="M54.5275 43.4472L45.9282 52.6473L56.2925 49.831L54.5275 43.4472Z" fill="white"/>
<path fill-rule="evenodd" clip-rule="evenodd" d="M75.4062 41.0063L72.6274 45.5125L68.7971 53.4359L73.6789 48.404L80.1753 49.9436L75.4062 41.0063Z" fill="white"/>
<path fill-rule="evenodd" clip-rule="evenodd" d="M27.3402 19.0011C30.5321 19.0011 33.1231 21.9301 33.1231 25.5351C33.1231 29.14 30.5321 32.0691 27.3402 32.0691C24.1483 32.0691 21.5573 29.14 21.5573 25.5351C21.5573 21.9301 24.1483 19.0011 27.3402 19.0011Z" fill="#FFED00"/>
<path fill-rule="evenodd" clip-rule="evenodd" d="M7.43784 24.2208C7.21253 23.9955 7.13742 23.7702 7.13742 23.4697C7.13742 22.7938 7.8509 22.2681 8.78969 22.2681C9.61583 22.2681 10.3293 22.7187 10.442 23.3195C10.9677 23.1693 11.4934 23.0942 11.9816 23.0942C13.5212 23.0942 14.8731 23.7702 15.5865 24.7089C15.8869 24.4085 16.5253 24.1832 17.1261 24.1832C17.4266 24.1832 17.7645 24.2583 18.0649 24.3334C18.7033 23.5824 19.7172 23.0567 21.0691 23.0567C22.4209 23.0567 23.6601 23.6575 24.1858 24.5212H24.4863C25.5377 24.5212 26.3638 25.122 26.3638 25.7979C26.3638 26.4739 25.5377 27.0747 24.4863 27.0747C24.1858 27.0747 23.9605 26.9996 23.7728 26.9245C22.9466 27.6004 22.0079 27.9759 20.994 27.9759H20.8813C20.656 28.5017 20.0552 28.8772 19.229 28.8772C19.0037 28.8772 18.816 28.8772 18.5907 28.8021C18.0649 29.478 17.1261 29.8535 15.9996 29.8535C14.8731 29.8535 13.8216 29.4029 13.2959 28.6519C12.8828 28.8021 12.3571 28.8021 11.944 28.8021C10.5922 28.8021 9.46562 28.3514 8.75214 27.6004C8.52683 27.6755 8.22642 27.6755 7.92601 27.6755C6.57415 27.6755 5.4476 26.8494 5.4476 25.8355C5.4476 25.0845 6.27374 24.4085 7.40028 24.2583L7.43784 24.2208Z" fill="white"/>
<path fill-rule="evenodd" clip-rule="evenodd" d="M70.1866 24.8967C69.8486 24.5212 69.6984 24.1457 69.6984 23.6575C69.6984 22.531 70.8625 21.7048 72.4021 21.7048C73.754 21.7048 74.9181 22.4559 75.1058 23.4322C75.932 23.1693 76.7956 23.0567 77.6218 23.0567C80.1377 23.0567 82.3157 24.1832 83.5174 25.6477C84.0055 25.1596 85.0194 24.784 86.0333 24.784C86.5215 24.784 87.0472 24.8967 87.5354 25.0469C88.5493 23.8077 90.2391 22.944 92.4171 22.944C94.5951 22.944 96.6229 23.9204 97.449 25.3098H97.9372C99.627 25.3098 100.979 26.2861 100.979 27.4127C100.979 28.5392 99.627 29.5156 97.9372 29.5156C97.449 29.5156 97.1111 29.4029 96.7731 29.2527C95.4212 30.3792 93.9192 30.9801 92.2293 30.9801H92.0791C91.7412 31.8437 90.7273 32.4446 89.3754 32.4446C89.0375 32.4446 88.6995 32.4446 88.3615 32.3319C87.5354 33.4585 85.9958 34.0593 84.1558 34.0593C82.3157 34.0593 80.6259 33.3083 79.7998 32.0691C79.1238 32.3319 78.2977 32.2944 77.6218 32.2944C75.4438 32.2944 73.6038 31.5433 72.4021 30.3041C72.0641 30.4168 71.576 30.4168 71.0502 30.4168C68.8723 30.4168 67.0322 29.0649 67.0322 27.4502C67.0322 26.211 68.3841 25.122 70.2241 24.8592L70.1866 24.8967Z" fill="white"/>
<path fill-rule="evenodd" clip-rule="evenodd" d="M54.5275 43.8227L39.9575 59.4066L90.915 59.4817L80.1753 50.2816L77.2838 44.8366L75.1809 41.1565L64.4412 21.3293L61.2493 32.4446L56.2925 43.5598L54.5275 43.8227Z" fill="#4E565A"/>
<path fill-rule="evenodd" clip-rule="evenodd" d="M64.4411 21.0289L65.793 29.3653L68.0461 33.8715L71.5008 41.8325L60.2729 50.6571L60.5358 45.7754L64.8918 38.6781L63.5399 30.5294L64.4411 21.0289Z" fill="white"/>
<path fill-rule="evenodd" clip-rule="evenodd" d="M54.5275 43.4472L45.9282 52.6473L56.2925 49.831L54.5275 43.4472Z" fill="white"/>
<path fill-rule="evenodd" clip-rule="evenodd" d="M75.4062 41.0063L72.6274 45.5125L68.7971 53.4359L73.6789 48.404L80.1753 49.9436L75.4062 41.0063Z" fill="white"/>
<path fill-rule="evenodd" clip-rule="evenodd" d="M3.75778 70.6345H57.4941V63.0491H3.75778V70.6345Z" fill="#FFD9CF"/>
<path fill-rule="evenodd" clip-rule="evenodd" d="M3.49493 82.0502H85.8456V74.4272H3.49493V82.0502Z" fill="#C7E1CC"/>
</svg>
