<svg width="356" height="318" viewBox="0 0 356 318" fill="none" xmlns="http://www.w3.org/2000/svg">
<path fill-rule="evenodd" clip-rule="evenodd" d="M35.1851 255.76L122.565 66.8194L168.709 161.343L185.548 126.803L120.93 0L0 270.147L80.6415 269.807C85.4147 268.168 114.815 187.332 123.344 174.519L158.784 241.912L237.427 84.74C250.305 117.905 297.025 216.785 318.465 264.464C302.668 259.771 278.66 216.407 271.745 228.945C267.939 235.846 258.928 256.776 252.819 261.061C241.325 238.871 215.727 187.669 204.653 164.586L189.445 195.139L245.766 294.409C254.228 289.479 271.683 266.047 280.42 257.744C290.171 262.76 307.923 281.556 317.989 289.994C325.471 296.265 351.594 324.379 355.113 316.218C357.429 305.906 353.785 301.318 350.632 294.239L236.449 32.2235L154.915 210.63L122.224 148.1L76.3011 255.173L35.1851 255.76Z" fill="black"/>
</svg>
