<?xml version="1.0" encoding="UTF-8"?>
<!DOCTYPE svg PUBLIC "-//W3C//DTD SVG 1.1//EN" "http://www.w3.org/Graphics/SVG/1.1/DTD/svg11.dtd">
<!-- Creator: CorelDRAW X5 -->
<svg xmlns="http://www.w3.org/2000/svg" xml:space="preserve" width="264.507mm" height="208.155mm" style="shape-rendering:geometricPrecision; text-rendering:geometricPrecision; image-rendering:optimizeQuality; fill-rule:evenodd; clip-rule:evenodd"
viewBox="0 0 125211 98536"
 xmlns:xlink="http://www.w3.org/1999/xlink">
 <defs>
  <style type="text/css">
   <![CDATA[
    .str0 {stroke:#2B2A29;stroke-width:94.6753}
    .fil14 {fill:#F8BB97}
    .fil5 {fill:#4E565A}
    .fil2 {fill:#FFED00}
    .fil8 {fill:#737373}
    .fil1 {fill:#99B6C8}
    .fil0 {fill:#CFE3EB}
    .fil10 {fill:#FF8C81}
    .fil3 {fill:white}
    .fil7 {fill:black}
    .fil4 {fill:#D3D3D4}
    .fil6 {fill:#F2F2F2}
    .fil13 {fill:#1F1B20}
    .fil12 {fill:#FEFEFE}
    .fil15 {fill:#F8BB97;fill-rule:nonzero}
    .fil9 {fill:#4E565A;fill-rule:nonzero}
    .fil16 {fill:#FFED00;fill-rule:nonzero}
    .fil17 {fill:#737373;fill-rule:nonzero}
    .fil11 {fill:#99B6C8;fill-rule:nonzero}
   ]]>
  </style>
 </defs>
 <g id="Vrstva_x0020_1">
  <metadata id="CorelCorpID_0Corel-Layer"/>
  <g id="_588695808">
   <g>
    <rect class="fil0" transform="matrix(0.333754 -0.0195626 0.0277197 0.398984 28644.3 11127)" width="236968" height="60369" rx="1894" ry="1894"/>
    <polygon class="fil1" points="108953,24053 109279,28856 74899,32671 32616,34982 30209,33362 29817,27473 39587,28859 61349,25124 77326,27149 95296,23787 102233,25589 "/>
    <ellipse class="fil2" transform="matrix(0.359338 -0.0210622 0.0242359 0.413485 45145.1 14877.5)" rx="10521" ry="9143"/>
    <path class="fil3" d="M32113 14903c-143,-124 -218,-251 -229,-427 -23,-395 432,-730 1040,-766 541,-32 1029,204 1117,551 333,-108 668,-171 1006,-191 1014,-59 1916,284 2420,783 192,-188 590,-343 995,-367 203,-12 409,20 614,52 380,-463 1037,-809 1916,-861 879,-52 1711,252 2077,715l202 -12c676,-40 1238,280 1261,675 23,395 -497,778 -1173,817 -202,12 -340,-24 -478,-60 -517,427 -1113,682 -1788,721l-68 4c-117,315 -510,558 -1051,590 -135,8 -270,16 -408,-20 -315,415 -910,670 -1653,714 -743,44 -1435,-180 -1798,-599 -265,104 -603,123 -873,139 -879,52 -1637,-168 -2136,-579 -133,52 -335,64 -538,76 -879,52 -1650,-388 -1684,-958 -26,-439 492,-866 1230,-997z"/>
    <path class="fil3" d="M73144 12818c-233,-201 -355,-409 -372,-694 -38,-642 702,-1187 1692,-1245 879,-52 1674,331 1816,896 542,-175 1087,-278 1636,-311 1649,-97 3115,462 3934,1273 313,-305 959,-558 1618,-596 330,-19 664,33 998,85 617,-752 1687,-1316 3115,-1400 1430,-84 2782,410 3377,1163l329 -19c1099,-64 2012,455 2050,1098 38,642 -808,1265 -1908,1329 -329,19 -553,-39 -778,-98 -841,694 -1809,1109 -2908,1173l-110 6c-191,513 -829,908 -1708,960 -220,13 -439,26 -663,-33 -512,675 -1480,1089 -2689,1160 -1208,71 -2333,-293 -2924,-974 -431,168 -981,201 -1420,226 -1429,84 -2662,-273 -3473,-942 -216,84 -545,103 -875,123 -1429,84 -2683,-631 -2738,-1558 -42,-714 800,-1408 2000,-1621z"/>
    <path class="fil4" d="M109160 26907l120 1957c-30,728 -468,1714 -1848,1830l-75223 4409c-144,8 -1520,100 -1994,-1511l-182 -2699 7664 2054 13254 -3798 12941 2657 13497 -2305 16146 137 8724 -1654 6900 -1075z"/>
   </g>
   <g>
    <polygon class="fil5" points="63579,24214 54583,33791 87911,31843 80574,26928 78436,23860 76997,21839 69270,10806 67576,17365 64723,23976 "/>
    <polygon class="fil3" points="77146,22055 75478,24785 73256,29518 76274,26412 80687,27030 "/>
    <polygon class="fil3" points="69266,10994 70435,15571 72071,18096 74596,22578 74596,22578 67565,28123 67565,25282 70158,21000 68993,16343 "/>
    <polygon class="fil3" points="63451,24352 58133,30011 64820,27965 "/>
   </g>
  </g>
  <rect class="fil6" x="74659" y="45403" width="34083" height="29349" rx="2840" ry="2840"/>
  <rect class="fil6" x="30210" y="45164" width="34083" height="29349" rx="2840" ry="2840"/>
  <path class="fil7" d="M19181 0l102238 0c2086,0 3793,1533 3793,3407l0 71263 -109823 0 0 -71263c0,-1874 1707,-3407 3793,-3407zm-187 2452l102611 0 0 69766 -102611 0 0 -69766z"/>
  <rect class="fil5" x="117365" y="3672" width="2888" height="2367"/>
  <rect class="fil5" x="113757" y="3672" width="2888" height="2367"/>
  <rect class="fil5" x="110225" y="3672" width="2888" height="2367"/>
  <rect class="fil7" x="61674" y="74670" width="15230" height="15497"/>
  <path class="fil7" d="M46589 88163l45400 0c521,0 947,426 947,947l0 3061 -47293 0 0 -3061c0,-521 426,-947 947,-947z"/>
  <path class="fil8" d="M15388 74670l109823 0 0 1472c0,1041 -852,1894 -1894,1894l-106036 0c-1041,0 -1894,-852 -1894,-1894l0 -1472z"/>
  <path class="fil9" d="M89418 93526c247,2823 1100,524 1046,3076l-5680 82c-259,13 -133,-724 -215,-3112l4849 -46z"/>
  <path class="fil9" d="M105224 94158c523,2750 6177,1501 5140,3844 -328,743 -7733,552 -9477,363 0,0 -164,-1951 2,-4291l4335 84z"/>
  <rect class="fil10" x="39204" y="47069" width="16095" height="3787" rx="757" ry="757"/>
  <rect class="fil5" x="32262" y="53178" width="23964" height="935"/>
  <rect class="fil5" x="32262" y="55123" width="20958" height="935"/>
  <rect class="fil5" x="32262" y="57016" width="22995" height="935"/>
  <rect class="fil5" x="32262" y="58910" width="14479" height="935"/>
  <rect class="fil5" x="32262" y="60803" width="22461" height="935"/>
  <rect class="fil5" x="32262" y="62697" width="19422" height="935"/>
  <rect class="fil5" x="76883" y="53178" width="23964" height="935"/>
  <rect class="fil5" x="76883" y="55123" width="20958" height="935"/>
  <rect class="fil5" x="76883" y="57016" width="22995" height="935"/>
  <rect class="fil5" x="76883" y="58910" width="14479" height="935"/>
  <g id="_588687336">
   <g>
    <rect class="fil0" transform="matrix(0.333754 -0.0195626 0.0277197 0.398984 28644.3 11127)" width="236968" height="60369" rx="1894" ry="1894"/>
    <polygon class="fil1" points="108953,24053 109279,28856 74899,32671 32616,34982 30209,33362 29817,27473 39587,28859 61349,25124 77326,27149 95296,23787 102233,25589 "/>
    <ellipse class="fil2" transform="matrix(0.359338 -0.0210622 0.0242359 0.413485 45145.1 14877.5)" rx="10521" ry="9143"/>
    <path class="fil3" d="M32113 14903c-143,-124 -218,-251 -229,-427 -23,-395 432,-730 1040,-766 541,-32 1029,204 1117,551 333,-108 668,-171 1006,-191 1014,-59 1916,284 2420,783 192,-188 590,-343 995,-367 203,-12 409,20 614,52 380,-463 1037,-809 1916,-861 879,-52 1711,252 2077,715l202 -12c676,-40 1238,280 1261,675 23,395 -497,778 -1173,817 -202,12 -340,-24 -478,-60 -517,427 -1113,682 -1788,721l-68 4c-117,315 -510,558 -1051,590 -135,8 -270,16 -408,-20 -315,415 -910,670 -1653,714 -743,44 -1435,-180 -1798,-599 -265,104 -603,123 -873,139 -879,52 -1637,-168 -2136,-579 -133,52 -335,64 -538,76 -879,52 -1650,-388 -1684,-958 -26,-439 492,-866 1230,-997z"/>
    <path class="fil3" d="M73144 12818c-233,-201 -355,-409 -372,-694 -38,-642 702,-1187 1692,-1245 879,-52 1674,331 1816,896 542,-175 1087,-278 1636,-311 1649,-97 3115,462 3934,1273 313,-305 959,-558 1618,-596 330,-19 664,33 998,85 617,-752 1687,-1316 3115,-1400 1430,-84 2782,410 3377,1163l329 -19c1099,-64 2012,455 2050,1098 38,642 -808,1265 -1908,1329 -329,19 -553,-39 -778,-98 -841,694 -1809,1109 -2908,1173l-110 6c-191,513 -829,908 -1708,960 -220,13 -439,26 -663,-33 -512,675 -1480,1089 -2689,1160 -1208,71 -2333,-293 -2924,-974 -431,168 -981,201 -1420,226 -1429,84 -2662,-273 -3473,-942 -216,84 -545,103 -875,123 -1429,84 -2683,-631 -2738,-1558 -42,-714 800,-1408 2000,-1621z"/>
    <path class="fil4" d="M109160 26907l120 1957c-30,728 -468,1714 -1848,1830l-75223 4409c-144,8 -1520,100 -1994,-1511l-182 -2699 7664 2054 13254 -3798 12941 2657 13497 -2305 16146 137 8724 -1654 6900 -1075z"/>
   </g>
   <g>
    <polygon class="fil5" points="63579,24214 54583,33791 87911,31843 80574,26928 78436,23860 76997,21839 69270,10806 67576,17365 64723,23976 "/>
    <polygon class="fil3" points="77146,22055 75478,24785 73256,29518 76274,26412 80687,27030 "/>
    <polygon class="fil3" points="69266,10994 70435,15571 72071,18096 74596,22578 74596,22578 67565,28123 67565,25282 70158,21000 68993,16343 "/>
    <polygon class="fil3" points="63451,24352 58133,30011 64820,27965 "/>
   </g>
  </g>
  <rect class="fil5" x="76883" y="60803" width="22461" height="935"/>
  <rect class="fil5" x="76883" y="62697" width="19422" height="935"/>
  <rect class="fil10" x="83653" y="47069" width="16095" height="3787" rx="757" ry="757"/>
  <path class="fil11" d="M84377 69366c-26,-2751 346,-9349 533,-12059 93,-1341 12811,-1680 12811,-1680 0,0 568,2807 2246,10999 0,0 5441,26697 5582,28359l-4754 -223c-1047,-4977 -6827,-22926 -8693,-27670 0,0 -2415,26514 -2621,26782l-4897 647c0,0 -178,-22206 -206,-25153z"/>
  <rect class="fil12" x="869" y="51773" width="21900" height="39452"/>
  <path class="fil13" d="M2289 52343l19137 0c675,0 1227,552 1227,1227l0 36147c0,675 -552,1227 -1227,1227l-19137 0c-675,0 -1227,-552 -1227,-1227l0 -36147c0,-675 552,-1227 1227,-1227zm-817 -1276l20770 0c810,0 1472,663 1472,1472l0 38159c0,810 -663,1472 -1472,1472l-20770 0c-810,0 -1472,-663 -1472,-1472l0 -38159c0,-810 663,-1472 1472,-1472z"/>
  <rect class="fil6" x="1741" y="62014" width="20245" height="14119" rx="1366" ry="1366"/>
  <rect class="fil10" x="7647" y="63106" width="8432" height="1791" rx="358" ry="358"/>
  <rect class="fil5" x="3333" y="66041" width="15529" height="606"/>
  <rect class="fil5" x="3333" y="67302" width="13581" height="606"/>
  <rect class="fil5" x="3333" y="68529" width="14901" height="606"/>
  <rect class="fil5" x="3333" y="69756" width="9382" height="606"/>
  <rect class="fil5" x="3333" y="70983" width="14555" height="606"/>
  <rect class="fil5" x="3333" y="72210" width="12585" height="606"/>
  <rect class="fil0" x="1429" y="52699" width="20858" height="8775" rx="685" ry="685"/>
  <polygon class="fil1" points="22287,59059 22287,60754 13178,61468 2095,61450 1429,60669 1429,58575 3971,59287 9746,58412 13911,59491 18684,58667 20477,59469 "/>
  <ellipse class="fil2" transform="matrix(0.0947174 0.000211503 -0.000176944 0.149907 5652.26 54357.2)" rx="10521" ry="9143"/>
  <path class="fil3" d="M2229 54083c-36,-48 -53,-96 -53,-159 0,-143 125,-254 285,-254 143,0 267,96 285,223 89,-32 178,-47 267,-47 267,1 499,144 623,336 53,-64 160,-111 267,-111 53,0 107,16 160,32 107,-159 285,-270 517,-269 232,1 445,128 534,304l53 0c178,0 321,128 320,271 0,143 -143,270 -321,270 -53,0 -89,-16 -125,-32 -143,143 -303,222 -481,222l-18 0c-36,111 -143,191 -285,190 -36,0 -71,0 -107,-16 -89,143 -250,222 -446,222 -196,0 -374,-96 -463,-256 -71,32 -160,31 -232,31 -232,-1 -427,-96 -552,-256 -36,16 -89,16 -143,16 -232,-1 -427,-176 -427,-383 0,-159 143,-302 339,-333z"/>
  <path class="fil3" d="M13039 54223c-58,-78 -87,-155 -87,-259 0,-233 203,-414 464,-413 232,1 434,156 463,363 145,-51 290,-77 435,-77 435,1 811,235 1013,546 87,-103 261,-181 435,-180 87,0 174,26 261,52 174,-258 464,-439 840,-438 377,1 724,209 869,493l87 0c290,1 521,208 521,441 0,233 -232,439 -522,439 -87,0 -145,-26 -203,-52 -232,232 -493,361 -782,360l-29 0c-58,181 -232,310 -464,309 -58,0 -116,0 -174,-26 -145,233 -406,361 -725,361 -319,-1 -608,-156 -753,-416 -116,51 -261,51 -377,51 -377,-1 -695,-157 -897,-416 -58,26 -145,26 -232,25 -377,-1 -695,-286 -694,-623 0,-259 232,-491 551,-542z"/>
  <path class="fil4" d="M22287 60107l0 648c11,283 -109,716 -498,742l-19850 -44c-38,0 -453,-55 -510,-663l0 -977 1986 909 3546 -1083 3362 1242 3586 -539 4244 401 2321 -407 1813 -228z"/>
  <ellipse class="fil2" transform="matrix(0.0932998 0.000151471 -0.000174296 0.107358 5652.26 54357.2)" rx="10521" ry="9143"/>
  <path class="fil3" d="M2229 54083c-36,-48 -53,-96 -53,-159 0,-143 125,-254 285,-254 143,0 267,96 285,223 89,-32 178,-47 267,-47 267,1 499,144 623,336 53,-64 160,-111 267,-111 53,0 107,16 160,32 107,-159 285,-270 517,-269 232,1 445,128 534,304l53 0c178,0 321,128 320,271 0,143 -143,270 -321,270 -53,0 -89,-16 -125,-32 -143,143 -303,222 -481,222l-18 0c-36,111 -143,191 -285,190 -36,0 -71,0 -107,-16 -89,143 -250,222 -446,222 -196,0 -374,-96 -463,-256 -71,32 -160,31 -232,31 -232,-1 -427,-96 -552,-256 -36,16 -89,16 -143,16 -232,-1 -427,-176 -427,-383 0,-159 143,-302 339,-333z"/>
  <path class="fil3" d="M13039 54223c-58,-78 -87,-155 -87,-259 0,-233 203,-414 464,-413 232,1 434,156 463,363 145,-51 290,-77 435,-77 435,1 811,235 1013,546 87,-103 261,-181 435,-180 87,0 174,26 261,52 174,-258 464,-439 840,-438 377,1 724,209 869,493l87 0c290,1 521,208 521,441 0,233 -232,439 -522,439 -87,0 -145,-26 -203,-52 -232,232 -493,361 -782,360l-29 0c-58,181 -232,310 -464,309 -58,0 -116,0 -174,-26 -145,233 -406,361 -725,361 -319,-1 -608,-156 -753,-416 -116,51 -261,51 -377,51 -377,-1 -695,-157 -897,-416 -58,26 -145,26 -232,25 -377,-1 -695,-286 -694,-623 0,-259 232,-491 551,-542z"/>
  <polygon class="fil5" points="9597,58536 6563,61464 17164,61484 14932,59747 14327,58722 13895,58028 11657,54300 10995,56394 9964,58481 "/>
  <polygon class="fil3" points="11657,54300 11940,55807 12411,56657 13125,58159 13125,58159 10791,59820 10845,58899 11749,57561 11468,56029 "/>
  <polygon class="fil3" points="9599,58462 7805,60193 9963,59660 "/>
  <polygon class="fil3" points="13939,58003 13361,58851 12566,60342 13582,59394 14934,59688 "/>
  <polygon class="fil3" points="9599,58462 7805,60193 9963,59660 "/>
  <polygon class="fil3" points="13939,58003 13361,58851 12566,60342 13582,59394 14934,59688 "/>
  <circle class="fil13 str0" cx="11858" cy="53501" r="491"/>
  <rect class="fil6" x="1741" y="76509" width="20245" height="14119" rx="1366" ry="1366"/>
  <rect class="fil10" x="7647" y="77601" width="8432" height="1791" rx="358" ry="358"/>
  <rect class="fil5" x="3490" y="80799" width="15529" height="606"/>
  <rect class="fil5" x="3490" y="82060" width="13581" height="606"/>
  <rect class="fil5" x="3490" y="83287" width="14901" height="606"/>
  <rect class="fil5" x="3490" y="84514" width="9382" height="606"/>
  <rect class="fil5" x="3490" y="85741" width="14555" height="606"/>
  <rect class="fil5" x="3490" y="86967" width="12585" height="606"/>
  <path class="fil14" d="M74447 43489c1368,152 4013,411 5310,424 1297,13 1246,-219 1306,-513 60,-294 231,-649 304,-1212 72,-563 46,-1333 -38,-1846 -85,-513 -227,-770 -1287,-809 -1060,-39 -3037,138 -4124,204 -1087,66 -1285,20 -2473,-1030 -1188,-1050 -3367,-3104 -4519,-4164 -1152,-1060 -1277,-1126 -1333,-1514 -56,-388 -43,-1099 -92,-1478 -49,-379 -161,-425 -260,-441 -99,-16 -184,-3 -237,349 -53,352 -72,1043 -114,1377 -42,333 -105,309 -789,329 -684,20 -1989,84 -2740,141 -751,58 -947,109 -841,176 106,68 515,152 737,226 222,74 259,139 1834,1727 1575,1588 4690,4700 6293,6278 1603,1579 1695,1625 3064,1777z"/>
  <path class="fil15" d="M91204 34720c0,0 24,931 516,1958 0,0 -3616,1006 -4865,614 0,0 -32,-1115 -569,-3148 -368,-1392 -1312,-1535 -2191,-4837 -617,-2314 547,-4883 3718,-5434 2090,-363 3723,1029 3723,1029 0,0 754,615 1188,1494 0,0 286,572 328,942 610,1947 1984,6716 -1848,7381z"/>
  <path class="fil16" d="M93622 26295c0,0 -365,561 -1616,542 -1295,-20 -2282,695 -2336,1381 -53,686 550,1327 72,1499 -478,171 -775,-548 -1166,-331 -391,217 -1038,503 -808,1131 229,628 250,2829 125,3220 -125,391 -1522,288 -1660,256 -138,-32 -1071,-1853 -1667,-2584 -596,-731 -2823,-5087 -976,-6328 0,0 134,-1162 1207,-1779 1073,-617 2974,-1202 4492,-826 1518,377 3291,1165 4000,870 645,-100 1505,1925 333,2949z"/>
  <path class="fil17" d="M91853 36516c0,0 2633,1001 6342,129 388,148 4891,3817 263,5039 -6537,1726 2195,15012 -1380,14460 -602,626 -10618,1937 -11992,1419 0,0 -664,-98 -704,-906 -40,-808 249,-5241 -247,-7532 -1170,-4327 -1240,-3515 -3430,-4761 -937,-533 -1199,-3503 -1017,-4705 283,-871 3649,-982 7020,-2830 1781,523 5145,-312 5145,-312z"/>
  <path class="fil14" d="M104744 37993c-1182,1163 -3086,1868 -4071,2332 -985,464 -1315,355 -1740,175 -424,-180 -590,-732 -801,-1343 -211,-611 -466,-1281 -456,-1719 10,-438 287,-646 1067,-991 780,-345 2064,-829 2807,-1246 742,-418 942,-770 1747,-2095 804,-1326 2213,-3625 2938,-4975 725,-1350 766,-1750 746,-2040 -21,-290 -104,-469 -183,-639 -79,-169 -155,-328 -183,-518 -28,-190 -7,-411 117,-521 124,-110 352,-110 528,41 176,152 300,456 404,708 104,252 186,452 425,217 238,-235 859,-843 860,-1298l1 -549c0,-116 188,-89 267,4 110,130 133,1212 63,1390 -83,211 -41,280 86,411 128,131 342,324 449,739 107,414 107,1049 48,1543 -59,494 -176,846 -1039,2551 -863,1705 -2898,6659 -4081,7823z"/>
 </g>
</svg>
