<svg width="801" height="511" viewBox="0 0 801 511" fill="none" xmlns="http://www.w3.org/2000/svg">
<path fill-rule="evenodd" clip-rule="evenodd" d="M417.298 147.855C417.298 147.855 416.957 153.978 419.679 154.998C422.4 156.019 433.323 152.277 434.683 150.236C436.044 148.195 434.003 142.073 434.003 142.073L416.957 147.515L417.298 147.855Z" fill="#F8F8F7"/>
<path fill-rule="evenodd" clip-rule="evenodd" d="M429.543 182.967C431.244 186.028 453.052 189.09 460.233 185.008C460.233 185.008 462.954 197.972 458.872 213.997C458.872 213.997 514.431 216.718 531.137 207.194C531.137 207.194 528.076 191.509 529.436 161.499C530.457 141.052 543.42 135.95 545.802 87.5339C547.502 53.4426 522.293 21.3922 474.898 23.7733C443.528 25.1339 424.441 49.7009 424.441 49.7009C424.441 49.7009 415.559 60.6237 411.817 74.23C411.817 74.23 409.436 83.1119 410.117 88.2143C409.776 124.347 401.953 127.068 402.293 129.789C403.654 139.691 413.216 136.592 415.597 142.413C420.019 154.016 424.139 172.422 429.921 182.967H429.581H429.543Z" fill="#F8BB97"/>
<path fill-rule="evenodd" clip-rule="evenodd" d="M400.932 73.5496C400.932 73.5496 408.076 80.3528 426.142 75.9307C444.888 71.5087 461.254 78.3118 464.315 87.874C467.376 97.0961 460.573 107.981 468.057 109.002C475.54 110.022 477.619 99.0992 483.742 100.838C490.205 102.539 500.447 104.58 499.087 114.142C497.726 123.704 504.529 154.356 507.591 159.156C510.652 164.258 530.419 158.476 532.46 157.455C534.501 156.435 542.022 128.466 548.485 116.22C554.608 104.277 573.014 36.7748 542.702 25.2094C542.702 25.2094 536.92 9.52441 519.534 4.42205C502.148 -0.680315 472.819 -3.06142 452.032 6.80315C431.244 16.7055 408.038 33.411 396.813 31.3323C396.813 31.3323 387.25 32.0126 391.71 38.8157C396.132 45.6189 400.214 50.7591 407.395 52.1197C407.395 52.1197 395.112 47.3575 387.628 43.578C380.485 39.8362 384.567 64.7055 401.272 73.2472L400.932 73.5874V73.5496Z" fill="#FFED00"/>
<path fill-rule="evenodd" clip-rule="evenodd" d="M388.535 493.909C415.03 491.187 399.534 353.424 399.534 353.424C399.534 353.424 388.535 441.411 301.531 476.409C283.427 476.409 290.494 441.373 290.494 441.373C290.494 441.373 319.483 423.307 335.509 398.06C351.534 372.85 341.972 359.546 348.472 310.11C355.956 252.17 401.991 212.598 457.89 199.672C481.398 206.135 503.584 209.915 536.315 201.373C536.315 201.373 562.923 202.394 584.391 216.378C641.65 258.293 645.43 348.321 645.43 454.677C642.028 490.129 555.061 489.109 541.115 488.428L388.611 493.946L388.535 493.909ZM576.151 428.75C574.45 430.11 571.049 428.409 571.049 428.409C566.287 410.343 570.709 328.857 572.75 300.586C581.631 349.001 580.573 407.962 576.491 428.75H576.151Z" fill="#FF6F61"/>
<path fill-rule="evenodd" clip-rule="evenodd" d="M448.97 439.332C448.97 439.332 397.153 442.394 384.529 443.414C372.246 444.435 326.929 476.485 326.589 476.485C326.589 476.825 390.69 477.846 399.534 475.805C408.076 473.424 417.6 477.506 430.224 480.227C442.847 482.948 455.433 480.227 455.433 480.227V439.672H449.31L448.97 439.332Z" fill="#FFBD9C"/>
<path fill-rule="evenodd" clip-rule="evenodd" d="M258.406 459.477C258.406 461.178 266.91 476.523 266.91 476.523H316.989L328.176 462.728L291.137 442.091C291.137 442.091 255.005 451.994 258.406 459.477Z" fill="#FFBD9C"/>
<path fill-rule="evenodd" clip-rule="evenodd" d="M39.5716 338.797L106.054 485.027L267.968 484.687L197.745 332.636C197.065 331.276 195.704 330.255 194.003 330.255H45.0142C40.5921 330.255 37.5307 335.017 39.5716 338.797Z" fill="#5A5A63"/>
<path fill-rule="evenodd" clip-rule="evenodd" d="M271.37 484.346L264.227 471.723L199.786 334.337C199.786 334.337 197.405 328.554 191.244 329.915C189.543 330.255 264.189 484.006 264.189 484.006H271.332V484.346H271.37Z" fill="#D3D3D3"/>
<path fill-rule="evenodd" clip-rule="evenodd" d="M412.157 475.805L264.189 476.485L267.931 484.309H404.636C408.718 484.309 411.78 480.907 411.78 477.165V475.805H412.12H412.157Z" fill="#D3D3D3"/>
<path fill-rule="evenodd" clip-rule="evenodd" d="M161.272 419.565H138.747L134.324 409.701H156.85L161.272 419.565Z" fill="#FEFEFE"/>
<path fill-rule="evenodd" clip-rule="evenodd" d="M0 510.236H800.466V484.346H0V510.236Z" fill="#737373"/>
</svg>
