<svg width="623" height="291" viewBox="0 0 623 291" fill="none" xmlns="http://www.w3.org/2000/svg">
<rect x="27" y="126" width="212" height="134" fill="white"/>
<path d="M44.9503 196.5H123.284C127.45 196.5 130.617 199.152 130.617 202.194V253.806C130.617 256.848 127.45 259.5 123.284 259.5H44.9503C40.7843 259.5 37.6169 256.848 37.6169 253.806V202.194C37.6169 199.152 40.7843 196.5 44.9503 196.5Z" fill="#F5F5F5" stroke="#F2F2F2"/>
<path d="M223.557 134.587H44.722C42.4957 134.587 40.6909 136.515 40.6909 138.893V185.417C40.6909 187.795 42.4957 189.723 44.722 189.723H223.557C225.784 189.723 227.589 187.795 227.589 185.417V138.893C227.589 136.515 225.784 134.587 223.557 134.587Z" fill="#CFE3EB"/>
<path d="M221.738 195.972H146.953C143.751 195.972 141.155 198.744 141.155 202.165V253.721C141.155 257.142 143.751 259.914 146.953 259.914H221.738C224.94 259.914 227.536 257.142 227.536 253.721V202.165C227.536 198.744 224.94 195.972 221.738 195.972Z" fill="#F5F5F5"/>
<path fill-rule="evenodd" clip-rule="evenodd" d="M0.0130881 265.548H267.01C267.01 269.309 264.13 272.398 260.597 272.398H6.41315C2.89246 272.398 0 269.323 0 265.548H0.0130881Z" fill="#737373"/>
<path fill-rule="evenodd" clip-rule="evenodd" d="M227.589 174.541V185.193L145.971 189.681L46.6591 189.569L40.6909 184.662V171.507L63.4772 175.981L115.227 170.473L152.542 177.253L195.313 172.081L211.386 177.127L227.589 174.541Z" fill="#99B6C8"/>
<path d="M78.528 153.613C83.4605 153.621 87.4656 149.772 87.4736 145.017C87.4816 140.263 83.4895 136.402 78.557 136.394C73.6245 136.386 69.6195 140.235 69.6115 144.99C69.6035 149.744 73.5956 153.605 78.528 153.613Z" fill="#FFED00"/>
<path fill-rule="evenodd" clip-rule="evenodd" d="M47.863 143.283C47.5489 142.989 47.3788 142.681 47.3788 142.276C47.3788 141.381 48.5043 140.682 49.9309 140.682C51.2136 140.682 52.326 141.283 52.4831 142.08C53.2815 141.885 54.0798 141.787 54.8782 141.787C57.2733 141.787 59.3413 142.695 60.4668 143.898C60.9511 143.492 61.9065 143.199 62.8619 143.199C63.3462 143.199 63.8174 143.297 64.3016 143.394C65.2571 142.402 66.8538 141.703 68.9348 141.703C71.0158 141.703 72.9267 142.514 73.725 143.604H74.2093C75.806 143.604 77.0887 144.415 77.0756 145.31C77.0756 146.204 75.793 147.001 74.1962 147.001C73.712 147.001 73.3978 146.903 73.0837 146.805C71.8011 147.7 70.3745 148.203 68.7778 148.203H68.6207C68.2935 148.902 67.3381 149.406 66.0685 149.406C65.7544 149.406 65.4272 149.406 65.1131 149.308C64.3147 150.202 62.875 150.706 61.1212 150.706C59.3674 150.706 57.7707 150.105 56.9723 149.098C56.331 149.294 55.5326 149.294 54.8913 149.294C52.8103 149.294 51.0565 148.693 49.944 147.686C49.6299 147.784 49.1456 147.784 48.6614 147.784C46.5804 147.784 44.8266 146.68 44.8397 145.38C44.8397 144.373 46.1223 143.478 47.8761 143.283H47.863Z" fill="white"/>
<path fill-rule="evenodd" clip-rule="evenodd" d="M144.728 144.163C144.204 143.674 143.955 143.185 143.955 142.542C143.955 141.074 145.775 139.942 148.117 139.942C150.198 139.942 152.005 140.92 152.266 142.22C153.562 141.899 154.858 141.731 156.167 141.745C160.067 141.745 163.431 143.227 165.25 145.17C166.035 144.527 167.593 144.038 169.15 144.038C169.935 144.038 170.707 144.205 171.493 144.373C173.05 142.752 175.655 141.619 179.018 141.619C182.395 141.619 185.51 142.933 186.806 144.723H187.578C190.169 144.723 192.25 146.037 192.25 147.491C192.25 148.958 190.169 150.245 187.578 150.245C186.806 150.245 186.282 150.077 185.759 149.923C183.678 151.377 181.348 152.188 178.744 152.188H178.482C177.958 153.32 176.401 154.131 174.32 154.131C173.796 154.131 173.286 154.131 172.762 153.963C171.467 155.431 169.124 156.228 166.271 156.228C163.417 156.228 160.826 155.249 159.53 153.614C158.496 153.935 157.187 153.935 156.154 153.935C152.777 153.935 149.924 152.957 148.117 151.321C147.594 151.489 146.822 151.475 146.036 151.475C142.66 151.475 139.807 149.671 139.82 147.561C139.82 145.939 141.901 144.471 144.754 144.15L144.728 144.163Z" fill="white"/>
<path fill-rule="evenodd" clip-rule="evenodd" d="M120.567 169.145L98.0427 189.653L176.754 189.793L160.185 177.63L155.696 170.445L152.489 165.58L135.867 139.494L130.946 154.145L123.29 168.753L120.567 169.145Z" fill="#4E565A"/>
<path fill-rule="evenodd" clip-rule="evenodd" d="M135.867 139.075L137.961 150.035L141.456 155.99L146.769 166.503L129.428 178.134L129.833 171.689L136.548 162.323L134.467 151.586L135.867 139.075Z" fill="white"/>
<path fill-rule="evenodd" clip-rule="evenodd" d="M120.58 168.628L107.257 180.748L123.289 177.015L120.58 168.628Z" fill="white"/>
<path fill-rule="evenodd" clip-rule="evenodd" d="M152.803 165.412L148.51 171.354L142.621 181.796L150.159 175.156L160.198 177.211L152.803 165.412Z" fill="white"/>
<path fill-rule="evenodd" clip-rule="evenodd" d="M227.589 181.125V185.193C227.68 186.969 226.607 189.695 223.125 189.849L45.2587 189.569C44.9184 189.569 41.2014 189.219 40.6909 185.403V179.266L58.4907 184.97L90.2685 178.162L120.384 185.962L152.515 182.579L190.549 185.095L211.346 182.537L227.589 181.111V181.125Z" fill="#41A14C"/>
<path d="M78.528 153.613C83.4605 153.621 87.4656 149.772 87.4736 145.017C87.4816 140.263 83.4895 136.402 78.557 136.394C73.6245 136.386 69.6195 140.235 69.6115 144.99C69.6035 149.744 73.5956 153.605 78.528 153.613Z" fill="#FFED00"/>
<path fill-rule="evenodd" clip-rule="evenodd" d="M47.863 143.283C47.5489 142.989 47.3788 142.681 47.3788 142.276C47.3788 141.381 48.5043 140.682 49.9309 140.682C51.2136 140.682 52.326 141.283 52.4831 142.08C53.2815 141.885 54.0798 141.787 54.8782 141.787C57.2733 141.787 59.3413 142.695 60.4668 143.898C60.9511 143.492 61.9065 143.199 62.8619 143.199C63.3462 143.199 63.8174 143.297 64.3016 143.394C65.2571 142.402 66.8538 141.703 68.9348 141.703C71.0158 141.703 72.9267 142.514 73.725 143.604H74.2093C75.806 143.604 77.0887 144.415 77.0756 145.31C77.0756 146.204 75.793 147.001 74.1962 147.001C73.712 147.001 73.3978 146.903 73.0837 146.805C71.8011 147.7 70.3745 148.203 68.7778 148.203H68.6207C68.2935 148.902 67.3381 149.406 66.0685 149.406C65.7544 149.406 65.4272 149.406 65.1131 149.308C64.3147 150.202 62.875 150.706 61.1212 150.706C59.3674 150.706 57.7707 150.105 56.9723 149.098C56.331 149.294 55.5326 149.294 54.8913 149.294C52.8103 149.294 51.0565 148.693 49.944 147.686C49.6299 147.784 49.1456 147.784 48.6614 147.784C46.5804 147.784 44.8266 146.68 44.8397 145.38C44.8397 144.373 46.1223 143.478 47.8761 143.283H47.863Z" fill="white"/>
<path fill-rule="evenodd" clip-rule="evenodd" d="M144.728 144.163C144.204 143.674 143.955 143.185 143.955 142.542C143.955 141.074 145.775 139.942 148.117 139.942C150.198 139.942 152.005 140.92 152.266 142.22C153.562 141.899 154.858 141.731 156.167 141.745C160.067 141.745 163.431 143.227 165.25 145.17C166.035 144.527 167.593 144.038 169.15 144.038C169.935 144.038 170.707 144.205 171.493 144.373C173.05 142.752 175.655 141.619 179.018 141.619C182.395 141.619 185.51 142.933 186.806 144.723H187.578C190.169 144.723 192.25 146.037 192.25 147.491C192.25 148.958 190.169 150.245 187.578 150.245C186.806 150.245 186.282 150.077 185.759 149.923C183.678 151.377 181.348 152.188 178.744 152.188H178.482C177.958 153.32 176.401 154.131 174.32 154.131C173.796 154.131 173.286 154.131 172.762 153.963C171.467 155.431 169.124 156.228 166.271 156.228C163.417 156.228 160.826 155.249 159.53 153.614C158.496 153.935 157.187 153.935 156.154 153.935C152.777 153.935 149.924 152.957 148.117 151.321C147.594 151.489 146.822 151.475 146.036 151.475C142.66 151.475 139.807 149.671 139.82 147.561C139.82 145.939 141.901 144.471 144.754 144.15L144.728 144.163Z" fill="white"/>
<path fill-rule="evenodd" clip-rule="evenodd" d="M120.567 169.145L98.0427 189.653L176.754 189.793L160.185 177.63L155.696 170.445L152.489 165.58L135.867 139.494L130.946 154.145L123.29 168.753L120.567 169.145Z" fill="#4E565A"/>
<path fill-rule="evenodd" clip-rule="evenodd" d="M135.867 139.075L137.961 150.035L141.456 155.99L146.769 166.503L129.428 178.134L129.833 171.689L136.548 162.323L134.467 151.586L135.867 139.075Z" fill="white"/>
<path fill-rule="evenodd" clip-rule="evenodd" d="M120.58 168.628L107.257 180.748L123.289 177.015L120.58 168.628Z" fill="white"/>
<path fill-rule="evenodd" clip-rule="evenodd" d="M152.803 165.412L148.51 171.354L142.621 181.796L150.159 175.156L160.198 177.211L152.803 165.412Z" fill="white"/>
<path fill-rule="evenodd" clip-rule="evenodd" d="M28.9507 252.952H238.321V129.191H28.9507V252.952ZM33.0996 119H233.923C239.158 119 243.451 123.585 243.451 129.177V266.233H23.5715V129.177C23.5715 123.585 27.8644 119 33.0996 119Z" fill="#505050"/>
<path d="M155.12 257.566H111.903V262.305H155.12V257.566Z" fill="#737373"/>
<path d="M206.281 214.341H148.654V217.109H206.281V214.341Z" fill="#4E565A"/>
<path d="M210.705 220.073H148.654V222.84H210.705V220.073Z" fill="#4E565A"/>
<path d="M195.195 225.664H148.654V228.432H195.195V225.664Z" fill="#4E565A"/>
<path d="M188.69 231.256H148.654V234.024H188.69V231.256Z" fill="#4E565A"/>
<path d="M192.421 236.848H148.654V239.616H192.421V236.848Z" fill="#4E565A"/>
<path d="M179.686 242.44H148.654V245.208H179.686V242.44Z" fill="#4E565A"/>
<path d="M288.43 164.774C289.952 164.778 291.188 162.969 291.19 160.734C291.193 158.499 289.961 156.685 288.439 156.681C286.917 156.678 285.681 158.486 285.679 160.721C285.676 162.956 286.908 164.771 288.43 164.774Z" fill="#FFED00"/>
<path fill-rule="evenodd" clip-rule="evenodd" d="M278.972 159.918C278.867 159.778 278.828 159.639 278.828 159.443C278.828 159.023 279.168 158.688 279.613 158.688C280.006 158.688 280.346 158.968 280.399 159.345C280.647 159.247 280.896 159.205 281.132 159.205C281.864 159.205 282.506 159.639 282.859 160.198C283.003 160.016 283.304 159.876 283.592 159.876C283.736 159.876 283.893 159.918 284.037 159.974C284.338 159.499 284.822 159.177 285.464 159.177C286.105 159.177 286.694 159.555 286.943 160.072H287.087C287.584 160.072 287.977 160.449 287.977 160.869C287.977 161.288 287.584 161.666 287.087 161.666C286.943 161.666 286.838 161.624 286.746 161.568C286.354 161.987 285.909 162.225 285.411 162.225H285.359C285.254 162.56 284.966 162.784 284.574 162.784C284.469 162.784 284.377 162.784 284.273 162.742C284.024 163.161 283.579 163.399 283.042 163.399C282.506 163.399 282.008 163.12 281.76 162.644C281.563 162.742 281.315 162.742 281.118 162.742C280.477 162.742 279.941 162.462 279.587 161.987C279.482 162.029 279.338 162.029 279.195 162.029C278.553 162.029 278.017 161.512 278.017 160.897C278.017 160.421 278.409 160.002 278.959 159.918H278.972Z" fill="white"/>
<path d="M288.43 163.626C289.93 163.628 291.147 162.333 291.149 160.732C291.152 159.132 289.938 157.832 288.439 157.83C286.94 157.827 285.723 159.122 285.72 160.723C285.718 162.324 286.931 163.623 288.43 163.626Z" fill="#FFED00"/>
<path fill-rule="evenodd" clip-rule="evenodd" d="M278.972 159.918C278.867 159.778 278.828 159.639 278.828 159.443C278.828 159.023 279.168 158.688 279.613 158.688C280.006 158.688 280.346 158.968 280.399 159.345C280.647 159.247 280.896 159.205 281.132 159.205C281.864 159.205 282.506 159.639 282.859 160.198C283.003 160.016 283.304 159.876 283.592 159.876C283.736 159.876 283.893 159.918 284.037 159.974C284.338 159.499 284.822 159.177 285.464 159.177C286.105 159.177 286.694 159.555 286.943 160.072H287.087C287.584 160.072 287.977 160.449 287.977 160.869C287.977 161.288 287.584 161.666 287.087 161.666C286.943 161.666 286.838 161.624 286.746 161.568C286.354 161.987 285.909 162.225 285.411 162.225H285.359C285.254 162.56 284.966 162.784 284.574 162.784C284.469 162.784 284.377 162.784 284.273 162.742C284.024 163.161 283.579 163.399 283.042 163.399C282.506 163.399 282.008 163.12 281.76 162.644C281.563 162.742 281.315 162.742 281.118 162.742C280.477 162.742 279.941 162.462 279.587 161.987C279.482 162.029 279.338 162.029 279.195 162.029C278.553 162.029 278.017 161.512 278.017 160.897C278.017 160.421 278.409 160.002 278.959 159.918H278.972Z" fill="white"/>
<rect x="328.192" y="7.7666" width="290" height="212" fill="white"/>
<path d="M568.806 134.078H490.278C485.941 134.078 482.425 137.834 482.425 142.466V212.364C482.425 216.997 485.941 220.752 490.278 220.752H568.806C573.143 220.752 576.659 216.997 576.659 212.364V142.466C576.659 137.834 573.143 134.078 568.806 134.078Z" fill="#F5F5F5"/>
<path d="M368.045 131.267H446.574C450.604 131.267 453.926 134.767 453.926 139.154V209.052C453.926 213.44 450.604 216.94 446.574 216.94H368.045C364.015 216.94 360.692 213.44 360.692 209.052V139.154C360.692 134.767 364.015 131.267 368.045 131.267Z" fill="#F5F5F5" stroke="#F2F2F2"/>
<path fill-rule="evenodd" clip-rule="evenodd" d="M329.033 0H611.709C617.481 0 622.193 4.52939 622.193 10.0653V220.514H318.549V10.0653C318.549 4.52939 323.274 0 329.033 0ZM328.522 7.24143H612.219V213.273H328.522V7.24143Z" fill="#4F4F4F"/>
<path d="M608.476 10.8484H600.493V17.8382H608.476V10.8484Z" fill="#4E565A"/>
<path d="M598.25 10.5783L590.286 11.1353L590.773 18.108L598.738 17.5511L598.25 10.5783Z" fill="#4E565A"/>
<path d="M588.486 10.5783L580.522 11.1353L581.01 18.108L588.974 17.5511L588.486 10.5783Z" fill="#4E565A"/>
<path d="M488.629 220.514H446.524V266.283H488.629V220.514Z" fill="#525151"/>
<path fill-rule="evenodd" clip-rule="evenodd" d="M404.813 260.356H530.341C531.78 260.356 532.958 261.614 532.958 263.152V272.197H402.195V263.152C402.195 261.614 403.373 260.356 404.813 260.356Z" fill="#525151"/>
<path fill-rule="evenodd" clip-rule="evenodd" d="M318.549 220.514H622.193V224.862C622.193 227.937 619.837 230.454 616.957 230.454H323.785C320.905 230.454 318.549 227.937 318.549 224.862V220.514Z" fill="#737373"/>
<path d="M523.221 276.195C523.901 284.527 526.257 277.747 526.113 285.282L510.407 285.519C509.687 285.561 510.041 283.381 509.818 276.335L523.221 276.195Z" fill="#737373"/>
<path d="M566.922 278.068C568.375 286.19 584.002 282.5 581.135 289.42C580.232 291.614 559.749 291.055 554.933 290.496C554.933 290.496 554.475 284.736 554.933 277.831L566.922 278.082V278.068Z" fill="#737373"/>
<path d="M554.815 157.047H488.563V159.815H554.815V157.047Z" fill="#4E565A"/>
<path d="M546.504 162.792H488.563V165.56H546.504V162.792Z" fill="#4E565A"/>
<path d="M552.145 168.384H488.563V171.152H552.145V168.384Z" fill="#4E565A"/>
<path d="M528.6 173.976H488.563V176.744H528.6V173.976Z" fill="#4E565A"/>
<path d="M567.436 11.3506L355.053 41.2777C354.1 41.4119 353.469 42.5117 353.643 43.7341L362.168 106.268C362.342 107.491 367.186 109.405 368.138 109.27L577.472 81.9203C578.425 81.7861 579.056 80.6863 578.882 79.4639L569.475 13.321C569.301 12.0986 568.388 11.2164 567.436 11.3506Z" fill="#CFE3EB"/>
<path fill-rule="evenodd" clip-rule="evenodd" d="M576.48 63.3867L578.366 77.4787L484.816 95.3154L369.279 110.233L362.347 105.925L360.056 88.6524L387.149 90.8499L446.088 75.6717L490.341 78.575L538.953 65.226L558.353 69.2087L576.48 63.3867Z" fill="#99B6C8"/>
<path d="M400.902 59.6926C406.607 58.9313 410.611 53.348 409.845 47.222C409.079 41.0959 403.834 36.747 398.129 37.5083C392.424 38.2696 388.42 43.8529 389.186 49.9789C389.952 56.1049 395.197 60.4539 400.902 59.6926Z" fill="#FFED00"/>
<path fill-rule="evenodd" clip-rule="evenodd" d="M363.766 51.1727C363.351 50.8373 363.117 50.4753 363.054 49.9612C362.909 48.8082 364.086 47.7309 365.754 47.5022C367.228 47.301 368.614 47.9047 368.932 48.9055C369.819 48.5212 370.729 48.2754 371.66 48.1542C374.427 47.7786 376.979 48.6231 378.458 49.9911C378.951 49.3961 380.011 48.8735 381.11 48.7266C381.666 48.6457 382.231 48.7043 382.81 48.7619C383.753 47.3226 385.487 46.1783 387.892 45.856C390.298 45.5337 392.633 46.2672 393.742 47.5631L394.297 47.4822C396.147 47.2407 397.745 48.0679 397.892 49.2348C398.038 50.3877 396.688 51.6172 394.839 51.8726C394.284 51.9535 393.899 51.8683 393.515 51.7831C392.187 53.1371 390.603 54.0046 388.753 54.2461L388.572 54.2728C388.313 55.2298 387.285 56.0164 385.811 56.2176C385.436 56.2718 385.073 56.3112 384.69 56.2399C383.919 57.5271 382.335 58.3945 380.304 58.6627C378.274 58.9308 376.332 58.4079 375.245 57.2367C374.539 57.5944 373.621 57.7146 372.87 57.8091C370.465 58.1315 368.341 57.6214 366.893 56.5174C366.54 56.6962 365.984 56.7632 365.428 56.8441C363.023 57.1664 360.815 56.0175 360.607 54.3504C360.452 53.058 361.78 51.7039 363.779 51.1718L363.766 51.1727Z" fill="white"/>
<path fill-rule="evenodd" clip-rule="evenodd" d="M475.921 37.1639C475.243 36.6227 474.863 36.0327 474.751 35.1857C474.515 33.2963 476.429 31.5509 479.132 31.1937C481.537 30.8714 483.798 31.8484 484.304 33.4807C485.748 32.8612 487.233 32.449 488.733 32.246C493.234 31.651 497.375 33.0151 499.789 35.2426C500.584 34.2902 502.311 33.4127 504.108 33.1749C505.014 33.0555 505.933 33.1453 506.866 33.2343C508.4 30.8988 511.219 29.0341 515.124 28.5087C519.029 27.9834 522.846 29.188 524.625 31.2918L525.53 31.1724C528.53 30.7665 531.144 32.1252 531.38 34.0145C531.617 35.9038 529.42 37.8933 526.42 38.2992C525.515 38.4186 524.893 38.2939 524.269 38.1553C522.101 40.367 519.536 41.7655 516.536 42.1715L516.239 42.2063C515.824 43.7488 514.153 45.0428 511.748 45.3651C511.14 45.4497 510.545 45.5193 509.923 45.3947C508.659 47.487 506.081 48.8864 502.784 49.3272C499.487 49.768 496.32 48.9104 494.556 47.0157C493.409 47.6004 491.909 47.7894 490.706 47.9576C486.802 48.4829 483.35 47.6592 480.979 45.8491C480.399 46.1419 479.507 46.2603 478.601 46.3797C474.696 46.905 471.107 45.0399 470.773 42.3166C470.509 40.219 472.679 38.0212 475.933 37.1491L475.921 37.1639Z" fill="white"/>
<path fill-rule="evenodd" clip-rule="evenodd" d="M577.639 71.756L578.367 77.4928C578.439 79.6458 577.434 82.631 573.679 83.2439L368.187 110.66C367.799 110.715 364.038 111.245 362.407 106.594L361.358 98.6794L382.81 103.261L418.395 89.5339L454.453 94.8742L491.008 85.4934L535.34 82.7998L558.937 76.2589L577.653 71.769L577.639 71.756Z" fill="#41A24C"/>
<path fill-rule="evenodd" clip-rule="evenodd" d="M452.018 72.5662L429.313 102.504L520.351 90.3781L499.207 77.3104L492.716 68.6693L488.338 62.9916L464.869 31.9807L461.57 51.6205L455.113 71.6491L452.018 72.5662Z" fill="#4E565A"/>
<path fill-rule="evenodd" clip-rule="evenodd" d="M488.799 63.604L484.789 71.9703L479.66 86.3427L487.306 76.601L499.539 77.5814L488.799 63.604Z" fill="white"/>
<path fill-rule="evenodd" clip-rule="evenodd" d="M464.894 32.5253L469.045 45.7863L474.06 52.9189L481.905 65.6273L463.76 83.3202L463.175 74.9529L469.41 61.8345L465.255 48.3355L464.894 32.5253Z" fill="white"/>
<path fill-rule="evenodd" clip-rule="evenodd" d="M451.696 72.9952L438.276 90.694L456.195 83.3871L451.696 72.9952Z" fill="white"/>
<path d="M550.666 179.568H488.563V182.336H550.666V179.568Z" fill="#4E565A"/>
<path d="M542.264 185.16H488.563V187.928H542.264V185.16Z" fill="#4E565A"/>
<path d="M549.698 138.999H509.387C508.23 138.999 507.292 140 507.292 141.236V147.946C507.292 149.181 508.23 150.183 509.387 150.183H549.698C550.854 150.183 551.792 149.181 551.792 147.946V141.236C551.792 140 550.854 138.999 549.698 138.999Z" fill="#FC5673"/>
<path d="M427.598 138.767H387.286C386.13 138.767 385.192 139.768 385.192 141.003V147.714C385.192 148.949 386.13 149.95 387.286 149.95H427.598C428.754 149.95 429.692 148.949 429.692 147.714V141.003C429.692 139.768 428.754 138.767 427.598 138.767Z" fill="#FC5673"/>
<path d="M509.295 204.857C509.23 196.735 510.25 177.247 510.774 169.237C511.036 165.281 546.19 164.274 546.19 164.274C546.19 164.274 547.761 172.564 552.407 196.763C552.407 196.763 567.445 275.608 567.838 280.514L554.697 279.857C551.805 265.165 535.825 212.154 530.668 198.147C530.668 198.147 523.993 276.446 523.417 277.243L509.871 279.158C509.871 279.158 509.374 213.58 509.308 204.871L509.295 204.857Z" fill="#3243B2"/>
<path d="M338.954 152.895H278.408V269.401H338.954V152.895Z" fill="#FEFEFE"/>
<path fill-rule="evenodd" clip-rule="evenodd" d="M282.335 154.572H335.25C337.121 154.572 338.639 156.208 338.639 158.193V264.941C338.639 266.94 337.108 268.562 335.25 268.562H282.335C280.463 268.562 278.945 266.926 278.945 264.941V158.193C278.945 156.194 280.476 154.572 282.335 154.572ZM280.07 150.798H337.501C339.739 150.798 341.571 152.755 341.571 155.146V267.835C341.571 270.226 339.739 272.183 337.501 272.183H280.07C277.832 272.183 276 270.226 276 267.835V155.146C276 152.755 277.832 150.798 280.07 150.798Z" fill="#464247"/>
<path d="M335.721 155.635H281.85C280.802 155.635 279.953 156.542 279.953 157.662V179.526C279.953 180.645 280.802 181.553 281.85 181.553H335.721C336.769 181.553 337.619 180.645 337.619 179.526V157.662C337.619 156.542 336.769 155.635 335.721 155.635Z" fill="#CFE3EB"/>
<path fill-rule="evenodd" clip-rule="evenodd" d="M337.619 174.409V179.414L312.437 181.525L281.785 181.469L279.953 179.162V172.983L286.981 175.08L302.948 172.494L314.466 175.681L327.659 173.249L332.619 175.626L337.619 174.409Z" fill="#99B6C8"/>
<path d="M291.623 164.573C293.145 164.577 294.381 162.768 294.383 160.533C294.386 158.298 293.154 156.483 291.632 156.48C290.11 156.476 288.874 158.285 288.872 160.52C288.869 162.755 290.101 164.569 291.623 164.573Z" fill="#FFED00"/>
<path fill-rule="evenodd" clip-rule="evenodd" d="M282.164 159.717C282.06 159.577 282.02 159.437 282.02 159.241C282.02 158.822 282.361 158.487 282.806 158.487C283.198 158.487 283.539 158.766 283.591 159.144C283.84 159.046 284.088 159.004 284.324 159.004C285.057 159.004 285.698 159.437 286.052 159.996C286.196 159.815 286.497 159.675 286.785 159.675C286.928 159.675 287.086 159.717 287.229 159.773C287.531 159.297 288.015 158.976 288.656 158.976C289.297 158.976 289.886 159.353 290.135 159.871H290.279C290.776 159.871 291.169 160.248 291.169 160.667C291.169 161.087 290.776 161.464 290.279 161.464C290.135 161.464 290.03 161.422 289.939 161.366C289.546 161.786 289.101 162.023 288.604 162.023H288.551C288.447 162.359 288.159 162.583 287.766 162.583C287.661 162.583 287.57 162.583 287.465 162.541C287.216 162.96 286.771 163.198 286.235 163.198C285.698 163.198 285.201 162.918 284.952 162.443C284.756 162.541 284.507 162.541 284.311 162.541C283.67 162.541 283.133 162.261 282.78 161.786C282.675 161.828 282.531 161.828 282.387 161.828C281.746 161.828 281.209 161.31 281.209 160.695C281.209 160.22 281.602 159.801 282.151 159.717H282.164Z" fill="white"/>
<path fill-rule="evenodd" clip-rule="evenodd" d="M312.045 160.122C311.888 159.899 311.809 159.661 311.809 159.353C311.809 158.668 312.372 158.137 313.092 158.137C313.733 158.137 314.296 158.599 314.374 159.214C314.78 159.06 315.173 158.99 315.579 158.99C316.783 158.99 317.817 159.689 318.379 160.598C318.615 160.29 319.099 160.066 319.583 160.066C319.819 160.066 320.068 160.15 320.303 160.22C320.788 159.451 321.586 158.92 322.633 158.92C323.68 158.92 324.635 159.535 325.028 160.374H325.264C326.062 160.374 326.703 160.989 326.703 161.674C326.703 162.359 326.062 162.974 325.264 162.974C325.028 162.974 324.858 162.89 324.701 162.82C324.06 163.505 323.34 163.883 322.541 163.883H322.463C322.306 164.414 321.822 164.791 321.18 164.791C321.023 164.791 320.866 164.791 320.696 164.708C320.29 165.393 319.57 165.77 318.693 165.77C317.817 165.77 317.018 165.309 316.612 164.54C316.298 164.694 315.893 164.694 315.565 164.694C314.518 164.694 313.641 164.232 313.079 163.463C312.922 163.533 312.673 163.533 312.437 163.533C311.39 163.533 310.513 162.695 310.513 161.688C310.513 160.919 311.155 160.234 312.032 160.08L312.045 160.122Z" fill="white"/>
<path fill-rule="evenodd" clip-rule="evenodd" d="M337.619 177.499V179.414C337.645 180.253 337.318 181.525 336.244 181.609L281.366 181.483C281.261 181.483 280.11 181.315 279.953 179.526V176.646L285.45 179.33L295.253 176.129L304.545 179.792L314.466 178.198L326.206 179.386L332.619 178.184L337.632 177.513L337.619 177.499Z" fill="#41A14C"/>
<path d="M291.623 163.424C293.122 163.427 294.339 162.132 294.342 160.531C294.344 158.93 293.131 157.631 291.632 157.628C290.133 157.626 288.915 158.921 288.913 160.522C288.91 162.122 290.124 163.422 291.623 163.424Z" fill="#FFED00"/>
<path fill-rule="evenodd" clip-rule="evenodd" d="M282.164 159.717C282.06 159.577 282.02 159.437 282.02 159.241C282.02 158.822 282.361 158.487 282.806 158.487C283.198 158.487 283.539 158.766 283.591 159.144C283.84 159.046 284.088 159.004 284.324 159.004C285.057 159.004 285.698 159.437 286.052 159.996C286.196 159.815 286.497 159.675 286.785 159.675C286.928 159.675 287.086 159.717 287.229 159.773C287.531 159.297 288.015 158.976 288.656 158.976C289.297 158.976 289.886 159.353 290.135 159.871H290.279C290.776 159.871 291.169 160.248 291.169 160.667C291.169 161.087 290.776 161.464 290.279 161.464C290.135 161.464 290.03 161.422 289.939 161.366C289.546 161.786 289.101 162.023 288.604 162.023H288.551C288.447 162.359 288.159 162.583 287.766 162.583C287.661 162.583 287.57 162.583 287.465 162.541C287.216 162.96 286.771 163.198 286.235 163.198C285.698 163.198 285.201 162.918 284.952 162.443C284.756 162.541 284.507 162.541 284.311 162.541C283.67 162.541 283.133 162.261 282.78 161.786C282.675 161.828 282.531 161.828 282.387 161.828C281.746 161.828 281.209 161.31 281.209 160.695C281.209 160.22 281.602 159.801 282.151 159.717H282.164Z" fill="white"/>
<path fill-rule="evenodd" clip-rule="evenodd" d="M312.045 160.122C311.888 159.899 311.809 159.661 311.809 159.353C311.809 158.668 312.372 158.137 313.092 158.137C313.733 158.137 314.296 158.599 314.374 159.214C314.78 159.06 315.173 158.99 315.579 158.99C316.783 158.99 317.817 159.689 318.379 160.598C318.615 160.29 319.099 160.066 319.583 160.066C319.819 160.066 320.068 160.15 320.303 160.22C320.788 159.451 321.586 158.92 322.633 158.92C323.68 158.92 324.635 159.535 325.028 160.374H325.264C326.062 160.374 326.703 160.989 326.703 161.674C326.703 162.359 326.062 162.974 325.264 162.974C325.028 162.974 324.858 162.89 324.701 162.82C324.06 163.505 323.34 163.883 322.541 163.883H322.463C322.306 164.414 321.822 164.791 321.18 164.791C321.023 164.791 320.866 164.791 320.696 164.708C320.29 165.393 319.57 165.77 318.693 165.77C317.817 165.77 317.018 165.309 316.612 164.54C316.298 164.694 315.893 164.694 315.565 164.694C314.518 164.694 313.641 164.232 313.079 163.463C312.922 163.533 312.673 163.533 312.437 163.533C311.39 163.533 310.513 162.695 310.513 161.688C310.513 160.919 311.155 160.234 312.032 160.08L312.045 160.122Z" fill="white"/>
<path fill-rule="evenodd" clip-rule="evenodd" d="M302.53 172.872L294.14 181.511L323.457 181.567L317.28 176.437L315.618 173.417L314.414 171.362L308.236 160.36L306.404 166.539L303.55 172.704L302.53 172.872Z" fill="#4E565A"/>
<path fill-rule="evenodd" clip-rule="evenodd" d="M308.236 160.36L309.008 164.806L310.317 167.322L312.293 171.753L305.841 176.66L305.985 173.934L308.485 169.992L307.712 165.463L308.236 160.36Z" fill="white"/>
<path fill-rule="evenodd" clip-rule="evenodd" d="M302.543 172.648L297.582 177.764L303.55 176.185L302.543 172.648Z" fill="white"/>
<path fill-rule="evenodd" clip-rule="evenodd" d="M314.545 171.292L312.935 173.794L310.749 178.198L313.55 175.402L317.293 176.269L314.545 171.292Z" fill="white"/>
<path fill-rule="evenodd" clip-rule="evenodd" d="M302.543 172.648L297.582 177.764L303.55 176.185L302.543 172.648Z" fill="white"/>
<path fill-rule="evenodd" clip-rule="evenodd" d="M314.545 171.292L312.935 173.794L310.749 178.198L313.55 175.402L317.293 176.269L314.545 171.292Z" fill="white"/>
<path d="M308.786 159.451C309.537 159.451 310.147 158.8 310.147 157.997C310.147 157.194 309.537 156.543 308.786 156.543C308.034 156.543 307.425 157.194 307.425 157.997C307.425 158.8 308.034 159.451 308.786 159.451Z" fill="#1F1B20" stroke="#2B2A29" stroke-width="0.755901"/>
<path d="M333.012 225.938H284.599C282.51 225.938 280.817 227.747 280.817 229.978V263.599C280.817 265.831 282.51 267.639 284.599 267.639H333.012C335.101 267.639 336.794 265.831 336.794 263.599V229.978C336.794 227.747 335.101 225.938 333.012 225.938Z" fill="#F2F2F2"/>
<path d="M319.452 229.167H298.132C297.583 229.167 297.137 229.643 297.137 230.23V233.389C297.137 233.976 297.583 234.452 298.132 234.452H319.452C320.002 234.452 320.447 233.976 320.447 233.389V230.23C320.447 229.643 320.002 229.167 319.452 229.167Z" fill="#FC5673"/>
<path d="M328.575 238.618H285.646V240.407H328.575V238.618Z" fill="#4E565A"/>
<path d="M323.196 242.336H285.646V244.126H323.196V242.336Z" fill="#4E565A"/>
<path d="M326.847 245.957H285.646V247.746H326.847V245.957Z" fill="#4E565A"/>
<path d="M311.587 249.578H285.646V251.367H311.587V249.578Z" fill="#4E565A"/>
<path d="M325.892 253.212H285.646V255.002H325.892V253.212Z" fill="#4E565A"/>
<path d="M320.447 256.833H285.646V258.623H320.447V256.833Z" fill="#4E565A"/>
<path fill-rule="evenodd" clip-rule="evenodd" d="M482.751 128.045C486.551 128.294 493.898 128.679 497.481 128.533C501.064 128.387 500.885 127.711 501.009 126.836C501.134 125.962 501.55 124.89 501.659 123.219C501.768 121.547 501.583 119.275 501.269 117.779C500.954 116.284 500.522 115.537 497.589 115.579C494.655 115.62 489.219 116.423 486.236 116.775C483.24 117.128 482.697 117.017 479.254 114.09C475.811 111.162 469.481 105.419 466.128 102.459C462.788 99.4979 462.425 99.321 462.208 98.1844C461.991 97.0479 461.921 94.9518 461.731 93.8418C461.542 92.7318 461.221 92.6086 460.945 92.5811C460.668 92.5536 460.434 92.5939 460.345 93.6484C460.256 94.6891 460.31 96.73 460.244 97.7274C460.178 98.7108 460.004 98.6499 458.112 98.805C456.22 98.9602 452.636 99.344 450.567 99.6204C448.497 99.8969 447.969 100.079 448.267 100.259C448.565 100.439 449.715 100.631 450.341 100.822C450.967 101.013 451.081 101.189 455.679 105.652C460.277 110.101 469.358 118.836 474.02 123.253C478.695 127.684 478.95 127.796 482.751 128.045Z" fill="#F8BB97"/>
<path d="M528.168 102.54C528.168 102.54 528.233 105.294 529.594 108.328C529.594 108.328 519.595 111.292 516.14 110.145C516.14 110.145 516.048 106.86 514.569 100.849C513.548 96.739 510.944 96.3196 508.509 86.5618C506.808 79.7258 510.028 72.1349 518.783 70.5132C524.555 69.4368 529.071 73.5468 529.071 73.5468C529.071 73.5468 531.152 75.3642 532.356 77.9644C532.356 77.9644 533.141 79.6559 533.259 80.7463C534.947 86.4919 538.743 100.583 528.155 102.54H528.168Z" fill="#F8BB97"/>
<path d="M534.856 77.6568C534.856 77.6568 533.848 79.3064 530.393 79.2504C526.807 79.1945 524.084 81.3054 523.94 83.3325C523.796 85.3595 525.458 87.2468 524.137 87.764C522.815 88.2673 521.99 86.1424 520.917 86.7854C519.831 87.4285 518.051 88.2673 518.679 90.1266C519.307 91.9859 519.373 98.4864 519.019 99.6327C518.666 100.793 514.805 100.485 514.425 100.388C514.046 100.29 511.467 94.9216 509.818 92.7547C508.169 90.6019 502.018 77.7267 507.122 74.064C507.122 74.064 507.489 70.625 510.46 68.8077C513.431 66.9903 518.679 65.2569 522.88 66.3752C527.081 67.4936 531.976 69.8142 533.94 68.9475C535.72 68.6539 538.102 74.6372 534.856 77.6568Z" fill="#FFED00"/>
<path d="M529.961 107.839C529.961 107.839 537.238 110.788 547.499 108.216C548.573 108.649 561.019 119.484 548.232 123.09C530.158 128.193 554.305 167.42 544.411 165.798C542.748 167.643 515.054 171.516 511.258 169.992C511.258 169.992 509.426 169.698 509.308 167.322C509.204 164.931 510.002 151.846 508.628 145.08C505.395 132.303 505.199 134.693 499.139 131.017C496.547 129.437 495.828 120.672 496.325 117.121C497.11 114.549 506.416 114.213 515.735 108.761C520.656 110.313 529.961 107.839 529.961 107.839Z" fill="#41A14C"/>
<path fill-rule="evenodd" clip-rule="evenodd" d="M565.6 112.2C562.328 115.639 557.066 117.722 554.344 119.092C551.622 120.462 550.706 120.141 549.541 119.609C548.363 119.078 547.905 117.443 547.329 115.639C546.753 113.836 546.046 111.851 546.072 110.565C546.099 109.265 546.871 108.663 549.017 107.643C551.177 106.622 554.724 105.197 556.779 103.966C558.833 102.736 559.383 101.688 561.608 97.7734C563.833 93.8591 567.72 87.065 569.736 83.0808C571.738 79.0966 571.856 77.9084 571.804 77.0556C571.751 76.2029 571.516 75.6716 571.293 75.1684C571.071 74.6651 570.861 74.2038 570.783 73.6446C570.704 73.0854 570.77 72.4284 571.11 72.1068C571.45 71.7853 572.078 71.7853 572.576 72.2327C573.06 72.68 573.4 73.5747 573.688 74.3296C573.976 75.0705 574.199 75.6716 574.866 74.9727C575.521 74.2737 577.235 72.4843 577.248 71.1422V69.5206C577.248 69.1711 577.772 69.255 577.994 69.5346C578.295 69.912 578.361 73.1134 578.164 73.6446C577.929 74.2597 578.047 74.4694 578.4 74.8608C578.753 75.2522 579.342 75.8254 579.643 77.0416C579.944 78.2718 579.944 80.1451 579.774 81.599C579.617 83.0529 579.29 84.1013 576.895 89.134C574.513 94.1666 568.885 108.803 565.613 112.242L565.6 112.2Z" fill="#F8BB97"/>
<path d="M308.204 218.217C306.83 217.186 305.721 215.923 304.901 214.45C303.859 212.556 303.372 210.41 303.527 208.284L309.29 208.642C309.201 209.778 309.467 210.915 310.021 211.925C310.442 212.704 311.041 213.377 311.772 213.924L308.226 218.238L308.204 218.217Z" fill="#FFED00"/>
<path d="M322.167 219.333C317.934 221.437 312.902 221.206 309.001 218.765L312.437 214.345C314.587 215.692 317.136 215.65 319.508 214.471C319.929 214.261 320.106 214.177 320.461 213.903L324.273 218.028C323.63 218.512 322.921 218.954 322.167 219.312V219.333Z" fill="#9EFD9C"/>
<path d="M325.36 217.123L321.303 213.23C322.811 211.82 323.586 210.073 323.409 208.137L329.15 207.526C329.46 211.062 328.064 214.556 325.36 217.102V217.123Z" fill="#D3D3D3"/>
<path d="M328.928 206.116L323.254 207.063C323.143 206.495 322.966 206.116 322.677 205.611C322.168 204.706 321.481 203.949 320.594 203.381L323.852 198.856C325.515 199.929 326.867 201.381 327.798 203.065C328.33 204.033 328.706 205.043 328.95 206.095L328.928 206.116Z" fill="#FF6F61"/>
<path d="M319.951 203.023C317.845 201.823 315.43 201.928 313.191 203.044C311.041 204.117 309.689 205.843 309.401 208.074L303.571 207.674C304.059 203.654 306.652 200.118 310.509 198.203C312.526 197.193 314.787 196.709 317.025 196.772C319.22 196.835 321.348 197.424 323.209 198.498L319.951 203.023Z" fill="#CFE3EB"/>
<path d="M287.611 210.278H286.192V219.223H287.611V210.278Z" fill="#CFE3EB"/>
<path d="M290.426 213.688H289.008V219.244H290.426V213.688Z" fill="#FFED00"/>
<path d="M293.241 209.542H291.822V219.244H293.241V209.542Z" fill="#FF6F61"/>
<path d="M296.056 212.446H294.637V219.244H296.056V212.446Z" fill="#4E565A"/>
<path d="M298.893 214.151H297.474V219.244H298.893V214.151Z" fill="#D3D3D3"/>
<path d="M407.536 198.518C405.267 196.799 403.437 194.695 402.083 192.239C400.363 189.083 399.558 185.505 399.814 181.962L409.33 182.558C409.183 184.453 409.622 186.347 410.537 188.03C411.233 189.328 412.221 190.451 413.429 191.363L407.573 198.553L407.536 198.518Z" fill="#FFED00"/>
<path d="M430.593 200.377C423.603 203.885 415.295 203.499 408.854 199.43L414.527 192.064C418.077 194.309 422.285 194.239 426.201 192.274C426.897 191.924 427.19 191.783 427.775 191.327L434.07 198.202C433.009 199.009 431.837 199.746 430.593 200.342V200.377Z" fill="#9EFD9C"/>
<path d="M435.863 196.694L429.166 190.205C431.655 187.855 432.936 184.944 432.643 181.717L442.122 180.699C442.634 186.592 440.328 192.415 435.863 196.659V196.694Z" fill="#D3D3D3"/>
<path d="M441.755 178.35L432.386 179.928C432.203 178.981 431.911 178.35 431.435 177.508C430.593 176 429.459 174.737 427.995 173.79L433.375 166.249C436.119 168.037 438.352 170.458 439.889 173.264C440.767 174.877 441.389 176.561 441.792 178.315L441.755 178.35Z" fill="#FF6F61"/>
<path d="M426.934 173.193C423.457 171.194 419.468 171.369 415.771 173.228C412.221 175.017 409.989 177.893 409.513 181.611L399.888 180.945C400.693 174.246 404.975 168.353 411.343 165.161C414.673 163.477 418.406 162.67 422.103 162.776C425.726 162.881 429.239 163.863 432.313 165.652L426.934 173.193Z" fill="#CFE3EB"/>
<path d="M373.535 185.286H371.192V200.193H373.535V185.286Z" fill="#CFE3EB"/>
<path d="M378.183 190.969H375.84V200.229H378.183V190.969Z" fill="#FFED00"/>
<path d="M382.831 184.059H380.488V200.229H382.831V184.059Z" fill="#FF6F61"/>
<path d="M387.478 188.899H385.136V200.228H387.478V188.899Z" fill="#4E565A"/>
<path d="M392.163 191.74H389.82V200.229H392.163V191.74Z" fill="#D3D3D3"/>
<path d="M101.462 200H67.038C66.0504 200 65.2498 200.716 65.2498 201.6V206.4C65.2498 207.284 66.0504 208 67.038 208H101.462C102.449 208 103.25 207.284 103.25 206.4V201.6C103.25 200.716 102.449 200 101.462 200Z" fill="#FC5673"/>
<path d="M201.212 200H166.788C165.801 200 165 200.716 165 201.6V206.4C165 207.284 165.801 208 166.788 208H201.212C202.199 208 203 207.284 203 206.4V201.6C203 200.716 202.199 200 201.212 200Z" fill="#FC5673"/>
<path d="M93.5714 242.92C91.9441 241.674 90.6318 240.148 89.6607 238.368C88.4271 236.079 87.8497 233.485 88.0334 230.917L94.8575 231.349C94.7525 232.722 95.0675 234.096 95.7236 235.316C96.2223 236.257 96.9309 237.071 97.7971 237.732L93.5977 242.945L93.5714 242.92Z" fill="#FFED00"/>
<path d="M110.107 244.267C105.094 246.811 99.1357 246.531 94.5164 243.581L98.5845 238.241C101.13 239.868 104.149 239.817 106.957 238.393C107.456 238.139 107.666 238.037 108.086 237.707L112.6 242.691C111.839 243.276 110.999 243.81 110.107 244.242V244.267Z" fill="#9EFD9C"/>
<path d="M113.886 241.597L109.083 236.893C110.868 235.189 111.787 233.078 111.577 230.739L118.374 230.001C118.742 234.273 117.088 238.495 113.886 241.572V241.597Z" fill="#D3D3D3"/>
<path d="M118.112 228.298L111.393 229.442C111.261 228.756 111.052 228.298 110.71 227.687C110.107 226.594 109.293 225.678 108.243 224.992L112.101 219.524C114.07 220.821 115.671 222.576 116.773 224.61C117.403 225.78 117.849 227.001 118.138 228.272L118.112 228.298Z" fill="#FF6F61"/>
<path d="M107.482 224.559C104.989 223.11 102.128 223.237 99.4771 224.585C96.9312 225.882 95.3302 227.967 94.989 230.663L88.0862 230.179C88.6636 225.322 91.7344 221.05 96.3013 218.736C98.6897 217.515 101.367 216.93 104.018 217.007C106.616 217.083 109.136 217.795 111.34 219.092L107.482 224.559Z" fill="#CFE3EB"/>
<path d="M50.3423 230.52H48V245.427H50.3423V230.52Z" fill="#CFE3EB"/>
<path d="M54.9902 236.202H52.6479V245.462H54.9902V236.202Z" fill="#FFED00"/>
<path d="M59.6382 229.292H57.2959V245.462H59.6382V229.292Z" fill="#FF6F61"/>
<path d="M64.2861 234.132H61.9438V245.462H64.2861V234.132Z" fill="#4E565A"/>
<path d="M68.9702 236.974H66.6279V245.462H68.9702V236.974Z" fill="#D3D3D3"/>
</svg>
