<svg width="411" height="225" viewBox="0 0 411 225" fill="none" xmlns="http://www.w3.org/2000/svg">
<path id="Vector" d="M356.763 121.878C352.27 121.878 347.909 122.407 343.733 123.385C344.688 119.448 345.171 115.42 345.174 111.38C345.174 81.8294 319.976 57.8741 288.892 57.8741C277.545 57.8592 266.461 61.1203 257.107 67.226C246.549 28.5541 209.585 0 165.604 0C113.396 0 71.0727 40.2353 71.0727 89.8675C31.8208 89.8675 0 120.118 0 157.434C0 194.749 31.82 225 71.0727 225H356.763C386.717 225 411 201.915 411 173.439C411 144.963 386.717 121.878 356.763 121.878Z" fill="#CFE3EB"/>
</svg>
