<svg width="80" height="80" viewBox="0 0 80 80" fill="none" xmlns="http://www.w3.org/2000/svg">
<path fill-rule="evenodd" clip-rule="evenodd" d="M30.9893 80C26.8503 79.084 22.8793 77.5286 19.2192 75.3899L19.4314 71.2402C19.7206 65.5812 15.3518 61.2295 9.70801 61.517L5.12182 61.7514C2.94589 58.2989 1.29963 54.5398 0.237866 50.5993L3.83837 47.348C8.04466 43.5525 8.0344 37.3852 3.83837 33.5983L0 30.133C0.940285 26.279 2.43741 22.5827 4.44416 19.1606L9.70801 19.4293C15.3672 19.7185 19.7189 15.3497 19.4314 9.70609L19.1611 4.44406C22.5821 2.43766 26.2774 0.940574 30.1303 -6.10352e-06L33.5973 3.83828C37.3963 8.04449 43.562 8.03422 47.349 3.83828L50.6004 0.237855C54.5403 1.29922 58.2989 2.94486 61.7511 5.11999L61.5166 9.70609C61.2274 15.3668 65.5963 19.7185 71.24 19.431L75.3899 19.2188C77.5286 22.8788 79.0839 26.8497 80 30.9887L77.108 33.5983C72.9034 37.3972 72.9154 43.5628 77.108 47.3497L79.7792 49.7591C78.7383 53.9819 77.0295 58.0113 74.7173 61.695L71.24 61.517C65.5809 61.2278 61.2291 65.5966 61.5166 71.2402L61.6946 74.7174C58.0108 77.0295 53.9814 78.7383 49.7585 79.7792L47.349 77.1097C43.55 72.9035 37.3843 72.9138 33.5973 77.1097L30.9893 80ZM39.9016 57.013C49.3529 57.013 57.0143 49.3519 57.0143 39.9007C57.0143 30.4496 49.3529 22.7884 39.9016 22.7884C30.4503 22.7884 22.7889 30.4496 22.7889 39.9007C22.7889 49.3519 30.4503 57.013 39.9016 57.013Z" fill="#292934" fill-opacity="0.77"/>
</svg>
