<svg width="261" height="196" viewBox="0 0 261 196" fill="none" xmlns="http://www.w3.org/2000/svg">
<ellipse cx="78" cy="190.5" rx="78" ry="5.5" fill="#807A7A"/>
<path fill-rule="evenodd" clip-rule="evenodd" d="M5 189.923H107.517V119.452H5V189.923Z" fill="#A19090"/>
<path fill-rule="evenodd" clip-rule="evenodd" d="M10.2397 189.923H102.315V122.983H10.2397V189.923Z" fill="#C3BABA"/>
<path fill-rule="evenodd" clip-rule="evenodd" d="M14.3024 145.081H98.6699V126.476H14.3024V145.081Z" fill="#CFCFCF"/>
<path fill-rule="evenodd" clip-rule="evenodd" d="M14.3024 168.47H98.6699V149.865H14.3024V168.47Z" fill="#CFCFCF"/>
<path fill-rule="evenodd" clip-rule="evenodd" d="M56.4861 132.514C58.3087 132.514 59.7515 133.994 59.7515 135.779C59.7515 137.601 58.2707 139.044 56.4861 139.044C54.6636 139.044 53.2208 137.563 53.2208 135.779C53.2208 133.956 54.7016 132.514 56.4861 132.514Z" fill="white"/>
<path fill-rule="evenodd" clip-rule="evenodd" d="M56.4861 155.865C58.3087 155.865 59.7515 157.345 59.7515 159.13C59.7515 160.952 58.2707 162.395 56.4861 162.395C54.6636 162.395 53.2208 160.914 53.2208 159.13C53.2208 157.307 54.7016 155.865 56.4861 155.865Z" fill="white"/>
<path d="M5.87329 96.3669L16.4667 119.566L42.1338 119.49L30.9709 95.3797C30.857 95.1519 30.6292 95 30.4013 95H6.74658C6.02517 95 5.56954 95.7214 5.87329 96.3669Z" fill="#595963"/>
<path d="M64.9912 118.123L41.5263 118.237L42.1338 119.49H63.8522C64.4976 119.49 64.9912 118.959 64.9912 118.351V118.123Z" fill="#595963"/>
<path fill-rule="evenodd" clip-rule="evenodd" d="M90.2919 177.136C90.2919 178.275 90.2919 179.376 90.3299 180.515C92.3422 180.477 94.3546 180.477 96.4049 180.439C96.4049 179.414 96.4049 178.389 96.367 177.364C94.3546 177.288 92.3422 177.212 90.2919 177.136Z" fill="#F8BB97"/>
<path fill-rule="evenodd" clip-rule="evenodd" d="M127.122 177.402C127.16 178.541 127.198 179.642 127.236 180.781C129.248 180.705 131.261 180.629 133.273 180.553C133.235 179.528 133.197 178.503 133.159 177.478C131.147 177.44 129.134 177.402 127.084 177.364L127.122 177.402Z" fill="#F8BB97"/>
<path fill-rule="evenodd" clip-rule="evenodd" d="M89.8363 179.756C92.3043 179.794 94.3926 179.794 96.8985 179.832C96.8985 180.553 97.3162 181.275 97.3921 182.11C97.7718 185.641 98.3793 186.591 97.544 190.425C97.1643 190.615 96.8226 190.805 96.4429 190.995C92.9498 190.995 89.4946 190.995 86.0014 190.957C85.8495 190.425 85.7356 189.894 85.6976 189.286C85.6597 188.679 85.7356 187.957 85.9634 187.35C86.2292 186.742 86.6469 186.287 87.2544 185.527C87.8239 184.768 88.5453 183.667 89.001 182.68C89.4566 181.655 89.6464 180.743 89.8363 179.794V179.756Z" fill="#4E4C4F"/>
<path fill-rule="evenodd" clip-rule="evenodd" d="M133.311 179.908C131.147 179.908 129.096 179.908 126.932 179.908C126.666 180.629 126.249 181.351 126.059 182.186C125.869 183.021 125.717 184.009 125.451 184.73C125.186 185.489 124.806 186.021 124.54 186.628C124.236 187.198 124.046 187.843 123.971 188.527C123.895 189.21 123.971 189.97 124.084 190.729C128.299 190.843 132.514 190.919 136.728 191.033C136.842 190.501 136.994 189.97 137.032 189.362C137.07 188.755 136.994 188.033 136.766 187.426C136.538 186.818 136.121 186.363 135.551 185.603C135.02 184.844 134.336 183.743 133.918 182.756C133.539 181.768 133.463 180.857 133.349 179.946L133.311 179.908Z" fill="#4E4C4F"/>
<path d="M115.769 26.057C115.769 26.057 114.061 32.5118 112.77 34.6001C112.314 40.3714 121.578 45.801 125.148 36.8782C125.148 36.8782 124.274 30.4614 125.831 26.2089C126.932 23.3232 129.096 23.2853 131.678 16.4129C133.501 11.5908 131.261 5.70557 124.084 3.61726C119.376 2.21241 115.39 4.75634 115.39 4.75634C115.39 4.75634 113.567 5.85744 112.39 7.64199C112.39 7.64199 111.631 8.78107 111.479 9.57842C111.327 10.3758 110.567 13.2235 110.226 13.7171C109.314 15.046 108.555 15.2738 108.327 15.8433C108.099 16.3369 108.897 17.2482 109.732 17.476C108.251 21.3488 109.77 27.1581 115.731 26.095L115.769 26.057Z" fill="#F8BB97"/>
<path d="M109.618 7.49011C109.618 7.49011 110.416 8.89497 113.491 9.23669C116.68 9.57842 118.959 11.5528 118.959 13.1475C118.959 14.2866 118.085 15.9952 118.123 16.8305C118.351 17.0204 118.769 17.2102 119.073 17.3621C119.756 17.7418 120.667 15.6155 121.427 16.185C122.338 16.7926 123.857 17.6658 123.211 19.0327C122.528 20.3996 122.072 25.4875 122.3 26.4367C122.528 27.3859 125.983 27.5758 126.325 27.5378C126.666 27.4998 129.286 23.589 130.881 22.1082C132.476 20.5895 138.741 11.2491 134.45 7.83184C134.45 7.83184 134.336 5.09806 131.83 3.35148C129.324 1.6049 124.768 -0.331527 120.971 0.0481643C117.174 0.427856 112.39 2.0985 110.719 1.22521C110.719 1.22521 108.935 -0.63528 109.276 0.65567C109.618 1.94662 110.605 3.99695 111.631 4.56649C111.631 4.56649 109.922 3.16163 108.935 2.2124C107.948 1.26318 107.416 5.2879 109.618 7.52808V7.49011Z" fill="#FFED00"/>
<path fill-rule="evenodd" clip-rule="evenodd" d="M90.3299 182.983H95.3798V182.414H90.3299V182.983Z" fill="#CFE3EB"/>
<path fill-rule="evenodd" clip-rule="evenodd" d="M89.6464 184.844H95.5696V184.274H89.6464V184.844Z" fill="#CFE3EB"/>
<path fill-rule="evenodd" clip-rule="evenodd" d="M127.426 183.287H132.476V182.718H127.426V183.287Z" fill="#CFE3EB"/>
<path fill-rule="evenodd" clip-rule="evenodd" d="M127.008 185.034H132.931V184.464H127.008V185.034Z" fill="#CFE3EB"/>
<path fill-rule="evenodd" clip-rule="evenodd" d="M94.8482 87.2633C109.314 91.2121 123.781 95.1608 130.615 95.2747C137.45 95.3887 136.614 91.7056 135.589 88.7441C134.564 85.7825 133.311 83.5803 131.64 80.5048C129.97 77.4293 127.919 73.4805 126.59 68.8862C125.261 64.254 124.692 58.9763 124.806 53.7745C124.92 48.5727 125.755 43.4089 126.476 39.5361C127.236 35.6632 127.881 33.0813 127.692 32.1701C127.464 31.2968 126.363 32.0941 125.261 32.7396C124.16 33.3851 123.059 33.8787 121.541 34.1444C120.022 34.4482 118.085 34.5241 116.756 34.1444C115.427 33.7648 114.63 32.8915 113.719 33.3851C112.77 33.8787 111.669 35.7771 110.302 39.8398C108.935 43.9025 107.302 50.1674 105.821 55.9387C104.34 61.748 103.05 67.0637 101.341 71.0125C99.5943 74.9613 97.4301 77.5052 95.2659 80.0491C95.114 82.4412 94.9621 84.8712 94.8482 87.2633Z" fill="#E2E2E2"/>
<path fill-rule="evenodd" clip-rule="evenodd" d="M109.276 28.6769C109.884 27.0063 107.378 27.1581 111.82 26.1709C113.225 25.8672 113.871 23.589 114.137 22.9056C114.364 22.2221 115.086 21.6146 115.2 20.6654C115.39 19.0327 114.82 19.2985 114.516 18.6151C114.402 18.3493 114.858 18.1594 114.478 17.7798C114.212 17.514 113.605 17.6658 113.453 17.6279C113.225 17.514 113.149 17.0583 112.884 16.9824C112.352 16.8685 112.2 17.2482 111.934 17.1722C111.061 16.8305 110.757 16.9444 109.504 18.8429C108.251 20.7034 108.555 20.3996 108.251 21.197C107.986 21.9943 107.72 22.8296 107.606 23.7409C107.492 24.6522 107.492 25.6014 107.302 26.4367C107.112 27.272 105.783 27.8036 105.973 29.3603C106.277 31.8663 107.378 33.9546 109.314 28.6389L109.276 28.6769Z" fill="#BEBEBE"/>
<path fill-rule="evenodd" clip-rule="evenodd" d="M97.7718 177.44C100.012 166.201 101.493 159.139 104.796 144.559C108.099 129.979 104.872 97.8187 103.961 97.2491C103.05 96.6796 102.29 102.793 99.1767 102.793C98.1515 117.942 94.3546 118.246 93.1016 133.168C91.8486 148.09 90.3679 162.746 88.8871 177.44C91.8486 177.44 94.8102 177.44 97.7718 177.44Z" fill="#4A62FF"/>
<path fill-rule="evenodd" clip-rule="evenodd" d="M134.868 110.538C136.159 108.032 137.45 105.564 138.399 103.362C139.31 101.16 139.842 99.1856 139.918 96.9454C139.994 94.7052 139.576 92.1992 138.854 89.6553C138.133 87.1114 137.07 84.5675 136.045 82.3273C135.02 80.1251 133.994 78.2266 133.349 76.6319C132.703 75.0372 132.4 73.7083 132.248 72.0376C132.058 70.405 131.982 68.4685 132.058 65.9626C132.134 63.4566 132.362 60.3811 132.552 57.3436C133.729 60.3052 134.944 63.2668 136.121 66.2284C137.032 66.2663 137.905 66.3043 139.044 65.7727C140.183 65.2412 141.55 64.1021 142.537 63.1529C143.525 62.2036 144.094 61.4063 145.119 60.8367C146.182 60.2672 147.663 59.9635 149.182 59.6217C146.372 53.6226 143.563 47.6615 141.778 44.3581C139.994 41.0928 139.272 40.4853 136.652 38.8146C133.994 37.106 129.438 34.2963 124.844 31.4866C123.059 42.4597 121.237 53.3948 120.401 60.2672C119.566 67.1017 119.68 69.8734 122.224 77.5432C124.768 85.2509 129.78 97.8946 134.792 110.538H134.868Z" fill="#EB7366"/>
<path fill-rule="evenodd" clip-rule="evenodd" d="M126.287 88.5542C129.21 86.2381 132.134 83.922 133.767 82.8209C134.906 81.5299 135.209 81.6438 135.399 80.9984C135.058 80.1251 134.07 78.2646 133.425 76.6699C132.779 75.0752 132.476 73.7463 132.324 72.0756C132.134 70.4429 132.058 68.5065 132.134 66.0005C132.21 63.4946 132.438 60.4191 132.627 57.3816C133.805 60.3431 135.02 63.3047 136.197 66.2663C137.108 66.3043 137.981 66.3423 139.12 65.8107C140.259 65.2791 141.626 64.1401 142.613 63.1908C143.601 62.2416 144.17 61.4443 145.195 60.8747C146.258 60.3052 147.739 60.0014 149.258 59.6597C146.448 53.6606 143.639 47.6994 141.854 44.3961C140.069 41.1308 139.348 40.5233 136.728 38.8526C134.07 37.144 129.514 34.3343 124.92 31.5246C123.135 42.4977 121.313 53.4328 120.477 60.3052C119.642 67.1396 119.756 69.9114 120.857 73.9361C121.996 77.9608 124.122 83.2765 126.287 88.6302V88.5542Z" fill="#EB7366"/>
<path fill-rule="evenodd" clip-rule="evenodd" d="M134.64 58.2169C136.652 61.71 138.665 65.1652 139.766 67.4054C140.829 69.6076 140.981 70.5948 140.943 71.3922C140.905 72.1895 140.715 72.835 138.854 75.9105C137.032 78.948 133.539 84.4156 131.375 87.8708C130.046 90.3008 116.946 101.388 133.425 95.2747C133.842 95.2368 138.703 89.6553 141.436 86.2001C144.132 82.707 146.334 79.9732 147.929 77.9608C149.524 75.9485 150.549 74.6575 151.156 73.5184C151.764 72.4173 151.954 71.5061 151.764 70.2531C151.612 69.0001 151.08 67.4813 150.321 65.431C149.562 63.4186 148.537 60.9127 147.625 58.8244C146.714 56.7361 145.917 55.0275 145.119 53.5467C144.284 52.0659 143.449 50.7749 142.461 49.9776C141.474 49.1802 140.297 48.9144 139.31 48.9524C138.323 49.0283 137.488 49.446 136.728 51.0407C135.969 52.6354 135.323 55.4072 134.64 58.1789V58.2169Z" fill="#F8BB97"/>
<path fill-rule="evenodd" clip-rule="evenodd" d="M133.387 76.6319C132.741 75.0372 132.438 73.7083 132.286 72.0376C132.096 70.405 132.02 68.4685 132.096 65.9626C132.172 63.4566 132.4 60.3811 132.59 57.3436C133.767 60.3052 134.982 63.2668 136.159 66.2284C137.07 66.2663 137.943 66.3043 139.082 65.7727C140.221 65.2412 141.588 64.1021 142.575 63.1529C143.563 62.2036 144.132 61.4063 145.157 60.8367C146.22 60.2672 147.701 59.9635 149.22 59.6217C146.41 53.6226 143.601 47.6615 141.816 44.3581C140.031 41.0928 139.31 40.4853 136.69 38.8146C134.032 37.106 129.476 34.2963 124.882 31.4866C123.097 42.4597 121.275 53.3948 120.439 60.2672C119.604 67.1017 119.718 69.8734 122.262 77.5432C124.578 81.9476 128.565 83.3145 133.349 76.6319H133.387Z" fill="#EB7366"/>
<path fill-rule="evenodd" clip-rule="evenodd" d="M97.7718 177.44C100.012 166.201 102.252 154.924 105.252 142.736C108.251 130.548 112.01 117.373 115.731 104.197C117.895 115.778 120.06 127.359 121.199 133.775C122.338 140.192 122.49 141.445 123.097 147.9C123.705 154.355 124.73 166.011 125.793 177.63C128.565 177.554 131.337 177.478 134.108 177.402C134.564 164.417 135.058 151.431 135.627 137.838C136.197 124.245 136.804 111.753 137.45 97.5529C135.209 97.0213 133.159 95.3507 129.4 94.4394C126.59 93.4522 120.288 91.6677 116.111 90.6045C111.934 89.5414 108.821 88.7441 105.707 88.3264C102.594 87.9087 99.4804 87.9087 96.367 87.9087C95.3418 103.058 94.3546 118.208 93.1016 133.092C91.8486 148.014 90.3679 162.67 88.8871 177.364C91.8486 177.364 94.8102 177.364 97.7718 177.364V177.44Z" fill="#4A62FF"/>
<path fill-rule="evenodd" clip-rule="evenodd" d="M134.868 110.538C143.297 103.4 141.36 98.3882 138.816 89.5034C138.057 90.8703 136.804 91.7436 135.665 93.5661C134.716 95.0469 132.855 95.6544 132.59 95.5405C134.108 98.8818 134.868 107.843 134.868 110.538Z" fill="#EB7366"/>
<path fill-rule="evenodd" clip-rule="evenodd" d="M130.501 91.4778C130.122 90.8324 130.843 90.111 127.502 91.7057C126.401 92.1613 123.439 92.0474 123.439 92.1233C121.692 92.1613 121.578 93.0725 122.642 93.3763C124.92 94.0218 131.45 93.9458 130.501 91.5158V91.4778Z" fill="#F8BB97"/>
<path fill-rule="evenodd" clip-rule="evenodd" d="M114.288 30.9171C113.795 38.6628 113.263 46.4085 112.504 53.0151C111.744 59.6217 110.681 65.0513 109.314 70.1012C107.948 75.1511 106.315 79.8213 104.416 83.846C102.518 87.8708 100.392 91.2121 98.6831 94.2876C96.9745 97.3631 95.7215 100.173 94.4305 102.527C93.1396 104.881 91.8486 106.779 91.1652 107.767C90.4818 108.716 90.3678 108.754 89.7603 107.918C89.1149 107.083 87.9758 105.45 87.5202 103.59C87.0645 101.73 87.3303 99.7171 87.9758 96.5277C88.6213 93.3383 89.6844 89.0098 91.1272 84.9851C92.5701 80.9604 94.3926 77.2774 95.8734 74.1259C97.3162 70.9745 98.4173 68.4306 99.0628 66.1904C99.7083 63.9882 99.9361 60.8367 100.088 58.9763C99.2906 60.4571 98.2654 61.6721 97.4681 63.1529C95.6835 61.4063 94.0509 61.1405 92.2663 60.1533C90.4818 59.1661 88.6972 58.9383 86.9506 58.7105C88.887 54.3061 90.8614 49.9016 92.4182 46.5983C93.9749 43.257 95.1899 41.0169 96.4049 39.4222C97.6199 37.8275 98.9109 36.8782 101.872 35.5873C104.872 34.2963 109.58 32.6257 114.326 30.955L114.288 30.9171Z" fill="#EB7366"/>
<path fill-rule="evenodd" clip-rule="evenodd" d="M89.1908 55.1034C88.3934 56.3564 88.1277 57.1917 88.0897 58.2928C88.0517 59.3939 88.2416 60.7228 88.7352 61.71C89.1908 62.6593 89.9502 63.2668 90.8235 63.6465C91.6968 64.0262 92.7219 64.216 93.6332 64.1021C94.5444 63.9882 95.3038 63.6085 95.9873 63.1908C96.6328 62.7352 97.2023 62.2416 97.506 61.71C97.8478 61.1405 97.9237 60.533 98.4553 59.1661C98.9868 57.8372 99.8981 55.7489 100.657 54.1542C101.417 52.5595 102.062 51.3824 103.201 48.9144C104.34 46.4465 106.011 42.6495 107.302 39.574C108.593 36.4985 109.504 34.1445 110.036 32.7396C110.567 31.3347 110.757 30.8791 111.099 30.3855C111.441 29.8919 111.934 29.3224 112.58 28.7528C113.225 28.1833 114.061 27.6138 114.592 27.0822C115.124 26.5506 115.352 26.0191 115.2 25.7153C115.01 25.4116 114.44 25.2597 113.985 25.3736C113.529 25.4875 113.149 25.8292 112.884 25.8292C112.58 25.8292 112.352 25.4116 112.466 24.88C112.58 24.3104 113.073 23.589 113.529 22.9436C114.023 22.2601 114.478 21.6526 114.592 20.7034C114.782 19.0707 114.212 19.3365 113.909 18.653C113.795 18.3873 114.25 18.1974 113.871 17.8177C113.605 17.5519 112.997 17.7038 112.846 17.6658C112.618 17.5519 112.542 17.0963 112.276 17.0204C111.744 16.9065 111.593 17.2862 111.327 17.2102C110.454 16.8685 110.15 16.9824 108.897 18.8809C107.644 20.7413 107.948 20.4376 107.644 21.2349C107.378 22.0323 107.112 22.8676 106.998 23.7789C106.884 24.6901 106.884 25.6394 106.695 26.4747C106.505 27.31 106.163 28.0314 105.366 29.3983C104.568 30.7652 103.315 32.7776 101.835 35.1696C100.354 37.5617 98.6451 40.2575 97.0504 42.8774C95.4937 45.4972 94.0508 48.0032 92.684 50.0915C91.3171 52.1798 90.0261 53.8884 89.2288 55.1414L89.1908 55.1034Z" fill="#F9B186"/>
<path fill-rule="evenodd" clip-rule="evenodd" d="M146.98 8.13559H232.41V19.7162H146.98V8.13559Z" fill="#5E5A5A"/>
<path fill-rule="evenodd" clip-rule="evenodd" d="M162.205 14.0967L175.684 66.0765C176.292 68.3926 174.773 70.7847 172.305 71.4301L167.369 72.7211C164.901 73.3666 162.395 71.9997 161.826 69.6836L148.347 17.7038C147.739 15.3877 149.258 12.9956 151.726 12.3502L156.662 11.0592C159.13 10.4137 161.636 11.7806 162.205 14.0967Z" fill="#87878A"/>
<path fill-rule="evenodd" clip-rule="evenodd" d="M164.066 63.8743L165.661 63.4566L168.28 67.0637L168.812 62.6593L170.407 62.2416L169.42 68.6204L168.053 68.9621L164.066 63.8743ZM163.458 56.6981L164.939 56.3184L166.458 62.1657L164.977 62.5454L163.458 56.6981ZM166.002 56.0526L167.483 55.6729L169.002 61.5202L167.521 61.8999L166.002 56.0526ZM165.813 45.2694L166.268 46.978L162.357 49.5219L167.028 49.8257L167.445 51.4963L161.066 50.8888L159.927 50.7749C159.548 50.737 159.244 50.661 159.016 50.5851C158.788 50.5091 158.598 50.3952 158.446 50.2813C158.295 50.1295 158.143 49.9776 158.029 49.7498C157.915 49.5219 157.801 49.2562 157.725 48.9524C157.649 48.6487 157.611 48.3449 157.573 48.0032L158.788 47.5476C158.788 47.8133 158.826 48.0412 158.902 48.231C159.016 48.6107 159.168 48.8385 159.434 48.9904C159.699 49.1043 160.003 49.1802 160.383 49.1802L165.85 45.3074L165.813 45.2694ZM159.168 44.586L158.75 42.9913L164.787 41.4345L165.167 42.9153L164.294 43.1431C164.749 43.295 165.091 43.4469 165.281 43.6367C165.471 43.8266 165.585 44.0164 165.661 44.2822C165.737 44.6619 165.737 45.0416 165.623 45.4213L164.104 45.2694C164.218 44.9657 164.218 44.6999 164.18 44.4341C164.104 44.2063 164.028 44.0544 163.838 43.9025C163.686 43.7886 163.42 43.7127 163.079 43.7127C162.737 43.7127 162.054 43.8266 161.028 44.0924L159.168 44.586ZM164.522 40.3714L163.231 40.7131L162.965 39.612L160.535 40.2575C160.041 40.3714 159.737 40.4853 159.662 40.5233C159.586 40.5612 159.548 40.6372 159.51 40.7131C159.472 40.789 159.472 40.903 159.51 41.0169C159.548 41.1687 159.662 41.3586 159.813 41.6244L158.598 42.08C158.333 41.7383 158.143 41.3586 158.029 40.865C157.953 40.5612 157.953 40.2954 157.953 40.0297C157.991 39.7639 158.067 39.574 158.181 39.4222C158.295 39.2703 158.484 39.1564 158.75 39.0425C158.94 38.9665 159.282 38.8526 159.851 38.7007L162.471 38.0173L162.281 37.2959L163.572 36.9542L163.762 37.6756L164.977 37.3718L166.344 38.7387L164.218 39.3082L164.484 40.4094L164.522 40.3714ZM157.345 37.5237L156.928 35.929L160.003 35.1316C160.649 34.9798 161.066 34.8279 161.256 34.714C161.446 34.6001 161.56 34.4482 161.636 34.2584C161.712 34.0685 161.712 33.8787 161.636 33.6508C161.56 33.3851 161.408 33.1572 161.218 32.9674C160.99 32.7776 160.763 32.7016 160.497 32.6637C160.231 32.6637 159.737 32.7396 159.092 32.8915L156.358 33.6129L155.941 32.0182L161.978 30.4614L162.357 31.9422L161.484 32.1701C162.319 32.5118 162.813 33.0813 163.041 33.9166C163.117 34.2584 163.155 34.6001 163.117 34.9418C163.079 35.2835 162.965 35.5113 162.813 35.7392C162.661 35.929 162.471 36.1188 162.205 36.2327C161.978 36.3467 161.636 36.4985 161.142 36.6124L157.383 37.5996L157.345 37.5237ZM158.712 28.2213C159.168 28.1074 159.51 27.8795 159.662 27.5758C159.851 27.272 159.889 26.9683 159.813 26.6645C159.737 26.3228 159.51 26.057 159.206 25.9051C158.902 25.7533 158.522 25.7153 158.067 25.8292L158.674 28.2213H158.712ZM157.08 28.563L157.231 30.2336C156.586 30.1957 156.054 29.9678 155.637 29.5882C155.219 29.2085 154.915 28.7149 154.763 28.0314C154.498 26.9683 154.65 26.095 155.181 25.4115C155.637 24.88 156.282 24.5003 157.118 24.2725C158.105 24.0067 158.978 24.0826 159.662 24.4623C160.383 24.842 160.839 25.4115 161.028 26.2469C161.256 27.1581 161.142 27.9175 160.687 28.601C160.231 29.2844 159.396 29.778 158.143 30.0438L157.118 26.0191C156.662 26.1709 156.32 26.3608 156.092 26.7025C155.903 27.0063 155.827 27.348 155.941 27.7277C156.016 27.9934 156.13 28.1833 156.32 28.2972C156.51 28.4491 156.738 28.487 157.08 28.525V28.563ZM151.46 24.9559L151.156 23.8548C151.878 23.0575 152.675 22.374 153.548 21.8045C154.422 21.2729 155.295 20.8553 156.168 20.6274C157.269 20.3617 158.371 20.2477 159.434 20.3996C160.383 20.5135 161.256 20.7034 162.092 21.0451L162.357 22.1462C161.066 21.9184 160.003 21.8045 159.13 21.8424C158.257 21.8424 157.383 21.9943 156.472 22.2221C155.865 22.374 155.219 22.6018 154.612 22.9056C154.004 23.1714 153.397 23.5131 152.865 23.8548C152.523 24.0826 152.03 24.4623 151.384 24.9939L151.46 24.9559Z" fill="white"/>
<path fill-rule="evenodd" clip-rule="evenodd" d="M225.053 14.2071L246.023 95.1301C246.686 97.7144 245.219 100.347 242.791 100.999L237.823 102.282C235.357 102.927 232.825 101.324 232.125 98.7326L211.155 17.8096C210.493 15.2253 211.959 12.5923 214.388 11.9409L219.356 10.6579C221.822 10.0131 224.353 11.6162 225.053 14.2071Z" fill="#FF7061"/>
<path fill-rule="evenodd" clip-rule="evenodd" d="M239.527 96.8223C239.978 96.6705 240.317 96.4989 240.488 96.1821C240.653 95.9028 240.712 95.5663 240.653 95.2473C240.563 94.8844 240.371 94.6579 240.055 94.4864C239.738 94.3149 239.357 94.2863 238.951 94.4074L239.571 96.7915L239.527 96.8223ZM237.889 97.1503L238.016 98.8307C237.367 98.7934 236.826 98.5823 236.43 98.204C235.99 97.8566 235.696 97.3419 235.546 96.6601C235.269 95.6088 235.42 94.7488 235.964 94.0735C236.406 93.5345 237.052 93.1473 237.897 92.9493C238.904 92.7028 239.747 92.7356 240.448 93.1293C241.15 93.5229 241.588 94.1013 241.83 94.915C242.059 95.8036 241.958 96.5954 241.489 97.284C241.021 97.9725 240.167 98.4389 238.96 98.7272L237.93 94.7286C237.442 94.8739 237.134 95.0895 236.925 95.3996C236.716 95.7098 236.657 96.0463 236.784 96.4158C236.857 96.6599 236.974 96.8733 237.147 96.981C237.314 97.1262 237.576 97.1723 237.919 97.1943L237.889 97.1503ZM234.232 90.9922L235.121 90.7633C234.76 90.6226 234.412 90.4071 234.122 90.086C233.832 89.765 233.66 89.4263 233.539 89.0194C233.418 88.6125 233.447 88.232 233.512 87.858C233.616 87.4907 233.787 87.174 234.095 86.9584C234.366 86.7362 234.823 86.547 235.386 86.4149L239.222 85.4334L239.631 87.0478L236.847 87.752C235.996 87.9875 235.47 88.1261 235.294 88.2493C235.118 88.3725 234.98 88.5023 234.909 88.6827C234.839 88.863 234.837 89.094 234.909 89.3381C234.975 89.6196 235.129 89.8396 235.327 90.0287C235.525 90.2178 235.743 90.2948 236.005 90.3409C236.236 90.3431 236.792 90.2484 237.674 90.0569L240.221 89.3879L240.63 91.0023L234.573 92.556L234.182 91.0604L234.232 90.9922ZM232.419 84.0025L232.009 82.3881L238.067 80.8344L238.458 82.33L237.607 82.5655C238.08 82.726 238.403 82.8601 238.601 83.0492C238.762 83.2318 238.916 83.4517 238.989 83.6958C239.079 84.0587 239.088 84.4458 238.94 84.844L237.425 84.6924C237.522 84.3625 237.568 84.1007 237.495 83.8566C237.423 83.6125 237.337 83.4431 237.163 83.3354C236.996 83.1902 236.734 83.1441 236.391 83.1221C236.048 83.1002 235.366 83.2498 234.315 83.5271L232.456 84.0091L232.419 84.0025ZM237.789 79.7831L236.5 80.0956L236.23 79.0069L233.802 79.6583C233.313 79.8035 233.032 79.8695 232.944 79.9311C232.863 79.9553 232.812 80.0235 232.792 80.1357C232.779 80.2105 232.759 80.3227 232.777 80.4414C232.825 80.6042 232.911 80.7736 233.096 81.0375L231.899 81.4819C231.646 81.1674 231.451 80.7474 231.343 80.2657C231.277 79.9842 231.248 79.7092 231.294 79.4475C231.34 79.1857 231.411 79.0054 231.556 78.8382C231.694 78.7084 231.877 78.5478 232.128 78.4378C232.297 78.352 232.667 78.2244 233.23 78.0923L235.858 77.3991L235.677 76.6733L236.966 76.3608L237.147 77.0866L238.361 76.7609L239.703 78.1156L237.563 78.6636L237.833 79.7523L237.789 79.7831ZM230.45 67.6165L231.946 67.2248L233.458 73.0819L231.962 73.4736L230.45 67.6165ZM232.997 66.9475L234.455 66.5492L235.967 72.4063L234.509 72.8046L232.997 66.9475ZM231.766 56.4363L232.2 58.1321L228.28 60.6796L232.935 60.9605L233.375 62.6189L227.007 61.9973L225.872 61.8743C225.498 61.8084 225.162 61.749 224.944 61.6721C224.726 61.5951 224.552 61.4874 224.385 61.3422C224.218 61.1971 224.095 61.0211 223.941 60.8012C223.824 60.5879 223.721 60.2998 223.617 60.0116C223.558 59.6927 223.492 59.4112 223.477 59.0615L224.68 58.5796C224.708 58.8546 224.743 59.0921 224.785 59.2922C224.876 59.6551 225.06 59.9191 225.309 60.04C225.557 60.1609 225.894 60.2203 226.237 60.2422L231.704 56.3484L231.766 56.4363ZM228.715 54.9345C229.166 54.7827 229.505 54.6111 229.676 54.2943C229.841 54.015 229.901 53.6784 229.841 53.3595C229.751 52.9966 229.559 52.7701 229.243 52.5986C228.926 52.427 228.545 52.3985 228.139 52.5195L228.759 54.9037L228.715 54.9345ZM227.077 55.2625L227.204 56.9428C226.556 56.9055 226.052 56.7011 225.618 56.3162C225.179 55.9688 224.884 55.4541 224.734 54.7723C224.457 53.721 224.608 52.8609 225.152 52.1856C225.594 51.6467 226.24 51.2595 227.085 51.0614C228.092 50.8149 228.935 50.8478 229.636 51.2414C230.338 51.635 230.776 52.2134 231.018 53.0272C231.247 53.9158 231.146 54.7076 230.677 55.3961C230.209 56.0846 229.355 56.551 228.148 56.8393L227.118 52.8408C226.63 52.986 226.322 53.2016 226.113 53.5118C225.904 53.8219 225.845 54.1585 225.972 54.528C226.045 54.7721 226.162 54.9854 226.335 55.0932C226.503 55.2383 226.764 55.2845 227.107 55.3064L227.077 55.2625ZM223.805 50.6374L223.396 49.023L226.469 48.2154C227.113 48.0591 227.526 47.9007 227.702 47.7775C227.878 47.6543 227.98 47.5179 228.05 47.3375C228.12 47.1572 228.116 46.9636 228.081 46.7261C228.015 46.4446 227.861 46.2246 227.663 46.0355C227.465 45.8464 227.209 45.7628 226.941 45.7541C226.673 45.7453 226.198 45.8158 225.509 46.0028L222.762 46.7136L222.353 45.0993L228.41 43.5456L228.802 45.0412L227.913 45.27C228.74 45.6086 229.253 46.2002 229.458 47.0074C229.548 47.3703 229.57 47.6827 229.51 48.0192C229.451 48.3557 229.368 48.6109 229.178 48.8088C229.027 49.0134 228.807 49.1674 228.593 49.284C228.343 49.394 228.011 49.5282 227.529 49.6361L223.775 50.5934L223.805 50.6374ZM223.9 38.5094C223.293 38.6722 222.867 38.9054 222.645 39.2904C222.385 39.6687 222.319 40.0426 222.44 40.4495C222.561 40.8564 222.814 41.1709 223.199 41.393C223.591 41.5777 224.083 41.626 224.69 41.4632C225.297 41.3003 225.687 41.0605 225.946 40.6822C226.206 40.3038 226.272 39.9299 226.151 39.523C226.03 39.1161 225.777 38.8016 225.392 38.5795C225 38.3948 224.507 38.3465 223.9 38.5094ZM223.579 36.8334C224.105 36.6947 224.648 36.6749 225.24 36.8178C225.794 36.9541 226.284 37.2333 226.674 37.649C227.063 38.0646 227.321 38.5727 227.49 39.1423C227.712 40.0683 227.605 40.8975 227.167 41.63C226.729 42.3625 226.063 42.8619 225.137 43.0841C224.211 43.3064 223.375 43.2361 222.643 42.7985C221.873 42.3544 221.411 41.6946 221.145 40.7994C221.013 40.2364 220.993 39.6931 221.098 39.0948C221.235 38.5405 221.476 38.0434 221.892 37.654C222.308 37.2647 222.86 36.9765 223.548 36.7894L223.579 36.8334ZM223.881 25.9371L224.273 27.4327L223.466 27.6373C224.249 28.0067 224.73 28.5543 224.911 29.2801C224.995 29.6804 225.01 30.0302 224.913 30.3601C224.817 30.69 224.652 30.9694 224.368 31.2664C224.759 31.4511 225.07 31.66 225.329 31.9371C225.551 32.2076 225.73 32.5089 225.82 32.8718C225.934 33.3161 225.943 33.7032 225.84 34.0705C225.736 34.4378 225.534 34.7106 225.22 34.9636C224.993 35.155 224.58 35.3134 224.017 35.4454L220.137 36.4578L219.727 34.8434L223.2 33.9521C223.807 33.7893 224.183 33.6242 224.322 33.4945C224.511 33.2965 224.557 33.0347 224.498 32.7158C224.425 32.4717 224.302 32.2957 224.135 32.1506C223.93 31.9989 223.719 31.8845 223.413 31.8692C223.108 31.8538 222.714 31.9 222.144 32.0695L219.234 32.8287L218.825 31.2143L222.135 30.3715C222.742 30.2086 223.112 30.081 223.244 29.9886C223.413 29.9028 223.514 29.7664 223.541 29.6169C223.604 29.4739 223.593 29.3177 223.558 29.0802C223.486 28.836 223.369 28.6227 223.202 28.4776C222.997 28.3258 222.786 28.2115 222.518 28.2027C222.249 28.194 221.818 28.2336 221.249 28.4031L218.301 29.1557L217.892 27.5413L223.949 25.9876L223.881 25.9371ZM218.048 23.5976C218.195 23.8549 218.349 24.0749 218.635 24.2024C218.884 24.3233 219.152 24.3321 219.433 24.2661C219.678 24.1934 219.891 24.0768 220.043 23.8723C220.194 23.6677 220.285 23.3752 220.269 23.0254L218.048 23.5976ZM223.907 21.1993C223.79 20.986 223.586 20.8343 223.368 20.7573C223.15 20.6804 222.926 20.6408 222.719 20.72C222.519 20.7618 222.343 20.885 222.198 21.0522C222.053 21.2194 221.976 21.4372 221.93 21.6989L223.907 21.1993ZM217.924 22.7662L220.309 22.1456C220.335 21.3406 220.522 20.7181 220.838 20.2342C221.186 19.7943 221.67 19.4555 222.277 19.2926C222.884 19.1298 223.489 19.1979 224.017 19.4837C224.544 19.7696 224.927 20.2226 225.158 20.8802L225.721 20.7482L225.926 21.5554L225.363 21.6874C225.444 22.3187 225.352 22.8422 225.117 23.3019C224.882 23.7616 224.479 24.0762 223.934 24.327L223.373 22.9172C223.793 22.7214 224.039 22.4178 224.111 22.0065L221.89 22.5787C221.875 23.5399 221.712 24.2438 221.402 24.6903C221.092 25.1368 220.621 25.4008 220.014 25.5637C219.326 25.7507 218.684 25.676 218.118 25.3836C217.553 25.0911 217.102 24.5875 216.803 23.8793L215.751 24.1566L215.547 23.3494L216.598 23.0721C216.523 22.4035 216.629 21.8052 216.915 21.2773C217.2 20.7494 217.735 20.3424 218.443 20.0432L218.998 21.4904C218.703 21.6312 218.476 21.8226 218.287 22.0205C218.091 22.2559 218.015 22.4737 217.938 22.6914L217.924 22.7662Z" fill="white"/>
<path d="M157.839 15.3877C158.657 15.3877 159.32 14.7247 159.32 13.9069C159.32 13.0891 158.657 12.4261 157.839 12.4261C157.021 12.4261 156.358 13.0891 156.358 13.9069C156.358 14.7247 157.021 15.3877 157.839 15.3877Z" fill="#E1DEDE"/>
<path d="M221.931 15.3877C222.749 15.3877 223.412 14.7247 223.412 13.9069C223.412 13.0891 222.749 12.4261 221.931 12.4261C221.113 12.4261 220.45 13.0891 220.45 13.9069C220.45 14.7247 221.113 15.3877 221.931 15.3877Z" fill="#E1DEDE"/>
<path fill-rule="evenodd" clip-rule="evenodd" d="M204.807 14.4764L220.184 65.431C221.058 68.3167 219.767 71.4301 217.337 72.3034L212.401 74.05C209.971 74.9233 207.237 73.2527 206.364 70.367L190.986 19.4124C190.113 16.5268 191.404 13.4133 193.834 12.54L198.77 10.7934C201.2 9.92014 203.934 11.5908 204.807 14.4764Z" fill="#389E4D"/>
<path d="M200.592 15.3877C201.41 15.3877 202.073 14.7247 202.073 13.9069C202.073 13.0891 201.41 12.4261 200.592 12.4261C199.774 12.4261 199.111 13.0891 199.111 13.9069C199.111 14.7247 199.774 15.3877 200.592 15.3877Z" fill="#E1DEDE"/>
<path fill-rule="evenodd" clip-rule="evenodd" d="M184.076 14.6663L201.769 80.5048C202.567 83.4284 201.2 86.352 198.732 87.0354L193.796 88.3644C191.328 89.0098 188.708 87.1494 187.911 84.2257L170.217 18.3873C169.42 15.4636 170.786 12.54 173.254 11.8566L178.19 10.5277C180.658 9.88217 183.278 11.7427 184.076 14.6663Z" fill="#BC82B7"/>
<path fill-rule="evenodd" clip-rule="evenodd" d="M189.012 82.1754C189.771 82.2893 190.341 82.3652 190.758 82.4032C191.138 82.4412 191.594 82.4412 192.087 82.4032C192.581 82.3652 193.036 82.3273 193.492 82.2893C193.91 82.2134 194.365 82.1374 194.821 81.9856C195.732 81.7198 196.53 81.416 197.289 80.9984C198.048 80.5807 198.922 79.9352 199.909 79.0999L200.213 80.201C199.567 80.9984 198.808 81.6818 198.01 82.2513C197.175 82.8209 196.302 83.2385 195.39 83.5043C194.593 83.7321 193.72 83.846 192.733 83.846C191.632 83.846 190.492 83.6562 189.353 83.2765L189.05 82.1754H189.012ZM188.784 81.378L188.48 80.2769C189.201 79.4416 189.961 78.7582 190.834 78.1886C191.707 77.6191 192.543 77.2014 193.454 76.9736C194.555 76.6699 195.618 76.556 196.719 76.6699C197.669 76.7458 198.542 76.9357 199.415 77.2394L199.719 78.3405C198.428 78.1507 197.365 78.0747 196.492 78.0747C195.618 78.1127 194.745 78.2646 193.872 78.4924C193.264 78.6822 192.619 78.9101 192.011 79.2138C191.404 79.5176 190.834 79.8593 190.303 80.201C189.961 80.4288 189.467 80.8465 188.822 81.378H188.784ZM189.126 73.2147L188.67 71.62L191.745 70.7467C192.391 70.5568 192.809 70.405 192.96 70.2911C193.112 70.1772 193.264 70.0253 193.302 69.8354C193.378 69.6456 193.378 69.4557 193.302 69.2279C193.226 68.9621 193.074 68.7343 192.885 68.5445C192.657 68.3546 192.429 68.2787 192.163 68.2787C191.897 68.2787 191.404 68.3546 190.758 68.5445L188.024 69.3039L187.569 67.7092L193.606 66.0006L194.024 67.4813L193.15 67.7471C193.986 68.0889 194.517 68.6584 194.745 69.4557C194.859 69.7975 194.859 70.1392 194.821 70.4809C194.783 70.8226 194.669 71.0884 194.517 71.2783C194.365 71.4681 194.175 71.658 193.948 71.7719C193.72 71.8858 193.378 72.0376 192.885 72.1516L189.126 73.2147ZM188.974 61.0646C188.366 61.2164 187.949 61.5202 187.721 61.8619C187.493 62.2416 187.417 62.6213 187.531 63.039C187.645 63.4566 187.911 63.7604 188.29 63.9502C188.67 64.1401 189.201 64.1401 189.809 63.9882C190.379 63.8363 190.796 63.5705 191.062 63.1908C191.29 62.8111 191.366 62.4315 191.252 62.0138C191.138 61.5961 190.872 61.2924 190.492 61.1025C190.113 60.9127 189.581 60.9127 189.012 61.0646H188.974ZM188.594 59.3939C189.126 59.242 189.657 59.242 190.227 59.356C190.796 59.4699 191.29 59.7356 191.669 60.1533C192.049 60.571 192.353 61.0646 192.505 61.6341C192.771 62.5454 192.657 63.3807 192.239 64.1401C191.821 64.8994 191.138 65.393 190.227 65.6588C189.315 65.9246 188.48 65.8487 187.721 65.431C186.961 65.0134 186.468 64.3679 186.202 63.4566C186.05 62.8871 186.012 62.3555 186.126 61.786C186.24 61.2164 186.506 60.7228 186.885 60.3432C187.303 59.9635 187.835 59.6597 188.518 59.4699L188.594 59.3939ZM184.683 57.4195L190.682 55.7109L191.138 57.3056L185.101 59.0142L184.645 57.4195H184.683ZM191.518 55.4831L192.998 55.0654L193.454 56.6601L191.973 57.0778L191.518 55.4831ZM190.379 54.6098L189.126 54.9515L188.822 53.8504L186.392 54.5339C185.898 54.6858 185.632 54.7617 185.556 54.7997C185.481 54.8376 185.443 54.9136 185.405 54.9895C185.367 55.0654 185.367 55.1793 185.405 55.2933C185.443 55.4451 185.556 55.635 185.746 55.9008L184.569 56.3944C184.303 56.0526 184.114 55.6729 183.962 55.2173C183.886 54.9136 183.848 54.6478 183.886 54.42C183.924 54.1542 184 53.9643 184.114 53.8125C184.228 53.6606 184.417 53.5467 184.683 53.3948C184.873 53.3189 185.215 53.205 185.784 53.0151L188.404 52.2937L188.214 51.5723L189.467 51.2306L189.657 51.952L190.872 51.6103L192.239 52.9392L190.113 53.5467L190.417 54.6478L190.379 54.6098ZM187.493 51.1546L186.771 49.6738C187.075 49.5219 187.265 49.3321 187.379 49.1043C187.493 48.8765 187.493 48.6107 187.417 48.3069C187.303 47.9272 187.075 47.6235 186.734 47.4716C186.392 47.3197 185.898 47.3197 185.253 47.5096C184.531 47.6994 184.076 47.9652 183.848 48.3069C183.62 48.6107 183.582 48.9904 183.696 49.408C183.772 49.7118 183.924 49.9396 184.152 50.0915C184.379 50.2434 184.721 50.2813 185.139 50.2434L185.329 51.876C184.569 51.914 183.924 51.7621 183.43 51.3824C182.937 51.0407 182.595 50.4712 182.367 49.6738C182.101 48.8005 182.215 48.0032 182.595 47.3197C183.013 46.6363 183.696 46.1427 184.683 45.8769C185.67 45.6111 186.506 45.6491 187.227 46.0288C187.949 46.4085 188.404 47.016 188.67 47.9272C188.86 48.6487 188.898 49.2941 188.67 49.8257C188.48 50.3573 188.062 50.7749 187.493 51.1546ZM181.304 45.4972L180.848 43.9025L183.924 43.0292C184.569 42.8394 184.987 42.6875 185.139 42.5736C185.291 42.4597 185.443 42.3078 185.481 42.118C185.556 41.9281 185.556 41.7383 185.481 41.5105C185.405 41.2447 185.253 41.0169 185.063 40.827C184.835 40.6372 184.607 40.5612 184.341 40.5612C184.076 40.5612 183.582 40.6372 182.937 40.827L180.203 41.5864L179.747 39.9917L185.784 38.2831L186.202 39.7639L185.329 40.0297C186.164 40.3714 186.696 40.9409 186.923 41.7383C187.037 42.08 187.037 42.4217 186.999 42.7634C186.961 43.1052 186.847 43.3709 186.696 43.5608C186.544 43.7506 186.354 43.9405 186.126 44.0544C185.898 44.1683 185.556 44.3202 185.063 44.4341L181.304 45.4972ZM178.874 36.8782L179.785 36.6124C179.405 36.4985 179.064 36.2707 178.798 35.967C178.532 35.6632 178.304 35.3215 178.19 34.9038C178.077 34.4862 178.077 34.1065 178.152 33.7268C178.228 33.3471 178.418 33.0433 178.722 32.8155C178.988 32.5877 179.443 32.3979 180.013 32.208L183.81 31.1449L184.266 32.7396L181.494 33.499C180.658 33.7268 180.127 33.9166 179.975 34.0305C179.785 34.1445 179.671 34.2963 179.595 34.4862C179.519 34.676 179.519 34.9038 179.595 35.1316C179.671 35.3974 179.823 35.6252 180.013 35.8151C180.241 36.0049 180.431 36.0809 180.696 36.1188C180.924 36.1188 181.494 36.0049 182.367 35.7771L184.911 35.0557L185.367 36.6504L179.367 38.359L178.95 36.8782H178.874ZM182.481 26.6645L182.747 27.5378L183.202 27.4239C183.696 27.272 184.114 27.2341 184.379 27.272C184.645 27.31 184.911 27.4619 185.139 27.6897C185.367 27.9175 185.556 28.2972 185.67 28.7149C185.784 29.1705 185.86 29.6261 185.86 30.1197L184.683 30.2336C184.683 29.9678 184.645 29.7021 184.569 29.4742C184.493 29.2464 184.417 29.0946 184.266 29.0186C184.114 28.9427 183.924 28.9427 183.62 29.0566L183.202 29.1705L183.544 30.3475L182.291 30.6893L181.949 29.5122L177.165 30.8411L176.71 29.2464L181.494 27.9175L181.228 27.0442L182.481 26.7025V26.6645Z" fill="#FEFEFE"/>
<path fill-rule="evenodd" clip-rule="evenodd" d="M209.097 64.3299L208.566 62.7732L214.489 60.8367L214.983 62.2796L214.147 62.5454C214.641 62.6593 214.983 62.8111 215.172 62.963C215.362 63.1149 215.514 63.3427 215.59 63.5705C215.704 63.9122 215.704 64.2919 215.628 64.7096L214.109 64.6716C214.185 64.3679 214.185 64.0641 214.109 63.8363C214.033 63.6085 213.919 63.4566 213.73 63.3427C213.578 63.2288 213.312 63.1908 212.97 63.1908C212.628 63.1908 211.945 63.3807 210.92 63.7224L209.097 64.3299ZM211.148 58.8244C211.603 58.6725 211.907 58.4447 212.059 58.1409C212.211 57.8372 212.249 57.5334 212.135 57.1917C212.021 56.85 211.793 56.6222 211.489 56.4703C211.186 56.3184 210.806 56.3184 210.35 56.4703L211.11 58.8244H211.148ZM209.515 59.242L209.781 60.9127C209.135 60.9127 208.604 60.7228 208.148 60.3811C207.692 60.0394 207.389 59.5458 207.161 58.9003C206.819 57.8752 206.895 57.0019 207.427 56.2804C207.844 55.7109 208.452 55.2933 209.287 55.0275C210.274 54.6857 211.11 54.7237 211.869 55.0275C212.59 55.3692 213.084 55.9008 213.35 56.6981C213.654 57.5714 213.578 58.3688 213.16 59.0902C212.742 59.7736 211.945 60.3431 210.73 60.7228L209.439 56.774C208.983 56.9259 208.642 57.1917 208.49 57.4955C208.3 57.8372 208.262 58.1789 208.414 58.5206C208.49 58.7484 208.642 58.9383 208.832 59.0902C209.021 59.2041 209.287 59.28 209.591 59.242H209.515ZM207.692 49.6738C207.047 49.8637 206.629 50.1295 206.402 50.3952C206.06 50.7749 205.984 51.1926 206.136 51.6482C206.25 52.0279 206.515 52.2557 206.895 52.4076C207.275 52.5595 207.768 52.5215 208.414 52.3317C209.097 52.1038 209.553 51.8381 209.781 51.4963C210.009 51.1546 210.047 50.7749 209.933 50.3952C209.819 50.0155 209.553 49.7498 209.173 49.5979C208.794 49.446 208.3 49.446 207.73 49.6738H207.692ZM205.984 54.8756L205.49 53.4328L206.364 53.129C205.946 53.0151 205.604 52.7873 205.338 52.5215C205.073 52.2557 204.883 51.952 204.769 51.6102C204.541 50.9268 204.617 50.2434 205.035 49.5979C205.414 48.9144 206.098 48.4208 207.085 48.1171C208.11 47.7754 208.945 47.7754 209.629 48.0791C210.312 48.3829 210.768 48.8765 210.996 49.6359C211.224 50.2813 211.11 50.9648 210.73 51.6482L213.692 50.661L214.223 52.2178L206.022 54.9136L205.984 54.8756ZM203.212 46.4844L202.681 44.9277L208.604 42.9913L209.097 44.4341L208.262 44.6999C208.756 44.8138 209.097 44.9656 209.287 45.1175C209.477 45.2694 209.629 45.4972 209.705 45.725C209.819 46.0668 209.819 46.4464 209.743 46.8641L208.224 46.8261C208.3 46.5224 208.3 46.2186 208.224 45.9908C208.148 45.763 208.034 45.6111 207.844 45.4972C207.692 45.3833 207.427 45.3453 207.085 45.3453C206.743 45.3453 206.06 45.5352 205.035 45.8769L203.212 46.4844ZM203.782 38.2451C203.174 38.435 202.794 38.7387 202.567 39.1184C202.339 39.4981 202.301 39.9158 202.453 40.2954C202.605 40.7131 202.87 41.0169 203.25 41.1687C203.668 41.3586 204.161 41.3206 204.769 41.1308C205.338 40.9409 205.756 40.6372 205.984 40.2575C206.212 39.8778 206.25 39.4981 206.098 39.0804C205.946 38.6628 205.68 38.359 205.3 38.2071C204.883 38.0173 204.389 38.0553 203.82 38.2451H203.782ZM203.326 36.6124C203.858 36.4226 204.389 36.4226 204.959 36.4985C205.528 36.6124 206.022 36.8403 206.439 37.2199C206.857 37.5996 207.161 38.0932 207.351 38.6628C207.654 39.574 207.579 40.4094 207.199 41.1687C206.819 41.9281 206.174 42.4597 205.262 42.7634C204.351 43.0672 203.516 43.0292 202.756 42.6116C201.959 42.2319 201.428 41.5864 201.162 40.7131C200.972 40.1815 200.934 39.612 201.01 39.0425C201.086 38.4729 201.314 37.9793 201.731 37.5617C202.111 37.144 202.643 36.8403 203.326 36.6124ZM197.593 37.5617L197.251 36.4985C197.934 35.6632 198.694 34.9038 199.491 34.2963C200.326 33.6888 201.162 33.2332 202.035 32.9674C203.098 32.6257 204.199 32.4738 205.262 32.5118C206.212 32.5497 207.123 32.7016 207.958 32.9674L208.3 34.0305C207.009 33.8787 205.908 33.8407 205.073 33.9166C204.199 33.9926 203.364 34.1824 202.453 34.4482C201.845 34.638 201.238 34.9038 200.63 35.2456C200.023 35.5873 199.453 35.929 198.96 36.3087C198.618 36.5745 198.162 36.9542 197.555 37.5237L197.593 37.5617ZM202.035 25.1837L202.339 26.057L202.794 25.9051C203.288 25.7533 203.668 25.6773 203.971 25.7153C204.237 25.7533 204.503 25.8672 204.769 26.095C205.035 26.3228 205.224 26.6645 205.338 27.1202C205.49 27.5758 205.566 28.0314 205.566 28.487L204.389 28.6389C204.351 28.3731 204.313 28.1074 204.237 27.8795C204.161 27.6517 204.047 27.4998 203.934 27.4239C203.782 27.348 203.592 27.3859 203.288 27.4619L202.87 27.6138L203.25 28.7908L201.997 29.2085L201.617 28.0314L196.909 29.5882L196.378 28.0314L201.086 26.4747L200.782 25.6014L202.035 25.1837ZM195.277 24.6522L201.2 22.7157L201.731 24.2725L195.808 26.2089L195.277 24.6522ZM202.035 22.45L203.478 21.9564L204.009 23.5131L202.567 24.0067L202.035 22.45Z" fill="white"/>
<path d="M179.216 15.3877C180.033 15.3877 180.696 14.7247 180.696 13.9069C180.696 13.0891 180.033 12.4261 179.216 12.4261C178.398 12.4261 177.735 13.0891 177.735 13.9069C177.735 14.7247 178.398 15.3877 179.216 15.3877Z" fill="#E1DEDE"/>
</svg>
