<?xml version="1.0" encoding="UTF-8"?>
<!DOCTYPE svg PUBLIC "-//W3C//DTD SVG 1.1//EN" "http://www.w3.org/Graphics/SVG/1.1/DTD/svg11.dtd">
<!-- Creator: CorelDRAW X5 -->
<svg xmlns="http://www.w3.org/2000/svg" xml:space="preserve" width="1921.62mm" height="1106.71mm" style="shape-rendering:geometricPrecision; text-rendering:geometricPrecision; image-rendering:optimizeQuality; fill-rule:evenodd; clip-rule:evenodd"
viewBox="0 0 381768 219870"
 xmlns:xlink="http://www.w3.org/1999/xlink">
 <defs>
  <style type="text/css">
   <![CDATA[
    .fil9 {fill:#FFED00}
    .fil6 {fill:#3B84CC}
    .fil0 {fill:#CFE3EB}
    .fil3 {fill:#E84848}
    .fil2 {fill:#FF8C81}
    .fil1 {fill:white}
    .fil8 {fill:#1F1B20}
    .fil5 {fill:#F6F6F7}
    .fil4 {fill:#FEFEFE}
    .fil7 {fill:url(#id0)}
   ]]>
  </style>
  <linearGradient id="id0" gradientUnits="userSpaceOnUse" x1="321450" y1="82621.8" x2="301634" y2="81520.7">
   <stop offset="0" style="stop-color:#CFE3EB"/>
   <stop offset="0.65098" style="stop-color:#E6F0F4"/>
   <stop offset="1" style="stop-color:#FEFEFE"/>
  </linearGradient>
 </defs>
 <g id="Vrstva_x0020_1">
  <metadata id="CorelCorpID_0Corel-Layer"/>
  <g id="_470704536">
   <rect class="fil0" width="381768" height="219870"/>
   <g>
    <path class="fil1" d="M311257 118036c-374,-135 -610,-325 -738,-652 -288,-734 462,-1687 1714,-2179 1113,-437 2278,-330 2672,269 632,-436 1296,-791 1991,-1064 2087,-819 4183,-795 5540,-198 289,-490 1027,-1062 1861,-1390 418,-164 867,-246 1316,-329 514,-1143 1681,-2260 3489,-2970 1809,-710 3734,-713 4781,-89l417 -164c1391,-546 2760,-330 3048,404 288,734 -569,1823 -1961,2370 -417,164 -727,191 -1038,219 -824,1171 -1916,2070 -3306,2616l-139 55c-54,681 -729,1416 -1842,1853 -279,109 -556,218 -866,246 -407,1007 -1499,1906 -3029,2507 -1529,600 -3113,658 -4128,115 -492,381 -1188,655 -1744,873 -1808,710 -3529,821 -4823,388 -247,191 -663,354 -1081,518 -1808,710 -3690,413 -4106,-647 -320,-816 505,-1987 1971,-2751z"/>
    <path class="fil2" d="M305855 112098c-1731,2491 -3833,6335 -4583,10549 -750,4215 -147,8800 415,10990 562,2190 1084,1984 1558,893 474,-1091 900,-3068 1746,-5512 845,-2443 2109,-5354 3682,-7481 1573,-2127 3454,-3472 3778,-5710 323,-2238 -911,-5368 -2208,-6364 -1297,-996 -2657,143 -4387,2634z"/>
    <path class="fil3" d="M305855 112098c-1731,2491 -3833,6335 -4583,10549 -750,4215 -147,8800 415,10990 562,2190 1084,1984 1558,893 474,-1091 900,-3068 1746,-5512 845,-2443 2109,-5354 3682,-7481 1573,-2127 3454,-3472 3778,-5710 323,-2238 -911,-5368 -2208,-6364 -1297,-996 -2657,143 -4387,2634z"/>
    <path class="fil3" d="M336311 100089c2965,640 7125,2014 10549,4583 3424,2569 6114,6331 7198,8316 1084,1984 562,2190 -529,1716 -1091,-474 -2752,-1628 -5037,-2837 -2285,-1209 -5196,-2473 -7797,-2955 -2601,-481 -4894,-180 -6658,-1595 -1764,-1415 -2998,-4545 -2730,-6159 268,-1613 2039,-1708 5005,-1069z"/>
    <path class="fil4" d="M342246 119829l-1306 515 683 5977 -10934 4311 -10934 4311 -3580 -4834 -1306 515c-7688,-14539 -15377,-29077 -17868,-42081 -2491,-13003 215,-24472 2921,-35940 9805,6535 19609,13070 26663,24275 7054,11204 11357,27078 15660,42951z"/>
    <path class="fil5" d="M342246 119829l-1306 515 683 5977 -10934 4311 -30767 -78029c9805,6535 19609,13070 26663,24275 7054,11204 11357,27078 15660,42951z"/>
    <path class="fil6" d="M309073 75810c3458,-1364 7367,334 8730,3793 1364,3458 -334,7367 -3792,8730 -3458,1364 -7367,-334 -8730,-3793 -1364,-3458 334,-7367 3793,-8730zm-617 -1565c4323,-1704 9208,418 10913,4741 1704,4323 -418,9208 -4741,10913 -4323,1704 -9208,-418 -10913,-4741 -1704,-4323 418,-9208 4741,-10913z"/>
    <path class="fil3" d="M299923 52604c4929,3285 9950,6649 14530,10528l-17965 7083c702,-5935 2080,-11869 3435,-17611z"/>
    <path class="fil7" d="M309073 75810c3458,-1363 7367,334 8730,3793 1364,3458 -334,7367 -3793,8730 -3458,1364 -7367,-334 -8730,-3793 -1364,-3458 334,-7367 3792,-8730z"/>
    <polygon class="fil8" points="342246,119829 340941,120344 341624,126321 330690,130632 319756,134943 316176,130109 314870,130624 "/>
    <path class="fil3" d="M325781 122348c1493,2930 3688,2008 2779,-1169 -7518,-26254 -15180,-23173 -2779,1169z"/>
    <g>
     <path class="fil2" d="M339745 153599c-6661,-4514 -13321,-9028 -14831,-12856 -1509,-3828 1301,-8347 5775,-10111 4474,-1764 9612,-379 11121,3449 1509,3828 -278,11673 -2066,19518z"/>
     <path class="fil9" d="M338602 150699c-5476,-4080 -10951,-8160 -12270,-11504 -1319,-3344 813,-7165 4358,-8563 3545,-1398 7710,-60 9029,3285 1319,3344 101,10063 -1117,16782z"/>
     <path class="fil4" d="M336613 145654c-3329,-3358 -6657,-6715 -7644,-9219 -987,-2504 -116,-5078 1722,-5803 1838,-725 4231,563 5218,3066 987,2504 846,7230 705,11955z"/>
    </g>
    <g>
     <g>
      <path class="fil2" d="M332644 145160c-3250,-3471 -6501,-6943 -6872,-9347 -370,-2404 1839,-4642 4649,-5075 2810,-433 5591,1036 5961,3439 370,2404 -1684,6693 -3738,10982z"/>
      <path class="fil9" d="M332363 143339c-2624,-3066 -5248,-6133 -5572,-8233 -324,-2100 1404,-4024 3630,-4367 2226,-343 4453,972 4776,3072 324,2100 -1255,5814 -2834,9529z"/>
      <path class="fil4" d="M331875 140171c-1481,-2370 -2961,-4740 -3204,-6312 -242,-1572 596,-2942 1750,-3120 1154,-178 2366,877 2608,2449 242,1572 -456,4278 -1154,6984z"/>
     </g>
     <path class="fil2" d="M332644 145160c-3250,-3471 -6501,-6943 -6872,-9347 -370,-2404 1839,-4642 4649,-5075 2810,-433 5591,1036 5961,3439 370,2404 -1684,6693 -3738,10982z"/>
     <path class="fil9" d="M332363 143339c-2624,-3066 -5248,-6133 -5572,-8233 -324,-2100 1404,-4024 3630,-4367 2226,-343 4453,972 4776,3072 324,2100 -1255,5814 -2834,9529z"/>
     <path class="fil4" d="M331875 140171c-1481,-2370 -2961,-4740 -3204,-6312 -242,-1572 596,-2942 1750,-3120 1154,-178 2366,877 2608,2449 242,1572 -456,4278 -1154,6984z"/>
    </g>
    <g>
     <path class="fil2" d="M338263 139609c-3689,-1022 -7378,-2045 -8640,-3541 -1262,-1496 -682,-3960 1066,-5436 1749,-1475 4275,-1632 5538,-136 1262,1496 1649,5304 2036,9113z"/>
     <path class="fil9" d="M337307 138475c-3088,-1007 -6177,-2014 -7280,-3321 -1103,-1307 -723,-3353 663,-4522 1386,-1169 3467,-1199 4569,108 1103,1307 1575,4521 2048,7735z"/>
     <path class="fil4" d="M335643 136503c-2011,-1008 -4022,-2015 -4847,-2994 -826,-979 -824,-2271 -106,-2877 718,-606 1993,-390 2818,589 826,979 1480,3130 2135,5282z"/>
    </g>
   </g>
  </g>
 </g>
</svg>
