<svg width="19" height="20" viewBox="0 0 19 20" fill="none" xmlns="http://www.w3.org/2000/svg">
<path d="M9.09085 5.45459C9.59293 5.45459 9.99994 5.04758 9.99994 4.5455C9.99994 4.04343 9.59293 3.63641 9.09085 3.63641C8.58878 3.63641 8.18176 4.04343 8.18176 4.5455C8.18176 5.04758 8.58878 5.45459 9.09085 5.45459Z" fill="black"/>
<path d="M3.63635 14.5454H14.5454V16.3636H3.63635V14.5454ZM7.2727 9.84545L9.81088 12.3854L13.3854 8.80819L14.5454 10V6.36365H10.9091L12.1 7.52273L9.80997 9.81273L7.2727 7.27274L3.63635 10.9091L4.9218 12.1945L7.2727 9.84545Z" fill="black"/>
<path d="M15.4545 1.81824H12.4563C12.3663 1.68438 12.2692 1.55541 12.1654 1.43188L12.1563 1.42097C11.4882 0.643308 10.5486 0.149769 9.52906 0.0409711C9.23949 -0.013657 8.94227 -0.013657 8.6527 0.0409711C7.63321 0.149769 6.6936 0.643308 6.02544 1.42097L6.01634 1.43188C5.91261 1.55511 5.81551 1.68378 5.72544 1.81733V1.81824H2.72726C2.00417 1.81896 1.3109 2.10653 0.799595 2.61783C0.28829 3.12914 0.000722011 3.82241 0 4.5455V17.2727C0.000722011 17.9958 0.28829 18.6891 0.799595 19.2004C1.3109 19.7117 2.00417 19.9993 2.72726 20H15.4545C16.1776 19.9993 16.8709 19.7117 17.3822 19.2004C17.8935 18.6891 18.181 17.9958 18.1818 17.2727V4.5455C18.181 3.82241 17.8935 3.12914 17.3822 2.61783C16.8709 2.10653 16.1776 1.81896 15.4545 1.81824ZM16.3636 17.2727C16.3636 17.5138 16.2678 17.7451 16.0973 17.9156C15.9268 18.086 15.6956 18.1818 15.4545 18.1818H2.72726C2.48616 18.1818 2.25493 18.086 2.08444 17.9156C1.91395 17.7451 1.81818 17.5138 1.81818 17.2727V4.5455C1.81818 4.3044 1.91395 4.07317 2.08444 3.90268C2.25493 3.73219 2.48616 3.63641 2.72726 3.63641H6.86361C6.96794 3.12265 7.24667 2.66075 7.65259 2.32897C8.0585 1.9972 8.56663 1.81596 9.09088 1.81596C9.61513 1.81596 10.1233 1.9972 10.5292 2.32897C10.9351 2.66075 11.2138 3.12265 11.3181 3.63641H15.4545C15.6956 3.63641 15.9268 3.73219 16.0973 3.90268C16.2678 4.07317 16.3636 4.3044 16.3636 4.5455V17.2727Z" fill="black"/>
</svg>
