<?xml version="1.0" encoding="UTF-8"?>
<!DOCTYPE svg PUBLIC "-//W3C//DTD SVG 1.1//EN" "http://www.w3.org/Graphics/SVG/1.1/DTD/svg11.dtd">
<!-- Creator: CorelDRAW X5 -->
<svg xmlns="http://www.w3.org/2000/svg" xml:space="preserve" width="325.794mm" height="690.774mm" style="shape-rendering:geometricPrecision; text-rendering:geometricPrecision; image-rendering:optimizeQuality; fill-rule:evenodd; clip-rule:evenodd"
viewBox="0 0 43219 91637"
 xmlns:xlink="http://www.w3.org/1999/xlink">
 <defs>
  <style type="text/css">
   <![CDATA[
    .fil7 {fill:#FFED00}
    .fil4 {fill:#3B84CC}
    .fil2 {fill:#E84848}
    .fil1 {fill:#FF8C81}
    .fil6 {fill:#1F1B20}
    .fil3 {fill:#F6F6F7}
    .fil0 {fill:#FEFEFE}
    .fil5 {fill:url(#id0)}
   ]]>
  </style>
  <linearGradient id="id0" gradientUnits="userSpaceOnUse" x1="22095.8" y1="23231.5" x2="9688.08" y2="18883.5">
   <stop offset="0" style="stop-color:#CFE3EB"/>
   <stop offset="0.65098" style="stop-color:#E6F0F4"/>
   <stop offset="1" style="stop-color:#FEFEFE"/>
  </linearGradient>
 </defs>
 <g id="Vrstva_x0020_1">
  <metadata id="CorelCorpID_0Corel-Layer"/>
  <g id="_470105512">
   <path class="fil0" d="M16107 63548c2017,-291 4978,-1473 6996,-1764l12832 29848 -27517 0c-5122,0 -565,-10035 7689,-28084z"/>
   <path class="fil1" d="M6673 39263c-1572,1277 -3634,3352 -4897,5916 -1263,2564 -1727,5618 -1773,7127 -46,1509 327,1474 834,862 507,-612 1147,-1801 2142,-3212 996,-1410 2346,-3043 3750,-4115 1404,-1073 2860,-1586 3482,-2962 623,-1375 412,-3613 -236,-4492 -647,-879 -1731,-401 -3303,876z"/>
   <path class="fil2" d="M6673 39263c-1572,1277 -3634,3352 -4897,5916 -1263,2564 -1727,5618 -1773,7127 -46,1509 327,1474 834,862 507,-612 1147,-1801 2142,-3212 996,-1410 2346,-3043 3750,-4115 1404,-1073 2860,-1586 3482,-2962 623,-1375 412,-3613 -236,-4492 -647,-879 -1731,-401 -3303,876z"/>
   <path class="fil2" d="M28438 37210c1783,960 4196,2614 5916,4897 1720,2283 2747,5196 3074,6669 327,1474 -46,1509 -658,1003 -612,-507 -1463,-1555 -2705,-2754 -1242,-1199 -2874,-2550 -4453,-3342 -1579,-791 -3106,-1024 -3975,-2258 -869,-1235 -1080,-3472 -608,-4457 471,-985 1625,-718 3409,243z"/>
   <path class="fil0" d="M28582 50974l-933 88 -671 3960 -7813 737 -7813 737 -1399 -3765 -933 88c-2234,-10752 -4469,-21504 -3654,-30307 814,-8803 4678,-15657 8541,-22512 5077,6011 10154,12022 12600,20518 2446,8496 2261,19476 2077,30456z"/>
   <path class="fil3" d="M28582 50974l-933 88 -671 3960 -7813 737 -5259 -55759c5077,6011 10154,12022 12600,20518 2446,8496 2261,19476 2077,30456z"/>
   <path class="fil4" d="M15470 16583c2471,-233 4663,1581 4896,4052 233,2471 -1581,4663 -4052,4896 -2471,233 -4663,-1581 -4896,-4052 -233,-2471 1581,-4663 4052,-4896zm-106 -1119c3089,-291 5829,1977 6120,5065 291,3089 -1977,5829 -5065,6120 -3089,291 -5829,-1977 -6120,-5065 -291,-3089 1977,-5829 5065,-6120z"/>
   <path class="fil2" d="M13906 0c2552,3022 5149,6111 7367,9449l-12838 1211c1552,-3677 3536,-7227 5471,-10659z"/>
   <path class="fil5" d="M15470 16583c2471,-233 4663,1581 4896,4052 233,2471 -1581,4663 -4052,4896 -2471,233 -4663,-1581 -4896,-4052 -233,-2471 1581,-4663 4052,-4896z"/>
   <polygon class="fil6" points="28582,50974 27649,51062 26978,55022 19165,55759 11351,56496 9952,52731 9019,52819 "/>
   <path class="fil2" d="M17553 49535c414,2156 1993,1972 1999,-235 48,-18236 -5438,-17681 -1999,235z"/>
   <path class="fil1" d="M20713 72171c-3435,-4131 -6870,-8262 -7128,-10998 -258,-2735 2383,-5113 5580,-5414 3197,-302 6236,1540 6494,4275 258,2735 -2344,7436 -4946,12137z"/>
   <path class="fil7" d="M20517 70099c-2755,-3633 -5511,-7266 -5736,-9656 -225,-2390 1851,-4445 4384,-4684 2533,-239 4957,1392 5182,3782 225,2390 -1802,6474 -3830,10558z"/>
   <path class="fil0" d="M20177 66494c-1512,-2771 -3024,-5543 -3193,-7332 -169,-1789 867,-3279 2181,-3403 1313,-124 2610,1146 2778,2935 169,1789 -799,4794 -1766,7799z"/>
   <path class="fil1" d="M17723 65440c-1441,-2830 -2882,-5660 -2674,-7270 208,-1610 2041,-2636 3923,-2393 1883,243 3394,1702 3186,3312 -208,1610 -2322,3981 -4435,6351z"/>
   <path class="fil7" d="M17881 64220c-1114,-2454 -2229,-4908 -2047,-6315 182,-1407 1647,-2321 3138,-2128 1491,193 2676,1449 2494,2857 -182,1407 -1884,3497 -3586,5586z"/>
   <path class="fil0" d="M18156 62097c-510,-1795 -1020,-3590 -884,-4643 136,-1053 928,-1777 1701,-1677 773,100 1355,1001 1219,2054 -136,1053 -1086,2660 -2036,4266z"/>
   <path class="fil1" d="M17723 65440c-1441,-2830 -2882,-5660 -2674,-7270 208,-1610 2041,-2636 3923,-2393 1883,243 3394,1702 3186,3312 -208,1610 -2322,3981 -4435,6351z"/>
   <path class="fil7" d="M17881 64220c-1114,-2454 -2229,-4908 -2047,-6315 182,-1407 1647,-2321 3138,-2128 1491,193 2676,1449 2494,2857 -182,1407 -1884,3497 -3586,5586z"/>
   <path class="fil0" d="M18156 62097c-510,-1795 -1020,-3590 -884,-4643 136,-1053 928,-1777 1701,-1677 773,100 1355,1001 1219,2054 -136,1053 -1086,2660 -2036,4266z"/>
   <path class="fil1" d="M22357 62922c-2176,-1340 -4353,-2680 -4885,-3874 -532,-1194 297,-2667 1692,-3289 1396,-622 3045,-254 3577,940 532,1194 74,3708 -385,6223z"/>
   <path class="fil7" d="M21954 62018c-1794,-1219 -3589,-2438 -4054,-3481 -465,-1043 158,-2285 1264,-2778 1106,-493 2446,-126 2911,917 465,1043 172,3192 -122,5342z"/>
   <path class="fil0" d="M21253 60444c-1103,-1019 -2206,-2039 -2554,-2820 -348,-781 -107,-1610 466,-1865 573,-255 1351,120 1699,901 348,781 369,2283 389,3784z"/>
   <path class="fil0" d="M10742 82602c1164,-2604 3537,-4076 5300,-3287 1763,788 2249,3538 1085,6142 -1164,2604 -3537,4076 -5300,3287 -1763,-788 -2249,-3538 -1085,-6142z"/>
   <path class="fil0" d="M1957 89772c1777,-2604 5400,-4076 8092,-3287 2692,788 5685,5147 2213,5147l-11155 0c-777,0 421,-1231 850,-1860z"/>
   <path class="fil0" d="M10742 82602c1164,-2604 3537,-4076 5300,-3287 1763,788 2249,3538 1085,6142 -1164,2604 -3537,4076 -5300,3287 -1763,-788 -2249,-3538 -1085,-6142z"/>
   <path class="fil0" d="M5132 86681c1517,-2604 4608,-4076 6905,-3287 2297,788 2930,3538 1414,6142 -572,983 -863,2087 -1865,2089l-6365 14c-2607,6 -1605,-2353 -88,-4957z"/>
   <path class="fil0" d="M12022 78264c363,-2878 2521,-5164 4820,-5104 2299,60 3868,2441 3504,5320 -363,2878 -2521,5163 -4820,5104 -2299,-60 -3868,-2441 -3504,-5320z"/>
   <path class="fil0" d="M32186 82828c-1164,-2604 -3537,-4076 -5300,-3287 -1763,788 -2249,3538 -1085,6142 1164,2604 3537,4076 5300,3287 1763,-788 2249,-3538 1085,-6142z"/>
   <path class="fil0" d="M42437 89966c-1777,-2604 -20273,1660 -17219,1661l18001 6c-155,-550 -402,-1110 -783,-1667z"/>
   <path class="fil0" d="M34269 81897c-1164,-2604 -3537,-4076 -5300,-3287 -1763,788 -2249,3538 -1085,6142 1164,2604 3537,4076 5300,3287 1763,-788 2249,-3538 1085,-6142z"/>
   <path class="fil0" d="M39249 84038c-3175,-2372 -7599,-2845 -9881,-1057 -2282,1788 -1385,6402 1618,7532 3003,1130 7302,700 9881,1057 2580,357 1558,-5160 -1618,-7532z"/>
  </g>
 </g>
</svg>
