<svg width="90" height="51" viewBox="0 0 90 51" fill="none" xmlns="http://www.w3.org/2000/svg">
<path d="M82.2336 1.81602H79.3492L82.3488 5.07109V6.6207H76.1707V4.80625H79.1699L76.1707 1.55117V0H82.2336V1.81602ZM74.9457 1.81602H72.0613L75.0609 5.07109V6.6207H68.8824V4.80625H71.882L68.8824 1.55117V0H74.9457V1.81602ZM67.7293 1.89023H64.6168V4.73047H67.7293V6.6207H62.4043V0H67.7293V1.89023Z" fill="#323233"/>
<path d="M58.1629 45.1168L55 9.64297H89.7527L86.5871 45.1109L72.3551 49.057L58.1629 45.1168Z" fill="#499FDE"/>
<path d="M72.377 46.041L83.8766 42.8527L86.582 12.5437H72.377V46.041Z" fill="#33A9DC"/>
<path d="M72.3766 25.3957H78.1336L78.5317 20.9406H72.3766V16.5898H83.2864L83.1821 17.757L82.1129 29.7461H72.3766V25.3957Z" fill="white"/>
<path d="M72.4027 36.6949L72.3836 36.7004L67.5383 35.3918L67.2281 31.9219H62.8613L63.4711 38.7531L72.3828 41.227L72.4031 41.2211L72.4027 36.6949Z" fill="#EBEBEB"/>
<path d="M77.7641 29.5621L77.2399 35.3887L72.3876 36.6985V41.225L81.3067 38.7531L81.3723 38.018L82.1294 29.5621H77.7641Z" fill="white"/>
<path d="M72.3919 16.5898V20.9402H61.8829L61.7954 19.9625L61.5973 17.757L61.493 16.5898H72.3919ZM72.3766 25.3961V29.7469H67.5927L67.5055 28.7691L67.3071 26.5633L67.2028 25.3961H72.3766Z" fill="#EBEBEB"/>
<path d="M31.839 15.5336C31.427 15.3876 31.011 15.2523 30.593 15.1279C30.663 14.831 30.728 14.5378 30.785 14.2497C31.729 9.51884 31.112 5.70758 29.005 4.45273C26.985 3.24975 23.681 4.50413 20.344 7.5033C20.015 7.7994 19.694 8.10405 19.38 8.41694C19.17 8.20889 18.956 8.00487 18.738 7.80499C15.241 4.59818 11.736 3.24663 9.632 4.50507C7.613 5.7118 7.016 9.29465 7.865 13.7782C7.95 14.2222 8.045 14.664 8.151 15.103C7.655 15.2486 7.176 15.4036 6.718 15.5686C2.618 17.045 0 19.3586 0 21.7585C0 24.2371 2.811 26.7232 7.081 28.2307C7.427 28.3524 7.776 28.4651 8.128 28.5689C8.014 29.0418 7.912 29.5178 7.824 29.9966C7.014 34.4023 7.646 37.9005 9.659 39.0995C11.738 40.3378 15.228 39.0652 18.625 35.9976C18.901 35.7481 19.17 35.4917 19.433 35.2284C19.773 35.5672 20.122 35.8962 20.48 36.2149C23.771 39.1398 27.022 40.3209 29.033 39.1186C31.11 37.8767 31.785 34.1187 30.908 29.5466C30.839 29.1884 30.762 28.832 30.676 28.4777C30.921 28.4027 31.162 28.3255 31.396 28.2452C35.836 26.7262 38.724 24.2702 38.724 21.7585C38.724 19.3499 36.021 17.0206 31.839 15.5336ZM30.876 26.6235C30.664 26.6958 30.447 26.7658 30.226 26.8336C29.736 25.2312 29.074 23.5273 28.265 21.7668C29.037 20.0482 29.673 18.3661 30.149 16.7741C30.546 16.8925 30.93 17.0173 31.301 17.149C34.884 18.4232 37.07 20.3069 37.07 21.7585C37.07 23.3045 34.709 25.3116 30.876 26.6235ZM29.286 29.8784C29.673 31.9001 29.728 33.728 29.472 35.157C29.241 36.4411 28.777 37.2971 28.204 37.64C26.984 38.3696 24.374 37.4213 21.559 34.9197C21.226 34.6234 20.902 34.3176 20.585 34.0026C21.677 32.7701 22.767 31.3373 23.832 29.746C25.704 29.5744 27.472 29.2938 29.076 28.9109C29.155 29.2402 29.225 29.5627 29.286 29.8784ZM13.202 37.5139C12.01 37.9487 11.06 37.9612 10.486 37.6194C9.264 36.8918 8.757 34.0829 9.449 30.3153C9.532 29.87 9.626 29.4273 9.732 28.9875C11.318 29.3499 13.074 29.6105 14.95 29.7677C16.022 31.3248 17.144 32.7561 18.275 34.0094C18.034 34.2495 17.788 34.4835 17.537 34.7111C16.034 36.0675 14.529 37.0299 13.202 37.5139ZM7.616 26.614C5.728 25.9473 4.169 25.081 3.1 24.1357C2.139 23.2863 1.6544 22.4428 1.6544 21.7585C1.6544 20.3021 3.757 18.4445 7.263 17.182C7.688 17.0289 8.134 16.8844 8.596 16.7488C9.08 18.3767 9.716 20.0788 10.483 21.8C9.706 23.5467 9.061 25.276 8.572 26.9232C8.251 26.8282 7.932 26.7251 7.616 26.614ZM9.489 13.4499C8.761 9.60868 9.244 6.71105 10.461 5.9838C11.756 5.2092 14.621 6.3136 17.64 9.08265C17.837 9.26361 18.031 9.44826 18.221 9.63649C17.096 10.8843 15.984 12.3049 14.922 13.8529C13.101 14.0272 11.358 14.3072 9.755 14.6823C9.656 14.2739 9.567 13.8629 9.489 13.4499ZM26.192 17.7102C25.814 17.0348 25.421 16.3679 25.015 15.71C26.25 15.8714 27.434 16.0856 28.546 16.3474C28.212 17.4523 27.796 18.6073 27.307 19.7915C26.949 19.0902 26.577 18.3962 26.192 17.7102ZM19.381 10.8578C20.144 11.7116 20.908 12.6647 21.659 13.699C20.135 13.6246 18.607 13.6243 17.083 13.698C17.835 12.6733 18.606 11.7214 19.381 10.8578ZM12.525 17.7218C12.145 18.4023 11.781 19.0919 11.432 19.79C10.95 18.6099 10.538 17.4496 10.202 16.3291C11.306 16.0738 12.485 15.8651 13.712 15.7067C13.301 16.3687 12.906 17.0406 12.525 17.7218ZM13.748 27.9316C12.479 27.7854 11.283 27.5875 10.179 27.3391C10.521 26.1986 10.942 25.0136 11.434 23.8082C11.784 24.5068 12.15 25.1968 12.532 25.8777C12.924 26.5776 13.33 27.2631 13.748 27.9316ZM19.426 32.7795C18.642 31.9059 17.86 30.9393 17.096 29.8997C17.838 29.9297 18.594 29.945 19.362 29.945C20.151 29.945 20.932 29.9267 21.7 29.8914C20.946 30.9497 20.184 31.9177 19.426 32.7795ZM27.322 23.7467C27.84 24.9653 28.276 26.144 28.622 27.265C27.5 27.5297 26.287 27.7428 25.01 27.901C25.419 27.2309 25.816 26.5524 26.199 25.866C26.589 25.1682 26.963 24.4616 27.322 23.7467ZM24.766 25.0123C24.179 26.0647 23.56 27.0972 22.908 28.108C21.728 28.1944 20.545 28.2373 19.362 28.2366C18.157 28.2366 16.985 28.1979 15.856 28.1222C15.187 27.1138 14.556 26.0795 13.963 25.0217C13.373 23.9695 12.822 22.8945 12.311 21.7991C12.821 20.7034 13.37 19.6279 13.958 18.5749C14.546 17.5216 15.172 16.492 15.836 15.4878C16.987 15.3978 18.168 15.351 19.362 15.351C20.561 15.351 21.743 15.3983 22.895 15.4889C23.552 16.4916 24.174 17.5179 24.761 18.5659C25.351 19.6166 25.907 20.6868 26.43 21.7749C25.913 22.874 25.358 23.9539 24.766 25.0123ZM28.179 5.93271C29.475 6.70512 29.98 9.8199 29.165 13.9046C29.113 14.1654 29.055 14.4304 28.991 14.6998C27.384 14.3167 25.64 14.0319 23.813 13.8549C22.749 12.2899 21.646 10.8671 20.54 9.63539C20.83 9.34661 21.127 9.06531 21.43 8.79174C24.289 6.22221 26.961 5.20764 28.179 5.93271ZM19.362 18.187C21.272 18.187 22.82 19.7861 22.82 21.7585C22.82 23.7309 21.272 25.3299 19.362 25.3299C17.452 25.3299 15.904 23.7309 15.904 21.7585C15.904 19.7861 17.452 18.187 19.362 18.187Z" fill="#61DAFB"/>
<path d="M2 50.3518V40H5.498C6.307 40 6.97 40.1382 7.489 40.4145C8.008 40.6874 8.392 41.0631 8.642 41.5417C8.891 42.0202 9.016 42.5644 9.016 43.1743C9.016 43.7842 8.891 44.325 8.642 44.7968C8.392 45.2686 8.01 45.6392 7.494 45.9088C6.979 46.175 6.32 46.3081 5.518 46.3081H2.687V45.1759H5.478C6.03 45.1759 6.475 45.095 6.812 44.9333C7.152 44.7715 7.398 44.5424 7.55 44.2459C7.705 43.9459 7.782 43.5888 7.782 43.1743C7.782 42.7598 7.705 42.3976 7.55 42.0875C7.395 41.7775 7.147 41.5383 6.807 41.3698C6.467 41.1979 6.017 41.112 5.457 41.112H3.254V50.3518H2ZM6.873 45.7016L9.42 50.3518H7.964L5.457 45.7016H6.873Z" fill="#323233"/>
<path d="M14.1151 50.5135C13.3671 50.5135 12.7211 50.3484 12.1791 50.0182C11.6401 49.6846 11.2231 49.2196 10.9301 48.6231C10.6401 48.0233 10.4961 47.3258 10.4961 46.5305C10.4961 45.7353 10.6401 45.0344 10.9301 44.4278C11.2231 43.8179 11.6311 43.3428 12.1531 43.0024C12.6791 42.6587 13.2921 42.4869 13.9931 42.4869C14.3981 42.4869 14.7971 42.5543 15.1911 42.689C15.5851 42.8238 15.9441 43.0429 16.2681 43.3461C16.5911 43.646 16.8491 44.0437 17.0411 44.539C17.2331 45.0344 17.3291 45.6443 17.3291 46.3688V46.8742H11.3451V45.8431H16.1161C16.1161 45.405 16.0291 45.0142 15.8531 44.6704C15.6821 44.3267 15.4361 44.0555 15.1151 43.8567C14.7991 43.6578 14.4251 43.5584 13.9931 43.5584C13.5181 43.5584 13.1071 43.6764 12.7601 43.9123C12.4161 44.1448 12.1521 44.448 11.9661 44.8221C11.7811 45.1961 11.6881 45.5971 11.6881 46.0251V46.7125C11.6881 47.2988 11.7891 47.7959 11.9921 48.2036C12.1971 48.608 12.4821 48.9163 12.8461 49.1286C13.2101 49.3375 13.6331 49.442 14.1151 49.442C14.4281 49.442 14.7111 49.3982 14.9641 49.3106C15.2201 49.2196 15.4411 49.0848 15.6261 48.9062C15.8111 48.7242 15.9541 48.4985 16.0561 48.2289L17.2081 48.5524C17.0871 48.9433 16.8831 49.287 16.5961 49.5835C16.3101 49.8767 15.9561 50.1058 15.5351 50.2709C15.1141 50.4327 14.6401 50.5135 14.1151 50.5135Z" fill="#323233"/>
<path d="M21.429 50.5338C20.937 50.5338 20.49 50.4411 20.089 50.2558C19.688 50.0671 19.37 49.7958 19.134 49.442C18.898 49.0848 18.78 48.6535 18.78 48.148C18.78 47.7032 18.868 47.3426 19.043 47.0663C19.218 46.7866 19.452 46.5676 19.745 46.4092C20.039 46.2508 20.362 46.1329 20.716 46.0554C21.073 45.9745 21.432 45.9105 21.793 45.8633C22.264 45.8027 22.647 45.7572 22.94 45.7269C23.236 45.6932 23.452 45.6376 23.587 45.56C23.725 45.4825 23.794 45.3478 23.794 45.1557V45.1152C23.794 44.6165 23.658 44.229 23.385 43.9527C23.115 43.6764 22.706 43.5382 22.156 43.5382C21.587 43.5382 21.14 43.6629 20.817 43.9123C20.493 44.1616 20.266 44.4278 20.135 44.7109L19.002 44.3065C19.205 43.8347 19.474 43.4674 19.811 43.2046C20.151 42.9384 20.522 42.7531 20.923 42.6486C21.327 42.5408 21.725 42.4869 22.116 42.4869C22.365 42.4869 22.652 42.5172 22.975 42.5778C23.302 42.6351 23.617 42.7548 23.92 42.9367C24.227 43.1187 24.482 43.3933 24.684 43.7606C24.886 44.1279 24.987 44.6199 24.987 45.2366V50.3518H23.794V49.3004H23.733C23.653 49.4689 23.518 49.6492 23.329 49.8413C23.14 50.0334 22.889 50.1968 22.576 50.3316C22.263 50.4664 21.88 50.5338 21.429 50.5338ZM21.611 49.4622C22.082 49.4622 22.48 49.3695 22.803 49.1842C23.13 48.9989 23.376 48.7596 23.541 48.4664C23.71 48.1733 23.794 47.8649 23.794 47.5414V46.4497C23.744 46.5103 23.632 46.5659 23.461 46.6165C23.292 46.6636 23.097 46.7058 22.874 46.7428C22.655 46.7765 22.441 46.8068 22.232 46.8338C22.027 46.8574 21.86 46.8776 21.732 46.8945C21.422 46.9349 21.132 47.0006 20.862 47.0916C20.596 47.1792 20.381 47.3123 20.215 47.4909C20.054 47.6661 19.973 47.9054 19.973 48.2087C19.973 48.6231 20.126 48.9365 20.433 49.1488C20.743 49.3577 21.135 49.4622 21.611 49.4622Z" fill="#323233"/>
<path d="M30.318 50.5135C29.59 50.5135 28.964 50.3417 28.438 49.998C27.912 49.6543 27.508 49.1808 27.225 48.5776C26.942 47.9745 26.8 47.2853 26.8 46.5103C26.8 45.7218 26.945 45.0259 27.235 44.4228C27.528 43.8162 27.936 43.3428 28.458 43.0024C28.984 42.6587 29.597 42.4869 30.298 42.4869C30.844 42.4869 31.336 42.588 31.774 42.7901C32.212 42.9923 32.571 43.2754 32.851 43.6393C33.13 44.0032 33.304 44.4278 33.371 44.9131H32.178C32.087 44.5592 31.8851 44.2459 31.5721 43.9729C31.2621 43.6966 30.844 43.5584 30.318 43.5584C29.853 43.5584 29.446 43.6797 29.095 43.9224C28.748 44.1616 28.477 44.5003 28.281 44.9383C28.089 45.373 27.993 45.8835 27.993 46.4699C27.993 47.0697 28.088 47.592 28.276 48.0368C28.468 48.4816 28.738 48.827 29.085 49.073C29.435 49.319 29.847 49.442 30.318 49.442C30.628 49.442 30.91 49.3881 31.162 49.2802C31.415 49.1724 31.629 49.0174 31.804 48.8152C31.98 48.613 32.104 48.3704 32.178 48.0873H33.371C33.304 48.5456 33.137 48.9584 32.871 49.3257C32.608 49.6896 32.259 49.9794 31.825 50.1951C31.393 50.4074 30.891 50.5135 30.318 50.5135Z" fill="#323233"/>
<path d="M38.492 42.5879V43.5989H34.468V42.5879H38.492ZM35.641 40.7279H36.834V48.1278C36.834 48.4648 36.883 48.7175 36.98 48.886C37.081 49.0511 37.209 49.1623 37.364 49.2196C37.523 49.2735 37.69 49.3004 37.865 49.3004C37.996 49.3004 38.104 49.2937 38.188 49.2802C38.273 49.2634 38.34 49.2499 38.391 49.2398L38.633 50.3114C38.552 50.3417 38.439 50.372 38.294 50.4023C38.15 50.436 37.966 50.4529 37.744 50.4529C37.407 50.4529 37.076 50.3804 36.753 50.2355C36.433 50.0906 36.167 49.8699 35.954 49.5734C35.745 49.2769 35.641 48.9028 35.641 48.4513V40.7279Z" fill="#323233"/>
</svg>
