<?xml version="1.0" encoding="UTF-8"?>
<!DOCTYPE svg PUBLIC "-//W3C//DTD SVG 1.1//EN" "http://www.w3.org/Graphics/SVG/1.1/DTD/svg11.dtd">
<!-- Creator: CorelDRAW X5 -->
<svg xmlns="http://www.w3.org/2000/svg" xml:space="preserve" width="996.437mm" height="596.619mm" style="shape-rendering:geometricPrecision; text-rendering:geometricPrecision; image-rendering:optimizeQuality; fill-rule:evenodd; clip-rule:evenodd"
viewBox="0 0 88870 53211"
 xmlns:xlink="http://www.w3.org/1999/xlink">
 <defs>
  <style type="text/css">
   <![CDATA[
    .fil16 {fill:#2F822F}
    .fil14 {fill:#48BA59}
    .fil11 {fill:#53809C}
    .fil0 {fill:#5DA35D}
    .fil17 {fill:#5ED95B}
    .fil15 {fill:#7D9BAD}
    .fil10 {fill:#99B6C8}
    .fil12 {fill:#A8E9FF}
    .fil8 {fill:#C1946F}
    .fil9 {fill:#EA5A5B}
    .fil13 {fill:white}
    .fil6 {fill:#384761;fill-rule:nonzero}
    .fil5 {fill:#4E565A;fill-rule:nonzero}
    .fil7 {fill:#5CA595;fill-rule:nonzero}
    .fil1 {fill:#967BB6;fill-rule:nonzero}
    .fil3 {fill:#EA5A5B;fill-rule:nonzero}
    .fil4 {fill:#F8BB97;fill-rule:nonzero}
    .fil2 {fill:#FFED00;fill-rule:nonzero}
   ]]>
  </style>
 </defs>
 <g id="Vrstva_x0020_1">
  <metadata id="CorelCorpID_0Corel-Layer"/>
  <g id="_255205536">
   <path class="fil0" d="M78160 45592c674,-4784 1349,-9579 1475,-13404 126,-3825 -2498,-11486 -2919,-14353 -95,42 -790,400 -896,443 422,2866 3636,10222 3509,14047 -126,3825 -801,8610 -1475,13404 95,-42 200,-84 306,-137l0 0z"/>
   <path class="fil1" d="M74367 18193l-400 -727c-622,263 -1096,348 -1760,63 -358,-148 -653,-432 -801,-790 -158,-369 -137,-811 21,-1170 169,-379 337,-696 664,-948 -474,-390 -769,-685 -843,-1349 -42,-400 21,-822 285,-1138 274,-327 674,-548 1106,-569 432,-32 896,95 1286,253 -21,-580 -42,-1054 390,-1507 337,-358 738,-506 1212,-516 390,-11 780,137 1054,411 453,432 516,1012 569,1602 674,-232 1243,-443 1939,-116 369,179 653,516 780,917 126,411 84,864 -105,1243 -116,221 -390,559 -422,759 443,358 495,548 548,1128 63,548 53,780 -306,1233 -274,348 -622,474 -1054,516 -443,42 -843,-63 -1243,-137 -232,-42 -211,1022 -938,1454 -316,190 -664,211 -1012,116 -274,-74 -569,-242 -780,-432l-200 -306 0 0 11 11z"/>
   <path class="fil2" d="M75210 13072c190,-42 422,-53 601,-11 358,74 706,285 896,590 190,316 263,769 158,1128 -126,422 -516,653 -885,843 -263,11 -590,42 -854,-21 -295,-74 -516,-263 -664,-527 -179,-337 -253,-790 -126,-1159 148,-432 485,-643 864,-843l0 0 11 0z"/>
   <path class="fil3" d="M58517 18288c221,-190 548,-221 822,-200 232,21 516,63 738,148 537,221 1022,717 1444,1096l1507 1359c274,263 537,495 864,685l84 42c221,527 95,1064 -105,1581 2803,-1265 1539,-1043 2814,738l-3794 1349 -1760 1665c-432,411 -896,980 -1402,1265 -527,-337 -959,-801 -1444,-1191l-2413 -2108c-559,-485 -1191,-959 -1697,-1486 -105,-116 -169,-232 -211,-390 21,-327 390,-559 622,-769l1128 -1064 190 -179 2613 -2561 0 0 0 21z"/>
   <path class="fil4" d="M50161 20164c-11,-1064 -221,-2181 400,-3151 358,-569 748,-1075 1064,-1665l158 2856c1138,158 2276,959 3414,875 453,-32 811,-190 1265,-274 108,464 95,917 200,1370 -1296,580 -4236,885 -5216,590 -464,-137 -875,-369 -1286,-601l0 0 0 0zm6302 -1359c674,-221 1033,-706 1802,-811 529,1 1506,98 1406,137l-1437 568c-1496,800 1008,299 -1571,1465 -287,-413 -392,-846 -200,-1359l0 0z"/>
   <path class="fil4" d="M51172 9236c0,0 -348,706 -232,1444 -137,379 -2213,190 -2887,-548 0,0 221,-706 285,-2076 53,-938 -559,-1222 -453,-3456 74,-1570 1412,-2940 3678,-2666 1496,190 2297,1380 2297,1380 0,0 379,537 485,1170 0,0 74,411 21,653 -53,242 -190,1128 -148,1317 95,485 274,643 274,822 0,169 -327,316 -590,285 -53,1265 -1191,2708 -2729,1686l0 0 0 -11z"/>
   <path class="fil2" d="M55072 3957c0,0 -390,295 -1296,21 -927,-285 -1813,-21 -2002,432 -137,316 -105,896 -211,1138 -84,21 -221,21 -337,32 -232,21 -232,-674 -516,-611 -337,63 -864,116 -843,590 21,464 -464,1939 -643,2181 -179,232 -1170,-126 -1254,-179 -95,-53 -348,-1465 -622,-2076 -263,-611 -885,-3994 738,-4436 0,0 358,-748 1275,-938 917,-190 2424,-179 3435,390 1012,569 2118,1475 2698,1423 0,0 485,63 221,390 -253,316 -495,548 -864,580 0,0 653,-190 1043,-337 390,-148 53,1054 -843,1402l0 0 21 0z"/>
   <path class="fil5" d="M48433 53211l-11 -2245 2782 116c664,411 1549,917 2329,969 285,21 906,169 1064,1149l-6165 11 0 0 0 0z"/>
   <path class="fil5" d="M39697 53180l274 -2245 3625 769c569,316 485,348 1496,390 0,0 948,126 1012,1106 0,0 -1939,11 -6418,-21l0 0 11 0z"/>
   <path class="fil6" d="M51183 25538l559 3330 790 4236c211,1117 495,2255 580,3393 53,738 -53,1475 -126,2213l-158 2034c-348,3341 -590,7060 -1633,10338 -590,105 -1886,253 -2782,-116 622,-4078 674,-11845 -432,-16207l-4394 16945c-1243,-74 -2434,-390 -3625,-769 3277,-7998 1971,-26145 2856,-26124 885,21 4078,969 5469,1085 1391,126 2139,-116 2887,-358l0 0 11 0z"/>
   <path class="fil7" d="M48178 9575c432,537 1147,958 1864,1064 169,21 358,0 537,-21l316 -148c348,263 464,474 590,885 464,1517 559,3699 601,5374 -179,1380 -632,9189 -896,9210l-495 32c-2108,158 -4373,-148 -6397,-717 -811,-232 -1001,32 -1644,-485 -94,-99 1637,-8582 1539,-9779 948,-548 2108,-1296 2508,-2297 242,-590 316,-1444 21,-2034 -190,-369 -453,-453 -854,-590 979,-289 1275,-301 2309,-495z"/>
   <path class="fil7" d="M46862 10648c-190,-369 -443,-495 -843,-622 -390,105 -748,242 -1085,453 -1517,959 -2782,2371 -3973,3636 2708,1349 1243,2434 3330,864 969,-548 2150,-1296 2561,-2297 242,-590 327,-1444 21,-2034l0 0 -11 0z"/>
   <path class="fil4" d="M43849 20438c590,369 780,727 1486,811 242,32 516,169 738,263 190,74 559,63 443,221 -148,190 -643,105 -896,105 242,158 938,432 885,738 -42,42 -327,-63 -379,-21 -32,21 211,200 179,242 -74,116 -274,-21 -295,11 -21,32 242,169 190,285 -42,42 -137,32 -295,-42 -11,148 253,137 137,232 -748,158 -2445,-959 -2919,-1496 -137,-126 -3414,-4268 -1939,-7566 854,116 1212,516 1496,1222l1191 4995 0 0 -21 0z"/>
   <polygon class="fil8" points="75283,53190 76148,53190 79530,53190 81037,47584 81964,47584 81964,45592 72849,45592 72849,47584 73787,47584 "/>
   <path class="fil9" d="M66842 24137l843 -411c211,-105 -959,-2603 -1338,-2403l-822 422 1317 2392 0 0 0 0z"/>
   <path class="fil0" d="M78108 43980c-1370,-1781 -2750,-3551 -3478,-5353 -727,-1802 -822,-3615 -906,-5438 991,938 1971,1886 2708,3688 727,1802 2150,6618 1686,7113l0 0 -11 -11z"/>
   <path class="fil0" d="M78687 41820c2835,-1570 5669,-3130 7630,-5986 1960,-2856 2887,-8199 2445,-13099 -3836,6397 -9811,13826 -10074,19084l0 0 0 0z"/>
   <path class="fil0" d="M79499 30049c5680,-4637 5680,-8209 4521,-14469 -748,1444 -3878,4300 -4626,6702 -748,2413 -74,6586 116,7756l0 0 -11 11z"/>
   <path class="fil0" d="M79341 31946c295,-453 -1644,-3593 -2740,-4521 -1096,-917 -4321,-1528 -5680,-1570 685,1201 2034,3541 3119,4458 1096,917 3804,991 5301,1633l0 0 0 0z"/>
   <ellipse class="fil10" transform="matrix(0.974776 0.223185 -0.223185 0.974776 69605 21443.7)" rx="790" ry="116"/>
   <ellipse class="fil10" transform="matrix(0.974776 0.223185 -0.223185 0.974776 70736.7 22752.2)" rx="1075" ry="116"/>
   <ellipse class="fil10" transform="matrix(0.974776 0.223185 -0.223185 0.974776 72122.7 20895)" rx="1117" ry="221"/>
   <ellipse class="fil10" transform="matrix(0.974776 0.223185 -0.223185 0.974776 72910.9 22447.8)" rx="896" ry="221"/>
   <ellipse class="fil10" transform="matrix(0.974776 0.223185 -0.223185 0.974776 68744.8 19762.2)" rx="1117" ry="221"/>
   <ellipse class="fil10" transform="matrix(0.974776 0.223185 -0.223185 0.974776 69965.1 20740.6)" rx="759" ry="105"/>
   <ellipse class="fil10" transform="matrix(0.974776 0.223185 -0.223185 0.974776 71551.9 19391.9)" rx="1117" ry="221"/>
   <ellipse class="fil10" transform="matrix(0.974776 0.223185 -0.223185 0.974776 74613 21007.7)" rx="896" ry="221"/>
   <ellipse class="fil10" transform="matrix(0.974776 0.223185 -0.223185 0.974776 72263.1 21725.6)" rx="991" ry="105"/>
   <ellipse class="fil10" transform="matrix(0.974776 0.223185 -0.223185 0.974776 68571.4 21919.9)" rx="980" ry="137"/>
   <ellipse class="fil10" transform="matrix(0.974776 0.223185 -0.223185 0.974776 72947.3 24286)" rx="896" ry="221"/>
   <ellipse class="fil10" transform="matrix(0.974776 0.223185 -0.223185 0.974776 70121.9 23737.1)" rx="1117" ry="221"/>
   <rect class="fil11" y="1480" width="30286" height="2329"/>
   <rect class="fil12" x="4942" y="6728" width="20391" height="22709"/>
   <path class="fil13" d="M12171 7234c-169,-148 -253,-295 -253,-495 0,-453 601,-801 1359,-801 685,0 1275,306 1359,706 422,-95 854,-148 1275,-148 1275,0 2382,453 2972,1054 253,-200 769,-348 1275,-348 253,0 506,53 769,105 516,-495 1359,-843 2466,-843 1106,0 2129,400 2550,948l253 0c854,0 1528,400 1528,854 0,453 -685,843 -1528,843 -253,0 -422,-53 -590,-95 -685,443 -1444,696 -2297,696l-84 0c-169,348 -685,601 -1359,601 -169,0 -337,0 -506,-53 -422,453 -1191,696 -2129,696 -938,0 -1791,-306 -2213,-801 -337,95 -769,95 -1106,95 -1106,0 -2044,-306 -2634,-801 -169,53 -422,53 -685,53 -1106,0 -2044,-548 -2044,-1201 0,-495 685,-948 1623,-1043l0 0 0 -21z"/>
   <rect class="fil11" y="32346" width="30286" height="2329"/>
   <path class="fil13" d="M14332 18088c126,-105 179,-211 179,-358 0,-327 -432,-569 -980,-569 -485,0 -917,221 -980,506 -306,-74 -611,-105 -917,-105 -917,0 -1707,327 -2139,759 -179,-148 -548,-253 -917,-253 -179,0 -369,42 -548,74 -369,-358 -980,-611 -1770,-611 -790,0 -1528,285 -1834,685l-179 0c-611,0 -1096,285 -1096,611 0,327 495,611 1106,611 179,0 306,-42 432,-74 485,316 1043,495 1654,495l63 0c126,253 495,432 980,432 126,0 242,0 369,-42 306,327 854,506 1528,495 674,0 1286,-221 1591,-580 242,74 548,74 790,74 790,0 1465,-221 1897,-580 126,32 306,32 485,32 790,0 1465,-400 1465,-864 0,-358 -495,-685 -1159,-748l0 0 -21 11z"/>
   <path class="fil14" d="M4563 27499c875,-780 2814,-1170 4658,-1064 1844,95 3593,674 5143,875 1549,190 2908,0 3878,-390 969,-390 1549,-969 2519,-1170 969,-190 2329,0 3456,306 1128,306 2023,738 2413,1612 390,875 274,2192 -1243,2951 -1517,759 -4426,948 -7724,948 -3298,0 -6987,-190 -9316,-390 -2329,-190 -3298,-390 -3878,-1064 -580,-674 -780,-1844 95,-2624l0 0 0 11z"/>
   <path class="fil15" d="M4942 6728l20391 0 0 22709 -20391 0 0 -22709zm-2613 -2908l25628 0 0 28537 -25628 0 0 -28537z"/>
   <path class="fil16" d="M26387 26603c-390,-148 -927,-548 -1265,-1001 -337,-443 -464,-927 -738,-1391 -274,-464 -706,-917 -1106,-1138 -400,-221 -759,-221 -1001,-411 -242,-179 -369,-548 -422,-1159 -63,-611 -63,-1465 211,-1865 274,-400 811,-348 1243,-158 422,179 738,495 1043,875 306,379 601,822 959,1180 369,369 801,653 1159,1012 358,358 643,790 822,1212 179,422 263,854 253,1307 -21,453 -137,938 -327,1243 -179,306 -422,422 -811,285l0 0 -21 11z"/>
   <path class="fil16" d="M28769 26245c-200,-390 -126,-1117 42,-1591 169,-474 443,-685 759,-780 316,-84 674,-53 938,-148 253,-95 400,-327 548,-559 148,-232 295,-464 495,-622 200,-158 453,-263 706,-358 253,-95 506,-190 706,-295 190,-105 327,-211 474,-379 137,-169 285,-400 485,-506 190,-105 432,-74 801,-42 358,42 843,84 1138,242 295,148 390,411 242,632 -148,232 -537,432 -938,759 -400,327 -811,769 -1033,1117 -221,348 -242,590 -327,822 -84,232 -232,464 -443,685 -211,221 -474,443 -854,580 -379,148 -875,211 -1254,295 -379,84 -632,179 -822,285 -190,105 -327,211 -632,242 -306,32 -790,-21 -1001,-411l0 0 -32 32z"/>
   <path class="fil16" d="M27810 23210c-74,-379 -116,-1001 -232,-1507 -116,-506 -306,-906 -316,-1328 0,-432 179,-896 422,-1296 232,-400 527,-727 769,-1191 242,-453 443,-1043 969,-1718 516,-664 1359,-1412 1781,-1359 422,53 432,917 348,1581 -84,664 -274,1128 -443,1475 -169,348 -316,569 -474,801 -148,221 -306,453 -337,696 -32,242 53,495 74,811 21,306 -32,674 -158,938 -126,263 -348,443 -516,569 -169,126 -306,211 -495,453 -179,242 -411,653 -537,917 -126,263 -137,379 -211,495 -74,116 -211,221 -337,200 -126,-11 -221,-148 -295,-527l0 0 -11 -11z"/>
   <path class="fil17" d="M26893 28594c126,-453 253,-906 253,-1380 0,-474 -116,-959 -306,-1444 -179,-485 -422,-980 -727,-1402 -306,-422 -674,-790 -1033,-1159 -369,-369 -727,-727 -1096,-1159 -369,-422 -727,-917 -980,-1222 -242,-306 -369,-422 -485,-548 169,126 337,242 611,548 263,306 632,790 1001,1222 369,422 727,790 1096,1159 369,369 727,727 1033,1159 306,422 548,917 727,1402 179,485 306,980 306,1444 0,474 -105,917 -221,1370 -63,0 -126,11 -179,11l0 0z"/>
   <path class="fil17" d="M25808 23947c42,-116 74,-221 63,-422 -11,-200 -74,-474 -126,-748 74,211 137,422 169,611 32,179 21,337 11,432 -11,105 -11,158 -21,200 -32,-21 -63,-53 -105,-74l0 0 11 0z"/>
   <path class="fil17" d="M24511 22514c-116,0 -232,0 -422,-63 -179,-74 -432,-221 -674,-358 179,137 358,263 527,348 158,84 306,126 411,148 95,21 148,32 200,42 -11,-42 -32,-84 -42,-126l0 0 0 11z"/>
   <path class="fil17" d="M23458 21386c53,-105 105,-211 126,-400 21,-190 0,-474 -21,-759 42,221 84,443 84,622 11,190 -21,337 -42,432 -21,95 -32,148 -53,200 -32,-32 -63,-63 -95,-95l0 0 0 0z"/>
   <path class="fil17" d="M27852 28584c-53,-74 316,-4795 337,-5785 11,-559 84,-1138 232,-1665 158,-527 390,-1001 622,-1486 232,-474 474,-959 685,-1496 211,-548 411,-1149 537,-1528 137,-379 211,-548 295,-706 -126,169 -253,348 -411,727 -158,390 -348,1001 -569,1539 -211,548 -453,1022 -685,1496 -232,474 -474,959 -622,1486 -158,527 -221,1106 -232,1665 -21,1001 -400,5606 -337,5722 63,-11 84,42 148,32l0 0z"/>
   <path class="fil17" d="M28568 20607c-74,-105 -158,-221 -211,-422 -63,-211 -95,-516 -137,-832 11,242 11,485 42,685 32,200 95,358 137,464 42,105 63,158 95,211 21,-32 53,-74 74,-105l0 0 0 0z"/>
   <path class="fil17" d="M29359 18763c116,-32 232,-53 390,-179 158,-126 348,-337 548,-548 -137,190 -263,369 -400,506 -137,137 -263,211 -348,263 -84,53 -137,74 -179,95 0,-42 0,-95 0,-137l0 0 -11 0z"/>
   <path class="fil17" d="M30002 17298c-95,-95 -179,-200 -263,-400 -84,-200 -158,-506 -242,-811 42,242 74,485 137,685 63,200 137,348 200,453 53,95 84,148 116,200 21,-42 42,-84 63,-116l0 0 -11 -11z"/>
   <path class="fil17" d="M28179 29069c0,-474 0,-938 126,-1391 126,-453 369,-885 674,-1307 306,-422 674,-822 1085,-1149 411,-327 854,-580 1307,-832 453,-253 896,-506 1370,-822 464,-316 948,-685 1265,-917 316,-232 464,-316 622,-400 -200,74 -390,148 -738,369 -337,221 -822,590 -1286,906 -464,316 -917,569 -1370,822 -453,253 -896,506 -1307,832 -411,327 -769,727 -1085,1149 -306,422 -559,854 -685,1307 -126,453 -137,917 -148,1380 63,21 116,42 169,63l0 0 0 -11z"/>
   <path class="fil17" d="M30465 24875c-11,-116 -11,-232 42,-422 63,-190 200,-432 327,-696 -126,190 -242,369 -327,537 -74,169 -116,316 -137,411 -21,95 -32,148 -32,200 42,-11 84,-32 116,-53l0 0 11 21z"/>
   <path class="fil17" d="M32109 23852c116,32 221,63 422,42 190,-21 474,-95 748,-169 -211,84 -422,158 -601,200 -179,42 -337,42 -432,42 -105,0 -158,-11 -211,-11 21,-32 53,-74 74,-105l0 0 0 0z"/>
   <path class="fil17" d="M33416 23041c-21,-116 -53,-232 -11,-422 42,-190 137,-464 232,-727 -95,200 -200,400 -253,580 -53,179 -63,327 -74,432 -11,105 -11,158 -11,211 42,-21 74,-42 116,-63l0 0 0 -11z"/>
   <polygon class="fil8" points="26756,32346 27220,32346 29032,32346 30349,29332 30349,28257 25439,28257 25439,29332 "/>
  </g>
 </g>
</svg>
