<svg width="245" height="584" viewBox="0 0 245 584" fill="none" xmlns="http://www.w3.org/2000/svg">
<path fill-rule="evenodd" clip-rule="evenodd" d="M143.797 191.329L85.3657 231.846C78.5626 225.798 80.15 217.483 80.15 217.483L149.996 157.54C149.996 157.54 154.342 177.005 143.835 191.291V191.329H143.797Z" fill="#F8BB97"/>
<path fill-rule="evenodd" clip-rule="evenodd" d="M86.2727 223.266C86.2727 223.266 86.3105 229.124 84.2318 232.601C81.4349 237.477 70.0963 245.716 69.4538 245.792C68.0176 245.905 68.5089 244.507 68.5089 244.507C68.5089 244.507 68.0176 246.321 67.1483 245.943C66.2412 245.565 66.279 242.05 66.279 242.05C64.616 243.298 65.8633 238.762 65.0696 238.082C61.5546 234.983 70.4365 227.764 71.9861 226.554C71.9861 226.554 67.6396 227.272 68.0176 225.609C68.5467 223.039 77.5042 219.827 80.5656 218.579C83.5892 217.37 86.2727 223.342 86.2727 223.342V223.266Z" fill="#F8BB97"/>
<path fill-rule="evenodd" clip-rule="evenodd" d="M81.6238 244.772L73.7624 247.568L46.9277 181.427L54.6002 178.819L81.6238 244.772Z" fill="white"/>
<path fill-rule="evenodd" clip-rule="evenodd" d="M74.0646 251.386L73.3843 242.012L149.617 233.282L150.298 243.902L74.0646 251.386Z" fill="white"/>
<path fill-rule="evenodd" clip-rule="evenodd" d="M37.1387 363.184L62.9528 373.049C62.9528 373.049 87.5576 322.441 89.8631 303.959C92.2064 285.477 146.632 295.115 171.765 290.126C196.862 285.137 208.654 269.528 206.575 249.269C210.165 227.159 76.1812 267.789 76.1812 267.789L37.1387 363.184Z" fill="#3243B2"/>
<path fill-rule="evenodd" clip-rule="evenodd" d="M209.221 245.15C209.221 245.15 223.998 304.337 165.643 289.899C121.347 286.913 108.723 287.443 96.7418 287.669C99.9922 309.213 106.455 366.472 106.039 376.261L80.8678 382.233C80.8678 382.233 37.4032 262.12 66.9591 251.159C96.4772 240.198 165.491 243.449 165.491 243.449L206.424 245.981L209.221 245.15Z" fill="#5061CF"/>
<path fill-rule="evenodd" clip-rule="evenodd" d="M149.731 74.126C149.731 74.126 150.978 80.3244 150.941 86.2582C149.391 86.3716 171.993 81.8362 177.246 77.2252C177.246 77.2252 172.068 72.8409 170.027 61.9937C168.629 54.5858 172.975 51.789 169.687 34.2141C167.381 21.8929 155.741 12.2929 138.808 16.6771C127.659 19.5874 122.821 29.7921 122.821 29.7921C122.821 29.7921 120.515 34.3653 120.402 39.5055C120.402 39.5055 120.326 42.8693 120.931 44.6834C121.574 46.5354 123.577 53.4141 123.463 54.926C123.274 58.8189 122.065 60.2551 122.292 61.7291C122.481 63.0519 125.164 63.959 127.092 63.3921C128.906 73.3323 139.073 83.6504 149.655 74.0882H149.693L149.731 74.126Z" fill="#F8BB97"/>
<path fill-rule="evenodd" clip-rule="evenodd" d="M203.513 140.343C200.641 156.898 202.606 174.737 204.647 191.405C206.235 204.595 209.447 237.175 209.447 245.83C211.904 252.52 140.017 260.381 130.38 242.428C131.778 230.787 127.054 242.58 129.624 197.641C134.537 136.753 134.386 125.528 141.907 90.4536C149.013 79.3418 146.972 82.252 150.449 79.3418L151.129 82.3654C152.679 82.7434 154.342 83.2725 155.967 83.0835C162.695 82.4032 170.669 77.5276 175.28 71.4048C196.37 75.8268 196.295 78.0568 203.74 85.389C211.148 92.7213 222.751 118.347 231.709 134.674L236.736 139.55C229.781 142.951 209.334 127.266 201.019 130.857C199.961 122.58 206.348 138.416 203.513 140.381V140.343Z" fill="white"/>
<path fill-rule="evenodd" clip-rule="evenodd" d="M238.663 151.758C222.6 105.194 219.009 100.545 202.266 109.313C195.803 112.677 199.394 181.389 233.183 167.518C233.183 167.518 240.288 158.032 238.663 151.795V151.758Z" fill="#F8BB97"/>
<path fill-rule="evenodd" clip-rule="evenodd" d="M191.041 125.868C191.079 112.337 185.032 90.7937 199.583 82.4788C200.339 82.0252 219.086 102.019 227.552 118.876L236.698 139.587C229.744 142.12 212.774 149.263 204.459 151.909C201.057 146.353 195.161 138.983 191.041 125.906V125.868Z" fill="#FC5673"/>
<path fill-rule="evenodd" clip-rule="evenodd" d="M0.741936 371.461C-0.0517651 371.953 -0.127356 373.313 0.137211 374.22L30.0711 385.03L50.3671 392.362L51.123 391.153C53.4663 387.449 54.9026 382.989 56.6411 379.058L39.7089 373.313C31.6963 371.877 23.6837 370.932 15.4821 370.252C12.8742 370.025 9.77501 369.496 7.20493 369.723C5.0506 369.95 2.74509 370.743 0.741936 371.461C0.741936 371.461 0.741936 371.461 0.70414 371.499L0.741936 371.461Z" fill="white"/>
<path fill-rule="evenodd" clip-rule="evenodd" d="M55.734 404.684C54.9025 406.46 55.923 410.882 58.2663 410.391L109.328 400.072L109.139 398.712C108.61 394.592 108.156 389.717 105.662 386.164L88.3136 388.885C80.9435 391.266 73.8758 394.025 66.8459 397.087C64.6159 398.069 61.7435 399.014 59.8159 400.375C58.2285 401.509 56.9057 403.209 55.734 404.684Z" fill="white"/>
<path fill-rule="evenodd" clip-rule="evenodd" d="M105.359 386.202L103.696 376.828L82.3799 381.969L84.1941 390.246L105.359 386.202Z" fill="#F8BB97"/>
<path fill-rule="evenodd" clip-rule="evenodd" d="M55.8475 378.756L58.6821 371.235L38.6128 363.713L35.0601 372.52L55.8475 378.756Z" fill="#F8BB97"/>
<path fill-rule="evenodd" clip-rule="evenodd" d="M114.354 36.1039C114.354 36.1039 117.643 38.0692 124.219 35.0456C130.984 31.8708 137.976 33.1559 139.942 36.5196C141.34 38.9007 141.68 43.5496 142.814 45.3259C143.457 45.4393 144.515 45.3259 145.346 45.2503C147.161 45.2125 146.405 39.6566 148.597 39.8834C151.205 40.0724 155.287 39.9968 155.627 43.7007C155.967 47.4425 161.258 58.6299 162.883 60.3307C164.509 62.0314 171.614 58.1763 172.257 57.685C172.899 57.1936 173.353 45.7795 174.713 40.6393C176.074 35.537 177.094 8.17318 164.282 6.28341C164.282 6.28341 160.729 0.727506 153.548 0.122782C146.367 -0.481942 134.915 1.06766 127.847 6.54798C120.78 12.0661 113.372 20.2299 108.912 20.4188C108.912 20.4188 105.321 21.4393 107.627 23.707C109.894 25.9748 111.973 27.5244 114.808 27.4866C114.808 27.4866 109.63 26.6551 106.531 25.8236C103.431 25.0299 107.324 34.1763 114.43 36.1417L114.392 36.1039H114.354Z" fill="#FFED00"/>
<path fill-rule="evenodd" clip-rule="evenodd" d="M203.514 140.343C200.641 156.898 202.607 174.737 204.647 191.405C206.235 204.595 244.144 247.531 244.106 256.148C240.553 277.767 182.499 317.187 162.657 200.665C150.487 129.232 138.241 120.576 175.243 71.4048C196.333 75.8268 196.257 78.0568 203.703 85.389C211.11 92.7213 222.714 118.347 231.671 134.674L236.698 139.55C229.744 142.951 209.296 127.266 200.981 130.857C199.923 122.58 206.31 138.416 203.476 140.381V140.343H203.514Z" fill="#FC5673"/>
<path fill-rule="evenodd" clip-rule="evenodd" d="M159.595 220.847C159.595 220.847 159.444 227.008 156.156 230.372C151.734 235.096 134.235 242.126 133.252 242.088C131.098 242.013 131.891 240.614 131.891 240.614C131.891 240.614 129.057 242.768 127.734 242.239C126.411 241.71 127.696 239.48 127.696 239.48C127.696 239.48 125.655 240.614 124.597 240.123C123.501 239.594 125.353 236.948 125.353 236.948C125.353 236.948 123.236 238.082 122.103 237.288C121.006 236.494 123.199 232.413 124.862 230.825C129.435 226.328 133.554 224.022 137.825 222.132C137.825 222.132 131.211 222.246 131.816 220.545C132.723 217.937 146.443 215.82 151.129 214.989C155.778 214.157 159.633 220.809 159.633 220.809L159.595 220.847Z" fill="#F8BB97"/>
<path fill-rule="evenodd" clip-rule="evenodd" d="M239.797 166.989L158.197 227.197C149.391 221.414 145.195 216.085 145.195 216.085C163.337 203.272 197.731 160.715 234.014 140.57C234.014 140.57 243.954 156.557 237.378 168.425L239.759 166.989H239.797Z" fill="#F8BB97"/>
</svg>
