<svg width="245" height="584" viewBox="0 0 245 584" fill="none" xmlns="http://www.w3.org/2000/svg">
<path fill-rule="evenodd" clip-rule="evenodd" d="M143.797 192.329L85.3657 232.846C78.5626 226.798 80.15 218.483 80.15 218.483L149.996 158.54C149.996 158.54 154.342 178.005 143.835 192.291V192.329H143.797Z" fill="#F1AC84"/>
<path fill-rule="evenodd" clip-rule="evenodd" d="M86.2727 224.266C86.2727 224.266 86.3105 230.124 84.2318 233.601C81.4349 238.477 70.0963 246.716 69.4538 246.792C68.0176 246.905 68.5089 245.507 68.5089 245.507C68.5089 245.507 68.0176 247.321 67.1483 246.943C66.2412 246.565 66.279 243.05 66.279 243.05C64.616 244.298 65.8633 239.762 65.0696 239.082C61.5546 235.983 70.4365 228.764 71.9861 227.554C71.9861 227.554 67.6396 228.272 68.0176 226.609C68.5467 224.039 77.5042 220.827 80.5656 219.579C83.5892 218.37 86.2727 224.342 86.2727 224.342V224.266Z" fill="#F1AC84"/>
<path fill-rule="evenodd" clip-rule="evenodd" d="M81.6238 245.772L73.7624 248.568L46.9277 182.427L54.6002 179.819L81.6238 245.772Z" fill="black"/>
<path fill-rule="evenodd" clip-rule="evenodd" d="M74.0646 252.386L73.3843 243.012L149.617 234.282L150.298 244.902L74.0646 252.386Z" fill="black"/>
<path fill-rule="evenodd" clip-rule="evenodd" d="M37.1387 364.184L62.9528 374.049C62.9528 374.049 87.5576 323.441 89.8631 304.959C92.2064 286.477 146.632 296.115 171.765 291.126C196.862 286.137 208.654 270.528 206.575 250.269C210.165 228.159 76.1812 268.789 76.1812 268.789L37.1387 364.184Z" fill="#3243B2"/>
<path fill-rule="evenodd" clip-rule="evenodd" d="M209.221 246.15C209.221 246.15 223.998 305.337 165.643 290.899C121.347 287.913 108.723 288.443 96.7418 288.669C99.9922 310.213 106.455 367.472 106.039 377.261L80.8678 383.233C80.8678 383.233 37.4032 263.12 66.9591 252.159C96.4772 241.198 165.491 244.449 165.491 244.449L206.424 246.981L209.221 246.15Z" fill="#5061CF"/>
<path fill-rule="evenodd" clip-rule="evenodd" d="M149.731 75.126C149.731 75.126 150.978 81.3244 150.941 87.2582C149.391 87.3716 171.992 82.8362 177.246 78.2252C177.246 78.2252 172.068 73.8409 170.027 62.9937C168.629 55.5858 172.975 52.7889 169.687 35.2141C167.381 22.8929 155.741 13.2929 138.808 17.6771C127.659 20.5874 122.821 30.7921 122.821 30.7921C122.821 30.7921 120.515 35.3653 120.402 40.5055C120.402 40.5055 120.326 43.8693 120.931 45.6834C121.574 47.5354 123.577 54.4141 123.463 55.926C123.274 59.8189 122.065 61.2551 122.292 62.7291C122.481 64.0519 125.164 64.959 127.092 64.3921C128.906 74.3323 139.073 84.6504 149.655 75.0882H149.693L149.731 75.126Z" fill="#F1AC84"/>
<path fill-rule="evenodd" clip-rule="evenodd" d="M203.513 141.343C200.641 157.898 202.606 175.737 204.647 192.405C206.235 205.595 209.447 238.175 209.447 246.83C211.904 253.52 140.017 261.381 130.38 243.428C131.778 231.787 127.054 243.58 129.624 198.641C134.537 137.753 134.386 126.528 141.907 91.4536C149.013 80.3418 146.972 83.252 150.449 80.3418L151.129 83.3654C152.679 83.7434 154.342 84.2725 155.967 84.0835C162.695 83.4032 170.669 78.5276 175.28 72.4048C196.37 76.8268 196.295 79.0568 203.74 86.389C211.148 93.7213 222.751 119.347 231.709 135.674L236.736 140.55C229.781 143.951 209.334 128.266 201.019 131.857C199.961 123.58 206.348 139.416 203.513 141.381V141.343Z" fill="white"/>
<path fill-rule="evenodd" clip-rule="evenodd" d="M238.663 152.758C222.6 106.194 219.009 101.545 202.266 110.313C195.803 113.677 199.394 182.389 233.183 168.518C233.183 168.518 240.288 159.032 238.663 152.795V152.758Z" fill="#F8BB97"/>
<path fill-rule="evenodd" clip-rule="evenodd" d="M191.041 126.868C191.079 113.337 185.032 91.7937 199.583 83.4788C200.339 83.0252 219.086 103.019 227.552 119.876L236.698 140.587C229.744 143.12 212.774 150.263 204.459 152.909C201.057 147.353 195.161 139.983 191.041 126.906V126.868Z" fill="#FC5673"/>
<path fill-rule="evenodd" clip-rule="evenodd" d="M0.741936 372.461C-0.0517651 372.953 -0.127356 374.313 0.137211 375.22L30.0711 386.03L50.3671 393.362L51.123 392.153C53.4663 388.449 54.9026 383.989 56.6411 380.058L39.7089 374.313C31.6963 372.877 23.6837 371.932 15.4821 371.252C12.8742 371.025 9.77501 370.496 7.20493 370.723C5.0506 370.95 2.74509 371.743 0.741936 372.461C0.741936 372.461 0.741936 372.461 0.70414 372.499L0.741936 372.461Z" fill="black"/>
<path fill-rule="evenodd" clip-rule="evenodd" d="M55.734 405.684C54.9025 407.46 55.923 411.882 58.2663 411.391L109.328 401.072L109.139 399.712C108.61 395.592 108.156 390.717 105.662 387.164L88.3136 389.885C80.9435 392.266 73.8758 395.025 66.8459 398.087C64.6159 399.069 61.7435 400.014 59.8159 401.375C58.2285 402.509 56.9057 404.209 55.734 405.684Z" fill="black"/>
<path fill-rule="evenodd" clip-rule="evenodd" d="M105.359 387.202L103.696 377.828L82.3799 382.969L84.1941 391.246L105.359 387.202Z" fill="#F8BB97"/>
<path fill-rule="evenodd" clip-rule="evenodd" d="M55.8475 379.756L58.6821 372.235L38.6128 364.713L35.0601 373.52L55.8475 379.756Z" fill="#F8BB97"/>
<path fill-rule="evenodd" clip-rule="evenodd" d="M114.354 37.1039C114.354 37.1039 117.643 39.0692 124.219 36.0456C130.984 32.8708 137.976 34.1559 139.942 37.5196C141.34 39.9007 141.68 44.5496 142.814 46.3259C143.457 46.4393 144.515 46.3259 145.346 46.2503C147.161 46.2125 146.405 40.6566 148.597 40.8834C151.205 41.0724 155.287 40.9968 155.627 44.7007C155.967 48.4425 161.258 59.6299 162.883 61.3307C164.509 63.0314 171.614 59.1763 172.257 58.685C172.899 58.1936 173.353 46.7795 174.713 41.6393C176.074 36.537 177.094 9.17318 164.282 7.28341C164.282 7.28341 160.729 1.72751 153.548 1.12278C146.367 0.518058 134.915 2.06766 127.847 7.54798C120.78 13.0661 113.372 21.2299 108.912 21.4188C108.912 21.4188 105.321 22.4393 107.627 24.707C109.894 26.9748 111.973 28.5244 114.808 28.4866C114.808 28.4866 109.63 27.6551 106.531 26.8236C103.431 26.0299 107.324 35.1763 114.43 37.1417L114.392 37.1039H114.354Z" fill="#FFED00"/>
<path fill-rule="evenodd" clip-rule="evenodd" d="M203.514 141.343C200.641 157.898 202.607 175.737 204.647 192.405C206.235 205.595 244.144 248.531 244.106 257.148C240.553 278.767 182.499 318.187 162.657 201.665C150.487 130.232 138.241 121.576 175.243 72.4048C196.333 76.8268 196.257 79.0568 203.703 86.389C211.11 93.7213 222.714 119.347 231.671 135.674L236.698 140.55C229.744 143.951 209.296 128.266 200.981 131.857C199.923 123.58 206.31 139.416 203.476 141.381V141.343H203.514Z" fill="#FC5673"/>
<path fill-rule="evenodd" clip-rule="evenodd" d="M159.595 221.847C159.595 221.847 159.444 228.008 156.156 231.372C151.734 236.096 134.235 243.126 133.252 243.088C131.098 243.013 131.891 241.614 131.891 241.614C131.891 241.614 129.057 243.768 127.734 243.239C126.411 242.71 127.696 240.48 127.696 240.48C127.696 240.48 125.655 241.614 124.597 241.123C123.501 240.594 125.353 237.948 125.353 237.948C125.353 237.948 123.236 239.082 122.103 238.288C121.006 237.494 123.199 233.413 124.862 231.825C129.435 227.328 133.554 225.022 137.825 223.132C137.825 223.132 131.211 223.246 131.816 221.545C132.723 218.937 146.443 216.82 151.129 215.989C155.778 215.157 159.633 221.809 159.633 221.809L159.595 221.847Z" fill="#F1AC84"/>
<path fill-rule="evenodd" clip-rule="evenodd" d="M239.797 167.989L158.197 228.197C149.391 222.414 145.195 217.085 145.195 217.085C163.337 204.272 197.731 161.715 234.014 141.57C234.014 141.57 243.954 157.557 237.378 169.425L239.759 167.989H239.797Z" fill="#F1AC84"/>
</svg>
