<?xml version="1.0" encoding="UTF-8"?>
<!DOCTYPE svg PUBLIC "-//W3C//DTD SVG 1.1//EN" "http://www.w3.org/Graphics/SVG/1.1/DTD/svg11.dtd">
<!-- Creator: CorelDRAW X5 -->
<svg xmlns="http://www.w3.org/2000/svg" xml:space="preserve" width="508.125mm" height="612.024mm" style="shape-rendering:geometricPrecision; text-rendering:geometricPrecision; image-rendering:optimizeQuality; fill-rule:evenodd; clip-rule:evenodd"
viewBox="0 0 13014 15675"
 xmlns:xlink="http://www.w3.org/1999/xlink">
 <defs>
  <style type="text/css">
   <![CDATA[
    .fil14 {fill:#2B2A29;fill-rule:nonzero}
    .fil10 {fill:#2B2E33;fill-rule:nonzero}
    .fil5 {fill:#967BB6;fill-rule:nonzero}
    .fil13 {fill:#A7D9E6;fill-rule:nonzero}
    .fil6 {fill:#C9E5F4;fill-rule:nonzero}
    .fil8 {fill:#F5AB88;fill-rule:nonzero}
    .fil1 {fill:#F6AF89;fill-rule:nonzero}
    .fil4 {fill:#F8BB97;fill-rule:nonzero}
    .fil9 {fill:#4E565A;fill-rule:nonzero}
    .fil12 {fill:#FFED00;fill-rule:nonzero}
    .fil7 {fill:#3B3B3B;fill-rule:nonzero}
    .fil11 {fill:#7D9BAD;fill-rule:nonzero}
    .fil2 {fill:#D6D2D2;fill-rule:nonzero}
    .fil0 {fill:#FF8C81;fill-rule:nonzero}
    .fil3 {fill:black;fill-rule:nonzero}
   ]]>
  </style>
 </defs>
 <g id="Vrstva_x0020_1">
  <metadata id="CorelCorpID_0Corel-Layer"/>
  <path class="fil0" d="M8446 15368l9 43 1604 152 5 -47c17,-145 1,-306 -2,-452l-532 -21c-236,33 -466,80 -697,139 -74,19 -165,32 -232,66 -56,28 -108,77 -154,120z"/>
  <path class="fil0" d="M12197 14885c-267,232 -471,423 -584,768 43,28 51,22 103,17 343,-199 662,-445 987,-673l226 -159c29,-20 68,-40 85,-71l-288 -357c-370,180 -246,13 -528,476z"/>
  <path class="fil1" d="M12612 14204l-584 312 184 356 526 -446c-58,-68 -94,-139 -126,-222z"/>
  <path class="fil2" d="M10404 2901c46,-106 108,-143 211,-184 102,27 193,60 283,118 398,256 736,644 1053,991 171,188 362,378 490,599 96,167 160,1320 121,1533l-322 33c-111,-602 -225,-953 -354,-1268 -46,-142 -269,-257 -387,-340l-393 -283c-254,-147 -562,-346 -677,-626 -68,-166 -98,-406 -25,-575z"/>
  <path class="fil3" d="M9845 2187l118 -76c283,-203 381,-505 435,-833l46 -14c146,-49 252,-124 321,-266 55,-114 58,-253 17,-372 -42,-121 -117,-213 -233,-269 -110,-53 -236,-66 -352,-23 -152,56 -222,178 -287,318 -232,-124 -489,-173 -750,-114 -125,28 -251,83 -349,168 -45,38 -82,85 -126,123 -54,47 -114,83 -152,145 -111,181 -126,367 -80,571 640,1196 1153,43 1394,642z"/>
  <path class="fil4" d="M8490 1854c39,-108 -4,-206 -38,-308 33,-85 43,-171 72,-255 27,-81 49,-68 89,-142 109,231 295,303 539,389l209 71 72 274c13,-118 10,-257 113,-336 34,-26 64,-32 106,-31 58,35 103,70 123,140 15,52 7,112 -22,158l-66 92 -3 46c-31,188 -217,359 -352,478l-41 30c-103,65 -290,162 -414,128 -130,-35 -215,-211 -250,-329 -15,-52 -25,-126 -53,-171 -17,-26 -68,-27 -98,-34 -38,-16 -93,-17 -89,-58 3,-42 67,-96 104,-140zm1194 96c-31,188 -217,359 -352,478 58,133 105,272 46,414l-9 19 31 67c45,4 95,10 139,2 187,-36 394,-173 501,-329 -61,-136 -157,-270 -194,-414 -30,-78 -112,-167 -161,-237z"/>
  <path class="fil5" d="M10355 2652c-78,-35 -228,-38 -316,-51 -107,156 -313,293 -501,329 -45,9 -94,2 -139,-2l-31 -67c-87,78 -171,166 -199,282 -143,456 -244,862 -213,1346 89,164 196,305 296,462 172,269 131,585 137,886 46,268 42,570 47,843 2,108 -12,253 15,357l77 -1c551,24 1140,-82 1661,-261 161,-56 318,-156 480,-198l10 -2c-11,-68 -46,-136 -73,-199 -100,-219 -364,-897 -428,-1094 -122,-377 -87,-792 -71,-1182 -254,-147 -317,-205 -555,-426 -68,-166 -221,-606 -148,-774 46,-105 107,-143 211,-184l-259 -65z"/>
  <path class="fil6" d="M10355 2652c-78,-35 -228,-38 -316,-51 -107,156 -313,293 -501,329 -45,9 -94,2 -139,-2l-31 -67c-87,78 -171,166 -199,282 29,56 72,127 128,159 72,42 174,41 252,23 356,-82 621,-374 806,-673z"/>
  <path class="fil4" d="M12240 5992c3,185 -27,352 -107,521 -27,58 -72,118 -83,181 -9,53 -6,109 30,151l30 -1 68 -134c9,84 -1,430 78,399 38,-15 28,-10 62,-37 22,-17 1,92 36,98 41,7 35,-55 69,-76 10,-6 38,49 74,57 29,7 17,-63 34,-74 0,0 20,6 33,28 77,135 116,-683 18,-997 -11,-49 -13,-100 -17,-150l-322 33z"/>
  <path class="fil3" d="M11669 6578l10 -2c302,1081 175,1272 -136,2361l-257 952 -91 329c-9,33 -33,98 -30,130 6,59 65,160 88,218l205 547 1154 3090 -584 312 -1319 -2804 -352 -747c-61,-128 -145,-264 -189,-399 -40,-122 -32,-273 -43,-401 -29,65 -99,182 -102,250 -3,51 24,128 31,181 22,179 44,370 46,550l-19 2451 -17 1133 0 0 -561 66 0 0 -145 -1301 -205 -2050 -62 -574c-26,-206 -60,-415 -54,-623 10,-321 74,-644 118,-963l162 -1204 134 -1045c739,-153 1478,-306 2217,-459z"/>
  <polygon class="fil1" points="9502,14797 9529,15043 10061,15064 10064,14731 "/>
  <path class="fil4" d="M7453 5532c-175,62 -334,14 -509,117 -155,91 -443,350 -263,326l405 -55c205,-57 357,-181 560,-60l8 5c-60,-118 -124,-225 -201,-333z"/>
  <path class="fil4" d="M7414 5761c173,65 -196,308 -233,263 -66,-79 61,-328 233,-263z"/>
  <path class="fil4" d="M760 8572l-74 -248 -87 -309 -201 0 -22 341 8 177 -84 319c28,43 98,-22 101,0 4,38 -1,102 65,53 11,-8 14,80 46,102 58,40 31,-63 72,-70 0,0 49,209 89,141l103 -457 -15 -49z"/>
  <path class="fil7" d="M264 8291l-263 -2240c627,-401 795,100 795,100l-83 2059c0,0 -120,112 -448,81z"/>
  <path class="fil7" d="M2 5977l160 -2224c121,-543 676,-364 676,-364 450,132 413,640 413,640l-456 2121c0,0 -92,324 -512,311 0,0 -309,-51 -282,-484z"/>
  <path class="fil8" d="M718 6464l-469 -2479c0,0 -150,-371 126,-565l1057 -530 453 -187 1305 728 -472 2982 -2000 50z"/>
  <path class="fil9" d="M1394 14618l160 396 701 98c0,0 240,63 249,289l-1680 0 137 -783 433 -1z"/>
  <path class="fil10" d="M846 8224c-22,406 139,746 532,767 393,21 730,-291 752,-697 22,-406 -279,-753 -672,-775 -394,-21 -590,298 -612,705z"/>
  <path class="fil9" d="M2829 15364l48 -701 320 -45c0,0 129,289 238,355 109,66 844,177 844,177 0,0 228,-27 228,257 0,0 -495,46 -1678,-42z"/>
  <path class="fil10" d="M1699 8228c26,406 366,715 759,690 393,-25 691,-375 665,-781 -26,-406 -366,-715 -759,-690 -393,25 -691,375 -665,781z"/>
  <path class="fil11" d="M2855 14975l-245 -1882c-200,-1305 -162,-2024 -162,-2024 224,-827 939,-161 939,-161l48 4066c0,0 -232,119 -579,1zm-1963 44l-140 -2351c0,-811 255,-1633 255,-1633 532,-549 855,-64 855,-64l-307 4043c0,0 -409,47 -663,5zm1262 -6323l-302 2320c0,0 -685,781 -847,304 0,0 -257,-2015 -159,-3096 0,0 1112,-523 1308,472zm975 -469l258 2681c0,0 -276,739 -903,287l-856 -2585c0,0 373,-1154 1501,-383z"/>
  <path class="fil4" d="M2177 2322l20 806 -853 21c0,0 202,-325 85,-809l748 -19z"/>
  <path class="fil4" d="M2332 2522c239,10 273,-214 273,-214 134,-453 95,-735 95,-735 -21,-68 -38,-139 -29,-214 43,-366 -164,-544 -164,-544 -243,-309 -737,-257 -737,-257 -14,2 -27,5 -40,7 -609,46 -694,421 -694,421 -61,164 -71,347 -33,517 44,196 132,357 236,525 113,183 336,307 573,386l6 231 297 -7c38,-124 144,-115 144,-115l75 -1z"/>
  <path class="fil4" d="M2257 2523c0,0 -36,-5 -75,19l10 394 -224 6c45,-150 34,-328 -5,-460 -149,-135 -379,-211 -581,-410 57,-1 265,-4 322,-3 105,3 210,-7 315,2 93,8 91,87 108,164 7,30 14,60 25,87 3,9 7,18 12,26l0 1c4,8 9,16 14,24 21,30 51,53 97,62 117,23 218,20 305,-54 -32,67 -101,147 -248,142l-75 1z"/>
  <path class="fil12" d="M1579 294c0,0 -830,111 -661,719 0,0 -180,209 -135,417 19,387 562,891 562,891 49,102 124,108 124,108l268 -7c118,-7 156,-83 156,-83 206,-253 315,-348 315,-348 99,-115 -37,-332 -37,-332 -102,-257 162,-241 162,-241 110,51 81,263 81,263 45,-5 89,-56 89,-56l-20 -313c13,-84 -5,-101 64,-156 510,-132 276,-789 276,-789 0,0 -87,113 -245,128 0,0 145,-225 -123,-496 0,0 -117,248 -878,294z"/>
  <path class="fil13" d="M744 7358l-25 -894 -469 -2479c0,0 -150,-371 126,-565l1057 -530c0,0 273,101 754,-19l1004 560 -261 2808 98 1061c0,0 -1153,381 -2284,57z"/>
  <path class="fil14" d="M1193 8920c-309,-52 -587,-157 -783,-345l-45 -2437 -155 -2287c-85,-382 283,-489 283,-489l816 -409c0,0 420,193 1009,-7l886 480 48 2498 333 2708c0,0 -976,327 -1838,329l-211 -329 -343 288z"/>
  <path class="fil2" d="M2187 2725c0,0 -476,-34 -726,18l-326 296c0,0 635,80 1322,-17l-270 -298z"/>
  <path class="fil14" d="M3536 6293l-846 -2122c-184,-681 423,-776 423,-776 483,105 668,616 668,616l505 1867c0,0 23,552 -244,599 0,0 -418,104 -505,-183z"/>
  <path class="fil4" d="M5890 6163c0,0 95,136 221,161 173,37 683,-77 706,-93 49,-35 10,-54 10,-54 0,0 98,5 121,-28 23,-33 -40,-63 -40,-63 0,0 64,-6 81,-34 18,-29 -65,-59 -65,-59 0,0 67,-7 80,-42 14,-35 -98,-92 -160,-103 -173,-30 -302,-18 -430,6 0,0 155,-100 116,-130 -60,-45 -410,121 -530,175 -120,54 -111,264 -111,264z"/>
  <path class="fil14" d="M3887 6584l2193 -209c70,-272 -53,-564 -53,-564l-2349 -74c0,0 -306,723 210,847z"/>
  <path class="fil2" d="M9215 5484c32,-300 114,-607 -22,-896 -79,-168 -166,-322 -234,-496l-112 978c-503,444 -1297,505 -1390,468l-145 354c415,121 1113,-175 1552,-271 124,-27 237,-83 351,-137z"/>
  <path class="fil2" d="M10355 2652c-78,-35 -228,-38 -316,-51 -107,156 -313,293 -501,329 -45,9 -94,2 -139,-2l-31 -67c-87,78 -171,166 -199,282 29,56 72,127 128,159 72,42 174,41 252,23 356,-82 621,-374 806,-673z"/>
 </g>
</svg>
