<svg width="1921" height="2314" viewBox="0 0 1921 2314" fill="none" xmlns="http://www.w3.org/2000/svg">
<path d="M1246.37 2267.85L1247.7 2274.2L1484.4 2296.63L1485.14 2289.7C1487.65 2268.3 1485.29 2244.54 1484.85 2222.99L1406.34 2219.89C1371.51 2224.76 1337.57 2231.7 1303.48 2240.41C1292.56 2243.21 1279.13 2245.13 1269.25 2250.15C1260.98 2254.28 1253.31 2261.51 1246.52 2267.85H1246.37Z" fill="#FF8C81"/>
<path d="M1799.91 2196.58C1760.51 2230.81 1730.4 2259 1713.73 2309.91C1720.07 2314.04 1721.25 2313.16 1728.93 2312.42C1779.54 2283.05 1826.62 2246.75 1874.58 2213.11L1907.93 2189.64C1912.21 2186.69 1917.96 2183.74 1920.47 2179.16L1877.97 2126.48C1823.37 2153.04 1841.67 2128.4 1800.05 2196.73L1799.91 2196.58Z" fill="#FF8C81"/>
<path d="M1861.15 2096.08L1774.97 2142.13L1802.12 2194.66L1879.74 2128.84C1871.18 2118.81 1865.87 2108.33 1861.15 2096.08Z" fill="#F6AF89"/>
<path d="M1535.31 428.103C1542.1 412.461 1551.25 407.001 1566.45 400.95C1581.5 404.935 1594.93 409.804 1608.21 418.363C1666.95 456.141 1716.83 513.398 1763.61 564.605C1788.84 592.348 1817.03 620.386 1835.91 652.999C1850.08 677.643 1859.53 847.791 1853.77 879.224L1806.25 884.094C1789.87 795.257 1773.05 743.46 1754.01 696.975C1747.23 676.02 1714.32 659.05 1696.9 646.801L1638.91 605.039C1601.43 583.346 1555.97 553.98 1539 512.66C1528.97 488.164 1524.54 452.747 1535.31 427.808V428.103Z" fill="#D6D2D2"/>
<path d="M1452.82 322.738L1470.24 311.523C1512 281.566 1526.46 237 1534.43 188.597L1541.22 186.531C1562.76 179.3 1578.41 168.233 1588.59 147.278C1596.7 130.455 1597.15 109.943 1591.1 92.3819C1584.9 74.526 1573.83 60.9495 1556.71 52.6856C1540.48 44.8644 1521.89 42.946 1504.77 49.2915C1482.34 57.5554 1472.01 75.559 1462.42 96.2187C1428.18 77.9201 1390.25 70.6891 1351.74 79.3958C1333.29 83.5277 1314.7 91.6441 1300.24 104.187C1293.6 109.795 1288.14 116.731 1281.64 122.339C1273.67 129.274 1264.82 134.587 1259.21 143.736C1242.83 170.446 1240.62 197.894 1247.41 227.998C1341.85 404.492 1417.55 234.344 1453.12 322.738H1452.82Z" fill="#6E3C36"/>
<path d="M1252.87 273.597C1258.62 257.66 1252.28 243.198 1247.26 228.146C1252.13 215.602 1253.6 202.911 1257.88 190.515C1261.87 178.562 1265.12 180.481 1271.02 169.561C1287.1 203.649 1314.55 214.274 1350.56 226.965L1381.4 237.443L1392.03 277.877C1393.94 260.464 1393.5 239.951 1408.7 228.293C1413.72 224.456 1418.14 223.571 1424.34 223.719C1432.9 228.884 1439.54 234.049 1442.49 244.378C1444.71 252.052 1443.53 260.906 1439.25 267.694L1429.51 281.271L1429.07 288.059C1424.49 315.802 1397.04 341.037 1377.12 358.597L1371.07 363.024C1355.87 372.617 1328.28 386.931 1309.98 381.913C1290.79 376.748 1278.25 350.776 1273.08 333.363C1270.87 325.689 1269.39 314.769 1265.26 308.129C1262.75 304.292 1255.23 304.144 1250.8 303.111C1245.19 300.75 1237.08 300.602 1237.67 294.552C1238.11 288.354 1247.55 280.385 1253.01 273.892L1252.87 273.597ZM1429.07 287.764C1424.49 315.507 1397.04 340.741 1377.12 358.302C1385.68 377.929 1392.62 398.441 1383.91 419.396L1382.58 422.2L1387.16 432.087C1393.8 432.677 1401.17 433.563 1407.67 432.382C1435.26 427.07 1465.81 406.853 1481.6 383.832C1472.6 363.762 1458.43 343.988 1452.97 322.738C1448.54 311.228 1436.44 298.094 1429.21 287.764H1429.07Z" fill="#F8BB97"/>
<path d="M1528.08 391.358C1516.57 386.193 1494.44 385.75 1481.45 383.832C1465.66 406.853 1435.26 427.07 1407.52 432.382C1400.88 433.711 1393.65 432.678 1387.01 432.087L1382.43 422.2C1369.59 433.711 1357.2 446.697 1353.07 463.815C1331.96 531.107 1317.06 591.02 1321.63 662.444C1334.77 686.645 1350.56 707.452 1365.31 730.621C1390.7 770.317 1384.65 816.949 1385.53 861.368C1392.32 900.916 1391.73 945.482 1392.47 985.769C1392.76 1001.71 1377.02 1134.65 1381 1150H1434C1515.31 1153.54 1572.65 1119.41 1649.53 1093C1673.29 1084.74 1790 1145.5 1721.99 970.569L1747.5 1062C1745.88 1051.97 1716.68 950.205 1712.69 940.908C1697.94 908.59 1658.98 808.538 1649.53 779.466C1631.53 723.833 1636.7 662.591 1639.06 605.039C1601.57 583.346 1592.28 574.787 1557.16 542.174C1547.12 517.678 1524.54 452.747 1535.32 427.955C1542.1 412.461 1551.11 406.853 1566.45 400.803L1528.23 391.211L1528.08 391.358Z" fill="#967BB6"/>
<path d="M1528.08 391.358C1516.57 386.193 1494.44 385.75 1481.45 383.832C1465.66 406.853 1435.26 427.07 1407.52 432.382C1400.88 433.711 1393.65 432.678 1387.01 432.087L1382.43 422.2C1369.59 433.711 1357.2 446.697 1353.07 463.815C1357.35 472.079 1363.69 482.556 1371.96 487.278C1382.58 493.476 1397.63 493.329 1409.14 490.673C1461.68 478.572 1500.78 435.481 1528.08 391.358Z" fill="#C9E5F4"/>
<path d="M1806.25 884.241C1806.7 911.541 1802.27 936.186 1790.46 961.125C1786.48 969.684 1779.84 978.538 1778.21 987.835C1776.89 995.656 1777.33 1003.92 1782.64 1010.12L1787.07 1009.97L1797.1 990.196C1798.43 1002.59 1796.96 1053.65 1808.61 1049.08C1814.22 1046.86 1812.75 1047.6 1817.76 1043.62C1821.01 1041.11 1817.91 1057.19 1823.08 1058.08C1829.13 1059.11 1828.24 1049.96 1833.26 1046.86C1834.73 1045.98 1838.87 1054.09 1844.18 1055.27C1848.46 1056.31 1846.69 1045.98 1849.2 1044.35C1849.2 1044.35 1852.15 1045.24 1854.07 1048.49C1865.43 1068.41 1871.18 947.696 1856.72 901.359C1855.1 894.128 1854.8 886.602 1854.21 879.224L1806.7 884.093L1806.25 884.241Z" fill="#F8BB97"/>
<path d="M1742.81 1052L1723.47 970.422C1768.03 1129.94 1749.29 1158.13 1703.4 1318.83L1665.47 1459.32L1652.04 1507.87C1650.71 1512.74 1647.17 1522.33 1647.62 1527.05C1648.5 1535.76 1657.21 1550.67 1660.6 1559.23L1690.85 1639.95L1861.15 2095.94L1774.97 2141.98L1580.32 1728.19L1528.38 1617.96C1519.38 1599.07 1506.98 1579 1500.49 1559.08C1494.59 1541.07 1495.77 1518.79 1494.14 1499.9C1489.86 1509.49 1479.53 1526.76 1479.09 1536.79C1478.65 1544.32 1482.63 1555.68 1483.67 1563.5C1486.91 1589.92 1490.16 1618.11 1490.45 1644.67L1487.65 2006.36L1485.14 2173.56L1402.35 2183.3L1380.96 1991.31L1350.71 1688.79L1341.56 1604.09C1337.72 1573.69 1332.7 1542.84 1333.59 1512.15C1335.06 1464.78 1344.51 1417.12 1351 1370.04L1374.91 1192.37L1380.96 1150C1490.01 1127.42 1633.76 1074.58 1742.81 1052Z" fill="#66C3D0"/>
<path d="M1402.21 2183.59L1406.19 2219.89L1484.7 2222.99L1485.14 2173.85L1402.21 2183.59Z" fill="#F6AF89"/>
<path d="M1099.84 816.359C1074.01 825.508 1050.55 818.425 1024.72 833.625C1001.85 847.053 959.35 885.274 985.913 881.732L1045.68 873.616C1075.93 865.204 1098.36 846.906 1128.32 864.762L1129.5 865.5C1120.64 848.086 1111.2 832.296 1099.84 816.359Z" fill="#F8BB97"/>
<path d="M1094.08 850.152C1119.61 859.744 1065.16 895.603 1059.7 888.963C1049.96 877.305 1068.7 840.56 1094.08 850.152Z" fill="#F8BB97"/>
<path d="M112.153 1264.97L101.232 1228.37L88.3939 1182.77H58.7323L55.4858 1233.1L56.6664 1259.22L44.2705 1306.29C48.4025 1312.64 58.7323 1303.04 59.1751 1306.29C59.7653 1311.9 59.0275 1321.34 68.7671 1314.11C70.3904 1312.93 70.8331 1325.92 75.5553 1329.16C84.1143 1335.07 80.13 1319.87 86.1803 1318.83C86.1803 1318.83 93.4112 1349.68 99.314 1339.64L114.514 1272.2L112.3 1264.97H112.153Z" fill="#F8BB97"/>
<path d="M38.9583 1223.5L0.147461 892.948C92.6737 833.772 117.465 907.705 117.465 907.705L105.217 1211.55C105.217 1211.55 87.5087 1228.08 39.1059 1223.5H38.9583Z" fill="#D2455D"/>
<path d="M0.294652 882.028L23.9058 553.832C41.7617 473.702 123.663 500.117 123.663 500.117C190.069 519.596 184.609 594.562 184.609 594.562L117.317 907.557C117.317 907.557 103.741 955.37 41.7617 953.451C41.7617 953.451 -3.8373 945.925 0.147082 882.028H0.294652Z" fill="#D2455D"/>
<path d="M105.955 953.894L36.7449 588.068C36.7449 588.068 14.6094 533.32 55.3386 504.691L211.32 426.479L278.169 398.884L470.747 506.315L401.095 946.367L105.955 953.746V953.894Z" fill="#F5AB88"/>
<path d="M205.711 2157.18L229.323 2215.61L332.769 2230.08C332.769 2230.08 368.186 2239.37 369.514 2272.72H121.597L141.814 2157.18L205.711 2157.03V2157.18Z" fill="#4E565A"/>
<path d="M124.844 1213.62C121.597 1273.53 145.356 1323.7 203.351 1326.8C261.346 1329.9 311.077 1283.86 314.323 1223.95C317.57 1164.03 273.151 1112.83 215.157 1109.58C157.014 1106.48 128.09 1153.56 124.844 1213.62Z" fill="#2B2E33"/>
<path d="M417.475 2267.26L424.558 2163.82L471.78 2157.18C471.78 2157.18 490.817 2199.82 506.902 2209.56C522.987 2219.3 631.451 2235.68 631.451 2235.68C631.451 2235.68 665.097 2231.7 665.097 2273.61C665.097 2273.61 592.05 2280.4 417.475 2267.41V2267.26Z" fill="#4E565A"/>
<path d="M250.72 1214.21C254.557 1274.12 304.731 1319.72 362.726 1316.03C420.721 1312.34 464.697 1260.69 460.86 1200.78C457.023 1140.86 406.849 1095.27 348.854 1098.96C290.859 1102.64 246.884 1154.29 250.72 1214.21Z" fill="#2B2E33"/>
<path d="M421.311 2209.86L385.156 1932.13C355.642 1739.55 361.25 1633.45 361.25 1633.45C394.306 1511.41 499.818 1609.69 499.818 1609.69L506.901 2209.71C506.901 2209.71 472.665 2227.27 421.458 2209.86H421.311ZM131.631 2216.35L110.972 1869.42C110.972 1749.74 148.602 1628.43 148.602 1628.43C227.109 1547.42 274.774 1618.99 274.774 1618.99L229.47 2215.61C229.47 2215.61 169.114 2222.55 131.631 2216.35ZM317.864 1283.27L273.298 1625.63C273.298 1625.63 172.213 1740.88 148.307 1670.49C148.307 1670.49 110.381 1373.14 124.843 1213.62C124.843 1213.62 288.941 1136.44 317.864 1283.27ZM461.745 1214.06L499.818 1609.69C499.818 1609.69 459.089 1718.75 366.562 1652.05L240.243 1270.58C240.243 1270.58 295.286 1100.28 461.745 1214.06Z" fill="#423DBE"/>
<path d="M321.259 342.66L324.21 461.601L198.333 464.7C198.333 464.7 228.142 416.74 210.876 345.316L321.259 342.512V342.66Z" fill="#F8BB97"/>
<path d="M344.132 372.174C379.401 373.65 384.418 340.594 384.418 340.594C404.193 273.745 398.437 232.13 398.437 232.13C395.338 222.095 392.83 211.618 394.158 200.55C400.503 146.54 369.956 120.272 369.956 120.272C334.097 74.6733 261.198 82.3469 261.198 82.3469C259.132 82.6421 257.213 83.0848 255.295 83.3799C165.425 90.1681 152.881 145.507 152.881 145.507C143.88 169.708 142.404 196.713 148.012 221.8C154.505 250.724 167.491 274.483 182.838 299.274C199.513 326.28 232.421 344.578 267.395 356.236L268.281 390.325L312.109 389.292C317.717 370.993 333.359 372.321 333.359 372.321L344.427 372.174H344.132Z" fill="#F8BB97"/>
<path d="M333.064 372.321C333.064 372.321 327.751 371.584 321.996 375.125L323.472 433.268L290.416 434.153C297.057 412.018 295.434 385.75 289.678 366.271C267.691 346.349 233.75 335.134 203.94 305.767C212.352 305.62 243.046 305.177 251.458 305.325C266.953 305.767 282.448 304.292 297.942 305.62C311.666 306.8 311.371 318.458 313.88 329.821C314.913 334.248 315.946 338.675 317.569 342.66C318.012 343.988 318.602 345.316 319.34 346.497V346.644C319.93 347.825 320.668 349.005 321.406 350.186C324.505 354.613 328.932 358.007 335.72 359.335C352.986 362.729 367.89 362.287 380.729 351.366C376.007 361.254 365.824 373.059 344.132 372.321L333.064 372.469V372.321Z" fill="#F8BB97"/>
<path d="M233.012 43.3885C233.012 43.3885 110.529 59.7688 135.468 149.491C135.468 149.491 108.906 180.333 115.546 211.028C118.35 268.137 198.48 342.512 198.48 342.512C205.711 357.564 216.779 358.45 216.779 358.45L256.328 357.417C273.741 356.384 279.349 345.169 279.349 345.169C309.748 307.833 325.833 293.814 325.833 293.814C340.443 276.844 320.373 244.821 320.373 244.821C305.321 206.896 344.279 209.257 344.279 209.257C360.512 216.783 356.232 248.068 356.232 248.068C362.873 247.33 369.366 239.804 369.366 239.804L366.415 193.615C368.333 181.219 365.677 178.71 375.859 170.594C451.12 151.114 416.589 54.1611 416.589 54.1611C416.589 54.1611 403.75 70.8365 380.434 73.0501C380.434 73.0501 401.832 39.8469 362.283 -0.144531C362.283 -0.144531 345.017 36.4528 232.717 43.241L233.012 43.3885Z" fill="#FFED00"/>
<path d="M109.792 1085.82L106.103 953.894L36.8923 588.068C36.8923 588.068 14.7569 533.32 55.4861 504.692L211.467 426.48C211.467 426.48 251.754 441.384 322.735 423.676L470.895 506.315L432.379 920.691L446.841 1077.26C446.841 1077.26 276.693 1133.49 109.792 1085.67V1085.82Z" fill="#A7D9E6"/>
<path d="M175.942 1315.58C130.343 1307.91 89.3184 1292.41 60.3947 1264.67L53.7541 905.043L30.8807 567.551C18.3373 511.179 72.643 495.389 72.643 495.389L193.06 435.033C193.06 435.033 255.039 463.514 341.958 434L472.705 504.833L479.788 873.463L528.929 1273.08C528.929 1273.08 384.901 1321.34 257.695 1321.63L226.558 1273.08L175.942 1315.58Z" fill="#F43F5E"/>
<path d="M322.735 402.131C322.735 402.131 252.491 397.113 215.599 404.787L167.491 448.468C167.491 448.468 261.198 460.273 362.578 445.959L322.735 401.983V402.131Z" fill="#D6D2D2"/>
<path d="M521.969 923.657L397.125 610.514C369.973 510.019 459.547 496 459.547 496C530.824 511.495 558.124 586.903 558.124 586.903L632.647 862.416C632.647 862.416 636.041 943.874 596.64 950.81C596.64 950.81 534.956 966.157 522.117 923.805L521.969 923.657Z" fill="#F43F5E"/>
<path d="M869.185 909.475C869.185 909.475 883.204 929.545 901.798 933.234C927.327 938.694 1002.59 921.871 1005.98 919.51C1013.21 914.345 1007.46 911.541 1007.46 911.541C1007.46 911.541 1021.92 912.279 1025.31 907.409C1028.71 902.539 1019.41 898.112 1019.41 898.112C1019.41 898.112 1028.86 897.227 1031.36 893.095C1034.02 888.815 1021.77 884.388 1021.77 884.388C1021.77 884.388 1031.66 883.355 1033.58 878.19C1035.64 873.025 1019.12 864.614 1009.97 862.991C984.437 858.564 965.4 860.334 946.511 863.876C946.511 863.876 969.385 849.119 963.629 844.692C954.775 838.051 903.126 862.548 885.417 870.517C867.709 878.485 869.037 909.475 869.037 909.475H869.185Z" fill="#F8BB97"/>
<path d="M573.603 971.602L897.224 940.76C907.554 900.621 889.402 857.531 889.402 857.531L542.761 846.61C542.761 846.61 497.605 953.303 573.751 971.602H573.603Z" fill="#F43F5E"/>
<path d="M1359.85 809.275C1364.58 765.005 1376.68 719.701 1356.61 677.053C1344.95 652.261 1332.11 629.536 1322.08 603.858L1305.55 748.182C1231.32 813.703 1114.15 822.704 1100.43 817.244L1079.03 869.484C1140.27 887.34 1243.27 843.659 1308.06 829.493C1326.36 825.508 1343.03 817.244 1359.85 809.275Z" fill="#D6D2D2"/>
<path d="M1528.08 391.358C1516.57 386.193 1494.44 385.75 1481.45 383.832C1465.66 406.853 1435.26 427.07 1407.52 432.382C1400.88 433.711 1393.65 432.678 1387.01 432.087L1382.43 422.2C1369.59 433.711 1357.2 446.697 1353.07 463.815C1357.35 472.079 1363.69 482.556 1371.96 487.278C1382.58 493.476 1397.63 493.329 1409.14 490.673C1461.68 478.572 1500.78 435.481 1528.08 391.358Z" fill="#D6D2D2"/>
</svg>
