<svg width="1921" height="2314" viewBox="0 0 1921 2314" fill="none" xmlns="http://www.w3.org/2000/svg">
<path d="M1246.47 2268L1247.8 2274.34L1484.5 2296.78L1485.24 2289.84C1487.75 2268.44 1485.39 2244.68 1484.95 2223.14L1406.44 2220.04C1371.61 2224.91 1337.67 2231.84 1303.58 2240.55C1292.66 2243.36 1279.23 2245.27 1269.35 2250.29C1261.08 2254.42 1253.41 2261.65 1246.62 2268H1246.47Z" fill="#FF8C81"/>
<path d="M1800.01 2196.72C1760.61 2230.96 1730.5 2259.14 1713.83 2310.06C1720.17 2314.19 1721.35 2313.3 1729.03 2312.56C1779.64 2283.2 1826.72 2246.9 1874.68 2213.25L1908.03 2189.79C1912.31 2186.84 1918.06 2183.88 1920.57 2179.31L1878.07 2126.63C1823.47 2153.19 1841.77 2128.55 1800.15 2196.87L1800.01 2196.72Z" fill="#FF8C81"/>
<path d="M1861.25 2096.23L1775.07 2142.27L1802.22 2194.8L1879.84 2128.99C1871.28 2118.95 1865.97 2108.48 1861.25 2096.23Z" fill="#F6AF89"/>
<path d="M1535.41 428.248C1542.2 412.605 1551.35 407.145 1566.55 401.095C1581.6 405.079 1595.03 409.949 1608.31 418.508C1667.05 456.286 1716.93 513.543 1763.7 564.75C1788.94 592.493 1817.13 620.531 1836.01 653.144C1850.18 677.788 1859.63 847.936 1853.87 879.368L1806.35 884.238C1789.97 795.401 1773.15 743.604 1754.11 697.12C1747.32 676.165 1714.42 659.194 1697 646.946L1639.01 605.184C1601.53 583.491 1556.07 554.125 1539.1 512.805C1529.07 488.308 1524.64 452.892 1535.41 427.952V428.248Z" fill="#D6D2D2"/>
<path d="M1452.92 322.883L1470.34 311.667C1512.1 281.711 1526.56 237.145 1534.53 188.742L1541.32 186.676C1562.86 179.445 1578.5 168.377 1588.69 147.422C1596.8 130.599 1597.25 110.087 1591.2 92.5264C1585 74.6705 1573.93 61.0941 1556.81 52.8302C1540.58 45.009 1521.99 43.0906 1504.87 49.4361C1482.44 57.7 1472.11 75.7035 1462.51 96.3632C1428.28 78.0646 1390.35 70.8337 1351.84 79.5403C1333.39 83.6722 1314.8 91.7886 1300.34 104.332C1293.7 109.94 1288.24 116.875 1281.74 122.483C1273.77 129.419 1264.92 134.731 1259.31 143.881C1242.93 170.591 1240.72 198.039 1247.51 228.143C1341.95 404.636 1417.65 234.489 1453.22 322.883H1452.92Z" fill="#6E3C36"/>
<path d="M1252.97 273.742C1258.72 257.804 1252.38 243.342 1247.36 228.29C1252.23 215.747 1253.7 203.056 1257.98 190.66C1261.97 178.707 1265.21 180.625 1271.12 169.705C1287.2 203.794 1314.65 214.419 1350.66 227.11L1381.5 237.587L1392.12 278.021C1394.04 260.608 1393.6 240.096 1408.8 228.438C1413.82 224.601 1418.24 223.716 1424.44 223.863C1433 229.028 1439.64 234.193 1442.59 244.523C1444.81 252.197 1443.63 261.051 1439.35 267.839L1429.61 281.415L1429.16 288.204C1424.59 315.947 1397.14 341.181 1377.22 358.742L1371.17 363.169C1355.97 372.761 1328.37 387.075 1310.08 382.058C1290.89 376.893 1278.35 350.921 1273.18 333.507C1270.97 325.834 1269.49 314.914 1265.36 308.273C1262.85 304.436 1255.33 304.289 1250.9 303.256C1245.29 300.895 1237.18 300.747 1237.77 294.697C1238.21 288.499 1247.65 280.53 1253.11 274.037L1252.97 273.742ZM1429.16 287.908C1424.59 315.652 1397.14 340.886 1377.22 358.447C1385.78 378.074 1392.72 398.586 1384.01 419.541L1382.68 422.344L1387.25 432.232C1393.9 432.822 1401.27 433.707 1407.77 432.527C1435.36 427.214 1465.91 406.997 1481.7 383.976C1472.7 363.907 1458.53 344.133 1453.07 322.882C1448.64 311.372 1436.54 298.238 1429.31 287.908H1429.16Z" fill="#F8BB97"/>
<path d="M1528.18 391.503C1516.67 386.338 1494.54 385.895 1481.55 383.977C1465.76 406.997 1435.36 427.214 1407.62 432.527C1400.98 433.855 1393.75 432.822 1387.11 432.232L1382.53 422.345C1369.69 433.855 1357.3 446.841 1353.17 463.959C1332.06 531.251 1317.16 591.164 1321.73 662.588C1334.87 686.79 1350.66 707.597 1365.41 730.765C1390.8 770.462 1384.75 817.094 1385.63 861.512C1392.42 901.061 1391.83 945.627 1392.57 985.913C1392.86 1001.85 1377.12 1134.8 1381.1 1150.14H1434.1C1515.41 1153.69 1572.75 1119.56 1649.63 1093.14C1673.39 1084.88 1790.1 1145.64 1722.09 970.714L1747.6 1062.14C1745.98 1052.11 1716.78 950.349 1712.79 941.052C1698.04 908.734 1659.08 808.682 1649.63 779.611C1631.63 723.977 1636.8 662.736 1639.16 605.184C1601.67 583.491 1592.38 574.932 1557.26 542.319C1547.22 517.822 1524.64 452.892 1535.41 428.1C1542.2 412.605 1551.2 406.997 1566.55 400.947L1528.33 391.355L1528.18 391.503Z" fill="#967BB6"/>
<path d="M1528.18 391.503C1516.67 386.338 1494.54 385.895 1481.55 383.977C1465.76 406.997 1435.36 427.214 1407.62 432.527C1400.98 433.855 1393.75 432.822 1387.11 432.232L1382.53 422.345C1369.69 433.855 1357.3 446.841 1353.17 463.959C1357.45 472.223 1363.79 482.701 1372.05 487.423C1382.68 493.621 1397.73 493.473 1409.24 490.817C1461.78 478.716 1500.88 435.626 1528.18 391.503Z" fill="#C9E5F4"/>
<path d="M1806.35 884.386C1806.8 911.686 1802.37 936.33 1790.56 961.269C1786.58 969.828 1779.94 978.683 1778.31 987.979C1776.99 995.801 1777.43 1004.06 1782.74 1010.26L1787.17 1010.11L1797.2 990.341C1798.53 1002.74 1797.06 1053.8 1808.71 1049.22C1814.32 1047.01 1812.85 1047.75 1817.86 1043.76C1821.11 1041.25 1818.01 1057.34 1823.18 1058.22C1829.23 1059.26 1828.34 1050.11 1833.36 1047.01C1834.83 1046.12 1838.97 1054.24 1844.28 1055.42C1848.56 1056.45 1846.79 1046.12 1849.3 1044.5C1849.3 1044.5 1852.25 1045.38 1854.17 1048.63C1865.53 1068.55 1871.28 947.841 1856.82 901.504C1855.2 894.273 1854.9 886.747 1854.31 879.368L1806.8 884.238L1806.35 884.386Z" fill="#F8BB97"/>
<path d="M1742.91 1052.14L1723.57 970.566C1768.13 1130.09 1749.39 1158.28 1703.5 1318.98L1665.57 1459.46L1652.14 1508.02C1650.81 1512.89 1647.27 1522.48 1647.72 1527.2C1648.6 1535.91 1657.31 1550.81 1660.7 1559.37L1690.95 1640.09L1861.25 2096.08L1775.07 2142.12L1580.42 1728.34L1528.48 1618.1C1519.48 1599.21 1507.08 1579.14 1500.59 1559.22C1494.69 1541.22 1495.87 1518.94 1494.24 1500.05C1489.96 1509.64 1479.63 1526.9 1479.19 1536.94C1478.75 1544.47 1482.73 1555.83 1483.77 1563.65C1487.01 1590.06 1490.26 1618.25 1490.55 1644.81L1487.75 2006.51L1485.24 2173.7L1402.45 2183.44L1381.06 1991.45L1350.8 1688.94L1341.66 1604.23C1337.82 1573.83 1332.8 1542.99 1333.69 1512.29C1335.16 1464.92 1344.61 1417.26 1351.1 1370.19L1375.01 1192.51L1381.06 1150.14C1490.11 1127.57 1633.86 1074.72 1742.91 1052.14Z" fill="#66C3D0"/>
<path d="M1402.31 2183.74L1406.29 2220.04L1484.8 2223.14L1485.24 2174L1402.31 2183.74Z" fill="#F6AF89"/>
<path d="M1099.94 816.503C1074.11 825.653 1050.65 818.569 1024.82 833.769C1001.95 847.198 959.45 885.418 986.013 881.877L1045.78 873.76C1076.03 865.349 1098.46 847.05 1128.42 864.906L1129.6 865.644C1120.74 848.231 1111.3 832.441 1099.94 816.503Z" fill="#F8BB97"/>
<path d="M1094.18 850.297C1119.71 859.889 1065.26 895.748 1059.8 889.107C1050.06 877.449 1068.8 840.705 1094.18 850.297Z" fill="#F8BB97"/>
<path d="M112.252 1265.12L101.332 1228.52L88.4935 1182.92H58.832L55.5854 1233.24L56.766 1259.36L44.3701 1306.43C48.5021 1312.78 58.832 1303.19 59.2747 1306.43C59.8649 1312.04 59.1271 1321.49 68.8667 1314.26C70.49 1313.08 70.9327 1326.06 75.6549 1329.31C84.2139 1335.21 80.2296 1320.01 86.2799 1318.98C86.2799 1318.98 93.5108 1349.82 99.4136 1339.79L114.613 1272.35L112.4 1265.12H112.252Z" fill="#F8BB97"/>
<path d="M39.0579 1223.65L0.24707 893.092C92.7733 833.917 117.565 907.849 117.565 907.849L105.317 1211.7C105.317 1211.7 87.6084 1228.22 39.2055 1223.65H39.0579Z" fill="#D2455D"/>
<path d="M0.394261 882.172L24.0054 553.977C41.8614 473.847 123.763 500.262 123.763 500.262C190.169 519.741 184.709 594.706 184.709 594.706L117.417 907.702C117.417 907.702 103.841 955.514 41.8614 953.596C41.8614 953.596 -3.73769 946.07 0.246691 882.172H0.394261Z" fill="#D2455D"/>
<path d="M106.055 954.038L36.8445 588.213C36.8445 588.213 14.709 533.464 55.4383 504.836L211.419 426.624L278.269 399.028L470.847 506.459L401.194 946.512L106.055 953.891V954.038Z" fill="#F5AB88"/>
<path d="M205.811 2157.32L229.422 2215.76L332.869 2230.22C332.869 2230.22 368.285 2239.52 369.613 2272.87H121.696L141.913 2157.32L205.811 2157.17V2157.32Z" fill="#4E565A"/>
<path d="M124.944 1213.76C121.697 1273.67 145.456 1323.85 203.451 1326.95C261.446 1330.05 311.177 1284 314.423 1224.09C317.67 1164.18 273.251 1112.97 215.256 1109.72C157.114 1106.63 128.19 1153.7 124.944 1213.76Z" fill="#2B2E33"/>
<path d="M417.574 2267.41L424.658 2163.96L471.88 2157.32C471.88 2157.32 490.916 2199.97 507.001 2209.71C523.087 2219.45 631.55 2235.83 631.55 2235.83C631.55 2235.83 665.196 2231.84 665.196 2273.75C665.196 2273.75 592.149 2280.54 417.574 2267.56V2267.41Z" fill="#4E565A"/>
<path d="M250.82 1214.35C254.657 1274.26 304.831 1319.86 362.825 1316.17C420.82 1312.49 464.796 1260.84 460.959 1200.92C457.123 1141.01 406.949 1095.41 348.954 1099.1C290.959 1102.79 246.983 1154.44 250.82 1214.35Z" fill="#2B2E33"/>
<path d="M421.41 2210L385.256 1932.28C355.742 1739.7 361.35 1633.6 361.35 1633.6C394.405 1511.56 499.918 1609.84 499.918 1609.84L507.001 2209.86C507.001 2209.86 472.765 2227.42 421.558 2210H421.41ZM131.731 2216.5L111.071 1869.56C111.071 1749.88 148.702 1628.58 148.702 1628.58C227.209 1547.56 274.874 1619.13 274.874 1619.13L229.57 2215.76C229.57 2215.76 169.214 2222.69 131.731 2216.5ZM317.964 1283.41L273.398 1625.78C273.398 1625.78 172.313 1741.03 148.406 1670.64C148.406 1670.64 110.481 1373.28 124.943 1213.76C124.943 1213.76 289.04 1136.58 317.964 1283.41ZM461.845 1214.2L499.918 1609.84C499.918 1609.84 459.188 1718.89 366.662 1652.19L240.342 1270.72C240.342 1270.72 295.386 1100.43 461.845 1214.2Z" fill="#423DBE"/>
<path d="M321.358 342.804L324.31 461.746L198.433 464.844C198.433 464.844 228.242 416.884 210.976 345.461L321.358 342.657V342.804Z" fill="#F8BB97"/>
<path d="M344.231 372.318C379.501 373.794 384.518 340.738 384.518 340.738C404.292 273.889 398.537 232.275 398.537 232.275C395.438 222.24 392.929 211.763 394.257 200.695C400.603 146.684 370.056 120.417 370.056 120.417C334.197 74.8179 261.297 82.4915 261.297 82.4915C259.231 82.7866 257.313 83.2293 255.394 83.5245C165.524 90.3127 152.981 145.651 152.981 145.651C143.979 169.853 142.504 196.858 148.111 221.945C154.604 250.869 167.59 274.627 182.938 299.419C199.613 326.424 232.521 344.723 267.495 356.381L268.381 390.47L312.209 389.437C317.816 371.138 333.459 372.466 333.459 372.466L344.526 372.318H344.231Z" fill="#F8BB97"/>
<path d="M333.164 372.466C333.164 372.466 327.851 371.728 322.096 375.27L323.572 433.412L290.516 434.298C297.157 412.162 295.533 385.895 289.778 366.416C267.79 346.494 233.849 335.278 204.04 305.912C212.452 305.764 243.146 305.322 251.557 305.469C267.052 305.912 282.547 304.436 298.042 305.764C311.766 306.945 311.471 318.603 313.979 329.966C315.012 334.393 316.045 338.82 317.669 342.804C318.111 344.133 318.702 345.461 319.44 346.641V346.789C320.03 347.969 320.768 349.15 321.506 350.33C324.605 354.758 329.032 358.152 335.82 359.48C353.085 362.874 367.99 362.431 380.829 351.511C376.106 361.398 365.924 373.204 344.231 372.466L333.164 372.613V372.466Z" fill="#F8BB97"/>
<path d="M233.111 43.5331C233.111 43.5331 110.628 59.9133 135.568 149.636C135.568 149.636 109.005 180.478 115.646 211.172C118.45 268.282 198.58 342.657 198.58 342.657C205.811 357.709 216.879 358.594 216.879 358.594L256.427 357.561C273.841 356.528 279.448 345.313 279.448 345.313C309.848 307.978 325.933 293.959 325.933 293.959C340.542 276.988 320.473 244.966 320.473 244.966C305.421 207.04 344.379 209.401 344.379 209.401C360.612 216.928 356.332 248.212 356.332 248.212C362.973 247.474 369.466 239.948 369.466 239.948L366.514 193.759C368.433 181.363 365.777 178.855 375.959 170.738C451.219 151.259 416.688 54.3057 416.688 54.3057C416.688 54.3057 403.85 70.981 380.534 73.1946C380.534 73.1946 401.931 39.9914 362.382 0C362.382 0 345.117 36.5973 232.816 43.3855L233.111 43.5331Z" fill="#FFED00"/>
<path d="M109.891 1085.97L106.202 954.038L36.9919 588.213C36.9919 588.213 14.8565 533.465 55.5857 504.836L211.567 426.624C211.567 426.624 251.853 441.529 322.835 423.82L470.995 506.459L432.479 920.835L446.941 1077.41C446.941 1077.41 276.793 1133.63 109.891 1085.82V1085.97Z" fill="#A7D9E6"/>
<path d="M176.041 1315.73C130.442 1308.05 89.418 1292.56 60.4943 1264.81L53.8537 905.187L30.9804 567.695C18.4369 511.324 72.7426 495.534 72.7426 495.534L193.159 435.178C193.159 435.178 255.139 463.658 342.057 434.145L472.804 504.978L479.887 873.607L529.028 1273.23C529.028 1273.23 385 1321.48 257.795 1321.78L226.658 1273.23L176.041 1315.73Z" fill="#F04E6A"/>
<path d="M322.834 402.275C322.834 402.275 252.591 397.258 215.699 404.931L167.591 448.612C167.591 448.612 261.298 460.418 362.678 446.103L322.834 402.128V402.275Z" fill="white"/>
<path d="M522.069 923.802L397.225 610.659C370.072 510.164 459.647 496.145 459.647 496.145C530.923 511.639 558.224 587.047 558.224 587.047L632.746 862.56C632.746 862.56 636.14 944.019 596.739 950.954C596.739 950.954 535.055 966.302 522.217 923.949L522.069 923.802Z" fill="#F04E6A"/>
<path d="M869.284 909.62C869.284 909.62 883.304 929.689 901.897 933.378C927.427 938.838 1002.69 922.015 1006.08 919.654C1013.31 914.489 1007.56 911.686 1007.56 911.686C1007.56 911.686 1022.02 912.423 1025.41 907.554C1028.81 902.684 1019.51 898.257 1019.51 898.257C1019.51 898.257 1028.95 897.371 1031.46 893.239C1034.12 888.96 1021.87 884.533 1021.87 884.533C1021.87 884.533 1031.76 883.5 1033.68 878.335C1035.74 873.17 1019.22 864.758 1010.07 863.135C984.536 858.708 965.5 860.479 946.611 864.021C946.611 864.021 969.484 849.264 963.729 844.837C954.875 838.196 903.225 862.692 885.517 870.661C867.809 878.63 869.137 909.62 869.137 909.62H869.284Z" fill="#F8BB97"/>
<path d="M573.703 971.746L897.323 940.904C907.653 900.765 889.502 857.675 889.502 857.675L542.861 846.755C542.861 846.755 497.704 953.448 573.85 971.746H573.703Z" fill="#F04E6A"/>
<path d="M1359.95 809.42C1364.68 765.149 1376.78 719.845 1356.71 677.198C1345.05 652.406 1332.21 629.68 1322.18 604.003L1305.65 748.326C1231.42 813.847 1114.25 822.849 1100.53 817.389L1079.13 869.628C1140.37 887.484 1243.37 843.804 1308.16 829.637C1326.46 825.653 1343.13 817.389 1359.95 809.42Z" fill="#D6D2D2"/>
<path d="M1528.18 391.503C1516.67 386.338 1494.54 385.895 1481.55 383.977C1465.76 406.997 1435.36 427.214 1407.62 432.527C1400.98 433.855 1393.75 432.822 1387.11 432.232L1382.53 422.345C1369.69 433.855 1357.3 446.841 1353.17 463.959C1357.45 472.223 1363.79 482.701 1372.05 487.423C1382.68 493.621 1397.73 493.473 1409.24 490.817C1461.78 478.716 1500.88 435.626 1528.18 391.503Z" fill="#D6D2D2"/>
</svg>
