<?xml version="1.0" encoding="UTF-8"?>
<!DOCTYPE svg PUBLIC "-//W3C//DTD SVG 1.1//EN" "http://www.w3.org/Graphics/SVG/1.1/DTD/svg11.dtd">
<!-- Creator: CorelDRAW X5 -->
<svg xmlns="http://www.w3.org/2000/svg" xml:space="preserve" width="30mm" height="30mm" style="shape-rendering:geometricPrecision; text-rendering:geometricPrecision; image-rendering:optimizeQuality; fill-rule:evenodd; clip-rule:evenodd"
viewBox="0 0 3000 3000"
 xmlns:xlink="http://www.w3.org/1999/xlink">
 <defs>
  <style type="text/css">
   <![CDATA[
    .fil1 {fill:#BACED6}
    .fil0 {fill:white}
    .fil2 {fill:#BACED6;fill-rule:nonzero}
   ]]>
  </style>
 </defs>
 <g id="Vrstva_x0020_1">
  <metadata id="CorelCorpID_0Corel-Layer"/>
  <g id="_586112320">
   <path class="fil0" d="M1500 0c828,0 1500,672 1500,1500 0,828 -672,1500 -1500,1500 -828,0 -1500,-672 -1500,-1500 0,-828 672,-1500 1500,-1500z"/>
   <path class="fil1" d="M1500 321c651,0 1179,528 1179,1179 0,651 -528,1179 -1179,1179 -651,0 -1179,-528 -1179,-1179 0,-651 528,-1179 1179,-1179z"/>
   <path class="fil0" d="M1500 429c592,0 1071,480 1071,1071 0,592 -480,1071 -1071,1071 -592,0 -1071,-480 -1071,-1071 0,-592 480,-1071 1071,-1071z"/>
   <path class="fil2" d="M1917 1985l0 149 -835 0c-1,-37 5,-73 18,-108 21,-57 55,-113 102,-168 47,-55 115,-119 203,-191 137,-113 230,-202 278,-268 48,-66 72,-128 72,-186 0,-61 -22,-113 -66,-156 -44,-42 -101,-63 -172,-63 -75,0 -134,22 -179,67 -45,45 -68,107 -68,186l-159 -16c11,-119 52,-210 123,-272 71,-62 167,-93 287,-93 121,0 217,34 288,101 71,67 106,151 106,250 0,51 -10,100 -31,149 -21,49 -55,100 -103,154 -48,54 -128,128 -239,222 -93,78 -153,131 -179,159 -26,28 -48,56 -66,84l619 0z"/>
  </g>
 </g>
</svg>
