<?xml version="1.0" encoding="UTF-8"?>
<!DOCTYPE svg PUBLIC "-//W3C//DTD SVG 1.1//EN" "http://www.w3.org/Graphics/SVG/1.1/DTD/svg11.dtd">
<!-- Creator: CorelDRAW X5 -->
<svg xmlns="http://www.w3.org/2000/svg" xml:space="preserve" width="30mm" height="30mm" style="shape-rendering:geometricPrecision; text-rendering:geometricPrecision; image-rendering:optimizeQuality; fill-rule:evenodd; clip-rule:evenodd"
viewBox="0 0 3000 3000"
 xmlns:xlink="http://www.w3.org/1999/xlink">
 <defs>
  <style type="text/css">
   <![CDATA[
    .fil1 {fill:#BACED6}
    .fil0 {fill:white}
    .fil2 {fill:#BACED6;fill-rule:nonzero}
   ]]>
  </style>
 </defs>
 <g id="Vrstva_x0020_1">
  <metadata id="CorelCorpID_0Corel-Layer"/>
  <g id="_586112392">
   <path class="fil0" d="M1500 0c828,0 1500,672 1500,1500 0,828 -672,1500 -1500,1500 -828,0 -1500,-672 -1500,-1500 0,-828 672,-1500 1500,-1500z"/>
   <path class="fil1" d="M1500 321c651,0 1179,528 1179,1179 0,651 -528,1179 -1179,1179 -651,0 -1179,-528 -1179,-1179 0,-651 528,-1179 1179,-1179z"/>
   <path class="fil0" d="M1500 429c592,0 1071,480 1071,1071 0,592 -480,1071 -1071,1071 -592,0 -1071,-480 -1071,-1071 0,-592 480,-1071 1071,-1071z"/>
   <path class="fil2" d="M1091 1026l0 -149 817 0 0 121c-80,86 -160,199 -239,341 -79,142 -140,288 -183,437 -31,106 -51,221 -59,347l-159 0c2,-99 21,-219 59,-360 37,-141 91,-276 161,-407 70,-131 144,-241 223,-330l-619 0z"/>
  </g>
 </g>
</svg>
