<?xml version="1.0" encoding="UTF-8"?>
<!DOCTYPE svg PUBLIC "-//W3C//DTD SVG 1.1//EN" "http://www.w3.org/Graphics/SVG/1.1/DTD/svg11.dtd">
<!-- Creator: CorelDRAW X5 -->
<svg xmlns="http://www.w3.org/2000/svg" xml:space="preserve" width="30mm" height="30mm" style="shape-rendering:geometricPrecision; text-rendering:geometricPrecision; image-rendering:optimizeQuality; fill-rule:evenodd; clip-rule:evenodd"
viewBox="0 0 1292 1292"
 xmlns:xlink="http://www.w3.org/1999/xlink">
 <defs>
  <style type="text/css">
   <![CDATA[
    .fil1 {fill:#BACED6}
    .fil0 {fill:white}
    .fil2 {fill:#BACED6;fill-rule:nonzero}
   ]]>
  </style>
 </defs>
 <g id="Vrstva_x0020_1">
  <metadata id="CorelCorpID_0Corel-Layer"/>
  <g id="_579135680">
   <path class="fil0" d="M646 0c357,0 646,289 646,646 0,357 -289,646 -646,646 -357,0 -646,-289 -646,-646 0,-357 289,-646 646,-646z"/>
   <path class="fil1" d="M646 138c280,0 507,227 507,507 0,280 -227,507 -507,507 -280,0 -507,-227 -507,-507 0,-280 227,-507 507,-507z"/>
   <path class="fil0" d="M646 185c255,0 461,207 461,461 0,255 -207,461 -461,461 -255,0 -461,-207 -461,-461 0,-255 207,-461 461,-461z"/>
   <path class="fil2" d="M674 923l-68 0 0 -431c-16,16 -38,31 -64,47 -27,16 -50,27 -71,35l0 -65c38,-18 71,-39 99,-65 28,-25 48,-50 60,-74l44 0 0 554z"/>
  </g>
 </g>
</svg>
