<?xml version="1.0" encoding="UTF-8"?>
<!DOCTYPE svg PUBLIC "-//W3C//DTD SVG 1.1//EN" "http://www.w3.org/Graphics/SVG/1.1/DTD/svg11.dtd">
<!-- Creator: CorelDRAW X5 -->
<svg xmlns="http://www.w3.org/2000/svg" xml:space="preserve" width="225.47mm" height="107.084mm" style="shape-rendering:geometricPrecision; text-rendering:geometricPrecision; image-rendering:optimizeQuality; fill-rule:evenodd; clip-rule:evenodd"
viewBox="0 0 22547 10708"
 xmlns:xlink="http://www.w3.org/1999/xlink">
 <defs>
  <style type="text/css">
   <![CDATA[
    .fil9 {fill:#F8BB97}
    .fil24 {fill:#4E565A}
    .fil23 {fill:#FFED00}
    .fil11 {fill:#399E4D}
    .fil5 {fill:#5ED95B}
    .fil26 {fill:#6F7375}
    .fil1 {fill:#969696}
    .fil7 {fill:#9C9C9C}
    .fil4 {fill:#A6E6A9}
    .fil22 {fill:#AEC7D1}
    .fil27 {fill:#BDD2FF}
    .fil3 {fill:#C9C9C9}
    .fil32 {fill:#CCB6DB}
    .fil2 {fill:#CFE3EB}
    .fil31 {fill:#D6D2D2}
    .fil25 {fill:#E0DDDD}
    .fil30 {fill:#E3E3E3}
    .fil10 {fill:#EB7267}
    .fil37 {fill:#EFF2F0}
    .fil28 {fill:#F2C6C6}
    .fil20 {fill:#F7F7F7}
    .fil29 {fill:#FAEDA5}
    .fil0 {fill:#FAFEFF}
    .fil21 {fill:#FB4F1D}
    .fil8 {fill:#FCF6F4}
    .fil19 {fill:#FCFCFC}
    .fil36 {fill:#FEB48C}
    .fil14 {fill:white}
    .fil33 {fill:#1F1B20}
    .fil39 {fill:#77B4E3}
    .fil35 {fill:#B1AEAA}
    .fil38 {fill:#B1D4F1}
    .fil15 {fill:#BDBEBE}
    .fil18 {fill:#FEFEFE}
    .fil6 {fill:#C1946F}
    .fil12 {fill:#F8BB97;fill-rule:nonzero}
    .fil13 {fill:#FFED00;fill-rule:nonzero}
    .fil16 {fill:#5A5A63;fill-rule:nonzero}
    .fil17 {fill:lightgrey;fill-rule:nonzero}
    .fil34 {fill:url(#id0)}
   ]]>
  </style>
  <linearGradient id="id0" gradientUnits="userSpaceOnUse" x1="14393.7" y1="2978.61" x2="14393.7" y2="2980.87">
   <stop offset="0" style="stop-color:#A2532D"/>
   <stop offset="0.611765" style="stop-color:#9D522D"/>
   <stop offset="1" style="stop-color:#97502E"/>
  </linearGradient>
 </defs>
 <g id="Vrstva_x0020_1">
  <metadata id="CorelCorpID_0Corel-Layer"/>
  <g id="_511491256">
   <path class="fil0" d="M6236 10659c2957,69 8073,69 10999,-23 2926,-92 3661,-276 4259,-946 597,-670 1057,-1827 1053,-2673 -4,-846 -471,-1383 -984,-2064 -513,-682 -1072,-1509 -1639,-2095 -567,-586 -1141,-931 -2220,-981 -1079,-51 -2663,192 -3869,-95 -1206,-287 -2035,-1105 -3113,-1495 -1077,-390 -2402,-351 -3754,-76 -1352,276 -2731,789 -3910,1808 -1180,1019 -2160,2543 -2650,3623 -490,1080 -490,1716 -253,2187 237,471 712,777 1007,1164 295,387 410,854 866,1157 456,303 1252,440 4209,509z"/>
   <rect class="fil1" x="16484" y="2622" width="2753" height="212"/>
   <rect class="fil2" x="16934" y="3098" width="1854" height="2065"/>
   <rect class="fil1" x="16484" y="5427" width="2753" height="212"/>
   <path class="fil3" d="M16934 3098l1854 0 0 2065 -1854 0 0 -2065zm-238 -265l2329 0 0 2594 -2329 0 0 -2594z"/>
   <path class="fil4" d="M18883 4905c-36,-13 -84,-50 -115,-91 -30,-41 -42,-84 -67,-127 -25,-42 -64,-83 -100,-103 -36,-20 -69,-20 -91,-37 -22,-17 -33,-50 -39,-105 -6,-55 -6,-133 19,-169 25,-36 74,-31 113,-15 39,17 67,45 94,79 28,34 54,75 88,108 33,33 73,59 105,92 33,33 58,71 75,110 17,39 24,77 23,119 -2,41 -13,86 -29,113 -17,28 -39,39 -74,26z"/>
   <path class="fil4" d="M19100 4872c-19,-35 -12,-101 4,-144 16,-43 40,-63 69,-71 29,-8 62,-5 85,-13 23,-9 36,-30 50,-50 13,-21 27,-42 45,-57 18,-15 41,-24 65,-32 23,-9 46,-17 64,-27 18,-9 30,-19 43,-35 13,-15 26,-36 44,-46 18,-9 40,-7 73,-4 33,3 77,8 103,22 26,14 35,37 22,58 -13,21 -49,39 -85,69 -36,30 -74,70 -94,101 -20,31 -22,53 -30,75 -8,21 -21,42 -40,63 -19,20 -43,40 -78,53 -35,13 -80,19 -114,27 -34,8 -57,16 -75,26 -18,9 -30,19 -58,22 -28,3 -72,-2 -91,-37z"/>
   <path class="fil4" d="M19013 4597c-7,-34 -10,-91 -21,-137 -11,-46 -28,-82 -29,-121 0,-39 16,-82 38,-118 22,-36 48,-66 70,-108 22,-42 41,-95 88,-156 47,-61 123,-129 162,-124 38,5 39,83 31,144 -8,60 -25,103 -40,134 -15,31 -29,52 -43,72 -14,20 -28,41 -31,63 -3,22 5,45 7,74 2,28 -3,61 -14,85 -12,24 -31,40 -47,51 -16,11 -28,19 -45,41 -17,22 -38,59 -49,83 -11,24 -13,35 -20,45 -7,10 -19,20 -30,18 -11,-1 -20,-14 -27,-48z"/>
   <path class="fil4" d="M18929 5086c11,-41 23,-83 23,-125 0,-43 -11,-87 -27,-131 -17,-44 -39,-89 -66,-127 -28,-39 -61,-72 -94,-105 -33,-33 -66,-66 -100,-105 -33,-39 -66,-83 -89,-111 -22,-28 -33,-39 -44,-50 15,11 31,22 55,50 24,28 58,72 91,111 33,39 66,72 100,105 33,33 66,66 94,105 28,39 50,83 66,127 17,44 28,89 28,131 0,43 -10,83 -20,124 -6,0 -11,1 -17,1z"/>
   <path class="fil5" d="M18830 4664c4,-10 7,-20 6,-38 -1,-18 -6,-43 -12,-68 6,19 13,39 15,55 3,17 2,30 1,40 -1,9 -1,14 -2,19 -3,-2 -6,-5 -9,-7z"/>
   <path class="fil5" d="M18712 4534c-11,0 -21,0 -38,-6 -17,-6 -39,-20 -61,-33 16,12 33,24 48,32 15,8 28,12 37,14 9,2 14,3 18,4 -1,-4 -3,-7 -4,-11z"/>
   <path class="fil5" d="M18617 4431c5,-10 10,-19 11,-37 1,-18 0,-44 -2,-69 4,20 7,40 8,57 1,17 -2,30 -4,39 -2,9 -3,14 -4,18 -3,-3 -6,-6 -8,-8z"/>
   <path class="fil5" d="M19016 5085c-5,-7 28,-436 30,-526 1,-51 7,-104 21,-152 14,-48 35,-91 57,-135 21,-43 43,-87 62,-136 19,-49 37,-105 49,-139 12,-35 19,-49 27,-64 -12,16 -23,31 -38,67 -15,35 -32,91 -51,140 -19,49 -41,93 -62,136 -21,43 -43,87 -57,135 -14,48 -20,100 -21,152 -2,91 -37,510 -31,520 6,-1 8,3 14,3z"/>
   <path class="fil5" d="M19081 4359c-7,-10 -14,-20 -19,-39 -5,-19 -9,-47 -12,-75 1,22 1,44 4,62 3,18 9,33 13,42 4,10 6,14 8,19 2,-3 5,-7 7,-10z"/>
   <path class="fil5" d="M19153 4192c11,-2 21,-5 36,-16 14,-11 32,-30 49,-50 -12,17 -24,34 -36,46 -12,12 -24,19 -32,24 -8,5 -12,7 -17,9 0,-4 0,-8 0,-13z"/>
   <path class="fil5" d="M19212 4059c-8,-9 -16,-18 -24,-36 -8,-18 -15,-46 -22,-74 3,22 7,44 12,62 5,18 13,32 18,41 5,9 8,14 11,18 2,-4 4,-7 5,-11z"/>
   <path class="fil5" d="M19045 5129c0,-43 0,-86 11,-127 11,-41 34,-81 62,-119 28,-38 61,-75 98,-105 37,-30 78,-53 119,-76 41,-23 82,-46 124,-75 42,-28 86,-62 115,-83 29,-21 42,-28 56,-36 -18,7 -36,13 -67,33 -31,20 -75,54 -117,82 -42,28 -83,51 -124,75 -41,23 -82,46 -119,76 -37,30 -70,67 -98,105 -28,38 -50,78 -62,119 -12,41 -13,83 -14,125 5,2 10,4 16,6z"/>
   <path class="fil5" d="M19254 4748c-1,-11 -1,-21 4,-38 6,-17 18,-40 30,-63 -11,17 -23,34 -30,49 -7,15 -10,29 -12,38 -2,9 -3,14 -3,18 4,-1 7,-3 11,-4z"/>
   <path class="fil5" d="M19402 4654c10,3 20,6 38,4 18,-2 43,-8 68,-15 -19,7 -38,15 -54,18 -16,4 -30,4 -39,3 -9,0 -14,-1 -19,-1 2,-3 4,-6 7,-10z"/>
   <path class="fil5" d="M19522 4581c-2,-10 -4,-21 -1,-38 3,-17 12,-42 21,-66 -9,18 -18,37 -23,53 -5,16 -6,30 -7,39 -1,9 -1,14 -1,19 3,-2 7,-4 10,-6z"/>
   <polygon class="fil6" points="18916,5427 18958,5427 19124,5427 19243,5153 19243,5056 18797,5056 18797,5153 "/>
   <rect class="fil7" x="10428" y="7626" width="3874" height="2664"/>
   <rect class="fil8" x="10625" y="7760" width="3482" height="2531"/>
   <path class="fil9" d="M13168 9856c0,37 1,75 1,112 67,-1 134,-2 201,-2 0,-34 -1,-68 -1,-102 -67,-3 -134,-5 -201,-8z"/>
   <path class="fil9" d="M14390 9866c1,37 2,75 4,112 67,-2 134,-5 201,-7 -1,-34 -2,-68 -3,-102 -67,-1 -134,-2 -201,-3z"/>
   <rect class="fil7" x="10779" y="7893" width="3188" height="703"/>
   <path class="fil10" d="M13153 9944c82,1 165,2 247,3 0,24 1,47 3,75 3,28 8,60 12,85 4,26 6,45 7,63 1,19 1,37 -1,58 -3,21 -8,45 -13,69 -12,6 -25,13 -37,19 -115,0 -231,-1 -346,-1 -4,-18 -9,-35 -10,-56 -1,-21 1,-44 9,-64 8,-20 23,-35 42,-61 19,-26 43,-62 58,-95 15,-34 21,-65 28,-96z"/>
   <path class="fil10" d="M14594 9949c-72,0 -143,0 -215,0 -8,24 -17,47 -24,75 -7,28 -12,60 -20,85 -9,25 -21,43 -31,62 -10,19 -17,40 -19,63 -2,23 0,48 3,73 140,3 280,7 420,10 4,-18 8,-35 10,-56 1,-21 -1,-44 -9,-64 -8,-20 -22,-35 -40,-61 -18,-26 -41,-62 -54,-95 -13,-33 -17,-63 -21,-93z"/>
   <path class="fil11" d="M13416 9867c74,-373 148,-747 248,-1152 99,-405 224,-842 348,-1279 72,384 144,768 182,981 38,213 43,255 63,469 20,214 54,601 89,987 92,-2 184,-5 276,-7 16,-431 31,-862 50,-1313 19,-451 41,-922 64,-1394 -75,-18 -150,-36 -274,-66 -124,-30 -298,-72 -437,-107 -139,-35 -242,-62 -346,-76 -104,-14 -207,-14 -310,-14 -34,503 -67,1005 -108,1500 -41,495 -90,982 -139,1469 98,0 196,0 294,0z"/>
   <path class="fil12" d="M14013 4842c0,0 -57,214 -100,283 -15,192 292,372 411,75 0,0 -29,-214 23,-354 36,-96 109,-97 195,-325 60,-160 -14,-355 -251,-425 -157,-46 -289,38 -289,38 0,0 -61,37 -99,96 0,0 -25,38 -30,64 -5,26 -30,120 -42,138 -30,44 -55,52 -63,71 -7,17 19,46 47,54 -49,128 2,321 199,286z"/>
   <path class="fil13" d="M13810 4226c0,0 26,47 128,58 105,12 181,77 181,130 0,38 -29,94 -28,123 7,6 21,12 32,17 22,13 53,-57 78,-39 30,21 81,49 59,95 -23,46 -38,214 -30,245 8,31 122,38 133,37 11,-1 98,-131 151,-181 53,-50 261,-360 118,-474 0,0 -4,-90 -87,-149 -83,-58 -234,-123 -360,-109 -126,13 -284,68 -340,39 0,0 -59,-62 -48,-19 12,43 44,110 79,130 0,0 -57,-47 -89,-79 -32,-32 -50,103 23,177z"/>
   <rect class="fil2" x="13169" y="10032" width="168" height="19"/>
   <rect class="fil2" x="13146" y="10093" width="197" height="19"/>
   <rect class="fil2" x="14401" y="10042" width="168" height="19"/>
   <rect class="fil2" x="14386" y="10100" width="197" height="19"/>
   <path class="fil14" d="M13319 6874c480,131 961,262 1187,266 227,4 199,-119 165,-217 -34,-98 -76,-172 -131,-274 -55,-102 -124,-233 -168,-386 -44,-153 -63,-329 -59,-502 4,-173 31,-344 56,-472 25,-128 47,-215 40,-244 -7,-30 -44,-2 -81,19 -37,22 -73,38 -124,47 -50,10 -114,13 -159,0 -45,-13 -70,-41 -101,-25 -31,17 -68,79 -113,214 -45,135 -100,342 -148,535 -49,192 -92,369 -149,500 -57,131 -129,215 -201,300 -5,80 -10,160 -14,239z"/>
   <path class="fil10" d="M13964 5003c-17,238 -34,476 -59,679 -26,203 -60,370 -105,526 -45,156 -100,299 -163,422 -63,123 -133,226 -190,321 -56,95 -98,181 -141,253 -42,72 -86,131 -109,161 -23,30 -26,30 -47,5 -21,-25 -60,-76 -75,-133 -15,-57 -7,-120 15,-218 22,-98 56,-232 104,-355 48,-124 109,-237 157,-334 48,-96 84,-175 105,-244 21,-68 27,-126 33,-183 -26,45 -53,91 -79,136 -60,-54 -120,-108 -179,-138 -59,-31 -118,-38 -177,-45 65,-135 129,-270 181,-373 52,-102 92,-172 132,-221 41,-49 83,-78 182,-118 99,-40 256,-92 413,-143z"/>
   <path class="fil10" d="M14647 7637c43,-83 86,-165 117,-239 31,-74 48,-138 51,-212 2,-74 -11,-158 -35,-242 -24,-84 -59,-169 -93,-243 -34,-74 -68,-136 -89,-189 -22,-53 -31,-98 -37,-152 -6,-54 -8,-119 -6,-202 2,-83 10,-185 17,-287 39,98 79,196 118,294 30,1 60,2 98,-16 38,-18 83,-55 116,-87 32,-32 51,-58 86,-77 35,-19 85,-29 135,-40 -93,-199 -187,-397 -245,-506 -59,-109 -83,-128 -171,-184 -88,-56 -240,-150 -392,-243 -60,364 -120,728 -148,955 -28,227 -25,318 60,574 85,256 251,676 418,1096z"/>
   <path class="fil15" d="M13804 4957c20,-55 -44,-51 103,-84 47,-11 50,-85 58,-107 8,-23 31,-43 35,-74 6,-54 -13,-46 -22,-68 -4,-8 11,-15 -1,-27 -8,-8 -29,-4 -34,-6 -8,-3 -10,-19 -18,-21 -17,-4 -23,9 -31,6 -30,-11 -39,-7 -81,55 -42,62 -32,52 -41,79 -9,27 -18,54 -22,84 -4,30 -4,62 -10,90 -6,28 -51,45 -45,97 10,83 46,152 111,-24z"/>
   <path class="fil9" d="M13120 5831c-26,42 -35,69 -36,105 -1,36 6,81 21,113 16,32 40,52 69,64 29,13 63,19 93,15 30,-3 56,-16 78,-31 22,-15 40,-31 51,-49 11,-19 14,-39 32,-84 17,-45 48,-113 74,-167 26,-53 46,-92 85,-174 38,-82 94,-208 136,-310 43,-102 73,-180 91,-227 18,-47 25,-62 36,-79 11,-17 28,-35 49,-54 22,-19 49,-38 66,-56 18,-18 26,-35 20,-45 -6,-11 -25,-15 -41,-11 -16,4 -27,15 -37,15 -10,-1 -18,-13 -14,-32 4,-18 20,-42 36,-65 16,-22 31,-43 35,-74 6,-54 -13,-46 -22,-68 -4,-8 11,-15 -1,-27 -8,-8 -29,-4 -34,-6 -8,-3 -10,-19 -19,-21 -17,-4 -23,9 -31,6 -30,-11 -39,-7 -81,55 -42,62 -32,52 -41,79 -9,27 -18,54 -22,84 -4,30 -4,62 -10,90 -6,28 -18,52 -45,97 -27,45 -68,113 -117,191 -49,79 -106,169 -159,256 -52,87 -100,170 -145,240 -45,70 -88,125 -115,167z"/>
   <path class="fil9" d="M14639 5910c67,115 134,231 170,305 36,74 40,105 39,132 -1,27 -8,48 -69,150 -61,101 -177,283 -248,397 -72,114 -99,162 -125,190 -26,28 -51,38 -87,53 -36,15 -83,34 -107,58 -25,24 -27,52 -13,77 14,25 45,45 88,59 42,13 96,19 144,1 48,-17 89,-57 163,-148 74,-90 181,-230 271,-346 90,-115 162,-206 215,-273 53,-67 87,-110 107,-147 20,-37 26,-67 21,-108 -5,-41 -22,-92 -48,-159 -25,-67 -60,-150 -90,-219 -30,-69 -57,-126 -84,-175 -27,-49 -55,-92 -89,-118 -33,-26 -72,-36 -104,-34 -33,2 -60,16 -85,69 -25,53 -47,145 -69,237z"/>
   <path class="fil10" d="M14362 6916c97,-77 194,-154 248,-191 54,-36 66,-32 55,-60 -11,-29 -45,-91 -66,-144 -22,-53 -31,-98 -37,-152 -6,-54 -8,-119 -6,-202 2,-83 10,-185 17,-287 40,98 79,196 118,294 30,1 60,2 98,-16 38,-18 83,-55 115,-87 32,-32 51,-58 86,-77 35,-19 85,-29 135,-40 -93,-199 -187,-397 -245,-506 -59,-109 -83,-128 -171,-184 -88,-56 -240,-150 -392,-243 -60,364 -120,728 -148,955 -28,227 -25,318 13,452 37,134 109,310 180,487z"/>
   <path class="fil9" d="M14478 7080c-13,-22 -64,-7 -100,7 -36,15 -134,13 -135,15 0,2 84,20 111,25 113,18 136,-25 123,-47z"/>
   <rect class="fil7" x="10779" y="8776" width="3188" height="703"/>
   <path class="fil11" d="M13416 9867c74,-373 124,-608 233,-1091 109,-484 3,-1551 -28,-1570 -31,-19 -55,184 -158,184 -34,503 -160,513 -202,1008 -41,495 -90,982 -139,1469 98,0 196,0 294,0z"/>
   <circle class="fil14" cx="12373" cy="8244" r="109"/>
   <circle class="fil14" cx="12373" cy="9127" r="109"/>
   <path class="fil16" d="M10460 6755l400 876 971 -3 -422 -912c-4,-9 -12,-14 -22,-14l-894 0c-27,0 -44,28 -33,52l0 0z"/>
   <path class="fil17" d="M11832 7581l-411 -852c0,0 -15,-35 -51,-26 -11,3 433,878 433,878l28 0z"/>
   <path class="fil16" d="M12695 7577l-887 4 22 47 821 0c24,0 44,-20 44,-44l0 -8 0 0z"/>
   <polygon class="fil18" points="11191,7239 11056,7239 11028,7181 11164,7181 "/>
   <path class="fil11" d="M8000 1277l3385 0c197,0 358,62 358,138l0 1997c0,76 -161,138 -358,138l-3385 0c-197,0 -358,-62 -358,-138l0 -1997c0,-76 161,-138 358,-138z"/>
   <rect class="fil19" x="7642" y="1661" width="4101" height="1308"/>
   <path class="fil20" d="M8000 1843l3385 0c197,0 358,48 358,107l0 1546c0,59 -161,107 -358,107l-3385 0c-197,0 -358,-48 -358,-107l0 -1546c0,-59 161,-107 358,-107z"/>
   <rect class="fil14" x="11392" y="1383" width="205" height="168"/>
   <rect class="fil14" x="11136" y="1383" width="205" height="168"/>
   <rect class="fil14" x="10885" y="1383" width="205" height="168"/>
   <path class="fil11" d="M8225 5529l3083 0c179,0 326,62 326,138l0 1988c0,76 -147,138 -326,138l-3083 0c-179,0 -326,-62 -326,-138l0 -1988c0,-76 147,-138 326,-138z"/>
   <rect class="fil19" x="7900" y="5969" width="3734" height="2236"/>
   <path class="fil20" d="M8225 5969l3083 0c179,0 326,65 326,145l0 2093c0,80 -147,145 -326,145l-3083 0c-179,0 -326,-65 -326,-145l0 -2093c0,-80 147,-145 326,-145z"/>
   <rect class="fil14" x="11148" y="5675" width="205" height="168"/>
   <rect class="fil14" x="10892" y="5675" width="205" height="168"/>
   <rect class="fil14" x="10641" y="5675" width="205" height="168"/>
   <circle class="fil21" cx="8871" cy="7047" r="543"/>
   <polygon class="fil2" points="9237,7047 8651,6679 8651,7415 "/>
   <rect class="fil2" x="9744" y="6558" width="1608" height="201"/>
   <rect class="fil2" x="9744" y="6932" width="553" height="201"/>
   <rect class="fil22" x="9744" y="7327" width="1422" height="201"/>
   <rect class="fil2" x="7738" y="1743" width="3202" height="1106" rx="86" ry="86"/>
   <ellipse class="fil23" transform="matrix(0.0688316 0.000126231 -0.000128586 0.0894688 8364.79 1952.39)" rx="2223" ry="1931"/>
   <path class="fil14" d="M7839 1918c-5,-6 -8,-12 -8,-20 0,-18 19,-32 44,-32 22,0 41,12 44,28 14,-4 27,-6 41,-6 41,0 77,18 96,42 8,-8 25,-14 41,-14 8,0 16,2 25,4 16,-20 44,-34 79,-34 36,0 68,16 82,38l8 0c27,0 49,16 49,34 0,18 -22,34 -49,34 -8,0 -14,-2 -19,-4 -22,18 -47,28 -74,28l-3 0c-6,14 -22,24 -44,24 -5,0 -11,0 -16,-2 -14,18 -38,28 -68,28 -30,0 -57,-12 -71,-32 -11,4 -25,4 -36,4 -36,0 -66,-12 -85,-32 -5,2 -14,2 -22,2 -36,0 -66,-22 -66,-48 0,-20 22,-38 52,-42z"/>
   <path class="fil14" d="M9499 1935c-9,-10 -13,-20 -13,-33 0,-29 31,-52 71,-52 36,0 67,20 71,46 22,-6 45,-10 67,-10 67,0 124,30 156,69 13,-13 40,-23 67,-23 13,0 27,3 40,7 27,-33 71,-55 129,-55 58,0 111,26 133,62l13 0c44,0 80,26 80,56 0,29 -36,55 -80,55 -13,0 -22,-3 -31,-7 -36,29 -76,46 -120,45l-4 0c-9,23 -36,39 -71,39 -9,0 -18,0 -27,-3 -22,29 -62,46 -111,45 -49,0 -93,-20 -116,-52 -18,6 -40,6 -58,6 -58,0 -107,-20 -138,-52 -9,3 -22,3 -36,3 -58,0 -107,-36 -107,-78 0,-33 36,-62 85,-68z"/>
   <polygon class="fil24" points="9085,2437 8699,2848 10047,2851 9763,2607 9687,2463 9632,2365 9347,1842 9263,2136 9131,2429 "/>
   <polygon class="fil14" points="9347,1833 9383,2053 9443,2173 9534,2384 9534,2384 9237,2617 9244,2488 9359,2300 9323,2085 "/>
   <polygon class="fil14" points="9085,2427 8857,2670 9131,2595 "/>
   <polygon class="fil14" points="9637,2362 9564,2481 9463,2691 9592,2557 9764,2599 "/>
   <ellipse class="fil23" transform="matrix(0.0688316 0.000126231 -0.000128586 0.0894688 8364.79 1952.39)" rx="2223" ry="1931"/>
   <path class="fil14" d="M7839 1918c-5,-6 -8,-12 -8,-20 0,-18 19,-32 44,-32 22,0 41,12 44,28 14,-4 27,-6 41,-6 41,0 77,18 96,42 8,-8 25,-14 41,-14 8,0 16,2 25,4 16,-20 44,-34 79,-34 36,0 68,16 82,38l8 0c27,0 49,16 49,34 0,18 -22,34 -49,34 -8,0 -14,-2 -19,-4 -22,18 -47,28 -74,28l-3 0c-6,14 -22,24 -44,24 -5,0 -11,0 -16,-2 -14,18 -38,28 -68,28 -30,0 -57,-12 -71,-32 -11,4 -25,4 -36,4 -36,0 -66,-12 -85,-32 -5,2 -14,2 -22,2 -36,0 -66,-22 -66,-48 0,-20 22,-38 52,-42z"/>
   <path class="fil14" d="M9499 1935c-9,-10 -13,-20 -13,-33 0,-29 31,-52 71,-52 36,0 67,20 71,46 22,-6 45,-10 67,-10 67,0 124,30 156,69 13,-13 40,-23 67,-23 13,0 27,3 40,7 27,-33 71,-55 129,-55 58,0 111,26 133,62l13 0c44,0 80,26 80,56 0,29 -36,55 -80,55 -13,0 -22,-3 -31,-7 -36,29 -76,46 -120,45l-4 0c-9,23 -36,39 -71,39 -9,0 -18,0 -27,-3 -22,29 -62,46 -111,45 -49,0 -93,-20 -116,-52 -18,6 -40,6 -58,6 -58,0 -107,-20 -138,-52 -9,3 -22,3 -36,3 -58,0 -107,-36 -107,-78 0,-33 36,-62 85,-68z"/>
   <polygon class="fil24" points="9085,2437 8699,2848 10047,2851 9763,2607 9687,2463 9632,2365 9347,1842 9263,2136 9131,2429 "/>
   <polygon class="fil14" points="9347,1833 9383,2053 9443,2173 9534,2384 9534,2384 9237,2617 9244,2488 9359,2300 9323,2085 "/>
   <polygon class="fil14" points="9085,2427 8857,2670 9131,2595 "/>
   <polygon class="fil14" points="9637,2362 9564,2481 9463,2691 9592,2557 9764,2599 "/>
   <rect class="fil22" x="7741" y="2945" width="1422" height="201"/>
   <rect class="fil2" x="7734" y="3246" width="2179" height="201"/>
   <circle class="fil25" cx="20904" cy="4001" r="543"/>
   <rect class="fil26" transform="matrix(-0.514008 0.956174 -0.956174 -0.514008 20909.6 3989.65)" width="19" height="444"/>
   <rect class="fil26" transform="matrix(1.05751 -0.24525 0.14563 0.627952 20895 4000.75)" width="19" height="444"/>
   <circle class="fil26" cx="20904" cy="4001" r="54"/>
   <path class="fil11" d="M4742 2785l3659 0c213,0 387,80 387,177l0 2559c0,97 -174,177 -387,177l-3659 0c-213,0 -387,-80 -387,-177l0 -2559c0,-97 174,-177 387,-177z"/>
   <rect class="fil20" x="4356" y="3180" width="4432" height="1444"/>
   <path class="fil20" d="M4742 3511l3659 0c213,0 387,62 387,137l0 1981c0,75 -174,137 -387,137l-3659 0c-213,0 -387,-62 -387,-137l0 -1981c0,-75 174,-137 387,-137z"/>
   <rect class="fil14" x="8417" y="2902" width="205" height="168"/>
   <rect class="fil14" x="8161" y="2902" width="205" height="168"/>
   <rect class="fil14" x="7910" y="2902" width="205" height="168"/>
   <circle class="fil27" cx="5053" cy="3654" r="339"/>
   <circle class="fil28" cx="5053" cy="4501" r="339"/>
   <circle class="fil29" cx="5053" cy="5328" r="339"/>
   <rect class="fil30" x="5610" y="3348" width="2682" height="143"/>
   <rect class="fil30" x="5610" y="3585" width="1781" height="143"/>
   <rect class="fil30" x="5610" y="3825" width="1411" height="143"/>
   <rect class="fil31" x="5610" y="4184" width="1889" height="143"/>
   <rect class="fil31" x="5610" y="4425" width="1540" height="143"/>
   <rect class="fil32" x="5610" y="5014" width="2915" height="143"/>
   <rect class="fil32" x="5610" y="5251" width="2485" height="143"/>
   <rect class="fil32" x="5610" y="5491" width="1576" height="143"/>
   <ellipse class="fil33" cx="14399" cy="3176" rx="105" ry="65"/>
   <path class="fil13" d="M13834 2238c5,-335 264,-603 579,-598 315,5 566,280 561,615 -3,195 -95,333 -231,442 -47,38 -72,131 -73,193l-1 94 -544 -8 1 -89c1,-63 -7,-148 -54,-187 -136,-113 -241,-265 -238,-463z"/>
   <path class="fil34" d="M14469 2981l-11 0 0 0 11 0zm-132 -2l-19 0 19 0 0 0z"/>
   <rect class="fil35" x="14150" y="3079" width="498" height="103" rx="59" ry="59"/>
   <rect class="fil23" x="14371" y="1175" width="81" height="324"/>
   <rect class="fil23" transform="matrix(0.141694 0.0780712 -0.0780712 0.141694 14986.4 1348.42)" width="500" height="2000"/>
   <rect class="fil23" x="14371" y="1175" width="81" height="324"/>
   <rect class="fil23" transform="matrix(-0.141694 0.0780712 0.0780712 0.141694 13809.1 1348.42)" width="500" height="2000"/>
   <path class="fil36" d="M14265 2449c-6,-65 -10,-81 -20,-88 -12,-8 -31,-10 -46,-7 -15,4 -26,13 -31,25 -5,12 -5,25 -4,37 2,12 6,23 12,28 6,5 16,5 35,4 13,0 23,0 54,0zm50 35c9,107 30,327 37,437 7,110 5,131 -1,137 -6,6 -16,-4 -26,-18 -10,-14 -19,-32 -28,-141 -9,-105 -19,-294 -26,-402 0,-4 -1,-12 -1,-16 -151,3 -138,-18 -146,-29 -8,-12 -10,-22 -10,-40 0,-18 2,-45 9,-62 7,-18 19,-27 34,-33 16,-6 35,-9 58,-7 23,2 33,-2 66,20 33,22 30,105 33,120 28,0 48,0 69,0 21,0 73,1 102,1 10,-77 26,-106 35,-117 10,-13 21,-19 36,-22 15,-3 33,-3 51,-1 18,2 36,6 49,19 13,12 23,33 26,52 3,19 0,38 -5,55 -5,17 -11,33 -26,45 -15,11 -38,18 -121,18 -8,101 -21,300 -28,402 -7,102 -9,117 -17,126 -7,9 -20,12 -28,6 -9,-6 -14,-20 -17,-30 -3,-10 -3,-18 6,-120 8,-92 26,-287 39,-399m51 -34c53,0 69,0 75,-3 6,-3 12,-10 17,-22 6,-12 12,-31 9,-45 -3,-15 -14,-26 -27,-30 -13,-4 -27,-1 -39,6 -12,7 -20,19 -26,31 -4,8 -6,30 -10,64zm-220 34c56,0 113,0 169,0"/>
   <rect class="fil35" x="14087" y="2976" width="623" height="103" rx="59" ry="59"/>
   <path class="fil11" d="M3073 7214l2419 0c141,0 256,62 256,138l0 1988c0,76 -115,138 -256,138l-2419 0c-141,0 -256,-62 -256,-138l0 -1988c0,-76 115,-138 256,-138z"/>
   <rect class="fil19" x="2817" y="7655" width="2930" height="2236"/>
   <path class="fil37" d="M3073 7655l2419 0c141,0 256,65 256,145l0 2093c0,80 -115,145 -256,145l-2419 0c-141,0 -256,-65 -256,-145l0 -2093c0,-80 115,-145 256,-145z"/>
   <rect class="fil14" x="5364" y="7353" width="205" height="168"/>
   <rect class="fil14" x="5108" y="7353" width="205" height="168"/>
   <rect class="fil14" x="4858" y="7353" width="205" height="168"/>
   <rect class="fil38" x="3051" y="7901" width="1841" height="888"/>
   <polygon class="fil39" points="4892,7901 3972,8345 3051,7901 "/>
   <rect class="fil32" x="3076" y="8941" width="1576" height="143"/>
   <rect class="fil32" x="3072" y="9193" width="1734" height="143"/>
   <rect class="fil32" x="3072" y="9473" width="2150" height="143"/>
  </g>
 </g>
</svg>
