<svg width="54" height="30" viewBox="0 0 54 30" fill="none" xmlns="http://www.w3.org/2000/svg">
<path d="M15.6667 30H39C47.2708 30 54 23.2708 54 15C54 6.72917 47.2708 7.15256e-07 39 7.15256e-07H15.6667C7.39583 7.15256e-07 0.666668 6.72917 0.666668 15C0.666668 23.2708 7.39583 30 15.6667 30ZM15.6667 3.33333C17.9741 3.33333 20.2297 4.01757 22.1483 5.29952C24.0669 6.58147 25.5622 8.40356 26.4453 10.5354C27.3283 12.6672 27.5593 15.0129 27.1092 17.2761C26.659 19.5392 25.5479 21.618 23.9162 23.2496C22.2846 24.8812 20.2058 25.9923 17.9427 26.4425C15.6796 26.8927 13.3338 26.6616 11.202 25.7786C9.07022 24.8956 7.24814 23.4002 5.96619 21.4817C4.68424 19.5631 4 17.3074 4 15C4.00331 11.9068 5.23353 8.94128 7.42074 6.75407C9.60795 4.56687 12.5735 3.33664 15.6667 3.33333Z" fill="#AFACAC"/>
</svg>
