<svg width="801" height="856" viewBox="0 0 801 856" fill="none" xmlns="http://www.w3.org/2000/svg">
<path d="M668.744 47.5257L101.267 80.7876C98.9113 80.9257 97.1605 83.3202 97.3562 86.1358L108.835 251.351C109.03 254.167 111.098 256.337 113.454 256.199L680.93 222.937C683.286 222.799 685.037 220.405 684.841 217.589L673.362 52.374C673.167 49.5583 671.099 47.3876 668.744 47.5257Z" fill="#CFE3EB"/>
<path fill-rule="evenodd" clip-rule="evenodd" d="M681.883 175.066L684.071 210.079L433.727 238.09L126.048 254.721L108.541 242.904L105.478 200.013L176.817 210.079L335.252 182.944L451.671 197.825L582.533 173.315L632.865 186.445L681.883 175.066Z" fill="#99B6C8"/>
<path d="M218.794 135.926C234.009 135.035 245.62 121.967 244.727 106.738C243.835 91.5097 230.777 79.8876 215.561 80.7795C200.346 81.6713 188.735 94.7394 189.627 109.968C190.52 125.196 203.578 136.818 218.794 135.926Z" fill="#FFED00"/>
<path fill-rule="evenodd" clip-rule="evenodd" d="M122.109 108.541C121.233 107.666 120.358 106.79 120.358 105.477C120.358 102.414 123.422 100.225 127.798 99.7877C131.737 99.3501 135.239 101.101 136.114 103.727C138.74 102.851 140.928 102.414 143.554 102.414C150.995 101.976 157.56 104.602 161.061 108.103C162.374 106.79 165.438 105.477 168.501 105.477C169.814 105.477 171.565 105.477 172.878 105.915C175.504 102.414 180.318 100.225 186.883 99.7877C193.448 99.3501 199.138 101.538 202.201 105.04H203.514C208.329 104.602 212.705 107.228 212.705 109.854C212.705 112.918 209.204 115.544 203.952 115.981C202.639 115.981 201.326 115.981 200.451 115.544C196.512 118.607 192.135 120.358 187.321 120.796H186.883C186.008 122.984 183.382 124.735 179.443 125.172C178.567 125.172 177.692 125.172 176.379 125.172C174.191 128.236 169.814 129.987 164.125 130.424C158.873 130.862 153.621 129.111 150.995 126.048C149.244 126.923 146.618 126.923 144.43 126.923C137.865 127.361 132.613 125.61 128.674 122.546C127.798 122.984 126.048 122.984 124.735 122.984C118.17 123.422 112.918 120.358 112.48 115.981C112.48 112.918 115.981 109.854 121.233 108.541H122.109Z" fill="white"/>
<path fill-rule="evenodd" clip-rule="evenodd" d="M421.034 93.2227C419.284 91.9097 418.408 90.159 418.408 87.9707C417.971 83.1564 423.66 79.2174 430.663 78.7797C437.228 78.342 442.918 81.4057 443.793 85.3447C447.732 84.0317 451.671 83.1564 455.61 83.1564C467.427 82.281 478.369 86.6577 484.058 92.3473C486.247 90.159 491.061 88.4083 495.875 87.9707C498.063 87.9707 500.689 88.4083 503.315 88.4083C507.692 82.7187 515.57 78.7797 526.074 78.342C536.578 77.9044 546.207 81.4057 550.583 86.6577H552.772C560.65 86.22 567.215 90.159 567.652 94.5357C568.09 99.35 561.963 103.727 553.647 104.164C551.459 104.164 549.708 103.727 547.957 103.289C541.83 108.541 534.827 111.167 526.949 112.042H526.074C524.761 115.981 519.947 118.607 513.819 119.045C512.069 119.045 510.756 119.045 509.005 118.607C505.066 123.422 498.063 126.485 489.31 126.923C480.557 127.361 472.241 124.735 467.865 119.92C464.801 121.233 460.862 121.233 457.361 121.671C446.857 122.109 438.103 119.483 431.976 114.668C430.225 115.106 428.037 115.544 425.411 115.544C414.907 115.981 405.716 111.167 405.278 104.164C404.841 98.9123 410.968 94.098 419.721 92.3473L421.034 93.2227Z" fill="white"/>
<path fill-rule="evenodd" clip-rule="evenodd" d="M683.196 196.074L684.071 210.517C684.071 215.769 680.57 223.209 670.504 223.647L122.546 255.597C121.671 255.597 111.605 256.472 108.104 244.655L106.791 224.96L162.812 239.841L259.536 212.268L353.634 231.525L452.109 214.894L569.841 215.769L633.302 203.514L683.634 195.636L683.196 196.074Z" fill="#D3D3D4"/>
<path fill-rule="evenodd" clip-rule="evenodd" d="M351.446 176.379L285.796 245.968L528.7 231.963L475.305 196.074L459.549 173.753L449.045 158.873L393.024 78.7798L380.332 126.485L359.761 174.629L351.446 176.379Z" fill="#4E565A"/>
<path fill-rule="evenodd" clip-rule="evenodd" d="M450.358 160.623L438.103 180.318L421.91 214.894L443.793 192.573L476.18 196.95L450.358 160.623Z" fill="white"/>
<path fill-rule="evenodd" clip-rule="evenodd" d="M393.024 80.0928L401.339 113.355L413.156 131.737L431.538 164.562L380.332 204.827V184.257L399.151 152.745L390.836 119.045L393.024 80.0928Z" fill="white"/>
<path fill-rule="evenodd" clip-rule="evenodd" d="M350.57 177.255L311.618 218.395L360.637 203.515L350.57 177.255Z" fill="white"/>
<path d="M659.562 330.875H452.546C441.186 330.875 431.976 340.085 431.976 351.446V523.886C431.976 535.246 441.186 544.456 452.546 544.456H659.562C670.923 544.456 680.132 535.246 680.132 523.886V351.446C680.132 340.085 670.923 330.875 659.562 330.875Z" fill="#F2F2F2"/>
<path fill-rule="evenodd" clip-rule="evenodd" d="M28.0106 0H772.48C787.798 0 800.053 11.3793 800.053 24.9469V544.018H0V24.9469C0 11.3793 12.2546 0 27.5729 0H28.0106ZM26.6976 17.9443H774.23V526.074H26.6976V17.9443Z" fill="black"/>
<path d="M764.164 26.6975H743.156V43.7665H764.164V26.6975Z" fill="#4E565A"/>
<path d="M737.904 26.6975H716.896V43.7665H737.904V26.6975Z" fill="#4E565A"/>
<path d="M712.082 26.6975H691.074V43.7665H712.082V26.6975Z" fill="#4E565A"/>
<path d="M448.17 544.018H337.44V656.936H448.17V544.018Z" fill="black"/>
<path fill-rule="evenodd" clip-rule="evenodd" d="M227.586 642.055H558.024C561.963 642.055 565.026 645.119 565.026 649.058V671.379H220.583V649.058C220.583 645.119 223.647 642.055 227.586 642.055Z" fill="black"/>
<path fill-rule="evenodd" clip-rule="evenodd" d="M0.437666 544.018H800.49V554.522C800.49 561.963 794.363 568.528 786.485 568.528H14.0053C6.56498 568.528 0 562.4 0 554.522V544.018H0.437666Z" fill="#737373"/>
<path d="M539.642 681.007C541.392 701.578 547.519 684.946 547.082 703.328L505.504 703.766C503.753 703.766 504.628 698.514 503.753 681.007L539.204 680.57L539.642 681.007Z" fill="#4E565A"/>
<path d="M654.748 685.822C658.687 705.955 699.827 696.764 692.387 713.833C690.199 719.085 635.928 717.772 623.236 716.459C623.236 716.459 621.923 702.453 623.236 685.384L654.748 685.822Z" fill="#4E565A"/>
<path d="M622.798 387.334H448.169V394.337H622.798V387.334Z" fill="#4E565A"/>
<path d="M600.915 401.339H448.169V408.342H600.915V401.339Z" fill="#4E565A"/>
<path d="M615.795 415.345H448.169V422.347H615.795V415.345Z" fill="#4E565A"/>
<path d="M553.647 428.912H448.169V435.915H553.647V428.912Z" fill="#4E565A"/>
<path d="M668.744 47.5257L101.267 80.7876C98.9113 80.9257 97.1605 83.3202 97.3562 86.1358L108.835 251.351C109.03 254.167 111.098 256.337 113.454 256.199L680.93 222.937C683.286 222.799 685.037 220.405 684.841 217.589L673.362 52.374C673.167 49.5583 671.099 47.3876 668.744 47.5257Z" fill="#CFE3EB"/>
<path fill-rule="evenodd" clip-rule="evenodd" d="M681.883 175.066L684.071 210.079L433.727 238.09L126.048 254.721L108.541 242.904L105.478 200.013L176.817 210.079L335.252 182.944L451.671 197.825L582.533 173.315L632.865 186.445L681.883 175.066Z" fill="#99B6C8"/>
<path d="M218.794 135.926C234.009 135.035 245.62 121.967 244.727 106.738C243.835 91.5097 230.777 79.8876 215.561 80.7795C200.346 81.6713 188.735 94.7394 189.627 109.968C190.52 125.196 203.578 136.818 218.794 135.926Z" fill="#FFED00"/>
<path fill-rule="evenodd" clip-rule="evenodd" d="M122.109 108.541C121.233 107.666 120.358 106.79 120.358 105.477C120.358 102.414 123.422 100.225 127.798 99.7877C131.737 99.3501 135.239 101.101 136.114 103.727C138.74 102.851 140.928 102.414 143.554 102.414C150.995 101.976 157.56 104.602 161.061 108.103C162.374 106.79 165.438 105.477 168.501 105.477C169.814 105.477 171.565 105.477 172.878 105.915C175.504 102.414 180.318 100.225 186.883 99.7877C193.448 99.3501 199.138 101.538 202.201 105.04H203.514C208.329 104.602 212.705 107.228 212.705 109.854C212.705 112.918 209.204 115.544 203.952 115.981C202.639 115.981 201.326 115.981 200.451 115.544C196.512 118.607 192.135 120.358 187.321 120.796H186.883C186.008 122.984 183.382 124.735 179.443 125.172C178.567 125.172 177.692 125.172 176.379 125.172C174.191 128.236 169.814 129.987 164.125 130.424C158.873 130.862 153.621 129.111 150.995 126.048C149.244 126.923 146.618 126.923 144.43 126.923C137.865 127.361 132.613 125.61 128.674 122.546C127.798 122.984 126.048 122.984 124.735 122.984C118.17 123.422 112.918 120.358 112.48 115.981C112.48 112.918 115.981 109.854 121.233 108.541H122.109Z" fill="white"/>
<path fill-rule="evenodd" clip-rule="evenodd" d="M421.034 93.2227C419.284 91.9097 418.408 90.159 418.408 87.9707C417.971 83.1564 423.66 79.2174 430.663 78.7797C437.228 78.342 442.918 81.4057 443.793 85.3447C447.732 84.0317 451.671 83.1564 455.61 83.1564C467.427 82.281 478.369 86.6577 484.058 92.3473C486.247 90.159 491.061 88.4083 495.875 87.9707C498.063 87.9707 500.689 88.4083 503.315 88.4083C507.692 82.7187 515.57 78.7797 526.074 78.342C536.578 77.9044 546.207 81.4057 550.583 86.6577H552.772C560.65 86.22 567.215 90.159 567.652 94.5357C568.09 99.35 561.963 103.727 553.647 104.164C551.459 104.164 549.708 103.727 547.957 103.289C541.83 108.541 534.827 111.167 526.949 112.042H526.074C524.761 115.981 519.947 118.607 513.819 119.045C512.069 119.045 510.756 119.045 509.005 118.607C505.066 123.422 498.063 126.485 489.31 126.923C480.557 127.361 472.241 124.735 467.865 119.92C464.801 121.233 460.862 121.233 457.361 121.671C446.857 122.109 438.103 119.483 431.976 114.668C430.225 115.106 428.037 115.544 425.411 115.544C414.907 115.981 405.716 111.167 405.278 104.164C404.841 98.9123 410.968 94.098 419.721 92.3473L421.034 93.2227Z" fill="white"/>
<path fill-rule="evenodd" clip-rule="evenodd" d="M683.196 196.074L684.071 210.517C684.071 215.769 680.57 223.209 670.504 223.647L122.546 255.597C121.671 255.597 111.605 256.472 108.104 244.655L106.791 224.96L162.812 239.841L259.536 212.268L353.634 231.525L452.109 214.894L569.841 215.769L633.302 203.514L683.634 195.636L683.196 196.074Z" fill="#D3D3D4"/>
<path fill-rule="evenodd" clip-rule="evenodd" d="M351.446 176.379L285.796 245.968L528.7 231.963L475.305 196.074L459.549 173.753L449.045 158.873L393.024 78.7798L380.332 126.485L359.761 174.629L351.446 176.379Z" fill="#4E565A"/>
<path fill-rule="evenodd" clip-rule="evenodd" d="M450.358 160.623L438.103 180.318L421.91 214.894L443.793 192.573L476.18 196.95L450.358 160.623Z" fill="white"/>
<path fill-rule="evenodd" clip-rule="evenodd" d="M393.024 80.0928L401.339 113.355L413.156 131.737L431.538 164.562L380.332 204.827V184.257L399.151 152.745L390.836 119.045L393.024 80.0928Z" fill="white"/>
<path fill-rule="evenodd" clip-rule="evenodd" d="M350.57 177.255L311.618 218.395L360.637 203.515L350.57 177.255Z" fill="white"/>
<path d="M611.856 442.917H448.169V449.92H611.856V442.917Z" fill="#4E565A"/>
<path d="M589.535 456.485H448.169V463.488H589.535V456.485Z" fill="#4E565A"/>
<path d="M609.231 342.692H503.316C500.173 342.692 497.626 345.239 497.626 348.382V364.575C497.626 367.718 500.173 370.265 503.316 370.265H609.231C612.373 370.265 614.92 367.718 614.92 364.575V348.382C614.92 345.239 612.373 342.692 609.231 342.692Z" fill="#FF8C81"/>
<path d="M502.878 505.066C502.878 484.933 505.504 436.79 506.817 417.095C507.692 407.467 600.04 404.841 600.04 404.841C600.04 404.841 603.979 425.411 616.233 484.933C616.233 484.933 656.061 679.257 656.936 691.512L622.361 689.761C614.92 653.435 572.467 523.01 558.899 488.435C558.899 488.435 541.392 681.445 539.642 683.634L504.191 688.448C504.191 688.448 502.878 526.512 502.878 505.066Z" fill="#99B6C8"/>
<path fill-rule="evenodd" clip-rule="evenodd" d="M430.663 316.87C440.729 318.183 459.987 319.933 469.177 319.933C478.806 319.933 478.368 318.183 478.806 315.994C479.244 313.806 480.557 311.18 480.994 307.241C481.432 303.302 481.432 297.613 480.557 293.674C480.119 289.735 478.806 287.984 471.366 287.984C463.488 287.546 449.045 288.859 441.167 289.297C433.289 289.735 431.976 289.297 423.223 281.857C414.469 274.416 398.713 259.098 390.398 251.658C382.082 243.78 381.207 243.342 380.769 240.716C380.331 238.09 380.331 232.838 379.894 229.774C379.456 227.148 378.581 226.711 378.143 226.711C377.268 226.711 376.83 226.711 376.392 229.337C375.955 231.963 375.955 236.777 375.517 239.403C375.079 242.029 374.642 241.591 369.827 241.591C365.013 241.591 355.384 242.029 349.695 242.467C344.443 242.904 342.692 243.342 343.567 243.78C344.443 244.217 347.506 245.093 348.819 245.53C350.57 245.968 350.57 246.406 362.387 258.223C373.766 269.602 396.525 292.361 408.342 303.74C420.159 315.119 420.597 315.557 430.663 316.87Z" fill="#F8BB97"/>
<path d="M552.772 252.971C552.772 252.971 552.772 259.973 556.711 267.414C556.711 267.414 530.451 274.854 521.26 271.79C521.26 271.79 520.822 263.475 517.321 249.032C514.695 238.965 507.692 237.652 501.565 214.018C497.188 196.949 505.504 178.567 528.7 174.628C544.018 172.002 555.835 182.069 555.835 182.069C555.835 182.069 561.525 186.445 564.589 193.01C564.589 193.01 566.777 197.387 566.777 200.013C571.154 214.018 581.22 249.032 553.209 253.846L552.772 252.971Z" fill="#F8BB97"/>
<path d="M570.278 191.697C570.278 191.697 567.652 195.636 558.461 195.636C548.833 195.636 541.83 200.888 541.392 205.703C540.955 210.517 545.331 215.331 541.83 216.644C538.329 217.957 536.14 212.705 533.514 214.018C530.451 215.769 526.074 217.52 527.825 222.334C529.575 226.711 529.575 242.904 528.7 245.968C527.825 249.032 517.758 248.156 516.445 247.719C515.57 247.281 508.568 234.151 504.191 228.899C499.814 223.647 483.621 191.697 497.188 182.944C497.188 182.944 498.064 174.628 505.942 169.814C513.819 165.437 527.387 161.061 538.766 163.687C549.708 166.313 562.838 172.002 568.09 169.814C572.904 168.939 579.032 183.819 570.716 191.26L570.278 191.697Z" fill="#FFED00"/>
<path d="M557.148 266.101C557.148 266.101 576.405 273.541 603.541 266.976C606.167 267.851 638.992 294.987 605.291 303.74C557.586 316.432 621.485 413.156 595.225 409.217C590.848 413.594 517.758 423.223 507.692 419.721C507.692 419.721 502.878 418.846 502.44 413.156C502.002 407.467 504.191 375.079 500.689 358.448C492.374 326.936 491.498 333.063 475.742 323.872C468.74 319.933 466.989 298.488 468.302 289.735C470.49 283.607 495 282.732 519.509 269.164C532.639 273.103 557.148 266.976 557.148 266.976V266.101Z" fill="#737373"/>
<path fill-rule="evenodd" clip-rule="evenodd" d="M651.246 276.605C642.493 284.92 628.925 290.172 621.485 293.674C614.482 297.175 611.856 296.3 608.793 294.987C605.729 293.674 604.416 289.735 603.103 285.358C601.352 280.981 599.602 276.167 599.602 272.666C599.602 269.602 601.79 267.851 607.48 265.663C613.169 263.037 622.36 259.536 628.05 256.472C633.302 253.408 635.052 250.782 640.742 241.154C646.432 231.525 656.936 214.894 662.188 204.827C667.44 195.199 667.877 192.135 667.44 189.947C667.44 187.758 666.564 186.445 666.127 185.132C665.689 183.819 664.814 182.944 664.814 181.194C664.814 179.881 664.814 178.13 665.689 177.255C666.564 176.379 668.315 176.379 669.628 177.692C670.941 179.005 671.816 181.194 672.692 182.944C673.567 184.695 674.005 186.445 675.755 184.695C677.506 182.944 681.883 178.568 681.883 175.066V171.127C681.883 170.252 683.196 170.69 683.633 171.127C684.509 172.003 684.509 179.881 684.071 181.194C683.633 182.944 683.633 183.382 684.509 184.257C685.384 185.132 687.135 186.445 687.572 189.509C688.448 192.573 688.448 196.949 688.01 200.888C687.572 204.39 686.697 207.016 680.57 219.27C674.442 231.525 659.562 267.851 650.808 276.167L651.246 276.605Z" fill="#F8BB97"/>
<path d="M335.59 674.268L536.996 750.087C538.873 750.794 539.188 752.446 537.7 753.777L426.784 853.007C425.296 854.338 422.568 854.845 420.691 854.138L219.285 778.32C217.408 777.613 217.093 775.961 218.581 774.629L329.497 675.4C330.985 674.068 333.713 673.562 335.59 674.268Z" fill="#F2F2F2"/>
<path d="M380.606 700.813L476.82 737.032C477.412 737.255 477.643 737.659 477.335 737.933L463.427 750.376C463.12 750.651 462.391 750.693 461.799 750.47L365.585 714.251C364.993 714.028 364.763 713.624 365.07 713.35L378.978 700.907C379.285 700.632 380.014 700.59 380.606 700.813Z" fill="#FF8C81"/>
<path d="M349.67 719.939L496.098 775.062L492.36 778.406L345.932 723.283L349.67 719.939Z" fill="#4E565A"/>
<path d="M360.33 733.747L488.391 781.955L484.653 785.299L356.592 737.091L360.33 733.747Z" fill="#4E565A"/>
<path d="M340.375 735.779L480.885 788.673L477.147 792.017L336.637 739.123L340.375 735.779Z" fill="#4E565A"/>
<path d="M384.91 762.083L473.379 795.387L469.641 798.731L381.172 765.427L384.91 762.083Z" fill="#4E565A"/>
<path d="M328.629 750.436L465.873 802.101L462.135 805.445L324.891 753.78L328.629 750.436Z" fill="#4E565A"/>
<path d="M339.699 764.141L458.372 808.815L454.634 812.159L335.961 767.484L339.699 764.141Z" fill="#4E565A"/>
<rect x="51" y="387.601" width="709.202" height="103.159" rx="50" transform="rotate(-30 51 387.601)" fill="#EEBE5F" fill-opacity="0.9"/>
<path d="M98.1499 391.16L108.128 385.399L127.538 419.018C129.332 422.126 130.199 425.225 130.139 428.315C130.094 431.396 129.21 434.261 127.485 436.91C125.761 439.559 123.283 441.816 120.05 443.683C117.174 445.343 114.269 446.34 111.333 446.675C108.403 446.985 105.648 446.484 103.066 445.17C100.475 443.841 98.2627 441.571 96.4296 438.36L106.478 432.559C107.243 433.812 108.129 434.755 109.137 435.387C110.15 435.995 111.225 436.295 112.361 436.288C113.503 436.256 114.665 435.899 115.846 435.217C117.09 434.499 117.985 433.627 118.531 432.6C119.085 431.548 119.283 430.366 119.127 429.054C118.97 427.742 118.448 426.318 117.56 424.779L98.1499 391.16Z" fill="white" fill-opacity="0.8"/>
<path d="M144.312 428.796L116.474 380.581L148.647 362.006L153.5 370.41L131.422 383.157L138.055 394.646L158.478 382.855L163.33 391.26L142.907 403.051L149.554 414.563L171.725 401.763L176.578 410.167L144.312 428.796Z" fill="white" fill-opacity="0.8"/>
<path d="M190.58 356.284C189.297 354.493 187.645 353.48 185.624 353.245C183.602 353.01 181.379 353.592 178.955 354.992C177.307 355.943 176.052 356.982 175.189 358.108C174.317 359.218 173.814 360.356 173.679 361.522C173.56 362.679 173.799 363.776 174.397 364.812C174.864 365.693 175.478 366.343 176.238 366.762C177.014 367.172 177.887 367.411 178.858 367.478C179.821 367.529 180.86 367.463 181.976 367.279C183.084 367.079 184.226 366.796 185.403 366.431L190.291 364.99C192.645 364.258 194.92 363.782 197.113 363.562C199.307 363.342 201.372 363.437 203.308 363.846C205.244 364.256 207.01 365.036 208.607 366.186C210.219 367.327 211.613 368.898 212.788 370.898C214.476 373.858 215.207 376.847 214.981 379.865C214.762 382.859 213.613 385.751 211.535 388.541C209.464 391.306 206.485 393.811 202.6 396.054C198.745 398.279 195.044 399.621 191.495 400.08C187.962 400.529 184.72 400.046 181.769 398.632C178.824 397.193 176.312 394.762 174.232 391.338L184 385.698C185.042 387.252 186.28 388.337 187.714 388.953C189.153 389.545 190.716 389.721 192.401 389.48C194.092 389.215 195.808 388.58 197.549 387.575C199.259 386.588 200.598 385.48 201.567 384.251C202.551 383.013 203.135 381.745 203.318 380.446C203.501 379.148 203.257 377.918 202.587 376.757C201.961 375.674 201.117 374.947 200.054 374.577C199.006 374.199 197.727 374.1 196.216 374.282C194.72 374.455 192.979 374.832 190.994 375.414L185.034 377.097C180.437 378.432 176.366 378.721 172.821 377.964C169.275 377.207 166.481 375.043 164.44 371.471C162.739 368.56 162.036 365.566 162.33 362.487C162.641 359.399 163.81 356.453 165.839 353.65C167.867 350.846 170.623 348.439 174.104 346.429C177.648 344.383 181.094 343.21 184.443 342.908C187.808 342.598 190.858 343.108 193.594 344.437C196.33 345.766 198.551 347.853 200.256 350.698L190.58 356.284ZM160.684 335.029L168.686 338.068L170.056 329.618L178.519 324.732L178.709 325.062L175.224 340.886L167.834 345.152L152.411 340.245L152.221 339.915L160.684 335.029Z" fill="white" fill-opacity="0.8"/>
<path d="M202.727 341.989L197.874 333.584L237.088 310.944L241.94 319.349L227.322 327.789L250.307 367.6L240.329 373.361L217.344 333.55L202.727 341.989Z" fill="white" fill-opacity="0.8"/>
<path d="M271.383 355.432L243.546 307.216L275.718 288.641L280.571 297.046L258.493 309.793L265.126 321.281L285.549 309.49L290.401 317.895L269.978 329.686L276.625 341.199L298.796 328.398L303.649 336.803L271.383 355.432ZM246.344 285.573L254.346 288.612L255.716 280.162L264.179 275.276L264.369 275.606L260.884 291.43L253.494 295.696L238.071 290.789L237.881 290.459L246.344 285.573Z" fill="white" fill-opacity="0.8"/>
<path d="M301.973 284.689L297.12 276.285L336.334 253.645L341.186 262.049L326.569 270.489L349.554 310.3L339.575 316.061L316.59 276.25L301.973 284.689Z" fill="white" fill-opacity="0.8"/>
<path d="M398.407 249.951C401.443 255.208 403.038 260.251 403.194 265.079C403.365 269.898 402.318 274.259 400.054 278.162C397.795 282.039 394.56 285.194 390.348 287.626C386.105 290.076 381.736 291.301 377.239 291.302C372.743 291.303 368.451 290.025 364.363 287.467C360.275 284.909 356.718 281.009 353.691 275.767C350.656 270.509 349.052 265.471 348.881 260.652C348.71 255.833 349.753 251.484 352.012 247.607C354.261 243.713 357.507 240.542 361.75 238.092C365.962 235.66 370.316 234.444 374.812 234.443C379.315 234.417 383.611 235.683 387.698 238.241C391.802 240.789 395.371 244.693 398.407 249.951ZM388.172 255.86C386.206 252.454 384.042 249.873 381.682 248.118C379.337 246.354 376.907 245.392 374.39 245.233C371.874 245.075 369.396 245.7 366.956 247.109C364.516 248.518 362.735 250.351 361.614 252.61C360.494 254.868 360.103 257.458 360.443 260.38C360.799 263.293 361.96 266.452 363.926 269.858C365.892 273.264 368.048 275.849 370.393 277.613C372.753 279.369 375.192 280.326 377.708 280.484C380.224 280.643 382.702 280.018 385.142 278.609C387.583 277.2 389.363 275.367 390.484 273.108C391.605 270.85 391.987 268.264 391.632 265.351C391.292 262.429 390.139 259.265 388.172 255.86Z" fill="white" fill-opacity="0.8"/>
<path d="M447.097 189.695L474.934 237.911L466.215 242.945L427.922 224.592L427.572 224.793L445.093 255.14L434.998 260.968L407.161 212.753L416.02 207.638L454.136 226.062L454.556 225.82L437.049 195.497L447.097 189.695Z" fill="white" fill-opacity="0.8"/>
<path d="M483.275 233.096L455.438 184.88L487.61 166.305L492.463 174.71L470.385 187.457L477.018 198.946L497.441 187.154L502.293 195.559L481.87 207.35L488.517 218.863L510.688 206.062L515.541 214.467L483.275 233.096Z" fill="white" fill-opacity="0.8"/>
<path d="M495.636 161.671L508.086 154.484L539.938 179.287L540.497 178.964L534.943 138.978L547.392 131.79L575.23 180.006L565.438 185.659L547.319 154.276L546.923 154.505L552.55 192.786L545.882 196.636L515.475 172.505L515.078 172.734L533.265 204.234L523.473 209.887L495.636 161.671Z" fill="white" fill-opacity="0.8"/>
<path d="M591.777 170.452L580.959 176.698L569.605 118.966L582.614 111.455L626.91 150.168L616.093 156.413L582.657 126.121L582.284 126.336L591.777 170.452ZM580.159 151.891L605.71 137.138L610.305 145.096L584.753 159.848L580.159 151.891ZM569.851 112.608L568.609 99.0428L577.794 93.7395L576.868 108.557L569.851 112.608Z" fill="white" fill-opacity="0.8"/>
<path d="M604.82 98.6342L617.269 91.4465L649.121 116.25L649.681 115.927L644.127 75.9404L656.576 68.7527L684.413 116.968L674.622 122.622L656.503 91.2391L656.107 91.4679L661.733 129.749L655.066 133.599L624.659 109.468L624.262 109.696L642.449 141.197L632.657 146.85L604.82 98.6342Z" fill="white" fill-opacity="0.8"/>
</svg>
