<svg width="3879" height="3163" viewBox="0 0 3879 3163" fill="none" xmlns="http://www.w3.org/2000/svg">
<rect x="1303" y="627" width="2506" height="1711" fill="white"/>
<path d="M3270.5 1472.99C3270.5 1472.99 3253.99 1482.34 3239.66 1478.56C3219.96 1473.79 3173.21 1436.58 3171.61 1433.79C3168.23 1427.62 3173.21 1427.62 3173.21 1427.62C3173.21 1427.62 3162.86 1423.25 3162.06 1418.67C3161.27 1414.09 3169.23 1414.29 3169.23 1414.29C3169.23 1414.29 3162.86 1410.51 3162.46 1406.73C3162.06 1402.95 3172.01 1403.95 3172.01 1403.95C3172.01 1403.95 3165.45 1399.97 3165.84 1395.59C3166.24 1391.41 3180.57 1391.01 3187.33 1393C3206.63 1398.57 3219.37 1406.14 3231.31 1415.09C3231.31 1415.09 3220.36 1396.98 3225.93 1395.99C3234.29 1394.4 3262.15 1428.82 3271.9 1440.36C3281.65 1451.9 3270.11 1472.99 3270.11 1472.99H3270.5Z" fill="#F8BB97"/>
<path fill-rule="evenodd" clip-rule="evenodd" d="M3094.01 986.504L3216.98 1528.5C3222.75 1553.77 3206.63 1579.24 3181.36 1585.01L3059 1612.67C3033.73 1618.44 3008.26 1602.32 3002.49 1577.05L2879.92 1035.05C2874.15 1009.78 2890.27 984.315 2915.54 978.545L3037.9 950.888C3063.17 945.117 3090.43 971.183 3094.01 986.703V986.504ZM2994.53 1065.69L3006.47 1062.91L3051.43 1125.58L3038.7 1128.57L3003.68 1078.63L2993.34 1138.72L2980.6 1141.7L2994.53 1065.69ZM2964.48 1153.84L3079.69 1159.81L3082.08 1170.15L2966.87 1164.38L2964.48 1154.04V1153.84ZM2978.01 1205.57L3082.87 1181.89L3093.42 1228.25C3095.61 1237.61 3096.2 1244.97 3095.41 1250.14C3094.61 1255.51 3092.22 1260.09 3088.05 1264.07C3083.87 1268.05 3078.89 1270.64 3073.12 1272.03C3065.76 1273.62 3059 1272.82 3052.63 1269.04C3046.46 1265.46 3041.49 1258.7 3037.9 1248.95C3036.91 1253.13 3035.92 1256.11 3034.52 1258.5C3031.74 1263.47 3027.96 1268.25 3023.18 1273.22L2998.71 1297.89L2994.73 1280.39L3013.43 1261.68C3018.8 1256.31 3022.78 1251.73 3025.57 1248.35C3028.35 1244.97 3030.14 1242.18 3030.94 1239.79C3031.74 1237.41 3032.33 1235.02 3032.33 1232.83C3032.33 1231.24 3031.94 1228.65 3031.14 1225.07L3027.56 1208.95L2981 1219.5L2977.82 1205.57H2978.01ZM3039.7 1206.17L3046.46 1236.01C3047.85 1242.38 3049.64 1247.16 3051.83 1250.34C3054.02 1253.72 3056.61 1255.91 3059.99 1257.11C3063.37 1258.3 3066.56 1258.5 3069.94 1257.7C3074.91 1256.51 3078.5 1253.92 3080.88 1249.54C3083.27 1245.17 3083.47 1239.2 3081.88 1231.44L3074.32 1198.21L3039.7 1205.97V1206.17ZM3001.89 1310.63L3106.75 1286.95L3111.52 1307.84L3042.88 1349.43C3036.51 1353.21 3031.74 1356.19 3028.55 1357.98C3032.53 1358.38 3038.7 1358.98 3046.66 1359.78L3125.25 1368.33L3129.43 1387.03L3024.57 1410.71L3021.59 1397.38L3109.34 1377.48L3014.82 1366.94L3012.04 1354.4L3094.41 1303.86L3005.27 1323.96L3002.29 1310.63H3001.89ZM3090.23 1488.71L3044.87 1426.03L3057.6 1423.05L3092.82 1472.79L3102.97 1412.7L3115.7 1409.72L3102.17 1485.72L3090.23 1488.51V1488.71Z" fill="#48854C"/>
<path d="M3410.98 1623.81L3619.5 1781.4C3689.14 1822.38 3717.99 1758.32 3717.99 1758.32C3720.98 1701.81 3670.24 1665.99 3670.24 1665.99L3479.62 1553.77C3479.62 1553.77 3419.53 1534.47 3406.2 1562.53C3406.2 1562.53 3382.13 1605.51 3411.18 1623.81H3410.98Z" fill="#4956A0"/>
<path d="M3410.78 1625.6L3225.14 1479.76C3235.29 1449.31 3264.93 1428.02 3264.93 1428.02L3483.4 1557.16C3483.4 1557.16 3468.08 1645.7 3410.78 1625.6Z" fill="#4956A0"/>
<path fill-rule="evenodd" clip-rule="evenodd" d="M1310.43 570.453H3786.64C3837.18 570.453 3878.56 607.661 3878.56 653.027V2379.11H1218.5V653.027C1218.5 607.661 1259.89 570.453 1310.43 570.453ZM1305.85 629.747H3791.21V2319.62H1305.85V629.747Z" fill="black"/>
<path d="M3719.98 683.668H3649.94V740.972H3719.98V683.668Z" fill="#4E565A"/>
<path d="M3632.63 683.668H3562.59V740.972H3632.63V683.668Z" fill="#4E565A"/>
<path d="M3547.07 683.668H3477.04V740.972H3547.07V683.668Z" fill="#4E565A"/>
<path d="M2690.7 2460.49H2406.37V2749.79H2690.7V2460.49Z" fill="black"/>
<path fill-rule="evenodd" clip-rule="evenodd" d="M2124.62 2712.39H2972.44C2982.19 2712.39 2990.15 2720.35 2990.15 2730.1V2787.2H2106.92V2730.1C2106.92 2720.35 2114.87 2712.39 2124.62 2712.39Z" fill="black"/>
<path fill-rule="evenodd" clip-rule="evenodd" d="M1218.5 2378.91H3878.56V2414.53C3878.56 2439.8 3857.87 2460.29 3832.8 2460.29H1264.47C1239.2 2460.29 1218.7 2439.6 1218.7 2414.53V2378.91H1218.5Z" fill="#737373"/>
<path d="M3260.78 1721.87L3214.27 1724.11L3227.75 3162.12L3274.25 3159.89L3260.78 1721.87Z" fill="#4E565A"/>
<path d="M3656.16 1702.88L3609.65 1705.11L3623.12 3143.13L3669.63 3140.89L3656.16 1702.88Z" fill="#4E565A"/>
<path d="M3637.2 1798.64L3239.01 1817.77L3239.29 1847.65L3637.48 1828.52L3637.2 1798.64Z" fill="#4E565A"/>
<path d="M3639.11 2001.61L3240.92 2020.74L3241.2 2050.62L3639.39 2031.49L3639.11 2001.61Z" fill="#4E565A"/>
<path d="M3641 2204.6L3242.81 2223.73L3243.09 2253.61L3641.28 2234.48L3641 2204.6Z" fill="#4E565A"/>
<path d="M3642.91 2407.57L3244.72 2426.7L3245 2456.58L3643.19 2437.45L3642.91 2407.57Z" fill="#4E565A"/>
<path d="M3644.8 2610.54L3246.61 2629.67L3246.89 2659.55L3645.08 2640.42L3644.8 2610.54Z" fill="#4E565A"/>
<path d="M3646.71 2813.51L3248.52 2832.65L3248.8 2862.52L3646.99 2843.39L3646.71 2813.51Z" fill="#4E565A"/>
<path d="M3648.6 3016.5L3250.41 3035.64L3250.69 3065.52L3648.88 3046.38L3648.6 3016.5Z" fill="#4E565A"/>
<path d="M3265.33 449.677H2865.6V477.931H3265.33V449.677Z" fill="#FF6F61"/>
<path d="M2937.03 477.732H2919.52V761.267H2937.03V477.732Z" fill="#464747" stroke="#2B2A29" stroke-width="0.755913"/>
<path d="M3207.23 477.732H3189.72V766.241H3207.23V477.732Z" fill="#464747" stroke="#2B2A29" stroke-width="0.755913"/>
<path fill-rule="evenodd" clip-rule="evenodd" d="M2868.58 737.589L2990.15 868.911H3140.77L3262.35 737.589H2868.58Z" fill="#FDEC1F"/>
<path d="M1122 2674.38H82.5732V2712.19H1122V2674.38Z" fill="#464747"/>
<path d="M1204.38 2712.19H0V2763.32H1204.38V2712.19Z" fill="#464747"/>
<path fill-rule="evenodd" clip-rule="evenodd" d="M3012.24 999.635C3011.04 981.529 3024.77 965.81 3042.88 964.616C3060.99 963.422 3076.7 977.152 3077.9 995.258C3079.09 1013.36 3065.36 1029.08 3047.26 1030.28C3029.15 1031.47 3013.43 1017.74 3012.24 999.635Z" fill="#FEFEFE"/>
<path fill-rule="evenodd" clip-rule="evenodd" d="M3052.23 858.167C3057.8 855.381 3064.97 855.58 3070.14 857.57C3075.31 859.559 3078.89 863.539 3080.88 868.911C3082.87 874.283 3083.07 881.048 3084.46 886.62C3085.66 892.191 3087.85 896.568 3091.63 902.338C3095.41 908.109 3100.98 915.272 3106.15 922.832C3111.33 930.393 3116.3 938.352 3118.29 944.719C3120.28 951.086 3119.28 956.061 3115.5 963.025C3111.72 969.989 3104.96 978.943 3095.81 984.912C3086.65 990.881 3074.91 994.064 3065.36 995.855C3055.81 997.845 3048.45 998.641 3041.29 998.243C3034.12 998.044 3026.96 996.651 3017.41 993.07C3007.86 989.488 2995.92 983.718 2987.76 978.545C2979.41 973.371 2974.63 968.795 2971.25 962.627C2967.67 956.459 2965.28 948.699 2964.68 941.934C2964.09 935.169 2965.08 929.399 2966.08 923.429C2980.8 939.546 2995.32 955.464 3012.44 964.219C3029.55 972.973 3049.05 974.565 3060.79 970.984C3072.53 967.601 3076.51 959.244 3076.9 950.092C3077.3 940.939 3074.32 930.791 3067.95 922.435C3061.58 913.879 3051.83 907.114 3046.26 898.956C3040.89 890.798 3039.7 881.446 3041.09 873.885C3042.68 866.324 3046.86 860.753 3052.43 857.968L3052.23 858.167Z" fill="#FF6F61"/>
<path d="M3669.84 2016.58L3723.56 1733.05C3723.56 1733.05 3740.67 1690.67 3709.04 1668.38L3588.06 1607.89L3536.33 1586.6L3387.1 1669.77L3441.02 2010.81L3669.84 2016.58Z" fill="#F8BB97"/>
<path d="M3592.64 2949.16L3574.33 2994.53L3494.15 3005.87C3494.15 3005.87 3466.69 3013.03 3465.69 3038.9H3657.7L3641.98 2949.36H3592.44L3592.64 2949.16Z" fill="#7D9BAD"/>
<path d="M3655.32 2217.94C3657.9 2264.5 3639.4 2303.3 3594.43 2305.69C3549.46 2308.08 3510.86 2272.46 3508.47 2225.9C3505.89 2179.34 3540.31 2139.75 3585.28 2137.36C3630.24 2134.97 3652.73 2171.58 3655.32 2217.94Z" fill="#2B2E33"/>
<path d="M3428.49 3034.52L3423.12 2954.34L3386.5 2949.16C3386.5 2949.16 3371.78 2982.19 3359.25 2989.75C3346.71 2997.32 3262.74 3010.05 3262.74 3010.05C3262.74 3010.05 3236.68 3007.06 3236.68 3039.3C3236.68 3039.3 3293.19 3044.47 3428.49 3034.52Z" fill="#7D9BAD"/>
<path d="M3557.82 2218.54C3554.83 2264.9 3516.03 2300.32 3471.07 2297.33C3426.1 2294.35 3392.08 2254.35 3395.06 2207.99C3398.04 2161.63 3436.84 2126.22 3481.81 2129.2C3526.78 2132.18 3560.8 2172.18 3557.82 2218.54Z" fill="#2B2E33"/>
<path d="M3425.5 2989.95L3453.56 2774.67C3476.44 2625.44 3472.06 2543.26 3472.06 2543.26C3446.39 2448.75 3364.62 2524.76 3364.62 2524.76L3359.25 2989.75C3359.25 2989.75 3385.71 3003.28 3425.5 2989.95ZM3650.14 2994.93L3666.26 2726.12C3666.26 2633.4 3637.01 2539.28 3637.01 2539.28C3576.12 2476.41 3539.31 2531.92 3539.31 2531.92L3574.33 2994.33C3574.33 2994.33 3621.09 2999.7 3650.14 2994.93ZM3505.89 2271.86L3540.51 2537.29C3540.51 2537.29 3618.9 2626.63 3637.41 2572.11C3637.41 2572.11 3666.66 2341.7 3655.51 2218.14C3655.51 2218.14 3528.37 2158.25 3505.89 2272.06V2271.86ZM3394.26 2218.14L3364.82 2524.76C3364.82 2524.76 3396.45 2609.12 3468.08 2557.59L3565.98 2261.91C3565.98 2261.91 3523.4 2129.8 3394.26 2218.14Z" fill="#384761"/>
<path d="M3503.1 1543.03L3500.71 1635.15L3598.21 1637.54C3598.21 1637.54 3575.13 1600.33 3588.46 1545.02L3502.9 1542.83L3503.1 1543.03Z" fill="#F8BB97"/>
<path d="M3485.39 1565.91C3458.13 1567.1 3454.15 1541.44 3454.15 1541.44C3438.83 1489.7 3443.21 1457.47 3443.21 1457.47C3445.6 1449.71 3447.59 1441.55 3446.59 1433C3441.62 1391.21 3465.5 1370.72 3465.5 1370.72C3493.35 1335.3 3549.86 1341.27 3549.86 1341.27C3551.45 1341.47 3552.84 1341.87 3554.44 1342.07C3624.08 1347.24 3633.83 1390.22 3633.83 1390.22C3640.79 1408.92 3641.98 1429.81 3637.61 1449.31C3632.63 1471.8 3622.48 1490.1 3610.75 1509.4C3597.81 1530.29 3572.34 1544.62 3545.28 1553.57L3544.69 1580.04L3510.66 1579.24C3506.29 1564.92 3494.15 1566.11 3494.15 1566.11H3485.59L3485.39 1565.91Z" fill="#F8BB97"/>
<path d="M3493.95 1565.91C3493.95 1565.91 3498.13 1565.31 3502.5 1568.1L3501.31 1613.27L3526.98 1613.86C3521.81 1596.75 3523 1576.46 3527.58 1561.13C3544.69 1545.81 3570.95 1536.86 3594.03 1514.38C3587.66 1514.38 3563.79 1513.78 3557.22 1513.98C3545.28 1514.38 3533.15 1513.18 3521.21 1514.18C3510.46 1515.17 3510.86 1524.13 3508.87 1532.88C3508.08 1536.26 3507.28 1539.84 3506.09 1542.83C3505.69 1543.82 3505.29 1544.82 3504.69 1545.81C3504.3 1546.81 3503.7 1547.6 3503.1 1548.6C3500.71 1551.98 3497.33 1554.57 3491.96 1555.76C3478.63 1558.35 3467.09 1558.15 3457.14 1549.59C3460.92 1557.35 3468.68 1566.31 3485.39 1565.71H3493.95V1565.91Z" fill="#F8BB97"/>
<path d="M3571.55 1311.03C3571.55 1311.03 3666.46 1323.76 3647.16 1393.2C3647.16 1393.2 3667.85 1417.08 3662.68 1440.96C3660.49 1485.33 3598.41 1542.83 3598.41 1542.83C3592.84 1554.37 3584.28 1555.17 3584.28 1555.17L3553.64 1554.37C3540.11 1553.57 3535.73 1544.82 3535.73 1544.82C3512.25 1515.97 3499.72 1505.02 3499.72 1505.02C3488.38 1491.89 3503.9 1467.02 3503.9 1467.02C3515.64 1437.57 3485.39 1439.56 3485.39 1439.56C3472.86 1445.53 3476.04 1469.61 3476.04 1469.61C3470.87 1469.01 3465.89 1463.24 3465.89 1463.24L3468.08 1427.43C3466.69 1417.87 3468.68 1415.89 3460.72 1409.52C3402.42 1394.4 3476.04 1351.22 3476.04 1351.22C3476.04 1351.22 3477.43 1347.04 3495.54 1348.63C3504.3 1353.81 3529.57 1386.84 3513.85 1328.74C3513.85 1328.74 3484.6 1305.46 3571.75 1310.63L3571.55 1311.03Z" fill="#FFED00"/>
<path d="M3705.06 2257.94L3710.23 1979.18L3727.94 1717.53C3737.69 1673.75 3695.51 1661.62 3695.51 1661.62L3615.32 1621.42C3615.32 1621.42 3588.66 1676.94 3475.44 1620.43L3385.51 1668.98L3380.14 1954.7L3342.13 2264.3C3342.13 2264.3 3453.76 2301.71 3552.25 2301.91C3606.17 2297.93 3663.27 2297.93 3705.06 2257.74V2257.94Z" fill="#4956A0"/>
<path d="M3188.92 1674.55L3436.05 1759.51C3514.84 1776.82 3522.4 1706.98 3522.4 1706.98C3507.68 1652.46 3448.38 1634.16 3448.38 1634.16L3232.3 1586.8C3232.3 1586.8 3169.03 1587.2 3165.25 1618.04C3165.25 1618.04 3155.7 1666.39 3188.92 1674.75V1674.55Z" fill="#4956A0"/>
<path d="M3038.5 1555.76C3038.5 1555.76 3020.4 1561.13 3007.26 1554.37C2964.68 1527.91 2954.73 1448.12 2975.43 1459.46C2993.14 1469.21 3003.68 1479.36 3013.43 1490.7C3013.43 1490.7 3006.67 1470.6 3012.24 1470.8C3020.79 1471 3040.29 1510.79 3047.26 1524.32C3054.22 1537.66 3038.3 1555.76 3038.3 1555.76H3038.5Z" fill="#F8BB97"/>
<path d="M3194.3 1674.55L2981.99 1539.05C2989.16 1507.81 3016.81 1484.53 3016.81 1484.53L3259.76 1599.34C3259.76 1599.34 3253.19 1688.87 3194.3 1674.55Z" fill="#4956A0"/>
<path fill-rule="evenodd" clip-rule="evenodd" d="M3423.91 1389.22C3516.83 1368.93 3608.95 1424.04 3680.39 1460.65C3681.58 1457.27 3688.15 1450.71 3676.21 1445.93C3649.94 1435.38 3705.46 1331.52 3595.03 1291.73C3453.16 1240.59 3444.01 1360.57 3424.11 1385.24C3422.72 1387.03 3422.92 1388.43 3423.91 1389.02V1389.22Z" fill="#E79918"/>
<path fill-rule="evenodd" clip-rule="evenodd" d="M3012.24 999.636C3013.43 1017.74 3029.15 1031.47 3047.26 1030.28C3065.36 1029.08 3079.09 1013.36 3077.9 995.258C3076.7 977.152 3060.99 963.423 3042.88 964.617C3041.29 962.428 3008.66 957.653 3038.1 950.49C3054.22 946.709 3069.54 951.485 3080.68 962.03C3087.25 968.198 3090.43 977.152 3094.01 985.907C3097.8 997.447 3090.83 1011.77 3088.84 1021.52C3086.85 1031.27 3097.2 1047.79 3086.85 1051.97C3076.7 1056.14 3061.78 1049.58 3047.06 1043.41C3032.53 1037.24 3015.82 1026.1 3005.67 1008.79C3007.86 1005.8 3010.05 1002.62 3012.24 999.636Z" fill="#48854C"/>
<path fill-rule="evenodd" clip-rule="evenodd" d="M1563.52 1475.38H2109.1C2134.57 1475.38 2155.46 1496.27 2155.46 1521.74V1644.7C2155.46 1670.17 2134.57 1691.06 2109.1 1691.06H1563.52C1538.05 1691.06 1517.16 1670.17 1517.16 1644.7V1521.74C1517.16 1496.27 1538.05 1475.38 1563.52 1475.38ZM1671.96 1624.01L1599.54 1592.57V1575.06L1671.96 1543.82V1564.32L1621.42 1583.62L1671.96 1603.71V1624.01ZM1732.85 1608.89H1714.54C1714.54 1606.3 1714.54 1604.71 1714.54 1604.11C1714.54 1598.14 1715.54 1593.37 1717.53 1589.39C1719.52 1585.61 1723.5 1581.23 1729.27 1576.46C1735.23 1571.68 1738.62 1568.5 1739.81 1567.1C1741.6 1564.72 1742.4 1562.13 1742.4 1559.34C1742.4 1555.36 1740.81 1551.98 1737.62 1549.2C1734.44 1546.41 1730.26 1545.02 1724.89 1545.02C1719.72 1545.02 1715.54 1546.41 1711.96 1549.4C1708.57 1552.38 1706.19 1556.76 1704.79 1562.73L1686.29 1560.34C1686.88 1551.78 1690.47 1544.42 1697.23 1538.45C1704 1532.48 1712.95 1529.5 1723.89 1529.5C1735.43 1529.5 1744.79 1532.48 1751.55 1538.65C1758.32 1544.82 1761.9 1551.78 1761.9 1559.94C1761.9 1564.32 1760.7 1568.7 1758.12 1572.68C1755.53 1576.65 1750.16 1582.03 1742 1588.99C1737.82 1592.57 1735.04 1595.36 1734.04 1597.55C1733.05 1599.74 1732.45 1603.52 1732.65 1609.09L1732.85 1608.89ZM1714.54 1636.15V1615.85H1734.84V1636.15H1714.54ZM1778.81 1559.74H1797.71V1570.88C1800.1 1567.1 1803.48 1563.92 1807.66 1561.53C1811.84 1559.15 1816.42 1557.95 1821.59 1557.95C1830.54 1557.95 1837.9 1561.53 1844.07 1568.3C1850.24 1575.26 1853.42 1585.01 1853.42 1597.35C1853.42 1610.08 1850.24 1620.03 1844.07 1627.19C1837.9 1634.36 1830.34 1637.74 1821.39 1637.74C1817.21 1637.74 1813.23 1636.94 1809.85 1635.15C1806.47 1633.36 1802.89 1630.58 1799.11 1626.6V1665.2H1778.81V1559.74ZM1798.91 1596.75C1798.91 1605.31 1800.7 1611.67 1804.08 1615.85C1807.46 1620.03 1811.64 1622.02 1816.61 1622.02C1821.39 1622.02 1825.17 1620.03 1828.35 1616.45C1831.54 1612.67 1833.13 1606.5 1833.13 1597.94C1833.13 1589.99 1831.54 1584.02 1828.35 1580.04C1825.17 1576.06 1821.19 1574.27 1816.42 1574.27C1811.44 1574.27 1807.46 1576.26 1804.08 1580.04C1800.9 1583.82 1799.11 1589.59 1799.11 1596.95L1798.91 1596.75ZM1889.64 1530.69V1569.49C1896.2 1561.93 1903.96 1557.95 1913.12 1557.95C1917.69 1557.95 1921.87 1558.75 1925.65 1560.54C1929.43 1562.33 1932.22 1564.52 1934.01 1567.1C1936 1569.89 1937.19 1572.87 1937.99 1576.06C1938.78 1579.24 1938.98 1584.41 1938.98 1591.18V1635.95H1918.69V1595.56C1918.69 1587.6 1918.29 1582.42 1917.49 1580.24C1916.7 1578.05 1915.3 1576.46 1913.31 1575.06C1911.33 1573.87 1908.94 1573.07 1905.95 1573.07C1902.57 1573.07 1899.59 1573.87 1897 1575.46C1894.41 1577.05 1892.42 1579.64 1891.23 1582.82C1890.04 1586.21 1889.44 1590.98 1889.44 1597.35V1635.75H1869.14V1530.29H1889.44L1889.64 1530.69ZM1958.88 1559.74H1977.78V1570.88C1980.17 1567.1 1983.55 1563.92 1987.73 1561.53C1991.91 1559.15 1996.49 1557.95 2001.66 1557.95C2010.61 1557.95 2017.97 1561.53 2024.14 1568.3C2030.31 1575.26 2033.49 1585.01 2033.49 1597.35C2033.49 1610.08 2030.31 1620.03 2024.14 1627.19C2017.97 1634.36 2010.41 1637.74 2001.46 1637.74C1997.28 1637.74 1993.3 1636.94 1989.92 1635.15C1986.54 1633.36 1982.96 1630.58 1979.17 1626.6V1665.2H1958.88V1559.74ZM1978.98 1596.75C1978.98 1605.31 1980.77 1611.67 1984.15 1615.85C1987.53 1620.03 1991.71 1622.02 1996.68 1622.02C2001.46 1622.02 2005.24 1620.03 2008.42 1616.45C2011.61 1612.67 2013.2 1606.5 2013.2 1597.94C2013.2 1589.99 2011.61 1584.02 2008.42 1580.04C2005.24 1576.06 2001.26 1574.27 1996.49 1574.27C1991.51 1574.27 1987.53 1576.26 1984.15 1580.04C1980.97 1583.82 1979.17 1589.59 1979.17 1596.95L1978.98 1596.75Z" fill="#BC82B7"/>
<path fill-rule="evenodd" clip-rule="evenodd" d="M451.866 2313.25H811.209V2651.5H451.866V2313.25ZM427.392 2290.37H835.484V2674.58H427.392V2290.37Z" fill="#464747"/>
<path fill-rule="evenodd" clip-rule="evenodd" d="M820.163 2648.91L805.837 2659.26L451.866 2325.19L449.876 2311.46L462.013 2312.25L820.163 2648.91Z" fill="#464747"/>
<path fill-rule="evenodd" clip-rule="evenodd" d="M810.811 2309.27L819.765 2324.59L464.798 2657.87L450.273 2659.66L451.268 2648.12L810.811 2309.27Z" fill="#464747"/>
<path fill-rule="evenodd" clip-rule="evenodd" d="M451.866 1951.92H811.209V2290.17H451.866V1951.92ZM427.392 1929.03H835.484V2313.25H427.392V1929.03Z" fill="#464747"/>
<path fill-rule="evenodd" clip-rule="evenodd" d="M820.163 2287.58L805.837 2298.13L451.866 1963.85L449.876 1950.12L462.013 1951.12L820.163 2287.58Z" fill="#464747"/>
<path fill-rule="evenodd" clip-rule="evenodd" d="M812.999 1945.95L819.765 1963.46L464.798 2296.54L450.273 2298.33L451.268 2286.98L812.999 1945.95Z" fill="#464747"/>
<path fill-rule="evenodd" clip-rule="evenodd" d="M451.866 1590.78H811.209V1929.03H451.866V1590.78ZM427.392 1567.9H835.484V1952.11H427.392V1567.9Z" fill="#464747"/>
<path fill-rule="evenodd" clip-rule="evenodd" d="M820.163 1926.45L805.837 1936.79L451.866 1602.72L449.876 1588.99L462.013 1589.99L820.163 1926.45Z" fill="#464747"/>
<path fill-rule="evenodd" clip-rule="evenodd" d="M811.607 1585.81L819.765 1602.12L464.798 1935.4L450.273 1937.19L451.268 1925.85L811.607 1585.81Z" fill="#464747"/>
<path fill-rule="evenodd" clip-rule="evenodd" d="M451.866 1229.65H811.209V1567.9H451.866V1229.65ZM427.392 1206.77H835.484V1590.98H427.392V1206.77Z" fill="#464747"/>
<path fill-rule="evenodd" clip-rule="evenodd" d="M820.163 1565.31L805.837 1575.66L451.866 1241.59L449.876 1227.86L462.013 1228.85L820.163 1565.31Z" fill="#464747"/>
<path fill-rule="evenodd" clip-rule="evenodd" d="M817.377 1219.9L819.765 1240.99L464.798 1574.27L450.273 1576.06L451.268 1564.52L817.377 1219.9Z" fill="#464747"/>
<path fill-rule="evenodd" clip-rule="evenodd" d="M451.866 868.513H811.209V1206.77H451.866V868.513ZM427.392 845.631H835.484V1229.85H427.392V845.631Z" fill="#464747"/>
<path fill-rule="evenodd" clip-rule="evenodd" d="M820.163 1203.98L805.837 1214.53L451.866 880.253L449.876 866.523L462.013 867.518L820.163 1203.98Z" fill="#464747"/>
<path fill-rule="evenodd" clip-rule="evenodd" d="M814.392 860.156L819.765 879.854L464.798 1212.93L450.273 1214.72L451.268 1203.38L814.392 860.156Z" fill="#464747"/>
<path fill-rule="evenodd" clip-rule="evenodd" d="M451.866 507.18H811.209V845.432H451.866V507.18ZM427.392 484.298H835.484V868.513H427.392V484.298Z" fill="#464747"/>
<path fill-rule="evenodd" clip-rule="evenodd" d="M820.163 842.846L805.837 853.192L451.866 519.118L449.876 505.389L462.013 506.384L820.163 842.846Z" fill="#464747"/>
<path fill-rule="evenodd" clip-rule="evenodd" d="M808.821 504.991L819.765 518.521L464.798 851.799L450.273 853.59L451.268 842.249L808.821 504.991Z" fill="#464747"/>
<path fill-rule="evenodd" clip-rule="evenodd" d="M241.353 0H1021.72V514.94H241.353V0Z" fill="#464747"/>
<path fill-rule="evenodd" clip-rule="evenodd" d="M288.111 30.8408H975.162V484.298H288.111V30.8408Z" fill="#FFED00"/>
<path fill-rule="evenodd" clip-rule="evenodd" d="M443.708 172.509L975.162 171.912V368.695H445.3L443.708 172.31V172.509ZM421.821 158.581H996.253L995.258 382.225H421.821V158.581Z" fill="#464747"/>
<path d="M975.162 172.509H443.708V368.894H975.162V172.509Z" fill="#BEDDF3" stroke="#2B2A29" stroke-width="0.755913"/>
<path fill-rule="evenodd" clip-rule="evenodd" d="M1021.72 88.3437H1381.07V426.596H1021.72V88.3437ZM997.248 65.4619H1405.34V449.677H997.248V65.4619Z" fill="#464747"/>
<path fill-rule="evenodd" clip-rule="evenodd" d="M1390.02 424.009L1375.69 434.356L1021.72 100.282L1019.73 86.5527L1031.87 87.5476L1390.02 424.009Z" fill="#464747"/>
<path fill-rule="evenodd" clip-rule="evenodd" d="M2556.59 88.3437H2915.94V426.596H2556.59V88.3437ZM2532.12 65.4619H2940.21V449.677H2532.12V65.4619Z" fill="#464747"/>
<path fill-rule="evenodd" clip-rule="evenodd" d="M2924.89 424.009L2910.56 434.356L2556.39 100.282L2554.6 86.5527L2566.74 87.5476L2924.89 424.009Z" fill="#464747"/>
<path fill-rule="evenodd" clip-rule="evenodd" d="M2916.93 83.3691L2924.49 99.6848L2569.52 432.963L2555 434.754L2555.99 423.412L2916.93 83.3691Z" fill="#464747"/>
<path fill-rule="evenodd" clip-rule="evenodd" d="M2940.41 88.3437L3299.75 426.596H2940.41V88.3437ZM2915.94 65.4619L3324.03 449.677H2915.94V65.4619Z" fill="#464747"/>
<path fill-rule="evenodd" clip-rule="evenodd" d="M3331.39 449.279L3311.49 449.677L2940.21 100.282L2938.22 86.553L2940.41 65.4619L3331.39 449.279Z" fill="#464747"/>
<path fill-rule="evenodd" clip-rule="evenodd" d="M3123.46 250.108L3134.41 263.638L2953.14 432.963L2938.62 434.754L2939.61 423.413L3123.46 250.108Z" fill="#464747"/>
<path fill-rule="evenodd" clip-rule="evenodd" d="M1405.54 88.3437H1764.88V426.596H1405.54V88.3437ZM1381.06 65.4619H1789.16V449.677H1381.06V65.4619Z" fill="#464747"/>
<path fill-rule="evenodd" clip-rule="evenodd" d="M1773.64 424.009L1759.31 434.356L1405.34 100.282L1403.35 86.5527L1415.69 87.5476L1773.64 424.009Z" fill="#464747"/>
<path fill-rule="evenodd" clip-rule="evenodd" d="M1766.87 80.5835L1773.44 99.6848L1418.47 432.963L1403.75 434.754L1404.94 423.412L1766.87 80.5835Z" fill="#464747"/>
<path fill-rule="evenodd" clip-rule="evenodd" d="M1789.16 88.3437H2148.5V426.596H1789.16V88.3437ZM1764.68 65.4619H2172.77V449.677H1764.68V65.4619Z" fill="#464747"/>
<path fill-rule="evenodd" clip-rule="evenodd" d="M2157.45 424.009L2143.13 434.356L1789.16 100.282L1787.17 86.5527L1799.3 87.5476L2157.45 424.009Z" fill="#464747"/>
<path fill-rule="evenodd" clip-rule="evenodd" d="M2150.69 80.5835L2157.06 99.6848L1802.09 432.963L1787.56 434.754L1788.56 423.412L2150.69 80.5835Z" fill="#464747"/>
<path fill-rule="evenodd" clip-rule="evenodd" d="M2172.97 88.3437H2532.32V426.596H2172.97V88.3437ZM2148.5 65.4619H2556.59V449.677H2148.5V65.4619Z" fill="#464747"/>
<path fill-rule="evenodd" clip-rule="evenodd" d="M2541.07 424.009L2526.75 434.356L2172.77 100.282L2170.79 86.5527L2182.92 87.5476L2541.07 424.009Z" fill="#464747"/>
<path fill-rule="evenodd" clip-rule="evenodd" d="M2534.31 80.5835L2540.67 99.6848L2185.91 432.963L2171.18 434.754L2172.18 423.412L2534.31 80.5835Z" fill="#464747"/>
<path fill-rule="evenodd" clip-rule="evenodd" d="M1766.87 80.5835L1773.44 99.6848L1418.47 432.963L1403.75 434.754L1404.94 423.412L1766.87 80.5835Z" fill="#464747"/>
<path fill-rule="evenodd" clip-rule="evenodd" d="M1380.27 80.5835L1386.64 99.6848L1031.67 432.963L1017.15 434.754L1018.14 423.412L1380.27 80.5835Z" fill="#464747"/>
<path d="M2743.23 793.302H1516.56V1384.65H2743.23V793.302Z" fill="#B1D4F1"/>
<path fill-rule="evenodd" clip-rule="evenodd" d="M2743.03 793.302L2129.8 1088.97L1516.56 793.302H2743.03Z" fill="#77B4E3"/>
<path fill-rule="evenodd" clip-rule="evenodd" d="M1563.52 1760.11H2815.06C2840.52 1760.11 2861.42 1781 2861.42 1806.47V1929.43C2861.42 1954.9 2840.52 1975.79 2815.06 1975.79H1563.52C1538.05 1975.79 1517.16 1954.9 1517.16 1929.43V1806.47C1517.16 1781 1538.05 1760.11 1563.52 1760.11ZM1579.44 1826.36V1811.44H1592.37V1826.36H1579.44ZM1579.44 1916.9V1840.49H1592.37V1916.9H1579.44ZM1615.25 1916.9V1850.44H1603.91V1840.29H1615.25V1832.13C1615.25 1826.96 1615.65 1823.18 1616.65 1820.59C1617.84 1817.21 1620.03 1814.43 1623.21 1812.44C1626.4 1810.45 1630.77 1809.25 1636.35 1809.25C1639.93 1809.25 1644.11 1809.65 1648.48 1810.65L1646.49 1821.99C1643.91 1821.59 1641.32 1821.19 1638.93 1821.19C1634.95 1821.19 1632.17 1821.99 1630.58 1823.78C1628.98 1825.37 1628.19 1828.55 1628.19 1833.13V1840.09H1643.11V1850.24H1628.19V1916.7H1615.25V1916.9ZM1677.93 1947.94C1670.77 1938.98 1664.8 1928.44 1659.82 1916.3C1654.85 1904.16 1652.46 1891.63 1652.46 1878.69C1652.46 1867.35 1654.25 1856.41 1658.03 1845.86C1662.41 1833.73 1668.98 1821.59 1678.13 1809.65H1687.48C1681.71 1819.6 1677.93 1826.76 1675.94 1830.94C1672.96 1837.51 1670.77 1844.47 1668.98 1851.63C1666.99 1860.59 1665.79 1869.54 1665.79 1878.69C1665.79 1901.77 1672.96 1924.86 1687.28 1947.94H1677.93ZM1729.27 1932.02V1919.09C1722.7 1918.29 1717.53 1916.9 1713.55 1914.71C1709.57 1912.72 1705.99 1909.14 1703 1904.56C1700.02 1899.98 1698.43 1894.21 1697.83 1887.45L1710.76 1885.06C1711.76 1892.02 1713.55 1897.2 1716.13 1900.38C1719.72 1904.96 1724.09 1907.54 1729.27 1908.14V1866.95C1723.89 1865.96 1718.52 1863.97 1712.95 1860.79C1708.77 1858.4 1705.59 1855.22 1703.4 1851.24C1701.21 1847.26 1700.02 1842.48 1700.02 1837.31C1700.02 1828.15 1703.2 1820.59 1709.77 1814.82C1714.14 1811.04 1720.71 1808.66 1729.27 1807.86V1801.69H1736.83V1807.86C1744.39 1808.66 1750.36 1810.84 1754.73 1814.43C1760.5 1819.2 1763.89 1825.57 1764.88 1833.73L1751.55 1835.72C1750.75 1830.54 1749.16 1826.76 1746.78 1823.98C1744.39 1821.19 1741.01 1819.4 1736.83 1818.6V1856.01C1743.39 1857.6 1747.57 1859 1749.76 1859.79C1753.74 1861.58 1757.12 1863.77 1759.71 1866.16C1762.3 1868.75 1764.28 1871.73 1765.68 1875.31C1767.07 1878.89 1767.67 1882.67 1767.67 1886.65C1767.67 1895.61 1764.88 1903.17 1759.11 1909.14C1753.34 1915.11 1745.98 1918.29 1737.03 1918.89V1932.02H1729.46H1729.27ZM1729.27 1818.6C1724.29 1819.4 1720.31 1821.39 1717.33 1824.57C1714.34 1827.76 1712.95 1831.74 1712.95 1836.11C1712.95 1840.49 1714.14 1844.27 1716.73 1847.26C1719.12 1850.24 1723.3 1852.63 1729.27 1854.42V1818.6ZM1736.83 1908.14C1741.8 1907.54 1745.98 1905.36 1749.36 1901.58C1752.74 1897.8 1754.34 1893.22 1754.34 1887.65C1754.34 1882.87 1753.14 1879.09 1750.75 1876.31C1748.37 1873.52 1743.79 1870.93 1736.83 1868.55V1907.94V1908.14ZM1772.24 1946.15V1936.79H1858.2V1946.15H1772.24ZM1867.95 1916.9V1811.44H1907.74C1914.71 1811.44 1920.08 1811.84 1923.86 1812.44C1929.03 1813.23 1933.41 1815.02 1936.99 1817.41C1940.57 1819.8 1943.36 1823.18 1945.35 1827.56C1947.54 1831.94 1948.53 1836.71 1948.53 1841.88C1948.53 1850.84 1945.75 1858.4 1939.98 1864.77C1934.21 1870.93 1923.86 1874.12 1908.94 1874.12H1881.88V1917.1H1867.95V1916.9ZM1881.88 1861.58H1909.14C1918.09 1861.58 1924.66 1859.99 1928.44 1856.61C1932.22 1853.23 1934.21 1848.45 1934.21 1842.48C1934.21 1838.1 1933.01 1834.32 1930.82 1831.14C1928.64 1827.96 1925.65 1825.97 1922.07 1824.97C1919.68 1824.37 1915.3 1823.98 1909.14 1823.98H1882.08V1861.78L1881.88 1861.58ZM1962.06 1865.56C1962.06 1848.05 1966.84 1834.32 1976.19 1824.37C1985.54 1814.43 1997.68 1809.45 2012.6 1809.45C2022.35 1809.45 2031.11 1811.84 2038.87 1816.42C2046.63 1820.99 2052.6 1827.56 2056.77 1835.91C2060.95 1844.27 2062.94 1853.62 2062.94 1864.17C2062.94 1874.91 2060.75 1884.46 2056.57 1892.82C2052.2 1901.18 2046.23 1907.74 2038.27 1911.92C2030.31 1916.3 2021.75 1918.49 2012.6 1918.49C2002.65 1918.49 1993.7 1916.1 1985.94 1911.33C1978.18 1906.55 1972.21 1899.98 1968.23 1891.63C1964.25 1883.27 1962.26 1874.52 1962.26 1865.36L1962.06 1865.56ZM1976.39 1865.76C1976.39 1878.49 1979.77 1888.44 1986.74 1895.81C1993.5 1903.17 2002.26 1906.75 2012.4 1906.75C2022.95 1906.75 2031.5 1902.97 2038.27 1895.61C2045.03 1888.24 2048.42 1877.7 2048.42 1864.17C2048.42 1855.61 2047.02 1848.05 2044.04 1841.68C2041.06 1835.32 2036.88 1830.34 2031.31 1826.76C2025.73 1823.18 2019.37 1821.39 2012.4 1821.39C2002.45 1821.39 1994.1 1824.77 1986.93 1831.54C1979.77 1838.3 1976.19 1849.64 1976.19 1865.56L1976.39 1865.76ZM2076.27 1883.07L2089.41 1881.88C2090 1887.25 2091.39 1891.43 2093.78 1894.81C2095.97 1898.19 2099.55 1900.98 2104.33 1902.97C2109.1 1904.96 2114.48 1906.15 2120.44 1906.15C2125.82 1906.15 2130.39 1905.36 2134.57 1903.76C2138.55 1902.17 2141.73 1899.98 2143.72 1897.2C2145.71 1894.41 2146.71 1891.43 2146.71 1888.24C2146.71 1884.86 2145.71 1882.08 2143.72 1879.49C2141.73 1877.1 2138.55 1874.91 2134.17 1873.32C2131.39 1872.13 2125.02 1870.54 2115.47 1868.15C2105.72 1865.76 2098.96 1863.57 2095.18 1861.58C2090.2 1859 2086.42 1855.61 2083.83 1851.83C2081.45 1847.85 2080.05 1843.48 2080.05 1838.7C2080.05 1833.33 2081.65 1828.35 2084.63 1823.78C2087.61 1819.2 2091.99 1815.62 2097.96 1813.23C2103.73 1810.84 2110.3 1809.65 2117.26 1809.65C2125.02 1809.65 2131.99 1810.84 2137.95 1813.43C2143.92 1816.02 2148.5 1819.6 2151.68 1824.57C2154.87 1829.55 2156.66 1834.92 2156.86 1841.29L2143.53 1842.28C2142.73 1835.72 2140.34 1830.54 2136.16 1827.16C2131.99 1823.78 2125.82 1821.99 2117.86 1821.99C2109.5 1821.99 2103.33 1823.58 2099.35 1826.56C2095.57 1829.75 2093.58 1833.33 2093.58 1837.71C2093.58 1841.49 2094.98 1844.67 2097.76 1847.06C2100.55 1849.44 2107.51 1852.03 2118.85 1854.62C2130.19 1857.2 2137.95 1859.39 2142.13 1861.38C2148.3 1864.17 2152.88 1867.75 2155.66 1872.13C2158.65 1876.51 2160.04 1881.48 2160.04 1887.05C2160.04 1892.62 2158.45 1897.99 2155.26 1902.97C2152.08 1907.94 2147.51 1911.72 2141.34 1914.51C2135.37 1917.29 2128.6 1918.69 2121.04 1918.69C2111.49 1918.69 2103.53 1917.29 2096.97 1914.51C2090.6 1911.72 2085.43 1907.54 2081.84 1901.97C2078.26 1896.4 2076.27 1890.04 2076.07 1883.07H2076.27ZM2206.2 1916.9V1823.78H2171.38V1811.24H2254.95V1823.78H2220.13V1916.9H2206.2ZM2268.08 1946.15V1811.24H2296.73V1821.99H2281.21V1935.4H2296.73V1946.15H2268.08ZM2308.87 1848.65L2305.49 1828.95V1811.24H2320.21V1828.95L2316.83 1848.65H2308.87ZM2336.93 1916.9V1840.49H2348.67V1851.43C2354.24 1843.08 2362.39 1838.9 2372.94 1838.9C2377.52 1838.9 2381.7 1839.7 2385.67 1841.29C2389.65 1842.88 2392.44 1845.07 2394.43 1847.85C2396.42 1850.44 2397.61 1853.82 2398.41 1857.4C2398.81 1859.79 2399.2 1863.97 2399.2 1869.94V1916.9H2386.27V1870.34C2386.27 1865.16 2385.87 1861.18 2384.68 1858.4C2383.68 1855.81 2381.89 1853.62 2379.31 1852.23C2376.72 1850.64 2373.74 1849.84 2370.35 1849.84C2364.78 1849.84 2360.01 1851.63 2356.03 1855.02C2352.05 1858.6 2350.06 1865.16 2350.06 1874.91V1916.7H2337.13L2336.93 1916.9ZM2468.84 1907.54C2464.07 1911.52 2459.49 1914.51 2454.92 1916.1C2450.54 1917.69 2445.76 1918.69 2440.59 1918.69C2432.23 1918.69 2425.67 1916.7 2421.29 1912.52C2416.71 1908.34 2414.53 1903.17 2414.53 1896.8C2414.53 1893.02 2415.32 1889.64 2417.11 1886.45C2418.9 1883.27 2421.09 1880.88 2423.88 1879.09C2426.66 1877.3 2429.85 1875.71 2433.23 1874.91C2435.82 1874.32 2439.6 1873.52 2444.77 1872.92C2455.31 1871.73 2462.88 1870.14 2467.85 1868.55C2467.85 1866.76 2467.85 1865.56 2467.85 1865.16C2467.85 1859.79 2466.66 1856.21 2464.07 1854.02C2460.69 1851.04 2455.91 1849.64 2449.35 1849.64C2443.18 1849.64 2438.8 1850.64 2435.82 1852.83C2432.83 1855.02 2430.84 1858.8 2429.45 1864.17L2416.71 1862.38C2417.91 1857.01 2419.7 1852.63 2422.48 1849.25C2425.07 1845.86 2428.85 1843.28 2434.02 1841.49C2439 1839.7 2444.77 1838.7 2451.34 1838.7C2457.9 1838.7 2463.07 1839.5 2467.25 1841.09C2471.23 1842.68 2474.42 1844.47 2476.21 1846.86C2478.2 1849.25 2479.39 1852.03 2480.19 1855.61C2480.58 1857.8 2480.78 1861.78 2480.78 1867.55V1884.86C2480.78 1897 2480.98 1904.56 2481.58 1907.74C2482.18 1910.93 2483.17 1913.91 2484.76 1916.9H2471.23C2469.84 1914.31 2469.04 1911.13 2468.65 1907.54H2468.84ZM2467.85 1878.69C2463.07 1880.68 2456.11 1882.28 2446.76 1883.67C2441.39 1884.46 2437.61 1885.26 2435.42 1886.25C2433.23 1887.25 2431.44 1888.64 2430.24 1890.43C2429.05 1892.22 2428.45 1894.41 2428.45 1896.6C2428.45 1899.98 2429.85 1902.97 2432.43 1905.16C2435.02 1907.35 2438.8 1908.54 2443.97 1908.54C2448.95 1908.54 2453.33 1907.54 2457.3 1905.36C2461.28 1903.17 2464.07 1900.18 2465.86 1896.4C2467.25 1893.42 2467.85 1889.24 2467.85 1883.47V1878.69ZM2501.08 1917.1V1840.69H2512.62V1851.43C2515.01 1847.65 2518.19 1844.67 2522.17 1842.48C2526.15 1840.29 2530.73 1839.1 2535.7 1839.1C2541.27 1839.1 2546.05 1840.29 2549.63 1842.68C2553.21 1845.07 2555.8 1848.25 2557.39 1852.63C2563.56 1843.67 2571.32 1839.3 2581.07 1839.3C2588.63 1839.3 2594.4 1841.49 2598.57 1845.66C2602.55 1849.84 2604.74 1856.41 2604.74 1864.96V1917.49H2591.81V1869.34C2591.81 1864.17 2591.41 1860.39 2590.62 1858.2C2589.82 1856.01 2588.23 1854.02 2586.04 1852.63C2583.85 1851.24 2581.26 1850.64 2578.28 1850.64C2572.91 1850.64 2568.53 1852.43 2564.95 1856.01C2561.37 1859.59 2559.58 1865.36 2559.58 1873.12V1917.49H2546.64V1867.75C2546.64 1861.98 2545.65 1857.6 2543.46 1854.82C2541.27 1852.03 2537.89 1850.44 2533.11 1850.44C2529.53 1850.44 2526.15 1851.43 2522.97 1853.42C2519.78 1855.41 2517.59 1858.2 2516.2 1861.78C2514.81 1865.56 2514.21 1870.73 2514.21 1877.7V1917.29H2501.28L2501.08 1917.1ZM2676.17 1892.42L2689.5 1894.01C2687.32 1901.77 2683.54 1907.94 2677.77 1912.32C2672 1916.7 2664.83 1918.69 2655.88 1918.69C2644.74 1918.69 2635.78 1915.3 2629.22 1908.34C2622.65 1901.38 2619.47 1891.83 2619.47 1879.29C2619.47 1866.36 2622.85 1856.41 2629.42 1849.25C2635.98 1842.08 2644.54 1838.5 2655.28 1838.5C2665.43 1838.5 2673.79 1842.08 2680.35 1848.85C2686.92 1855.81 2690.1 1865.56 2690.1 1878.3C2690.1 1879.09 2690.1 1880.29 2690.1 1881.68H2633C2633.39 1890.04 2635.78 1896.6 2640.16 1900.98C2644.34 1905.36 2649.71 1907.74 2656.08 1907.74C2660.85 1907.74 2664.83 1906.55 2668.21 1903.96C2671.6 1901.58 2674.18 1897.6 2676.17 1892.02V1892.42ZM2633.59 1871.53H2676.37C2675.78 1865.16 2674.18 1860.19 2671.4 1857.01C2667.22 1852.03 2661.85 1849.44 2655.28 1849.44C2649.31 1849.44 2644.34 1851.43 2640.36 1855.41C2636.38 1859.39 2633.99 1864.77 2633.59 1871.33V1871.53ZM2705.82 1849.05L2702.44 1829.35V1811.64H2717.16V1829.35L2713.78 1849.05H2705.82ZM2755.56 1946.54H2726.91V1935.8H2742.63V1822.38H2726.91V1811.64H2755.56V1946.54ZM2783.42 1948.33H2774.07C2788.39 1925.25 2795.56 1902.17 2795.56 1879.09C2795.56 1870.14 2794.56 1861.18 2792.37 1852.23C2790.78 1845.07 2788.39 1838.1 2785.61 1831.54C2783.82 1827.16 2779.84 1820 2774.07 1809.85H2783.42C2792.37 1821.99 2799.14 1833.93 2803.52 1846.06C2807.3 1856.61 2809.09 1867.55 2809.09 1878.89C2809.09 1891.83 2806.7 1904.36 2801.73 1916.5C2796.75 1928.64 2790.78 1939.18 2783.62 1948.14L2783.42 1948.33Z" fill="#FF8C81"/>
</svg>
