<?xml version="1.0" encoding="UTF-8"?>
<!DOCTYPE svg PUBLIC "-//W3C//DTD SVG 1.1//EN" "http://www.w3.org/Graphics/SVG/1.1/DTD/svg11.dtd">
<!-- Creator: CorelDRAW X5 -->
<svg xmlns="http://www.w3.org/2000/svg" xml:space="preserve" width="1430.83mm" height="836.638mm" style="shape-rendering:geometricPrecision; text-rendering:geometricPrecision; image-rendering:optimizeQuality; fill-rule:evenodd; clip-rule:evenodd"
viewBox="0 0 27179 15892"
 xmlns:xlink="http://www.w3.org/1999/xlink">
 <defs>
  <style type="text/css">
   <![CDATA[
    .str0 {stroke:#2B2A29;stroke-width:3.79909}
    .fil5 {fill:#4E565A}
    .fil18 {fill:#FFED00}
    .fil6 {fill:#737373}
    .fil11 {fill:#7D9BAD}
    .fil8 {fill:#FF6F61}
    .fil22 {fill:#FF8C81}
    .fil4 {fill:black}
    .fil9 {fill:#464747}
    .fil2 {fill:#48854C}
    .fil7 {fill:#6E6B68}
    .fil21 {fill:#77B4E3}
    .fil20 {fill:#B1D4F1}
    .fil0 {fill:#BC82B7}
    .fil19 {fill:#BEDDF3}
    .fil17 {fill:#E79918}
    .fil10 {fill:#FDEC1F}
    .fil12 {fill:#FEFEFE}
    .fil14 {fill:#2B2E33;fill-rule:nonzero}
    .fil1 {fill:#F8BB97;fill-rule:nonzero}
    .fil16 {fill:#FFED00;fill-rule:nonzero}
    .fil13 {fill:#7D9BAD;fill-rule:nonzero}
    .fil15 {fill:#384761;fill-rule:nonzero}
    .fil3 {fill:#4956A0;fill-rule:nonzero}
   ]]>
  </style>
 </defs>
 <g id="Vrstva_x0020_1">
  <metadata id="CorelCorpID_0Corel-Layer"/>
  <g id="_480228608">
   <path class="fil0" d="M2942 13456l1118 -4322c52,-202 261,-325 463,-273l975 252c202,52 325,261 273,463l-1118 4322c-52,202 -261,325 -463,273l-975 -252c-202,-52 -325,-261 -273,-463zm1532 -1520c-14,-3 -24,-6 -31,-7 -40,-10 -74,-25 -100,-44 -20,-14 -39,-33 -56,-58 -13,-18 -30,-49 -52,-92 -22,-44 -41,-73 -57,-89 -16,-15 -35,-26 -57,-32 -40,-10 -79,-4 -117,19 -38,23 -63,58 -75,103 -11,44 -7,84 13,120 20,36 58,67 114,91l-40 102c-75,-30 -128,-73 -157,-131 -29,-58 -34,-125 -14,-202 21,-82 60,-141 117,-178 57,-37 117,-48 180,-31 36,9 68,27 94,52 26,25 55,68 86,129 21,41 37,69 49,83 12,14 26,26 43,35 17,10 46,20 87,32l-26 99zm204 59l-117 -30 30 -117 117 30 -30 117zm-106 -1099l93 615 -102 -26 -68 -486 -294 392 -102 -26 377 -493 96 25z"/>
   <path class="fil1" d="M24123 7403c0,0 -83,47 -155,28 -99,-24 -334,-211 -342,-225 -17,-31 8,-31 8,-31 0,0 -52,-22 -56,-45 -4,-23 36,-22 36,-22 0,0 -32,-19 -34,-38 -2,-19 48,-14 48,-14 0,0 -33,-20 -31,-42 2,-21 74,-23 108,-13 97,28 161,66 221,111 0,0 -55,-91 -27,-96 42,-8 182,165 231,223 49,58 -9,164 -9,164z"/>
   <path class="fil2" d="M23236 4958l618 2724c29,127 -52,255 -179,284l-615 139c-127,29 -255,-52 -284,-179l-616 -2724c-29,-127 52,-255 179,-284l615 -139c127,-29 264,102 282,180zm-500 398l60 -14 226 315 -64 15 -176 -251 -52 302 -64 15 70 -382zm-151 443l579 30 12 52 -579 -29 -12 -52zm68 260l527 -119 53 233c11,47 14,84 10,110 -4,27 -16,50 -37,70 -21,20 -46,33 -75,40 -37,8 -71,4 -103,-15 -31,-18 -56,-52 -74,-101 -5,21 -10,36 -17,48 -14,25 -33,49 -57,74l-123 124 -20 -88 94 -94c27,-27 47,-50 61,-67 14,-17 23,-31 27,-43 4,-12 7,-24 7,-35 0,-8 -2,-21 -6,-39l-18 -81 -234 53 -16 -70zm310 3l34 150c7,32 16,56 27,72 11,17 24,28 41,34 17,6 33,7 50,3 25,-6 43,-19 55,-41 12,-22 13,-52 5,-91l-38 -167 -174 39zm-190 525l527 -119 24 105 -345 209c-32,19 -56,34 -72,43 20,2 51,5 91,9l395 43 21 94 -527 119 -15 -67 441 -100 -475 -53 -14 -63 414 -254 -448 101 -15 -67zm444 895l-228 -315 64 -15 177 250 51 -302 64 -15 -68 382 -60 14z"/>
   <path class="fil3" d="M24829 8161l1048 792c350,206 495,-116 495,-116 15,-284 -240,-464 -240,-464l-958 -564c0,0 -302,-97 -369,44 0,0 -121,216 25,308z"/>
   <path class="fil3" d="M24828 8170l-933 -733c51,-153 200,-260 200,-260l1098 649c0,0 -77,445 -365,344z"/>
   <path class="fil4" d="M14272 2867l12445 0c254,0 462,187 462,415l0 8675 -13369 0 0 -8675c0,-228 208,-415 462,-415zm-23 298l12491 0 0 8493 -12491 0 0 -8493z"/>
   <rect class="fil5" x="26030" y="3436" width="352" height="288"/>
   <rect class="fil5" x="25591" y="3436" width="352" height="288"/>
   <rect class="fil5" x="25161" y="3436" width="352" height="288"/>
   <rect class="fil4" x="19780" y="12366" width="1429" height="1454"/>
   <path class="fil4" d="M18364 13632l4261 0c49,0 89,40 89,89l0 287 -4439 0 0 -287c0,-49 40,-89 89,-89z"/>
   <path class="fil6" d="M13810 11956l13369 0 0 179c0,127 -104,230 -230,230l-12908 0c-127,0 -230,-104 -230,-230l0 -179z"/>
   <g>
    <rect class="fil5" transform="matrix(1.16284 -0.0558709 0.00940737 1.0042 23840.4 8665.07)" width="201" height="7197"/>
    <rect class="fil5" transform="matrix(1.16284 -0.0558709 0.00940737 1.0042 25827.5 8569.6)" width="201" height="7197"/>
    <rect class="fil5" transform="matrix(1.16284 -0.0558709 0.0119216 1.27258 23964.7 9135.8)" width="1721" height="118"/>
    <rect class="fil5" transform="matrix(1.16284 -0.0558709 0.0119216 1.27258 23974.3 10155.9)" width="1721" height="118"/>
    <rect class="fil5" transform="matrix(1.16284 -0.0558709 0.0119216 1.27258 23983.8 11176.1)" width="1721" height="118"/>
    <rect class="fil5" transform="matrix(1.16284 -0.0558709 0.0119216 1.27258 23993.4 12196.2)" width="1721" height="118"/>
    <rect class="fil5" transform="matrix(1.16284 -0.0558709 0.0119216 1.27258 24002.9 13216.3)" width="1721" height="118"/>
    <rect class="fil5" transform="matrix(1.16284 -0.0558709 0.0119216 1.27258 24012.5 14236.4)" width="1721" height="118"/>
    <rect class="fil5" transform="matrix(1.16284 -0.0558709 0.0119216 1.27258 24022 15256.6)" width="1721" height="118"/>
   </g>
   <path class="fil7" d="M4297 13126l2766 -3508c129,-164 369,-192 534,-63l792 625c164,129 192,369 63,534l-2766 3508c-129,164 -369,192 -534,63l-792 -625c-164,-129 -192,-369 -63,-534zm658 657l-78 -61 165 -599 83 65 -135 471 428 -240 83 65 -546 298zm752 -343l-678 -535 71 -90 278 220 278 -352 -278 -220 71 -90 678 535 -71 90 -319 -252 -278 352 319 252 -71 90zm539 -683l-678 -535 387 -490 80 63 -316 400 208 164 296 -375 80 63 -296 375 231 182 328 -416 80 63 -399 506zm438 -555l-473 -795 76 -97 897 257 -81 102 -268 -83 -224 283 147 236 -75 95zm-124 -415l181 -230 -244 -77c-74,-23 -133,-44 -178,-63 37,43 70,89 101,139l140 231zm681 -291l-678 -535 184 -233c42,-53 77,-90 105,-113 39,-32 82,-52 127,-61 58,-12 118,-8 179,11 61,19 122,53 182,100 51,41 92,83 123,126 30,43 51,85 62,124 11,39 16,76 13,110 -3,34 -12,70 -30,108 -17,38 -42,77 -74,118l-193 245zm-9 -153l114 -145c35,-45 59,-83 71,-115 12,-32 16,-61 13,-89 -4,-38 -20,-77 -46,-117 -27,-40 -65,-80 -117,-121 -71,-56 -135,-87 -191,-94 -57,-7 -104,1 -144,25 -28,17 -63,52 -105,105l-112 143 518 408zm590 -1193l-162 600 -83 -65 133 -472 -427 240 -83 -65 544 -300 78 61z"/>
   <path class="fil8" d="M1981 14226l-1944 -4022c-91,-188 -11,-416 177,-507l909 -439c188,-91 416,-11 507,177l1944 4022c91,188 11,416 -177,507l-909 439c-188,91 -416,11 -507,-177zm601 -835l-89 43 -466 -410 95 -46 365 327 -28 -490 95 -46 29 621zm22 -823l-777 376 -129 -268c-29,-60 -48,-108 -56,-144 -11,-49 -11,-96 0,-141 15,-58 44,-110 88,-156 44,-47 101,-86 170,-120 59,-29 115,-47 167,-55 52,-8 99,-9 139,-2 40,7 75,19 105,37 30,17 58,42 84,74 26,32 51,72 74,119l136 281zm-141 -58l-80 -166c-25,-51 -49,-89 -73,-114 -24,-25 -48,-41 -74,-50 -36,-13 -78,-16 -126,-10 -48,6 -101,24 -160,52 -81,39 -137,83 -168,131 -31,48 -44,94 -41,140 3,33 19,80 48,141l79 163 594 -287zm-246 -743l-777 376 -50 -103 777 -376 50 103zm-245 -506l-632 677 -54 -111 467 -475c37,-38 73,-72 108,-102 -48,8 -97,15 -148,20l-666 63 -51 -105 925 -71 51 106zm-820 -829l469 409 -95 46 -366 -326 29 489 -95 46 -31 -620 89 -43z"/>
   <rect class="fil8" x="22088" y="2260" width="2009" height="142"/>
   <rect class="fil9 str0" x="22359" y="2401" width="88" height="1425"/>
   <rect class="fil9 str0" x="23717" y="2401" width="88" height="1450"/>
   <polygon class="fil10" points="22103,3707 22714,4367 23471,4367 24082,3707 "/>
   <polygon class="fil11" points="6587,13420 4975,15783 2976,15783 1363,13420 "/>
   <rect class="fil9" x="8101" y="13441" width="5224" height="190"/>
   <rect class="fil9" x="7686" y="13631" width="6053" height="257"/>
   <path class="fil12" d="M22825 5024c-6,-91 63,-170 154,-176 91,-6 170,63 176,154 6,91 -63,170 -154,176 -91,6 -170,-63 -176,-154z"/>
   <path class="fil8" d="M23026 4313c28,-14 64,-13 90,-3 26,10 44,30 54,57 10,27 11,61 18,89 6,28 17,50 36,79 19,29 47,65 73,103 26,38 51,78 61,110 10,32 5,57 -14,92 -19,35 -53,80 -99,110 -46,30 -105,46 -153,55 -48,10 -85,14 -121,12 -36,-1 -72,-8 -120,-26 -48,-18 -108,-47 -149,-73 -42,-26 -66,-49 -83,-80 -18,-31 -30,-70 -33,-104 -3,-34 2,-63 7,-93 74,81 147,161 233,205 86,44 184,52 243,34 59,-17 79,-59 81,-105 2,-46 -13,-97 -45,-139 -32,-43 -81,-77 -109,-118 -27,-41 -33,-88 -26,-126 8,-38 29,-66 57,-80z"/>
   <path class="fil1" d="M26130 10135l270 -1425c0,0 86,-213 -73,-325l-608 -304 -260 -107 -750 418 271 1714 1150 29z"/>
   <path class="fil13" d="M25742 14822l-92 228 -403 57c0,0 -138,36 -143,166l965 0 -79 -450 -249 0z"/>
   <path class="fil14" d="M26057 11147c13,234 -80,429 -306,441 -226,12 -420,-167 -432,-401 -13,-234 160,-433 386,-445 226,-12 339,172 352,405z"/>
   <path class="fil13" d="M24917 15251l-27 -403 -184 -26c0,0 -74,166 -137,204 -63,38 -485,102 -485,102 0,0 -131,-15 -131,147 0,0 284,26 964,-24z"/>
   <path class="fil14" d="M25567 11150c-15,233 -210,411 -436,396 -226,-15 -397,-216 -382,-449 15,-233 210,-411 436,-396 226,15 397,216 382,449z"/>
   <path class="fil15" d="M24902 15027l141 -1082c115,-750 93,-1163 93,-1163 -129,-475 -540,-93 -540,-93l-27 2337c0,0 133,68 333,1zm1129 25l81 -1351c0,-466 -147,-939 -147,-939 -306,-316 -491,-37 -491,-37l176 2324c0,0 235,27 381,3zm-725 -3634l174 1334c0,0 394,449 487,175 0,0 147,-1158 91,-1779 0,0 -639,-301 -752,271zm-561 -270l-148 1541c0,0 159,424 519,165l492 -1486c0,0 -214,-664 -863,-220z"/>
   <path class="fil1" d="M25292 7755l-12 463 490 12c0,0 -116,-187 -49,-465l-430 -11z"/>
   <path class="fil1" d="M25203 7870c-137,6 -157,-123 -157,-123 -77,-260 -55,-422 -55,-422 12,-39 22,-80 17,-123 -25,-210 95,-313 95,-313 140,-178 424,-148 424,-148 8,1 15,3 23,4 350,26 399,242 399,242 35,94 41,199 19,297 -25,113 -76,205 -135,302 -65,105 -193,177 -329,222l-3 133 -171 -4c-22,-72 -83,-66 -83,-66l-43 0z"/>
   <path class="fil1" d="M25246 7870c0,0 21,-3 43,11l-6 227 129 3c-26,-86 -20,-188 3,-265 86,-77 218,-122 334,-235 -32,0 -152,-3 -185,-2 -60,2 -121,-4 -181,1 -54,5 -52,50 -62,94 -4,17 -8,35 -14,50 -2,5 -4,10 -7,15l0 0c-2,5 -5,9 -8,14 -12,17 -29,30 -56,36 -67,13 -125,12 -175,-31 19,39 58,84 142,81l43 0z"/>
   <path class="fil16" d="M25636 6589c0,0 477,64 380,413 0,0 104,120 78,240 -11,223 -323,512 -323,512 -28,58 -71,62 -71,62l-154 -4c-68,-4 -90,-48 -90,-48 -118,-145 -181,-200 -181,-200 -57,-66 21,-191 21,-191 59,-148 -93,-138 -93,-138 -63,30 -47,151 -47,151 -26,-3 -51,-32 -51,-32l11 -180c-7,-48 3,-58 -37,-90 -293,-76 77,-293 77,-293 0,0 7,-21 98,-13 44,26 171,192 92,-100 0,0 -147,-117 291,-91z"/>
   <path class="fil3" d="M26307 11348l26 -1401 89 -1315c49,-220 -163,-281 -163,-281l-403 -202c0,0 -134,279 -703,-5l-452 244 -27 1436 -191 1556c0,0 561,188 1056,189 271,-20 558,-20 768,-222z"/>
   <path class="fil3" d="M23713 8416l1242 427c396,87 434,-264 434,-264 -74,-274 -372,-366 -372,-366l-1086 -238c0,0 -318,2 -337,157 0,0 -48,243 119,285z"/>
   <path class="fil1" d="M22957 7819c0,0 -91,27 -157,-7 -214,-133 -264,-534 -160,-477 89,49 142,100 191,157 0,0 -34,-101 -6,-100 43,1 141,201 176,269 35,67 -45,158 -45,158z"/>
   <path class="fil3" d="M23740 8416l-1067 -681c36,-157 175,-274 175,-274l1221 577c0,0 -33,450 -329,378z"/>
   <path class="fil17" d="M24894 6982c467,-102 930,175 1289,359 6,-17 39,-50 -21,-74 -132,-53 147,-575 -408,-775 -713,-257 -759,346 -859,470 -7,9 -6,16 -1,19z"/>
   <path class="fil2" d="M22825 5024c6,91 85,160 176,154 91,-6 160,-85 154,-176 -6,-91 -85,-160 -176,-154 -8,-11 -172,-35 -24,-71 81,-19 158,5 214,58 33,31 49,76 67,120 19,58 -16,130 -26,179 -10,49 42,132 -10,153 -51,21 -126,-12 -200,-43 -73,-31 -157,-87 -208,-174 11,-15 22,-31 33,-46z"/>
   <path class="fil0" d="M15544 7415l2742 0c128,0 233,105 233,233l0 618c0,128 -105,233 -233,233l-2742 0c-128,0 -233,-105 -233,-233l0 -618c0,-128 105,-233 233,-233zm545 747l-364 -158 0 -88 364 -157 0 103 -254 97 254 101 0 102zm306 -76l-92 0c0,-13 0,-21 0,-24 0,-30 5,-54 15,-74 10,-19 30,-41 59,-65 30,-24 47,-40 53,-47 9,-12 13,-25 13,-39 0,-20 -8,-37 -24,-51 -16,-14 -37,-21 -64,-21 -26,0 -47,7 -65,22 -17,15 -29,37 -36,67l-93 -12c3,-43 21,-80 55,-110 34,-30 79,-45 134,-45 58,0 105,15 139,46 34,31 52,66 52,107 0,22 -6,44 -19,64 -13,20 -40,47 -81,82 -21,18 -35,32 -40,43 -5,11 -8,30 -7,58zm-92 137l0 -102 102 0 0 102 -102 0zm323 -384l95 0 0 56c12,-19 29,-35 50,-47 21,-12 44,-18 70,-18 45,0 82,18 113,52 31,35 47,84 47,146 0,64 -16,114 -47,150 -31,36 -69,53 -114,53 -21,0 -41,-4 -58,-13 -17,-9 -35,-23 -54,-43l0 194 -102 0 0 -530zm101 186c0,43 9,75 26,96 17,21 38,31 63,31 24,0 43,-10 59,-28 16,-19 24,-50 24,-93 0,-40 -8,-70 -24,-90 -16,-20 -36,-29 -60,-29 -25,0 -45,10 -62,29 -16,19 -25,48 -25,85zm456 -332l0 195c33,-38 72,-58 118,-58 23,0 44,4 63,13 19,9 33,20 42,33 10,14 16,29 20,45 4,16 5,42 5,76l0 225 -102 0 0 -203c0,-40 -2,-66 -6,-77 -4,-11 -11,-19 -21,-26 -10,-6 -22,-10 -37,-10 -17,0 -32,4 -45,12 -13,8 -23,21 -29,37 -6,17 -9,41 -9,73l0 193 -102 0 0 -530 102 0zm348 146l95 0 0 56c12,-19 29,-35 50,-47 21,-12 44,-18 70,-18 45,0 82,18 113,52 31,35 47,84 47,146 0,64 -16,114 -47,150 -31,36 -69,53 -114,53 -21,0 -41,-4 -58,-13 -17,-9 -35,-23 -54,-43l0 194 -102 0 0 -530zm101 186c0,43 9,75 26,96 17,21 38,31 63,31 24,0 43,-10 59,-28 16,-19 24,-50 24,-93 0,-40 -8,-70 -24,-90 -16,-20 -36,-29 -60,-29 -25,0 -45,10 -62,29 -16,19 -25,48 -25,85z"/>
   <path class="fil9" d="M9957 11626l1806 0 0 1700 -1806 0 0 -1700zm-123 -115l2051 0 0 1931 -2051 0 0 -1931z"/>
   <polygon class="fil9" points="11808,13313 11736,13365 9957,11686 9947,11617 10008,11621 "/>
   <polygon class="fil9" points="11761,11606 11806,11683 10022,13358 9949,13367 9954,13309 "/>
   <path class="fil9" d="M9957 9810l1806 0 0 1700 -1806 0 0 -1700zm-123 -115l2051 0 0 1931 -2051 0 0 -1931z"/>
   <polygon class="fil9" points="11808,11497 11736,11550 9957,9870 9947,9801 10008,9806 "/>
   <polygon class="fil9" points="11772,9780 11806,9868 10022,11542 9949,11551 9954,11494 "/>
   <path class="fil9" d="M9957 7995l1806 0 0 1700 -1806 0 0 -1700zm-123 -115l2051 0 0 1931 -2051 0 0 -1931z"/>
   <polygon class="fil9" points="11808,9682 11736,9734 9957,8055 9947,7986 10008,7991 "/>
   <polygon class="fil9" points="11765,7970 11806,8052 10022,9727 9949,9736 9954,9679 "/>
   <path class="fil9" d="M9957 6180l1806 0 0 1700 -1806 0 0 -1700zm-123 -115l2051 0 0 1931 -2051 0 0 -1931z"/>
   <polygon class="fil9" points="11808,7867 11736,7919 9957,6240 9947,6171 10008,6176 "/>
   <polygon class="fil9" points="11794,6131 11806,6237 10022,7912 9949,7921 9954,7863 "/>
   <path class="fil9" d="M9957 4365l1806 0 0 1700 -1806 0 0 -1700zm-123 -115l2051 0 0 1931 -2051 0 0 -1931z"/>
   <polygon class="fil9" points="11808,6051 11736,6104 9957,4424 9947,4355 10008,4360 "/>
   <polygon class="fil9" points="11779,4323 11806,4422 10022,6096 9949,6105 9954,6048 "/>
   <path class="fil9" d="M9957 2549l1806 0 0 1700 -1806 0 0 -1700zm-123 -115l2051 0 0 1931 -2051 0 0 -1931z"/>
   <polygon class="fil9" points="11808,4236 11736,4288 9957,2609 9947,2540 10008,2545 "/>
   <polygon class="fil9" points="11751,2538 11806,2606 10022,4281 9949,4290 9954,4233 "/>
   <polygon class="fil9" points="8899,0 12821,0 12821,2588 8899,2588 "/>
   <polygon class="fil18" points="9134,155 12587,155 12587,2434 9134,2434 "/>
   <path class="fil9" d="M9916 867l2671 -3 0 989 -2663 0 -8 -987zm-110 -70l2887 0 -5 1124 -2882 0 0 -1124z"/>
   <rect class="fil19 str0" x="9916" y="867" width="2671" height="987"/>
   <path class="fil9" d="M12821 444l1806 0 0 1700 -1806 0 0 -1700zm-123 -115l2051 0 0 1931 -2051 0 0 -1931z"/>
   <polygon class="fil9" points="14672,2131 14600,2183 12821,504 12811,435 12872,440 "/>
   <path class="fil9" d="M20535 444l1806 0 0 1700 -1806 0 0 -1700zm-123 -115l2051 0 0 1931 -2051 0 0 -1931z"/>
   <polygon class="fil9" points="22386,2131 22314,2183 20534,504 20525,435 20586,440 "/>
   <polygon class="fil9" points="22346,419 22384,501 20600,2176 20527,2185 20532,2128 "/>
   <path class="fil9" d="M22464 444l1806 1700 -1806 0 0 -1700zm-123 -115l2051 1931 -2051 0 0 -1931z"/>
   <polygon class="fil9" points="24429,2258 24329,2260 22463,504 22453,435 22464,329 "/>
   <polygon class="fil9" points="23384,1257 23439,1325 22528,2176 22455,2185 22460,2128 "/>
   <path class="fil9" d="M14750 444l1806 0 0 1700 -1806 0 0 -1700zm-123 -115l2051 0 0 1931 -2051 0 0 -1931z"/>
   <polygon class="fil9" points="16600,2131 16528,2183 14749,504 14739,435 14801,440 "/>
   <polygon class="fil9" points="16566,405 16599,501 14815,2176 14741,2185 14747,2128 "/>
   <path class="fil9" d="M16678 444l1806 0 0 1700 -1806 0 0 -1700zm-123 -115l2051 0 0 1931 -2051 0 0 -1931z"/>
   <polygon class="fil9" points="18529,2131 18457,2183 16678,504 16668,435 16729,440 "/>
   <polygon class="fil9" points="18495,405 18527,501 16743,2176 16670,2185 16675,2128 "/>
   <path class="fil9" d="M18607 444l1806 0 0 1700 -1806 0 0 -1700zm-123 -115l2051 0 0 1931 -2051 0 0 -1931z"/>
   <polygon class="fil9" points="20457,2131 20385,2183 18606,504 18596,435 18657,440 "/>
   <polygon class="fil9" points="20423,405 20455,501 18672,2176 18598,2185 18603,2128 "/>
   <polygon class="fil9" points="16566,405 16599,501 14815,2176 14741,2185 14747,2128 "/>
   <polygon class="fil9" points="14623,405 14655,501 12871,2176 12798,2185 12803,2128 "/>
   <rect class="fil20" x="15308" y="3987" width="6165" height="2972"/>
   <polygon class="fil21" points="21472,3987 18390,5473 15308,3987 "/>
   <path class="fil22" d="M15544 8846l6290 0c128,0 233,105 233,233l0 618c0,128 -105,233 -233,233l-6290 0c-128,0 -233,-105 -233,-233l0 -618c0,-128 105,-233 233,-233zm80 333l0 -75 65 0 0 75 -65 0zm0 455l0 -384 65 0 0 384 -65 0zm180 0l0 -334 -57 0 0 -51 57 0 0 -41c0,-26 2,-45 7,-58 6,-17 17,-31 33,-41 16,-10 38,-16 66,-16 18,0 39,2 61,7l-10 57c-13,-2 -26,-4 -38,-4 -20,0 -34,4 -42,13 -8,8 -12,24 -12,47l0 35 75 0 0 51 -75 0 0 334 -65 0zm315 156c-36,-45 -66,-98 -91,-159 -25,-61 -37,-124 -37,-189 0,-57 9,-112 28,-165 22,-61 55,-122 101,-182l47 0c-29,50 -48,86 -58,107 -15,33 -26,68 -35,104 -10,45 -16,90 -16,136 0,116 36,232 108,348l-47 0zm258 -80l0 -65c-33,-4 -59,-11 -79,-22 -20,-10 -38,-28 -53,-51 -15,-23 -23,-52 -26,-86l65 -12c5,35 14,61 27,77 18,23 40,36 66,39l0 -207c-27,-5 -54,-15 -82,-31 -21,-12 -37,-28 -48,-48 -11,-20 -17,-44 -17,-70 0,-46 16,-84 49,-113 22,-19 55,-31 98,-35l0 -31 38 0 0 31c38,4 68,15 90,33 29,24 46,56 51,97l-67 10c-4,-26 -12,-45 -24,-59 -12,-14 -29,-23 -50,-27l0 188c33,8 54,15 65,19 20,9 37,20 50,32 13,13 23,28 30,46 7,18 10,37 10,57 0,45 -14,83 -43,113 -29,30 -66,46 -111,49l0 66 -38 0zm0 -570c-25,4 -45,14 -60,30 -15,16 -22,36 -22,58 0,22 6,41 19,56 12,15 33,27 63,36l0 -180zm38 450c25,-3 46,-14 63,-33 17,-19 25,-42 25,-70 0,-24 -6,-43 -18,-57 -12,-14 -35,-27 -70,-39l0 198zm178 191l0 -47 432 0 0 47 -432 0zm481 -147l0 -530 200 0c35,0 62,2 81,5 26,4 48,13 66,25 18,12 32,29 42,51 11,22 16,46 16,72 0,45 -14,83 -43,115 -29,31 -81,47 -156,47l-136 0 0 216 -70 0zm70 -278l137 0c45,0 78,-8 97,-25 19,-17 29,-41 29,-71 0,-22 -6,-41 -17,-57 -11,-16 -26,-26 -44,-31 -12,-3 -34,-5 -65,-5l-136 0 0 190zm403 20c0,-88 24,-157 71,-207 47,-50 108,-75 183,-75 49,0 93,12 132,35 39,23 69,56 90,98 21,42 31,89 31,142 0,54 -11,102 -32,144 -22,42 -52,75 -92,96 -40,22 -83,33 -129,33 -50,0 -95,-12 -134,-36 -39,-24 -69,-57 -89,-99 -20,-42 -30,-86 -30,-132zm72 1c0,64 17,114 52,151 34,37 78,55 129,55 53,0 96,-19 130,-56 34,-37 51,-90 51,-158 0,-43 -7,-81 -22,-113 -15,-32 -36,-57 -64,-75 -28,-18 -60,-27 -95,-27 -50,0 -92,17 -128,51 -36,34 -54,91 -54,171zm502 87l66 -6c3,27 10,48 22,65 11,17 29,31 53,41 24,10 51,16 81,16 27,0 50,-4 71,-12 20,-8 36,-19 46,-33 10,-14 15,-29 15,-45 0,-17 -5,-31 -15,-44 -10,-12 -26,-23 -48,-31 -14,-6 -46,-14 -94,-26 -49,-12 -83,-23 -102,-33 -25,-13 -44,-30 -57,-49 -12,-20 -19,-42 -19,-66 0,-27 8,-52 23,-75 15,-23 37,-41 67,-53 29,-12 62,-18 97,-18 39,0 74,6 104,19 30,13 53,31 69,56 16,25 25,52 26,84l-67 5c-4,-33 -16,-59 -37,-76 -21,-17 -52,-26 -92,-26 -42,0 -73,8 -93,23 -19,16 -29,34 -29,56 0,19 7,35 21,47 14,12 49,25 106,38 57,13 96,24 117,34 31,14 54,32 68,54 15,22 22,47 22,75 0,28 -8,55 -24,80 -16,25 -39,44 -70,58 -30,14 -64,21 -102,21 -48,0 -88,-7 -121,-21 -32,-14 -58,-35 -76,-63 -18,-28 -28,-60 -29,-95zm653 170l0 -468 -175 0 0 -63 420 0 0 63 -175 0 0 468 -70 0zm311 147l0 -678 144 0 0 54 -78 0 0 570 78 0 0 54 -144 0zm205 -490l-17 -99 0 -89 74 0 0 89 -17 99 -40 0zm141 343l0 -384 59 0 0 55c28,-42 69,-63 122,-63 23,0 44,4 64,12 20,8 34,19 44,33 10,13 16,30 20,48 2,12 4,33 4,63l0 236 -65 0 0 -234c0,-26 -2,-46 -8,-60 -5,-13 -14,-24 -27,-31 -13,-8 -28,-12 -45,-12 -28,0 -52,9 -72,26 -20,18 -30,51 -30,100l0 210 -65 0zm663 -47c-24,20 -47,35 -70,43 -22,8 -46,13 -72,13 -42,0 -75,-10 -97,-31 -23,-21 -34,-47 -34,-79 0,-19 4,-36 13,-52 9,-16 20,-28 34,-37 14,-9 30,-17 47,-21 13,-3 32,-7 58,-10 53,-6 91,-14 116,-22 0,-9 0,-15 0,-17 0,-27 -6,-45 -19,-56 -17,-15 -41,-22 -74,-22 -31,0 -53,5 -68,16 -15,11 -25,30 -32,57l-64 -9c6,-27 15,-49 29,-66 13,-17 32,-30 58,-39 25,-9 54,-14 87,-14 33,0 59,4 80,12 20,8 36,17 45,29 10,12 16,26 20,44 2,11 3,31 3,60l0 87c0,61 1,99 4,115 3,16 8,31 16,46l-68 0c-7,-13 -11,-29 -13,-47zm-5 -145c-24,10 -59,18 -106,25 -27,4 -46,8 -57,13 -11,5 -20,12 -26,21 -6,9 -9,20 -9,31 0,17 7,32 20,43 13,11 32,17 58,17 25,0 47,-5 67,-16 20,-11 34,-26 43,-45 7,-15 10,-36 10,-65l0 -24zm167 193l0 -384 58 0 0 54c12,-19 28,-34 48,-45 20,-11 43,-17 68,-17 28,0 52,6 70,18 18,12 31,28 39,50 31,-45 70,-67 119,-67 38,0 67,11 88,32 20,21 31,54 31,97l0 264 -65 0 0 -242c0,-26 -2,-45 -6,-56 -4,-11 -12,-21 -23,-28 -11,-7 -24,-10 -39,-10 -27,0 -49,9 -67,27 -18,18 -27,47 -27,86l0 223 -65 0 0 -250c0,-29 -5,-51 -16,-65 -11,-14 -28,-22 -52,-22 -18,0 -35,5 -51,15 -16,10 -27,24 -34,42 -7,19 -10,45 -10,80l0 199 -65 0zm880 -124l67 8c-11,39 -30,70 -59,92 -29,22 -65,32 -110,32 -56,0 -101,-17 -134,-52 -33,-35 -49,-83 -49,-146 0,-65 17,-115 50,-151 33,-36 76,-54 130,-54 51,0 93,18 126,52 33,35 49,84 49,148 0,4 0,10 0,17l-287 0c2,42 14,75 36,97 21,22 48,34 80,34 24,0 44,-6 61,-19 17,-12 30,-32 40,-60zm-214 -105l215 0c-3,-32 -11,-57 -25,-73 -21,-25 -48,-38 -81,-38 -30,0 -55,10 -75,30 -20,20 -32,47 -34,80zm363 -113l-17 -99 0 -89 74 0 0 89 -17 99 -40 0zm250 490l-144 0 0 -54 79 0 0 -570 -79 0 0 -54 144 0 0 678zm140 9l-47 0c72,-116 108,-232 108,-348 0,-45 -5,-90 -16,-135 -8,-36 -20,-71 -34,-104 -9,-22 -29,-58 -58,-109l47 0c45,61 79,121 101,182 19,53 28,108 28,165 0,65 -12,128 -37,189 -25,61 -55,114 -91,159z"/>
  </g>
 </g>
</svg>
