<?xml version="1.0" encoding="UTF-8"?>
<!DOCTYPE svg PUBLIC "-//W3C//DTD SVG 1.1//EN" "http://www.w3.org/Graphics/SVG/1.1/DTD/svg11.dtd">
<!-- Creator: CorelDRAW X5 -->
<svg xmlns="http://www.w3.org/2000/svg" xml:space="preserve" width="500mm" height="380mm" style="shape-rendering:geometricPrecision; text-rendering:geometricPrecision; image-rendering:optimizeQuality; fill-rule:evenodd; clip-rule:evenodd"
viewBox="0 0 50000 38000"
 xmlns:xlink="http://www.w3.org/1999/xlink">
 <defs>
  <style type="text/css">
   <![CDATA[
    .fil0 {fill:#FFCCC7}
   ]]>
  </style>
 </defs>
 <g id="Vrstva_x0020_1">
  <metadata id="CorelCorpID_0Corel-Layer"/>
  <path class="fil0" d="M0 0l50000 0 0 38000 -50000 0 0 -38000zm32649 25629l0 2037 -11409 0c-16,-510 64,-1001 245,-1471 289,-780 756,-1543 1394,-2299 643,-751 1567,-1624 2773,-2612 1877,-1539 3147,-2757 3806,-3657 659,-896 989,-1748 989,-2548 0,-840 -301,-1547 -900,-2126 -603,-575 -1386,-864 -2351,-864 -1021,0 -1837,305 -2447,920 -615,611 -924,1459 -932,2540l-2178 -221c149,-1628 711,-2865 1684,-3717 973,-852 2283,-1278 3922,-1278 1656,0 2966,462 3930,1378 968,920 1451,2058 1451,3416 0,691 -141,1370 -426,2037 -281,667 -751,1370 -1407,2106 -655,739 -1744,1752 -3267,3038 -1270,1069 -2086,1792 -2447,2174 -362,378 -659,760 -896,1145l8467 0z"/>
 </g>
</svg>
